#N canvas 554 276 1366 662 10;
#X obj 19 252 mtl/out~;
#X text 13 68 tags: fx~;
#X msg 412 139 /wet \$1;
#X floatatom 412 118 5 0 1 0 - - -, f 5;
#X text 487 191 <-Click on the propeties menu to display params;
#X obj 343 268 cnv 15 200 20 empty empty /UKM450Preamp/ 2 12 0 8 -258401
-262144 0;
#X obj 344 297 hsl 100 15 0 1 0 0 /UKM450Preamp/wet /UKM450Preamp/wet_
wet 105 7 0 8 -262144 -1 -1 9900 1;
#X obj 343 334 hsl 100 15 0.1 10 0 0 /UKM450Preamp/middle /UKM450Preamp/middle_
middle 105 7 0 8 -262144 -1 -1 400 1;
#X obj 343 352 hsl 100 15 0.1 10 0 0 /UKM450Preamp/bass /UKM450Preamp/bass_
bass 105 7 0 8 -262144 -1 -1 400 1;
#X obj 343 370 hsl 100 15 0 1 0 0 /UKM450Preamp/gain /UKM450Preamp/gain_
gain 105 7 0 8 -262144 -1 -1 4950 1;
#X obj 343 316 hsl 100 15 0.1 10 0 0 /UKM450Preamp/treble /UKM450Preamp/treble_
treble 105 7 0 8 -262144 -1 -1 400 1;
#X obj 340 393 tgl 15 0 /UKM450Preamp/modern /UKM450Preamp/modern_
modern 17 7 0 10 -262144 -1 -1 1 1;
#X obj 19 133 osc~ 440;
#X text 11 5 Description: UKM450 Preamp;
#X obj 16 183 mtl/139notfound-UKM450Preamp~ /id UKM450Preamp 0.5 0.5
0.5 0.5 0.5 1 1;
#X text 11 22 Author: 139notfound url : http://139notfound.blogspot.fr/2017/03/puredataukm45-preamp.html
, f 77;
#X connect 2 0 14 2;
#X connect 3 0 2 0;
#X connect 12 0 14 0;
#X connect 12 0 14 1;
#X connect 14 0 0 0;
#X connect 14 1 0 1;
