#N canvas 0 98 1920 982 10;
#X obj 1434 30 inlet params;
#X obj 1434 76 print PARAM_NOTFOUND;
#X obj 1434 52 tof/param route;
#X obj 1434 101 b;
#X obj 1434 125 tof/param gui;
#X obj 679 46 loadbang;
#X obj 249 100 inlet~;
#X obj 121 100 inlet~;
#X obj 297 902 outlet~;
#X obj 387 899 outlet~;
#X obj 294 865 tof/crossfade~ 2;
#X msg 652 763 \$1 5;
#X obj 652 785 line~;
#X obj 652 693 loadbang;
#X obj 653 739 tof/param /wet 0 /g slider 0 1;
#X obj 666 70 tof/argument 3;
#X obj 697 93 tof/argument 4;
#X obj 725 115 tof/argument 5;
#X obj 652 717 tof/argument 6;
#N canvas 0 50 450 300 1stStage 0;
#X obj 97 29 inlet~;
#X obj 98 214 outlet~;
#X obj 97 91 hip~ 7.204;
#X obj 96 128 clip~ -2.9 100;
#X connect 0 0 2 0;
#X connect 2 0 3 0;
#X connect 3 0 1 0;
#X restore 367 328 pd 1stStage;
#N canvas 769 237 450 407 2ndStage 0;
#X obj 31 18 inlet~;
#X obj 31 54 hip~ 3.386;
#X obj 29 377 outlet~;
#X obj 32 79 hip~ 33.86;
#X obj 31 144 clip~ -0.9 7.2;
#X obj 32 110 +~ 3.5;
#X obj 30 331 +~;
#X obj 30 278 *~ -37;
#X connect 0 0 1 0;
#X connect 1 0 3 0;
#X connect 3 0 5 0;
#X connect 4 0 7 0;
#X connect 5 0 4 0;
#X connect 6 0 2 0;
#X connect 7 0 6 0;
#X restore 367 365 pd 2ndStage;
#N canvas 792 147 450 390 3rdStage 0;
#X obj 21 10 inlet~;
#X obj 21 301 outlet~;
#X obj 22 42 hip~ 23.4;
#X obj 151 12 inlet;
#X obj 70 174 + 3;
#X obj 19 174 hip~;
#X obj 118 174 * 6.9;
#X floatatom 72 202 5 0 0 0 - - -, f 5;
#X obj 21 106 *~;
#X obj 60 105 * 2;
#X obj 21 72 +~ 4.5;
#X obj 22 256 lop~ 7200;
#X obj 20 142 clip~ 0 100;
#X connect 0 0 2 0;
#X connect 2 0 10 0;
#X connect 3 0 6 0;
#X connect 3 0 9 0;
#X connect 4 0 5 1;
#X connect 4 0 7 0;
#X connect 5 0 11 0;
#X connect 6 0 4 0;
#X connect 8 0 12 0;
#X connect 9 0 8 1;
#X connect 10 0 8 0;
#X connect 11 0 1 0;
#X connect 12 0 5 0;
#X restore 369 415 pd 3rdStage;
#X obj 371 541 clip~ -12 12;
#N canvas 494 177 450 456 ToneStack 0;
#X obj 47 14 inlet~;
#X obj 40 392 outlet~;
#X obj 167 15 inlet;
#X obj 267 15 inlet;
#X obj 209 128 hip~ 1063;
#X obj 47 56 +~;
#X obj 209 175 *~;
#X obj 41 172 *~;
#X floatatom 75 206 5 0 0 0 - - -, f 5;
#X obj 73 172 + 0.3;
#X obj 127 172 * -0.1;
#X floatatom 254 196 5 0 0 0 - - -, f 5;
#X obj 42 255 +~;
#X obj 41 298 *~;
#X obj 79 299 * 1;
#X obj 254 174 * 1;
#X obj 42 130 lop~ 434;
#X connect 0 0 5 0;
#X connect 2 0 10 0;
#X connect 2 0 15 0;
#X connect 3 0 14 0;
#X connect 4 0 6 0;
#X connect 5 0 4 0;
#X connect 5 0 16 0;
#X connect 6 0 12 1;
#X connect 7 0 12 0;
#X connect 9 0 7 1;
#X connect 9 0 8 0;
#X connect 10 0 9 0;
#X connect 12 0 13 0;
#X connect 13 0 1 0;
#X connect 14 0 13 1;
#X connect 15 0 6 1;
#X connect 15 0 11 0;
#X connect 16 0 7 0;
#X restore 372 590 pd ToneStack;
#X obj 372 626 hip~ 3.4;
#X obj 373 703 hip~ 1.6;
#N canvas 0 50 566 300 spigot~ 0;
#X obj 63 24 inlet~;
#X obj 95 75 == 0;
#X obj 174 75 == 1;
#X obj 64 174 *~;
#X obj 180 166 *~;
#X obj 179 246 outlet~;
#X obj 63 244 outlet~;
#X obj 233 23 inlet;
#X connect 0 0 3 0;
#X connect 0 0 4 0;
#X connect 1 0 3 1;
#X connect 2 0 4 1;
#X connect 3 0 6 0;
#X connect 4 0 5 0;
#X connect 7 0 1 0;
#X connect 7 0 2 0;
#X restore 368 444 pd spigot~;
#X obj 370 508 +~;
#X obj 416 478 *~ 5;
#X obj 369 479 *~ 1;
#X obj 708 192 tof/param /dist 5 /g slider 0.1 10;
#X obj 761 271 tof/param /gainup 0 /g tgl;
#X obj 749 137 tof/argument 6;
#X obj 734 243 tof/param /tone 0.1 /g slider 0.1 1;
#X obj 721 218 tof/param /level 0.1 /g slider 0.1 1;
#N canvas 0 50 450 300 1stStage 0;
#X obj 97 29 inlet~;
#X obj 98 214 outlet~;
#X obj 97 91 hip~ 7.204;
#X obj 96 128 clip~ -2.9 100;
#X connect 0 0 2 0;
#X connect 2 0 3 0;
#X connect 3 0 1 0;
#X restore 517 331 pd 1stStage;
#N canvas 769 237 450 407 2ndStage 0;
#X obj 31 18 inlet~;
#X obj 31 54 hip~ 3.386;
#X obj 29 377 outlet~;
#X obj 32 79 hip~ 33.86;
#X obj 31 144 clip~ -0.9 7.2;
#X obj 32 110 +~ 3.5;
#X obj 30 331 +~;
#X obj 30 278 *~ -37;
#X connect 0 0 1 0;
#X connect 1 0 3 0;
#X connect 3 0 5 0;
#X connect 4 0 7 0;
#X connect 5 0 4 0;
#X connect 6 0 2 0;
#X connect 7 0 6 0;
#X restore 517 368 pd 2ndStage;
#N canvas 792 147 450 390 3rdStage 0;
#X obj 21 10 inlet~;
#X obj 21 301 outlet~;
#X obj 22 42 hip~ 23.4;
#X obj 151 12 inlet;
#X obj 70 174 + 3;
#X obj 19 174 hip~;
#X obj 118 174 * 6.9;
#X floatatom 72 202 5 0 0 0 - - -, f 5;
#X obj 21 106 *~;
#X obj 60 105 * 2;
#X obj 21 72 +~ 4.5;
#X obj 22 256 lop~ 7200;
#X obj 20 142 clip~ 0 100;
#X connect 0 0 2 0;
#X connect 2 0 10 0;
#X connect 3 0 6 0;
#X connect 3 0 9 0;
#X connect 4 0 5 1;
#X connect 4 0 7 0;
#X connect 5 0 11 0;
#X connect 6 0 4 0;
#X connect 8 0 12 0;
#X connect 9 0 8 1;
#X connect 10 0 8 0;
#X connect 11 0 1 0;
#X connect 12 0 5 0;
#X restore 519 418 pd 3rdStage;
#X obj 521 544 clip~ -12 12;
#N canvas 494 177 450 456 ToneStack 0;
#X obj 47 14 inlet~;
#X obj 40 392 outlet~;
#X obj 167 15 inlet;
#X obj 267 15 inlet;
#X obj 209 128 hip~ 1063;
#X obj 47 56 +~;
#X obj 209 175 *~;
#X obj 41 172 *~;
#X floatatom 75 206 5 0 0 0 - - -, f 5;
#X obj 73 172 + 0.3;
#X obj 127 172 * -0.1;
#X floatatom 254 196 5 0 0 0 - - -, f 5;
#X obj 42 255 +~;
#X obj 41 298 *~;
#X obj 79 299 * 1;
#X obj 254 174 * 1;
#X obj 42 130 lop~ 434;
#X connect 0 0 5 0;
#X connect 2 0 10 0;
#X connect 2 0 15 0;
#X connect 3 0 14 0;
#X connect 4 0 6 0;
#X connect 5 0 4 0;
#X connect 5 0 16 0;
#X connect 6 0 12 1;
#X connect 7 0 12 0;
#X connect 9 0 7 1;
#X connect 9 0 8 0;
#X connect 10 0 9 0;
#X connect 12 0 13 0;
#X connect 13 0 1 0;
#X connect 14 0 13 1;
#X connect 15 0 6 1;
#X connect 15 0 11 0;
#X connect 16 0 7 0;
#X restore 522 593 pd ToneStack;
#X obj 522 629 hip~ 3.4;
#X obj 523 706 hip~ 1.6;
#N canvas 0 50 566 300 spigot~ 0;
#X obj 63 24 inlet~;
#X obj 95 75 == 0;
#X obj 174 75 == 1;
#X obj 64 174 *~;
#X obj 180 166 *~;
#X obj 179 246 outlet~;
#X obj 63 244 outlet~;
#X obj 233 23 inlet;
#X connect 0 0 3 0;
#X connect 0 0 4 0;
#X connect 1 0 3 1;
#X connect 2 0 4 1;
#X connect 3 0 6 0;
#X connect 4 0 5 0;
#X connect 7 0 1 0;
#X connect 7 0 2 0;
#X restore 518 447 pd spigot~;
#X obj 520 511 +~;
#X obj 566 481 *~ 5;
#X obj 519 482 *~ 1;
#X connect 0 0 2 0;
#X connect 2 0 1 0;
#X connect 3 0 4 0;
#X connect 5 0 15 0;
#X connect 5 0 16 0;
#X connect 5 0 17 0;
#X connect 5 0 32 0;
#X connect 6 0 10 1;
#X connect 6 0 35 0;
#X connect 7 0 10 0;
#X connect 7 0 19 0;
#X connect 10 0 8 0;
#X connect 10 1 9 0;
#X connect 11 0 12 0;
#X connect 12 0 10 4;
#X connect 13 0 18 0;
#X connect 14 0 11 0;
#X connect 15 0 30 0;
#X connect 16 0 34 0;
#X connect 17 0 33 0;
#X connect 18 0 14 0;
#X connect 19 0 20 0;
#X connect 20 0 21 0;
#X connect 21 0 26 0;
#X connect 22 0 23 0;
#X connect 23 0 24 0;
#X connect 24 0 25 0;
#X connect 25 0 10 2;
#X connect 26 0 29 0;
#X connect 26 1 28 0;
#X connect 27 0 22 0;
#X connect 28 0 27 1;
#X connect 29 0 27 0;
#X connect 30 0 21 1;
#X connect 30 0 37 1;
#X connect 31 0 26 1;
#X connect 31 0 42 1;
#X connect 32 0 31 0;
#X connect 33 0 23 1;
#X connect 33 0 39 1;
#X connect 34 0 23 2;
#X connect 34 0 39 2;
#X connect 35 0 36 0;
#X connect 36 0 37 0;
#X connect 37 0 42 0;
#X connect 38 0 39 0;
#X connect 39 0 40 0;
#X connect 40 0 41 0;
#X connect 41 0 10 3;
#X connect 42 0 45 0;
#X connect 42 1 44 0;
#X connect 43 0 38 0;
#X connect 44 0 43 1;
#X connect 45 0 43 0;
