#N canvas 0 98 1920 982 10;
#X obj 1157 48 inlet params;
#X obj 1157 94 print PARAM_NOTFOUND;
#X obj 1157 70 tof/param route;
#X obj 1157 119 b;
#X obj 1157 143 tof/param gui;
#X obj 928 94 tof/argument 4;
#X obj 941 70 loadbang;
#X obj 971 216 tof/param /bass 0.1 /g slider 0.1 10;
#X obj 991 268 tof/param /middle 0.1 /g slider 0.1 10;
#X obj 958 117 tof/argument 5;
#X obj 987 139 tof/argument 6;
#X obj 1032 370 tof/param /gain 0.1 /g slider 0.01 1;
#X obj 1004 161 tof/argument 7;
#X obj 1021 185 tof/argument 8;
#X obj 139 167 inlet~;
#X obj 82 169 inlet~;
#X obj 86 331 outlet~;
#X obj 176 328 outlet~;
#X obj 83 294 tof/crossfade~ 2;
#X msg 297 262 \$1 5;
#X obj 297 284 line~;
#X obj 297 192 loadbang;
#X obj 296 216 tof/argument 9;
#X obj 298 238 tof/param /wet 0 /g slider 0 1;
#X obj 1011 317 tof/param /treble 0.1 /g slider 0.1 10;
#X obj 1011 339 s \$0-treble;
#X obj 971 238 s \$0-bass;
#X obj 991 290 s \$0-midle;
#X obj 1032 392 s \$0-gain;
#X obj 1066 438 s \$0-master;
#X obj 1066 416 tof/param /master 0.1 /g slider 0.01 1;
#N canvas 0 98 450 300 moteur 0;
#X obj 1490 126 *~ 0.5;
#X obj 1490 203 lop~;
#X obj 1490 181 clip~ -1.5 0.9;
#X msg 1531 203 1100;
#X obj 1490 227 hip~ 4.822;
#X obj 1490 791 *~;
#X obj 1579 207 loadbang;
#X obj 1491 247 *~ 36;
#X obj 1489 614 *~ 3.3;
#X obj 1488 639 hip~ 36.17;
#X obj 1488 586 hip~ 4.822;
#X obj 1489 735 hip~ 15.39;
#X obj 1488 704 lop~;
#X msg 1531 701 868;
#X obj 1491 38 inlet~;
#X obj 1489 818 outlet~;
#X obj 2028 387 *~ 0.63;
#X obj 2029 456 *~;
#X obj 1487 482 +~;
#X obj 1488 390 *~ 0.5;
#X obj 1487 453 *~;
#X obj 1880 406 *~ 0.05;
#X obj 1877 441 *~;
#X obj 1488 343 +~;
#X obj 2029 423 hip~ 25460;
#X obj 1487 298 clip~ -100 4;
#X floatatom 1611 431 5 0 0 0 - - -, f 5;
#X obj 1488 419 lop~ 63.66;
#X obj 1487 322 lop~ 800;
#X obj 1487 509 *~;
#X text 1498 274 ToneStack;
#X text 1496 161 1st Stage Triode;
#X text 1504 534 2nd Stage Triode;
#X text 1507 660 3rd Stage Pentode;
#X obj 1629 409 /;
#X msg 1673 347 63.66;
#X obj 1674 321 bang;
#X obj 1488 559 clip~ -54 32.4;
#X obj 1488 680 clip~ -282 282;
#X obj 1490 765 *~ -0.3;
#X obj 1743 408 r \$0-bass;
#X obj 1930 427 r \$0-midle;
#X obj 1553 452 r \$0-bass;
#X obj 1533 509 r \$0-gain;
#X obj 1536 791 r \$0-master;
#X obj 2068 451 r \$0-treble;
#X connect 0 0 2 0;
#X connect 1 0 4 0;
#X connect 2 0 1 0;
#X connect 3 0 1 1;
#X connect 4 0 7 0;
#X connect 5 0 15 0;
#X connect 6 0 3 0;
#X connect 6 0 13 0;
#X connect 7 0 25 0;
#X connect 8 0 9 0;
#X connect 9 0 38 0;
#X connect 10 0 8 0;
#X connect 11 0 39 0;
#X connect 12 0 11 0;
#X connect 13 0 12 1;
#X connect 14 0 0 0;
#X connect 16 0 24 0;
#X connect 17 0 18 1;
#X connect 18 0 29 0;
#X connect 19 0 27 0;
#X connect 20 0 18 0;
#X connect 21 0 22 0;
#X connect 22 0 18 1;
#X connect 23 0 19 0;
#X connect 23 0 21 0;
#X connect 23 0 16 0;
#X connect 24 0 17 0;
#X connect 25 0 28 0;
#X connect 26 0 27 1;
#X connect 27 0 20 0;
#X connect 28 0 23 0;
#X connect 29 0 37 0;
#X connect 34 0 26 0;
#X connect 35 0 34 0;
#X connect 36 0 35 0;
#X connect 37 0 10 0;
#X connect 38 0 12 0;
#X connect 39 0 5 0;
#X connect 40 0 36 0;
#X connect 40 0 34 1;
#X connect 41 0 22 1;
#X connect 42 0 20 1;
#X connect 43 0 29 1;
#X connect 44 0 5 1;
#X connect 45 0 17 1;
#X restore 126 230 pd moteur;
#N canvas 0 98 450 300 moteur 0;
#X obj 1490 126 *~ 0.5;
#X obj 1490 203 lop~;
#X obj 1490 181 clip~ -1.5 0.9;
#X msg 1531 203 1100;
#X obj 1490 227 hip~ 4.822;
#X obj 1490 791 *~;
#X obj 1579 207 loadbang;
#X obj 1491 247 *~ 36;
#X obj 1489 614 *~ 3.3;
#X obj 1488 639 hip~ 36.17;
#X obj 1488 586 hip~ 4.822;
#X obj 1489 735 hip~ 15.39;
#X obj 1488 704 lop~;
#X msg 1531 701 868;
#X obj 1491 38 inlet~;
#X obj 1489 818 outlet~;
#X obj 2028 387 *~ 0.63;
#X obj 2029 456 *~;
#X obj 1487 482 +~;
#X obj 1488 390 *~ 0.5;
#X obj 1487 453 *~;
#X obj 1880 406 *~ 0.05;
#X obj 1877 441 *~;
#X obj 1488 343 +~;
#X obj 2029 423 hip~ 25460;
#X obj 1487 298 clip~ -100 4;
#X floatatom 1611 431 5 0 0 0 - - -, f 5;
#X obj 1488 419 lop~ 63.66;
#X obj 1487 322 lop~ 800;
#X obj 1487 509 *~;
#X text 1498 274 ToneStack;
#X text 1496 161 1st Stage Triode;
#X text 1504 534 2nd Stage Triode;
#X text 1507 660 3rd Stage Pentode;
#X obj 1629 409 /;
#X msg 1673 347 63.66;
#X obj 1674 321 bang;
#X obj 1488 559 clip~ -54 32.4;
#X obj 1488 680 clip~ -282 282;
#X obj 1490 765 *~ -0.3;
#X obj 1743 408 r \$0-bass;
#X obj 1930 427 r \$0-midle;
#X obj 1553 452 r \$0-bass;
#X obj 1533 509 r \$0-gain;
#X obj 1536 791 r \$0-master;
#X obj 2068 451 r \$0-treble;
#X connect 0 0 2 0;
#X connect 1 0 4 0;
#X connect 2 0 1 0;
#X connect 3 0 1 1;
#X connect 4 0 7 0;
#X connect 5 0 15 0;
#X connect 6 0 3 0;
#X connect 6 0 13 0;
#X connect 7 0 25 0;
#X connect 8 0 9 0;
#X connect 9 0 38 0;
#X connect 10 0 8 0;
#X connect 11 0 39 0;
#X connect 12 0 11 0;
#X connect 13 0 12 1;
#X connect 14 0 0 0;
#X connect 16 0 24 0;
#X connect 17 0 18 1;
#X connect 18 0 29 0;
#X connect 19 0 27 0;
#X connect 20 0 18 0;
#X connect 21 0 22 0;
#X connect 22 0 18 1;
#X connect 23 0 19 0;
#X connect 23 0 21 0;
#X connect 23 0 16 0;
#X connect 24 0 17 0;
#X connect 25 0 28 0;
#X connect 26 0 27 1;
#X connect 27 0 20 0;
#X connect 28 0 23 0;
#X connect 29 0 37 0;
#X connect 34 0 26 0;
#X connect 35 0 34 0;
#X connect 36 0 35 0;
#X connect 37 0 10 0;
#X connect 38 0 12 0;
#X connect 39 0 5 0;
#X connect 40 0 36 0;
#X connect 40 0 34 1;
#X connect 41 0 22 1;
#X connect 42 0 20 1;
#X connect 43 0 29 1;
#X connect 44 0 5 1;
#X connect 45 0 17 1;
#X restore 202 233 pd moteur;
#X connect 0 0 2 0;
#X connect 2 0 1 0;
#X connect 3 0 4 0;
#X connect 5 0 24 0;
#X connect 6 0 5 0;
#X connect 6 0 9 0;
#X connect 6 0 10 0;
#X connect 6 0 12 0;
#X connect 6 0 13 0;
#X connect 7 0 26 0;
#X connect 8 0 27 0;
#X connect 9 0 8 0;
#X connect 10 0 7 0;
#X connect 11 0 28 0;
#X connect 12 0 11 0;
#X connect 13 0 30 0;
#X connect 14 0 18 1;
#X connect 14 0 32 0;
#X connect 15 0 18 0;
#X connect 15 0 31 0;
#X connect 18 0 16 0;
#X connect 18 1 17 0;
#X connect 19 0 20 0;
#X connect 20 0 18 4;
#X connect 21 0 22 0;
#X connect 22 0 23 0;
#X connect 23 0 19 0;
#X connect 24 0 25 0;
#X connect 30 0 29 0;
#X connect 31 0 18 2;
#X connect 32 0 18 3;
