#N canvas 0 98 1920 982 10;
#X obj 1434 30 inlet params;
#X obj 1434 76 print PARAM_NOTFOUND;
#X obj 1434 52 tof/param route;
#X obj 1434 101 b;
#X obj 1434 125 tof/param gui;
#X obj 922 76 loadbang;
#X obj 249 100 inlet~;
#X obj 121 100 inlet~;
#X obj 297 902 outlet~;
#X obj 387 899 outlet~;
#X obj 294 865 tof/crossfade~ 2;
#X msg 941 817 \$1 5;
#X obj 941 839 line~;
#X obj 941 747 loadbang;
#X obj 942 793 tof/param /wet 0 /g slider 0 1;
#X obj 909 100 tof/argument 3;
#X obj 940 123 tof/argument 4;
#X obj 968 145 tof/argument 5;
#X obj 1004 301 tof/param /gainup 0 /g tgl;
#X obj 992 167 tof/argument 6;
#X obj 402 648 *~ -1;
#X obj 401 678 hip~ 31.83;
#X obj 402 706 *~;
#X obj 401 572 hip~;
#X floatatom 444 572 5 0 0 0 - - -, f 5;
#X obj 488 571 * 7.958;
#X obj 401 601 *~ 6.5;
#X obj 401 431 *~ -1;
#X obj 399 382 *~ 6.5;
#X obj 402 543 *~;
#X obj 473 460 abs;
#X floatatom 474 509 5 0 0 0 - - -, f 5;
#X obj 473 434 - 9;
#X obj 525 281 log~;
#X obj 525 302 *~ 0.5;
#X obj 525 324 +~ 1;
#X obj 524 348 clip~ -1 100;
#X obj 525 375 -~ 0.18;
#X obj 399 356 *~;
#N canvas 0 50 566 300 spigot~ 0;
#X obj 63 24 inlet~;
#X obj 95 75 == 0;
#X obj 174 75 == 1;
#X obj 64 174 *~;
#X obj 180 166 *~;
#X obj 179 246 outlet~;
#X obj 63 244 outlet~;
#X obj 233 23 inlet;
#X connect 0 0 3 0;
#X connect 0 0 4 0;
#X connect 1 0 3 1;
#X connect 2 0 4 1;
#X connect 3 0 6 0;
#X connect 4 0 5 0;
#X connect 7 0 1 0;
#X connect 7 0 2 0;
#X restore 361 307 pd spigot~;
#X obj 400 406 clip~ -1 1;
#X obj 401 625 clip~ -1 1;
#X obj 473 485 + 0.5;
#X obj 950 222 tof/param /boost 2 /g slider 0.01 5;
#X obj 964 248 tof/param /fuzz 1 /g slider 1 9;
#X obj 978 273 tof/param /volume 0.1 /g slider 0 0.1;
#X obj 664 651 *~ -1;
#X obj 663 681 hip~ 31.83;
#X obj 664 709 *~;
#X obj 663 575 hip~;
#X floatatom 706 575 5 0 0 0 - - -, f 5;
#X obj 750 574 * 7.958;
#X obj 663 604 *~ 6.5;
#X obj 663 434 *~ -1;
#X obj 661 385 *~ 6.5;
#X obj 664 546 *~;
#X obj 735 463 abs;
#X floatatom 736 512 5 0 0 0 - - -, f 5;
#X obj 735 437 - 9;
#X obj 787 284 log~;
#X obj 787 305 *~ 0.5;
#X obj 787 327 +~ 1;
#X obj 786 351 clip~ -1 100;
#X obj 787 378 -~ 0.18;
#X obj 661 359 *~;
#N canvas 0 50 566 300 spigot~ 0;
#X obj 63 24 inlet~;
#X obj 95 75 == 0;
#X obj 174 75 == 1;
#X obj 64 174 *~;
#X obj 180 166 *~;
#X obj 179 246 outlet~;
#X obj 63 244 outlet~;
#X obj 233 23 inlet;
#X connect 0 0 3 0;
#X connect 0 0 4 0;
#X connect 1 0 3 1;
#X connect 2 0 4 1;
#X connect 3 0 6 0;
#X connect 4 0 5 0;
#X connect 7 0 1 0;
#X connect 7 0 2 0;
#X restore 623 310 pd spigot~;
#X obj 662 409 clip~ -1 1;
#X obj 663 628 clip~ -1 1;
#X obj 735 488 + 0.5;
#X obj 941 771 tof/argument 7;
#X connect 0 0 2 0;
#X connect 2 0 1 0;
#X connect 3 0 4 0;
#X connect 5 0 15 0;
#X connect 5 0 16 0;
#X connect 5 0 17 0;
#X connect 5 0 19 0;
#X connect 6 0 10 1;
#X connect 6 0 65 0;
#X connect 7 0 10 0;
#X connect 7 0 39 0;
#X connect 10 0 8 0;
#X connect 10 1 9 0;
#X connect 11 0 12 0;
#X connect 12 0 10 4;
#X connect 13 0 69 0;
#X connect 14 0 11 0;
#X connect 15 0 43 0;
#X connect 16 0 44 0;
#X connect 17 0 45 0;
#X connect 18 0 65 1;
#X connect 18 0 39 1;
#X connect 19 0 18 0;
#X connect 20 0 21 0;
#X connect 21 0 22 0;
#X connect 22 0 10 2;
#X connect 23 0 26 0;
#X connect 24 0 23 1;
#X connect 25 0 24 0;
#X connect 26 0 41 0;
#X connect 27 0 29 0;
#X connect 28 0 40 0;
#X connect 29 0 23 0;
#X connect 30 0 42 0;
#X connect 31 0 29 1;
#X connect 32 0 30 0;
#X connect 33 0 34 0;
#X connect 34 0 35 0;
#X connect 35 0 36 0;
#X connect 36 0 37 0;
#X connect 37 0 38 1;
#X connect 38 0 28 0;
#X connect 39 0 28 0;
#X connect 39 1 33 0;
#X connect 39 1 38 0;
#X connect 40 0 27 0;
#X connect 41 0 20 0;
#X connect 42 0 31 0;
#X connect 43 0 63 1;
#X connect 43 0 37 1;
#X connect 44 0 51 0;
#X connect 44 0 25 0;
#X connect 44 0 58 0;
#X connect 44 0 32 0;
#X connect 45 0 48 1;
#X connect 45 0 22 1;
#X connect 46 0 47 0;
#X connect 47 0 48 0;
#X connect 48 0 10 3;
#X connect 49 0 52 0;
#X connect 50 0 49 1;
#X connect 51 0 50 0;
#X connect 52 0 67 0;
#X connect 53 0 55 0;
#X connect 54 0 66 0;
#X connect 55 0 49 0;
#X connect 56 0 68 0;
#X connect 57 0 55 1;
#X connect 58 0 56 0;
#X connect 59 0 60 0;
#X connect 60 0 61 0;
#X connect 61 0 62 0;
#X connect 62 0 63 0;
#X connect 63 0 64 1;
#X connect 64 0 54 0;
#X connect 65 0 54 0;
#X connect 65 1 59 0;
#X connect 65 1 64 0;
#X connect 66 0 53 0;
#X connect 67 0 46 0;
#X connect 68 0 57 0;
#X connect 69 0 14 0;
