#N canvas 0 98 1920 982 10;
#X obj 1157 48 inlet params;
#X obj 1157 94 print PARAM_NOTFOUND;
#X obj 1157 70 tof/param route;
#X obj 1157 119 b;
#X obj 1157 143 tof/param gui;
#X obj 928 94 tof/argument 4;
#X obj 976 27 loadbang;
#X obj 971 245 tof/param /bass 0.1 /g slider 0.1 10;
#X obj 990 299 tof/param /middle 0.1 /g slider 0.1 10;
#X obj 958 117 tof/argument 5;
#X obj 987 139 tof/argument 6;
#X obj 1047 443 tof/param /gain 0.1 /g slider 0.01 1;
#X obj 1004 161 tof/argument 7;
#X obj 1023 184 tof/argument 8;
#X obj 488 412 inlet~;
#X obj 360 412 inlet~;
#X obj 364 568 outlet~;
#X obj 454 565 outlet~;
#X obj 361 531 tof/crossfade~ 2;
#X msg 575 499 \$1 5;
#X obj 575 521 line~;
#X obj 575 429 loadbang;
#X obj 576 475 tof/param /wet 0 /g slider 0 1;
#X obj 1007 347 tof/param /treble 0.1 /g slider 0.1 10;
#N canvas 0 98 1920 982 moteur 0;
#X obj 46 21 inlet~;
#N canvas 0 50 566 300 spigot~ 0;
#X obj 63 24 inlet~;
#X obj 95 75 == 0;
#X obj 174 75 == 1;
#X obj 64 174 *~;
#X obj 180 166 *~;
#X obj 179 246 outlet~;
#X obj 63 244 outlet~;
#X obj 233 23 inlet;
#X obj 251 77 == 2;
#X obj 264 160 *~;
#X obj 264 249 outlet~;
#X connect 0 0 3 0;
#X connect 0 0 4 0;
#X connect 0 0 9 0;
#X connect 1 0 3 1;
#X connect 2 0 4 1;
#X connect 3 0 6 0;
#X connect 4 0 5 0;
#X connect 7 0 1 0;
#X connect 7 0 2 0;
#X connect 7 0 8 0;
#X connect 8 0 9 1;
#X connect 9 0 10 0;
#X restore 47 51 pd spigot~;
#X obj 46 304 *~;
#N canvas 0 50 566 300 spigot~ 0;
#X obj 63 24 inlet~;
#X obj 95 75 == 0;
#X obj 174 75 == 1;
#X obj 64 174 *~;
#X obj 180 166 *~;
#X obj 179 246 outlet~;
#X obj 63 244 outlet~;
#X obj 233 23 inlet;
#X connect 0 0 3 0;
#X connect 0 0 4 0;
#X connect 1 0 3 1;
#X connect 2 0 4 1;
#X connect 3 0 6 0;
#X connect 4 0 5 0;
#X connect 7 0 1 0;
#X connect 7 0 2 0;
#X restore 44 401 pd spigot~;
#X text 78 776 Tonestack;
#N canvas 0 50 566 300 spigot~ 0;
#X obj 63 24 inlet~;
#X obj 95 75 == 0;
#X obj 174 75 == 1;
#X obj 64 174 *~;
#X obj 180 166 *~;
#X obj 179 246 outlet~;
#X obj 63 244 outlet~;
#X obj 233 23 inlet;
#X connect 0 0 3 0;
#X connect 0 0 4 0;
#X connect 1 0 3 1;
#X connect 2 0 4 1;
#X connect 3 0 6 0;
#X connect 4 0 5 0;
#X connect 7 0 1 0;
#X connect 7 0 2 0;
#X restore 42 796 pd spigot~;
#X obj 76 1090 +~;
#X obj 507 969 *~;
#X obj 535 969 / 10;
#X obj 812 1136 +~;
#X obj 406 1161 +~;
#X obj 852 870 +~;
#X obj 852 893 hip~ 370.1;
#X obj 337 1223 *~;
#X obj 1811 1077 *~;
#X obj 2182 862 hip~ 8000;
#X obj 1812 647 +~;
#X obj 2183 894 *~;
#X obj 2214 893 / 10;
#X obj 1570 861 lop~ 50;
#X obj 1570 834 *~ 0.9;
#X obj 1570 890 hip~ 7.234;
#X obj 1569 918 *~;
#X obj 1600 917 / 10;
#X obj 1813 829 *~ 0.35;
#X obj 1865 879 hip~ 482.2;
#X obj 1781 901 lop~ 110;
#X obj 1780 877 hip~ 110;
#X obj 1866 902 *~;
#X obj 1897 901 / 10;
#X obj 338 1298 +~;
#X obj 1811 988 +~;
#X obj 507 945 hip~ 25460;
#X obj 39 900 *~;
#X obj 90 864 + 0.15;
#X obj 297 936 *~;
#X obj 301 971 hip~;
#X obj 340 970 * 636.6;
#X obj 140 864 * 0.055;
#X obj 1285 1032 *~;
#X obj 1313 1032 / 10;
#X obj 1075 999 *~;
#X obj 1079 1034 hip~;
#X obj 1118 1033 * 636.6;
#X obj 1285 1008 hip~ 13540;
#X obj 1106 999 * 0.03;
#X obj 328 936 * 0.04;
#X obj 337 1323 *~ 0.1;
#X obj 829 960 *~;
#X obj 866 960 + 0.3;
#X obj 910 962 * 0.05;
#X obj 830 1038 hip~ 6.366;
#X obj 830 1065 lop~ 63.66;
#X obj 38 928 hip~ 6.366;
#X obj 38 955 lop~ 63.66;
#N canvas 644 85 450 300 CH3-1stStage 0;
#X obj 75 20 inlet~;
#X obj 78 235 outlet~;
#X obj 81 113 hip~ 88.41;
#X obj 82 146 lop~ 28193;
#X obj 75 51 lop~ 20404;
#X obj 81 77 *~ 0.01;
#X connect 0 0 4 0;
#X connect 2 0 3 0;
#X connect 3 0 1 0;
#X connect 4 0 5 0;
#X connect 5 0 2 0;
#X restore 1813 231 pd CH3-1stStage;
#N canvas 0 98 450 300 CH3-2ndStage 0;
#X obj 67 6 inlet~;
#X obj 67 172 outlet~;
#X obj 67 71 clip~ -100 1.9;
#X obj 68 142 hip~ 88.41;
#X obj 69 38 lop~ 3315;
#X obj 67 111 *~ 70;
#X connect 0 0 4 0;
#X connect 2 0 5 0;
#X connect 3 0 1 0;
#X connect 4 0 2 0;
#X connect 5 0 3 0;
#X restore 1810 445 pd CH3-2ndStage;
#N canvas 0 50 450 300 CH3-3rdStage 0;
#X obj 105 17 inlet~;
#X obj 106 181 outlet~;
#X obj 104 106 clip~ -100 6;
#X obj 106 79 lop~ 3386;
#X obj 108 48 hip~ 12.33;
#X obj 105 139 *~ 70;
#X connect 0 0 4 0;
#X connect 2 0 5 0;
#X connect 3 0 2 0;
#X connect 4 0 3 0;
#X connect 5 0 1 0;
#X restore 1810 475 pd CH3-3rdStage;
#N canvas 0 98 450 300 CH3-4thStage 0;
#X obj 105 17 inlet~;
#X obj 106 221 outlet~;
#X obj 105 112 *~ -1;
#X obj 106 171 *~ 70;
#X obj 105 138 clip~ -100 2.5;
#X obj 106 193 hip~ 88.41;
#X obj 106 55 hip~ 21.92;
#X obj 105 81 lop~ 7234;
#X connect 0 0 6 0;
#X connect 2 0 4 0;
#X connect 3 0 5 0;
#X connect 4 0 3 0;
#X connect 5 0 1 0;
#X connect 6 0 7 0;
#X connect 7 0 2 0;
#X restore 1810 515 pd CH3-4thStage;
#N canvas 0 98 450 300 CH3-5thStage 0;
#X obj 105 17 inlet~;
#X obj 107 204 outlet~;
#X obj 106 162 *~ 40;
#X obj 105 129 clip~ -100 4;
#X obj 100 92 lop~ 1591;
#X obj 104 60 hip~ 6.29;
#X connect 0 0 5 0;
#X connect 2 0 1 0;
#X connect 3 0 2 0;
#X connect 4 0 3 0;
#X connect 5 0 4 0;
#X restore 1810 546 pd CH3-5thStage;
#N canvas 0 50 504 410 CH3-6th-7thStage 0;
#X obj 105 17 inlet~;
#X obj 107 367 outlet~;
#X obj 107 206 *~ -1;
#X obj 107 331 +~ 107;
#X obj 107 265 *~ 0.6666;
#X obj 107 232 clip~ 0 400;
#X obj 105 131 hip~ 2.192;
#X obj 105 62 lop~ 1591;
#X obj 107 181 lop~ 2842;
#X obj 105 101 hip~ 6.517;
#X connect 0 0 7 0;
#X connect 2 0 5 0;
#X connect 3 0 1 0;
#X connect 4 0 3 0;
#X connect 5 0 4 0;
#X connect 6 0 8 0;
#X connect 7 0 9 0;
#X connect 8 0 2 0;
#X connect 9 0 6 0;
#X restore 1810 579 pd CH3-6th-7thStage;
#X obj 1812 310 rfft~;
#X obj 1811 342 cpole~;
#X obj 1811 364 rifft~;
#X obj 1811 386 /~ 64;
#X obj 1814 197 hip~ 4080;
#X obj 1813 270 *~;
#X obj 1811 412 *~ 60;
#X msg 1868 309 0.1;
#X obj 1912 309 loadbang;
#X obj 47 77 +~;
#N canvas 0 50 450 300 reverse_spigot~ 0;
#X obj 30 10 inlet~;
#X obj 175 11 inlet~;
#X obj 316 13 inlet;
#X obj 189 112 == 1;
#X obj 91 112 == 0;
#X obj 60 112 *~;
#X obj 158 113 *~;
#X obj 99 220 outlet~;
#X connect 0 0 5 0;
#X connect 1 0 6 0;
#X connect 2 0 4 0;
#X connect 2 0 3 0;
#X connect 3 0 6 1;
#X connect 4 0 5 1;
#X connect 5 0 7 0;
#X connect 6 0 7 0;
#X restore 47 281 pd reverse_spigot~;
#X obj 45 334 hip~ 1.591;
#X obj 48 178 hip~ 848.8;
#X obj 195 175 hip~ 130.9;
#X obj 319 174 hip~ 94.85;
#X obj 196 143 +~;
#N canvas 244 98 450 300 CH12-2ndStage 0;
#X obj 75 20 inlet~;
#X obj 75 194 outlet~;
#X obj 75 98 *~ -30;
#X connect 0 0 2 0;
#X connect 2 0 1 0;
#X restore 45 369 pd CH12-2ndStage;
#X obj 132 443 hip~ 48.22;
#X obj 43 521 +~;
#X obj 43 473 hip~ 39.78;
#N canvas 83 54 450 300 CH12-3rdStage 0;
#X obj 80 13 inlet~;
#X obj 78 235 outlet~;
#X obj 80 111 lop~ 4080.8;
#X obj 79 205 hip~ 84.61;
#X obj 79 47 clip~ -10000 3.5;
#X obj 82 85 hip~ 39.48;
#X obj 78 150 *~ -15;
#X connect 0 0 4 0;
#X connect 2 0 6 0;
#X connect 3 0 1 0;
#X connect 4 0 5 0;
#X connect 5 0 2 0;
#X connect 6 0 3 0;
#X restore 43 548 pd CH12-3rdStage;
#N canvas 83 54 450 300 CH12-4thStage 0;
#X obj 78 20 inlet~;
#X obj 76 268 outlet~;
#X obj 79 132 lop~ 4080.8;
#X obj 76 172 *~ -7;
#X obj 77 214 +~ 72;
#X obj 78 100 clip~ -4500 3.5;
#X connect 0 0 5 0;
#X connect 2 0 3 0;
#X connect 3 0 4 0;
#X connect 4 0 1 0;
#X connect 5 0 2 0;
#X restore 44 581 pd CH12-4thStage;
#N canvas 83 54 450 300 CH12-5thStage 0;
#X obj 78 20 inlet~;
#X obj 74 268 outlet~;
#X obj 74 219 *~ 0.9;
#X obj 80 59 clip~ -2 4000;
#X obj 76 139 hip~ 168.2;
#X obj 80 86 lop~ 3701;
#X connect 0 0 3 0;
#X connect 2 0 1 0;
#X connect 3 0 5 0;
#X connect 4 0 2 0;
#X connect 5 0 4 0;
#X restore 43 727 pd CH12-5thStage;
#X obj 195 217 +~;
#X obj 195 247 /~ 2;
#X text 168 548 <---lop~ customized;
#X obj 1811 1024 *~ 0.3;
#X obj 131 489 *~ 10;
#X obj 112 678 *~;
#N canvas 0 50 566 300 spigot~ 0;
#X obj 63 24 inlet~;
#X obj 95 75 == 0;
#X obj 174 75 == 1;
#X obj 64 174 *~;
#X obj 180 166 *~;
#X obj 179 246 outlet~;
#X obj 63 244 outlet~;
#X obj 233 23 inlet;
#X connect 0 0 3 0;
#X connect 0 0 4 0;
#X connect 1 0 3 1;
#X connect 2 0 4 1;
#X connect 3 0 6 0;
#X connect 4 0 5 0;
#X connect 7 0 1 0;
#X connect 7 0 2 0;
#X restore 45 612 pd spigot~;
#X obj 44 697 +~;
#X obj 172 652 loadbang;
#X obj 206 1115 *~ 2;
#X obj 374 1193 /~ 7;
#X msg 130 652 1;
#N canvas 83 54 450 300 CH1-1stStage 0;
#X obj 75 20 inlet~;
#X obj 78 235 outlet~;
#X obj 79 158 hip~ 106.1;
#X obj 78 133 lop~ 159154;
#X obj 78 188 *~ 25;
#X obj 77 98 clip~ -10000 2.1;
#N canvas 98 51 525 438 \$0-riceclip~ 0;
#X obj 149 55 delwrite~ \$0-riceclip 100;
#X obj 66 198 delread~ \$0-riceclip 1;
#X obj 141 127 hsl 128 15 -1 1 0 0 empty empty empty -2 -8 0 10 -262144
-1 -1 3619 1;
#X floatatom 138 146 5 0 0 0 - - -, f 5;
#X obj 301 175 hsl 128 15 -1 0 0 0 empty empty empty -2 -8 0 10 -262144
-1 -1 9271 1;
#X floatatom 298 195 5 0 0 0 - - -, f 5;
#X obj 41 265 lop~ 2000;
#X obj 40 234 expr~ if($v1>0 \, if(($v1-$v2)<$f3 \, $f4*$v1 \, $v1)
\, $v1);
#X msg 298 150 -0.27;
#X msg 137 99 -0.43;
#X obj 263 104 loadbang;
#X obj 41 23 inlet~;
#X obj 42 310 outlet~;
#X connect 1 0 7 1;
#X connect 2 0 3 0;
#X connect 3 0 7 2;
#X connect 4 0 5 0;
#X connect 5 0 7 3;
#X connect 6 0 12 0;
#X connect 7 0 6 0;
#X connect 8 0 4 0;
#X connect 9 0 2 0;
#X connect 10 0 9 0;
#X connect 10 0 8 0;
#X connect 11 0 0 0;
#X connect 11 0 7 0;
#X restore 211 96 pd \$0-riceclip~;
#N canvas 0 50 566 300 spigot~ 0;
#X obj 63 24 inlet~;
#X obj 95 75 == 0;
#X obj 174 75 == 1;
#X obj 64 174 *~;
#X obj 180 166 *~;
#X obj 179 246 outlet~;
#X obj 63 244 outlet~;
#X obj 233 23 inlet;
#X connect 0 0 3 0;
#X connect 0 0 4 0;
#X connect 1 0 3 1;
#X connect 2 0 4 1;
#X connect 3 0 6 0;
#X connect 4 0 5 0;
#X connect 7 0 1 0;
#X connect 7 0 2 0;
#X restore 76 55 pd spigot~;
#X obj 176 55 tgl 15 0 empty empty empty 17 7 0 10 -262144 -1 -1 0
1;
#X msg 211 53 0;
#X obj 252 56 loadbang;
#X connect 0 0 7 0;
#X connect 2 0 4 0;
#X connect 3 0 2 0;
#X connect 4 0 1 0;
#X connect 5 0 3 0;
#X connect 6 0 3 0;
#X connect 7 0 5 0;
#X connect 7 1 6 0;
#X connect 8 0 7 1;
#X connect 9 0 8 0;
#X connect 10 0 9 0;
#X restore 47 102 pd CH1-1stStage;
#X obj 114 21 r \$0-choice;
#X obj 187 280 r \$0-choice;
#X obj 77 304 r \$0-gain;
#X obj 125 400 r \$0-choice;
#X obj 125 612 r \$0-choice;
#X obj 123 795 r \$0-choice;
#X obj 102 836 r \$0-bass;
#X obj 381 936 r \$0-midle;
#X obj 570 969 r \$0-treble;
#X obj 372 1225 r \$0-master;
#X obj 338 1347 outlet~;
#X obj 1160 999 r \$0-midle;
#X obj 1355 1034 r \$0-treble;
#X obj 1851 269 r \$0-gain;
#X obj 1867 1073 r \$0-master;
#X obj 1639 915 r \$0-bass;
#X obj 1941 901 r \$0-midle;
#X obj 2256 892 r \$0-treble;
#X obj 913 936 r \$0-bass;
#X connect 0 0 1 0;
#X connect 1 0 70 0;
#X connect 1 1 70 1;
#X connect 1 2 65 0;
#X connect 2 0 72 0;
#X connect 3 0 80 0;
#X connect 3 1 78 0;
#X connect 5 0 32 0;
#X connect 5 0 33 0;
#X connect 5 0 35 0;
#X connect 5 1 11 0;
#X connect 6 0 93 0;
#X connect 7 0 6 1;
#X connect 8 0 7 1;
#X connect 9 0 10 1;
#X connect 10 0 94 0;
#X connect 11 0 12 0;
#X connect 12 0 41 0;
#X connect 12 0 44 0;
#X connect 12 0 48 0;
#X connect 13 0 30 0;
#X connect 14 0 30 0;
#X connect 15 0 17 0;
#X connect 16 0 15 0;
#X connect 16 0 20 0;
#X connect 16 0 24 0;
#X connect 17 0 31 1;
#X connect 18 0 17 1;
#X connect 19 0 21 0;
#X connect 20 0 19 0;
#X connect 21 0 22 0;
#X connect 22 0 31 0;
#X connect 23 0 22 1;
#X connect 24 0 25 0;
#X connect 24 0 27 0;
#X connect 25 0 28 0;
#X connect 26 0 31 0;
#X connect 27 0 26 0;
#X connect 28 0 31 1;
#X connect 29 0 28 1;
#X connect 30 0 47 0;
#X connect 31 0 87 0;
#X connect 32 0 7 0;
#X connect 33 0 53 0;
#X connect 34 0 33 1;
#X connect 35 0 36 0;
#X connect 36 0 6 1;
#X connect 37 0 36 1;
#X connect 38 0 34 0;
#X connect 39 0 9 1;
#X connect 40 0 39 1;
#X connect 41 0 42 0;
#X connect 42 0 9 1;
#X connect 43 0 42 1;
#X connect 44 0 39 0;
#X connect 45 0 41 1;
#X connect 46 0 35 1;
#X connect 47 0 107 0;
#X connect 48 0 51 0;
#X connect 49 0 48 1;
#X connect 50 0 49 0;
#X connect 51 0 52 0;
#X connect 52 0 9 0;
#X connect 53 0 54 0;
#X connect 54 0 6 0;
#X connect 55 0 66 0;
#X connect 56 0 57 0;
#X connect 57 0 58 0;
#X connect 58 0 59 0;
#X connect 59 0 60 0;
#X connect 60 0 16 0;
#X connect 61 0 62 0;
#X connect 61 1 62 1;
#X connect 62 0 63 0;
#X connect 62 1 63 1;
#X connect 63 0 64 0;
#X connect 64 0 67 0;
#X connect 65 0 55 0;
#X connect 66 0 61 0;
#X connect 67 0 56 0;
#X connect 68 0 62 2;
#X connect 68 0 62 3;
#X connect 69 0 68 0;
#X connect 70 0 96 0;
#X connect 71 0 2 0;
#X connect 72 0 77 0;
#X connect 73 0 71 0;
#X connect 74 0 84 0;
#X connect 75 0 84 1;
#X connect 76 0 74 0;
#X connect 76 0 75 0;
#X connect 77 0 3 0;
#X connect 78 0 88 0;
#X connect 79 0 81 0;
#X connect 80 0 79 0;
#X connect 81 0 82 0;
#X connect 82 0 90 0;
#X connect 83 0 5 0;
#X connect 84 0 85 0;
#X connect 85 0 71 1;
#X connect 87 0 14 0;
#X connect 88 0 79 1;
#X connect 89 0 91 1;
#X connect 90 0 91 0;
#X connect 90 1 89 0;
#X connect 91 0 83 0;
#X connect 92 0 95 0;
#X connect 93 0 10 0;
#X connect 94 0 13 0;
#X connect 95 0 89 1;
#X connect 96 0 73 0;
#X connect 96 0 76 0;
#X connect 97 0 1 1;
#X connect 98 0 71 2;
#X connect 99 0 2 1;
#X connect 100 0 3 1;
#X connect 101 0 90 1;
#X connect 102 0 5 1;
#X connect 103 0 38 0;
#X connect 104 0 37 0;
#X connect 104 0 46 0;
#X connect 105 0 8 0;
#X connect 106 0 13 1;
#X connect 108 0 43 0;
#X connect 108 0 45 0;
#X connect 109 0 40 0;
#X connect 110 0 66 1;
#X connect 111 0 14 1;
#X connect 112 0 23 0;
#X connect 113 0 29 0;
#X connect 114 0 18 0;
#X connect 115 0 50 0;
#X restore 394 470 pd moteur;
#X obj 1076 491 tof/param /choice 0 /g radio;
#X obj 1072 397 tof/param /master 0.1 /g slider 0.01 1;
#X obj 1043 210 tof/argument 9;
#X obj 574 453 tof/argument 10;
#X obj 971 270 s \$0-bass;
#X obj 990 321 s \$0-middle;
#X obj 1007 369 s \$0-treble;
#X obj 1072 419 s \$0-master;
#X obj 1047 465 s \$0-gain;
#X obj 1076 513 s \$0-choice;
#N canvas 0 98 1920 982 moteur 0;
#X obj 46 21 inlet~;
#N canvas 0 50 566 300 spigot~ 0;
#X obj 63 24 inlet~;
#X obj 95 75 == 0;
#X obj 174 75 == 1;
#X obj 64 174 *~;
#X obj 180 166 *~;
#X obj 179 246 outlet~;
#X obj 63 244 outlet~;
#X obj 233 23 inlet;
#X obj 251 77 == 2;
#X obj 264 160 *~;
#X obj 264 249 outlet~;
#X connect 0 0 3 0;
#X connect 0 0 4 0;
#X connect 0 0 9 0;
#X connect 1 0 3 1;
#X connect 2 0 4 1;
#X connect 3 0 6 0;
#X connect 4 0 5 0;
#X connect 7 0 1 0;
#X connect 7 0 2 0;
#X connect 7 0 8 0;
#X connect 8 0 9 1;
#X connect 9 0 10 0;
#X restore 47 51 pd spigot~;
#X obj 46 304 *~;
#N canvas 0 50 566 300 spigot~ 0;
#X obj 63 24 inlet~;
#X obj 95 75 == 0;
#X obj 174 75 == 1;
#X obj 64 174 *~;
#X obj 180 166 *~;
#X obj 179 246 outlet~;
#X obj 63 244 outlet~;
#X obj 233 23 inlet;
#X connect 0 0 3 0;
#X connect 0 0 4 0;
#X connect 1 0 3 1;
#X connect 2 0 4 1;
#X connect 3 0 6 0;
#X connect 4 0 5 0;
#X connect 7 0 1 0;
#X connect 7 0 2 0;
#X restore 44 401 pd spigot~;
#X text 78 776 Tonestack;
#N canvas 0 50 566 300 spigot~ 0;
#X obj 63 24 inlet~;
#X obj 95 75 == 0;
#X obj 174 75 == 1;
#X obj 64 174 *~;
#X obj 180 166 *~;
#X obj 179 246 outlet~;
#X obj 63 244 outlet~;
#X obj 233 23 inlet;
#X connect 0 0 3 0;
#X connect 0 0 4 0;
#X connect 1 0 3 1;
#X connect 2 0 4 1;
#X connect 3 0 6 0;
#X connect 4 0 5 0;
#X connect 7 0 1 0;
#X connect 7 0 2 0;
#X restore 42 796 pd spigot~;
#X obj 76 1090 +~;
#X obj 507 969 *~;
#X obj 535 969 / 10;
#X obj 812 1136 +~;
#X obj 406 1161 +~;
#X obj 852 870 +~;
#X obj 852 893 hip~ 370.1;
#X obj 337 1223 *~;
#X obj 1811 1077 *~;
#X obj 2182 862 hip~ 8000;
#X obj 1812 647 +~;
#X obj 2183 894 *~;
#X obj 2214 893 / 10;
#X obj 1570 884 lop~ 50;
#X obj 1570 857 *~ 0.9;
#X obj 1570 913 hip~ 7.234;
#X obj 1569 941 *~;
#X obj 1600 940 / 10;
#X obj 1813 829 *~ 0.35;
#X obj 1865 879 hip~ 482.2;
#X obj 1781 901 lop~ 110;
#X obj 1780 877 hip~ 110;
#X obj 1866 902 *~;
#X obj 1897 901 / 10;
#X obj 338 1298 +~;
#X obj 1811 988 +~;
#X obj 507 945 hip~ 25460;
#X obj 39 900 *~;
#X obj 90 864 + 0.15;
#X obj 297 936 *~;
#X obj 301 971 hip~;
#X obj 340 970 * 636.6;
#X obj 140 864 * 0.055;
#X obj 1285 1032 *~;
#X obj 1313 1032 / 10;
#X obj 1075 999 *~;
#X obj 1079 1034 hip~;
#X obj 1118 1033 * 636.6;
#X obj 1285 1008 hip~ 13540;
#X obj 1106 999 * 0.03;
#X obj 328 936 * 0.04;
#X obj 337 1323 *~ 0.1;
#X obj 829 960 *~;
#X obj 866 960 + 0.3;
#X obj 910 962 * 0.05;
#X obj 830 1038 hip~ 6.366;
#X obj 830 1065 lop~ 63.66;
#X obj 38 928 hip~ 6.366;
#X obj 38 955 lop~ 63.66;
#N canvas 644 85 450 300 CH3-1stStage 0;
#X obj 75 20 inlet~;
#X obj 78 235 outlet~;
#X obj 81 113 hip~ 88.41;
#X obj 82 146 lop~ 28193;
#X obj 75 51 lop~ 20404;
#X obj 81 77 *~ 0.01;
#X connect 0 0 4 0;
#X connect 2 0 3 0;
#X connect 3 0 1 0;
#X connect 4 0 5 0;
#X connect 5 0 2 0;
#X restore 1813 231 pd CH3-1stStage;
#N canvas 0 98 450 300 CH3-2ndStage 0;
#X obj 67 6 inlet~;
#X obj 67 172 outlet~;
#X obj 67 71 clip~ -100 1.9;
#X obj 68 142 hip~ 88.41;
#X obj 69 38 lop~ 3315;
#X obj 67 111 *~ 70;
#X connect 0 0 4 0;
#X connect 2 0 5 0;
#X connect 3 0 1 0;
#X connect 4 0 2 0;
#X connect 5 0 3 0;
#X restore 1810 445 pd CH3-2ndStage;
#N canvas 0 50 450 300 CH3-3rdStage 0;
#X obj 105 17 inlet~;
#X obj 106 181 outlet~;
#X obj 104 106 clip~ -100 6;
#X obj 106 79 lop~ 3386;
#X obj 108 48 hip~ 12.33;
#X obj 105 139 *~ 70;
#X connect 0 0 4 0;
#X connect 2 0 5 0;
#X connect 3 0 2 0;
#X connect 4 0 3 0;
#X connect 5 0 1 0;
#X restore 1810 475 pd CH3-3rdStage;
#N canvas 0 98 450 300 CH3-4thStage 0;
#X obj 105 17 inlet~;
#X obj 106 221 outlet~;
#X obj 105 112 *~ -1;
#X obj 106 171 *~ 70;
#X obj 105 138 clip~ -100 2.5;
#X obj 106 193 hip~ 88.41;
#X obj 106 55 hip~ 21.92;
#X obj 105 81 lop~ 7234;
#X connect 0 0 6 0;
#X connect 2 0 4 0;
#X connect 3 0 5 0;
#X connect 4 0 3 0;
#X connect 5 0 1 0;
#X connect 6 0 7 0;
#X connect 7 0 2 0;
#X restore 1810 515 pd CH3-4thStage;
#N canvas 0 98 450 300 CH3-5thStage 0;
#X obj 105 17 inlet~;
#X obj 107 204 outlet~;
#X obj 106 162 *~ 40;
#X obj 105 129 clip~ -100 4;
#X obj 100 92 lop~ 1591;
#X obj 104 60 hip~ 6.29;
#X connect 0 0 5 0;
#X connect 2 0 1 0;
#X connect 3 0 2 0;
#X connect 4 0 3 0;
#X connect 5 0 4 0;
#X restore 1810 546 pd CH3-5thStage;
#N canvas 0 50 504 410 CH3-6th-7thStage 0;
#X obj 105 17 inlet~;
#X obj 107 367 outlet~;
#X obj 107 206 *~ -1;
#X obj 107 331 +~ 107;
#X obj 107 265 *~ 0.6666;
#X obj 107 232 clip~ 0 400;
#X obj 105 131 hip~ 2.192;
#X obj 105 62 lop~ 1591;
#X obj 107 181 lop~ 2842;
#X obj 105 101 hip~ 6.517;
#X connect 0 0 7 0;
#X connect 2 0 5 0;
#X connect 3 0 1 0;
#X connect 4 0 3 0;
#X connect 5 0 4 0;
#X connect 6 0 8 0;
#X connect 7 0 9 0;
#X connect 8 0 2 0;
#X connect 9 0 6 0;
#X restore 1810 579 pd CH3-6th-7thStage;
#X obj 1811 620 +~;
#X obj 1812 310 rfft~;
#X obj 1811 342 cpole~;
#X obj 1811 364 rifft~;
#X obj 1811 386 /~ 64;
#X obj 1814 197 hip~ 4080;
#X obj 1813 270 *~;
#X obj 1811 412 *~ 60;
#X msg 1868 309 0.1;
#X obj 1912 309 loadbang;
#X obj 47 77 +~;
#N canvas 0 50 450 300 reverse_spigot~ 0;
#X obj 30 10 inlet~;
#X obj 175 11 inlet~;
#X obj 316 13 inlet;
#X obj 189 112 == 1;
#X obj 91 112 == 0;
#X obj 60 112 *~;
#X obj 158 113 *~;
#X obj 99 220 outlet~;
#X connect 0 0 5 0;
#X connect 1 0 6 0;
#X connect 2 0 4 0;
#X connect 2 0 3 0;
#X connect 3 0 6 1;
#X connect 4 0 5 1;
#X connect 5 0 7 0;
#X connect 6 0 7 0;
#X restore 47 281 pd reverse_spigot~;
#X obj 45 334 hip~ 1.591;
#X obj 48 178 hip~ 848.8;
#X obj 195 175 hip~ 130.9;
#X obj 319 174 hip~ 94.85;
#X obj 196 143 +~;
#N canvas 244 98 450 300 CH12-2ndStage 0;
#X obj 75 20 inlet~;
#X obj 75 194 outlet~;
#X obj 75 98 *~ -30;
#X connect 0 0 2 0;
#X connect 2 0 1 0;
#X restore 45 369 pd CH12-2ndStage;
#X obj 132 443 hip~ 48.22;
#X obj 43 521 +~;
#X obj 43 473 hip~ 39.78;
#N canvas 83 54 450 300 CH12-3rdStage 0;
#X obj 80 13 inlet~;
#X obj 78 235 outlet~;
#X obj 80 111 lop~ 4080.8;
#X obj 79 205 hip~ 84.61;
#X obj 79 47 clip~ -10000 3.5;
#X obj 82 85 hip~ 39.48;
#X obj 78 150 *~ -15;
#X connect 0 0 4 0;
#X connect 2 0 6 0;
#X connect 3 0 1 0;
#X connect 4 0 5 0;
#X connect 5 0 2 0;
#X connect 6 0 3 0;
#X restore 43 548 pd CH12-3rdStage;
#N canvas 83 54 450 300 CH12-4thStage 0;
#X obj 78 20 inlet~;
#X obj 76 268 outlet~;
#X obj 79 132 lop~ 4080.8;
#X obj 76 172 *~ -7;
#X obj 77 214 +~ 72;
#X obj 78 100 clip~ -4500 3.5;
#X connect 0 0 5 0;
#X connect 2 0 3 0;
#X connect 3 0 4 0;
#X connect 4 0 1 0;
#X connect 5 0 2 0;
#X restore 44 581 pd CH12-4thStage;
#N canvas 83 54 450 300 CH12-5thStage 0;
#X obj 78 20 inlet~;
#X obj 74 268 outlet~;
#X obj 74 219 *~ 0.9;
#X obj 80 59 clip~ -2 4000;
#X obj 76 139 hip~ 168.2;
#X obj 80 86 lop~ 3701;
#X connect 0 0 3 0;
#X connect 2 0 1 0;
#X connect 3 0 5 0;
#X connect 4 0 2 0;
#X connect 5 0 4 0;
#X restore 43 727 pd CH12-5thStage;
#X obj 195 217 +~;
#X obj 195 247 /~ 2;
#X text 168 548 <---lop~ customized;
#X obj 43 758 +~;
#X obj 1811 1024 *~ 0.3;
#X obj 131 489 *~ 10;
#X obj 112 678 *~;
#N canvas 0 50 566 300 spigot~ 0;
#X obj 63 24 inlet~;
#X obj 95 75 == 0;
#X obj 174 75 == 1;
#X obj 64 174 *~;
#X obj 180 166 *~;
#X obj 179 246 outlet~;
#X obj 63 244 outlet~;
#X obj 233 23 inlet;
#X connect 0 0 3 0;
#X connect 0 0 4 0;
#X connect 1 0 3 1;
#X connect 2 0 4 1;
#X connect 3 0 6 0;
#X connect 4 0 5 0;
#X connect 7 0 1 0;
#X connect 7 0 2 0;
#X restore 45 612 pd spigot~;
#X obj 44 697 +~;
#X obj 172 652 loadbang;
#X obj 206 1115 *~ 2;
#X obj 374 1193 /~ 7;
#X msg 130 652 1;
#N canvas 83 54 450 300 CH1-1stStage 0;
#X obj 75 20 inlet~;
#X obj 78 235 outlet~;
#X obj 79 158 hip~ 106.1;
#X obj 78 133 lop~ 159154;
#X obj 78 188 *~ 25;
#X obj 77 98 clip~ -10000 2.1;
#N canvas 98 51 525 438 \$0-riceclip~ 0;
#X obj 149 55 delwrite~ \$0-riceclip 100;
#X obj 66 198 delread~ \$0-riceclip 1;
#X obj 141 127 hsl 128 15 -1 1 0 0 empty empty empty -2 -8 0 10 -262144
-1 -1 3619 1;
#X floatatom 138 146 5 0 0 0 - - -, f 5;
#X obj 301 175 hsl 128 15 -1 0 0 0 empty empty empty -2 -8 0 10 -262144
-1 -1 9271 1;
#X floatatom 298 195 5 0 0 0 - - -, f 5;
#X obj 41 265 lop~ 2000;
#X obj 40 234 expr~ if($v1>0 \, if(($v1-$v2)<$f3 \, $f4*$v1 \, $v1)
\, $v1);
#X msg 298 150 -0.27;
#X msg 137 99 -0.43;
#X obj 263 104 loadbang;
#X obj 41 23 inlet~;
#X obj 42 310 outlet~;
#X connect 1 0 7 1;
#X connect 2 0 3 0;
#X connect 3 0 7 2;
#X connect 4 0 5 0;
#X connect 5 0 7 3;
#X connect 6 0 12 0;
#X connect 7 0 6 0;
#X connect 8 0 4 0;
#X connect 9 0 2 0;
#X connect 10 0 9 0;
#X connect 10 0 8 0;
#X connect 11 0 0 0;
#X connect 11 0 7 0;
#X restore 211 96 pd \$0-riceclip~;
#N canvas 0 50 566 300 spigot~ 0;
#X obj 63 24 inlet~;
#X obj 95 75 == 0;
#X obj 174 75 == 1;
#X obj 64 174 *~;
#X obj 180 166 *~;
#X obj 179 246 outlet~;
#X obj 63 244 outlet~;
#X obj 233 23 inlet;
#X connect 0 0 3 0;
#X connect 0 0 4 0;
#X connect 1 0 3 1;
#X connect 2 0 4 1;
#X connect 3 0 6 0;
#X connect 4 0 5 0;
#X connect 7 0 1 0;
#X connect 7 0 2 0;
#X restore 76 55 pd spigot~;
#X obj 176 55 tgl 15 0 empty empty empty 17 7 0 10 -262144 -1 -1 0
1;
#X msg 211 53 0;
#X obj 252 56 loadbang;
#X connect 0 0 7 0;
#X connect 2 0 4 0;
#X connect 3 0 2 0;
#X connect 4 0 1 0;
#X connect 5 0 3 0;
#X connect 6 0 3 0;
#X connect 7 0 5 0;
#X connect 7 1 6 0;
#X connect 8 0 7 1;
#X connect 9 0 8 0;
#X connect 10 0 9 0;
#X restore 47 102 pd CH1-1stStage;
#X obj 114 21 r \$0-choice;
#X obj 187 280 r \$0-choice;
#X obj 77 304 r \$0-gain;
#X obj 125 400 r \$0-choice;
#X obj 125 612 r \$0-choice;
#X obj 123 795 r \$0-choice;
#X obj 102 836 r \$0-bass;
#X obj 381 936 r \$0-midle;
#X obj 570 969 r \$0-treble;
#X obj 372 1225 r \$0-master;
#X obj 338 1347 outlet~;
#X obj 1160 999 r \$0-midle;
#X obj 1355 1034 r \$0-treble;
#X obj 1851 269 r \$0-gain;
#X obj 1867 1073 r \$0-master;
#X obj 1639 938 r \$0-bass;
#X obj 1941 901 r \$0-midle;
#X obj 2256 892 r \$0-treble;
#X obj 913 936 r \$0-bass;
#X connect 0 0 1 0;
#X connect 1 0 71 0;
#X connect 1 1 71 1;
#X connect 1 2 66 0;
#X connect 2 0 73 0;
#X connect 3 0 81 0;
#X connect 3 1 79 0;
#X connect 5 0 32 0;
#X connect 5 0 33 0;
#X connect 5 0 35 0;
#X connect 5 1 11 0;
#X connect 6 0 95 0;
#X connect 7 0 6 1;
#X connect 8 0 7 1;
#X connect 9 0 10 1;
#X connect 10 0 96 0;
#X connect 11 0 12 0;
#X connect 12 0 41 0;
#X connect 12 0 44 0;
#X connect 12 0 48 0;
#X connect 13 0 30 0;
#X connect 14 0 30 0;
#X connect 15 0 17 0;
#X connect 16 0 15 0;
#X connect 16 0 20 0;
#X connect 16 0 24 0;
#X connect 17 0 31 1;
#X connect 18 0 17 1;
#X connect 19 0 21 0;
#X connect 20 0 19 0;
#X connect 21 0 22 0;
#X connect 22 0 31 0;
#X connect 23 0 22 1;
#X connect 24 0 25 0;
#X connect 24 0 27 0;
#X connect 25 0 28 0;
#X connect 26 0 31 0;
#X connect 27 0 26 0;
#X connect 28 0 31 1;
#X connect 29 0 28 1;
#X connect 30 0 47 0;
#X connect 31 0 89 0;
#X connect 32 0 7 0;
#X connect 33 0 53 0;
#X connect 34 0 33 1;
#X connect 35 0 36 0;
#X connect 36 0 6 1;
#X connect 37 0 36 1;
#X connect 38 0 34 0;
#X connect 39 0 9 1;
#X connect 40 0 39 1;
#X connect 41 0 42 0;
#X connect 42 0 9 1;
#X connect 43 0 42 1;
#X connect 44 0 39 0;
#X connect 45 0 41 1;
#X connect 46 0 35 1;
#X connect 47 0 109 0;
#X connect 48 0 51 0;
#X connect 49 0 48 1;
#X connect 50 0 49 0;
#X connect 51 0 52 0;
#X connect 52 0 9 0;
#X connect 53 0 54 0;
#X connect 54 0 6 0;
#X connect 55 0 67 0;
#X connect 56 0 57 0;
#X connect 57 0 58 0;
#X connect 58 0 59 0;
#X connect 59 0 60 0;
#X connect 60 0 61 0;
#X connect 61 0 16 0;
#X connect 62 0 63 0;
#X connect 62 1 63 1;
#X connect 63 0 64 0;
#X connect 63 1 64 1;
#X connect 64 0 65 0;
#X connect 65 0 68 0;
#X connect 66 0 55 0;
#X connect 67 0 62 0;
#X connect 68 0 56 0;
#X connect 69 0 63 2;
#X connect 69 0 63 3;
#X connect 70 0 69 0;
#X connect 71 0 98 0;
#X connect 72 0 2 0;
#X connect 73 0 78 0;
#X connect 74 0 72 0;
#X connect 75 0 85 0;
#X connect 76 0 85 1;
#X connect 77 0 75 0;
#X connect 77 0 76 0;
#X connect 78 0 3 0;
#X connect 79 0 90 0;
#X connect 80 0 82 0;
#X connect 81 0 80 0;
#X connect 82 0 83 0;
#X connect 83 0 92 0;
#X connect 84 0 88 0;
#X connect 85 0 86 0;
#X connect 86 0 72 1;
#X connect 88 0 5 0;
#X connect 89 0 14 0;
#X connect 90 0 80 1;
#X connect 91 0 93 1;
#X connect 92 0 93 0;
#X connect 92 1 91 0;
#X connect 93 0 84 0;
#X connect 94 0 97 0;
#X connect 95 0 10 0;
#X connect 96 0 13 0;
#X connect 97 0 91 1;
#X connect 98 0 74 0;
#X connect 98 0 77 0;
#X connect 99 0 1 1;
#X connect 100 0 72 2;
#X connect 101 0 2 1;
#X connect 102 0 3 1;
#X connect 103 0 92 1;
#X connect 104 0 5 1;
#X connect 105 0 38 0;
#X connect 106 0 37 0;
#X connect 106 0 46 0;
#X connect 107 0 8 0;
#X connect 108 0 13 1;
#X connect 110 0 43 0;
#X connect 110 0 45 0;
#X connect 111 0 40 0;
#X connect 112 0 67 1;
#X connect 113 0 14 1;
#X connect 114 0 23 0;
#X connect 115 0 29 0;
#X connect 116 0 18 0;
#X connect 117 0 50 0;
#X restore 478 470 pd moteur;
#X connect 0 0 2 0;
#X connect 2 0 1 0;
#X connect 3 0 4 0;
#X connect 5 0 23 0;
#X connect 6 0 5 0;
#X connect 6 0 9 0;
#X connect 6 0 10 0;
#X connect 6 0 12 0;
#X connect 6 0 13 0;
#X connect 6 0 27 0;
#X connect 7 0 29 0;
#X connect 8 0 30 0;
#X connect 9 0 8 0;
#X connect 10 0 7 0;
#X connect 11 0 33 0;
#X connect 12 0 26 0;
#X connect 13 0 11 0;
#X connect 14 0 18 1;
#X connect 14 0 35 0;
#X connect 15 0 18 0;
#X connect 15 0 24 0;
#X connect 18 0 16 0;
#X connect 18 1 17 0;
#X connect 19 0 20 0;
#X connect 20 0 18 4;
#X connect 21 0 28 0;
#X connect 22 0 19 0;
#X connect 23 0 31 0;
#X connect 24 0 18 2;
#X connect 25 0 34 0;
#X connect 26 0 32 0;
#X connect 27 0 25 0;
#X connect 28 0 22 0;
#X connect 35 0 18 3;
