#N canvas 0 98 1920 982 10;
#X obj 1157 48 inlet params;
#X obj 1157 94 print PARAM_NOTFOUND;
#X obj 1157 70 tof/param route;
#X obj 1157 119 b;
#X obj 1157 143 tof/param gui;
#X obj 928 57 tof/argument 4;
#X obj 941 33 loadbang;
#X obj 971 216 tof/param /bass 0.1 /g slider 0.1 10;
#X obj 991 266 tof/param /middle 0.1 /g slider 0.1 10;
#X obj 958 80 tof/argument 5;
#X obj 987 102 tof/argument 6;
#X obj 1034 360 tof/param /gain 0.1 /g slider 0.01 1;
#X obj 1004 124 tof/argument 7;
#X obj 1021 148 tof/argument 8;
#X obj 437 346 inlet~;
#X obj 376 346 inlet~;
#X obj 422 543 outlet~;
#X obj 512 540 outlet~;
#X obj 419 506 tof/crossfade~ 2;
#X msg 633 474 \$1 5;
#X obj 633 496 line~;
#X obj 633 404 loadbang;
#X obj 634 450 tof/param /wet 0 /g slider 0 1;
#X obj 1011 313 tof/param /treble 0.1 /g slider 0.1 10;
#X obj 1086 452 tof/param /option 0 /g tgl;
#X obj 1054 172 tof/argument 9;
#X obj 632 428 tof/argument 10;
#N canvas 0 98 1920 982 moteur 0;
#X obj 534 768 *~;
#X obj 530 49 inlet~;
#N canvas 0 50 566 300 spigot~ 0;
#X obj 63 24 inlet~;
#X obj 95 75 == 0;
#X obj 174 75 == 1;
#X obj 64 174 *~;
#X obj 180 166 *~;
#X obj 179 246 outlet~;
#X obj 63 244 outlet~;
#X obj 233 23 inlet;
#X connect 0 0 3 0;
#X connect 0 0 4 0;
#X connect 1 0 3 1;
#X connect 2 0 4 1;
#X connect 3 0 6 0;
#X connect 4 0 5 0;
#X connect 7 0 1 0;
#X connect 7 0 2 0;
#X restore 529 107 pd spigot~;
#X text 534 144 Input Low;
#X text 827 125 Input High;
#X obj 529 204 +~;
#X obj 741 133 lop~ 23405;
#X obj 634 230 hip~ 10000;
#X obj 530 229 hip~ 100;
#X obj 635 250 *~ 2.2;
#X obj 530 250 *~ 0.5;
#X obj 531 275 +~;
#X obj 531 296 *~;
#X obj 740 183 *~ -12;
#X obj 529 377 *~ -9;
#X obj 530 427 hip~ 720.4;
#X text 546 333 1st Stage;
#X text 548 404 2nd Stage;
#X text 551 503 3rd Stage;
#X obj 531 521 hip~ 100;
#X obj 531 472 *~ 50;
#X obj 531 549 *~ -1;
#X text 483 610 Tonestack;
#X obj 534 742 +~;
#X obj 734 685 bp~ 250 1;
#X obj 734 663 *~ 0.25;
#X obj 811 685 hip~ 1000;
#X obj 812 663 *~ 0.4;
#X obj 811 708 *~;
#X obj 844 709 / 10;
#X obj 1018 667 hip~ 20000;
#X obj 1016 703 *~;
#X obj 1049 704 / 10;
#X obj 531 630 *~ 0.9;
#X obj 533 698 *~;
#X obj 565 698 / 10;
#X obj 532 657 bp~ 70 2;
#X obj 741 159 clip~ -8 1000;
#X obj 530 356 clip~ -8 10;
#X obj 531 450 clip~ -10 8;
#X obj 530 574 clip~ -10 8;
#X obj 534 827 *~ -0.33;
#X obj 533 878 *~ 2;
#X obj 532 907 outlet~;
#X obj 534 800 clip~ -10 8;
#X obj 533 853 clip~ -10 10;
#X obj 569 767 r \$0-master;
#X obj 1094 704 r \$0-treble;
#X obj 878 707 r \$0-midle;
#X obj 605 698 r \$0-bass;
#X obj 564 295 r \$0-gain;
#X obj 616 100 r \$0-option;
#X connect 0 0 44 0;
#X connect 1 0 2 0;
#X connect 2 0 5 0;
#X connect 2 1 6 0;
#X connect 5 0 8 0;
#X connect 5 0 7 0;
#X connect 6 0 37 0;
#X connect 7 0 9 0;
#X connect 8 0 10 0;
#X connect 9 0 11 1;
#X connect 10 0 11 0;
#X connect 11 0 12 0;
#X connect 12 0 38 0;
#X connect 13 0 5 1;
#X connect 14 0 15 0;
#X connect 15 0 39 0;
#X connect 19 0 21 0;
#X connect 20 0 19 0;
#X connect 21 0 40 0;
#X connect 23 0 0 0;
#X connect 24 0 23 0;
#X connect 25 0 24 0;
#X connect 26 0 28 0;
#X connect 27 0 26 0;
#X connect 28 0 23 0;
#X connect 29 0 28 1;
#X connect 30 0 31 0;
#X connect 31 0 23 1;
#X connect 32 0 31 1;
#X connect 33 0 36 0;
#X connect 34 0 23 0;
#X connect 35 0 34 1;
#X connect 36 0 34 0;
#X connect 37 0 13 0;
#X connect 38 0 14 0;
#X connect 39 0 20 0;
#X connect 40 0 25 0;
#X connect 40 0 27 0;
#X connect 40 0 30 0;
#X connect 40 0 33 0;
#X connect 41 0 45 0;
#X connect 42 0 43 0;
#X connect 44 0 41 0;
#X connect 45 0 42 0;
#X connect 46 0 0 1;
#X connect 47 0 32 0;
#X connect 48 0 29 0;
#X connect 49 0 35 0;
#X connect 50 0 12 1;
#X connect 51 0 2 1;
#X restore 542 433 pd moteur;
#X obj 971 238 s \$0-bass;
#X obj 991 288 s \$0-middle;
#X obj 1011 335 s \$0-treble;
#X obj 1034 382 s \$0-gain;
#X obj 1054 428 s \$0-master;
#X obj 1054 406 tof/param /master 0.1 /g slider 0.01 1;
#X obj 1086 474 s \$0-option;
#N canvas 0 98 1920 982 moteur 0;
#X obj 534 768 *~;
#X obj 530 49 inlet~;
#N canvas 0 50 566 300 spigot~ 0;
#X obj 63 24 inlet~;
#X obj 95 75 == 0;
#X obj 174 75 == 1;
#X obj 64 174 *~;
#X obj 180 166 *~;
#X obj 179 246 outlet~;
#X obj 63 244 outlet~;
#X obj 233 23 inlet;
#X connect 0 0 3 0;
#X connect 0 0 4 0;
#X connect 1 0 3 1;
#X connect 2 0 4 1;
#X connect 3 0 6 0;
#X connect 4 0 5 0;
#X connect 7 0 1 0;
#X connect 7 0 2 0;
#X restore 529 107 pd spigot~;
#X text 534 144 Input Low;
#X text 827 125 Input High;
#X obj 529 204 +~;
#X obj 741 133 lop~ 23405;
#X obj 634 230 hip~ 10000;
#X obj 530 229 hip~ 100;
#X obj 635 250 *~ 2.2;
#X obj 530 250 *~ 0.5;
#X obj 531 275 +~;
#X obj 531 296 *~;
#X obj 740 183 *~ -12;
#X obj 529 377 *~ -9;
#X obj 530 427 hip~ 720.4;
#X text 546 333 1st Stage;
#X text 548 404 2nd Stage;
#X text 551 503 3rd Stage;
#X obj 531 521 hip~ 100;
#X obj 531 472 *~ 50;
#X obj 531 549 *~ -1;
#X text 483 610 Tonestack;
#X obj 534 742 +~;
#X obj 734 685 bp~ 250 1;
#X obj 734 663 *~ 0.25;
#X obj 811 685 hip~ 1000;
#X obj 812 663 *~ 0.4;
#X obj 811 708 *~;
#X obj 844 709 / 10;
#X obj 1018 667 hip~ 20000;
#X obj 1016 703 *~;
#X obj 1049 704 / 10;
#X obj 531 630 *~ 0.9;
#X obj 533 698 *~;
#X obj 565 698 / 10;
#X obj 532 657 bp~ 70 2;
#X obj 741 159 clip~ -8 1000;
#X obj 530 356 clip~ -8 10;
#X obj 531 450 clip~ -10 8;
#X obj 530 574 clip~ -10 8;
#X obj 534 827 *~ -0.33;
#X obj 533 878 *~ 2;
#X obj 532 907 outlet~;
#X obj 534 800 clip~ -10 8;
#X obj 533 853 clip~ -10 10;
#X obj 569 767 r \$0-master;
#X obj 1094 704 r \$0-treble;
#X obj 878 707 r \$0-midle;
#X obj 605 698 r \$0-bass;
#X obj 564 295 r \$0-gain;
#X obj 616 100 r \$0-option;
#X connect 0 0 44 0;
#X connect 1 0 2 0;
#X connect 2 0 5 0;
#X connect 2 1 6 0;
#X connect 5 0 8 0;
#X connect 5 0 7 0;
#X connect 6 0 37 0;
#X connect 7 0 9 0;
#X connect 8 0 10 0;
#X connect 9 0 11 1;
#X connect 10 0 11 0;
#X connect 11 0 12 0;
#X connect 12 0 38 0;
#X connect 13 0 5 1;
#X connect 14 0 15 0;
#X connect 15 0 39 0;
#X connect 19 0 21 0;
#X connect 20 0 19 0;
#X connect 21 0 40 0;
#X connect 23 0 0 0;
#X connect 24 0 23 0;
#X connect 25 0 24 0;
#X connect 26 0 28 0;
#X connect 27 0 26 0;
#X connect 28 0 23 0;
#X connect 29 0 28 1;
#X connect 30 0 31 0;
#X connect 31 0 23 1;
#X connect 32 0 31 1;
#X connect 33 0 36 0;
#X connect 34 0 23 0;
#X connect 35 0 34 1;
#X connect 36 0 34 0;
#X connect 37 0 13 0;
#X connect 38 0 14 0;
#X connect 39 0 20 0;
#X connect 40 0 25 0;
#X connect 40 0 27 0;
#X connect 40 0 30 0;
#X connect 40 0 33 0;
#X connect 41 0 45 0;
#X connect 42 0 43 0;
#X connect 44 0 41 0;
#X connect 45 0 42 0;
#X connect 46 0 0 1;
#X connect 47 0 32 0;
#X connect 48 0 29 0;
#X connect 49 0 35 0;
#X connect 50 0 12 1;
#X connect 51 0 2 1;
#X restore 462 432 pd moteur;
#X connect 0 0 2 0;
#X connect 2 0 1 0;
#X connect 3 0 4 0;
#X connect 5 0 23 0;
#X connect 6 0 5 0;
#X connect 6 0 9 0;
#X connect 6 0 10 0;
#X connect 6 0 12 0;
#X connect 6 0 13 0;
#X connect 6 0 25 0;
#X connect 7 0 28 0;
#X connect 8 0 29 0;
#X connect 9 0 8 0;
#X connect 10 0 7 0;
#X connect 11 0 31 0;
#X connect 12 0 11 0;
#X connect 13 0 24 0;
#X connect 14 0 18 1;
#X connect 14 0 27 0;
#X connect 15 0 18 0;
#X connect 15 0 35 0;
#X connect 18 0 16 0;
#X connect 18 1 17 0;
#X connect 19 0 20 0;
#X connect 20 0 18 4;
#X connect 21 0 26 0;
#X connect 22 0 19 0;
#X connect 23 0 30 0;
#X connect 24 0 34 0;
#X connect 25 0 33 0;
#X connect 26 0 22 0;
#X connect 27 0 18 3;
#X connect 33 0 32 0;
#X connect 35 0 18 2;
