#N canvas 554 276 1366 662 10;
#X obj 13 241 mtl/out~;
#X text 13 68 tags: fx~;
#X msg 412 139 /wet \$1;
#X floatatom 412 118 5 0 1 0 - - -, f 5;
#X text 508 185 <-Click on the propeties menu to display params;
#X obj 343 268 cnv 15 200 20 empty empty /TraditionalFuzz/ 2 12 0 8
-258401 -262144 0;
#X obj 344 297 hsl 100 15 0 10 0 0 /TraditionalFuzz/boost /TraditionalFuzz/boost_
boost 105 7 0 8 -262144 -1 -1 990 1;
#X obj 344 353 hsl 100 15 0.1 1 0 0 /TraditionalFuzz/wet /TraditionalFuzz/wet_
wet 105 7 0 8 -262144 -1 -1 0 1;
#X obj 344 316 hsl 100 15 0.01 1 0 0 /TraditionalFuzz/fuzz /TraditionalFuzz/fuzz_
fuzz 105 7 0 8 -262144 -1 -1 9900 1;
#X obj 12 135 osc~ 440;
#X obj 13 340 dac~;
#X obj 344 334 hsl 100 15 0 0.1 0 0 /TraditionalFuzz/volume /TraditionalFuzz/volume_
volume 105 7 0 8 -262144 -1 -1 9900 1;
#X obj 341 373 tgl 15 0 /TraditionalFuzz/gainup /TraditionalFuzz/gainup_
gainup 17 7 0 10 -262144 -1 -1 0.1 1;
#X text 11 5 Description: TraditionalFuzz;
#X text 11 23 Author: 139notfound url : http://139notfound.blogspot.fr/2017/01/puredatafuzz-face-2traditional-fuzz.html
, f 86;
#X obj 12 185 mtl/139notfound-TraditionalFuzz~ /id TraditionalFuzz
1 1 0.1 0.1 0.1, f 69;
#X connect 0 0 10 0;
#X connect 0 1 10 1;
#X connect 2 0 15 2;
#X connect 3 0 2 0;
#X connect 9 0 15 0;
#X connect 9 0 15 1;
#X connect 15 0 0 0;
#X connect 15 1 0 1;
