#N canvas 1 82 1016 656 10;
#X obj 97 96 inlet~;
#X obj 164 102 inlet~;
#X obj 115 369 outlet~;
#X obj 209 371 outlet~;
#X obj 124 237 tof/crossfade~ 2;
#X obj 602 166 inlet params;
#X obj 602 212 print PARAM_NOTFOUND;
#X obj 262 168 tof/param /wet 0 /g slider 0 1;
#X obj 262 211 line~;
#X msg 262 190 \$1 5;
#X obj 602 188 tof/param route;
#X obj 595 243 b;
#X obj 596 272 tof/param gui;
#N canvas 1 84 1016 659 absolute 0;
#X msg 254 107 0 -1 1;
#X obj 88 113 +~ 1;
#X obj 72 220 *~;
#X obj 73 244 outlet~;
#X obj 71 83 inlet~;
#X text 109 174 <= sign of input;
#X text 141 245 <= abs of input;
#X obj 89 150 tabread~ \$0-g-sgn;
#X obj 254 86 initbang;
#X obj 254 128 s \$0-g-sgn;
#X obj 254 149 table \$0-g-sgn 2;
#X connect 0 0 9 0;
#X connect 1 0 7 0;
#X connect 2 0 3 0;
#X connect 4 0 1 0;
#X connect 4 0 2 0;
#X connect 7 0 2 1;
#X connect 8 0 0 0;
#X restore 162 187 pd absolute;
#N canvas 1 82 1016 659 absolute 0;
#X msg 292 151 0 -1 1;
#X obj 126 157 +~ 1;
#X obj 110 264 *~;
#X obj 111 288 outlet~;
#X obj 109 127 inlet~;
#X text 147 218 <= sign of input;
#X text 179 289 <= abs of input;
#X obj 127 194 tabread~ \$0-d-sgn;
#X obj 292 172 s \$0-d-sgn;
#X obj 292 130 initbang;
#X obj 292 193 table \$0-d-sgn 2;
#X connect 0 0 8 0;
#X connect 1 0 7 0;
#X connect 2 0 3 0;
#X connect 4 0 1 0;
#X connect 4 0 2 0;
#X connect 7 0 2 1;
#X connect 9 0 0 0;
#X restore 179 209 pd absolute;
#X connect 0 0 4 0;
#X connect 0 0 13 0;
#X connect 1 0 4 1;
#X connect 1 0 14 0;
#X connect 4 0 2 0;
#X connect 4 1 3 0;
#X connect 5 0 10 0;
#X connect 7 0 9 0;
#X connect 8 0 4 4;
#X connect 9 0 8 0;
#X connect 10 0 6 0;
#X connect 11 0 12 0;
#X connect 13 0 4 2;
#X connect 14 0 4 3;
