#N canvas 1 82 1364 661 10;
#X obj 91 216 sel 0;
#X obj 281 189 / 127;
#X obj 48 149 inlet;
#X obj 164 563 outlet~;
#X text 157 171 TODO: handle original velocity better;
#X obj 309 250 * 0.5;
#X obj 99 285 f 250;
#X obj 731 560 outlet release_done;
#X obj 108 248 t b b;
#X msg 515 436 1;
#X obj 281 212 t f f b;
#X msg 491 381 0;
#X obj 265 566 outlet attack_started;
#X obj 460 348 t b b;
#X obj 126 441 vline~;
#X msg 100 365 0 \$1;
#X obj 261 305 pack f f 250 250;
#X msg 283 378 \$3 \$4;
#X obj 288 435 delay;
#X obj 126 317 t f f;
#X obj 286 405 +;
#X obj 494 559 outlet attack+decay_done;
#X msg 146 403 \$1 \$3 \, \$2 \$4 \$3;
#X obj 439 489 zexy/demultiplex 0 1;
#X obj 178 498 iemlib/fade~ _sin;
#X obj 820 155 inlet params;
#X obj 820 201 print PARAM_NOTFOUND;
#X obj 820 177 tof/param route;
#X obj 823 226 b;
#X obj 824 255 tof/param gui;
#X obj 473 180 \$3;
#X obj 501 181 \$4;
#X obj 444 118 loadbang;
#X obj 444 145 t b b b b;
#X obj 417 179 \$5;
#X obj 445 180 \$6;
#X obj 415 44 tof/param /sustain-level 1 /g slider 0 1;
#X obj 371 -5 tof/param /attack-time 0 /g nbx;
#X obj 394 21 tof/param /decay-time 0 /g nbx;
#X obj 434 69 tof/param /release-time 0 /g nbx;
#X connect 0 0 8 0;
#X connect 0 1 1 0;
#X connect 1 0 10 0;
#X connect 2 0 0 0;
#X connect 5 0 16 1;
#X connect 6 0 19 0;
#X connect 8 0 6 0;
#X connect 8 1 9 0;
#X connect 9 0 23 1;
#X connect 10 0 16 0;
#X connect 10 1 5 0;
#X connect 10 2 13 0;
#X connect 11 0 23 1;
#X connect 13 0 12 0;
#X connect 13 1 11 0;
#X connect 14 0 24 0;
#X connect 15 0 14 0;
#X connect 16 0 22 0;
#X connect 16 0 17 0;
#X connect 17 0 20 0;
#X connect 18 0 23 0;
#X connect 19 0 18 0;
#X connect 19 1 15 0;
#X connect 20 0 18 0;
#X connect 22 0 14 0;
#X connect 23 0 21 0;
#X connect 23 1 7 0;
#X connect 24 0 3 0;
#X connect 25 0 27 0;
#X connect 27 0 26 0;
#X connect 28 0 29 0;
#X connect 30 0 16 2;
#X connect 31 0 16 3;
#X connect 32 0 33 0;
#X connect 33 0 34 0;
#X connect 33 1 35 0;
#X connect 33 2 30 0;
#X connect 33 3 31 0;
#X connect 34 0 5 1;
#X connect 35 0 6 1;
#X connect 36 0 5 1;
#X connect 37 0 16 2;
#X connect 38 0 16 3;
#X connect 39 0 6 1;
