#N canvas 264 206 748 500 10;
#X obj 27 269 mtl/out~;
#X obj 309 182 hsl 100 15 0 1 0 0 /aliaser/wet /aliaser/wet_ wet 105
7 0 8 -262144 -1 -1 0 1;
#X obj 307 149 cnv 15 200 20 empty empty /aliaser/ 2 12 0 8 -258401
-262144 0;
#X obj 27 234 mtl/aliaser~ /id aliaser;
#X obj 72 166 osc~ 400;
#X floatatom 75 111 5 0 0 0 - - -;
#X text 313 253 2008 Dan Wilcox;
#X text 314 269 from a pd patch by Patrick Valiquet on the pd-list
;
#X obj 310 201 hsl 100 15 0 8 0 0 /aliaser/overlap /aliaser/overlap_
overlap 105 7 0 8 -262144 -1 -1 1237 1;
#X obj 310 219 hsl 100 15 0 8 0 0 /aliaser/resample /aliaser/resample_
overlap 105 7 0 8 -262144 -1 -1 1237 1;
#X text 324 310 tags: fx~;
#X connect 3 0 0 0;
#X connect 3 1 0 1;
#X connect 4 0 3 0;
#X connect 4 0 3 1;
#X connect 5 0 4 0;
#X coords 0 0 1 1 402 40 0;
