#N canvas 1 82 1272 661 10;
#X obj 94 304 inlet~;
#X obj 160 297 inlet~;
#X obj 553 251 inlet params;
#X obj 553 297 print PARAM_NOTFOUND;
#X obj 553 273 tof/param route;
#X obj 549 396 b;
#X obj 550 425 tof/param gui;
#X obj 114 535 outlet~;
#X obj 215 534 outlet~;
#N canvas 0 50 1272 692 amTremolo 0;
#X obj 90 46 inlet~ signal;
#X obj 173 299 osc~;
#X obj 170 328 expr~ (($v1-1) / 2 * $v2) + 1;
#X obj 359 299 vline~;
#X msg 359 276 \$1 10;
#X obj 140 375 *~;
#N canvas 0 50 462 312 rh_scalelog 0;
#X obj 20 155 exp;
#X obj 20 107 *;
#X obj 20 130 +;
#X obj 98 87 log;
#X obj 194 84 log;
#X obj 123 123 t b f;
#X obj 123 145 -;
#X obj 20 183 outlet;
#X obj 20 19 inlet;
#X obj 98 23 inlet;
#X obj 194 24 inlet;
#X connect 0 0 7 0;
#X connect 1 0 2 0;
#X connect 2 0 0 0;
#X connect 3 0 2 1;
#X connect 3 0 5 0;
#X connect 4 0 6 0;
#X connect 5 0 6 0;
#X connect 5 1 6 1;
#X connect 6 0 1 1;
#X connect 8 0 1 0;
#X connect 9 0 3 0;
#X connect 10 0 4 0;
#X restore 193 207 pd rh_scalelog;
#X msg 240 183 0.1;
#X msg 286 183 10000;
#X obj 220 281 + 0.25;
#X obj 140 501 outlet~;
#X obj 240 155 loadbang;
#X obj 201 52 inlet freq;
#X obj 287 59 inlet phase;
#X obj 392 55 inlet depth;
#X connect 0 0 5 0;
#X connect 1 0 2 0;
#X connect 2 0 5 1;
#X connect 3 0 2 1;
#X connect 4 0 3 0;
#X connect 5 0 10 0;
#X connect 6 0 1 0;
#X connect 7 0 6 1;
#X connect 8 0 6 2;
#X connect 9 0 1 1;
#X connect 11 0 7 0;
#X connect 11 0 8 0;
#X connect 12 0 6 0;
#X connect 13 0 9 0;
#X connect 14 0 4 0;
#X restore 139 393 pd amTremolo;
#N canvas 0 50 1272 692 amTremolo 0;
#X obj 90 46 inlet~ signal;
#X obj 173 299 osc~;
#X obj 170 328 expr~ (($v1-1) / 2 * $v2) + 1;
#X obj 359 299 vline~;
#X msg 359 276 \$1 10;
#X obj 140 375 *~;
#N canvas 0 50 462 312 rh_scalelog 0;
#X obj 20 155 exp;
#X obj 20 107 *;
#X obj 20 130 +;
#X obj 98 87 log;
#X obj 194 84 log;
#X obj 123 123 t b f;
#X obj 123 145 -;
#X obj 20 183 outlet;
#X obj 20 19 inlet;
#X obj 98 23 inlet;
#X obj 194 24 inlet;
#X connect 0 0 7 0;
#X connect 1 0 2 0;
#X connect 2 0 0 0;
#X connect 3 0 2 1;
#X connect 3 0 5 0;
#X connect 4 0 6 0;
#X connect 5 0 6 0;
#X connect 5 1 6 1;
#X connect 6 0 1 1;
#X connect 8 0 1 0;
#X connect 9 0 3 0;
#X connect 10 0 4 0;
#X restore 193 207 pd rh_scalelog;
#X msg 240 183 0.1;
#X msg 286 183 10000;
#X obj 220 281 + 0.25;
#X obj 140 501 outlet~;
#X obj 240 155 loadbang;
#X obj 201 52 inlet freq;
#X obj 287 59 inlet phase;
#X obj 392 55 inlet depth;
#X connect 0 0 5 0;
#X connect 1 0 2 0;
#X connect 2 0 5 1;
#X connect 3 0 2 1;
#X connect 4 0 3 0;
#X connect 5 0 10 0;
#X connect 6 0 1 0;
#X connect 7 0 6 1;
#X connect 8 0 6 2;
#X connect 9 0 1 1;
#X connect 11 0 7 0;
#X connect 11 0 8 0;
#X connect 12 0 6 0;
#X connect 13 0 9 0;
#X connect 14 0 4 0;
#X restore 242 396 pd amTremolo;
#X obj 235 258 tof/param /freq 0 /g slider 0 1;
#X obj 263 284 tof/param /phase 0 /g slider 0 1;
#X obj 305 310 tof/param /depth 0 /g slider 0 1;
#X obj 400 185 tof/argument 5;
#X obj 386 161 tof/argument 4;
#X obj 380 137 tof/argument 3;
#X obj 381 115 loadbang;
#X connect 0 0 9 0;
#X connect 1 0 10 0;
#X connect 2 0 4 0;
#X connect 4 0 3 0;
#X connect 5 0 6 0;
#X connect 9 0 7 0;
#X connect 10 0 8 0;
#X connect 11 0 9 1;
#X connect 11 0 10 1;
#X connect 12 0 9 2;
#X connect 12 0 10 2;
#X connect 13 0 9 3;
#X connect 13 0 10 3;
#X connect 14 0 13 0;
#X connect 15 0 12 0;
#X connect 16 0 11 0;
#X connect 17 0 14 0;
#X connect 17 0 15 0;
#X connect 17 0 16 0;
