#N canvas 0 25 1016 659 10;
#X obj 81 259 f;
#X obj 108 259 f;
#X obj 118 230 t b f;
#X obj 81 230 t f b;
#X obj 76 152 tof/param /porte1 0 /g tgl;
#X obj 175 181 tof/param /porte2 0 /g tgl;
#X obj 81 285 &&;
#X obj 83 81 cnv 15 32 25 empty empty AND 4 12 0 14 -1 -262144 0;
#X obj 48 116 inlet porte1;
#X obj 166 111 inlet porte2;
#X obj 76 349 outlet and;
#X obj 682 246 inlet params;
#X obj 682 292 print PARAM_NOTFOUND;
#X obj 682 268 tof/param route;
#X obj 675 323 b;
#X obj 676 352 tof/param gui;
#X connect 0 0 6 0;
#X connect 1 0 6 1;
#X connect 2 0 0 0;
#X connect 2 1 1 0;
#X connect 3 0 0 0;
#X connect 3 1 1 0;
#X connect 4 0 3 0;
#X connect 5 0 2 0;
#X connect 6 0 10 0;
#X connect 8 0 3 0;
#X connect 9 0 2 0;
#X connect 11 0 13 0;
#X connect 13 0 12 0;
#X connect 14 0 15 0;
