#N canvas 1 82 1364 661 10;
#X obj 856 169 inlet params;
#X obj 856 215 print PARAM_NOTFOUND;
#X obj 856 191 tof/param route;
#X obj 852 314 b;
#X obj 853 343 tof/param gui;
#X obj 300 629 outlet~;
#X obj 256 270 *~;
#X obj 240 438 +~;
#X obj 241 499 osc~;
#X obj 257 385 *~;
#X obj 239 409 sig~;
#X obj 212 213 osc~;
#X obj 249 211 osc~;
#X obj 215 270 +~;
#N canvas 1 82 458 308 xf 0;
#X obj 107 37 inlet~;
#X obj 158 37 inlet~;
#X obj 123 135 *~;
#X obj 152 134 *~;
#X obj 134 178 outlet~;
#X obj 171 87 sig~ 1;
#X obj 169 108 -~;
#X obj 227 37 inlet~ xfade;
#X connect 0 0 2 0;
#X connect 1 0 3 0;
#X connect 2 0 4 0;
#X connect 3 0 4 0;
#X connect 5 0 6 0;
#X connect 6 0 3 1;
#X connect 7 0 6 1;
#X connect 7 0 2 1;
#X restore 216 310 pd xf;
#X text 314 268 2 ringmod;
#X obj 285 270 *~;
#X obj 186 550 s~ \$0-fb;
#X obj 270 441 r~ \$0-fb;
#X obj 241 475 +~;
#X text 208 496 fbfm;
#X obj 187 526 *~ 600;
#X obj 85 154 * 5000;
#X obj 183 154 * 5000;
#X obj 363 344 * 5000;
#X obj 15 419 * 1000;
#X obj 14 441 + 100;
#X obj 286 210 vline~;
#X obj 286 131 f;
#X obj 292 542 *~;
#X obj 309 503 *~;
#X obj 308 477 *~ 1;
#N canvas 0 22 466 316 rh_scalelog 0;
#X obj 20 155 exp;
#X obj 20 107 *;
#X obj 20 130 +;
#X obj 98 87 log;
#X obj 194 84 log;
#X obj 123 123 t b f;
#X obj 123 145 -;
#X obj 20 183 outlet;
#X obj 20 19 inlet;
#X obj 98 23 inlet;
#X obj 194 24 inlet;
#X connect 0 0 7 0;
#X connect 1 0 2 0;
#X connect 2 0 0 0;
#X connect 3 0 2 1;
#X connect 3 0 5 0;
#X connect 4 0 6 0;
#X connect 5 0 6 0;
#X connect 5 1 6 1;
#X connect 6 0 1 1;
#X connect 8 0 1 0;
#X connect 9 0 3 0;
#X connect 10 0 4 0;
#X restore 401 87 pd rh_scalelog;
#X msg 449 63 10;
#X msg 494 63 10000;
#X obj 75 300 + 100;
#X obj 74 277 * 15000;
#X obj 286 39 inlet;
#X obj 286 68 t b;
#X msg 282 172 1 0 1 \, 0 \$1 1;
#X obj 292 566 *~ 0.3;
#X msg 306 92 0.25;
#X obj 449 37 r \$0-loadbang;
#X text 455 173;
#X obj 401 12 tof/param /decay 0 /g slider 0 1;
#X obj 16 90 tof/param /mod1 0 /g slider 0 1;
#X obj 76 112 tof/param /mod2 0 /g slider 0 1;
#X obj 8 234 tof/param /base 0 /g slider 0 1;
#X obj 316 237 tof/param /env 0 /g slider 0 1;
#X obj 366 316 tof/param /fmAmount 0 /g slider 0 1;
#X obj 1 398 tof/param /feedback 0 /g slider 0 1;
#X connect 0 0 2 0;
#X connect 2 0 1 0;
#X connect 3 0 4 0;
#X connect 6 0 14 1;
#X connect 7 0 19 0;
#X connect 8 0 21 0;
#X connect 8 0 29 0;
#X connect 9 0 7 1;
#X connect 10 0 7 0;
#X connect 11 0 6 0;
#X connect 11 0 13 0;
#X connect 12 0 6 1;
#X connect 12 0 13 1;
#X connect 13 0 14 0;
#X connect 14 0 9 0;
#X connect 16 0 14 2;
#X connect 18 0 19 1;
#X connect 19 0 8 0;
#X connect 21 0 17 0;
#X connect 22 0 11 0;
#X connect 23 0 12 0;
#X connect 24 0 9 1;
#X connect 25 0 26 0;
#X connect 26 0 21 1;
#X connect 27 0 16 0;
#X connect 27 0 31 0;
#X connect 28 0 39 0;
#X connect 29 0 40 0;
#X connect 30 0 29 1;
#X connect 31 0 30 0;
#X connect 31 0 30 1;
#X connect 32 0 28 1;
#X connect 33 0 32 1;
#X connect 34 0 32 2;
#X connect 35 0 10 0;
#X connect 36 0 35 0;
#X connect 37 0 38 0;
#X connect 38 0 28 0;
#X connect 38 0 41 0;
#X connect 39 0 27 0;
#X connect 40 0 5 0;
#X connect 41 0 11 1;
#X connect 41 0 12 1;
#X connect 41 0 8 1;
#X connect 42 0 33 0;
#X connect 42 0 34 0;
#X connect 44 0 32 0;
#X connect 45 0 22 0;
#X connect 46 0 23 0;
#X connect 47 0 36 0;
#X connect 48 0 16 1;
#X connect 49 0 24 0;
#X connect 50 0 25 0;
