#N canvas 0 0 1272 685 10;
#X obj 1019 221 inlet params;
#X obj 1019 267 print PARAM_NOTFOUND;
#X obj 1019 243 tof/param route;
#X obj 1012 298 b;
#X obj 1013 327 tof/param gui;
#X obj 115 75 env~;
#X obj 115 185 / 10000;
#X obj 115 205 swap 1;
#X obj 115 228 -;
#X obj 95 304 *~;
#X obj 115 250 * 9;
#X obj 115 271 lop~ 10;
#X obj 94 45 inlet~;
#X obj 95 328 outlet~;
#X text 686 131 feedforward AGC (ajf);
#X text 181 18 Soft Leveller;
#X obj 735 88 rmstodb;
#X obj 735 108 dbtopow;
#X obj 115 121 t a a;
#X obj 115 146 *;
#X obj 115 98 max;
#X text 670 93 was:;
#X obj 219 77 env~;
#X obj 219 187 / 10000;
#X obj 219 207 swap 1;
#X obj 219 230 -;
#X obj 199 306 *~;
#X obj 219 252 * 9;
#X obj 219 273 lop~ 10;
#X obj 198 47 inlet~;
#X obj 199 330 outlet~;
#X obj 219 123 t a a;
#X obj 219 148 *;
#X obj 219 100 max;
#X connect 0 0 2 0;
#X connect 2 0 1 0;
#X connect 3 0 4 0;
#X connect 5 0 20 0;
#X connect 6 0 7 0;
#X connect 7 0 8 0;
#X connect 7 1 8 1;
#X connect 8 0 10 0;
#X connect 9 0 13 0;
#X connect 10 0 11 0;
#X connect 11 0 9 1;
#X connect 12 0 5 0;
#X connect 12 0 9 0;
#X connect 16 0 17 0;
#X connect 18 0 19 0;
#X connect 18 1 19 1;
#X connect 19 0 6 0;
#X connect 20 0 18 0;
#X connect 22 0 33 0;
#X connect 23 0 24 0;
#X connect 24 0 25 0;
#X connect 24 1 25 1;
#X connect 25 0 27 0;
#X connect 26 0 30 0;
#X connect 27 0 28 0;
#X connect 28 0 26 1;
#X connect 29 0 22 0;
#X connect 29 0 26 0;
#X connect 31 0 32 0;
#X connect 31 1 32 1;
#X connect 32 0 23 0;
#X connect 33 0 31 0;
