#N canvas 611 260 736 483 10;
#X obj 102 74 inlet;
#X obj 107 138 outlet;
#N canvas 351 209 844 670 moteur 0;
#X obj 131 28 initbang;
#X obj 110 83 dollarg;
#X obj 220 181 l;
#X obj 135 215 list prepend;
#X obj 222 105 \$0;
#X obj 128 59 t b b;
#X obj 99 105 list split 1;
#X obj 111 130 l;
#X obj 137 251 list prepend;
#X obj 70 130 t b a;
#X obj 223 293 f;
#X obj 159 318 list prepend;
#X msg 383 545 connect \$1 0 \$2 0;
#X obj 141 282 t b l b;
#X obj 394 240 f;
#X obj 432 241 + 1;
#X obj 393 263 * 3;
#X obj 167 348 t a a a;
#X obj 401 465 + 2;
#X obj 385 440 t f f f;
#X obj 388 491 pack f f f;
#X obj 442 464 + 1;
#X msg 513 550 connect \$2 0 \$3 0;
#X obj 121 180 list split \$2;
#X obj 201 477 list split 3;
#X msg 176 503 obj \$1 100 \$2;
#X obj 192 574 list trim;
#X obj 170 452 t a a;
#X obj 82 157 list split 1;
#X obj 177 541 list append;
#X msg 184 432 obj \$1 200 outlet;
#X msg 281 467 obj \$1 0 inlet;
#X obj 238 256 * 50;
#X obj 261 294 - 50;
#X obj 392 285 + 4;
#X msg 397 524 connect \$2 0 1 0;
#X msg 521 520 connect 0 0 \$2 0;
#X obj 217 597 s \$0-autoabs;
#X connect 0 0 5 0;
#X connect 1 0 6 0;
#X connect 1 1 32 0;
#X connect 2 0 23 0;
#X connect 3 0 8 0;
#X connect 4 0 3 1;
#X connect 5 0 1 0;
#X connect 5 1 4 0;
#X connect 6 0 9 0;
#X connect 6 1 7 1;
#X connect 7 0 28 0;
#X connect 8 0 13 0;
#X connect 9 0 7 0;
#X connect 9 1 8 1;
#X connect 10 0 11 1;
#X connect 10 0 33 0;
#X connect 11 0 17 0;
#X connect 12 0 37 0;
#X connect 13 0 14 0;
#X connect 13 1 11 0;
#X connect 13 2 10 0;
#X connect 14 0 15 0;
#X connect 14 0 16 0;
#X connect 15 0 14 1;
#X connect 16 0 34 0;
#X connect 17 0 27 0;
#X connect 17 1 30 0;
#X connect 17 2 31 0;
#X connect 18 0 20 1;
#X connect 19 0 20 0;
#X connect 19 1 18 0;
#X connect 19 2 21 0;
#X connect 20 0 12 0;
#X connect 20 0 22 0;
#X connect 20 0 35 0;
#X connect 20 0 36 0;
#X connect 21 0 20 2;
#X connect 22 0 37 0;
#X connect 23 0 3 0;
#X connect 23 1 2 0;
#X connect 24 1 29 1;
#X connect 25 0 29 0;
#X connect 26 0 37 0;
#X connect 27 0 25 0;
#X connect 27 1 24 0;
#X connect 28 1 23 0;
#X connect 29 0 26 0;
#X connect 30 0 37 0;
#X connect 31 0 37 0;
#X connect 32 0 10 1;
#X connect 33 0 10 1;
#X connect 34 0 19 0;
#X connect 35 0 37 0;
#X connect 36 0 37 0;
#X restore 103 285 pd moteur;
#X obj 99 229 namecanvas \$0-autoabs;
#X obj 150 0 inlet;
#X obj 150 200 outlet;
#X obj 150 100 cyclone/counter 3 12 0;
#X connect 0 0 6 0;
#X connect 4 0 6 0;
#X connect 6 0 5 0;
#X connect 6 0 1 0;
