#N canvas 316 82 1041 661 10;
#X text 682 99 arg : name of object/abstraction;
#X text 717 128 arguments for each object created;
#X text 717 114 number of arguments by objet;
#X text 686 142 !don't save in the autopatch!;
#X text 685 155 Test and enjoy;
#X obj 428 236 print;
#X obj 676 237 print;
#X msg 427 159 autochain c'est classe;
#X obj 547 243 print;
#X msg 430 122 rien a dire;
#X floatatom 55 242 5 0 0 0 - - -;
#X floatatom 118 242 5 0 0 0 - - -;
#X floatatom 177 243 5 0 0 0 - - -;
#X floatatom 242 244 5 0 0 0 - - -;
#X floatatom 56 175 5 0 0 0 - - -;
#X floatatom 117 179 5 0 0 0 - - -;
#X obj 640 668 tgl 15 0 empty empty empty 17 7 0 10 -262144 -1 -1 0
1;
#X obj 663 758 bng 15 250 50 0 empty empty empty 17 7 0 10 -262144
-1 -1;
#X floatatom 704 762 5 0 0 0 - - -;
#X obj 700 670 bng 15 250 50 0 empty empty empty 17 7 0 10 -262144
-1 -1;
#X floatatom 586 665 5 0 0 0 - - -;
#X obj 583 768 print change;
#X floatatom 478 757 5 0 0 0 - - -;
#X floatatom 422 755 5 0 0 0 - - -;
#X floatatom 363 752 5 0 0 0 - - -;
#X floatatom 363 673 5 0 0 0 - - -;
#X floatatom 416 673 5 0 0 0 - - -;
#X floatatom 469 672 5 0 0 0 - - -;
#X floatatom 530 671 5 0 0 0 - - -;
#X floatatom 760 762 5 0 0 0 - - -;
#X floatatom 807 764 5 0 0 0 - - -;
#X floatatom 519 757 5 0 0 0 - - -;
#X text 197 714 mix autochain/autoabs;
#X obj 366 705 autochain autoabs 3 max 1 70 max 1 100 min 1 200 > 1
150 change 1 0 metro 1 100 counter 1 10 * 1 2.5 + 1 300;
#X obj 683 30 cnv 15 200 20 empty empty /autochain/ 2 12 0 8 -258401
-262144 0;
#X text 680 69 Author: Arno Courcelle 2014;
#X text 681 84 tags: tool;
#X obj 55 202 mtl/autochain min 1 100 70 40 20;
#X obj 430 184 mtl/autochain route 1 autochain c'est classe;
#X connect 7 0 38 0;
#X connect 9 0 38 0;
#X connect 14 0 37 0;
#X connect 15 0 37 1;
#X connect 16 0 33 5;
#X connect 19 0 33 6;
#X connect 20 0 33 4;
#X connect 25 0 33 0;
#X connect 26 0 33 1;
#X connect 27 0 33 2;
#X connect 28 0 33 3;
#X connect 33 0 24 0;
#X connect 33 1 23 0;
#X connect 33 2 22 0;
#X connect 33 3 31 0;
#X connect 33 4 21 0;
#X connect 33 5 17 0;
#X connect 33 6 18 0;
#X connect 33 7 29 0;
#X connect 33 8 30 0;
#X connect 37 0 10 0;
#X connect 37 1 11 0;
#X connect 37 2 12 0;
#X connect 37 3 13 0;
#X connect 38 0 5 0;
#X connect 38 1 8 0;
#X connect 38 2 6 0;
