#N canvas 1 82 1364 661 10;
#X obj 26 143 mtl/out~;
#X obj 26 87 bng 15 250 50 0 empty empty empty 17 7 0 10 -262144 -1
-1;
#X text 19 45 tags: synthesize~;
#X obj 883 199 hsl 100 15 0 1 0 0 /bassdrum/decay /bassdrum/decay_
decay 105 7 0 8 -262144 -1 -1 3960 1;
#X obj 880 171 cnv 15 200 20 empty empty /bassdrum/ 2 12 0 8 -258401
-262144 0;
#X obj 883 219 hsl 100 15 0 1 0 0 /bassdrum/freq1 /bassdrum/freq1_
freq1 105 7 0 8 -262144 -1 -1 3960 1;
#X obj 883 240 hsl 100 15 0 1 0 0 /bassdrum/freq2 /bassdrum/freq2_
freq2 105 7 0 8 -262144 -1 -1 3960 1;
#X obj 883 260 hsl 100 15 0 1 0 0 /bassdrum/curvetime /bassdrum/curvetime_
curvetime 105 7 0 8 -262144 -1 -1 3960 1;
#X obj 882 280 hsl 100 15 0 1 0 0 /bassdrum/noizelevel /bassdrum/noizelevel_
noizelevel 105 7 0 8 -262144 -1 -1 3960 1;
#X obj 882 300 hsl 100 15 0 1 0 0 /bassdrum/square /bassdrum/square_
square 105 7 0 8 -262144 -1 -1 3960 1;
#X obj 882 320 hsl 100 15 0 1 0 0 /bassdrum/lowpass /bassdrum/lowpass_
lowpass 105 7 0 8 -262144 -1 -1 5940 1;
#X text 19 11 Description : bass drum;
#X text 18 27 Comment: Based on Hardoff's work.;
#X obj 25 111 mtl/bassdrum~ /id bassdrum 0.4 0.4 0.4 0.4 0.4 0.4 0.6
;
#X connect 1 0 13 0;
#X connect 13 0 0 0;
#X connect 13 0 0 1;
