#N canvas 1 82 1351 661 10;
#X obj 45 603 outlet~;
#X text 422 69 reset phase;
#X text 43 14 freq;
#X obj 43 35 inlet;
#X obj 42 473 expr~ ((($v1+1)/2)*($f3-$f2))+$f2;
#X obj 801 114 inlet params;
#X obj 801 160 print PARAM_NOTFOUND;
#X obj 801 136 tof/param route;
#X obj 593 173 b;
#X obj 594 202 tof/param gui;
#X obj 156 254 tof/param /min 0 /g nbx;
#X obj 270 330 tof/param /max 0 /g nbx;
#X obj 254 65 tof/param /reset /g bng;
#X obj 43 255 osc~ \$3;
#X obj 185 66 loadbang;
#X obj 156 224 tof/argument 4;
#X obj 270 304 tof/argument 5;
#X obj 89 187 tof/argument 3;
#X connect 3 0 13 0;
#X connect 4 0 0 0;
#X connect 5 0 7 0;
#X connect 7 0 6 0;
#X connect 8 0 9 0;
#X connect 10 0 4 1;
#X connect 11 0 4 2;
#X connect 12 0 17 0;
#X connect 12 0 15 0;
#X connect 12 0 16 0;
#X connect 13 0 4 0;
#X connect 14 0 15 0;
#X connect 14 0 16 0;
#X connect 14 0 17 0;
#X connect 15 0 10 0;
#X connect 16 0 11 0;
#X connect 17 0 13 1;
