#N canvas 1 82 1364 661 10;
#X obj 45 603 outlet~;
#X text 508 17 reset phase;
#X text 58 11 freq;
#X obj 58 32 inlet;
#X obj 42 473 expr~ ((($v1+1)/2)*($f3-$f2))+$f2;
#X obj 597 28 inlet params;
#X obj 597 74 print PARAM_NOTFOUND;
#X obj 597 50 tof/param route;
#X obj 593 173 b;
#X obj 594 202 tof/param gui;
#X obj 744 85 print;
#X obj 333 -28 tof/param /min 0 /g nbx;
#X obj 347 -4 tof/param /max 0 /g nbx;
#X obj 361 20 tof/param /reset /g bng;
#X obj 56 252 osc~ \$3;
#X obj 383 241 loadbang;
#X obj 385 268 t b b;
#X obj 375 303 f \$4;
#X obj 458 294 f \$5;
#X connect 3 0 14 0;
#X connect 4 0 0 0;
#X connect 5 0 7 0;
#X connect 5 0 10 0;
#X connect 7 0 6 0;
#X connect 8 0 9 0;
#X connect 11 0 4 1;
#X connect 12 0 4 2;
#X connect 13 0 14 1;
#X connect 14 0 4 0;
#X connect 15 0 16 0;
#X connect 16 0 17 0;
#X connect 16 1 18 0;
#X connect 17 0 4 1;
#X connect 18 0 4 2;
