#N canvas 0 25 1280 695 10;
#X obj 18 136 inlet~;
#X obj 84 129 inlet~;
#X obj 477 83 inlet params;
#X obj 477 129 print PARAM_NOTFOUND;
#X obj 477 105 tof/param route;
#X obj 473 228 b;
#X obj 474 257 tof/param gui;
#N canvas 0 25 1272 692 bodyresonance 0;
#X obj 293 485 outlet~;
#X obj 413 64 * 0.8;
#X obj 183 247 delwrite~ \$0-clockbodyl 100;
#X obj 181 171 delread~ \$0-clockbodyl 50;
#X obj 181 192 bp~ 1200 3;
#N canvas 617 487 281 202 sizescale 0;
#X obj 102 42 * 10000;
#X obj 33 66 max 1e-07;
#X obj 33 92 min 100;
#X obj 69 15 inlet;
#X obj 33 121 outlet ms;
#X obj 102 66 outlet Hz;
#X obj 26 43 expr 1/$f1;
#X connect 0 0 5 0;
#X connect 1 0 2 0;
#X connect 2 0 4 0;
#X connect 3 0 0 0;
#X connect 3 0 6 0;
#X connect 6 0 1 0;
#X restore 181 148 pd sizescale;
#X obj 386 192 bp~ 1200 3;
#X obj 386 171 delread~ \$0-clockbodyw 50;
#X obj 388 247 delwrite~ \$0-clockbodyw 100;
#N canvas 617 584 281 202 sizescale 0;
#X obj 102 42 * 10000;
#X obj 30 95 max 1e-07;
#X obj 30 121 min 100;
#X obj 69 15 inlet;
#X obj 30 150 outlet ms;
#X obj 102 66 outlet Hz;
#X obj 27 58 expr 1/$f1;
#X connect 0 0 5 0;
#X connect 1 0 2 0;
#X connect 2 0 4 0;
#X connect 3 0 0 0;
#X connect 3 0 6 0;
#X connect 6 0 1 0;
#X restore 386 149 pd sizescale;
#X obj 386 127 + 0.02;
#X obj 132 36 inlet~;
#X text 459 88 0-1 size = 10000Hz-10Hz;
#X text 282 215 damping;
#X obj 182 217 *~ 0.3;
#X obj 395 219 *~ 0.3;
#X text 235 60 body resonance;
#X obj 413 86 + 0.1;
#X obj 330 49 inlet~;
#X text 308 27;
#X obj 360 488 outlet~;
#X obj 413 42 inlet;
#X connect 1 0 17 0;
#X connect 3 0 4 0;
#X connect 4 0 14 0;
#X connect 4 0 0 0;
#X connect 5 0 3 0;
#X connect 5 1 4 1;
#X connect 6 0 15 0;
#X connect 6 0 20 0;
#X connect 7 0 6 0;
#X connect 9 0 7 0;
#X connect 9 1 6 1;
#X connect 10 0 9 0;
#X connect 11 0 2 0;
#X connect 14 0 2 0;
#X connect 14 0 6 0;
#X connect 15 0 8 0;
#X connect 17 0 5 0;
#X connect 17 0 10 0;
#X connect 18 0 8 0;
#X connect 21 0 1 0;
#X restore 63 225 pd bodyresonance;
#X obj 176 140 tof/param /size 0 /g slider 0 1;
#X obj 38 367 outlet~;
#X obj 139 366 outlet~;
#X obj 207 212 tof/param /wet 0 /g slider 0 1;
#X obj 64 293 tof/crossfade~ 2;
#X msg 244 242 \$1 5;
#X obj 244 266 line~;
#X connect 0 0 7 0;
#X connect 0 0 12 0;
#X connect 1 0 7 1;
#X connect 1 0 12 1;
#X connect 2 0 4 0;
#X connect 4 0 3 0;
#X connect 5 0 6 0;
#X connect 7 0 12 2;
#X connect 7 1 12 3;
#X connect 8 0 7 2;
#X connect 11 0 13 0;
#X connect 12 0 9 0;
#X connect 12 1 10 0;
#X connect 13 0 14 0;
#X connect 14 0 12 4;
