#N canvas 1 82 1272 661 10;
#X text 87 100 Midi note.;
#X msg 136 174 64 54;
#X obj 135 453 mtl/out~;
#X obj 227 70 mtl/piano 1;
#X msg 18 172 30 127;
#X msg 24 129 60 127;
#X msg 89 120 65 127;
#X msg 113 151 80 127;
#X obj 135 416 mtl/bongo~ /id bongo;
#X text 15 8 Description: Generates some bongo sounds.;
#X text 15 26 tags: instrument~;
#X text 14 73 comment;
#X obj 646 276 cnv 15 200 20 empty empty /bongo/ 2 12 0 8 -258401 -262144
0;
#X obj 649 303 hsl 128 15 0 10 0 0 /bongo/decay /bongo/decay_ decay
135 10 0 10 -262144 -1 -1 0 1;
#X obj 650 322 hsl 128 15 0 10 0 0 /bongo/factor /bongo/factor_ factor
135 10 0 10 -262144 -1 -1 0 1;
#X obj 650 341 hsl 128 15 0 10 0 0 /bongo/selectivity /bongo/selectivity_
selectivity 135 10 0 10 -262144 -1 -1 0 1;
#X obj 253 245 notein;
#X obj 257 294 pack;
#X connect 1 0 8 0;
#X connect 3 0 8 0;
#X connect 4 0 8 0;
#X connect 5 0 8 0;
#X connect 6 0 8 0;
#X connect 7 0 8 0;
#X connect 8 0 2 0;
#X connect 8 0 2 1;
#X connect 16 0 17 0;
#X connect 16 1 17 1;
#X connect 17 0 8 0;
