#N canvas 0 25 1272 692 10;
#X obj 109 29 inlet;
#X obj 98 584 outlet~;
#X obj 58 178 mtof;
#X obj 90 415 *~;
#X obj 151 324 line~;
#X msg 141 224 \$1 5;
#X obj 101 94 mtl/noteSplit /id noteSplit;
#X obj 146 155 / 100;
#X obj 145 184 + 0.3;
#X obj 317 316 bp~ 440 80;
#X obj 318 343 *~ 10;
#X obj 451 260 * 2;
#X obj 256 246 noise~;
#X obj 313 219 bng 15 250 50 0 empty empty empty 0 -6 0 8 -262144 -1
-1;
#X obj 313 247 ead~ 1 50;
#X obj 294 283 *~;
#X obj 320 92 * 10;
#X obj 286 41 inlet decay;
#X obj 488 89 * 10;
#X obj 490 31 inlet selectivity;
#X obj 390 89 / 30;
#X obj 389 32 inlet factor;
#X obj 103 523 *~ 10;
#X connect 0 0 6 0;
#X connect 2 0 11 0;
#X connect 3 0 22 0;
#X connect 4 0 3 1;
#X connect 5 0 4 0;
#X connect 6 0 2 0;
#X connect 6 0 13 0;
#X connect 6 1 7 0;
#X connect 7 0 8 0;
#X connect 8 0 5 0;
#X connect 9 0 10 0;
#X connect 10 0 3 0;
#X connect 11 0 9 1;
#X connect 12 0 15 0;
#X connect 13 0 14 0;
#X connect 14 0 15 1;
#X connect 15 0 9 0;
#X connect 16 0 14 2;
#X connect 17 0 16 0;
#X connect 18 0 9 2;
#X connect 19 0 18 0;
#X connect 20 0 11 1;
#X connect 21 0 20 0;
#X connect 22 0 1 0;
