#N canvas 1 82 1272 661 10;
#X obj 69 146 inlet;
#X obj 197 604 outlet~;
#X obj 69 219 mtof;
#X obj 198 548 *~;
#X obj 215 459 line~;
#X msg 215 430 \$1 5;
#X obj 215 377 / 100;
#X obj 215 406 + 0.3;
#X obj 305 451 bp~ 440 80;
#X obj 306 478 *~ 10;
#X obj 382 412 * 2;
#X obj 266 381 noise~;
#X obj 323 354 bng 15 250 50 0 empty empty empty 0 -6 0 8 -262144 -1
-1;
#X obj 323 382 ead~ 1 50;
#X obj 304 418 *~;
#X obj 329 225 * 10;
#X obj 498 224 * 10;
#X obj 400 224 / 30;
#X obj 197 579 *~ 10;
#X obj 876 314 inlet params;
#X obj 876 360 print PARAM_NOTFOUND;
#X obj 876 336 tof/param route;
#X obj 879 385 b;
#X obj 879 414 tof/param gui;
#X obj 330 152 tof/param /decay 0 /g slider 0 10;
#X obj 401 176 tof/param /factor 0 /g slider 0 10;
#X obj 499 200 tof/param /selectivity 0 /g slider 0 10;
#X obj 69 189 mtl/noteSplit /id \$0-noteSplit;
#X obj 552 546 mtl/adsr~ /id \$0adsr 1 1 0.1 0;
#X msg 607 470 127;
#X msg 552 494 0;
#X obj 552 441 t b b;
#X obj 552 469 del 100;
#X obj 498 119 tof/argument 5;
#X obj 401 93 tof/argument 4;
#X obj 343 58 tof/argument 3;
#X obj 343 33 loadbang;
#X connect 0 0 27 0;
#X connect 2 0 10 0;
#X connect 3 0 18 0;
#X connect 4 0 3 1;
#X connect 5 0 4 0;
#X connect 6 0 7 0;
#X connect 7 0 5 0;
#X connect 8 0 9 0;
#X connect 9 0 3 0;
#X connect 10 0 8 1;
#X connect 11 0 14 0;
#X connect 12 0 13 0;
#X connect 13 0 14 1;
#X connect 14 0 8 0;
#X connect 15 0 13 2;
#X connect 16 0 8 2;
#X connect 17 0 10 1;
#X connect 18 0 1 0;
#X connect 19 0 21 0;
#X connect 21 0 20 0;
#X connect 22 0 23 0;
#X connect 24 0 15 0;
#X connect 25 0 17 0;
#X connect 26 0 16 0;
#X connect 27 0 2 0;
#X connect 27 0 12 0;
#X connect 27 0 31 0;
#X connect 27 1 6 0;
#X connect 28 0 14 1;
#X connect 29 0 28 0;
#X connect 30 0 28 0;
#X connect 31 0 32 0;
#X connect 31 1 29 0;
#X connect 32 0 30 0;
#X connect 33 0 26 0;
#X connect 34 0 25 0;
#X connect 35 0 24 0;
#X connect 36 0 33 0;
#X connect 36 0 34 0;
#X connect 36 0 35 0;
