#N canvas 0 82 1366 662 10;
#X text 41 25 Description: Drone with rand~ control and delay.;
#X text 40 44 Author: Chun Lee (sonicvariable.goto10.org);
#X obj 41 173 mtl/out~;
#X text 41 63 tags: synthesize~;
#X obj 463 152 cnv 15 200 20 empty empty /bounce/ 2 12 0 8 -258401
-262144 0;
#X obj 463 175 hsl 100 15 1 40 0 0 /bounce/random /bounce/random_ random
105 7 0 8 -262144 -1 -1 4823 1;
#X obj 463 193 hsl 100 15 10 2000 0 0 /bounce/delay /bounce/delay_
delay 105 7 0 8 -262144 -1 -1 4925 1;
#X obj 41 146 mtl/bounce~ /id bounce 20 1000;
#X connect 7 0 2 0;
#X connect 7 0 2 1;
