#N canvas 0 22 522 372 12;
#X obj 144 44 inlet;
#X obj 210 44 inlet;
#X obj 154 204 +;
#X obj 154 331 outlet;
#X text 52 10 Gets a random value between two extremes.;
#X obj 154 179 random;
#X obj 107 146 bng 15 250 50 0 empty empty empty 0 -6 0 8 -262144 -1
-1;
#X text 209 25 rng;
#X obj 210 141 t b f;
#X obj 28 104 r \$1-grain-on;
#X obj 213 252 bng 15 250 50 0 empty empty empty 0 -6 0 8 -262144 -1
-1;
#X obj 154 228 moses \$2;
#X obj 213 270 \$2;
#X obj 162 72 * 0.5;
#X text 145 26 ctr;
#X obj 157 139 -;
#X obj 162 95 t b f;
#X obj 81 258 moses \$3;
#X obj 81 299 \$3;
#X obj 81 281 bng 15 250 50 0 empty empty empty 0 -6 0 8 -262144 -1
-1;
#X connect 0 0 15 0;
#X connect 1 0 8 0;
#X connect 1 0 13 0;
#X connect 2 0 11 0;
#X connect 5 0 2 0;
#X connect 6 0 5 0;
#X connect 8 0 5 0;
#X connect 8 1 5 1;
#X connect 9 0 6 0;
#X connect 10 0 12 0;
#X connect 11 0 17 0;
#X connect 11 1 10 0;
#X connect 12 0 3 0;
#X connect 13 0 16 0;
#X connect 15 0 2 1;
#X connect 16 0 15 0;
#X connect 16 1 15 1;
#X connect 17 0 19 0;
#X connect 17 1 3 0;
#X connect 18 0 3 0;
#X connect 19 0 18 0;
