#N canvas 0 25 1016 656 10;
#X obj 97 96 inlet~;
#X obj 164 102 inlet~;
#X obj 115 369 outlet~;
#X obj 209 371 outlet~;
#X obj 124 237 tof/crossfade~ 2;
#X obj 602 166 inlet params;
#X obj 602 212 print PARAM_NOTFOUND;
#X obj 262 168 tof/param /wet 0 /g slider 0 1;
#X obj 262 211 line~;
#X msg 262 190 \$1 5;
#X obj 602 188 tof/param route;
#X obj 595 243 b;
#X obj 596 272 tof/param gui;
#N canvas 0 25 1016 684 buffery 0;
#X obj 169 106 inlet~;
#X obj 435 653 outlet~;
#X obj 270 642 tabwrite~ \$0-override;
#X obj 338 146 r \$0-bufsize;
#X obj 416 262 metro 2048;
#X obj 439 335 tabplay~ \$0-override;
#X obj 528 308 t b;
#X obj 443 140 r \$0-bufsize;
#X obj 430 186 *;
#X obj 444 162 t b f;
#X obj 439 617 *~;
#X obj 539 511 tabreceive~ \$0-hann;
#X obj 26 389 block~ 256 2 0.5;
#X obj 528 278 del;
#X msg 475 295 stop;
#X obj 259 177 metro 2048;
#X obj 354 186 del;
#X msg 307 206 stop;
#X obj 266 140 loadbang;
#N canvas 0 22 501 483 hanning-table 0;
#X obj 212 347 s \$0-hann;
#X obj 212 168 f;
#X obj 239 170 + 1;
#X obj 212 146 until;
#X msg 250 140 0;
#X obj 255 264 * 3.14159;
#X obj 256 284 * 2;
#X obj 212 327 pack 0 0;
#X obj 212 190 t f f;
#X obj 255 233 - 0.25;
#X obj 212 115 t f b f;
#X obj 255 211 /;
#X obj 257 303 expr 0.5+0.5*(sin($f1));
#X obj 213 69 loadbang;
#X msg 213 90 256;
#X obj 212 378 table \$0-hann 256;
#X connect 1 0 2 0;
#X connect 1 0 8 0;
#X connect 2 0 1 1;
#X connect 3 0 1 0;
#X connect 4 0 1 1;
#X connect 5 0 6 0;
#X connect 6 0 12 0;
#X connect 7 0 0 0;
#X connect 8 0 7 0;
#X connect 8 1 11 0;
#X connect 9 0 5 0;
#X connect 10 0 3 0;
#X connect 10 1 4 0;
#X connect 10 2 11 1;
#X connect 11 0 9 0;
#X connect 12 0 7 1;
#X connect 13 0 14 0;
#X connect 14 0 10 0;
#X restore 24 421 pd hanning-table;
#X obj 427 116 r \$0-minibuffer;
#X obj 430 207 max 1;
#X obj 592 54 s \$0-bpm;
#X obj 298 467 *~;
#X obj 318 351 spigot;
#X msg 350 318 1;
#X obj 299 295 t b b b b;
#X msg 321 319 0;
#X msg 319 375 1;
#X obj 312 402 t f;
#X obj 447 479 *~;
#X obj 460 435 - 1;
#X obj 461 456 * -1;
#X obj 24 443 table \$0-override 200000;
#X obj 200 140 r \$0-clik;
#X obj 649 97 s \$0-clik;
#X obj 649 73 t b;
#N canvas 141 35 883 646 get-x-y 0;
#X obj 494 541 s \$0-bufsize;
#X obj 472 463 * 2000;
#X obj 471 483 + 20;
#X obj 345 536 s \$0-minibuffer;
#X obj 476 335 expr pow($f1 \, 4);
#X obj 346 473 expr pow($f1 \, 2);
#X obj 505 61 r \$0-bpm;
#X obj 561 406 max 60;
#X obj 561 428 expr 240000/$f1;
#X obj 282 344 - 1;
#X obj 280 367 abs;
#X obj 278 389 * 10;
#X obj 278 409 int;
#X obj 280 435 expr 1/(pow(2 \, $f1));
#X obj 524 361 - 1;
#X obj 522 384 abs;
#X obj 520 406 * 10;
#X obj 520 426 int;
#X obj 522 452 expr 1/(pow(2 \, $f1));
#X obj 524 509 max 20;
#X obj 523 482 * 120;
#X obj 519 308 expr pow($f1 \, 0.5);
#X obj 531 179 r \$0-ysync;
#X obj 466 198 f;
#X obj 532 203 t b f f;
#X obj 319 234 f;
#X obj 573 223 - 1;
#X obj 573 242 * -1;
#X obj 367 202 t b f f;
#X obj 408 222 - 1;
#X obj 408 241 * -1;
#X obj 284 322 spigot 0;
#X obj 374 323 spigot 1;
#X obj 467 285 spigot 1;
#X obj 528 285 spigot 0;
#X obj 366 178 r \$0-xsync;
#X obj 320 65 inlet;
#X obj 462 64 inlet;
#X obj 506 83 t b b f;
#X obj 318 255 / 1.01;
#X obj 318 275 + 0.01;
#X obj 449 94 - 1;
#X obj 450 116 * -1;
#X connect 1 0 2 0;
#X connect 2 0 0 0;
#X connect 4 0 1 0;
#X connect 5 0 3 0;
#X connect 6 0 38 0;
#X connect 7 0 8 0;
#X connect 8 0 20 1;
#X connect 9 0 10 0;
#X connect 10 0 11 0;
#X connect 11 0 12 0;
#X connect 12 0 13 0;
#X connect 13 0 3 0;
#X connect 14 0 15 0;
#X connect 15 0 16 0;
#X connect 16 0 17 0;
#X connect 17 0 18 0;
#X connect 18 0 20 0;
#X connect 19 0 0 0;
#X connect 20 0 19 0;
#X connect 21 0 14 0;
#X connect 22 0 24 0;
#X connect 23 0 33 0;
#X connect 23 0 34 0;
#X connect 24 0 23 0;
#X connect 24 1 34 1;
#X connect 24 2 26 0;
#X connect 25 0 39 0;
#X connect 26 0 27 0;
#X connect 27 0 33 1;
#X connect 28 0 25 0;
#X connect 28 1 31 1;
#X connect 28 2 29 0;
#X connect 29 0 30 0;
#X connect 30 0 32 1;
#X connect 31 0 9 0;
#X connect 32 0 5 0;
#X connect 33 0 4 0;
#X connect 34 0 21 0;
#X connect 35 0 28 0;
#X connect 36 0 25 0;
#X connect 37 0 41 0;
#X connect 38 0 25 0;
#X connect 38 1 23 0;
#X connect 38 2 7 0;
#X connect 39 0 40 0;
#X connect 40 0 31 0;
#X connect 40 0 32 0;
#X connect 41 0 42 0;
#X connect 42 0 23 0;
#X restore 143 642 pd get-x-y;
#X obj 724 297 s \$0-ysync-r;
#X obj 723 269 != 0;
#X obj 691 289 != 0;
#X obj 690 317 s \$0-xsync-r;
#X obj 759 262 s \$0-xval;
#X obj 759 237 clip 0 1;
#X obj 822 237 clip 0 1;
#X msg 374 376 0;
#X obj 369 296 del 125;
#X obj 427 295 t b b;
#X obj 445 564 *~ 1;
#X obj 552 445 - 1;
#X obj 552 469 abs;
#X obj 553 423 r \$0-gate;
#X obj 884 232 != 0;
#X obj 885 259 s \$0-gate-r;
#X obj 822 263 s \$0-yval;
#X obj 112 579 r \$0-xval;
#X obj 193 569 r \$0-yval;
#X msg 639 147 0.5;
#X obj 775 656 outlet~;
#X obj 518 192 inlet~;
#X obj 808 482 tabplay~ \$0-stereo;
#X obj 23 463 table \$0-stereo 200000;
#X obj 840 437 t b;
#X obj 523 648 tabwrite~ \$0-stereo;
#X obj 734 519 *~;
#X obj 809 508 *~;
#X obj 791 567 *~ 1;
#X obj 774 605 *~;
#X obj 712 80 tof/param /xsync-r 0 /g tgl;
#X obj 733 109 tof/param /ysync-r 0 /g tgl;
#X obj 750 136 tof/param /xval 0 /g slider 0 1;
#X obj 770 161 tof/param /yval 0 /g slider 0 1;
#X obj 806 186 tof/param /gate 0 /g tgl;
#X obj 592 26 tof/param /bpm 120 /g slider 0 255;
#X obj 650 50 tof/param /click /g bng;
#X connect 0 0 23 0;
#X connect 3 0 15 1;
#X connect 3 0 16 0;
#X connect 4 0 47 0;
#X connect 5 0 30 0;
#X connect 5 1 6 0;
#X connect 6 0 5 0;
#X connect 7 0 9 0;
#X connect 8 0 21 0;
#X connect 9 0 8 0;
#X connect 9 1 8 1;
#X connect 10 0 1 0;
#X connect 11 0 10 1;
#X connect 11 0 67 0;
#X connect 13 0 4 0;
#X connect 14 0 13 0;
#X connect 15 0 17 0;
#X connect 15 0 2 0;
#X connect 15 0 26 0;
#X connect 15 0 46 0;
#X connect 15 0 4 0;
#X connect 15 0 63 0;
#X connect 16 0 15 0;
#X connect 17 0 16 0;
#X connect 18 0 15 0;
#X connect 20 0 8 0;
#X connect 21 0 4 1;
#X connect 21 0 13 0;
#X connect 21 0 46 1;
#X connect 23 0 2 0;
#X connect 23 0 10 0;
#X connect 24 0 28 0;
#X connect 25 0 24 1;
#X connect 26 1 27 0;
#X connect 26 2 24 0;
#X connect 26 3 25 0;
#X connect 27 0 24 1;
#X connect 28 0 29 0;
#X connect 29 0 23 1;
#X connect 29 0 31 0;
#X connect 29 0 64 1;
#X connect 30 0 48 0;
#X connect 31 0 32 0;
#X connect 32 0 30 1;
#X connect 32 0 65 1;
#X connect 34 0 15 0;
#X connect 36 0 35 0;
#X connect 39 0 38 0;
#X connect 40 0 41 0;
#X connect 43 0 42 0;
#X connect 44 0 54 0;
#X connect 45 0 29 0;
#X connect 46 0 45 0;
#X connect 47 0 5 0;
#X connect 47 0 60 0;
#X connect 47 1 14 0;
#X connect 48 0 10 0;
#X connect 49 0 50 0;
#X connect 50 0 48 1;
#X connect 50 0 66 1;
#X connect 51 0 49 0;
#X connect 52 0 53 0;
#X connect 55 0 37 0;
#X connect 56 0 37 1;
#X connect 57 0 43 0;
#X connect 57 0 44 0;
#X connect 59 0 64 0;
#X connect 60 0 65 0;
#X connect 60 1 62 0;
#X connect 62 0 60 0;
#X connect 64 0 63 0;
#X connect 64 0 67 1;
#X connect 65 0 66 0;
#X connect 66 0 67 1;
#X connect 67 0 58 0;
#X connect 68 0 40 0;
#X connect 69 0 39 0;
#X connect 70 0 43 0;
#X connect 71 0 44 0;
#X connect 72 0 52 0;
#X connect 73 0 22 0;
#X connect 74 0 36 0;
#X restore 161 187 pd buffery;
#X connect 0 0 4 0;
#X connect 0 0 13 0;
#X connect 1 0 4 1;
#X connect 1 0 13 1;
#X connect 4 0 2 0;
#X connect 4 1 3 0;
#X connect 5 0 10 0;
#X connect 7 0 9 0;
#X connect 8 0 4 4;
#X connect 9 0 8 0;
#X connect 10 0 6 0;
#X connect 11 0 12 0;
#X connect 13 0 4 2;
#X connect 13 1 4 3;
