#N canvas 1 82 1351 661 10;
#X obj 120 437 outlet~;
#X obj 114 224 inlet~;
#X obj 174 224 inlet~;
#X obj 180 437 outlet~;
#X obj 543 241 inlet params;
#X obj 247 411 tof/param /wet 0 /g slider 0 1;
#X obj 543 287 print PARAM_NOTFOUND;
#X obj 120 412 tof/crossfade~ 2;
#X msg 284 441 \$1 5;
#X obj 284 465 line~;
#X obj 543 263 tof/param route;
#X obj 539 386 b;
#X obj 540 415 tof/param gui;
#N canvas 487 68 730 557 bufferfx 0;
#X obj 173 588 outlet~;
#X obj 14 237 inlet~;
#X obj 191 438 phasor~;
#X obj 189 514 *~;
#X obj 286 418 /;
#X obj 282 344 t b f;
#X obj 88 329 metro 500;
#X obj 26 73 loadbang;
#X msg 176 365 1;
#X obj 86 355 t b b;
#X msg 68 376 start;
#X msg 117 375 stop;
#X obj 243 281 + 3;
#X obj 145 273 line;
#X msg 144 242 \$1 20;
#X obj 254 240 line;
#X msg 254 214 \$1 20;
#X obj 116 126 hsl 128 8 30 1000 0 1 empty empty update -2 5 0 10 -262144
-1 -1 0 1;
#X obj 280 148 hsl 128 8 3 70 0 1 empty empty length -2 5 0 10 -262144
-1 -1 0 1;
#X obj 158 47 inlet;
#X obj 158 72 * 7.8;
#X obj 249 50 inlet length;
#X obj 25 408 tabwrite~ \$0bufferfx1-g;
#X obj 1 463 table \$0bufferfx1-g 44100;
#X obj 188 543 tabread4~ \$0bufferfx1-g;
#X obj 343 332 samplerate~;
#X obj 342 308 loadbang;
#X obj 274 382 f;
#X connect 1 0 22 0;
#X connect 2 0 3 0;
#X connect 3 0 24 0;
#X connect 4 0 3 1;
#X connect 5 0 27 0;
#X connect 5 1 4 1;
#X connect 6 0 8 0;
#X connect 6 0 9 0;
#X connect 7 0 6 0;
#X connect 8 0 2 1;
#X connect 9 0 10 0;
#X connect 9 1 11 0;
#X connect 10 0 22 0;
#X connect 11 0 22 0;
#X connect 12 0 5 0;
#X connect 12 0 2 0;
#X connect 13 0 6 1;
#X connect 14 0 13 0;
#X connect 15 0 12 0;
#X connect 16 0 15 0;
#X connect 17 0 14 0;
#X connect 18 0 16 0;
#X connect 19 0 20 0;
#X connect 20 0 17 0;
#X connect 21 0 18 0;
#X connect 24 0 0 0;
#X connect 25 0 27 1;
#X connect 26 0 25 0;
#X connect 27 0 4 0;
#X restore 162 365 pd bufferfx;
#X obj 241 228 tof/param /length 3 /g slider 3 70;
#X obj 246 264 tof/param /update 30 /g slider 30 1000;
#N canvas 487 68 730 557 bufferfx 0;
#X obj 173 588 outlet~;
#X obj 14 237 inlet~;
#X obj 191 438 phasor~;
#X obj 189 514 *~;
#X obj 286 418 /;
#X obj 282 344 t b f;
#X obj 88 329 metro 500;
#X obj 26 73 loadbang;
#X msg 176 365 1;
#X obj 86 355 t b b;
#X msg 68 376 start;
#X msg 117 375 stop;
#X obj 243 281 + 3;
#X obj 145 273 line;
#X msg 144 242 \$1 20;
#X obj 254 240 line;
#X msg 254 214 \$1 20;
#X obj 116 126 hsl 128 8 30 1000 0 1 empty empty update -2 5 0 10 -262144
-1 -1 0 1;
#X obj 280 148 hsl 128 8 3 70 0 1 empty empty length -2 5 0 10 -262144
-1 -1 0 1;
#X obj 158 47 inlet;
#X obj 158 72 * 7.8;
#X obj 249 50 inlet length;
#X obj 25 408 tabwrite~ \$0bufferfx1-d;
#X obj 1 463 table \$0bufferfx1-d 44100;
#X obj 191 543 tabread4~ \$0bufferfx1-d;
#X obj 347 333 loadbang;
#X obj 348 357 samplerate~;
#X obj 280 391 f;
#X connect 1 0 22 0;
#X connect 2 0 3 0;
#X connect 3 0 24 0;
#X connect 4 0 3 1;
#X connect 5 0 27 0;
#X connect 5 1 4 1;
#X connect 6 0 8 0;
#X connect 6 0 9 0;
#X connect 7 0 6 0;
#X connect 8 0 2 1;
#X connect 9 0 10 0;
#X connect 9 1 11 0;
#X connect 10 0 22 0;
#X connect 11 0 22 0;
#X connect 12 0 5 0;
#X connect 12 0 2 0;
#X connect 13 0 6 1;
#X connect 14 0 13 0;
#X connect 15 0 12 0;
#X connect 16 0 15 0;
#X connect 17 0 14 0;
#X connect 18 0 16 0;
#X connect 19 0 20 0;
#X connect 20 0 17 0;
#X connect 21 0 18 0;
#X connect 24 0 0 0;
#X connect 25 0 26 0;
#X connect 26 0 27 1;
#X connect 27 0 4 0;
#X restore 269 363 pd bufferfx;
#X obj 310 193 tof/argument 5;
#X obj 285 164 tof/argument 4;
#X obj 251 132 tof/argument 3;
#X obj 251 109 loadbang;
#X connect 1 0 7 0;
#X connect 1 0 13 0;
#X connect 2 0 7 1;
#X connect 2 0 16 0;
#X connect 4 0 10 0;
#X connect 5 0 8 0;
#X connect 7 0 0 0;
#X connect 7 1 3 0;
#X connect 8 0 9 0;
#X connect 9 0 7 4;
#X connect 10 0 6 0;
#X connect 11 0 12 0;
#X connect 13 0 7 2;
#X connect 14 0 13 2;
#X connect 14 0 16 2;
#X connect 15 0 13 1;
#X connect 15 0 16 1;
#X connect 16 0 7 3;
#X connect 17 0 15 0;
#X connect 18 0 14 0;
#X connect 19 0 5 0;
#X connect 20 0 17 0;
#X connect 20 0 18 0;
#X connect 20 0 19 0;
