#N canvas 0 25 1272 659 10;
#X obj 138 32 inlet frequency;
#X obj 133 627 outlet~;
#X obj 846 159 inlet params;
#X obj 846 205 print PARAM_NOTFOUND;
#X obj 846 181 tof/param route;
#X obj 842 304 b;
#X obj 843 333 tof/param gui;
#X obj 163 97 unpack f f;
#X obj 200 594 *~;
#X obj 993 216 print;
#X obj 153 259 *~ 0;
#X obj 251 126 moses 1;
#X obj 290 151 int;
#X msg 251 152 1;
#X obj 251 179 * 2;
#X obj 251 217 + 1;
#X obj 160 174 *~ 0.5;
#X obj 151 383 /~;
#X obj 151 421 -~ 1;
#X obj 329 236 /;
#X obj 329 206 swap 1;
#X obj 151 454 *~ 0;
#X obj 182 509 *~;
#N canvas 28 543 420 275 \$0-fix-discontinuity 0;
#X obj 66 119 clip~ -0.0002 0.0002;
#X obj 50 172 /~;
#X obj 50 146 -~;
#X obj 51 86 inlet~;
#X obj 50 200 outlet~;
#X text 49 44 if denominator falls between -0.0002 and 0.0002 \, output
0 \, otherwise 1;
#X connect 0 0 2 1;
#X connect 1 0 4 0;
#X connect 2 0 1 0;
#X connect 2 0 1 1;
#X connect 3 0 0 0;
#X connect 3 0 2 0;
#X restore 198 454 pd \$0-fix-discontinuity;
#X obj 227 486 *~ -1;
#X obj 228 510 +~ 1;
#X text 269 511 <- reverse toggle (fills in discontinuity);
#X text 305 43 number of harmonics;
#X text 787 445 buzz via dirichlet kernel:;
#X text 781 468 cos(x)+cos(2x)+...+cos(nx) =;
#X text 894 409 -;
#X text 916 410 1/2n;
#X text 370 236 <- reciprocal of 2*n;
#X obj 152 210 phasor~;
#X text 803 404 sin((2n+1)x/2);
#X text 800 406 _______________;
#X text 812 419 2n*sin(x/2);
#X obj 152 305 cos~;
#X obj 217 306 cos~;
#X obj 100 282 sig~ 0.25;
#X obj 272 537 mtl/adsr~ /id \$0-adsr;
#X obj 163 150 sig~;
#X obj 256 57 tof/param /harmonics 12 /g slider 1 100;
#X connect 0 0 7 0;
#X connect 2 0 4 0;
#X connect 2 0 9 0;
#X connect 4 0 3 0;
#X connect 5 0 6 0;
#X connect 7 0 41 0;
#X connect 7 1 40 0;
#X connect 8 0 1 0;
#X connect 10 0 37 0;
#X connect 11 0 13 0;
#X connect 11 1 12 0;
#X connect 12 0 14 0;
#X connect 13 0 14 0;
#X connect 14 0 15 0;
#X connect 14 0 20 0;
#X connect 15 0 10 1;
#X connect 16 0 33 0;
#X connect 17 0 18 0;
#X connect 18 0 21 0;
#X connect 19 0 21 1;
#X connect 20 0 19 0;
#X connect 20 1 19 1;
#X connect 21 0 22 0;
#X connect 22 0 8 0;
#X connect 23 0 22 1;
#X connect 23 0 24 0;
#X connect 24 0 25 0;
#X connect 25 0 8 0;
#X connect 33 0 10 0;
#X connect 33 0 38 0;
#X connect 37 0 17 0;
#X connect 38 0 17 1;
#X connect 38 0 23 0;
#X connect 39 0 37 0;
#X connect 39 0 38 0;
#X connect 40 0 8 1;
#X connect 41 0 16 0;
#X connect 42 0 11 0;
