#N canvas 1 82 1272 659 10;
#X obj 138 32 inlet frequency;
#X obj 133 627 outlet~;
#X obj 846 159 inlet params;
#X obj 846 205 print PARAM_NOTFOUND;
#X obj 846 181 tof/param route;
#X obj 842 304 b;
#X obj 843 333 tof/param gui;
#X obj 162 58 unpack f f;
#X obj 200 594 *~;
#X obj 993 216 print;
#X text 269 511 <- reverse toggle (fills in discontinuity);
#X obj 272 537 mtl/adsr~ /id \$0-adsr;
#X obj 163 150 sig~;
#X obj 89 276 osc~;
#X obj 136 276 osc~;
#X obj 200 281 osc~;
#X obj 234 280 osc~;
#X obj 269 279 osc~;
#X obj 90 250 *~ 1;
#X obj 127 250 *~ 2.647;
#X obj 292 250 *~ 15.07;
#X obj 238 252 *~ 7.701;
#X obj 186 253 *~ 4.939;
#X obj 234 351 *~ 0.2;
#X obj 162 99 mtof;
#X connect 0 0 7 0;
#X connect 2 0 4 0;
#X connect 2 0 9 0;
#X connect 4 0 3 0;
#X connect 5 0 6 0;
#X connect 7 0 24 0;
#X connect 7 1 11 0;
#X connect 8 0 1 0;
#X connect 11 0 8 1;
#X connect 12 0 20 0;
#X connect 12 0 18 0;
#X connect 12 0 19 0;
#X connect 12 0 22 0;
#X connect 12 0 21 0;
#X connect 13 0 23 0;
#X connect 14 0 23 0;
#X connect 15 0 23 0;
#X connect 16 0 23 0;
#X connect 17 0 23 0;
#X connect 18 0 13 0;
#X connect 19 0 14 0;
#X connect 20 0 17 0;
#X connect 21 0 16 0;
#X connect 22 0 15 0;
#X connect 23 0 8 0;
#X connect 24 0 12 0;
