#N canvas 296 345 682 266 10;
#X obj 21 14 inlet~;
#X obj 71 14 inlet~;
#X obj 22 105 outlet~;
#X obj 71 105 outlet~;
#X obj 21 63 tof/crossfade~ 2;
#X obj 499 -8 inlet params;
#X obj 499 38 print PARAM_NOTFOUND;
#X obj 159 -6 tof/param /wet 0 /g slider 0 1;
#X obj 159 37 line~;
#X msg 159 16 \$1 5;
#X obj 499 14 tof/param route;
#X obj 492 69 b;
#X obj 493 98 tof/param gui;
#N canvas 0 25 1272 692 chorus 1;
#X obj 181 62 inlet~;
#X obj 468 293 clip -1 1;
#X obj 470 331 * 0.4;
#X obj 507 364 osc~;
#X obj 508 397 *~;
#X obj 507 434 +~;
#X obj 506 475 vd~ \$0-a1;
#X obj 466 540 *~;
#X obj 464 578 s~ \$0-fb;
#X obj 542 509 *~ 1;
#X obj 654 294 * 2;
#X obj 582 367 osc~;
#X obj 581 400 *~;
#X obj 581 437 +~;
#X obj 581 478 vd~ \$0-a2;
#X obj 582 283 * 5;
#X obj 582 321 + 1;
#X obj 167 250 *~ 0.3;
#X obj 162 365 +~;
#X obj 163 420 delwrite~ \$0-a1 100;
#X obj 147 456 delwrite~ \$0-a2 100;
#X obj 111 219 r~ \$0-fb;
#X obj 319 62 inlet~;
#X obj 305 250 *~ 0.3;
#X obj 300 365 +~;
#X obj 301 420 delwrite~ \$0-b1 100;
#X obj 285 456 delwrite~ \$0-b2 100;
#X obj 241 211 r~ \$0-fb2;
#X obj 634 548 *~;
#X obj 710 517 *~ 1;
#X obj 674 483 vd~ \$0-b1;
#X obj 749 486 vd~ \$0-b2;
#X obj 719 599 outlet~;
#X obj 551 591 outlet~;
#X obj 632 586 s~ \$0-fb2;
#X obj 497 175 tof/param /feedback 0 /g slider 0 1;
#X obj 573 202 tof/param /rate 50 /g slider 0 50;
#X obj 625 240 tof/param /depth 0 /g slider 0 1;
#X connect 0 0 17 0;
#X connect 1 0 2 0;
#X connect 2 0 7 0;
#X connect 2 0 28 0;
#X connect 3 0 4 0;
#X connect 4 0 5 0;
#X connect 5 0 6 0;
#X connect 5 0 30 0;
#X connect 6 0 9 0;
#X connect 7 0 8 0;
#X connect 9 0 7 1;
#X connect 9 0 33 0;
#X connect 10 0 12 1;
#X connect 10 0 13 1;
#X connect 10 0 4 1;
#X connect 10 0 5 1;
#X connect 11 0 12 0;
#X connect 12 0 13 0;
#X connect 13 0 14 0;
#X connect 13 0 31 0;
#X connect 14 0 9 0;
#X connect 15 0 16 0;
#X connect 15 0 3 0;
#X connect 16 0 11 0;
#X connect 17 0 18 1;
#X connect 18 0 19 0;
#X connect 18 0 20 0;
#X connect 21 0 18 0;
#X connect 22 0 23 0;
#X connect 23 0 24 1;
#X connect 24 0 25 0;
#X connect 24 0 26 0;
#X connect 27 0 24 0;
#X connect 28 0 34 0;
#X connect 29 0 28 1;
#X connect 29 0 32 0;
#X connect 30 0 29 0;
#X connect 31 0 29 0;
#X connect 35 0 1 0;
#X connect 36 0 15 0;
#X connect 37 0 10 0;
#X restore 69 39 pd chorus;
#X connect 0 0 4 0;
#X connect 0 0 13 0;
#X connect 1 0 4 1;
#X connect 1 0 13 1;
#X connect 4 0 2 0;
#X connect 4 1 3 0;
#X connect 5 0 10 0;
#X connect 7 0 9 0;
#X connect 8 0 4 4;
#X connect 9 0 8 0;
#X connect 10 0 6 0;
#X connect 11 0 12 0;
#X connect 13 0 4 2;
#X connect 13 1 4 3;
