#N canvas 1 82 1272 661 10;
#X obj -226 190 mtl/out~;
#X text -230 59 tags: fx~;
#X text 82 159 <-Click on the propeties menu to display params;
#X obj 145 22 cnv 15 200 20 empty empty /chorus2/ 2 12 0 8 -258401
-262144 0;
#X obj 145 45 hsl 100 15 0 1 0 0 /chorus2/wet /chorus2/wet_ wet 105
7 0 8 -262144 -1 -1 4950 1;
#X obj -228 89 tgl 15 0 empty empty empty 17 7 0 10 -262144 -1 -1 0
1;
#N canvas 3 190 450 300 generate~ 1;
#X obj 32 213 osc~ 200;
#X obj 32 89 metro 400;
#X obj 32 175 mtof;
#X obj 104 195 mtof;
#X obj 32 132 + 20;
#X obj 32 111 random 70;
#X floatatom 83 69 5 0 0 0 - - -, f 5;
#X obj 32 261 outlet~;
#X obj 103 261 outlet~;
#X obj 30 14 inlet;
#X obj 104 175 mtl/closestNote 0 2 4 7 9;
#X obj 104 214 osc~ 100;
#X obj 32 155 mtl/closestNote 0 2 4 7 9;
#X connect 0 0 7 0;
#X connect 1 0 5 0;
#X connect 2 0 0 0;
#X connect 3 0 11 0;
#X connect 4 0 10 0;
#X connect 4 0 12 0;
#X connect 5 0 4 0;
#X connect 6 0 1 1;
#X connect 9 0 1 0;
#X connect 10 0 3 0;
#X connect 11 0 8 0;
#X connect 12 0 2 0;
#X restore -228 114 pd generate~;
#X obj 145 63 hsl 100 15 0 10 0 0 /chorus2/frequency /chorus2/frequency_
frequency 105 7 0 8 -262144 -1 -1 4950 1;
#X obj 145 81 hsl 100 15 0 10 0 0 /chorus2/modulation /chorus2/modulation_
modulation 105 7 0 8 -262144 -1 -1 4950 1;
#X text -232 24 Description: Chorus;
#X obj -230 158 mtl/chorus2~ /id chorus2 0.5 5 5;
#X connect 5 0 6 0;
#X connect 6 0 10 0;
#X connect 6 1 10 1;
#X connect 10 0 0 0;
#X connect 10 1 0 1;
