#N canvas 488 391 726 371 10;
#X obj 54 279 outlet~;
#X obj 48 57 inlet~;
#X obj 108 66 inlet~;
#X obj 114 279 outlet~;
#X obj 477 83 inlet params;
#X obj 181 253 tof/param /wet 0 /g slider 0 1;
#X obj 477 129 print PARAM_NOTFOUND;
#X obj 54 254 tof/crossfade~ 2;
#X msg 218 283 \$1 5;
#X obj 218 307 line~;
#X obj 477 105 tof/param route;
#X obj 473 228 b;
#X obj 474 257 tof/param gui;
#N canvas 550 186 730 557 chorus 0;
#X obj 38 25 inlet~;
#X obj 256 29 inlet frequency;
#X obj 256 56 pack 0 50;
#X obj 255 85 line~;
#X obj 132 138 phasor~;
#X obj 201 170 +~ 0.25;
#X obj 268 163 +~ 0.25;
#X obj 336 163 +~ 0.25;
#X obj 427 36 inlet modulation;
#X obj 442 162 pack 0 50;
#X obj 125 208 cos~;
#X obj 199 206 cos~;
#X obj 269 206 cos~;
#X obj 339 203 cos~;
#X obj 452 206 line~;
#X obj 127 249 +~ 1;
#X obj 201 247 +~ 1;
#X obj 269 246 +~ 1;
#X obj 339 246 +~ 1;
#X obj 125 299 *~;
#X obj 204 296 *~;
#X obj 270 294 *~;
#X obj 337 296 *~;
#X obj 161 395 +~;
#X obj 310 393 +~;
#X obj 229 439 +~;
#X obj 219 488 outlet~;
#X obj 36 54 delwrite~ \$0-chorus 1000;
#X obj 97 340 vd~ \$0-chorus;
#X obj 187 325 vd~ \$0-chorus;
#X obj 265 352 vd~ \$0-chorus;
#X obj 341 328 vd~ \$0-chorus;
#X connect 0 0 27 0;
#X connect 1 0 2 0;
#X connect 2 0 3 0;
#X connect 3 0 4 0;
#X connect 4 0 10 0;
#X connect 4 0 5 0;
#X connect 5 0 6 0;
#X connect 5 0 11 0;
#X connect 6 0 7 0;
#X connect 6 0 12 0;
#X connect 7 0 13 0;
#X connect 8 0 9 0;
#X connect 9 0 14 0;
#X connect 10 0 15 0;
#X connect 11 0 16 0;
#X connect 12 0 17 0;
#X connect 13 0 18 0;
#X connect 14 0 22 1;
#X connect 14 0 21 1;
#X connect 14 0 20 1;
#X connect 14 0 19 1;
#X connect 15 0 19 0;
#X connect 16 0 20 0;
#X connect 17 0 21 0;
#X connect 18 0 22 0;
#X connect 19 0 28 0;
#X connect 20 0 29 0;
#X connect 21 0 30 0;
#X connect 22 0 31 0;
#X connect 23 0 25 0;
#X connect 24 0 25 1;
#X connect 25 0 26 0;
#X connect 28 0 23 0;
#X connect 29 0 23 1;
#X connect 30 0 24 0;
#X connect 31 0 24 1;
#X restore 102 209 pd chorus;
#N canvas 550 186 730 557 chorus 0;
#X obj 38 25 inlet~;
#X obj 256 29 inlet frequency;
#X obj 256 56 pack 0 50;
#X obj 255 85 line~;
#X obj 132 138 phasor~;
#X obj 201 170 +~ 0.25;
#X obj 268 163 +~ 0.25;
#X obj 336 163 +~ 0.25;
#X obj 427 36 inlet modulation;
#X obj 442 162 pack 0 50;
#X obj 125 208 cos~;
#X obj 199 206 cos~;
#X obj 269 206 cos~;
#X obj 339 203 cos~;
#X obj 452 206 line~;
#X obj 127 249 +~ 1;
#X obj 201 247 +~ 1;
#X obj 269 246 +~ 1;
#X obj 339 246 +~ 1;
#X obj 125 299 *~;
#X obj 204 296 *~;
#X obj 270 294 *~;
#X obj 337 296 *~;
#X obj 161 395 +~;
#X obj 310 393 +~;
#X obj 229 439 +~;
#X obj 219 488 outlet~;
#X obj 36 54 delwrite~ \$0-chorus 1000;
#X obj 97 340 vd~ \$0-chorus;
#X obj 187 325 vd~ \$0-chorus;
#X obj 265 352 vd~ \$0-chorus;
#X obj 341 328 vd~ \$0-chorus;
#X connect 0 0 27 0;
#X connect 1 0 2 0;
#X connect 2 0 3 0;
#X connect 3 0 4 0;
#X connect 4 0 10 0;
#X connect 4 0 5 0;
#X connect 5 0 6 0;
#X connect 5 0 11 0;
#X connect 6 0 7 0;
#X connect 6 0 12 0;
#X connect 7 0 13 0;
#X connect 8 0 9 0;
#X connect 9 0 14 0;
#X connect 10 0 15 0;
#X connect 11 0 16 0;
#X connect 12 0 17 0;
#X connect 13 0 18 0;
#X connect 14 0 22 1;
#X connect 14 0 21 1;
#X connect 14 0 20 1;
#X connect 14 0 19 1;
#X connect 15 0 19 0;
#X connect 16 0 20 0;
#X connect 17 0 21 0;
#X connect 18 0 22 0;
#X connect 19 0 28 0;
#X connect 20 0 29 0;
#X connect 21 0 30 0;
#X connect 22 0 31 0;
#X connect 23 0 25 0;
#X connect 24 0 25 1;
#X connect 25 0 26 0;
#X connect 28 0 23 0;
#X connect 29 0 23 1;
#X connect 30 0 24 0;
#X connect 31 0 24 1;
#X restore 177 202 pd chorus;
#X obj 173 71 tof/param /frequency 0 /g slider 0 10;
#X obj 191 100 tof/param /modulation 0 /g slider 0 10;
#X connect 1 0 7 0;
#X connect 1 0 13 0;
#X connect 2 0 7 1;
#X connect 2 0 14 0;
#X connect 4 0 10 0;
#X connect 5 0 8 0;
#X connect 7 0 0 0;
#X connect 7 1 3 0;
#X connect 8 0 9 0;
#X connect 9 0 7 4;
#X connect 10 0 6 0;
#X connect 11 0 12 0;
#X connect 13 0 7 2;
#X connect 14 0 7 3;
#X connect 15 0 13 1;
#X connect 15 0 14 1;
#X connect 16 0 13 2;
#X connect 16 0 14 2;
