#N canvas 0 0 1272 714 10;
#X obj 55 403 outlet~;
#X obj 48 57 inlet~;
#X obj 108 66 inlet~;
#X obj 115 403 outlet~;
#X obj 1073 79 inlet params;
#X obj 182 377 tof/param /wet 0 /g slider 0 1;
#X obj 1073 125 print PARAM_NOTFOUND;
#X obj 55 378 tof/crossfade~ 2;
#X msg 219 407 \$1 5;
#X obj 219 431 line~;
#X obj 1073 101 tof/param route;
#X obj 1069 224 b;
#X obj 1070 253 tof/param gui;
#N canvas 0 0 1272 714 chorus 0;
#X obj 189 269 cos~;
#X obj 189 292 +~ 1;
#X obj 276 268 cos~;
#X obj 276 291 +~ 1;
#X obj 283 589 outlet~;
#X obj 375 267 cos~;
#X obj 375 290 +~ 1;
#X obj 470 265 cos~;
#X obj 470 288 +~ 1;
#X obj 24 42 inlet~;
#X obj 545 294 line~;
#X obj 545 273 pack 0 50;
#X obj 470 349 *~;
#X obj 375 351 *~;
#X obj 276 352 *~;
#X obj 189 353 *~;
#X obj 190 104 line~;
#X obj 190 83 pack 0 50;
#X obj 189 134 phasor~;
#X text 619 248 modulation;
#X obj 189 414 vd~ \$0-c;
#X obj 276 414 vd~ \$0-c;
#X obj 375 412 vd~ \$0-c;
#X obj 470 410 vd~ \$0-c;
#X obj 470 386 +~ 0;
#X obj 376 386 +~ 0;
#X obj 276 389 +~ 0;
#X obj 190 386 +~ 0;
#N canvas 314 253 450 300 sampledur 0;
#X obj 70 100 samplerate~;
#X obj 70 144 swap 1000;
#X obj 70 172 /;
#X obj 70 51 loadbang;
#X msg 82 77 bang;
#X obj 70 205 outlet;
#X connect 0 0 1 0;
#X connect 1 0 2 0;
#X connect 1 1 2 1;
#X connect 2 0 5 0;
#X connect 3 0 0 0;
#X connect 4 0 0 0;
#X restore 556 353 pd sampledur;
#X obj 24 101 delwrite~ \$0-c 2000;
#X obj 24 73 *~ 0.5;
#X obj 535 208 loadbang;
#X obj 535 230 0.2;
#X obj 276 224 wrap~;
#X obj 374 228 wrap~;
#X obj 469 228 wrap~;
#X obj 190 61 / 8;
#X text 187 17 frequency;
#X obj 276 203 *~ 2;
#X obj 374 207 *~ 4;
#X obj 469 207 *~ 8;
#X obj 189 37 inlet frequency;
#X obj 545 249 inlet modulation;
#X obj 234 453 +~;
#X obj 399 454 +~;
#X obj 308 524 +~;
#X connect 0 0 1 0;
#X connect 1 0 15 0;
#X connect 2 0 3 0;
#X connect 3 0 14 0;
#X connect 5 0 6 0;
#X connect 6 0 13 0;
#X connect 7 0 8 0;
#X connect 8 0 12 0;
#X connect 9 0 30 0;
#X connect 10 0 12 1;
#X connect 10 0 13 1;
#X connect 10 0 14 1;
#X connect 10 0 15 1;
#X connect 11 0 10 0;
#X connect 12 0 24 0;
#X connect 13 0 25 0;
#X connect 14 0 26 0;
#X connect 15 0 27 0;
#X connect 16 0 18 0;
#X connect 17 0 16 0;
#X connect 18 0 0 0;
#X connect 18 0 38 0;
#X connect 18 0 39 0;
#X connect 18 0 40 0;
#X connect 20 0 43 0;
#X connect 21 0 43 1;
#X connect 22 0 44 0;
#X connect 23 0 44 1;
#X connect 24 0 23 0;
#X connect 25 0 22 0;
#X connect 26 0 21 0;
#X connect 27 0 20 0;
#X connect 28 0 24 1;
#X connect 28 0 25 1;
#X connect 28 0 26 1;
#X connect 28 0 27 1;
#X connect 30 0 29 0;
#X connect 31 0 32 0;
#X connect 32 0 10 0;
#X connect 33 0 2 0;
#X connect 34 0 5 0;
#X connect 35 0 7 0;
#X connect 36 0 17 0;
#X connect 38 0 33 0;
#X connect 39 0 34 0;
#X connect 40 0 35 0;
#X connect 41 0 36 0;
#X connect 42 0 11 0;
#X connect 43 0 45 0;
#X connect 44 0 45 1;
#X connect 45 0 4 0;
#X restore 137 221 pd chorus;
#X obj 219 49 tof/param /frequency 0 /g slider 0 10;
#N canvas 0 0 1272 714 chorus 0;
#X obj 189 269 cos~;
#X obj 189 292 +~ 1;
#X obj 276 268 cos~;
#X obj 276 291 +~ 1;
#X obj 283 589 outlet~;
#X obj 375 267 cos~;
#X obj 375 290 +~ 1;
#X obj 470 265 cos~;
#X obj 470 288 +~ 1;
#X obj 24 42 inlet~;
#X obj 545 294 line~;
#X obj 545 273 pack 0 50;
#X obj 470 349 *~;
#X obj 375 351 *~;
#X obj 276 352 *~;
#X obj 189 353 *~;
#X obj 190 104 line~;
#X obj 190 83 pack 0 50;
#X obj 189 134 phasor~;
#X text 619 248 modulation;
#X obj 470 386 +~ 0;
#X obj 376 386 +~ 0;
#X obj 276 389 +~ 0;
#X obj 190 386 +~ 0;
#N canvas 314 253 450 300 sampledur 0;
#X obj 70 100 samplerate~;
#X obj 70 144 swap 1000;
#X obj 70 172 /;
#X obj 70 51 loadbang;
#X msg 82 77 bang;
#X obj 70 205 outlet;
#X connect 0 0 1 0;
#X connect 1 0 2 0;
#X connect 1 1 2 1;
#X connect 2 0 5 0;
#X connect 3 0 0 0;
#X connect 4 0 0 0;
#X restore 556 353 pd sampledur;
#X obj 24 73 *~ 0.5;
#X obj 535 208 loadbang;
#X obj 535 230 0.2;
#X obj 276 224 wrap~;
#X obj 374 228 wrap~;
#X obj 469 228 wrap~;
#X obj 190 61 / 8;
#X text 187 17 frequency;
#X obj 276 203 *~ 2;
#X obj 374 207 *~ 4;
#X obj 469 207 *~ 8;
#X obj 189 37 inlet frequency;
#X obj 545 249 inlet modulation;
#X obj 234 453 +~;
#X obj 399 454 +~;
#X obj 308 524 +~;
#X obj 24 101 delwrite~ \$0-d 2000;
#X obj 189 414 vd~ \$0-d;
#X obj 276 414 vd~ \$0-d;
#X obj 375 412 vd~ \$0-d;
#X obj 470 410 vd~ \$0-d;
#X connect 0 0 1 0;
#X connect 1 0 15 0;
#X connect 2 0 3 0;
#X connect 3 0 14 0;
#X connect 5 0 6 0;
#X connect 6 0 13 0;
#X connect 7 0 8 0;
#X connect 8 0 12 0;
#X connect 9 0 25 0;
#X connect 10 0 12 1;
#X connect 10 0 13 1;
#X connect 10 0 14 1;
#X connect 10 0 15 1;
#X connect 11 0 10 0;
#X connect 12 0 20 0;
#X connect 13 0 21 0;
#X connect 14 0 22 0;
#X connect 15 0 23 0;
#X connect 16 0 18 0;
#X connect 17 0 16 0;
#X connect 18 0 0 0;
#X connect 18 0 33 0;
#X connect 18 0 34 0;
#X connect 18 0 35 0;
#X connect 20 0 45 0;
#X connect 21 0 44 0;
#X connect 22 0 43 0;
#X connect 23 0 42 0;
#X connect 24 0 20 1;
#X connect 24 0 21 1;
#X connect 24 0 22 1;
#X connect 24 0 23 1;
#X connect 25 0 41 0;
#X connect 26 0 27 0;
#X connect 27 0 10 0;
#X connect 28 0 2 0;
#X connect 29 0 5 0;
#X connect 30 0 7 0;
#X connect 31 0 17 0;
#X connect 33 0 28 0;
#X connect 34 0 29 0;
#X connect 35 0 30 0;
#X connect 36 0 31 0;
#X connect 37 0 11 0;
#X connect 38 0 40 0;
#X connect 39 0 40 1;
#X connect 40 0 4 0;
#X connect 42 0 38 0;
#X connect 43 0 38 1;
#X connect 44 0 39 0;
#X connect 45 0 39 1;
#X restore 232 225 pd chorus;
#X obj 274 107 tof/param /modulation 0 /g slider 0 3;
#X connect 1 0 7 0;
#X connect 1 0 13 0;
#X connect 2 0 7 1;
#X connect 2 0 15 0;
#X connect 4 0 10 0;
#X connect 5 0 8 0;
#X connect 7 0 0 0;
#X connect 7 1 3 0;
#X connect 8 0 9 0;
#X connect 9 0 7 4;
#X connect 10 0 6 0;
#X connect 11 0 12 0;
#X connect 13 0 7 2;
#X connect 14 0 13 1;
#X connect 14 0 15 1;
#X connect 15 0 7 3;
#X connect 16 0 13 2;
#X connect 16 0 15 2;
