#N canvas 0 0 1272 714 10;
#X obj -126 266 mtl/out~;
#X text -144 132 tags: fx~;
#X text 9 229 <-Click on the propeties menu to display params;
#X obj 287 114 cnv 15 200 40 empty empty empty 20 12 0 14 -232576 -66577
0;
#X text 347 115 PARAM ENABLED;
#X obj 289 248 cnv 15 200 20 empty empty /circlepan/ 2 12 0 8 -258401
-262144 0;
#X obj 286 137 tof/open_help tof/param;
#X text -146 97 Description:;
#X text -68 96 CirclePan;
#X obj -3 148 osc~ 0.1;
#X obj -142 187 osc~ 250;
#N canvas 285 142 696 470 REFERENCE 0;
#X text 116 91 Inlet 0: Audio signal;
#X text 116 112 Inlet 1: Angle (signal 0 - 1) 360 degrees around;
#X text 116 133 Outlet 0: Left headphone outlet (audio signal);
#X text 116 154 Outlet 1: Left headphone outlet (audio signal);
#X text 116 49 Name: e_circlepan;
#X text 116 70 Summary: circular panner;
#X text 116 175 Description: e_circlepan pans around in circles. Designed
for headphones!;
#X coords 0 -1 1 1 450 200 1 100 20;
#X restore 402 322 pd REFERENCE;
#X obj -144 230 mtl/circlepan~ /id circle;
#X connect 9 0 12 1;
#X connect 10 0 12 0;
#X connect 12 0 0 0;
#X connect 12 1 0 1;
