#N canvas 1 82 1351 661 10;
#N canvas 0 82 1366 662 clap 0;
#X obj 180 12 noise~;
#X obj 217 414 *~;
#X obj 161 379 *~;
#X obj 160 168 *~ 0.8;
#X obj 164 413 *~ 0.2;
#X obj 7 123 *~ 0.1;
#X obj 76 93 bp~ 1300 10;
#X obj 236 93 bp~ 700 10;
#X obj 159 93 bp~ 2500 4;
#X obj 7 93 lop~ 8000;
#X obj 171 440 outlet~;
#X obj 246 12 inlet;
#X text 50 23 clap;
#X obj 179 52 hip~ 500;
#X obj 379 118 bp~ 5000 10;
#X obj 366 185 *~ 0.5;
#X msg 288 204 127;
#X msg 219 230 0;
#X obj 220 178 t b b;
#X msg 298 324 127;
#X msg 243 348 0;
#X obj 244 296 t b b;
#X obj 243 323 del 50;
#X obj 244 54 t b b;
#X obj 219 205 del 100;
#X obj 319 10 inlet;
#X msg 364 237 /release-time \$1;
#X obj 221 262 mtl/adsr~ /id \$0-adsr1 10 10 1 580;
#X obj 242 376 mtl/adsr~ /id \$0-adsr2 10 10 1 50;
#X connect 0 0 9 0;
#X connect 0 0 13 0;
#X connect 0 0 14 0;
#X connect 1 0 10 0;
#X connect 2 0 4 0;
#X connect 2 0 1 0;
#X connect 3 0 2 0;
#X connect 4 0 10 0;
#X connect 5 0 3 0;
#X connect 6 0 3 0;
#X connect 7 0 3 0;
#X connect 8 0 3 0;
#X connect 9 0 5 0;
#X connect 11 0 23 0;
#X connect 13 0 6 0;
#X connect 13 0 7 0;
#X connect 13 0 8 0;
#X connect 14 0 15 0;
#X connect 15 0 1 0;
#X connect 16 0 27 0;
#X connect 17 0 27 0;
#X connect 18 0 24 0;
#X connect 18 1 16 0;
#X connect 19 0 28 0;
#X connect 20 0 28 0;
#X connect 21 0 22 0;
#X connect 21 1 19 0;
#X connect 22 0 20 0;
#X connect 23 0 18 0;
#X connect 23 1 21 0;
#X connect 24 0 17 0;
#X connect 25 0 24 1;
#X connect 25 0 26 0;
#X connect 26 0 27 1;
#X connect 27 0 2 1;
#X connect 28 0 1 1;
#X restore 357 265 pd clap;
#X obj 356 336 outlet~;
#X obj 358 237 inlet;
#X obj 856 169 inlet params;
#X obj 856 215 print PARAM_NOTFOUND;
#X obj 856 191 tof/param route;
#X obj 852 314 b;
#X obj 853 343 tof/param gui;
#X obj 438 190 tof/param /decay 100 /g slider 1 5000;
#X obj 438 161 tof/argument 3;
#X obj 436 133 loadbang;
#X connect 0 0 1 0;
#X connect 2 0 0 0;
#X connect 3 0 5 0;
#X connect 5 0 4 0;
#X connect 6 0 7 0;
#X connect 8 0 0 1;
#X connect 9 0 8 0;
#X connect 10 0 9 0;
