#N canvas 0 82 1366 662 10;
#X text 18 10 Description: Generates a kind of clap sound.;
#X text 18 26 Comment: Based on Andy Farnell's work.;
#X obj 26 143 mtl/out~;
#X obj 26 111 mtl/clap~;
#X obj 26 87 bng 15 250 50 0 empty empty empty 17 7 0 10 -262144 -1
-1;
#X text 19 45 tags: synthesize~;
#X obj 249 140 hsl 100 15 1 100 0 0 /clap/decay /clap/decay_ decay
105 7 0 8 -262144 -1 -1 0 1;
#X obj 246 112 cnv 15 200 20 empty empty /clap/ 2 12 0 8 -258401 -262144
0;
#X text 69 73;
#X connect 3 0 2 0;
#X connect 3 0 2 1;
#X connect 4 0 3 0;
