#N canvas 0 82 1366 662 10;
#N canvas 691 147 533 593 clap 0;
#X obj 180 12 noise~;
#X obj 208 314 *~;
#X obj 144 228 *~;
#X obj 160 168 *~ 0.8;
#X obj 152 315 *~ 0.2;
#X obj 7 123 *~ 0.1;
#X obj 76 93 bp~ 1300 10;
#X obj 236 93 bp~ 700 10;
#X obj 159 93 bp~ 2500 4;
#X obj 7 93 lop~ 8000;
#X obj 162 402 outlet~;
#X obj 246 12 inlet;
#X obj 246 51 t b b b;
#X text 50 23 clap;
#X obj 370 3 bng 15 250 50 0 empty empty empty 0 -6 0 8 -262144 -1
-1;
#X obj 179 52 hip~ 500;
#X obj 396 26 inlet;
#X obj 379 118 bp~ 5000 10;
#X obj 366 185 *~ 0.5;
#X obj 308 269 creb/ead~ 3 50;
#X obj 148 203 creb/ead~ 1 600;
#X connect 0 0 9 0;
#X connect 0 0 15 0;
#X connect 0 0 17 0;
#X connect 1 0 10 0;
#X connect 2 0 1 1;
#X connect 2 0 4 0;
#X connect 3 0 2 1;
#X connect 4 0 10 0;
#X connect 5 0 3 0;
#X connect 6 0 3 0;
#X connect 7 0 3 0;
#X connect 8 0 3 0;
#X connect 9 0 5 0;
#X connect 11 0 12 0;
#X connect 12 0 20 0;
#X connect 12 1 19 0;
#X connect 14 0 12 0;
#X connect 15 0 6 0;
#X connect 15 0 7 0;
#X connect 15 0 8 0;
#X connect 16 0 20 2;
#X connect 17 0 18 0;
#X connect 18 0 1 1;
#X connect 19 0 1 0;
#X connect 20 0 2 0;
#X restore 357 265 pd clap;
#X obj 356 336 outlet~;
#X obj 358 237 inlet;
#X obj 460 238 loadbang;
#X obj 460 260 tof/argument 1 600;
#X obj 856 169 inlet params;
#X obj 856 215 print PARAM_NOTFOUND;
#X obj 856 191 tof/param route;
#X obj 852 314 b;
#X obj 853 343 tof/param gui;
#X obj 410 138 tof/param /decay 100 /g slider 1 5000;
#X connect 0 0 1 0;
#X connect 2 0 0 0;
#X connect 3 0 4 0;
#X connect 4 0 0 1;
#X connect 5 0 7 0;
#X connect 7 0 6 0;
#X connect 8 0 9 0;
#X connect 10 0 0 1;
