#N canvas 1 82 1364 661 10;
#X obj 942 44 inlet params;
#X obj 942 90 print PARAM_NOTFOUND;
#X obj 942 66 tof/param route;
#X obj 951 113 b;
#X obj 952 142 tof/param gui;
#X obj 953 197 s \$0-loadbang;
#X obj 953 173 loadbang;
#X obj 387 56 inlet trigger;
#X obj 286 242 vline~;
#X obj 286 269 *~;
#X obj 312 398 hip~ 3000;
#X obj 273 366 *~;
#X obj 228 126 hip~ 2000;
#X obj 406 242 vline~;
#X obj 406 269 *~;
#X obj 525 242 vline~;
#X obj 525 269 *~;
#X obj 307 367 *~;
#X obj 381 367 *~;
#X obj 523 302 *~;
#X obj 224 342 bp~ 2000 3;
#X obj 309 342 bp~ 8000 3;
#X obj 393 341 bp~ 15000 3;
#X obj 409 300 *~;
#X obj 287 298 *~;
#X obj 398 143 t b b b;
#N canvas 1 82 1078 573 osc2 0;
#X obj 313 276 *~;
#X obj 392 275 *~;
#X obj 499 274 *~;
#X obj 363 275 *~;
#X obj 475 275 *~;
#X obj 419 277 *~;
#X obj 289 276 *~;
#X obj 337 275 *~;
#X obj 447 276 *~;
#X obj 207 277 *~;
#X obj 235 277 *~;
#X obj 264 277 *~;
#X obj 365 406 *~ 0.05;
#X obj 195 93 expr~ 1.99*(($v1 > 0.5) -0.5);
#X obj 303 114 expr~ 1.99*(($v1 > 0.5) -0.5);
#X obj 403 92 expr~ 1.99*(($v1 > 0.5) -0.5);
#X obj 508 112 expr~ 1.99*(($v1 > 0.5) -0.5);
#X obj 611 89 expr~ 1.99*(($v1 > 0.5) -0.5);
#X obj 721 114 expr~ 1.99*(($v1 > 0.5) -0.5);
#X obj 195 70 phasor~ 293;
#X obj 301 69 phasor~ 1511;
#X obj 405 67 phasor~ 1021;
#X obj 510 67 phasor~ 631;
#X obj 616 69 phasor~ 1277;
#X obj 724 70 phasor~ 2293;
#X obj 366 430 outlet~;
#X obj 194 24 r \$0-pitcho;
#X obj 303 22 r \$0-pitcho;
#X obj 403 22 r \$0-pitcho;
#X obj 511 22 r \$0-pitcho;
#X obj 620 20 r \$0-pitcho;
#X obj 720 20 r \$0-pitcho;
#X obj 194 45 * 293;
#X obj 304 42 * 1511;
#X obj 403 43 * 1021;
#X obj 511 42 * 631;
#X obj 620 41 * 1277;
#X obj 719 41 * 2293;
#X connect 0 0 12 0;
#X connect 1 0 12 0;
#X connect 2 0 12 0;
#X connect 3 0 12 0;
#X connect 4 0 12 0;
#X connect 5 0 12 0;
#X connect 6 0 12 0;
#X connect 7 0 12 0;
#X connect 8 0 12 0;
#X connect 9 0 12 0;
#X connect 10 0 12 0;
#X connect 11 0 12 0;
#X connect 12 0 25 0;
#X connect 13 0 0 0;
#X connect 13 0 5 0;
#X connect 13 0 6 0;
#X connect 13 0 9 0;
#X connect 14 0 0 1;
#X connect 14 0 3 0;
#X connect 14 0 8 0;
#X connect 14 0 11 0;
#X connect 15 0 1 0;
#X connect 15 0 3 1;
#X connect 15 0 6 1;
#X connect 15 0 10 0;
#X connect 16 0 1 1;
#X connect 16 0 4 0;
#X connect 16 0 7 0;
#X connect 16 0 9 1;
#X connect 17 0 2 0;
#X connect 17 0 4 1;
#X connect 17 0 8 1;
#X connect 17 0 10 1;
#X connect 18 0 2 1;
#X connect 18 0 5 1;
#X connect 18 0 7 1;
#X connect 18 0 11 1;
#X connect 19 0 13 0;
#X connect 20 0 14 0;
#X connect 21 0 15 0;
#X connect 22 0 16 0;
#X connect 23 0 17 0;
#X connect 24 0 18 0;
#X connect 26 0 32 0;
#X connect 27 0 33 0;
#X connect 28 0 34 0;
#X connect 29 0 35 0;
#X connect 30 0 36 0;
#X connect 31 0 37 0;
#X connect 32 0 19 0;
#X connect 33 0 20 0;
#X connect 34 0 21 0;
#X connect 35 0 22 0;
#X connect 36 0 23 0;
#X connect 37 0 24 0;
#X restore 164 32 pd osc2;
#N canvas 1 82 955 526 osc1 0;
#X obj 318 275 *~;
#X obj 406 263 *~;
#X obj 501 259 *~;
#X obj 375 273 *~;
#X obj 470 257 *~;
#X obj 438 258 *~;
#X obj 286 277 *~;
#X obj 345 273 *~;
#X obj 249 288 *~;
#X obj 155 286 *~;
#X obj 183 286 *~;
#X obj 212 286 *~;
#X obj 422 417 *~ 0.05;
#X obj -29 98 expr~ 1.99*(($v1 > 0.5) -0.5);
#X obj 116 125 expr~ 1.99*(($v1 > 0.5) -0.5);
#X obj 279 98 expr~ 1.99*(($v1 > 0.5) -0.5);
#X obj 393 128 expr~ 1.99*(($v1 > 0.5) -0.5);
#X obj 526 106 expr~ 1.99*(($v1 > 0.5) -0.5);
#X obj 612 143 expr~ 1.99*(($v1 > 0.5) -0.5);
#X obj -27 62 phasor~ 431;
#X obj 121 61 phasor~ 337;
#X obj 278 74 phasor~ 509;
#X obj 389 70 phasor~ 821;
#X obj 521 79 phasor~ 1669;
#X obj 629 82 phasor~ 3049;
#X obj 423 446 outlet~;
#X obj -17 35 * 431;
#X obj 124 37 * 337;
#X obj 280 50 * 509;
#X obj 392 46 * 821;
#X obj -14 8 r \$0-pitcho;
#X obj 123 17 r \$0-pitcho;
#X obj 278 26 r \$0-pitcho;
#X obj 392 25 r \$0-pitcho;
#X obj 519 34 r \$0-pitcho;
#X obj 519 55 * 1669;
#X obj 635 38 r \$0-pitcho;
#X obj 635 59 * 3049;
#X connect 0 0 12 0;
#X connect 1 0 12 0;
#X connect 2 0 12 0;
#X connect 3 0 12 0;
#X connect 4 0 12 0;
#X connect 5 0 12 0;
#X connect 6 0 12 0;
#X connect 7 0 12 0;
#X connect 8 0 12 0;
#X connect 9 0 12 0;
#X connect 10 0 12 0;
#X connect 11 0 12 0;
#X connect 12 0 25 0;
#X connect 13 0 0 0;
#X connect 13 0 5 0;
#X connect 13 0 6 0;
#X connect 13 0 9 0;
#X connect 14 0 0 1;
#X connect 14 0 3 0;
#X connect 14 0 8 0;
#X connect 14 0 11 0;
#X connect 15 0 1 0;
#X connect 15 0 3 1;
#X connect 15 0 6 1;
#X connect 15 0 10 0;
#X connect 16 0 1 1;
#X connect 16 0 4 0;
#X connect 16 0 7 0;
#X connect 16 0 9 1;
#X connect 17 0 2 0;
#X connect 17 0 4 1;
#X connect 17 0 8 1;
#X connect 17 0 10 1;
#X connect 18 0 2 1;
#X connect 18 0 5 1;
#X connect 18 0 7 1;
#X connect 18 0 11 1;
#X connect 19 0 13 0;
#X connect 20 0 14 0;
#X connect 21 0 15 0;
#X connect 22 0 16 0;
#X connect 23 0 17 0;
#X connect 24 0 18 0;
#X connect 26 0 19 0;
#X connect 27 0 20 0;
#X connect 28 0 21 0;
#X connect 29 0 22 0;
#X connect 30 0 26 0;
#X connect 31 0 27 0;
#X connect 32 0 28 0;
#X connect 33 0 29 0;
#X connect 34 0 35 0;
#X connect 35 0 23 0;
#X connect 36 0 37 0;
#X connect 37 0 24 0;
#X restore 106 34 pd osc1;
#X obj 326 547 outlet~;
#X obj 522 188 f 3000;
#X obj 677 481 s \$0-pitcho;
#X msg 662 197 1;
#X msg 406 214 1 0 15 \, 0 70 15;
#X msg 285 212 1 10 0 \, 0 30 10;
#X msg 524 213 1 0 2 \, 0 \$1 2;
#X obj 583 317 * 2000;
#X obj 604 336 * 8000;
#X obj 617 362 * 15000;
#X obj 771 315 s \$0-filto;
#N canvas 0 22 462 312 rh_scalelog 0;
#X obj 20 155 exp;
#X obj 20 107 *;
#X obj 20 130 +;
#X obj 98 87 log;
#X obj 194 84 log;
#X obj 123 123 t b f;
#X obj 123 145 -;
#X obj 20 183 outlet;
#X obj 20 19 inlet;
#X obj 98 23 inlet;
#X obj 194 24 inlet;
#X connect 0 0 7 0;
#X connect 1 0 2 0;
#X connect 2 0 0 0;
#X connect 3 0 2 1;
#X connect 3 0 5 0;
#X connect 4 0 6 0;
#X connect 5 0 6 0;
#X connect 5 1 6 1;
#X connect 6 0 1 1;
#X connect 8 0 1 0;
#X connect 9 0 3 0;
#X connect 10 0 4 0;
#X restore 409 474 pd rh_scalelog;
#X msg 456 450 1000;
#X obj 312 416 lop~ 20000;
#X obj 770 293 + 0.75;
#N canvas 0 22 462 312 rh_scalelog 0;
#X obj 20 155 exp;
#X obj 20 107 *;
#X obj 20 130 +;
#X obj 98 87 log;
#X obj 194 84 log;
#X obj 123 123 t b f;
#X obj 123 145 -;
#X obj 20 183 outlet;
#X obj 20 19 inlet;
#X obj 98 23 inlet;
#X obj 194 24 inlet;
#X connect 0 0 7 0;
#X connect 1 0 2 0;
#X connect 2 0 0 0;
#X connect 3 0 2 1;
#X connect 3 0 5 0;
#X connect 4 0 6 0;
#X connect 5 0 6 0;
#X connect 5 1 6 1;
#X connect 6 0 1 1;
#X connect 8 0 1 0;
#X connect 9 0 3 0;
#X connect 10 0 4 0;
#X restore 545 168 pd rh_scalelog;
#X msg 640 143 3000;
#X msg 592 144 500;
#N canvas 0 22 462 312 rh_scalelog 0;
#X obj 20 155 exp;
#X obj 20 107 *;
#X obj 20 130 +;
#X obj 98 87 log;
#X obj 194 84 log;
#X obj 123 123 t b f;
#X obj 123 145 -;
#X obj 20 183 outlet;
#X obj 20 19 inlet;
#X obj 98 23 inlet;
#X obj 194 24 inlet;
#X connect 0 0 7 0;
#X connect 1 0 2 0;
#X connect 2 0 0 0;
#X connect 3 0 2 1;
#X connect 3 0 5 0;
#X connect 4 0 6 0;
#X connect 5 0 6 0;
#X connect 5 1 6 1;
#X connect 6 0 1 1;
#X connect 8 0 1 0;
#X connect 9 0 3 0;
#X connect 10 0 4 0;
#X restore 235 80 pd rh_scalelog;
#X msg 282 56 500;
#X msg 329 55 5000;
#X obj 769 270 * 2;
#X obj 680 456 + 2;
#X obj 679 433 * 4;
#X obj 312 436 *~ 0.35;
#X obj 682 90 + 50;
#X obj 685 114 delay;
#X msg 687 136 0;
#X obj 387 89 t b b;
#X obj 391 118 delay 10;
#X obj 508 99 f;
#X obj 664 221 switch~ 1024 4 1;
#X msg 502 449 40000;
#X obj 283 28 r \$0-loadbang;
#X obj 593 115 r \$0-loadbang;
#X obj 456 422 r \$0-loadbang;
#X obj 606 281 r \$0-filto;
#X obj 221 11 tof/param /hipass 0.5 /g slider 0 1;
#X obj 569 40 tof/param /duration 0.5 /g slider 0 1;
#X obj 769 249 tof/param /filters 0.5 /g slider 0 1;
#X obj 671 406 tof/param /pitch 0.5 /g slider 0 1;
#X obj 417 399 tof/param /hipass2 0.5 /g slider 0 1;
#X connect 0 0 2 0;
#X connect 2 0 1 0;
#X connect 3 0 4 0;
#X connect 6 0 5 0;
#X connect 7 0 56 0;
#X connect 8 0 9 0;
#X connect 8 0 9 1;
#X connect 9 0 24 0;
#X connect 9 0 24 1;
#X connect 10 0 41 0;
#X connect 11 0 10 0;
#X connect 12 0 20 0;
#X connect 12 0 21 0;
#X connect 12 0 22 0;
#X connect 13 0 14 0;
#X connect 13 0 14 1;
#X connect 14 0 23 0;
#X connect 14 0 23 1;
#X connect 15 0 16 0;
#X connect 15 0 16 1;
#X connect 16 0 19 0;
#X connect 16 0 19 1;
#X connect 17 0 10 0;
#X connect 18 0 10 0;
#X connect 19 0 18 1;
#X connect 20 0 11 0;
#X connect 21 0 17 0;
#X connect 22 0 18 0;
#X connect 23 0 17 1;
#X connect 24 0 11 1;
#X connect 25 1 33 0;
#X connect 25 1 32 0;
#X connect 25 1 29 0;
#X connect 26 0 12 0;
#X connect 27 0 12 0;
#X connect 29 0 34 0;
#X connect 31 0 59 0;
#X connect 32 0 13 0;
#X connect 33 0 8 0;
#X connect 34 0 15 0;
#X connect 35 0 20 1;
#X connect 36 0 21 1;
#X connect 37 0 22 1;
#X connect 39 0 10 1;
#X connect 40 0 39 1;
#X connect 41 0 52 0;
#X connect 42 0 38 0;
#X connect 43 0 29 1;
#X connect 43 0 58 1;
#X connect 44 0 43 2;
#X connect 45 0 43 1;
#X connect 46 0 12 1;
#X connect 47 0 46 1;
#X connect 48 0 46 2;
#X connect 49 0 42 0;
#X connect 50 0 30 0;
#X connect 51 0 50 0;
#X connect 52 0 28 0;
#X connect 53 0 54 0;
#X connect 54 0 55 0;
#X connect 55 0 59 0;
#X connect 56 0 57 0;
#X connect 56 1 58 0;
#X connect 56 1 31 0;
#X connect 57 0 25 0;
#X connect 58 0 53 0;
#X connect 60 0 39 2;
#X connect 61 0 47 0;
#X connect 61 0 48 0;
#X connect 62 0 45 0;
#X connect 62 0 44 0;
#X connect 63 0 40 0;
#X connect 63 0 60 0;
#X connect 64 0 35 0;
#X connect 64 0 36 0;
#X connect 64 0 37 0;
#X connect 65 0 46 0;
#X connect 66 0 43 0;
#X connect 67 0 49 0;
#X connect 68 0 51 0;
#X connect 69 0 39 0;
