#N canvas 1 82 1272 661 10;
#X obj 22 280 mtl/out~;
#X text 14 25 tags: fx~;
#X obj 19 90 tgl 15 0 empty empty empty 17 7 0 10 -262144 -1 -1 0 1
;
#N canvas 5 185 450 300 generate~ 0;
#X obj 32 213 osc~ 200;
#X obj 32 89 metro 400;
#X obj 32 175 mtof;
#X obj 104 195 mtof;
#X obj 32 132 + 20;
#X obj 32 111 random 70;
#X floatatom 83 69 5 0 0 0 - - -;
#X obj 32 261 outlet~;
#X obj 103 261 outlet~;
#X obj 30 14 inlet;
#X obj 104 175 mtl/closestNote 0 2 4 7 9;
#X obj 104 234 *~;
#X obj 31 234 *~;
#X obj 104 214 osc~ 100;
#X obj 32 155 mtl/closestNote 0 2 4 7 9;
#X connect 0 0 12 0;
#X connect 1 0 5 0;
#X connect 2 0 0 0;
#X connect 3 0 13 0;
#X connect 4 0 10 0;
#X connect 4 0 14 0;
#X connect 5 0 4 0;
#X connect 6 0 1 1;
#X connect 9 0 1 0;
#X connect 9 0 11 1;
#X connect 9 0 12 1;
#X connect 10 0 3 0;
#X connect 11 0 8 0;
#X connect 12 0 7 0;
#X connect 13 0 11 0;
#X connect 14 0 2 0;
#X restore 19 115 pd generate~;
#X text 186 246 <-Click on the propeties menu to display params;
#X obj 307 18 cnv 15 200 40 empty empty empty 20 12 0 14 -232576 -66577
0;
#X text 367 19 PARAM ENABLED;
#X obj 328 93 cnv 15 200 20 empty empty /Decimate/ 2 12 0 8 -258401
-262144 0;
#X obj 306 41 tof/open_help tof/param;
#X obj 22 247 mtl/decimate~ /id decimate;
#X obj 331 120 hsl 128 15 0 1 0 0 /decimate/ratio /decimate/ratio_
ratio 145 7 0 10 -262144 -1 -1 12700 1;
#X obj 332 143 hsl 128 15 0 32 0 0 /decimate/bits /decimate/bits_ bits
145 7 0 10 -262144 -1 -1 12700 1;
#X text 15 8 Description: Decimate ( sigpack external );
#X connect 2 0 3 0;
#X connect 3 0 9 0;
#X connect 3 0 9 1;
#X connect 9 0 0 0;
#X connect 9 1 0 1;
