#N canvas 0 25 1272 659 10;
#X obj 138 32 inlet frequency;
#X obj 133 627 outlet~;
#X obj 846 159 inlet params;
#X obj 846 205 print PARAM_NOTFOUND;
#X obj 846 181 tof/param route;
#X obj 842 304 b;
#X obj 843 333 tof/param gui;
#X obj 163 97 unpack f f;
#X obj 200 594 *~;
#X obj 993 216 print;
#X text 269 511 <- reverse toggle (fills in discontinuity);
#X obj 272 537 mtl/adsr~ /id \$0-adsr;
#N canvas 0 22 592 488 voice1 0;
#X obj 220 364 outlet~;
#X obj 209 120 osc~;
#X obj 199 166 *~ 1e+08;
#X obj 199 196 clip~ -1 1;
#X obj 229 81 sig~;
#X obj 246 26 inlet;
#X connect 1 0 2 0;
#X connect 2 0 3 0;
#X connect 3 0 0 0;
#X connect 4 0 1 0;
#X connect 5 0 4 0;
#X restore 123 413 pd voice1;
#X obj 200 476 *~ 0.2;
#X obj 248 291 t b f;
#X obj 262 315 t b f;
#N canvas 0 22 588 484 voice2 0;
#X obj 220 364 outlet~;
#X obj 292 3 inlet;
#X obj 209 120 osc~;
#X obj 199 166 *~ 1e+08;
#X obj 199 196 clip~ -1 1;
#X obj 260 69 sig~;
#X connect 1 0 5 0;
#X connect 2 0 3 0;
#X connect 3 0 4 0;
#X connect 4 0 0 0;
#X connect 5 0 2 0;
#X restore 185 415 pd voice2;
#N canvas 0 22 584 480 voice3 0;
#X obj 220 364 outlet~;
#X obj 292 3 inlet;
#X obj 211 188 osc~;
#X obj 201 234 *~ 1e+08;
#X obj 201 264 clip~ -1 1;
#X obj 245 128 sig~;
#X connect 1 0 5 0;
#X connect 2 0 3 0;
#X connect 3 0 4 0;
#X connect 4 0 0 0;
#X connect 5 0 2 0;
#X restore 251 421 pd voice3;
#X obj 176 346 f;
#X obj 222 346 f;
#X obj 189 388 * 1.0415;
#X obj 257 384 * 1.05;
#N canvas 0 22 462 312 rh_scalelog 0;
#X obj 20 155 exp;
#X obj 20 107 *;
#X obj 20 130 +;
#X obj 98 87 log;
#X obj 194 84 log;
#X obj 123 123 t b f;
#X obj 123 145 -;
#X obj 20 183 outlet;
#X obj 20 19 inlet;
#X obj 98 23 inlet;
#X obj 194 24 inlet;
#X connect 0 0 7 0;
#X connect 1 0 2 0;
#X connect 2 0 0 0;
#X connect 3 0 2 1;
#X connect 3 0 5 0;
#X connect 4 0 6 0;
#X connect 5 0 6 0;
#X connect 5 1 6 1;
#X connect 6 0 1 1;
#X connect 8 0 1 0;
#X connect 9 0 3 0;
#X connect 10 0 4 0;
#X restore 298 148 pd rh_scalelog;
#X msg 345 124 0.01;
#X msg 391 124 1;
#X obj 300 179 + 1.01;
#N canvas 0 22 462 312 rh_scalelog 0;
#X obj 20 155 exp;
#X obj 20 107 *;
#X obj 20 130 +;
#X obj 98 87 log;
#X obj 194 84 log;
#X obj 123 123 t b f;
#X obj 123 145 -;
#X obj 20 183 outlet;
#X obj 20 19 inlet;
#X obj 98 23 inlet;
#X obj 194 24 inlet;
#X connect 0 0 7 0;
#X connect 1 0 2 0;
#X connect 2 0 0 0;
#X connect 3 0 2 1;
#X connect 3 0 5 0;
#X connect 4 0 6 0;
#X connect 5 0 6 0;
#X connect 5 1 6 1;
#X connect 6 0 1 1;
#X connect 8 0 1 0;
#X connect 9 0 3 0;
#X connect 10 0 4 0;
#X restore 422 189 pd rh_scalelog;
#X msg 469 165 0.01;
#X msg 515 165 1;
#X obj 418 211 + 1.01;
#X obj 345 96 loadbang;
#X obj 469 137 loadbang;
#X obj 300 56 tof/param /detuneA 0.25 /g slider 0 1;
#X obj 430 94 tof/param /detuneB 0.25 /g slider 0 1;
#X connect 0 0 7 0;
#X connect 2 0 4 0;
#X connect 2 0 9 0;
#X connect 4 0 3 0;
#X connect 5 0 6 0;
#X connect 7 0 12 0;
#X connect 7 0 18 0;
#X connect 7 0 19 0;
#X connect 7 1 11 0;
#X connect 8 0 1 0;
#X connect 11 0 8 1;
#X connect 12 0 13 0;
#X connect 13 0 8 0;
#X connect 14 0 18 0;
#X connect 14 1 20 1;
#X connect 15 0 19 0;
#X connect 15 1 21 1;
#X connect 16 0 13 0;
#X connect 17 0 13 0;
#X connect 18 0 20 0;
#X connect 19 0 21 0;
#X connect 20 0 16 0;
#X connect 21 0 17 0;
#X connect 22 0 25 0;
#X connect 23 0 22 1;
#X connect 24 0 22 2;
#X connect 25 0 14 0;
#X connect 26 0 29 0;
#X connect 27 0 26 1;
#X connect 28 0 26 2;
#X connect 29 0 15 0;
#X connect 30 0 23 0;
#X connect 30 0 24 0;
#X connect 31 0 27 0;
#X connect 31 0 28 0;
#X connect 32 0 22 0;
#X connect 33 0 26 0;
