#N canvas 1 82 1351 661 10;
#X obj 69 192 inlet~;
#X obj 93 568 outlet~;
#X obj 187 550 outlet~;
#X obj 132 191 inlet~;
#X obj 763 25 inlet params;
#X obj 94 516 tof/crossfade~ 2;
#X obj 308 460 tof/param /wet 0 /g slider 0 1;
#X obj 763 71 print PARAM_NOTFOUND;
#X msg 308 484 \$1 5;
#X obj 308 506 line~;
#X obj 763 47 tof/param route;
#X obj 768 101 b;
#X obj 768 125 tof/param gui;
#N canvas 1 82 1364 661 disto 0;
#X obj 358 7 inlet;
#X obj 414 7 inlet;
#X obj 464 7 inlet;
#X obj 189 219 *~;
#X obj 167 266 *~;
#X obj 167 297 *~ 0;
#X obj 217 297 *~ 0;
#X obj 267 297 *~ 0;
#X obj 549 47 loadbang;
#X obj 550 69 1;
#X obj 321 297 sig~;
#X obj 371 128 cnv 15 185 45 empty empty empty 20 12 0 14 -261234 -66577
0;
#X floatatom 409 151 5 0 0 0 - - -, f 5;
#X floatatom 444 151 5 0 0 0 - - -, f 5;
#X floatatom 479 151 5 0 0 0 - - -, f 5;
#X floatatom 513 151 5 0 0 0 - - -, f 5;
#X text 377 130 f(x) = ax^3 + bx^2 + cx + d;
#X obj 583 262 * -1;
#X obj 168 135 inlet~;
#X obj 168 335 outlet~;
#X obj 511 8 inlet;
#X msg 243 200 \$1 5;
#X obj 243 222 line;
#X msg 291 201 \$1 5;
#X obj 291 223 line;
#X msg 333 202 \$1 5;
#X obj 333 224 line;
#X msg 381 203 \$1 5;
#X obj 381 225 line;
#X connect 0 0 12 0;
#X connect 1 0 13 0;
#X connect 2 0 14 0;
#X connect 3 0 4 1;
#X connect 3 0 6 0;
#X connect 4 0 5 0;
#X connect 5 0 19 0;
#X connect 6 0 19 0;
#X connect 7 0 19 0;
#X connect 8 0 9 0;
#X connect 9 0 14 0;
#X connect 10 0 19 0;
#X connect 12 0 23 0;
#X connect 13 0 17 0;
#X connect 13 0 25 0;
#X connect 14 0 27 0;
#X connect 17 0 15 0;
#X connect 18 0 3 0;
#X connect 18 0 3 1;
#X connect 18 0 4 0;
#X connect 18 0 7 0;
#X connect 20 0 15 0;
#X connect 23 0 24 0;
#X connect 24 0 5 1;
#X connect 25 0 26 0;
#X connect 26 0 6 1;
#X connect 27 0 28 0;
#X connect 28 0 7 1;
#X restore 165 364 pd disto;
#X obj 357 190 tof/param /a 0 /g slider 0 100;
#X obj 371 249 tof/param /c 0 /g slider 0 100;
#N canvas 267 222 786 441 disto 0;
#X obj 368 17 inlet;
#X obj 424 17 inlet;
#X obj 474 17 inlet;
#X obj 199 229 *~;
#X obj 177 276 *~;
#X obj 177 307 *~ 0;
#X obj 227 307 *~ 0;
#X obj 277 307 *~ 0;
#X obj 559 57 loadbang;
#X obj 560 79 1;
#X obj 331 307 sig~;
#X obj 381 138 cnv 15 185 45 empty empty empty 20 12 0 14 -261234 -66577
0;
#X floatatom 419 161 5 0 0 0 - - -, f 5;
#X floatatom 454 161 5 0 0 0 - - -, f 5;
#X floatatom 489 161 5 0 0 0 - - -, f 5;
#X floatatom 523 161 5 0 0 0 - - -, f 5;
#X text 387 140 f(x) = ax^3 + bx^2 + cx + d;
#X obj 593 272 * -1;
#X obj 178 145 inlet~;
#X obj 178 345 outlet~;
#X obj 521 18 inlet;
#X msg 253 210 \$1 5;
#X obj 253 232 line;
#X msg 301 211 \$1 5;
#X obj 301 233 line;
#X msg 343 212 \$1 5;
#X obj 343 234 line;
#X msg 391 213 \$1 5;
#X obj 391 235 line;
#X connect 0 0 12 0;
#X connect 1 0 13 0;
#X connect 2 0 14 0;
#X connect 3 0 4 1;
#X connect 3 0 6 0;
#X connect 4 0 5 0;
#X connect 5 0 19 0;
#X connect 6 0 19 0;
#X connect 7 0 19 0;
#X connect 8 0 9 0;
#X connect 9 0 14 0;
#X connect 10 0 19 0;
#X connect 12 0 23 0;
#X connect 13 0 17 0;
#X connect 13 0 25 0;
#X connect 14 0 27 0;
#X connect 17 0 15 0;
#X connect 18 0 3 0;
#X connect 18 0 3 1;
#X connect 18 0 4 0;
#X connect 18 0 7 0;
#X connect 20 0 15 0;
#X connect 23 0 24 0;
#X connect 24 0 5 1;
#X connect 25 0 26 0;
#X connect 26 0 6 1;
#X connect 27 0 28 0;
#X connect 28 0 7 1;
#X restore 232 363 pd disto;
#X obj 361 220 tof/param /b 0 /g slider 0 100;
#X obj 375 279 tof/param /d 0 /g slider 0 100;
#X obj 308 437 tof/argument 3;
#X obj 308 414 loadbang;
#X obj 368 158 tof/argument 7;
#X obj 342 135 tof/argument 6;
#X obj 308 113 tof/argument 5;
#X obj 266 89 tof/argument 4;
#X obj 266 64 loadbang;
#X connect 0 0 5 0;
#X connect 0 0 13 0;
#X connect 3 0 5 1;
#X connect 3 0 16 0;
#X connect 4 0 10 0;
#X connect 5 0 1 0;
#X connect 5 1 2 0;
#X connect 6 0 8 0;
#X connect 8 0 9 0;
#X connect 9 0 5 4;
#X connect 10 0 7 0;
#X connect 11 0 12 0;
#X connect 13 0 5 2;
#X connect 14 0 13 1;
#X connect 14 0 16 1;
#X connect 15 0 13 3;
#X connect 15 0 16 3;
#X connect 16 0 5 3;
#X connect 17 0 13 2;
#X connect 17 0 16 2;
#X connect 18 0 13 4;
#X connect 18 0 16 4;
#X connect 19 0 6 0;
#X connect 20 0 19 0;
#X connect 21 0 18 0;
#X connect 22 0 15 0;
#X connect 23 0 17 0;
#X connect 24 0 14 0;
#X connect 25 0 21 0;
#X connect 25 0 22 0;
#X connect 25 0 23 0;
#X connect 25 0 24 0;
