#N canvas 1 82 1272 661 10;
#X obj 92 266 inlet~;
#X obj 90 475 outlet~;
#X obj 185 451 outlet~;
#X obj 155 272 inlet~;
#X obj 835 31 inlet params;
#X obj 415 353 tof/param /wet 0 /g slider 0 1;
#X obj 835 77 print PARAM_NOTFOUND;
#X obj 91 424 tof/crossfade~ 2;
#X msg 415 376 \$1 5;
#X obj 415 400 line~;
#X obj 835 53 tof/param route;
#X obj 840 149 tof/param gui;
#N canvas 151 82 944 661 waveshaper 0;
#X obj 131 7 inlet~;
#X obj 133 263 outlet~;
#X obj 293 55 inlet;
#X obj 138 205 expr~ ($v1*(abs($v1)+$f2)/($v1*$v1+($f2-1)*abs($v1)+1))
;
#X connect 0 0 3 0;
#X connect 2 0 3 1;
#X connect 3 0 1 0;
#X restore 125 367 pd waveshaper;
#X obj 229 257 tof/param /amount 0 /g slider 0 100;
#N canvas 151 82 944 661 waveshaper 0;
#X obj 131 7 inlet~;
#X obj 133 263 outlet~;
#X obj 293 55 inlet;
#X obj 138 205 expr~ ($v1*(abs($v1)+$f2)/($v1*$v1+($f2-1)*abs($v1)+1))
;
#X connect 0 0 3 0;
#X connect 2 0 3 1;
#X connect 3 0 1 0;
#X restore 170 392 pd waveshaper;
#X obj 840 120 b;
#X obj 280 228 tof/argument 3;
#X obj 230 198 tof/argument 4;
#X obj 231 172 loadbang;
#X connect 0 0 7 0;
#X connect 0 0 12 0;
#X connect 3 0 7 1;
#X connect 3 0 14 0;
#X connect 4 0 10 0;
#X connect 5 0 8 0;
#X connect 7 0 1 0;
#X connect 7 1 2 0;
#X connect 8 0 9 0;
#X connect 9 0 7 4;
#X connect 10 0 6 0;
#X connect 12 0 7 2;
#X connect 13 0 12 1;
#X connect 13 0 14 1;
#X connect 14 0 7 3;
#X connect 15 0 11 0;
#X connect 16 0 5 0;
#X connect 17 0 13 0;
#X connect 18 0 16 0;
#X connect 18 0 17 0;
