#N canvas 0 25 1272 692 10;
#X obj 59 387 outlet~;
#X obj 53 164 inlet~;
#X obj 113 164 inlet~;
#X obj 119 387 outlet~;
#X obj 477 83 inlet params;
#X obj 186 361 tof/param /wet 0 /g slider 0 1;
#X obj 477 129 print PARAM_NOTFOUND;
#X obj 59 362 tof/crossfade~ 2;
#X msg 223 391 \$1 5;
#X obj 223 415 line~;
#X obj 477 105 tof/param route;
#X obj 473 228 b;
#X obj 474 257 tof/param gui;
#N canvas 542 147 730 557 disto8bit 0;
#X obj 51 136 expr~ $v1 ^ $f2;
#X obj 51 306 expr~ $v1/255*2-1;
#X obj 51 66 expr~ int(($v1*.5+.5)*255);
#X obj 51 276 expr~ $v1 + int($f2 / 2) * $f3;
#X obj 51 236 expr~ ($v1 & (~$f2));
#X obj 50 36 inlet~;
#X obj 51 336 outlet~;
#X obj 228 236 inlet dc;
#X obj 168 206 r \$0-mute_arr;
#X obj 138 116 r \$0-inv_arr;
#X obj 334 262 expr $f1*pow(2 \, 7) + $f2*pow(2 \, 6) + $f3*pow(2 \,
5) +$f4*pow(2 \, 4) + $f5*pow(2 \, 3) + $f6*pow(2 \, 2) + $f7*2 + $f8
;
#X obj 664 212 t b f;
#X obj 613 212 t b f;
#X obj 562 212 t b f;
#X obj 511 212 t b f;
#X obj 460 212 t b f;
#X obj 409 212 t b f;
#X obj 358 212 t b f;
#X obj 334 152 unpack f f f f f f f f;
#X obj 334 122 inlet invert;
#X obj 334 306 s \$0-inv_arr;
#X obj 724 262 expr $f1*pow(2 \, 7) + $f2*pow(2 \, 6) + $f3*pow(2 \,
5) +$f4*pow(2 \, 4) + $f5*pow(2 \, 3) + $f6*pow(2 \, 2) + $f7*2 + $f8
;
#X obj 1054 212 t b f;
#X obj 1003 212 t b f;
#X obj 952 212 t b f;
#X obj 901 212 t b f;
#X obj 850 212 t b f;
#X obj 799 212 t b f;
#X obj 748 212 t b f;
#X obj 724 152 unpack f f f f f f f f;
#X obj 724 306 s \$0-mute_arr;
#X obj 724 122 inlet mute;
#X connect 0 0 4 0;
#X connect 1 0 6 0;
#X connect 2 0 0 0;
#X connect 3 0 1 0;
#X connect 4 0 3 0;
#X connect 5 0 2 0;
#X connect 7 0 3 2;
#X connect 8 0 4 1;
#X connect 8 0 3 1;
#X connect 9 0 0 1;
#X connect 10 0 20 0;
#X connect 11 0 10 0;
#X connect 11 1 10 7;
#X connect 12 0 10 0;
#X connect 12 1 10 6;
#X connect 13 0 10 0;
#X connect 13 1 10 5;
#X connect 14 0 10 0;
#X connect 14 1 10 4;
#X connect 15 0 10 0;
#X connect 15 1 10 3;
#X connect 16 0 10 0;
#X connect 16 1 10 2;
#X connect 17 0 10 0;
#X connect 17 1 10 1;
#X connect 18 0 10 0;
#X connect 18 1 17 0;
#X connect 18 2 16 0;
#X connect 18 3 15 0;
#X connect 18 4 14 0;
#X connect 18 5 13 0;
#X connect 18 6 12 0;
#X connect 18 7 11 0;
#X connect 19 0 18 0;
#X connect 21 0 30 0;
#X connect 22 0 21 0;
#X connect 22 1 21 7;
#X connect 23 0 21 0;
#X connect 23 1 21 6;
#X connect 24 0 21 0;
#X connect 24 1 21 5;
#X connect 25 0 21 0;
#X connect 25 1 21 4;
#X connect 26 0 21 0;
#X connect 26 1 21 3;
#X connect 27 0 21 0;
#X connect 27 1 21 2;
#X connect 28 0 21 0;
#X connect 28 1 21 1;
#X connect 29 0 21 0;
#X connect 29 1 28 0;
#X connect 29 2 27 0;
#X connect 29 3 26 0;
#X connect 29 4 25 0;
#X connect 29 5 24 0;
#X connect 29 6 23 0;
#X connect 29 7 22 0;
#X connect 31 0 29 0;
#X restore 88 284 pd disto8bit;
#N canvas 501 147 730 557 disto8bit 0;
#X obj 61 146 expr~ $v1 ^ $f2;
#X obj 61 316 expr~ $v1/255*2-1;
#X obj 61 76 expr~ int(($v1*.5+.5)*255);
#X obj 61 286 expr~ $v1 + int($f2 / 2) * $f3;
#X obj 61 246 expr~ ($v1 & (~$f2));
#X obj 60 46 inlet~;
#X obj 61 346 outlet~;
#X obj 238 246 inlet dc;
#X obj 178 216 r \$0-mute_arr;
#X obj 148 126 r \$0-inv_arr;
#X obj 344 272 expr $f1*pow(2 \, 7) + $f2*pow(2 \, 6) + $f3*pow(2 \,
5) +$f4*pow(2 \, 4) + $f5*pow(2 \, 3) + $f6*pow(2 \, 2) + $f7*2 + $f8
;
#X obj 674 222 t b f;
#X obj 623 222 t b f;
#X obj 572 222 t b f;
#X obj 521 222 t b f;
#X obj 470 222 t b f;
#X obj 419 222 t b f;
#X obj 368 222 t b f;
#X obj 344 162 unpack f f f f f f f f;
#X obj 344 132 inlet invert;
#X obj 344 316 s \$0-inv_arr;
#X obj 734 272 expr $f1*pow(2 \, 7) + $f2*pow(2 \, 6) + $f3*pow(2 \,
5) +$f4*pow(2 \, 4) + $f5*pow(2 \, 3) + $f6*pow(2 \, 2) + $f7*2 + $f8
;
#X obj 1064 222 t b f;
#X obj 1013 222 t b f;
#X obj 962 222 t b f;
#X obj 911 222 t b f;
#X obj 860 222 t b f;
#X obj 809 222 t b f;
#X obj 758 222 t b f;
#X obj 734 162 unpack f f f f f f f f;
#X obj 734 316 s \$0-mute_arr;
#X obj 734 132 inlet mute;
#X connect 0 0 4 0;
#X connect 1 0 6 0;
#X connect 2 0 0 0;
#X connect 3 0 1 0;
#X connect 4 0 3 0;
#X connect 5 0 2 0;
#X connect 7 0 3 2;
#X connect 8 0 4 1;
#X connect 8 0 3 1;
#X connect 9 0 0 1;
#X connect 10 0 20 0;
#X connect 11 0 10 0;
#X connect 11 1 10 7;
#X connect 12 0 10 0;
#X connect 12 1 10 6;
#X connect 13 0 10 0;
#X connect 13 1 10 5;
#X connect 14 0 10 0;
#X connect 14 1 10 4;
#X connect 15 0 10 0;
#X connect 15 1 10 3;
#X connect 16 0 10 0;
#X connect 16 1 10 2;
#X connect 17 0 10 0;
#X connect 17 1 10 1;
#X connect 18 0 10 0;
#X connect 18 1 17 0;
#X connect 18 2 16 0;
#X connect 18 3 15 0;
#X connect 18 4 14 0;
#X connect 18 5 13 0;
#X connect 18 6 12 0;
#X connect 18 7 11 0;
#X connect 19 0 18 0;
#X connect 21 0 30 0;
#X connect 22 0 21 0;
#X connect 22 1 21 7;
#X connect 23 0 21 0;
#X connect 23 1 21 6;
#X connect 24 0 21 0;
#X connect 24 1 21 5;
#X connect 25 0 21 0;
#X connect 25 1 21 4;
#X connect 26 0 21 0;
#X connect 26 1 21 3;
#X connect 27 0 21 0;
#X connect 27 1 21 2;
#X connect 28 0 21 0;
#X connect 28 1 21 1;
#X connect 29 0 21 0;
#X connect 29 1 28 0;
#X connect 29 2 27 0;
#X connect 29 3 26 0;
#X connect 29 4 25 0;
#X connect 29 5 24 0;
#X connect 29 6 23 0;
#X connect 29 7 22 0;
#X connect 31 0 29 0;
#X restore 245 287 pd disto8bit;
#N canvas 381 134 450 300 decimal2binary 0;
#X obj 265 95 / 2;
#X obj 212 98 % 2;
#X floatatom 253 62 5 0 0 0 - - -;
#X obj 265 120 i;
#X obj 213 145 % 2;
#X obj 265 148 / 2;
#X obj 264 175 i;
#X obj 215 205 % 2;
#X obj 262 203 / 2;
#X obj 258 230 i;
#X obj 263 264 / 2;
#X obj 260 296 i;
#X obj 214 251 % 2;
#X obj 258 331 / 2;
#X obj 258 360 i;
#X obj 216 303 % 2;
#X obj 203 383 % 2;
#X obj 260 391 / 2;
#X obj 258 425 i;
#X obj 204 442 % 2;
#X obj 200 502 % 2;
#X obj 262 461 / 2;
#X obj 262 495 i;
#X obj 46 536 pack f f f f f f f f;
#X obj 37 588 outlet;
#X obj 204 33 inlet;
#X connect 0 0 3 0;
#X connect 1 0 23 7;
#X connect 2 0 1 0;
#X connect 2 0 0 0;
#X connect 3 0 4 0;
#X connect 3 0 5 0;
#X connect 4 0 23 6;
#X connect 5 0 6 0;
#X connect 6 0 7 0;
#X connect 6 0 8 0;
#X connect 7 0 23 5;
#X connect 8 0 9 0;
#X connect 9 0 10 0;
#X connect 9 0 12 1;
#X connect 10 0 11 0;
#X connect 11 0 13 0;
#X connect 11 0 15 0;
#X connect 12 0 23 4;
#X connect 13 0 14 0;
#X connect 14 0 16 0;
#X connect 14 0 17 0;
#X connect 15 0 23 3;
#X connect 16 0 23 2;
#X connect 17 0 18 0;
#X connect 18 0 19 0;
#X connect 18 0 21 0;
#X connect 19 0 23 1;
#X connect 20 0 23 0;
#X connect 21 0 22 0;
#X connect 22 0 20 0;
#X connect 23 0 24 0;
#X connect 25 0 2 0;
#X restore 137 204 pd decimal2binary;
#N canvas 381 134 450 300 decimal2binary 0;
#X obj 265 95 / 2;
#X obj 212 98 % 2;
#X floatatom 253 62 5 0 0 0 - - -;
#X obj 265 120 i;
#X obj 213 145 % 2;
#X obj 265 148 / 2;
#X obj 264 175 i;
#X obj 215 205 % 2;
#X obj 262 203 / 2;
#X obj 258 230 i;
#X obj 263 264 / 2;
#X obj 260 296 i;
#X obj 214 251 % 2;
#X obj 258 331 / 2;
#X obj 258 360 i;
#X obj 216 303 % 2;
#X obj 203 383 % 2;
#X obj 260 391 / 2;
#X obj 258 425 i;
#X obj 204 442 % 2;
#X obj 200 502 % 2;
#X obj 262 461 / 2;
#X obj 262 495 i;
#X obj 46 536 pack f f f f f f f f;
#X obj 37 588 outlet;
#X obj 204 33 inlet;
#X connect 0 0 3 0;
#X connect 1 0 23 7;
#X connect 2 0 1 0;
#X connect 2 0 0 0;
#X connect 3 0 4 0;
#X connect 3 0 5 0;
#X connect 4 0 23 6;
#X connect 5 0 6 0;
#X connect 6 0 7 0;
#X connect 6 0 8 0;
#X connect 7 0 23 5;
#X connect 8 0 9 0;
#X connect 9 0 10 0;
#X connect 9 0 12 1;
#X connect 10 0 11 0;
#X connect 11 0 13 0;
#X connect 11 0 15 0;
#X connect 12 0 23 4;
#X connect 13 0 14 0;
#X connect 14 0 16 0;
#X connect 14 0 17 0;
#X connect 15 0 23 3;
#X connect 16 0 23 2;
#X connect 17 0 18 0;
#X connect 18 0 19 0;
#X connect 18 0 21 0;
#X connect 19 0 23 1;
#X connect 20 0 23 0;
#X connect 21 0 22 0;
#X connect 22 0 20 0;
#X connect 23 0 24 0;
#X connect 25 0 2 0;
#X restore 162 227 pd decimal2binary;
#X obj 211 94 tof/param /invert 0 /g slider 0 127;
#X obj 208 122 tof/param /mute 0 /g slider 0 127;
#X obj 185 69 tof/param /dc 0 /g toggle 0 1;
#N canvas 381 134 450 300 decimal2binary 0;
#X obj 265 95 / 2;
#X obj 212 98 % 2;
#X floatatom 253 62 5 0 0 0 - - -;
#X obj 265 120 i;
#X obj 213 145 % 2;
#X obj 265 148 / 2;
#X obj 264 175 i;
#X obj 215 205 % 2;
#X obj 262 203 / 2;
#X obj 258 230 i;
#X obj 263 264 / 2;
#X obj 260 296 i;
#X obj 214 251 % 2;
#X obj 258 331 / 2;
#X obj 258 360 i;
#X obj 216 303 % 2;
#X obj 203 383 % 2;
#X obj 260 391 / 2;
#X obj 258 425 i;
#X obj 204 442 % 2;
#X obj 200 502 % 2;
#X obj 262 461 / 2;
#X obj 262 495 i;
#X obj 46 536 pack f f f f f f f f;
#X obj 37 588 outlet;
#X obj 204 33 inlet;
#X connect 0 0 3 0;
#X connect 1 0 23 7;
#X connect 2 0 1 0;
#X connect 2 0 0 0;
#X connect 3 0 4 0;
#X connect 3 0 5 0;
#X connect 4 0 23 6;
#X connect 5 0 6 0;
#X connect 6 0 7 0;
#X connect 6 0 8 0;
#X connect 7 0 23 5;
#X connect 8 0 9 0;
#X connect 9 0 10 0;
#X connect 9 0 12 1;
#X connect 10 0 11 0;
#X connect 11 0 13 0;
#X connect 11 0 15 0;
#X connect 12 0 23 4;
#X connect 13 0 14 0;
#X connect 14 0 16 0;
#X connect 14 0 17 0;
#X connect 15 0 23 3;
#X connect 16 0 23 2;
#X connect 17 0 18 0;
#X connect 18 0 19 0;
#X connect 18 0 21 0;
#X connect 19 0 23 1;
#X connect 20 0 23 0;
#X connect 21 0 22 0;
#X connect 22 0 20 0;
#X connect 23 0 24 0;
#X connect 25 0 2 0;
#X restore 277 209 pd decimal2binary;
#N canvas 381 134 450 300 decimal2binary 0;
#X obj 265 95 / 2;
#X obj 212 98 % 2;
#X floatatom 253 62 5 0 0 0 - - -;
#X obj 265 120 i;
#X obj 213 145 % 2;
#X obj 265 148 / 2;
#X obj 264 175 i;
#X obj 215 205 % 2;
#X obj 262 203 / 2;
#X obj 258 230 i;
#X obj 263 264 / 2;
#X obj 260 296 i;
#X obj 214 251 % 2;
#X obj 258 331 / 2;
#X obj 258 360 i;
#X obj 216 303 % 2;
#X obj 203 383 % 2;
#X obj 260 391 / 2;
#X obj 258 425 i;
#X obj 204 442 % 2;
#X obj 200 502 % 2;
#X obj 262 461 / 2;
#X obj 262 495 i;
#X obj 46 536 pack f f f f f f f f;
#X obj 37 588 outlet;
#X obj 204 33 inlet;
#X connect 0 0 3 0;
#X connect 1 0 23 7;
#X connect 2 0 1 0;
#X connect 2 0 0 0;
#X connect 3 0 4 0;
#X connect 3 0 5 0;
#X connect 4 0 23 6;
#X connect 5 0 6 0;
#X connect 6 0 7 0;
#X connect 6 0 8 0;
#X connect 7 0 23 5;
#X connect 8 0 9 0;
#X connect 9 0 10 0;
#X connect 9 0 12 1;
#X connect 10 0 11 0;
#X connect 11 0 13 0;
#X connect 11 0 15 0;
#X connect 12 0 23 4;
#X connect 13 0 14 0;
#X connect 14 0 16 0;
#X connect 14 0 17 0;
#X connect 15 0 23 3;
#X connect 16 0 23 2;
#X connect 17 0 18 0;
#X connect 18 0 19 0;
#X connect 18 0 21 0;
#X connect 19 0 23 1;
#X connect 20 0 23 0;
#X connect 21 0 22 0;
#X connect 22 0 20 0;
#X connect 23 0 24 0;
#X connect 25 0 2 0;
#X restore 296 234 pd decimal2binary;
#X connect 1 0 7 0;
#X connect 1 0 13 0;
#X connect 2 0 7 1;
#X connect 2 0 14 0;
#X connect 4 0 10 0;
#X connect 5 0 8 0;
#X connect 7 0 0 0;
#X connect 7 1 3 0;
#X connect 8 0 9 0;
#X connect 9 0 7 4;
#X connect 10 0 6 0;
#X connect 11 0 12 0;
#X connect 13 0 7 2;
#X connect 14 0 7 3;
#X connect 15 0 13 2;
#X connect 16 0 13 3;
#X connect 17 0 15 0;
#X connect 17 0 20 0;
#X connect 18 0 16 0;
#X connect 18 0 21 0;
#X connect 19 0 13 1;
#X connect 19 0 14 1;
#X connect 20 0 14 2;
#X connect 21 0 14 3;
