#N canvas 0 25 1272 692 10;
#X obj 66 300 outlet~;
#X obj 227 308 outlet~;
#X obj 27 47 inlet~;
#X obj 996 37 inlet params;
#X obj 996 83 print PARAM_NOTFOUND;
#X obj 996 59 tof/param route;
#X obj 974 183 b;
#X obj 975 212 tof/param gui;
#X obj 145 43 inlet~;
#N canvas 0 25 1272 692 chebychev 0;
#X obj 172 207 *~ 128;
#X obj 174 238 +~ 129;
#X obj 178 303 *~ 0.25;
#X obj 176 269 tabread4~ cheby_builder;
#X obj 186 152 inlet~;
#X obj 190 372 outlet~;
#X connect 0 0 1 0;
#X connect 1 0 3 0;
#X connect 2 0 5 0;
#X connect 3 0 2 0;
#X connect 4 0 0 0;
#X restore 69 212 pd chebychev;
#N canvas 0 0 450 300 chebychev 0;
#X obj 182 217 *~ 128;
#X obj 184 248 +~ 129;
#X obj 188 313 *~ 0.25;
#X obj 186 279 tabread4~ cheby_builder;
#X obj 196 162 inlet~;
#X obj 200 382 outlet~;
#X connect 0 0 1 0;
#X connect 1 0 3 0;
#X connect 2 0 5 0;
#X connect 3 0 2 0;
#X connect 4 0 0 0;
#X restore 206 217 pd chebychev;
#N canvas 0 22 800 671 cheby_expr 0;
#X obj 179 11 expr $f2*$f1;
#X text 269 12 T1(x);
#X obj 177 59 expr $f2*(2*(pow($f1 \, (2))) - 1);
#X text 398 61 T2(x);
#X obj 174 106 expr $f2*(4*(pow($f1 \, (3))) - 3*$f1);
#X text 409 107 T3(x);
#X text 508 162 T4(x);
#X obj 176 157 expr $f2*(8*(pow($f1 \, (4))) - 8*(pow($f1 \, (2)))
+ 1);
#X obj 176 209 expr $f2*(16*(pow($f1 \, (5))) - 20*(pow($f1 \, (3)))
+ 5*$f1);
#X text 541 213 T5(x);
#X obj 177 248 expr $f2*(32*(pow($f1 \, (6))) - 48*(pow($f1 \, (4)))
+ 18*(pow($f1 \, (2))) - 1);
#X text 533 254 T6(x);
#X obj 176 313 expr $f2*(64*(pow($f1 \, (7))) - 112*(pow($f1 \, (5)))
+ 56*(pow($f1 \, (3))) - 7*$f1);
#X text 524 320 T7(x);
#X obj 181 375 expr $f2*(128*(pow($f1 \, (8))) - 256*(pow($f1 \, (6)))
+ 160*(pow($f1 \, (4))) - 32*(pow($f1 \, (2))) + 1);
#X text 527 380 T8(x);
#X obj 183 445 expr $f2*(256*(pow($f1 \, (9))) - 576*(pow($f1 \, (7)))
+ 432*(pow($f1 \, (5))) - 120*(pow($f1 \, (3))) + 9*$f1);
#X text 522 449 T9(x);
#X obj 183 504 expr $f2*(512*(pow($f1 \, (10))) - 1280*(pow($f1 \,
(8))) + 1120*(pow($f1 \, (6))) - 400*(pow($f1 \, (4))) + 50*(pow($f1
\, (2))) - 1);
#X text 546 513 T10(x);
#X obj 183 568 expr $f2*(1024*(pow($f1 \, (11))) - 2816*(pow($f1 \,
(9))) + 2816*(pow($f1 \, (7))) - 1232*(pow($f1 \, (5))) + 220*(pow($f1
\, (3))) - 11*$f1);
#X text 556 573 T11(x);
#X restore 738 72 pd cheby_expr;
#N canvas 0 22 1259 679 builder 0;
#N canvas 0 22 450 300 T0(x) 0;
#X obj 124 90 inlet x;
#X obj 209 90 inlet amplitude;
#X obj 155 178 outlet;
#X obj 183 134 * 1;
#X text 135 218 just produces dc offset???;
#X connect 1 0 3 0;
#X connect 3 0 2 0;
#X restore 33 368 pd T0(x);
#N canvas 0 22 450 300 T1(x) 0;
#X obj 119 116 expr $f2*$f1;
#X obj 107 88 inlet x;
#X obj 188 87 inlet amp;
#X obj 118 146 outlet;
#X connect 0 0 3 0;
#X connect 1 0 0 0;
#X connect 2 0 0 1;
#X restore 99 367 pd T1(x);
#N canvas 0 22 450 300 T2(x) 0;
#X obj 101 123 expr $f2*(2*(pow($f1 \, (2))) - 1);
#X obj 101 82 inlet x;
#X obj 291 82 inlet amp;
#X obj 99 166 outlet;
#X connect 0 0 3 0;
#X connect 1 0 0 0;
#X connect 2 0 0 1;
#X restore 164 367 pd T2(x);
#N canvas 0 22 450 300 T3(x) 0;
#X obj 104 134 expr $f2*(4*(pow($f1 \, (3))) - 3*$f1);
#X obj 104 100 inlet x;
#X obj 265 99 inlet amp;
#X obj 104 175 outlet;
#X connect 0 0 3 0;
#X connect 1 0 0 0;
#X connect 2 0 0 1;
#X restore 229 367 pd T3(x);
#N canvas 0 22 450 300 T4(x) 0;
#X obj 64 150 expr $f2*(8*(pow($f1 \, (4))) - 8*(pow($f1 \, (2))) +
1);
#X obj 62 112 inlet x;
#X obj 320 106 inlet amp;
#X obj 64 190 outlet;
#X connect 0 0 3 0;
#X connect 1 0 0 0;
#X connect 2 0 0 1;
#X restore 295 369 pd T4(x);
#N canvas 0 22 450 300 T5(x) 0;
#X obj 44 148 expr $f2*(16*(pow($f1 \, (5))) - 20*(pow($f1 \, (3)))
+ 5*$f1);
#X obj 46 99 inlet x;
#X obj 338 106 inlet amp;
#X obj 44 196 outlet;
#X connect 0 0 3 0;
#X connect 1 0 0 0;
#X connect 2 0 0 1;
#X restore 369 371 pd T5(x);
#N canvas 0 22 450 300 T6(x) 0;
#X obj 54 146 expr $f2*(32*(pow($f1 \, (6))) - 48*(pow($f1 \, (4)))
+ 18*(pow($f1 \, (2))) - 1);
#X obj 57 100 inlet x;
#X obj 305 104 inlet amp;
#X obj 57 209 outlet;
#X connect 0 0 3 0;
#X connect 1 0 0 0;
#X connect 2 0 0 1;
#X restore 21 475 pd T6(x);
#N canvas 0 22 522 277 T7(x) 0;
#X obj 54 103 expr $f2*(64*(pow($f1 \, (7))) - 112*(pow($f1 \, (5)))
+ 56*(pow($f1 \, (3))) - 7*$f1);
#X obj 56 53 inlet x;
#X obj 312 57 inlet amp;
#X obj 55 167 outlet;
#X connect 0 0 3 0;
#X connect 1 0 0 0;
#X connect 2 0 0 1;
#X restore 92 472 pd T7(x);
#N canvas 0 22 491 214 T8(x) 0;
#X obj 36 92 expr $f2*(128*(pow($f1 \, (8))) - 256*(pow($f1 \, (6)))
+ 160*(pow($f1 \, (4))) - 32*(pow($f1 \, (2))) + 1);
#X obj 41 42 inlet x;
#X obj 265 45 inlet amp;
#X obj 40 151 outlet;
#X connect 0 0 3 0;
#X connect 1 0 0 0;
#X connect 2 0 0 1;
#X restore 155 470 pd T8(x);
#N canvas 0 22 514 206 T9(x) 0;
#X obj 49 86 expr $f2*(256*(pow($f1 \, (9))) - 576*(pow($f1 \, (7)))
+ 432*(pow($f1 \, (5))) - 120*(pow($f1 \, (3))) + 9*$f1);
#X obj 49 43 inlet x;
#X obj 279 42 inlet amp;
#X obj 55 143 outlet;
#X connect 0 0 3 0;
#X connect 1 0 0 0;
#X connect 2 0 0 1;
#X restore 224 471 pd T9(x);
#N canvas 0 22 530 226 T10(x) 0;
#X obj 40 81 expr $f2*(512*(pow($f1 \, (10))) - 1280*(pow($f1 \, (8)))
+ 1120*(pow($f1 \, (6))) - 400*(pow($f1 \, (4))) + 50*(pow($f1 \, (2)))
- 1);
#X obj 40 38 inlet x;
#X obj 324 42 inlet amp;
#X obj 39 150 outlet;
#X connect 0 0 3 0;
#X connect 1 0 0 0;
#X connect 2 0 0 1;
#X restore 286 470 pd T10(x);
#N canvas 0 22 534 242 T11(x) 0;
#X obj 45 72 expr $f2*(1024*(pow($f1 \, (11))) - 2816*(pow($f1 \, (9)))
+ 2816*(pow($f1 \, (7))) - 1232*(pow($f1 \, (5))) + 220*(pow($f1 \,
(3))) - 11*$f1);
#X obj 46 23 inlet x;
#X obj 334 28 inlet amp;
#X obj 47 136 outlet;
#X connect 0 0 3 0;
#X connect 1 0 0 0;
#X connect 2 0 0 1;
#X restore 360 470 pd T11(x);
#X obj 48 321 t f f;
#N canvas 0 22 1159 571 adder 0;
#X obj 51 85 > 0;
#X obj 40 61 t f f;
#X obj 42 113 +;
#X obj 43 177 +;
#X obj 42 22 r T0;
#X obj 127 23 r T1;
#X obj 200 25 r T2;
#X obj 271 26 r T3;
#X obj 338 25 r T4;
#X obj 409 26 r T5;
#X obj 474 27 r T6;
#X obj 554 33 r T7;
#X obj 643 39 r T8;
#X obj 759 37 r T9;
#X obj 911 34 r T10;
#X obj 1057 33 r T11;
#X obj 138 78 > 0;
#X obj 127 54 t f f;
#X obj 129 106 +;
#X obj 129 138 t b f;
#X obj 209 133 > 0;
#X obj 198 109 t f f;
#X obj 200 161 +;
#X obj 193 193 t b f;
#X obj 115 233 +;
#X obj 270 160 > 0;
#X obj 259 136 t f f;
#X obj 261 188 +;
#X obj 261 220 t b f;
#X obj 202 263 +;
#X obj 323 176 > 0;
#X obj 312 152 t f f;
#X obj 314 204 +;
#X obj 314 236 t b f;
#X obj 269 285 +;
#X obj 398 202 > 0;
#X obj 387 178 t f f;
#X obj 389 230 +;
#X obj 389 262 t b f;
#X obj 344 311 +;
#X obj 474 222 > 0;
#X obj 463 198 t f f;
#X obj 465 250 +;
#X obj 465 282 t b f;
#X obj 420 331 +;
#X obj 560 246 > 0;
#X obj 549 222 t f f;
#X obj 551 274 +;
#X obj 551 306 t b f;
#X obj 506 355 +;
#X obj 644 269 > 0;
#X obj 633 245 t f f;
#X obj 635 297 +;
#X obj 635 329 t b f;
#X obj 590 378 +;
#X obj 723 286 > 0;
#X obj 712 262 t f f;
#X obj 714 314 +;
#X obj 714 346 t b f;
#X obj 669 395 +;
#X obj 795 313 > 0;
#X obj 784 289 t f f;
#X obj 786 341 +;
#X obj 786 373 t b f;
#X obj 741 422 +;
#X obj 879 339 > 0;
#X obj 868 315 t f f;
#X obj 870 367 +;
#X obj 870 399 t b f;
#X obj 825 448 +;
#X obj 830 487 s div;
#X connect 0 0 2 1;
#X connect 1 0 2 0;
#X connect 1 1 0 0;
#X connect 2 0 3 0;
#X connect 3 0 24 0;
#X connect 4 0 1 0;
#X connect 5 0 17 0;
#X connect 6 0 21 0;
#X connect 7 0 26 0;
#X connect 8 0 31 0;
#X connect 9 0 36 0;
#X connect 10 0 41 0;
#X connect 11 0 46 0;
#X connect 12 0 51 0;
#X connect 13 0 56 0;
#X connect 14 0 61 0;
#X connect 15 0 66 0;
#X connect 16 0 18 1;
#X connect 17 0 18 0;
#X connect 17 1 16 0;
#X connect 18 0 19 0;
#X connect 19 0 3 0;
#X connect 19 1 3 1;
#X connect 20 0 22 1;
#X connect 21 0 22 0;
#X connect 21 1 20 0;
#X connect 22 0 23 0;
#X connect 23 0 24 0;
#X connect 23 1 24 1;
#X connect 24 0 29 0;
#X connect 25 0 27 1;
#X connect 26 0 27 0;
#X connect 26 1 25 0;
#X connect 27 0 28 0;
#X connect 28 0 29 0;
#X connect 28 1 29 1;
#X connect 29 0 34 0;
#X connect 30 0 32 1;
#X connect 31 0 32 0;
#X connect 31 1 30 0;
#X connect 32 0 33 0;
#X connect 33 0 34 0;
#X connect 33 1 34 1;
#X connect 34 0 39 0;
#X connect 35 0 37 1;
#X connect 36 0 37 0;
#X connect 36 1 35 0;
#X connect 37 0 38 0;
#X connect 38 0 39 0;
#X connect 38 1 39 1;
#X connect 39 0 44 0;
#X connect 40 0 42 1;
#X connect 41 0 42 0;
#X connect 41 1 40 0;
#X connect 42 0 43 0;
#X connect 43 0 44 0;
#X connect 43 1 44 1;
#X connect 44 0 49 0;
#X connect 45 0 47 1;
#X connect 46 0 47 0;
#X connect 46 1 45 0;
#X connect 47 0 48 0;
#X connect 48 0 49 0;
#X connect 48 1 49 1;
#X connect 49 0 54 0;
#X connect 50 0 52 1;
#X connect 51 0 52 0;
#X connect 51 1 50 0;
#X connect 52 0 53 0;
#X connect 53 0 54 0;
#X connect 53 1 54 1;
#X connect 54 0 59 0;
#X connect 55 0 57 1;
#X connect 56 0 57 0;
#X connect 56 1 55 0;
#X connect 57 0 58 0;
#X connect 58 0 59 0;
#X connect 58 1 59 1;
#X connect 59 0 64 0;
#X connect 60 0 62 1;
#X connect 61 0 62 0;
#X connect 61 1 60 0;
#X connect 62 0 63 0;
#X connect 63 0 64 0;
#X connect 63 1 64 1;
#X connect 64 0 69 0;
#X connect 65 0 67 1;
#X connect 66 0 67 0;
#X connect 66 1 65 0;
#X connect 67 0 68 0;
#X connect 68 0 69 0;
#X connect 68 1 69 1;
#X connect 69 0 70 0;
#X restore 880 605 pd adder;
#X obj 196 592 r div;
#X floatatom 195 618 5 0 0 0 - - -;
#X obj 54 344 s T0;
#X obj 119 316 t f f;
#X obj 125 339 s T1;
#X obj 183 316 t f f;
#X obj 189 339 s T2;
#X obj 249 314 t f f;
#X obj 255 337 s T3;
#X obj 314 313 t f f;
#X obj 320 336 s T4;
#X obj 385 316 t f f;
#X obj 391 339 s T5;
#X obj 37 420 t f f;
#X obj 43 443 s T6;
#X obj 109 423 t f f;
#X obj 115 446 s T7;
#X obj 173 419 t f f;
#X obj 179 442 s T8;
#X obj 244 416 t f f;
#X obj 250 439 s T9;
#X obj 309 415 t f f;
#X obj 315 438 s T10;
#X obj 384 416 t f f;
#X obj 390 439 s T11;
#N canvas 0 22 994 582 wave_adder 0;
#X obj 43 177 +;
#X obj 129 138 t b f;
#X obj 193 193 t b f;
#X obj 115 233 +;
#X obj 261 220 t b f;
#X obj 202 263 +;
#X obj 314 236 t b f;
#X obj 269 285 +;
#X obj 389 262 t b f;
#X obj 344 311 +;
#X obj 465 282 t b f;
#X obj 420 331 +;
#X obj 551 306 t b f;
#X obj 506 355 +;
#X obj 635 329 t b f;
#X obj 590 378 +;
#X obj 714 346 t b f;
#X obj 669 395 +;
#X obj 786 373 t b f;
#X obj 741 422 +;
#X obj 870 399 t b f;
#X obj 825 448 +;
#X obj 38 69 inlet T0;
#X obj 130 103 inlet T1;
#X obj 193 156 inlet T2;
#X obj 262 183 inlet T3;
#X obj 314 206 inlet T4;
#X obj 388 226 inlet T5;
#X obj 462 241 inlet T6;
#X obj 553 265 inlet T7;
#X obj 630 294 inlet T8;
#X obj 712 314 inlet T9;
#X obj 782 338 inlet T10;
#X obj 866 364 inlet T11;
#X obj 826 484 outlet;
#X connect 0 0 3 0;
#X connect 1 0 0 0;
#X connect 1 1 0 1;
#X connect 2 0 3 0;
#X connect 2 1 3 1;
#X connect 3 0 5 0;
#X connect 4 0 5 0;
#X connect 4 1 5 1;
#X connect 5 0 7 0;
#X connect 6 0 7 0;
#X connect 6 1 7 1;
#X connect 7 0 9 0;
#X connect 8 0 9 0;
#X connect 8 1 9 1;
#X connect 9 0 11 0;
#X connect 10 0 11 0;
#X connect 10 1 11 1;
#X connect 11 0 13 0;
#X connect 12 0 13 0;
#X connect 12 1 13 1;
#X connect 13 0 15 0;
#X connect 14 0 15 0;
#X connect 14 1 15 1;
#X connect 15 0 17 0;
#X connect 16 0 17 0;
#X connect 16 1 17 1;
#X connect 17 0 19 0;
#X connect 18 0 19 0;
#X connect 18 1 19 1;
#X connect 19 0 21 0;
#X connect 20 0 21 0;
#X connect 20 1 21 1;
#X connect 21 0 34 0;
#X connect 22 0 0 0;
#X connect 23 0 1 0;
#X connect 24 0 2 0;
#X connect 25 0 4 0;
#X connect 26 0 6 0;
#X connect 27 0 8 0;
#X connect 28 0 10 0;
#X connect 29 0 12 0;
#X connect 30 0 14 0;
#X connect 31 0 16 0;
#X connect 32 0 18 0;
#X connect 33 0 20 0;
#X restore 160 565 pd wave_adder;
#X obj 130 236 t f f f f f f f f f f f f;
#N canvas 0 22 450 300 (subpatch) 0;
#X array cheby_builder 259 float 2;
#X coords 0 1 259 -1 200 140 1;
#X restore 448 522 graph;
#X obj 160 613 /;
#X obj 158 648 tabwrite cheby_builder;
#X obj 150 98 until;
#X msg 151 67 258;
#X obj 150 132 f;
#X obj 196 133 + 1;
#X msg 204 98 0;
#X obj 151 166 t f f;
#X obj 200 164 s place;
#X obj 310 603 r place;
#X obj 150 40 t b b;
#X obj 147 197 expr ($f1 - 129) / 128;
#X obj 46 293 r amp0;
#X obj 116 291 r amp1;
#X obj 181 290 r amp2;
#X obj 244 291 r amp3;
#X obj 310 288 r amp4;
#X obj 376 288 r amp5;
#X obj 28 393 r amp6;
#X obj 94 394 r amp7;
#X obj 169 394 r amp8;
#X obj 241 390 r amp9;
#X obj 308 392 r amp10;
#X obj 381 392 r amp11;
#X obj 803 171 bng 30 250 50 0 build empty BUILD 0 -10 0 20 -204750
-1 -1;
#X obj 148 3 r build;
#X obj 758 28 inlet amp5;
#X obj 475 28 inlet amp1;
#X obj 553 27 inlet amp2;
#X obj 618 28 inlet amp3;
#X obj 687 29 inlet amp4;
#X obj 832 27 inlet amp6;
#X obj 902 25 inlet amp7;
#X obj 974 23 inlet amp8;
#X obj 1043 23 inlet amp9;
#X obj 1116 23 inlet amp10;
#X obj 1193 23 inlet amp11;
#X obj 476 62 s amp1;
#X obj 406 29 inlet amp0;
#X obj 407 63 s amp0;
#X obj 552 64 s amp2;
#X obj 622 64 s amp3;
#X obj 691 65 s amp4;
#X obj 758 66 s amp5;
#X obj 830 68 s amp6;
#X obj 901 57 s amp7;
#X obj 974 56 s amp8;
#X obj 1044 64 s amp9;
#X obj 1118 63 s amp10;
#X obj 1189 61 s amp11;
#X connect 0 0 39 0;
#X connect 1 0 39 1;
#X connect 2 0 39 2;
#X connect 3 0 39 3;
#X connect 4 0 39 4;
#X connect 5 0 39 5;
#X connect 6 0 39 6;
#X connect 7 0 39 7;
#X connect 8 0 39 8;
#X connect 9 0 39 9;
#X connect 10 0 39 10;
#X connect 11 0 39 11;
#X connect 12 0 0 1;
#X connect 12 1 16 0;
#X connect 14 0 15 0;
#X connect 15 0 42 1;
#X connect 17 0 1 1;
#X connect 17 1 18 0;
#X connect 19 0 2 1;
#X connect 19 1 20 0;
#X connect 21 0 3 1;
#X connect 21 1 22 0;
#X connect 23 0 4 1;
#X connect 23 1 24 0;
#X connect 25 0 5 1;
#X connect 25 1 26 0;
#X connect 27 0 6 1;
#X connect 27 1 28 0;
#X connect 29 0 7 1;
#X connect 29 1 30 0;
#X connect 31 0 8 1;
#X connect 31 1 32 0;
#X connect 33 0 9 1;
#X connect 33 1 34 0;
#X connect 35 0 10 1;
#X connect 35 1 36 0;
#X connect 37 0 11 1;
#X connect 37 1 38 0;
#X connect 39 0 42 0;
#X connect 40 0 0 0;
#X connect 40 1 1 0;
#X connect 40 2 2 0;
#X connect 40 3 3 0;
#X connect 40 4 4 0;
#X connect 40 5 5 0;
#X connect 40 6 6 0;
#X connect 40 7 7 0;
#X connect 40 8 8 0;
#X connect 40 9 9 0;
#X connect 40 10 10 0;
#X connect 40 11 11 0;
#X connect 42 0 43 0;
#X connect 44 0 46 0;
#X connect 45 0 44 0;
#X connect 46 0 47 0;
#X connect 46 0 49 0;
#X connect 47 0 46 1;
#X connect 48 0 46 1;
#X connect 49 0 53 0;
#X connect 49 1 50 0;
#X connect 51 0 43 1;
#X connect 52 0 45 0;
#X connect 52 1 48 0;
#X connect 53 0 40 0;
#X connect 54 0 12 0;
#X connect 55 0 17 0;
#X connect 56 0 19 0;
#X connect 57 0 21 0;
#X connect 58 0 23 0;
#X connect 59 0 25 0;
#X connect 60 0 27 0;
#X connect 61 0 29 0;
#X connect 62 0 31 0;
#X connect 63 0 33 0;
#X connect 64 0 35 0;
#X connect 65 0 37 0;
#X connect 67 0 52 0;
#X connect 68 0 66 0;
#X connect 68 0 85 0;
#X connect 69 0 79 0;
#X connect 69 0 66 0;
#X connect 70 0 66 0;
#X connect 70 0 82 0;
#X connect 71 0 66 0;
#X connect 71 0 83 0;
#X connect 72 0 66 0;
#X connect 72 0 84 0;
#X connect 73 0 66 0;
#X connect 73 0 86 0;
#X connect 74 0 66 0;
#X connect 74 0 87 0;
#X connect 75 0 66 0;
#X connect 75 0 88 0;
#X connect 76 0 66 0;
#X connect 76 0 89 0;
#X connect 77 0 66 0;
#X connect 77 0 90 0;
#X connect 78 0 66 0;
#X connect 78 0 91 0;
#X connect 80 0 81 0;
#X connect 80 0 66 0;
#X coords 0 0 1 1 340 600 0;
#X restore 458 427 pd builder ______________;
#X obj 299 31 tof/param /amp0 1 /g slider 0 10;
#X obj 325 56 tof/param /amp1 1 /g slider 0 10;
#X obj 367 76 tof/param /amp2 1 /g slider 0 10;
#X obj 396 101 tof/param /amp3 1 /g slider 0 10;
#X obj 434 127 tof/param /amp4 1 /g slider 0 10;
#X obj 472 154 tof/param /amp5 1 /g slider 0 10;
#X obj 509 181 tof/param /amp6 1 /g slider 0 10;
#X obj 540 204 tof/param /amp7 1 /g slider 0 10;
#X obj 579 231 tof/param /amp8 1 /g slider 0 10;
#X obj 616 256 tof/param /amp9 1 /g slider 0 10;
#X obj 652 282 tof/param /amp10 1 /g slider 0 10;
#X obj 695 307 tof/param /amp11 1 /g slider 0 10;
#X connect 2 0 9 0;
#X connect 3 0 5 0;
#X connect 5 0 4 0;
#X connect 6 0 7 0;
#X connect 8 0 10 0;
#X connect 9 0 0 0;
#X connect 10 0 1 0;
#X connect 13 0 12 0;
#X connect 14 0 12 1;
#X connect 15 0 12 2;
#X connect 16 0 12 3;
#X connect 17 0 12 4;
#X connect 18 0 12 5;
#X connect 19 0 12 6;
#X connect 20 0 12 7;
#X connect 21 0 12 8;
#X connect 22 0 12 9;
#X connect 23 0 12 10;
#X connect 24 0 12 11;
