#N canvas 0 25 1272 692 10;
#X obj 66 300 outlet~;
#X obj 227 308 outlet~;
#X obj 27 47 inlet~;
#X obj 996 37 inlet params;
#X obj 996 83 print PARAM_NOTFOUND;
#X obj 996 59 tof/param route;
#X obj 974 183 b;
#X obj 975 212 tof/param gui;
#X obj 145 43 inlet~;
#X obj 219 111 tof/param /pre-gain 0.5 /g slide 0.5 20;
#X obj 108 208 creb/dist~;
#X obj 179 206 creb/dist~;
#X connect 2 0 10 0;
#X connect 3 0 5 0;
#X connect 5 0 4 0;
#X connect 6 0 7 0;
#X connect 8 0 11 0;
#X connect 9 0 10 1;
#X connect 9 0 11 1;
#X connect 10 0 0 0;
#X connect 11 0 1 0;
