#N canvas 0 25 1272 692 10;
#X obj -25 118 *~ 0.5;
#X obj 71 117 *~ 0.5;
#X obj -25 177 mtl/out~;
#X text -29 46 tags: fx~;
#X obj -25 94 osc~ 110;
#X obj 71 93 osc~ 110;
#X text 163 143 <-Click on the propeties menu to display params;
#X obj 270 40 cnv 15 200 40 empty empty empty 20 12 0 14 -232576 -66577
0;
#X text 330 41 PARAM ENABLED;
#X obj 272 174 cnv 15 200 20 empty empty /distro8bit/ 2 12 0 8 -258401
-262144 0;
#X obj 272 197 hsl 100 15 0 1 0 0 /distro8bit/wet /distro8bit/wet_
wet 105 7 0 8 -262144 -1 -1 7000 1;
#X obj 269 63 tof/open_help tof/param;
#X obj -26 146 mtl/distro8bit~ /id distro8bit;
#X text -29 12 Description: Distorsion 8 bit;
#X obj 272 216 hsl 100 15 0 127 0 0 /distro8bit/invert /distro8bit/invert_
invert 105 7 0 8 -262144 -1 -1 8900 1;
#X obj 272 234 hsl 100 15 0 127 0 0 /distro8bit/mute /distro8bit/mute_
mute 105 7 0 8 -262144 -1 -1 3900 1;
#X obj 268 253 tgl 15 0 /distro8bit/dc /distro8bit/dc_ dc 17 7 0 10
-262144 -1 -1 0 1;
#X connect 0 0 12 0;
#X connect 1 0 12 1;
#X connect 4 0 0 0;
#X connect 5 0 1 0;
#X connect 12 0 2 0;
#X connect 12 1 2 1;
