#N canvas 0 0 1272 714 10;
#X obj 50 109 *~ 0.5;
#X obj 134 110 *~ 0.5;
#X obj 51 179 mtl/out~;
#X obj 51 85 osc~ 110;
#X obj 134 85 osc~ 110;
#X obj 24 233 cyclone/Scope~ 130 130 256 3 128 -1 1 0 0 0 0 102 255
51 135 135 135 0;
#X obj 215 233 cyclone/Scope~ 130 130 256 3 128 -1 1 0 0 0 0 102 255
51 135 135 135 0;
#X text 712 140 tags: fx~;
#X obj 310 59 cnv 15 200 40 empty empty empty 20 12 0 14 -232576 -66577
0;
#X text 370 60 PARAM ENABLED;
#X obj 377 213 cnv 15 200 20 empty empty /distoWaveShaper-Tarrabia/
2 12 0 8 -258401 -262144 0;
#X obj 377 236 hsl 100 15 0 1 0 0 /distoWaveShaper-Tarrabia/wet /distoWaveShaper-Tarrabia/wet_
wet 105 7 0 8 -262144 -1 -1 0 1;
#X obj 377 255 hsl 100 15 -1 1 0 0 /distoWaveShaper-Tarrabia/amount
/distoWaveShaper-Tarrabia/amount_ amount 105 7 0 8 -262144 -1 -1 4950
1;
#X obj 345 79 tof/open_help tof/param;
#X text 721 179 Extract from http://www.musicdsp.org/archive.php?classid=4
amount should be in [-1..1[ Plot it and stand back in astonishment!
\; ) Code : x = input in [-1..1] y = output k = 2*amount/(1-amount)
\; f(x) = (1+k)*x/(1+k*abs(x));
#X text 711 125 Author: Partice Tarrabia and Bram de Jong;
#X text 711 110 Description: a lofi distortion;
#X obj 51 146 mtl/distoWaveShaper-Tarrabia~ /id distoWaveShaper-Tarrabia
;
#X connect 0 0 5 0;
#X connect 0 0 17 0;
#X connect 1 0 17 1;
#X connect 3 0 0 0;
#X connect 4 0 1 0;
#X connect 17 0 2 0;
#X connect 17 1 2 1;
#X connect 17 1 6 0;
