#N canvas 0 25 1272 692 10;
#X obj 1 -21 cnv 15 690 30 empty empty doubling~ 2 12 1 14 -233017
-66577 0;
#X obj 70 255 mtl/out~;
#X obj 772 46 cnv 15 200 40 empty empty empty 20 12 0 14 -232576 -66577
0;
#X text 832 47 PARAM ENABLED;
#X obj 462 357 cnv 15 200 20 empty empty /doubling/ 2 12 0 8 -258401
-262144 0;
#X text 206 207 <-Click on the propeties menu to display params;
#X text 788 145 tags: fx~;
#X obj 771 69 tof/open_help tof/param;
#X obj 463 387 hsl 100 15 0 1 0 0 /doubling/wet /doubling/wet_ wet
105 7 0 8 -262144 -1 -1 0 1;
#X obj 137 54 openpanel;
#X obj 137 34 bng 15 250 50 0 empty empty empty 17 7 0 10 -262144 -1
-1;
#X text 158 33 You can load a sound file in the internal stereo tables
;
#X msg 136 75 read \$1;
#X text 197 50 (send a bang afterwards to play the loaded/selected
file);
#X obj 34 25 bng 30 250 50 0 empty empty empty 0 -6 0 10 -258113 -1
-1;
#X obj 463 409 hsl 100 15 1 200 0 0 /doubling/amplitude /doubling/amplitude_
amplitude 105 7 0 8 -262144 -1 -1 0 1;
#X obj 464 429 hsl 100 15 0 1 0 0 /doubling/frequency /doubling/frequency_
frequency 105 7 0 8 -262144 -1 -1 0 1;
#X obj 463 450 hsl 100 15 1 5 0 0 /doubling/offset /doubling/offset_
offset 105 7 0 8 -262144 -1 -1 0 1;
#X obj 912 113 cnv 15 250 536 empty empty empty 20 12 0 14 -228992
-66577 0;
#X text 915 139 RIF dont on fait varier le retard \,;
#X text 915 153 au cours du temps \, de maniere;
#X text 913 296 reglage de l'amplitude du retard;
#X text 912 350 Le parametre "Frequence" controle;
#X text 916 424 Le parametre "Taux d'effet" fixe;
#X text 915 439 la proportion du signal qui sera;
#X text 915 453 affecte par le retard variable (de;
#X text 915 467 0 a 100 %) \, son complement indique;
#X text 915 484 la proportion de signal qui n'est;
#X text 915 498 pas modifiee par l'effet (de 100 a;
#X text 915 514 0 %).;
#X text 914 124 Le doubling est un filtre en peigne;
#X text 915 168 aleatoire en utilisant un bruit;
#X text 915 183 basses frequences. Cet effet donne;
#X text 915 198 l'illusion de la presence d'une;
#X text 915 212 seconde source.;
#X text 913 239 Le parametre "Offset" correspond;
#X text 913 281 Le parametre "Amplitude" permet le;
#X text 913 310 variable (entre 0 et D0) qui vient;
#X text 913 323 s'ajouter au retard fixe D00.;
#X text 912 365 la frequence de repetiton du bruit;
#X text 912 379 basses frequences utilise pour le;
#X text 912 393 retard variable.;
#X text 913 254 au delai minimal introduit (D00).;
#X text 788 167 Romain Vuillet;
#X text 832 199 .;
#X text 793 120 doubling;
#X obj 81 146 mtl/player~ 0;
#X obj 161 110 tgl 15 0 empty empty empty 17 7 0 10 -262144 -1 -1 0
1;
#X text 179 113 Loop (stops looping when the end is reached);
#X obj 70 208 mtl/doubling~ /id doubling;
#X connect 9 0 12 0;
#X connect 10 0 9 0;
#X connect 12 0 46 0;
#X connect 14 0 46 0;
#X connect 46 0 49 0;
#X connect 46 0 49 1;
#X connect 47 0 46 1;
#X connect 49 0 1 0;
#X connect 49 1 1 1;
