#N canvas 0 82 1366 662 10;
#X obj 25 126 mtl/out~;
#X text 22 4 Description: Echo.;
#X text 22 21 tags: fx~;
#X obj 24 52 tgl 15 0 empty empty empty 17 7 0 10 -262144 -1 -1 1 1
;
#N canvas 5 185 450 300 generate~ 0;
#X obj 32 213 osc~ 200;
#X obj 32 89 metro 400;
#X obj 32 175 mtof;
#X obj 104 195 mtof;
#X obj 32 132 + 20;
#X obj 32 111 random 70;
#X floatatom 83 69 5 0 0 0 - - -, f 5;
#X obj 32 261 outlet~;
#X obj 103 261 outlet~;
#X obj 30 14 inlet;
#X obj 104 175 mtl/closestNote 0 2 4 7 9;
#X obj 104 234 *~;
#X obj 31 234 *~;
#X obj 104 214 osc~ 100;
#X obj 32 155 mtl/closestNote 0 2 4 7 9;
#X connect 0 0 12 0;
#X connect 1 0 5 0;
#X connect 2 0 0 0;
#X connect 3 0 13 0;
#X connect 4 0 10 0;
#X connect 4 0 14 0;
#X connect 5 0 4 0;
#X connect 6 0 1 1;
#X connect 9 0 1 0;
#X connect 9 0 11 1;
#X connect 9 0 12 1;
#X connect 10 0 3 0;
#X connect 11 0 8 0;
#X connect 12 0 7 0;
#X connect 13 0 11 0;
#X connect 14 0 2 0;
#X restore 24 77 pd generate~;
#X text 335 100 <-Click on the propeties menu to display params;
#X obj 348 272 cnv 15 200 20 empty empty /echovd/ 2 12 0 8 -258401
-262144 0;
#X obj 348 295 hsl 100 15 0 1 0 0 /echovd/wet /echovd/wet_ wet 105
7 0 8 -262144 -1 -1 9900 1;
#X obj 348 313 hsl 100 15 0 5000 0 0 /echovd/delay /echovd/delay_ delay
105 7 0 8 -262144 -1 -1 3960 1;
#X obj 348 331 hsl 100 15 0 1 0 0 /echovd/strength /echovd/strength_
strength 105 7 0 8 -262144 -1 -1 9900 1;
#X obj 24 101 mtl/echoVd~ /id echovd 1 2000 1;
#X connect 3 0 4 0;
#X connect 4 0 10 0;
#X connect 4 1 10 1;
#X connect 10 0 0 0;
#X connect 10 1 0 1;
