#N canvas 1 82 1272 661 10;
#X obj -25 177 mtl/out~;
#X text -29 26 tags: fx~;
#X text 190 147 <-Click on the propeties menu to display params;
#X obj 568 242 cnv 15 200 20 empty empty /eq3/ 2 12 0 8 -258401 -262144
0;
#X obj 568 265 hsl 100 15 0 1 0 0 /eq3/high /eq3/high_ high 105 7 0
8 -262144 -1 -1 5100 1;
#X obj 568 284 hsl 100 15 0 1 0 0 /eq3/mid /eq3/mid mid 105 7 0 8 -262144
-1 -1 3200 1;
#X obj 568 302 hsl 100 15 0 1 0 0 /eq3/low /eq3/low_ low 105 7 0 8
-262144 -1 -1 1079 1;
#N canvas 1 82 1280 661 chord 0;
#X obj 87 97 -~ 0.5;
#X obj 87 146 clip~ -0.5 0.5;
#X obj 87 169 cos~;
#X obj 499 293 hip~ 5;
#X obj 499 356 outlet~;
#X obj 87 122 *~ 3;
#X obj 87 74 phasor~ 220;
#X obj 221 97 -~ 0.5;
#X obj 221 146 clip~ -0.5 0.5;
#X obj 221 169 cos~;
#X obj 221 122 *~ 3;
#X obj 356 100 -~ 0.5;
#X obj 356 149 clip~ -0.5 0.5;
#X obj 356 172 cos~;
#X obj 356 125 *~ 3;
#X obj 491 100 -~ 0.5;
#X obj 491 149 clip~ -0.5 0.5;
#X obj 491 172 cos~;
#X obj 491 125 *~ 3;
#X obj 221 74 phasor~ 251;
#X obj 356 77 phasor~ 281;
#X obj 491 77 phasor~ 311;
#X text 147 32 test sound for phaser;
#X connect 0 0 5 0;
#X connect 1 0 2 0;
#X connect 2 0 3 0;
#X connect 3 0 4 0;
#X connect 5 0 1 0;
#X connect 6 0 0 0;
#X connect 7 0 10 0;
#X connect 8 0 9 0;
#X connect 9 0 3 0;
#X connect 10 0 8 0;
#X connect 11 0 14 0;
#X connect 12 0 13 0;
#X connect 13 0 3 0;
#X connect 14 0 12 0;
#X connect 15 0 18 0;
#X connect 16 0 17 0;
#X connect 17 0 3 0;
#X connect 18 0 16 0;
#X connect 19 0 7 0;
#X connect 20 0 11 0;
#X connect 21 0 15 0;
#X restore 6 97 pd chord;
#X text -29 12 Description: Equalizer;
#X obj -26 146 mtl/eq3~ /id eq3 0.21 0.5 0.75;
#X connect 7 0 9 1;
#X connect 7 0 9 0;
#X connect 9 0 0 0;
#X connect 9 1 0 1;
