#N canvas 0 25 1272 692 10;
#X obj 1 -21 cnv 15 690 30 empty empty even-odd~ 2 12 1 14 -233017
-66577 0;
#X obj 21 418 mtl/out~;
#X obj 251 272 cnv 15 200 40 empty empty empty 20 12 0 14 -232576 -66577
0;
#X text 311 273 PARAM ENABLED;
#X obj 253 319 cnv 15 200 20 empty empty /even-odd/ 2 12 0 8 -258401
-262144 0;
#X text 185 371 <-Click on the propeties menu to display params;
#X text 545 334 tags: fx~;
#X obj 250 295 tof/open_help tof/param;
#X obj 64 295 tgl 15 0 empty empty empty 17 7 0 10 -262144 -1 -1 1
1;
#X text 544 356 Author: Miller Pucket;
#X text 541 154 Splitting a sawtooth wave into even and odd harmonics
;
#X text 546 182 This patch splits a sawtooth wave into its even and
odd harmonics. The wrap~ object is used to make the phased copy. Adding
and subtracting this to and from the original gives the results shown
and heard. (Listen to the two outputs separately \, then together.)
;
#X text 542 262 This is a classic technique for gaining separate control
over the even and odd harmonics in a synthetic sound. It can also be
used conceptually to understand the harmonic content of a square wave
in terms of that of a sawtooth \, or vice versa.;
#X text 543 135 Description :;
#X obj 19 372 mtl/even-odd~ /id even-odd;
#X obj 29 329 *~;
#X obj 32 259 mtl/sawor~ /id sawor;
#X obj 21 92 mtl/piano 1;
#X text 543 96;
#X connect 8 0 15 1;
#X connect 14 0 1 0;
#X connect 14 1 1 1;
#X connect 15 0 14 0;
#X connect 16 0 15 0;
#X connect 17 0 16 0;
