#N canvas 1 82 1272 661 10;
#X obj 135 309 outlet~;
#X obj 227 308 outlet~;
#X obj 27 47 inlet~;
#X obj 996 37 inlet params;
#X obj 996 83 print PARAM_NOTFOUND;
#X obj 996 59 tof/param route;
#X obj 974 183 b;
#X obj 975 212 tof/param gui;
#N canvas 0 25 1272 692 ARGO 0;
#X text 909 157 Nommer FFTGeneral???;
#N canvas 0 22 577 300 (subpatch) 0;
#X array \$0-hann 512 float 0;
#X coords 0 0 511 1 300 100 0;
#X restore 387 331 graph;
#X obj 465 518 osc~;
#X obj 464 539 *~ -0.5;
#X obj 464 561 +~ 0.5;
#X obj 397 596 tabwrite~ \$0-hann;
#X obj 481 389 samplerate~;
#X obj 462 414 swap;
#X obj 462 438 /;
#X obj 461 365 t f b f;
#X msg 669 567 resize \$1;
#X obj 641 596 s \$0-hann;
#X msg 522 486 0;
#X obj 462 328 pow 2;
#X msg 462 305 2;
#X obj 462 282 t b f;
#X obj 462 260 + 6;
#X text 793 132 calculate Hann window table (variable window size)
;
#X text 469 347 <- window-size;
#X text 557 348 64..65536;
#X text 471 265 <- 6..16;
#X text 794 96 Voir Pd-0.40.3-extended -> 3.audio.examples/I05.compressor.pd
-> pd hann-window;
#X obj 538 537 phasor~;
#N canvas 9 234 450 300 (subpatch) 0;
#X array \$0-FFTIndex 512 float 0;
#X coords 0 0 511 1 300 100 0;
#X restore 386 359 graph;
#X obj 507 596 tabwrite~ \$0-FFTIndex;
#X obj 703 596 s \$0-FFTIndex;
#X obj 315 596 s \$0-FFTSize;
#X obj 513 245 cnv 10 20 10 empty ColorForm Overlap 1 5 1 9 -188398
-1 1.04858e+06;
#X obj 546 322 pow 2;
#X msg 546 299 2;
#X obj 546 276 t b f;
#X text 555 259 <- 0 1 2 3;
#X obj 789 595 s \$0-FFTOverlap;
#X text 506 421 Si le son d'un MiniModule FFT est haché \, avec Init-FFT
grand (65536...) -> Pd-extended -> Preferences -> Audio Settings...
-> delay (msec) -> Augmenter;
#X text 597 376 <- Overlap 1 2 4 8;
#X text 592 288 L'array \$0-FFTIndex n'est utilise que dans le MM FFT-BrickWallFilter
;
#X text 641 234 8 5 2009;
#X msg 381 563 stop;
#X obj 462 461 t b b b b b f;
#X obj 382 502 delay 2000;
#X obj 337 81 inlet fft;
#X obj 476 92 inlet overlap;
#X floatatom 384 397 5 0 0 0 - - -;
#X floatatom 650 355 5 0 0 0 - - -;
#X connect 2 0 3 0;
#X connect 3 0 4 0;
#X connect 4 0 5 0;
#X connect 6 0 7 1;
#X connect 7 0 8 0;
#X connect 7 1 8 1;
#X connect 8 0 38 0;
#X connect 9 0 7 0;
#X connect 9 1 6 0;
#X connect 9 2 10 0;
#X connect 10 0 11 0;
#X connect 10 0 25 0;
#X connect 12 0 2 1;
#X connect 12 0 22 1;
#X connect 13 0 9 0;
#X connect 13 0 26 0;
#X connect 13 0 42 0;
#X connect 14 0 13 0;
#X connect 15 0 14 0;
#X connect 15 1 13 1;
#X connect 16 0 15 0;
#X connect 22 0 24 0;
#X connect 28 0 32 0;
#X connect 28 0 43 0;
#X connect 29 0 28 0;
#X connect 30 0 29 0;
#X connect 30 1 28 1;
#X connect 37 0 24 0;
#X connect 37 0 5 0;
#X connect 38 0 39 0;
#X connect 38 2 5 0;
#X connect 38 3 24 0;
#X connect 38 4 12 0;
#X connect 38 5 22 0;
#X connect 38 5 2 0;
#X connect 39 0 37 0;
#X connect 40 0 16 0;
#X connect 41 0 30 0;
#X coords 0 0 1 1 230 29 0;
#X restore 394 273 pd ARGO;
#X text 705 185 <- FFT size;
#X text 618 149 <- Taille de la FFT;
#X text 238 310 Chaque bande de fréquence de la FFT est compressée
indépendamment.;
#X obj 397 151 tof/param /FFT-size 11 /g radio 1 11;
#X obj 473 186 tof/param /FFT-overlap 4 /g radio 1 4;
#N canvas 0 22 462 312 rh_scalelog 0;
#X obj 20 155 exp;
#X obj 20 107 *;
#X obj 20 130 +;
#X obj 98 87 log;
#X obj 194 84 log;
#X obj 123 123 t b f;
#X obj 123 145 -;
#X obj 20 183 outlet;
#X obj 20 19 inlet;
#X obj 98 23 inlet;
#X obj 194 24 inlet;
#X connect 0 0 7 0;
#X connect 1 0 2 0;
#X connect 2 0 0 0;
#X connect 3 0 2 1;
#X connect 3 0 5 0;
#X connect 4 0 6 0;
#X connect 5 0 6 0;
#X connect 5 1 6 1;
#X connect 6 0 1 1;
#X connect 8 0 1 0;
#X connect 9 0 3 0;
#X connect 10 0 4 0;
#X restore 247 97 pd rh_scalelog;
#X msg 301 66 1;
#X obj 301 37 loadbang;
#X msg 347 66 1000;
#N canvas 1 82 1272 661 FFT-NoiseGate 0;
#X obj -80 235 *~;
#X obj -67 58 *~;
#X obj -65 14 inlet~;
#X obj -67 81 rfft~;
#X obj -81 314 *~;
#X obj -80 266 rifft~;
#X obj -82 362 outlet~;
#X obj -52 34 tabreceive~ \$0-hann;
#X obj -66 290 tabreceive~ \$0-hann;
#X obj -82 337 *~;
#X obj 60 237 *~;
#X obj 58 367 outlet~;
#X obj 58 342 *~;
#X text 84 341 normalize;
#X obj 59 313 *~;
#X obj 60 265 rifft~;
#X obj 74 289 tabreceive~ \$0-hann;
#X obj -47 233 *~;
#X obj 93 238 *~;
#X obj 102 15 inlet;
#X obj 96 133 *~;
#X obj 62 133 *~;
#X obj 62 156 +~;
#X text 88 155 squared magnitude;
#X obj -54 184 expr~ $v1 > $v2;
#X obj 75 183 expr~ $v1 <= $v2;
#X text -56 335 normalize;
#X obj 245 362 switch~ 1024 4 1;
#X msg 359 333 0;
#X msg 209 332 1;
#X text 209 1 64..65536;
#X obj 210 17 r \$0-FFTSize;
#X obj 237 124 /;
#X obj 309 16 r \$0-FFTOverlap;
#X text 326 -2 1 2 4 8;
#X obj 277 245 pack 1 2;
#X msg 244 332 set \$1 \$2 1;
#X obj 309 73 t b b f b;
#X obj 210 73 t b b b f f f b;
#X msg 216 100 0.628;
#X connect 0 0 5 0;
#X connect 1 0 3 0;
#X connect 2 0 1 0;
#X connect 3 0 0 0;
#X connect 3 0 10 0;
#X connect 3 0 21 0;
#X connect 3 0 21 1;
#X connect 3 1 17 0;
#X connect 3 1 18 0;
#X connect 3 1 20 0;
#X connect 3 1 20 1;
#X connect 4 0 9 0;
#X connect 5 0 4 0;
#X connect 7 0 1 1;
#X connect 8 0 4 1;
#X connect 9 0 6 0;
#X connect 10 0 15 0;
#X connect 12 0 11 0;
#X connect 14 0 12 0;
#X connect 15 0 14 0;
#X connect 16 0 14 1;
#X connect 17 0 5 1;
#X connect 18 0 15 1;
#X connect 19 0 24 1;
#X connect 19 0 25 1;
#X connect 20 0 22 1;
#X connect 21 0 22 0;
#X connect 22 0 24 0;
#X connect 22 0 25 0;
#X connect 24 0 0 1;
#X connect 24 0 17 1;
#X connect 25 0 10 1;
#X connect 25 0 18 1;
#X connect 28 0 27 0;
#X connect 29 0 27 0;
#X connect 31 0 38 0;
#X connect 32 0 12 1;
#X connect 32 0 9 1;
#X connect 33 0 37 0;
#X connect 35 0 36 0;
#X connect 36 0 27 0;
#X connect 37 0 29 0;
#X connect 37 1 35 0;
#X connect 37 2 35 1;
#X connect 37 3 28 0;
#X connect 38 0 29 0;
#X connect 38 2 39 0;
#X connect 38 3 32 1;
#X connect 38 5 35 0;
#X connect 38 6 28 0;
#X connect 39 0 32 0;
#X restore 108 208 pd FFT-NoiseGate;
#X obj 260 5 tof/param /gate 1 /g slider 0.001 1;
#X connect 2 0 18 0;
#X connect 3 0 5 0;
#X connect 5 0 4 0;
#X connect 6 0 7 0;
#X connect 12 0 8 0;
#X connect 13 0 8 1;
#X connect 14 0 18 1;
#X connect 15 0 14 1;
#X connect 16 0 15 0;
#X connect 16 0 17 0;
#X connect 17 0 14 2;
#X connect 18 0 0 0;
#X connect 18 1 1 0;
#X connect 19 0 14 0;
