#N canvas 0 25 1272 692 10;
#X obj 66 300 outlet~;
#X obj 227 308 outlet~;
#X obj 27 47 inlet~;
#X obj 996 37 inlet params;
#X obj 996 83 print PARAM_NOTFOUND;
#X obj 996 59 tof/param route;
#X obj 974 183 b;
#X obj 975 212 tof/param gui;
#N canvas 0 25 1272 692 ARGO 0;
#X text 909 157 Nommer FFTGeneral???;
#N canvas 0 22 577 300 (subpatch) 0;
#X array \$0-hann 131072 float 0;
#X coords 0 0 131071 1 300 100 0;
#X restore 387 331 graph;
#X obj 465 518 osc~;
#X obj 464 539 *~ -0.5;
#X obj 464 561 +~ 0.5;
#X obj 397 596 tabwrite~ \$0-hann;
#X obj 481 389 samplerate~;
#X obj 462 414 swap;
#X obj 462 438 /;
#X obj 461 365 t f b f;
#X msg 669 567 resize \$1;
#X obj 641 596 s \$0-hann;
#X msg 522 486 0;
#X obj 462 328 pow 2;
#X msg 462 305 2;
#X obj 462 282 t b f;
#X obj 462 260 + 6;
#X text 793 132 calculate Hann window table (variable window size)
;
#X text 469 347 <- window-size;
#X text 557 348 64..65536;
#X text 471 265 <- 6..16;
#X text 794 96 Voir Pd-0.40.3-extended -> 3.audio.examples/I05.compressor.pd
-> pd hann-window;
#X obj 538 537 phasor~;
#N canvas 9 234 450 300 (subpatch) 0;
#X array \$0-FFTIndex 131072 float 0;
#X coords 0 0 131071 1 300 100 0;
#X restore 386 359 graph;
#X obj 507 596 tabwrite~ \$0-FFTIndex;
#X obj 703 596 s \$0-FFTIndex;
#X obj 315 596 s \$0-FFTSize;
#X obj 513 245 cnv 10 20 10 empty ColorForm Overlap 1 5 1 9 -188398
-1 1.04858e+06;
#X obj 546 322 pow 2;
#X msg 546 299 2;
#X obj 546 276 t b f;
#X text 555 259 <- 0 1 2 3;
#X obj 789 595 s \$0-FFTOverlap;
#X text 506 421 Si le son d'un MiniModule FFT est haché \, avec Init-FFT
grand (65536...) -> Pd-extended -> Preferences -> Audio Settings...
-> delay (msec) -> Augmenter;
#X text 597 376 <- Overlap 1 2 4 8;
#X text 592 288 L'array \$0-FFTIndex n'est utilise que dans le MM FFT-BrickWallFilter
;
#X text 641 234 8 5 2009;
#X msg 381 563 stop;
#X obj 462 461 t b b b b b f;
#X obj 382 502 delay 2000;
#X obj 337 81 inlet fft;
#X obj 476 92 inlet overlap;
#X floatatom 384 397 5 0 0 0 - - -;
#X floatatom 650 355 5 0 0 0 - - -;
#X connect 2 0 3 0;
#X connect 3 0 4 0;
#X connect 4 0 5 0;
#X connect 6 0 7 1;
#X connect 7 0 8 0;
#X connect 7 1 8 1;
#X connect 8 0 38 0;
#X connect 9 0 7 0;
#X connect 9 1 6 0;
#X connect 9 2 10 0;
#X connect 10 0 11 0;
#X connect 10 0 25 0;
#X connect 12 0 2 1;
#X connect 12 0 22 1;
#X connect 13 0 9 0;
#X connect 13 0 26 0;
#X connect 13 0 42 0;
#X connect 14 0 13 0;
#X connect 15 0 14 0;
#X connect 15 1 13 1;
#X connect 16 0 15 0;
#X connect 22 0 24 0;
#X connect 28 0 32 0;
#X connect 28 0 43 0;
#X connect 29 0 28 0;
#X connect 30 0 29 0;
#X connect 30 1 28 1;
#X connect 37 0 24 0;
#X connect 37 0 5 0;
#X connect 38 0 39 0;
#X connect 38 2 5 0;
#X connect 38 3 24 0;
#X connect 38 4 12 0;
#X connect 38 5 22 0;
#X connect 38 5 2 0;
#X connect 39 0 37 0;
#X connect 40 0 16 0;
#X connect 41 0 30 0;
#X coords 0 0 1 1 230 29 0;
#X restore 394 273 pd ARGO;
#X text 705 185 <- FFT size;
#X text 618 149 <- Taille de la FFT;
#X text 238 310 Chaque bande de fréquence de la FFT est compressée
indépendamment.;
#X obj 392 149 tof/param /FFT-size 11 /g radio 1 11;
#X obj 478 187 tof/param /FFT-overlap 4 /g radio 1 4;
#X obj 145 43 inlet~;
#N canvas 0 25 1272 692 FFT 0;
#X obj -65 74 *~;
#X obj -65 28 inlet~;
#X obj -65 97 rfft~;
#X obj -65 306 *~;
#X obj -64 258 rifft~;
#X obj -65 355 outlet~;
#X obj -50 50 tabreceive~ \$0-hann;
#X obj -50 282 tabreceive~ \$0-hann;
#X obj 92 353 switch~ 1024 4 1;
#X msg 218 295 0;
#X msg 80 294 1;
#X text 74 15 64..65536;
#X obj 75 31 r \$0-FFTSize;
#X obj 95 217 /;
#X obj -65 330 *~;
#X obj -64 174 *~;
#X obj 81 152 t b b f f f b;
#X obj 115 185 *;
#X msg 86 185 100;
#X text -37 330 Normalize;
#X obj 158 32 r \$0-FFTOverlap;
#X text 175 14 1 2 4 8;
#X obj 139 250 pack 1 2;
#X msg 111 294 set \$1 \$2 1;
#X obj 169 152 t b b f b;
#X connect 0 0 2 0;
#X connect 1 0 0 0;
#X connect 2 0 15 0;
#X connect 2 1 15 1;
#X connect 3 0 14 0;
#X connect 4 0 3 0;
#X connect 6 0 0 1;
#X connect 7 0 3 1;
#X connect 9 0 8 0;
#X connect 10 0 8 0;
#X connect 12 0 16 0;
#X connect 13 0 14 1;
#X connect 14 0 5 0;
#X connect 15 0 4 0;
#X connect 15 0 4 1;
#X connect 16 0 10 0;
#X connect 16 1 18 0;
#X connect 16 2 17 0;
#X connect 16 3 17 1;
#X connect 16 4 22 0;
#X connect 16 5 9 0;
#X connect 17 0 13 1;
#X connect 18 0 13 0;
#X connect 20 0 24 0;
#X connect 22 0 23 0;
#X connect 23 0 8 0;
#X connect 24 0 10 0;
#X connect 24 1 22 0;
#X connect 24 2 22 1;
#X connect 24 3 9 0;
#X restore 108 208 pd FFT;
#N canvas 0 25 1272 692 FFT 0;
#X obj -65 74 *~;
#X obj -65 28 inlet~;
#X obj -65 97 rfft~;
#X obj -65 306 *~;
#X obj -64 258 rifft~;
#X obj -65 355 outlet~;
#X obj -50 50 tabreceive~ \$0-hann;
#X obj -50 282 tabreceive~ \$0-hann;
#X obj 92 353 switch~ 1024 4 1;
#X msg 218 295 0;
#X msg 80 294 1;
#X text 74 15 64..65536;
#X obj 75 31 r \$0-FFTSize;
#X obj 95 217 /;
#X obj -65 330 *~;
#X obj -64 174 *~;
#X obj 81 152 t b b f f f b;
#X obj 115 185 *;
#X msg 86 185 100;
#X text -37 330 Normalize;
#X obj 158 32 r \$0-FFTOverlap;
#X text 175 14 1 2 4 8;
#X obj 139 250 pack 1 2;
#X msg 111 294 set \$1 \$2 1;
#X obj 169 152 t b b f b;
#X connect 0 0 2 0;
#X connect 1 0 0 0;
#X connect 2 0 15 0;
#X connect 2 1 15 1;
#X connect 3 0 14 0;
#X connect 4 0 3 0;
#X connect 6 0 0 1;
#X connect 7 0 3 1;
#X connect 9 0 8 0;
#X connect 10 0 8 0;
#X connect 12 0 16 0;
#X connect 13 0 14 1;
#X connect 14 0 5 0;
#X connect 15 0 4 0;
#X connect 15 0 4 1;
#X connect 16 0 10 0;
#X connect 16 1 18 0;
#X connect 16 2 17 0;
#X connect 16 3 17 1;
#X connect 16 4 22 0;
#X connect 16 5 9 0;
#X connect 17 0 13 1;
#X connect 18 0 13 0;
#X connect 20 0 24 0;
#X connect 22 0 23 0;
#X connect 23 0 8 0;
#X connect 24 0 10 0;
#X connect 24 1 22 0;
#X connect 24 2 22 1;
#X connect 24 3 9 0;
#X restore 179 206 pd FFT;
#X connect 2 0 15 0;
#X connect 3 0 5 0;
#X connect 5 0 4 0;
#X connect 6 0 7 0;
#X connect 12 0 8 0;
#X connect 13 0 8 1;
#X connect 14 0 16 0;
#X connect 15 0 0 0;
#X connect 16 0 1 0;
