#N canvas 1 82 1272 661 10;
#X obj -2 -21 cnv 15 690 30 empty empty fiboverb 2 12 1 14 -233017
-66577 0;
#X obj 238 54 cnv 15 200 40 empty empty empty 20 12 0 14 -232576 -66577
0;
#X text 298 55 PARAM ENABLED;
#X obj 402 249 cnv 15 200 20 empty empty /fiboverb/ 2 12 0 8 -258401
-262144 0;
#X text 256 153 <-Click on the propeties menu to display params;
#X text 714 221 tags: fx~;
#X obj 237 77 tof/open_help tof/param;
#X obj 405 278 hsl 100 15 0 1 0 0 /fiboverb/wet /fiboverb/wet_ wet
105 7 0 8 -262144 -1 -1 4000 1;
#X obj 86 52 tgl 15 0 empty empty empty 17 7 0 10 -262144 -1 -1 0 1
;
#N canvas 5 185 450 300 generate~ 0;
#X obj 32 89 metro 400;
#X obj 32 175 mtof;
#X obj 104 195 mtof;
#X floatatom 83 69 5 0 0 0 - - -;
#X obj 32 261 outlet~;
#X obj 103 261 outlet~;
#X obj 30 14 inlet;
#X obj 104 175 mtl/closestNote 0 2 4 7 9;
#X obj 104 234 *~;
#X obj 31 234 *~;
#X obj 32 155 mtl/closestNote 0 2 4 7 9;
#X obj 32 111 random 10;
#X obj 32 132 + 40;
#X obj 32 213 phasor~ 200;
#X obj 104 214 phasor~ 100;
#X connect 0 0 11 0;
#X connect 1 0 13 0;
#X connect 2 0 14 0;
#X connect 3 0 0 1;
#X connect 6 0 0 0;
#X connect 6 0 8 1;
#X connect 6 0 9 1;
#X connect 7 0 2 0;
#X connect 8 0 5 0;
#X connect 9 0 4 0;
#X connect 10 0 1 0;
#X connect 11 0 12 0;
#X connect 12 0 7 0;
#X connect 12 0 10 0;
#X connect 13 0 9 0;
#X connect 14 0 8 0;
#X restore 86 77 pd generate~;
#X obj 405 300 hsl 100 15 0.01 1 0 0 /fiboverb/seqscaler /fiboverb/seqscaler_
seq_scaler 105 7 0 8 -262144 -1 -1 6600 1;
#X obj 405 321 hsl 100 15 3 21 0 0 /fiboverb/seqstartr /fiboverb/seqstartr_
seq_starter 105 7 0 8 -262144 -1 -1 3250 1;
#X obj 402 347 tgl 15 0 /fiboverb/directiononoffr /fiboverb/directionoffonr
first 17 7 0 10 -262144 -1 -1 0 1;
#X obj 29 401 dac~;
#X obj 402 371 bng 15 250 50 0 /fiboverb/resetverb empty reset 17 7
0 10 -262144 -1 -1;
#X text 712 185 A reverb based on the fib sequence;
#X text 712 204 Uses a [fdn~] unit and a closed form sequence generator
;
#X text 716 240 andy farnell http://obiwannabe.co.uk;
#X obj 41 145 mtl/fiboverb~ /id fiboverb;
#X connect 8 0 9 0;
#X connect 9 0 18 0;
#X connect 18 0 13 0;
#X connect 18 1 13 1;
