#N canvas 0 0 1272 714 10;
#X obj 136 564 outlet~;
#X obj 185 564 outlet~;
#X obj 160 372 tof/crossfade~ 2;
#X obj 1015 106 inlet params;
#X obj 1015 152 print PARAM_NOTFOUND;
#X obj 452 218 tof/param /wet 0 /g slider 0 1;
#X obj 485 264 line~;
#X msg 485 243 \$1 5;
#X obj 1015 128 tof/param route;
#X obj 1008 183 b;
#X obj 1009 212 tof/param gui;
#X obj 70 72 inlet~;
#X obj 327 102 tof/param /seqscaler 0.4 /g slider 0.01 1;
#X obj 251 52 tof/param /directiononoffr 1 /g toggle 0 1;
#X obj 413 126 tof/param /seqstartr 6 /g slider 3 21;
#X obj 204 28 tof/param /resetverb 1 /g bang 0 1;
#X obj 500 404 cnv 15 200 193 empty empty fibonacci-verb 20 12 1 16
-170496 -66577 0;
#N canvas 0 0 450 300 (subpatch) 0;
#X array \$0-fibs 16 float 3;
#A 0 0.178885 0.25126 0.580165 1.23798 2.42796 4.47903 7.92336 13.622
22.9682 38.2163 63.0139 103.263 168.512 274.213 445.366 722.422;
#X coords 0 0 16 2048 160 160 1;
#X restore 519 436 graph;
#N canvas 0 0 1272 714 delay-network 1;
#X msg 82 57 reset;
#X obj 70 90 fdn~ 16 80000;
#N canvas 0 0 1272 714 makedelaylines 0;
#X obj 119 156 pack f f f f f f f f f f f f f f f f;
#X obj 135 120 route 1 2 3 4 5 6 7 8 9 10 11 12 13 14 15 16;
#N canvas 0 0 450 300 count15 0;
#X obj 65 79 until;
#X obj 65 101 f;
#X obj 94 101 + 1;
#X obj 140 103 sel 0;
#X obj 94 123 mod 16;
#X obj 65 52 inlet;
#X obj 65 150 outlet;
#X connect 0 0 1 0;
#X connect 1 0 2 0;
#X connect 1 0 6 0;
#X connect 2 0 4 0;
#X connect 3 0 0 1;
#X connect 4 0 1 1;
#X connect 4 0 3 0;
#X connect 5 0 0 0;
#X restore 135 35 pd count15;
#X obj 162 66 tabread \$0-fibs;
#X obj 135 93 pack;
#X msg 119 180 lines \$1 \$2 \$3 \$4 \$5 \$6 \$7 \$8 \$9 \$10 \$11
\$12 \$13 \$14 \$15 \$16;
#X msg 104 121 1;
#X obj 135 13 r \$0-donetable;
#X msg 419 155 bang;
#X text 463 135 hack \, rotate and discard one;
#X msg 53 79 set 1;
#X msg 9 79 set 0;
#X obj 135 66 + 1;
#X obj 8 57 sel 0 1;
#X text 462 113 We only really use 15 lines;
#X text 460 89 First line is either 0 or 1;
#X text 267 32 copy array onto fdn;
#X obj 119 203 outlet;
#X text 176 205 message to fdn~;
#X obj 8 33 t f b;
#X obj 69 57 del 5;
#X obj 9 12 inlet directonoff;
#X connect 0 0 5 0;
#X connect 1 0 0 1;
#X connect 1 1 0 2;
#X connect 1 2 0 3;
#X connect 1 3 0 4;
#X connect 1 4 0 5;
#X connect 1 5 0 6;
#X connect 1 6 0 7;
#X connect 1 7 0 8;
#X connect 1 8 0 9;
#X connect 1 9 0 10;
#X connect 1 10 0 11;
#X connect 1 11 0 12;
#X connect 1 12 0 13;
#X connect 1 13 0 14;
#X connect 1 14 0 15;
#X connect 1 15 8 0;
#X connect 2 0 3 0;
#X connect 2 0 12 0;
#X connect 3 0 4 1;
#X connect 4 0 1 0;
#X connect 5 0 17 0;
#X connect 6 0 0 0;
#X connect 7 0 2 0;
#X connect 8 0 6 0;
#X connect 10 0 6 0;
#X connect 11 0 6 0;
#X connect 12 0 4 0;
#X connect 13 0 11 0;
#X connect 13 1 10 0;
#X connect 19 0 13 0;
#X connect 19 1 20 0;
#X connect 20 0 6 0;
#X connect 21 0 19 0;
#X restore 148 61 pd makedelaylines;
#X obj 69 120 outlet~;
#X obj 155 120 outlet~;
#X obj 12 23 inlet~;
#X obj 81 22 inlet resetverb;
#X obj 187 20 inlet directiononoff;
#X connect 0 0 1 0;
#X connect 1 0 3 0;
#X connect 1 1 4 0;
#X connect 2 0 1 0;
#X connect 5 0 1 0;
#X connect 6 0 0 0;
#X connect 7 0 2 0;
#X restore 183 201 pd delay-network;
#N canvas 669 500 450 300 fibseqgen 0;
#N canvas 0 0 450 300 fibclosed 0;
#X obj 141 205 pow;
#X obj 141 179 float 1.61803;
#X obj 370 176 float 5;
#X obj 370 200 sqrt;
#X obj 141 301 /;
#X obj 141 277 -;
#X obj 141 351 outlet;
#X obj 203 57 inlet;
#X obj 203 79 int;
#X obj 203 105 max 1;
#X obj 203 137 t f f b b b;
#X obj 240 179 expr $f1^-0.61803;
#X connect 0 0 5 0;
#X connect 1 0 0 0;
#X connect 2 0 3 0;
#X connect 3 0 4 1;
#X connect 4 0 6 0;
#X connect 5 0 4 0;
#X connect 7 0 8 0;
#X connect 8 0 9 0;
#X connect 9 0 10 0;
#X connect 10 0 0 1;
#X connect 10 1 11 0;
#X connect 10 2 1 0;
#X connect 10 4 2 0;
#X connect 11 0 5 1;
#X restore 15 174 pd fibclosed;
#X obj 15 211 *;
#X obj 15 69 t b f;
#X obj 122 212 + 1;
#X obj 15 260 tabwrite \$0-fibs;
#X obj 15 43 clip 0.1 0.8352;
#X obj 15 152 +;
#X obj 15 235 clip 0 2048;
#X obj 155 40 clip 3 21;
#N canvas 0 0 450 300 count15 0;
#X obj 65 79 until;
#X obj 65 101 f;
#X obj 94 101 + 1;
#X obj 140 103 sel 0;
#X obj 94 123 mod 16;
#X obj 65 52 inlet;
#X obj 65 150 outlet;
#X connect 0 0 1 0;
#X connect 1 0 2 0;
#X connect 1 0 6 0;
#X connect 2 0 4 0;
#X connect 3 0 0 1;
#X connect 4 0 1 1;
#X connect 4 0 3 0;
#X connect 5 0 0 0;
#X restore 15 97 pd count15;
#X obj 155 63 t b f;
#X obj 141 146 == 15;
#X obj 141 168 sel 1;
#X obj 141 189 s \$0-donetable;
#X text 228 262 ajf2006;
#X obj 15 15 inlet seqscale;
#X obj 155 14 inlet seqstart;
#X connect 0 0 1 0;
#X connect 1 0 7 0;
#X connect 2 0 9 0;
#X connect 2 1 1 1;
#X connect 3 0 4 1;
#X connect 5 0 2 0;
#X connect 6 0 0 0;
#X connect 7 0 4 0;
#X connect 8 0 10 0;
#X connect 9 0 6 0;
#X connect 9 0 3 0;
#X connect 9 0 11 0;
#X connect 10 0 9 0;
#X connect 10 1 6 1;
#X connect 11 0 12 0;
#X connect 12 0 13 0;
#X connect 15 0 5 0;
#X connect 16 0 8 0;
#X restore 323 156 pd fibseqgen;
#X obj 756 251 cnv 15 100 60 empty empty empty 20 12 0 14 -233017 -66577
0;
#X connect 2 0 0 0;
#X connect 2 1 1 0;
#X connect 3 0 8 0;
#X connect 5 0 7 0;
#X connect 6 0 2 4;
#X connect 7 0 6 0;
#X connect 8 0 4 0;
#X connect 9 0 10 0;
#X connect 11 0 2 0;
#X connect 11 0 18 0;
#X connect 11 0 2 1;
#X connect 12 0 19 0;
#X connect 13 0 18 2;
#X connect 14 0 19 1;
#X connect 15 0 18 1;
#X connect 18 0 2 2;
#X connect 18 1 2 3;
#X coords 0 -1 1 1 200 200 1 500 400;
