#N canvas 344 82 1009 661 10;
#X obj 112 -52 inlet;
#X obj 227 800 sel folder;
#X msg 226 820 1;
#X obj 53 923 outlet;
#X msg 282 822 0;
#X obj 351 -84 loadbang;
#X msg 590 782 label \$1;
#X msg 339 320 clear;
#X obj 170 860 demultiplex 0 1;
#X msg 346 806 0;
#X obj 294 900 s \$0top;
#X obj 127 -13 r \$0top;
#X obj 96 376 sel folder;
#X obj 18 326 t s s;
#X obj 757 486 symbol;
#X obj 854 583 s \$0top;
#X obj 420 809 s \$0top;
#X obj 141 165 t a a a b;
#X obj 653 714 makefilename .../%s;
#X obj 283 536 vsl 15 115 0 175 0 0 \$0slider_s \$0slider_r empty 0
-8 0 8 -1 -262144 -1 11400 0;
#X obj 101 534 hradio 15 1 0 12 \$0hr_0_s \$0hr_0_r .. 2 8 0 12 -1
-1 -262140 0;
#X obj 101 549 hradio 15 1 0 12 \$0hr_1_s \$0hr_1_r BBTA1.WAV 2 8 0
12 -1 -1 -262140 0;
#X obj 101 564 hradio 15 1 0 12 \$0hr_2_s \$0hr_2_r BBTA2.WAV 2 8 0
12 -1 -1 -258049 1;
#X obj 101 579 hradio 15 1 0 12 \$0hr_3_s \$0hr_3_r BBTC1.WAV 2 8 0
12 -1 -1 -262140 0;
#X obj 101 594 hradio 15 1 0 12 \$0hr_4_s \$0hr_4_r BBTC2.WAV 2 8 0
12 -1 -1 -262140 0;
#X obj 101 609 hradio 15 1 0 12 \$0hr_5_s \$0hr_5_r BBTD1.WAV 2 8 0
12 -1 -1 -262140 0;
#X obj 101 624 hradio 15 1 0 12 \$0hr_6_s \$0hr_6_r BBTD2.WAV 2 8 0
12 -1 -1 -262140 0;
#X obj 101 639 hradio 15 1 0 12 \$0hr_7_s \$0hr_7_r BBTE1.WAV 2 8 0
12 -1 -1 -262140 0;
#X obj 101 517 hradio 15 1 0 13 \$0label_radio_s \$0label_radio_r empty
2 8 0 8 -1 -1 -262144 0;
#X obj 204 752 t a a;
#X msg 141 413 color -1.31586e+07;
#X msg 272 384 color -1.67772e+07;
#X msg 9 405 file \$1;
#X obj 356 -3 t b a;
#X obj 335 68 symbol;
#X obj 260 14 delay 500;
#X obj 120 125 t a b;
#X obj 318 182 t b b;
#X obj 751 -36 inlet;
#X obj 286 110 route clear patterns pattern configure;
#X obj 280 40 spigot 1;
#X msg 342 39 0;
#X obj 502 155 tof/path;
#X obj 87 88 tof/folderpanel;
#X obj 356 -30 tof/path;
#X obj 94 340 hcs/file_type;
#X obj 537 675 demultiplex 0 1;
#X obj 243 776 hcs/file_type;
#X msg 453 724 clear;
#X obj 40 262 hcs/folder_list .;
#X obj 99 46 route bang float;
#X obj 473 331 hcs/split_path;
#X msg 122 203 symbol ..;
#X obj 477 658 bng 15 250 50 0 empty empty empty 17 7 0 10 -262144
-1 -1;
#X obj 62 199 t b a b;
#X obj 282 721 route ..;
#X obj 101 517 cnv 15 197 15 empty \$0hider .../al/JKP-Pure-DJ/audio
3 9 0 8 -128992 -262144 0;
#X obj 18 178 symbol;
#X obj 27 104 t b b;
#X obj 728 277 route bang;
#X obj 81 155 r \$0top;
#X obj 523 909 outlet;
#X obj 94 229 makesymbol %s/*;
#X obj 345 667 mtl/gBrowser \$0;
#X obj 511 627 mtl/shrinkSymbol -20;
#X connect 0 0 50 0;
#X connect 1 0 2 0;
#X connect 1 1 4 0;
#X connect 2 0 8 1;
#X connect 4 0 8 1;
#X connect 5 0 44 0;
#X connect 6 0 63 1;
#X connect 7 0 63 1;
#X connect 8 0 3 0;
#X connect 8 1 10 0;
#X connect 9 0 8 1;
#X connect 11 0 50 0;
#X connect 12 0 30 0;
#X connect 12 1 31 0;
#X connect 13 0 32 0;
#X connect 13 1 45 0;
#X connect 14 0 15 0;
#X connect 17 0 54 0;
#X connect 17 1 51 0;
#X connect 17 2 64 0;
#X connect 17 3 7 0;
#X connect 18 0 6 0;
#X connect 29 0 8 0;
#X connect 29 1 47 0;
#X connect 30 0 63 1;
#X connect 31 0 63 1;
#X connect 32 0 63 1;
#X connect 33 0 35 0;
#X connect 33 1 34 1;
#X connect 33 1 57 1;
#X connect 34 0 17 0;
#X connect 35 0 40 0;
#X connect 36 0 17 0;
#X connect 36 1 41 0;
#X connect 37 0 7 0;
#X connect 37 1 41 0;
#X connect 38 0 59 0;
#X connect 39 0 37 0;
#X connect 39 3 63 1;
#X connect 39 4 42 0;
#X connect 40 0 34 0;
#X connect 41 0 40 1;
#X connect 42 0 36 0;
#X connect 42 0 57 1;
#X connect 43 0 36 0;
#X connect 43 0 57 1;
#X connect 44 0 33 0;
#X connect 45 0 12 0;
#X connect 45 1 31 0;
#X connect 46 0 6 0;
#X connect 46 1 18 0;
#X connect 47 0 1 0;
#X connect 47 1 9 0;
#X connect 48 0 63 1;
#X connect 49 0 13 0;
#X connect 50 0 43 0;
#X connect 50 1 63 0;
#X connect 50 2 39 0;
#X connect 51 0 14 1;
#X connect 52 0 63 1;
#X connect 53 0 63 1;
#X connect 54 0 63 1;
#X connect 54 1 62 0;
#X connect 54 2 52 0;
#X connect 55 0 14 0;
#X connect 55 1 29 0;
#X connect 57 0 36 0;
#X connect 58 0 53 0;
#X connect 58 1 57 0;
#X connect 59 0 58 0;
#X connect 59 1 63 1;
#X connect 60 0 57 1;
#X connect 62 0 49 0;
#X connect 63 0 55 0;
#X connect 63 1 16 0;
#X connect 63 2 61 0;
#X connect 64 0 46 0;
#X connect 64 1 46 1;
#X coords 0 -1 1 1 202 155 1 100 500;
