#N canvas 296 345 682 266 10;
#X obj 21 14 inlet~;
#X obj 71 14 inlet~;
#X obj 30 126 outlet~;
#X obj 90 127 outlet~;
#X obj 29 84 tof/crossfade~ 2;
#X obj 499 -8 inlet params;
#X obj 499 38 print PARAM_NOTFOUND;
#X obj 159 -6 tof/param /wet 0 /g slider 0 1;
#X obj 167 58 line~;
#X msg 159 16 \$1 5;
#X obj 499 14 tof/param route;
#X obj 492 69 b;
#X obj 493 98 tof/param gui;
#N canvas 0 25 1272 692 flanger 0;
#X floatatom 153 29 5 0.001 1 0 Frequency - -;
#X obj 267 20 sig~ 0.1;
#X obj 302 203 *~;
#X floatatom 423 194 5 0 0 0 Depth - -;
#X obj 302 228 +~ 1;
#X obj 266 50 phasor~;
#X obj 280 82 *~ -1;
#X obj 279 106 +~ 1;
#X obj 279 138 min~;
#X obj 278 164 *~ 2;
#X obj 155 -116 vsl 15 128 0 1 0 0 empty empty empty 0 -9 0 10 -262144
-1 -1 0 1;
#X obj 310 -110 inlet~;
#X obj 228 422 outlet~;
#X obj 267 -11 tof/param /frequence 1 /g slider 0 1;
#X obj 506 -12 tof/param /depth 0 /g slider 0 10;
#X msg 500 24 \$1 5;
#X obj 498 58 line~;
#X obj 512 -110 inlet~;
#X obj 304 -67 delwrite~ \$0-flange-g 1000;
#X obj 505 -67 delwrite~ \$0-flange-d 1000;
#X obj 237 308 vd~ \$0-flange-g;
#X obj 361 428 outlet~;
#X obj 370 314 vd~ \$0-flange-d;
#X connect 0 0 1 0;
#X connect 1 0 5 0;
#X connect 2 0 4 0;
#X connect 3 0 2 1;
#X connect 4 0 20 0;
#X connect 4 0 22 0;
#X connect 5 0 6 0;
#X connect 5 0 8 1;
#X connect 6 0 7 0;
#X connect 7 0 8 0;
#X connect 8 0 9 0;
#X connect 9 0 2 0;
#X connect 10 0 0 0;
#X connect 11 0 18 0;
#X connect 13 0 1 0;
#X connect 14 0 15 0;
#X connect 15 0 16 0;
#X connect 16 0 2 1;
#X connect 17 0 19 0;
#X connect 20 0 12 0;
#X connect 22 0 21 0;
#X restore 76 50 pd flanger;
#X connect 0 0 4 0;
#X connect 0 0 13 0;
#X connect 1 0 4 1;
#X connect 1 0 13 1;
#X connect 4 0 2 0;
#X connect 4 1 3 0;
#X connect 5 0 10 0;
#X connect 7 0 9 0;
#X connect 8 0 4 4;
#X connect 9 0 8 0;
#X connect 10 0 6 0;
#X connect 11 0 12 0;
#X connect 13 0 4 2;
#X connect 13 1 4 3;
