#N canvas 1 82 1272 661 10;
#X obj 151 490 outlet~;
#X obj 249 500 outlet~;
#X obj 152 220 inlet~;
#X obj 996 37 inlet params;
#X obj 996 83 print PARAM_NOTFOUND;
#X obj 996 59 tof/param route;
#X obj 974 183 b;
#X obj 975 212 tof/param gui;
#X obj 250 259 inlet~;
#X obj 352 299 tof/param /amp 0 /g radio 0 1;
#X obj 387 325 tof/param /sym 0 /g radio 0 1;
#X obj 250 431 sigpack/foldover~;
#X obj 152 400 sigpack/foldover~;
#X obj 383 274 tof/argument 4;
#X obj 351 248 tof/argument 3;
#X obj 352 220 loadbang;
#X connect 2 0 12 0;
#X connect 3 0 5 0;
#X connect 5 0 4 0;
#X connect 6 0 7 0;
#X connect 8 0 11 0;
#X connect 9 0 11 1;
#X connect 9 0 12 1;
#X connect 10 0 11 2;
#X connect 10 0 12 2;
#X connect 11 0 1 0;
#X connect 12 0 0 0;
#X connect 13 0 10 0;
#X connect 14 0 9 0;
#X connect 15 0 13 0;
#X connect 15 0 14 0;
