#N canvas 1 82 1272 661 10;
#X obj 103 449 outlet~;
#X obj 272 454 outlet~;
#X obj 102 194 inlet~;
#X obj 996 37 inlet params;
#X obj 996 83 print PARAM_NOTFOUND;
#X obj 996 59 tof/param route;
#X obj 1006 119 b;
#X obj 1007 148 tof/param gui;
#X obj 272 200 inlet~;
#X obj 402 274 tof/param /pos 0 /g radio 0 1;
#X obj 215 290 - 1;
#X obj 368 177 tof/param /neg 0 /g radio 0 1;
#X obj 103 353 sigpack/foldback~;
#X obj 273 369 sigpack/foldback~;
#X obj 406 145 tof/argument 4;
#X obj 368 123 tof/argument 3;
#X obj 368 96 loadbang;
#X connect 2 0 12 0;
#X connect 3 0 5 0;
#X connect 5 0 4 0;
#X connect 6 0 7 0;
#X connect 8 0 13 0;
#X connect 9 0 12 2;
#X connect 9 0 13 2;
#X connect 10 0 12 1;
#X connect 10 0 13 1;
#X connect 11 0 10 0;
#X connect 12 0 0 0;
#X connect 13 0 1 0;
#X connect 14 0 9 0;
#X connect 15 0 11 0;
#X connect 16 0 14 0;
#X connect 16 0 15 0;
