#N canvas 1 82 1272 661 10;
#X obj 69 324 outlet~;
#X obj 193 336 outlet~;
#X obj 74 49 inlet~;
#X obj 996 37 inlet params;
#X obj 996 83 print PARAM_NOTFOUND;
#X obj 996 59 tof/param route;
#X obj 974 183 b;
#X obj 975 212 tof/param gui;
#X obj 212 24 inlet~;
#X obj 211 303 outlet~;
#X obj 334 302 outlet~;
#X obj 255 111 tof/param /shift 0 /g slider 0 500;
#X obj 71 171 sigpack/freqshift~;
#X obj 211 171 sigpack/freqshift~;
#X obj 295 73 tof/argument 3;
#X obj 295 49 loadbang;
#X connect 2 0 12 0;
#X connect 3 0 5 0;
#X connect 5 0 4 0;
#X connect 6 0 7 0;
#X connect 8 0 13 0;
#X connect 11 0 12 1;
#X connect 11 0 13 1;
#X connect 12 0 0 0;
#X connect 12 1 1 0;
#X connect 13 0 9 0;
#X connect 13 1 10 0;
#X connect 14 0 11 0;
#X connect 15 0 14 0;
