#N canvas 1 82 1016 661 10;
#X obj 317 159 cnv 15 200 20 empty empty /full_adder/ 2 12 0 8 -258401
-262144 0;
#X obj 317 187 tgl 15 0 /full_adder/porte1 /full_adder/porte1_ porte-1
17 7 0 10 -262144 -1 -1 0 1;
#X obj 317 206 tgl 15 0 /full_adder/porte2 /full_adder/porte2_ porte-2
17 7 0 10 -262144 -1 -1 0 1;
#X obj 72 290 tgl 15 0 empty empty empty 17 7 0 10 -262144 -1 -1 0
1;
#X obj 71 197 tgl 15 0 empty empty empty 17 7 0 10 -262144 -1 -1 0
1;
#X obj 165 192 tgl 15 0 empty empty empty 17 7 0 10 -262144 -1 -1 0
1;
#X obj 240 284 tgl 15 0 empty empty empty 17 7 0 10 -262144 -1 -1 0
1;
#X obj 71 248 mtl/full_adder /id full_adder;
#X obj 317 226 tgl 15 0 /full_adder/carry_in /full_adder/carry_in_
carry_in 17 7 0 10 -262144 -1 -1 0 1;
#X obj 241 185 tgl 15 0 empty empty empty 17 7 0 10 -262144 -1 -1 0
1;
#X text 498 460 Author: Emoc;
#X text 501 477 tags: logic;
#X connect 4 0 7 0;
#X connect 5 0 7 1;
#X connect 7 0 3 0;
#X connect 7 1 6 0;
#X connect 9 0 7 2;
