#N canvas 488 391 726 371 10;
#X obj 54 279 outlet~;
#X obj 53 164 inlet~;
#X obj 113 164 inlet~;
#X obj 114 279 outlet~;
#X obj 477 83 inlet params;
#X obj 181 253 tof/param /wet 0 /g slider 0 1;
#X obj 477 129 print PARAM_NOTFOUND;
#X obj 54 254 tof/crossfade~ 2;
#X msg 218 283 \$1 5;
#X obj 218 307 line~;
#X obj 477 105 tof/param route;
#X obj 473 228 b;
#X obj 474 257 tof/param gui;
#N canvas 550 186 730 557 fuzz 0;
#X obj 86 116 * -1;
#X obj 61 146 clip~ 0 0;
#X obj 121 76 t f f;
#X obj 100 357 *~ -1;
#X obj 101 316 -~;
#X obj 101 336 *~;
#X obj 271 336 *~;
#X obj 271 316 +~;
#X obj 181 446 expr~ abs($v1) > $f2;
#X obj 100 477 *~;
#X obj 271 357 *~ -1;
#X obj 311 256 expr~ $v1 < 0;
#X obj 141 256 expr~ $v1 > 0;
#X obj 61 46 inlet~;
#X obj 61 506 outlet~;
#X obj 146 45 inlet;
#X text 201 44 0 -- 1;
#X obj 271 45 inlet;
#X connect 0 0 1 1;
#X connect 1 0 14 0;
#X connect 2 0 0 0;
#X connect 2 1 1 2;
#X connect 3 0 9 0;
#X connect 4 0 5 0;
#X connect 5 0 3 0;
#X connect 6 0 10 0;
#X connect 7 0 6 0;
#X connect 8 0 9 1;
#X connect 9 0 14 0;
#X connect 10 0 9 0;
#X connect 11 0 6 1;
#X connect 12 0 5 1;
#X connect 13 0 1 0;
#X connect 13 0 8 0;
#X connect 13 0 4 0;
#X connect 13 0 7 0;
#X connect 13 0 11 0;
#X connect 13 0 12 0;
#X connect 15 0 2 0;
#X connect 17 0 4 1;
#X connect 17 0 7 1;
#X connect 17 0 8 1;
#X restore 83 215 pd fuzz;
#N canvas 501 243 730 557 fuzz 0;
#X obj 86 116 * -1;
#X obj 61 146 clip~ 0 0;
#X obj 121 76 t f f;
#X obj 100 357 *~ -1;
#X obj 101 316 -~;
#X obj 101 336 *~;
#X obj 271 336 *~;
#X obj 271 316 +~;
#X obj 181 446 expr~ abs($v1) > $f2;
#X obj 100 477 *~;
#X obj 271 357 *~ -1;
#X obj 311 256 expr~ $v1 < 0;
#X obj 141 256 expr~ $v1 > 0;
#X obj 61 46 inlet~;
#X obj 61 506 outlet~;
#X obj 146 45 inlet;
#X text 201 44 0 -- 1;
#X obj 271 45 inlet;
#X connect 0 0 1 1;
#X connect 1 0 14 0;
#X connect 2 0 0 0;
#X connect 2 1 1 2;
#X connect 3 0 9 0;
#X connect 4 0 5 0;
#X connect 5 0 3 0;
#X connect 6 0 10 0;
#X connect 7 0 6 0;
#X connect 8 0 9 1;
#X connect 9 0 14 0;
#X connect 10 0 9 0;
#X connect 11 0 6 1;
#X connect 12 0 5 1;
#X connect 13 0 1 0;
#X connect 13 0 8 0;
#X connect 13 0 4 0;
#X connect 13 0 7 0;
#X connect 13 0 11 0;
#X connect 13 0 12 0;
#X connect 15 0 2 0;
#X connect 17 0 4 1;
#X connect 17 0 7 1;
#X connect 17 0 8 1;
#X restore 148 220 pd fuzz;
#X obj 197 100 tof/param /fuzz 0 /g slider 0 2;
#X obj 174 71 tof/param /drive 0 /g slider 0 1;
#X connect 1 0 7 0;
#X connect 1 0 13 0;
#X connect 2 0 7 1;
#X connect 2 0 14 0;
#X connect 4 0 10 0;
#X connect 5 0 8 0;
#X connect 7 0 0 0;
#X connect 7 1 3 0;
#X connect 8 0 9 0;
#X connect 9 0 7 4;
#X connect 10 0 6 0;
#X connect 11 0 12 0;
#X connect 13 0 7 2;
#X connect 14 0 7 3;
#X connect 15 0 13 2;
#X connect 15 0 14 2;
#X connect 16 0 13 1;
#X connect 16 0 14 1;
