#N canvas 336 337 728 323 10;
#X obj -226 190 mtl/out~;
#X text -230 59 tags: fx~;
#X text -233 25 Description: A simple distortion. Positive and negative
distortion can be set independently.;
#X text -48 158 <-Click on the propeties menu to display params;
#X obj 69 53 cnv 15 200 40 empty empty empty 20 12 0 14 -232576 -66577
0;
#X text 129 54 PARAM ENABLED;
#X obj 71 187 cnv 15 200 20 empty empty /fuzz2/ 2 12 0 8 -258401 -262144
0;
#X obj 71 210 hsl 100 15 0 1 0 0 /fuzz2/wet /fuzz2/wet_ wet 105 7 0
8 -262144 -1 -1 5900 1;
#X obj 71 228 hsl 100 15 0 1 0 0 /fuzz2/drive /fuzz2/drive_ drive 105
7 0 8 -262144 -1 -1 8500 1;
#X obj 68 76 tof/open_help tof/param;
#X obj 71 246 hsl 100 15 0 2 0 0 /fuzz2/fuzz /fuzz2/fuzz fuzz 105 7
0 8 -262144 -1 -1 9900 1;
#X obj -227 159 mtl/fuzz2~ /id fuzz2;
#X obj -228 89 tgl 15 0 empty empty empty 17 7 0 10 -262144 -1 -1 1
1;
#N canvas 5 185 450 300 generate~ 0;
#X obj 32 213 osc~ 200;
#X obj 32 89 metro 400;
#X obj 32 175 mtof;
#X obj 104 195 mtof;
#X obj 32 132 + 20;
#X obj 32 111 random 70;
#X floatatom 83 69 5 0 0 0 - - -;
#X obj 32 261 outlet~;
#X obj 103 261 outlet~;
#X obj 30 14 inlet;
#X obj 104 175 mtl/closestNote 0 2 4 7 9;
#X obj 104 234 *~;
#X obj 31 234 *~;
#X obj 104 214 osc~ 100;
#X obj 32 155 mtl/closestNote 0 2 4 7 9;
#X connect 0 0 12 0;
#X connect 1 0 5 0;
#X connect 2 0 0 0;
#X connect 3 0 13 0;
#X connect 4 0 10 0;
#X connect 4 0 14 0;
#X connect 5 0 4 0;
#X connect 6 0 1 1;
#X connect 9 0 1 0;
#X connect 9 0 11 1;
#X connect 9 0 12 1;
#X connect 10 0 3 0;
#X connect 11 0 8 0;
#X connect 12 0 7 0;
#X connect 13 0 11 0;
#X connect 14 0 2 0;
#X restore -228 114 pd generate~;
#X connect 11 0 0 0;
#X connect 11 1 0 1;
#X connect 12 0 13 0;
#X connect 13 0 11 0;
#X connect 13 1 11 1;
