#N canvas 461 197 588 450 10;
#X obj 128 196 nbx 5 14 -1e+37 1e+37 0 0 empty empty right 0 -8 0 10
-262144 -1 -1 96.9154 256;
#X obj 16 135 *~;
#X obj 33 114 osc~ 2;
#X obj 104 135 *~;
#X obj 104 92 osc~ 240;
#X obj 121 114 osc~ 4;
#N canvas 172 333 450 300 env 0;
#X obj 279 93 env~ 16384 8192;
#X obj 279 49 inlet~;
#X obj 279 177 outlet;
#X text 294 123 don't know why;
#X obj 279 144 + 2.94;
#X connect 0 0 4 0;
#X connect 1 0 0 0;
#X connect 4 0 2 0;
#X restore 114 161 pd env;
#N canvas 173 365 450 300 env 0;
#X obj 279 93 env~ 16384 8192;
#X obj 279 49 inlet~;
#X obj 279 177 outlet;
#X text 294 123 don't know why;
#X obj 279 144 + 2.4;
#X connect 0 0 4 0;
#X connect 1 0 0 0;
#X connect 4 0 2 0;
#X restore 28 163 pd env;
#X obj 40 197 nbx 5 14 -1e+37 1e+37 0 0 empty empty left 0 -8 0 10
-262144 -1 -1 97.0427 256;
#X obj 43 256 bonk~;
#X obj 143 255 bonk~;
#X text 189 255 only an idea;
#X msg 25 279 trigger;
#X msg 170 278 trigger;
#X obj 15 92 osc~ 160;
#X obj 16 223 mtl/gateNoise~ /id gatenoise;
#X obj 16 380 mtl/out~;
#X text 13 10 Description: a noise gate (cut off volume below the threshold).
useful for removing noise from an incoming signal or making breakbeat.
;
#X obj 69 320 mtl/out~ 30;
#X obj 365 250 cnv 15 200 20 empty empty /gatenoise/ 2 12 0 8 -258401
-262144 0;
#X obj 365 273 hsl 100 15 0 1 0 0 /gatenoise/wet /gatenoise/wet_ wet
105 7 0 8 -262144 -1 -1 9900 1;
#X obj 365 291 hsl 100 15 0 100 0 0 /gatenoise/thresholdleft /gatenoise/thresholdleft_
thresholdleft 105 7 0 8 -262144 -1 -1 2900 1;
#X obj 365 309 hsl 100 15 0 100 0 0 /gatenoise/thresholdright /gatenoise/thresholdright_
thresholdright 105 7 0 8 -262144 -1 -1 4000 1;
#X obj 365 327 hsl 100 15 0 500 0 0 /gatenoise/attackleft /gatenoise/attackleft_
attackleft 105 7 0 8 -262144 -1 -1 20 1;
#X obj 365 345 hsl 100 15 0 500 0 0 /gatenoise/attackright /gatenoise/attackright_
attackright 105 7 0 8 -262144 -1 -1 20 1;
#X obj 365 363 hsl 100 15 0 5000 0 0 /gatenoise/releaseleft /gatenoise/releaseleft_
releaseleft 105 7 0 8 -262144 -1 -1 2396 1;
#X obj 365 381 hsl 100 15 0 5000 0 0 /gatenoise/releaseright /gatenoise/releaseright_
releaseright 105 7 0 8 -262144 -1 -1 396 1;
#X obj 365 399 tgl 15 0 /gatenoise/automatic /gatenoise/automatic_
automatic 17 7 0 8 -262144 -166441 -1 1 1;
#X obj 365 417 hsl 100 15 0 100 0 0 /gatenoise/automatic+- /gatenoise/automatic+-_
automatic+- 105 7 0 8 -262144 -1 -1 9900 1;
#X text 194 221 <-Click on the propeties menu to display params;
#X text 13 53 tags: fx~;
#X obj 25 299 mtl/clap~ /id clap1;
#X obj 171 300 mtl/clap~ /id clap2;
#X connect 1 0 7 0;
#X connect 1 0 15 0;
#X connect 2 0 1 1;
#X connect 3 0 6 0;
#X connect 3 0 15 1;
#X connect 4 0 3 0;
#X connect 5 0 3 1;
#X connect 6 0 0 0;
#X connect 7 0 8 0;
#X connect 9 1 12 0;
#X connect 10 1 13 0;
#X connect 12 0 31 0;
#X connect 13 0 32 0;
#X connect 14 0 1 0;
#X connect 15 0 9 0;
#X connect 15 0 16 0;
#X connect 15 1 10 0;
#X connect 15 1 16 1;
#X connect 31 0 18 0;
#X connect 32 0 18 1;
