#N canvas 1 82 657 661 10;
#X declare -lib Gem;
#X declare -lib Gem;
#X obj 18 -58 cnv 15 400 40 empty empty empty 20 12 0 14 -254305 -66577
0;
#X obj 28 -49 cnv 15 380 20 empty empty empty 20 12 0 14 -262144 -66577
0;
#X obj 330 -47 tgl 15 1 empty empty empty 17 7 0 10 -262144 -1 -1 0
1;
#X obj 353 -47 tgl 15 0 empty empty empty 17 7 0 10 -262144 -1 -1 0
1;
#X obj 17 224 cnv 15 400 100 empty empty empty 20 12 0 14 -254305 -66577
0;
#X floatatom 31 273 5 0 0 0 - - -;
#X text 47 223 arguments:;
#X obj 116 277 tgl 15 0 empty empty empty 17 7 0 10 -262144 -1 -1 0
1;
#X obj 202 277 tgl 15 0 empty empty empty 17 7 0 10 -262144 -1 -1 0
1;
#X text 28 288 sortie;
#X text 28 300 entre [0-1];
#X text 110 302 la zone;
#X text 111 291 souris dans;
#X text 196 293 clic dans;
#X text 196 304 la zone;
#X text 47 235 nom \, posX \, posY \, tailleX \, tailleY;
#X text 264 292 TOUCHE "<" = DEPLACEMENT;
#X text 282 303 + clic droit = TAILLE;
#X text 504 331 <= gestion de la fenêtre gem;
#X obj 174 119 tgl 15 0 empty empty empty 17 7 0 10 -262144 -1 -1 0
1;
#X obj 439 -46 cnv 15 200 20 empty empty /crabe/ 2 12 0 8 -258401
-262144 0;
#X obj 12 66 mtl/gemsMouse;
#X obj 436 108 cnv 15 200 90 empty empty empty 20 12 0 14 -233017 -66577
0;
#X text 436 105 couleur de fond inactif (RVBA);
#X obj 445 124 hsl 128 15 0 100 0 0 /crabe/bcolorR /crabe/bcolorR_
bcolorR 135 10 0 10 -262144 -1 -1 6350 1;
#X obj 445 143 hsl 128 15 0 100 0 0 /crabe/bcolorV /crabe/bcolorV_
bcolorV 135 10 0 10 -262144 -1 -1 6350 1;
#X obj 445 162 hsl 128 15 0 100 0 0 /crabe/bcolorB /crabe/bcolorB_
bcolorB 135 10 0 10 -262144 -1 -1 6350 1;
#X obj 445 181 hsl 128 15 0 100 0 0 /crabe/bcolorA /crabe/bcolorA_
bcolorA 135 10 0 10 -262144 -1 -1 6350 1;
#X obj 437 205 cnv 15 200 90 empty empty empty 20 12 0 14 -233017 -66577
0;
#X text 438 201 couleur du texte (RVBA);
#X obj 445 219 hsl 128 15 0 100 0 0 /crabe/tcolorR /crabe/tcolorR_
tcolorR 135 10 0 10 -262144 -1 -1 12700 1;
#X obj 445 238 hsl 128 15 0 100 0 0 /crabe/tcolorV /crabe/tcolorV_
tcolorV 135 10 0 10 -262144 -1 -1 12700 1;
#X obj 445 257 hsl 128 15 0 100 0 0 /crabe/tcolorB /crabe/tcolorB_
tcolorB 135 10 0 10 -262144 -1 -1 12700 1;
#X obj 445 276 hsl 128 15 0 100 0 0 /crabe/tcolorA /crabe/tcolorA_
tcolorA 135 10 0 10 -262144 -1 -1 12700 1;
#X obj 438 302 cnv 15 200 90 empty empty empty 20 12 0 14 -233017 -66577
0;
#X text 440 298 couleur du contour (RVBA);
#X obj 445 316 hsl 128 15 0 100 0 0 /crabe/wcolorR /crabe/wcolorR_
wcolorR 135 10 0 10 -262144 -1 -1 12700 1;
#X obj 445 335 hsl 128 15 0 100 0 0 /crabe/wcolorV /crabe/wcolorV_
wcolorV 135 10 0 10 -262144 -1 -1 12700 1;
#X obj 445 354 hsl 128 15 0 100 0 0 /crabe/wcolorB /crabe/wcolorB_
wcolorB 135 10 0 10 -262144 -1 -1 12700 1;
#X obj 445 373 hsl 128 15 0 100 0 0 /crabe/wcolorA /crabe/wcolorA_
wcolorA 135 10 0 10 -262144 -1 -1 12700 1;
#X obj 169 141 mtl/gemsWin /dimen 640 480;
#X obj 437 397 cnv 15 200 60 empty empty empty 20 12 0 14 -204786 -66577
0;
#X obj 451 415 hsl 128 15 0 160 0 0 /crabe/width /crabe/width_
width 135 10 0 10 -262144 -1 -1 79 1;
#X obj 451 433 hsl 128 15 0 150 0 0 /crabe/tsize /crabe/tsize_
tsize 135 10 0 10 -262144 -1 -1 254 1;
#X text 441 394 Label;
#X obj 437 13 cnv 15 200 90 empty empty empty 20 12 0 14 -261234 -66577
0;
#X obj 444 20 hsl 128 15 -160 160 0 0 /crabe/positionX /crabe/positionX_
positionX 135 10 0 10 -262144 -1 -1 6350 1;
#X obj 445 41 hsl 128 15 -160 160 0 0 /crabe/positionY /crabe/positionY_
positionY 135 10 0 10 -262144 -1 -1 6350 1;
#X obj 445 61 hsl 128 15 0 160 0 0 /crabe/sizeX /crabe/sizeX_
sizeX 135 10 0 10 -262144 -1 -1 397 1;
#X obj 445 81 hsl 128 15 0 160 0 0 /crabe/sizeY /crabe/sizeY_
sizeY 135 10 0 10 -262144 -1 -1 397 1;
#X obj 438 -21 cnv 15 200 30 empty empty empty 20 12 0 14 -191407 -66577
0;
#X obj 444 -14 tgl 15 0 /crabe/on /crabe/on_ On 17 7 0 10 -262144
-1 -1 0 1;
#X obj 478 -14 tgl 15 0 /crabe/drag /crabe/drag_ Drag 17 7 0
10 -262144 -1 -1 0 1;
#X obj 582 -14 bng 15 250 50 0 /crabe/reset /crabe/reset_ Reset
17 7 0 10 -262144 -1 -1;
#X text 10 9 tags: gems;
#X text 11 24 author : raphael isdant http://www.raphaelisdant.fr;
#X obj 440 -70 import Gem;
#X text 31 -49 [gemsKnob] : gestion d'un Knob dans gem;
#X text 11 -6 Description: Knob in the Gem window.;
#N canvas 480 252 403 304 communication 0;
#X obj -5 -6 cnv 15 400 300 empty empty empty 20 12 0 14 -260758 -66577
0;
#X obj 3 2 cnv 15 380 20 empty empty empty 20 12 0 14 -262144 -66577
0;
#X obj 141 211 tgl 15 0 empty empty empty 17 7 0 10 -262144 -1 -1 0
1;
#X obj 281 212 tgl 15 0 empty empty empty 17 7 0 10 -262144 -1 -1 0
1;
#X text 276 228 clic dans la zone;
#X text 141 225 souris dans la zone;
#X obj 14 223 hsl 50 15 0 1 0 0 empty empty empty -2 -8 0 10 -262144
-1 -1 0 1;
#X floatatom 11 250 5 0 0 0 - - -;
#X text 5 40 ____________________________________________________________
;
#X text 5 167 ____________________________________________________________
;
#X text 8 164 RECEPTION (GLOBALE);
#X text 9 3 Envoi / réception des messages suivant le NOM DE L'OBJET:
;
#X obj 10 113 s crabe-knob;
#X obj 10 75 knob 32 32 0 1 0 0 empty empty empty 0 -8 0 8 -262144
-1 -1 0 1;
#X obj 11 190 r crabe-value;
#X obj 141 190 r crabe-zone;
#X obj 281 190 r crabe-clic;
#X text 8 268 état du bouton rotatif;
#X obj 311 74 knob 32 32 0 1 0 0 empty empty empty 0 -8 0 8 -262144
-1 -1 0 1;
#X obj 311 114 s crabe;
#X obj 171 77 knob 32 32 0 1 0 0 empty empty empty 0 -8 0 8 -262144
-1 -1 0 1;
#X text 171 137 type;
#X text 309 135 globale;
#X text 6 36 ENVOI (LOCAL/TYPE/GLOBALE);
#X text 8 138 local;
#X obj 171 115 s gem_knob;
#X connect 6 0 7 0;
#X connect 13 0 12 0;
#X connect 14 0 6 0;
#X connect 15 0 2 0;
#X connect 16 0 3 0;
#X connect 18 0 19 0;
#X connect 20 0 25 0;
#X restore 302 244 pd communication;
#X obj 31 253 gemsKnob /id crabe -1 1 1 1;
#X connect 19 0 40 0;
#X connect 21 0 60 0;
#X connect 60 0 5 0;
#X connect 60 1 7 0;
#X connect 60 2 8 0;
