#N canvas 564 82 789 661 10;
#X obj -273 118 s \$0-input;
#X obj -273 21 inlet;
#X obj -101 195 s \$0-xy;
#X obj 842 290 outlet zone;
#X obj 927 290 outlet clic;
#X obj 752 290 outlet value;
#X obj 842 267 r \$0-zone;
#X obj 927 266 r \$0-clic;
#X text -273 -52 gem_toggle \, 5 arguments: NAME Xpos Ypos Xsize Ysize
;
#X obj 68 511 pack f f f f;
#X obj 78 465 t b f;
#X obj 117 464 t b f;
#X obj 154 464 t b f;
#X obj 67 553 s \$0-bcolor;
#X obj 158 441 / 100;
#X obj 115 441 / 100;
#X obj 79 439 / 100;
#X obj 69 414 / 100;
#X obj -250 507 pack f f f f;
#X obj -240 461 t b f;
#X obj -201 460 t b f;
#X obj -164 460 t b f;
#X obj -160 437 / 100;
#X obj -203 437 / 100;
#X obj -239 435 / 100;
#X obj -249 410 / 100;
#X obj -251 549 s \$0-bcolor2;
#X obj 388 503 pack f f f f;
#X obj 398 457 t b f;
#X obj 437 456 t b f;
#X obj 474 456 t b f;
#X obj 478 433 / 100;
#X obj 435 433 / 100;
#X obj 399 431 / 100;
#X obj 389 406 / 100;
#X obj 389 544 s \$0-tcolor;
#X obj 694 491 pack f f f f;
#X obj 704 445 t b f;
#X obj 743 444 t b f;
#X obj 780 444 t b f;
#X obj 784 421 / 100;
#X obj 741 421 / 100;
#X obj 705 419 / 100;
#X obj 695 394 / 100;
#X obj 695 532 s \$0-wcolor;
#X obj 73 344 tof/param /bcolorR 50 /g slider 0 100;
#X obj 88 370 tof/param /bcolorV 50 /g slider 0 100;
#X obj 119 395 tof/param /bcolorB 50 /g slider 0 100;
#X obj 151 419 tof/param /bcolorA 50 /g slider 0 100;
#X obj 391 336 tof/param /tcolorR 100 /g slider 0 100;
#X obj 408 362 tof/param /tcolorV 100 /g slider 0 100;
#X obj 439 387 tof/param /tcolorB 100 /g slider 0 100;
#X obj 471 411 tof/param /tcolorA 100 /g slider 0 100;
#X obj -246 340 tof/param /bcolor2R 25 /g slider 0 100;
#X obj -230 366 tof/param /bcolor2V 25 /g slider 0 100;
#X obj -198 391 tof/param /bcolor2B 25 /g slider 0 100;
#X obj -167 415 tof/param /bcolor2A 25 /g slider 0 100;
#X obj 714 350 tof/param /wcolorV 100 /g slider 0 100;
#X obj 745 375 tof/param /wcolorB 100 /g slider 0 100;
#X obj 777 399 tof/param /wcolorA 100 /g slider 0 100;
#X obj 295 -34 inlet params;
#X obj 295 12 print PARAM_NOTFOUND;
#X obj 295 -12 tof/param route;
#X obj 298 37 b;
#X obj 299 66 tof/param gui;
#X obj 303 98 tof/param /on 0 /g tgl 0 1;
#X obj 304 120 s \$0-vis;
#X obj 303 169 / 10;
#X obj 304 192 s \$0-width;
#X obj 303 144 tof/param /width 1 /g slider 0 160;
#X obj 302 241 s \$0-tsize;
#X obj 301 216 tof/param /tsize 3 /g slider 0 150;
#X obj 599 98 s \$0-pos;
#X obj 582 75 pack;
#X obj 583 48 t b f;
#X obj 535 -23 tof/param /positionX 0 /g slider -160 160;
#X obj 554 2 tof/param /positionY 0 /g slider -160 160;
#X obj 578 26 / 10;
#X obj 542 28 / 10;
#X obj 858 77 pack;
#X obj 859 50 t b f;
#X obj 854 28 / 10;
#X obj 818 30 / 10;
#X obj 851 98 s \$0-size;
#X obj 813 -22 tof/param /sizeX 5 /g slider 0 160;
#X obj 830 4 tof/param /sizeY 5 /g slider 0 160;
#X obj 561 138 tof/param /drag 0 /g tgl 0 1;
#X obj 562 160 s \$0-drag;
#X obj 547 188 tof/param /set 0 /g tgl 0 1;
#X obj 548 210 s \$0-set;
#X obj -212 143 s \$0-pos;
#X obj 511 287 s \$0-reset;
#X obj 513 258 tof/param /reset /g bng;
#X obj 681 319 tof/param /wcolorR 100 /g slider 0 100;
#X text -277 -19 author : raphael isdant http://www.raphaelisdant.fr
;
#X text -275 -36 comment;
#X text -276 -2 comment;
#X obj -153 21 r \$0-bang;
#N canvas 728 82 633 661 display 0;
#X obj -186 366 square;
#X obj -171 316 loadbang;
#X msg -171 340 draw line;
#X obj -183 69 gemhead;
#X obj -183 395 color 1 1 1 0.5;
#X obj -183 92 alpha;
#X obj -96 371 r \$0-tcolor;
#X obj -108 197 r \$0-wcolor;
#X obj -233 416 loadbang;
#X obj -102 316 r \$0-width;
#X msg -102 340 width \$1;
#X obj -183 49 r \$0-vis;
#X obj -183 221 color 1 1 1 1;
#X obj -151 485 r \$0-tsize;
#X msg -83 533 justify center top;
#X obj 40 77 l 0.5 0.5 0.5 0.8;
#X obj -95 -15 r \$0-bcolor2;
#X obj 56 13 r \$0-bcolor;
#X obj -183 116 color 0.5 0.5 0.5 0.8;
#X obj -90 62 l 0.8 0.8 0.8 0.8;
#X obj -240 444 r \$0-name;
#X msg -240 492 text \$1;
#X obj -43 94 r \$0-pos;
#X obj -183 140 translate 1 \$2 \$3 0;
#X msg -43 116 \$1 \$2 0;
#X obj -183 242 translate 1 0 0 0.01;
#X obj -44 139 r \$0-size;
#X obj -183 170 scale 1 \$4 \$5 1;
#X msg -44 164 \$1 \$2 1;
#X obj -60 11 route bang;
#X obj 15 40 del 200;
#X obj -74 452 loadbang;
#X msg -74 473 5;
#X obj -183 198 circle;
#X obj -183 580 text3d \$2;
#X obj 133 -27 r \$0-value;
#X obj -240 472 symbol \$1;
#X connect 0 0 4 0;
#X connect 1 0 2 0;
#X connect 2 0 0 0;
#X connect 3 0 5 0;
#X connect 4 0 34 0;
#X connect 5 0 18 0;
#X connect 6 0 4 1;
#X connect 7 0 12 1;
#X connect 8 0 36 0;
#X connect 9 0 10 0;
#X connect 10 0 0 0;
#X connect 11 0 3 0;
#X connect 12 0 25 0;
#X connect 13 0 34 1;
#X connect 14 0 34 0;
#X connect 15 0 18 1;
#X connect 16 0 19 0;
#X connect 17 0 15 0;
#X connect 18 0 23 0;
#X connect 19 0 18 1;
#X connect 20 0 36 0;
#X connect 21 0 34 0;
#X connect 22 0 24 0;
#X connect 23 0 27 0;
#X connect 24 0 23 2;
#X connect 25 0 0 0;
#X connect 26 0 28 0;
#X connect 27 0 33 0;
#X connect 28 0 27 2;
#X connect 29 0 19 0;
#X connect 29 0 30 0;
#X connect 30 0 15 0;
#X connect 31 0 32 0;
#X connect 31 0 14 0;
#X connect 32 0 34 1;
#X connect 33 0 12 0;
#X connect 35 0 29 0;
#X connect 36 0 21 0;
#X restore -263 205 pd display;
#N canvas 803 185 562 455 test_position 1;
#X obj 21 156 spigot;
#X obj 21 89 t a a a;
#X msg 54 181 \$3;
#X msg 75 96 \$1 \$2;
#X obj 21 207 spigot;
#X obj 75 117 expr if ($f1 > $f3-$f5 && $f1 < $f3+$f5 && $f2 > $f4-$f6
&& $f2 < $f4+$f6 \, 1 \, 0) \;;
#X msg 226 61 \$1;
#X msg 285 61 \$2;
#X msg 353 62 \$1;
#X msg 419 63 \$2;
#X obj 490 70 loadbang;
#X msg 21 257 pos \$1 \$2;
#X obj 21 234 spigot 0;
#X obj 226 15 r \$0-pos;
#X obj 352 18 r \$0-size;
#X obj 78 210 r \$0-drag;
#X obj 352 37 t b a a;
#X obj 226 38 t a a;
#X obj 111 277 r \$0-set;
#X msg 111 319 set \$1;
#X obj 194 319 sel 1;
#X obj 75 152 change;
#X obj 21 68 r \$0-xy;
#X text -13 31 $f3 X \, $f4 Y \, $f5 scale_X \, $f6 scale_y;
#X text -11 11 \$2 X \, \$3 Y \, \$4 scale_X \, \$5 scale_y;
#X obj 159 179 s \$0-zone;
#X obj 216 232 s \$0-clic;
#X obj 21 285 s \$0-bang;
#X obj 149 357 bng 15 250 50 0 empty empty empty 17 7 0 10 -262144
-1 -1;
#X obj 111 390 s \$2-value;
#X obj 154 232 s \$2-clic;
#X obj 94 179 s \$2-zone;
#X obj 226 86 \$3;
#X obj 285 92 \$4;
#X obj 353 94 \$5;
#X obj 419 91 \$6;
#X obj 190 394 s \$0-value;
#X obj 243 318 r \$0-bang;
#X obj 311 320 r \$2-bang;
#X obj 198 276 r \$0-input;
#X connect 0 0 2 0;
#X connect 0 0 4 0;
#X connect 1 0 0 0;
#X connect 1 2 3 0;
#X connect 2 0 4 1;
#X connect 2 0 20 0;
#X connect 2 0 26 0;
#X connect 2 0 30 0;
#X connect 3 0 5 0;
#X connect 4 0 12 0;
#X connect 5 0 21 0;
#X connect 6 0 32 0;
#X connect 7 0 33 0;
#X connect 8 0 34 0;
#X connect 9 0 35 0;
#X connect 10 0 32 0;
#X connect 10 0 33 0;
#X connect 10 0 34 0;
#X connect 10 0 35 0;
#X connect 11 0 27 0;
#X connect 12 0 11 0;
#X connect 13 0 17 0;
#X connect 14 0 16 0;
#X connect 15 0 12 1;
#X connect 16 0 32 0;
#X connect 16 1 8 0;
#X connect 16 2 9 0;
#X connect 17 0 6 0;
#X connect 17 1 7 0;
#X connect 18 0 19 0;
#X connect 19 0 28 0;
#X connect 20 0 28 0;
#X connect 21 0 0 1;
#X connect 21 0 25 0;
#X connect 21 0 31 0;
#X connect 22 0 1 0;
#X connect 28 0 29 0;
#X connect 28 0 36 0;
#X connect 32 0 5 2;
#X connect 33 0 5 3;
#X connect 34 0 5 4;
#X connect 35 0 5 5;
#X connect 37 0 28 0;
#X connect 38 0 28 0;
#X connect 39 0 28 0;
#X restore -263 182 pd test_position;
#N canvas 1 82 1364 661 init 0;
#X obj 129 83 \$0;
#X obj 129 3 \$4;
#X obj 129 31 == 0;
#X obj 129 59 sel 1;
#X obj 129 -22 loadbang;
#X obj 106 -21 bng 15 250 50 0 empty empty empty 17 7 0 10 -262144
-1 -1;
#X obj 328 163 s \$0-pos;
#X obj 264 163 s \$0-name;
#X obj 383 164 s \$0-size;
#X obj 328 113 bng 15 250 50 0 empty empty empty 17 7 0 10 -262144
-1 -1;
#X obj 383 114 bng 15 250 50 0 empty empty empty 17 7 0 10 -262144
-1 -1;
#X obj 264 113 bng 15 250 50 0 empty empty empty 17 7 0 10 -262144
-1 -1;
#X obj 264 70 r \$0-reset;
#X obj 457 142 / 10;
#X obj 458 165 s \$0-width;
#X obj 528 165 s \$0-tsize;
#X msg 453 115 1;
#X msg 527 142 3;
#X obj 264 139 symbol \$2;
#X obj 328 139 \$3 \$4;
#X obj 383 138 \$5 \$6;
#X msg 129 111 \; \$1-pos 0 0 \; \$1-size 1 1 \;;
#X connect 0 0 21 0;
#X connect 1 0 2 0;
#X connect 2 0 3 0;
#X connect 3 0 0 0;
#X connect 4 0 1 0;
#X connect 5 0 1 0;
#X connect 9 0 19 0;
#X connect 10 0 20 0;
#X connect 11 0 18 0;
#X connect 12 0 16 0;
#X connect 12 0 17 0;
#X connect 12 0 18 0;
#X connect 12 0 19 0;
#X connect 12 0 20 0;
#X connect 13 0 14 0;
#X connect 16 0 13 0;
#X connect 17 0 15 0;
#X connect 18 0 7 0;
#X connect 19 0 6 0;
#X connect 20 0 8 0;
#X restore -263 159 pd init;
#X obj -260 64 route bang pos list;
#X obj -77 22 r \$2;
#X obj -228 21 r \$2-bang;
#X obj 752 266 r \$0-value;
#X connect 1 0 101 0;
#X connect 6 0 3 0;
#X connect 7 0 4 0;
#X connect 9 0 13 0;
#X connect 10 0 9 0;
#X connect 10 1 9 1;
#X connect 11 0 9 0;
#X connect 11 1 9 2;
#X connect 12 0 9 0;
#X connect 12 1 9 3;
#X connect 14 0 12 0;
#X connect 15 0 11 0;
#X connect 16 0 10 0;
#X connect 17 0 9 0;
#X connect 18 0 26 0;
#X connect 19 0 18 0;
#X connect 19 1 18 1;
#X connect 20 0 18 0;
#X connect 20 1 18 2;
#X connect 21 0 18 0;
#X connect 21 1 18 3;
#X connect 22 0 21 0;
#X connect 23 0 20 0;
#X connect 24 0 19 0;
#X connect 25 0 18 0;
#X connect 27 0 35 0;
#X connect 28 0 27 0;
#X connect 28 1 27 1;
#X connect 29 0 27 0;
#X connect 29 1 27 2;
#X connect 30 0 27 0;
#X connect 30 1 27 3;
#X connect 31 0 30 0;
#X connect 32 0 29 0;
#X connect 33 0 28 0;
#X connect 34 0 27 0;
#X connect 36 0 44 0;
#X connect 37 0 36 0;
#X connect 37 1 36 1;
#X connect 38 0 36 0;
#X connect 38 1 36 2;
#X connect 39 0 36 0;
#X connect 39 1 36 3;
#X connect 40 0 39 0;
#X connect 41 0 38 0;
#X connect 42 0 37 0;
#X connect 43 0 36 0;
#X connect 45 0 17 0;
#X connect 46 0 16 0;
#X connect 47 0 15 0;
#X connect 48 0 14 0;
#X connect 49 0 34 0;
#X connect 50 0 33 0;
#X connect 51 0 32 0;
#X connect 52 0 31 0;
#X connect 53 0 25 0;
#X connect 54 0 24 0;
#X connect 55 0 23 0;
#X connect 56 0 22 0;
#X connect 57 0 42 0;
#X connect 58 0 41 0;
#X connect 59 0 40 0;
#X connect 60 0 62 0;
#X connect 62 0 61 0;
#X connect 63 0 64 0;
#X connect 65 0 66 0;
#X connect 67 0 68 0;
#X connect 69 0 67 0;
#X connect 71 0 70 0;
#X connect 73 0 72 0;
#X connect 74 0 73 0;
#X connect 74 1 73 1;
#X connect 75 0 78 0;
#X connect 76 0 77 0;
#X connect 77 0 74 0;
#X connect 78 0 73 0;
#X connect 79 0 83 0;
#X connect 80 0 79 0;
#X connect 80 1 79 1;
#X connect 81 0 80 0;
#X connect 82 0 79 0;
#X connect 84 0 82 0;
#X connect 85 0 81 0;
#X connect 86 0 87 0;
#X connect 88 0 89 0;
#X connect 92 0 91 0;
#X connect 93 0 43 0;
#X connect 97 0 101 0;
#X connect 101 0 0 0;
#X connect 101 1 90 0;
#X connect 101 2 2 0;
#X connect 102 0 101 0;
#X connect 103 0 101 0;
#X connect 104 0 5 0;
