#N canvas 37 82 970 527 10;
#N canvas 0 50 502 352 \$0-dynamicpatch 0;
#X obj 150 40 route 0 1 2 3 4;
#X obj 150 15 r 1324xyz;
#X obj 10 15 r 1324gem;
#X obj 10 40 GEMglVertex3fv;
#X obj 10 40 GEMglVertex3fv;
#X obj 10 40 GEMglVertex3fv;
#X obj 10 40 GEMglVertex3fv;
#X obj 10 40 GEMglVertex3fv;
#X obj 10 60 s 1324gemout;
#X connect 0 0 3 1;
#X connect 0 1 4 1;
#X connect 0 2 5 1;
#X connect 0 3 6 1;
#X connect 0 4 7 1;
#X connect 1 0 0 0;
#X connect 2 0 3 0;
#X connect 3 0 4 0;
#X connect 4 0 5 0;
#X connect 5 0 6 0;
#X connect 6 0 7 0;
#X connect 7 0 8 0;
#X restore 291 18 pd \$0-dynamicpatch;
#X obj 111 74 f \$1;
#X obj 151 120 until;
#X obj 185 14 inlet;
#X obj 112 15 loadbang;
#X obj -113 14 inlet gemchain;
#X obj -112 96 s \$0gem;
#X msg 195 121 0;
#X obj 335 135 symbol;
#X msg 336 159 \; \$1 clear;
#X obj 335 73 f \$0;
#X text 359 114 id of the dynamic subpatch;
#X obj 151 142 f 0;
#X obj 189 144 + 1;
#X obj 268 212 pack f s;
#X obj 268 191 f \$0;
#X obj 35 -16 inlet knot_xyz;
#X obj -87 468 outlet gemchain;
#X obj -87 416 r \$0gemout;
#X msg 666 221 set;
#X msg 667 242 addsemi;
#X msg 668 312 add2 \$1;
#X obj 548 214 until;
#X msg 588 220 0;
#X obj 548 244 f 0;
#X obj 578 243 + 1;
#X obj 530 315 symbol;
#X obj 181 167 t f f f;
#X obj 149 217 pack f f f s;
#X obj 530 152 f \$1;
#X text 168 -3 objects: 0:route 0-n-1 \, 1:r 0xyz \, 2:r 0gem;
#X obj 181 191 + 2;
#X obj 212 193 + 3;
#X text 22 370 dollards: 1:route number \, 2:previous object \, 3:current
object;
#X obj 19 224 pack f s f f;
#X obj 33 148 t f f;
#X obj 33 174 + 2;
#X obj 63 175 + 3;
#X msg 19 248 \; \$2 obj 10 60 s \$3gemout \; \$2 connect \$1 0 \$4
0;
#X msg 670 263 adddollar 1;
#X msg 268 234 \; \$2 obj 150 15 r \$1xyz \; \$2 obj 10 15 r \$1gem
\; \$2 connect 1 0 0 0 \;;
#X msg 531 373 \; \$1 obj 150 40 route 0 1 2 3 4 5 6 7 8 9;
#X msg 670 288 add2 obj 150 40 route;
#X msg 150 299 \; \$4 obj 10 40 GEMglVertex3fv \; \$4 connect \$2 0
\$3 0 \; \$4 connect 0 \$1 \$3 1 \;;
#X obj 186 38 t f b b f b;
#X obj -112 72 GEMglBegin;
#X obj -47 53 GLdefine GL_LINE_STRIP;
#X obj -47 34 loadbang;
#X obj -88 440 GEMglEnd;
#X obj 531 178 t b f b b b b b;
#X obj 106 35 t b b b b;
#X obj 111 97 t f f f;
#X obj 38 10 s \$0xyz;
#X msg 236 17 0;
#X obj 335 92 makesymbol pd-%s-dynamicpatch;
#X connect 1 0 51 0;
#X connect 2 0 12 0;
#X connect 3 0 44 0;
#X connect 4 0 50 0;
#X connect 5 0 45 0;
#X connect 7 0 12 1;
#X connect 8 0 9 0;
#X connect 10 0 34 2;
#X connect 10 0 54 0;
#X connect 12 0 13 0;
#X connect 12 0 27 0;
#X connect 13 0 12 1;
#X connect 14 0 40 0;
#X connect 15 0 14 0;
#X connect 16 0 52 0;
#X connect 18 0 48 0;
#X connect 19 0 41 0;
#X connect 20 0 41 0;
#X connect 21 0 41 0;
#X connect 22 0 24 0;
#X connect 23 0 24 1;
#X connect 24 0 25 0;
#X connect 24 0 21 0;
#X connect 25 0 24 1;
#X connect 26 0 41 0;
#X connect 27 0 28 0;
#X connect 27 1 31 0;
#X connect 27 2 32 0;
#X connect 28 0 43 0;
#X connect 29 0 49 0;
#X connect 31 0 28 1;
#X connect 32 0 28 2;
#X connect 34 0 38 0;
#X connect 35 0 36 0;
#X connect 35 1 37 0;
#X connect 36 0 34 0;
#X connect 37 0 34 3;
#X connect 39 0 41 0;
#X connect 42 0 41 0;
#X connect 44 0 1 0;
#X connect 44 1 7 0;
#X connect 44 2 15 0;
#X connect 44 3 29 0;
#X connect 44 4 8 0;
#X connect 45 0 6 0;
#X connect 46 0 45 1;
#X connect 47 0 46 0;
#X connect 48 0 17 0;
#X connect 49 0 26 0;
#X connect 49 1 22 0;
#X connect 49 2 42 0;
#X connect 49 3 39 0;
#X connect 49 4 20 0;
#X connect 49 5 19 0;
#X connect 49 6 23 0;
#X connect 50 0 1 0;
#X connect 50 1 15 0;
#X connect 50 2 29 0;
#X connect 50 3 10 0;
#X connect 51 0 35 0;
#X connect 51 1 2 0;
#X connect 53 0 44 0;
#X connect 54 0 8 0;
#X connect 54 0 14 1;
#X connect 54 0 26 1;
#X connect 54 0 28 3;
#X connect 54 0 34 1;
