#N canvas 1 82 1364 661 10;
#X msg 193 218 \$1 \$2 0;
#X obj 94 207 gemhead;
#X obj 94 418 color 1 0 0;
#X obj 94 263 translate 1 0 0 0;
#X obj 94 374 translate 1 0 -1 0;
#X obj 94 232 spigot;
#X obj 94 483 text3d;
#X obj 485 240 spigot;
#X msg 518 213 \$3;
#X obj 94 320 rectangle 0.05 0.5;
#X obj 94 354 rectangle 0.5 0.05;
#N canvas 754 157 467 575 list_round 0;
#X obj 84 463 list;
#X obj 107 419 list prepend;
#X obj 84 114 t b a b;
#X text 182 145 "Drip" (serialize) the list;
#X text 131 460 Final result is built here;
#X obj 84 45 inlet;
#X obj 84 494 outlet;
#X text 265 423 Repack the list;
#X obj 203 420 t a;
#X obj 107 240 route float;
#X text 308 318 round it;
#N canvas 0 0 450 300 list_drip 0;
#X obj 73 94 t a a;
#X obj 73 251 spigot;
#X obj 112 159 bang;
#X obj 112 178 1;
#X obj 233 159 route bang;
#X obj 193 160 bang;
#X obj 193 179 0;
#X obj 112 124 list split 2;
#X obj 242 389 list split;
#X obj 309 338 list length;
#X obj 309 360 >> 1;
#X obj 73 270 t a a a a;
#X obj 73 456 list split;
#X obj 140 408 list length;
#X obj 140 433 >> 1;
#X obj 41 29 inlet;
#X obj 300 185 outlet;
#X text 83 29 Copyright 2009 by Mathieu Bouchard;
#X obj 41 63 t b a;
#X obj 475 129 outlet;
#X text 530 131 signal end of list;
#X text 391 33 made compatible with [list-drip]: fbar 2009;
#X connect 0 0 1 0;
#X connect 0 1 7 0;
#X connect 1 0 11 0;
#X connect 2 0 3 0;
#X connect 3 0 1 1;
#X connect 4 1 16 0;
#X connect 5 0 6 0;
#X connect 6 0 1 1;
#X connect 7 0 2 0;
#X connect 7 2 4 0;
#X connect 7 2 5 0;
#X connect 8 0 0 0;
#X connect 9 0 10 0;
#X connect 10 0 8 1;
#X connect 11 0 12 0;
#X connect 11 1 13 0;
#X connect 11 2 8 0;
#X connect 11 3 9 0;
#X connect 12 1 0 0;
#X connect 13 0 14 0;
#X connect 14 0 12 1;
#X connect 15 0 18 0;
#X connect 18 0 19 0;
#X connect 18 1 0 0;
#X restore 107 144 pd list_drip;
#X obj 107 316 expr int(0.5 + $f1/0.1)*0.1;
#X connect 0 0 6 0;
#X connect 1 0 0 1;
#X connect 1 0 8 0;
#X connect 2 0 0 0;
#X connect 2 1 11 0;
#X connect 2 2 1 1;
#X connect 5 0 2 0;
#X connect 8 0 1 1;
#X connect 9 0 12 0;
#X connect 9 1 1 0;
#X connect 11 0 9 0;
#X connect 12 0 1 0;
#X restore 485 272 pd list_round;
#X obj 903 50 inlet params;
#X obj 903 96 print PARAM_NOTFOUND;
#X obj 903 72 tof/param route;
#X obj 906 121 b;
#X obj 907 150 tof/param gui;
#X obj 485 186 inlet;
#X msg 485 308 text x:\$1 y:\$2;
#X msg 235 458 4;
#X obj 235 434 initbang;
#X obj 183 137 tof/param /on 1 /g tgl 0 1;
#X text 823 204 author : raphael isdant http://www.raphaelisdant.fr
;
#X connect 0 0 3 2;
#X connect 1 0 5 0;
#X connect 2 0 6 0;
#X connect 3 0 9 0;
#X connect 4 0 2 0;
#X connect 5 0 3 0;
#X connect 7 0 0 0;
#X connect 7 0 11 0;
#X connect 8 0 7 1;
#X connect 9 0 10 0;
#X connect 10 0 4 0;
#X connect 11 0 18 0;
#X connect 12 0 14 0;
#X connect 14 0 13 0;
#X connect 15 0 16 0;
#X connect 17 0 8 0;
#X connect 17 0 7 0;
#X connect 18 0 6 0;
#X connect 19 0 6 1;
#X connect 20 0 19 0;
#X connect 21 0 5 1;
