#N canvas 0 82 1366 662 10;
#X declare -lib Gem;
#X declare -lib Gem;
#X obj 17 91 tgl 15 0 empty empty empty 17 7 0 10 -262144 -1 -1 1 1
;
#X msg 17 350 -4.66667 4 0;
#X msg 71 297 -4.66667 4 0;
#X msg 118 235 -4.66667 4 0;
#X text 141 329 left button: state(up/down) X Y;
#X text 202 270 middle button: state(up/down) X Y;
#X text 247 205 right button: state(up/down) X Y;
#X obj 16 109 mtl/gemsWin;
#X obj 17 320 cyclone/prepend set;
#X obj 71 267 cyclone/prepend set;
#X obj 118 209 cyclone/prepend set;
#X text 16 55 tags: gems;
#X text 17 14 Description: sends out mouse events which occur in the
GEM window. The coordinates match the coordinates of the GEM world.
;
#X obj 441 17 import Gem;
#X obj 17 133 mtl/gemsMouse;
#X text 145 362 outlet: coordonnées + click centre;
#X text 238 404 outlet: coordonnées + click droit;
#X obj 40 448 print LEFT:;
#X obj 162 418 print MIDDLE:;
#X obj 341 357 print RIGHT:;
#X connect 0 0 7 0;
#X connect 8 0 1 0;
#X connect 9 0 2 0;
#X connect 10 0 3 0;
#X connect 14 0 8 0;
#X connect 14 0 17 0;
#X connect 14 1 9 0;
#X connect 14 1 18 0;
#X connect 14 2 10 0;
#X connect 14 2 19 0;
