#N canvas 1 82 1364 661 10;
#X obj 842 290 outlet zone;
#X obj 927 290 outlet clic;
#X obj 842 267 r \$0-zone;
#X obj 927 266 r \$0-clic;
#X text -273 -52 gem_toggle \, 5 arguments: NAME Xpos Ypos Xsize Ysize
;
#X obj 948 103 inlet params;
#X obj 948 149 print PARAM_NOTFOUND;
#X obj 948 125 tof/param route;
#X obj 951 174 b;
#X obj 952 203 tof/param gui;
#X obj 585 316 tof/param /on 0 /g tgl 0 1;
#X obj 586 338 s \$0-vis;
#X obj 599 98 s \$0-pos;
#X obj 582 75 pack;
#X obj 583 48 t b f;
#X obj 535 -23 tof/param /positionX 0 /g slider -160 160;
#X obj 554 2 tof/param /positionY 0 /g slider -160 160;
#X obj 578 26 / 10;
#X obj 542 28 / 10;
#X obj 753 140 tof/param /drag 0 /g tgl 0 1;
#X obj 754 162 s \$0-drag;
#X obj 595 279 s \$0-reset;
#X obj 597 250 tof/param /reset /g bng;
#X text -277 -19 author : raphael isdant http://www.raphaelisdant.fr
;
#X obj 671 196 switch~;
#X obj 671 139 loadbang;
#X msg 671 161 1;
#X obj -163 410 outlet value;
#X obj -163 383 r \$0-value;
#X obj 206 381 prvu~;
#N canvas 1 82 450 300 pre_post 0;
#X obj 156 109 inlet~;
#X obj 157 242 outlet~;
#X obj 266 135 == 0;
#X obj 302 135 == 1;
#X obj 266 113 t a a;
#X obj 266 88 r \$0_pre;
#X obj 198 204 *~;
#X obj 198 129 inlet~;
#X obj 157 205 *~ 1;
#X connect 0 0 8 0;
#X connect 2 0 8 1;
#X connect 3 0 6 1;
#X connect 4 0 2 0;
#X connect 4 1 3 0;
#X connect 5 0 4 0;
#X connect 6 0 1 0;
#X connect 7 0 6 0;
#X connect 8 0 1 0;
#X restore 206 324 pd pre_post;
#X obj 157 289 *~;
#X obj 206 403 s \$0_prvu;
#X obj 157 470 throw~ \$1-out;
#X obj 215 259 r~ \$1-in;
#X obj 157 180 r \$0-value;
#X obj 157 215 pack 0 100;
#X obj 157 251 line~;
#X obj 97 181 r \$0-set;
#X obj 268 147 inlet~;
#X obj 97 472 outlet~;
#N canvas 440 443 450 300 init 0;
#X obj 74 78 loadbang;
#X obj 162 77 symbol \$1;
#X obj 247 76 \$2 \$3;
#X obj 247 100 s \$0-pos;
#X obj 162 101 s \$0-name;
#X obj 247 50 bng 15 250 50 0 empty empty empty 17 7 0 10 -262144 -1
-1;
#X obj 162 51 bng 15 250 50 0 empty empty empty 17 7 0 10 -262144 -1
-1;
#X obj 192 14 r \$0-reset;
#X obj 48 98 bng 15 250 50 0 empty empty empty 17 7 0 10 -262144 -1
-1;
#X obj 74 117 pack \$0 \$2 \$3;
#X msg 73 145 \; \$1-pos \$2 \$3 \; \$1-size 0.6 3 \;;
#X connect 0 0 9 0;
#X connect 1 0 4 0;
#X connect 2 0 3 0;
#X connect 5 0 2 0;
#X connect 6 0 1 0;
#X connect 7 0 2 0;
#X connect 7 0 1 0;
#X connect 8 0 9 0;
#X connect 9 0 10 0;
#X restore 945 493 pd init;
#N canvas 1 90 656 607 test_position 0;
#X obj 53 282 spigot;
#X obj 54 117 t a a a;
#X msg 106 309 \$3;
#X msg 138 113 \$1 \$2;
#X obj 52 342 spigot;
#X text 65 33 $f3 X \, $f4 Y \, $f5 scale_X \, $f6 scale_y;
#X text 67 13 \$2 X \, \$3 Y \, \$4 scale_X \, \$5 scale_y;
#X obj 297 124 \$2;
#X obj 351 123 \$3;
#X msg 297 99 \$1;
#X msg 366 84 \$2;
#X msg 417 118 \$1;
#X obj 357 49 loadbang;
#X obj 297 53 r \$0-pos;
#X obj 416 74 r \$0-size;
#X obj 416 93 t b a a;
#N canvas 0 0 449 380 rangeOUT 0;
#X obj 150 171 inlet;
#X obj 200 171 inlet;
#X obj 64 143 inlet;
#X obj 64 293 outlet;
#X obj 64 170 t f b;
#X obj 64 252 expr ($f1-$f2)*(0-1)/($f2-$f3)+0;
#X connect 0 0 5 1;
#X connect 1 0 5 2;
#X connect 2 0 4 0;
#X connect 4 0 5 0;
#X connect 5 0 3 0;
#X restore 98 507 pd rangeOUT;
#N canvas 355 113 449 380 rangeIN 0;
#X obj 150 171 inlet;
#X obj 200 171 inlet;
#X obj 64 143 inlet;
#X obj 64 293 outlet;
#X obj 64 170 t f b;
#X obj 64 252 expr $f1*($f2-$f3)/-1+$f2;
#X connect 0 0 5 1;
#X connect 1 0 5 2;
#X connect 2 0 4 0;
#X connect 4 0 5 0;
#X connect 5 0 3 0;
#X restore 110 449 pd rangeIN;
#X obj 5 397 r \$0-input;
#X obj 77 529 f;
#X obj 5 420 t b f;
#X obj 109 425 r \$0-set;
#X obj 4 494 r \$0-bang;
#X obj 56 579 s \$1-value;
#X obj 109 276 s \$1-zone;
#X obj 105 403 s \$1-clic;
#X obj 297 76 t a a;
#X msg 79 452 \$2;
#X obj 52 368 t b a;
#X obj 98 481 f;
#X obj 54 90 r \$0-xy;
#X obj 133 579 s \$0-value;
#X obj 176 277 s \$0-zone;
#X obj 166 403 s \$0-clic;
#X obj 140 165 expr if ($f1 > $f3-$f5 && $f1 < $f3 && $f2 > $f4 + $f7
- $f6 && $f2 < $f4-$f7+$f6 \, 1 \, 0) \;;
#X obj 456 125 expr $f2 \; $f2/6;
#X obj 305 309 expr $f2 - $f4 + $f4/6 \; $f2 + $f4 - $f4/6 \;;
#X obj 3 143 gemmouse;
#X obj 77 552 clip 0 1;
#X obj 286 485 r \$0-value;
#X obj 286 516 expr if ($f1 > 0 && $f1 < 1 \, 1 \, 0);
#X obj 90 230 &&;
#X obj 41 191 moses 1;
#X msg 159 355 pos \$1 \$2;
#X obj 159 332 spigot 0;
#X obj 204 308 r \$0-drag;
#X obj 159 375 s \$0-vu;
#X connect 0 0 2 0;
#X connect 0 0 4 0;
#X connect 1 0 0 0;
#X connect 1 2 3 0;
#X connect 2 0 4 1;
#X connect 2 0 25 0;
#X connect 2 0 33 0;
#X connect 3 0 34 0;
#X connect 4 0 28 0;
#X connect 4 0 44 0;
#X connect 7 0 34 2;
#X connect 7 0 36 0;
#X connect 8 0 34 3;
#X connect 8 0 36 1;
#X connect 9 0 7 0;
#X connect 10 0 8 0;
#X connect 11 0 34 4;
#X connect 11 0 36 2;
#X connect 12 0 8 0;
#X connect 12 0 7 0;
#X connect 13 0 26 0;
#X connect 14 0 15 0;
#X connect 15 0 7 0;
#X connect 15 1 11 0;
#X connect 15 2 35 0;
#X connect 16 0 19 1;
#X connect 17 0 29 0;
#X connect 18 0 20 0;
#X connect 19 0 38 0;
#X connect 20 0 19 0;
#X connect 20 1 17 0;
#X connect 21 0 17 0;
#X connect 22 0 19 0;
#X connect 26 0 9 0;
#X connect 26 1 10 0;
#X connect 27 0 29 0;
#X connect 28 0 19 0;
#X connect 28 1 27 0;
#X connect 29 0 16 0;
#X connect 30 0 1 0;
#X connect 34 0 24 0;
#X connect 34 0 32 0;
#X connect 34 0 41 1;
#X connect 35 0 34 5;
#X connect 35 0 36 3;
#X connect 35 1 34 6;
#X connect 36 0 17 1;
#X connect 36 0 16 1;
#X connect 36 1 17 2;
#X connect 36 1 16 2;
#X connect 37 2 42 0;
#X connect 38 0 23 0;
#X connect 38 0 31 0;
#X connect 39 0 40 0;
#X connect 41 0 0 1;
#X connect 42 0 0 1;
#X connect 42 1 41 0;
#X connect 43 0 46 0;
#X connect 44 0 43 0;
#X connect 45 0 44 1;
#X restore 945 514 pd test_position;
#N canvas 179 82 644 658 display 0;
#X obj -143 24 gemhead;
#X obj -143 47 alpha;
#X obj -143 4 r \$0-vis;
#X obj -143 146 pix_image fader_bg.tiff;
#X obj -195 181 loadbang;
#X obj -195 205 1;
#X obj -143 264 pix_texture;
#X obj -143 288 rectangle 0.3 1.5;
#X obj -144 542 pix_texture;
#X obj -144 518 pix_image fader_button.tiff;
#X obj -144 582 rectangle 0.12 0.28;
#X obj -41 249 unpack f f;
#X obj -43 228 r \$0-size;
#X msg -194 229 quality 1 \, rectangle 1;
#X obj 27 410 r \$0-value;
#X obj -126 316 r \$0-pos;
#X obj -126 342 unpack f f;
#X obj -48 346 unpack f f;
#X obj -50 320 r \$0-size;
#X obj -50 367 t b a;
#X obj 264 393 r \$0-size;
#X msg 264 415 \$2;
#N canvas 961 421 450 403 VU 0;
#X obj 18 8 inlet;
#X text 165 186 background;
#X text 165 172 orange;
#X text 155 92 background;
#X text 154 77 red;
#X text 166 279 background;
#X text 166 264 green;
#X obj 18 159 translateXYZ 0 -0.87 0;
#X obj 18 66 color 0.35 0 0;
#X obj 18 187 color 0.3 0.23 0;
#X obj 18 287 color 0 0.25 0;
#N canvas 656 62 582 479 gemhead2 0;
#X obj 39 128 colorRGB 1 0 0;
#X obj 151 105 min 2.4;
#X obj 151 75 r \$0_rms_cooked;
#X obj 39 185 translateXYZ 0 0 0;
#X text 155 202 red bar;
#X obj 41 329 colorRGB 0 0.9 0;
#X obj 163 305 r \$0_rms_cooked;
#X obj 41 303 separator;
#X obj 41 392 translateXYZ 0 0 0;
#N canvas 1193 251 567 539 color 0;
#X obj 47 48 inlet;
#X obj 121 383 outlet;
#X obj 136 223 change;
#X msg 215 311 0 0.9 0;
#X msg 213 335 1 0.7 0;
#X msg 213 360 1 0 0;
#X msg 136 175 1;
#X msg 208 176 2;
#X msg 252 175 3;
#X msg 47 172 0;
#X obj 136 248 sel 0 1 2 3;
#X msg 216 283 0 0 0;
#X obj 47 101 moses -1;
#X floatatom 124 57 5 0 0 0 - - -;
#X obj 136 125 moses 1.29;
#X obj 208 152 moses 2;
#X connect 0 0 12 0;
#X connect 0 0 13 0;
#X connect 2 0 10 0;
#X connect 3 0 1 0;
#X connect 4 0 1 0;
#X connect 5 0 1 0;
#X connect 6 0 2 0;
#X connect 7 0 2 0;
#X connect 8 0 2 0;
#X connect 9 0 2 0;
#X connect 10 0 11 0;
#X connect 10 1 3 0;
#X connect 10 2 4 0;
#X connect 10 3 5 0;
#X connect 11 0 1 0;
#X connect 12 0 9 0;
#X connect 12 1 14 0;
#X connect 14 0 6 0;
#X connect 14 1 15 0;
#X connect 15 0 7 0;
#X connect 15 1 8 0;
#X restore 446 354 pd color;
#X obj 295 393 color 0 0 0;
#N canvas 0 0 435 473 scaling 0;
#X obj 120 32 inlet;
#X obj 120 441 outlet;
#X obj 120 116 * -1;
#X msg 120 142 100 \$1;
#X obj 120 171 -;
#X obj 120 199 / 100;
#X obj 120 252 t f f;
#X obj 120 277 *;
#X obj 120 225 * 2;
#X obj 120 303 - 2;
#X obj 120 366 line;
#X msg 120 334 \$1 50;
#X connect 0 0 2 0;
#X connect 2 0 3 0;
#X connect 3 0 4 0;
#X connect 4 0 5 0;
#X connect 5 0 8 0;
#X connect 6 0 7 0;
#X connect 6 1 7 1;
#X connect 7 0 9 0;
#X connect 8 0 6 0;
#X connect 9 0 11 0;
#X connect 10 0 1 0;
#X connect 11 0 10 0;
#X restore 446 271 pd scaling;
#X obj 446 239 r \$0_peak;
#X text 445 428 peak;
#X obj 295 306 separator;
#X text 156 427 green bar;
#X obj 385 300 min 2.8;
#X obj 295 352 translateXYZ 0 0 0;
#X obj 285 92 colorRGB 1 0.7 0;
#X obj 408 55 min 2;
#X obj 408 31 r \$0_rms_cooked;
#X obj 285 65 separator;
#X text 402 193 orange bar;
#X obj 285 155 translateXYZ 0 1.54 0;
#X obj 408 92 max 1.54;
#X obj 151 128 max 2.01;
#X obj 187 162 - 2.01;
#X obj 39 70 r \$0_gemhead2;
#X obj 285 40 r \$0_gemhead2;
#X obj 295 280 r \$0_gemhead2;
#X obj 41 280 r \$0_gemhead2;
#X obj 39 97 separator;
#X obj 39 221 rectangle 0.2 1;
#X obj 285 191 rectangle 0.2 0;
#X obj 297 428 rectangle 0.2 0.025;
#X floatatom 219 117 5 0 0 0 - - -;
#X obj 163 330 min 1.545;
#X obj 41 430 rectangle 0.2 2.5;
#X obj 120 359 - 1.97;
#X obj 189 378 * 1.19;
#X obj 454 154 - 1.54;
#X obj 399 333 * 1.3;
#X obj 374 122 + 0.1;
#X obj 101 157 + 0.58;
#X connect 0 0 3 0;
#X connect 1 0 25 0;
#X connect 2 0 1 0;
#X connect 2 0 35 0;
#X connect 3 0 32 0;
#X connect 5 0 8 0;
#X connect 6 0 36 0;
#X connect 7 0 5 0;
#X connect 8 0 37 0;
#X connect 9 0 10 1;
#X connect 10 0 34 0;
#X connect 11 0 9 0;
#X connect 11 0 16 0;
#X connect 12 0 11 0;
#X connect 14 0 17 0;
#X connect 16 0 41 0;
#X connect 17 0 10 0;
#X connect 18 0 23 0;
#X connect 19 0 24 0;
#X connect 20 0 19 0;
#X connect 21 0 18 0;
#X connect 23 0 33 0;
#X connect 24 0 40 0;
#X connect 24 0 42 0;
#X connect 25 0 26 0;
#X connect 25 0 43 0;
#X connect 26 0 32 2;
#X connect 27 0 31 0;
#X connect 28 0 21 0;
#X connect 29 0 14 0;
#X connect 30 0 7 0;
#X connect 31 0 0 0;
#X connect 36 0 39 0;
#X connect 38 0 8 2;
#X connect 39 0 37 2;
#X connect 39 0 38 0;
#X connect 40 0 33 2;
#X connect 41 0 17 2;
#X connect 42 0 23 2;
#X connect 43 0 3 2;
#X restore 288 65 pd gemhead2;
#X obj 289 36 s \$0_gemhead2;
#X obj 287 185 unpack f f f;
#X obj 314 133 loadbang;
#X msg 314 155 -100 -100;
#X obj 287 105 inlet;
#X text 286 84 prvu~ list;
#X obj 287 280 s \$0_rms_cooked;
#X obj 326 213 s \$0_peak;
#N canvas 0 0 466 515 scaling 0;
#X obj 186 53 inlet;
#X obj 186 364 outlet;
#X msg 186 110 100 \$1;
#X obj 186 82 * -1;
#X obj 186 139 -;
#X obj 186 173 / 100;
#X obj 186 236 *;
#X obj 186 203 t f f;
#X obj 186 270 * 2;
#X obj 186 330 line;
#X msg 186 298 \$1 100;
#X connect 0 0 3 0;
#X connect 2 0 4 0;
#X connect 3 0 2 0;
#X connect 4 0 5 0;
#X connect 5 0 7 0;
#X connect 6 0 8 0;
#X connect 7 0 6 0;
#X connect 7 1 6 1;
#X connect 8 0 10 0;
#X connect 9 0 1 0;
#X connect 10 0 9 0;
#X restore 287 250 pd scaling;
#X obj 18 216 rectangle 0.2 0.46;
#X obj 18 39 translateXYZ 0 3 -0.01;
#X obj 18 92 rectangle 0.2 0.5;
#X obj 18 261 translateXYZ 0 -2.4 0;
#X obj 18 333 rectangle 0.2 1.95;
#X obj 18 355 outlet;
#X connect 0 0 12 0;
#X connect 0 0 22 0;
#X connect 7 0 9 0;
#X connect 8 0 23 0;
#X connect 9 0 21 0;
#X connect 10 0 25 0;
#X connect 13 0 20 0;
#X connect 13 1 19 0;
#X connect 14 0 15 0;
#X connect 15 0 13 0;
#X connect 16 0 13 0;
#X connect 20 0 18 0;
#X connect 21 0 24 0;
#X connect 22 0 8 0;
#X connect 23 0 7 0;
#X connect 24 0 10 0;
#X connect 25 0 26 0;
#X restore 95 218 pd VU;
#X obj -143 120 translateXYZ 0 0 0;
#X obj -100 96 unpack f f;
#X obj -102 70 r \$0-pos;
#X obj 95 96 gemhead;
#X obj 95 76 r \$0-vis;
#X obj 169 31 r \$0-pos;
#X obj 169 56 unpack;
#X obj 122 185 r \$0_prvu;
#X obj 14 441 expr ($f1 * 2 * ($f2-$f2/6)) - $f2 + $f2/6;
#X obj 161 103 + 0.21;
#X obj 95 136 translateXYZ 1.5 2 -0.1;
#X obj 213 101 - 0.8;
#X obj -119 400 expr ($f3/2.5) \; $f4 / 6 \; $f3/2.5 * -1 \; (-1 *
$f4) + ($f4/6);
#X obj -144 474 translateXYZ -0.13 -1.15 0.01;
#N canvas 1143 225 345 473 numeric 0;
#X obj 147 342 text2d;
#X msg 129 298 text \$1;
#X obj 188 228 loadbang;
#X obj 58 133 i;
#X obj 96 161 i;
#X obj 58 225 +;
#X obj 96 189 * 0.1;
#X obj 96 133 mod 10;
#X msg 188 296 13;
#X obj 58 70 r \$0_peak;
#X obj 58 102 t f f;
#X text 146 63 numeric;
#X obj 188 273 sel 0;
#X obj 58 251 moses -90;
#X msg 58 299 text -inf;
#X obj 58 276 t b;
#X obj 147 85 inlet;
#X obj 147 375 outlet;
#X obj 188 250 f \$6;
#X obj 172 194 r \$0_fontpath;
#X floatatom 216 92 5 0 0 0 - - -;
#X obj 145 133 translateXYZ -0.1 -2.2 0.02;
#X connect 0 0 17 0;
#X connect 1 0 0 0;
#X connect 2 0 18 0;
#X connect 3 0 5 0;
#X connect 4 0 6 0;
#X connect 5 0 13 0;
#X connect 6 0 5 1;
#X connect 7 0 4 0;
#X connect 8 0 0 1;
#X connect 9 0 10 0;
#X connect 10 0 3 0;
#X connect 10 1 7 0;
#X connect 12 0 8 0;
#X connect 12 1 0 1;
#X connect 13 0 15 0;
#X connect 13 1 1 0;
#X connect 14 0 0 0;
#X connect 15 0 14 0;
#X connect 16 0 21 0;
#X connect 18 0 12 0;
#X connect 19 0 0 0;
#X connect 20 0 21 2;
#X connect 21 0 0 0;
#X restore 95 269 pd numeric;
#X text 96 315 track nr;
#N canvas 951 147 414 578 label 0;
#X obj 78 423 text2d;
#X text 77 38 track nr;
#X obj 78 57 inlet;
#X obj 78 462 outlet;
#X obj 78 118 color 1 1 1;
#X obj 256 303 loadbang;
#X msg 256 376 13;
#X obj 256 348 sel 0;
#X obj 256 325 f \$6;
#X msg 102 220 justify center bottom;
#X obj 102 198 loadbang;
#X obj 90 159 r \$0_fontpath;
#X obj 114 281 loadbang;
#X msg 159 359 text \$1;
#X obj 114 306 list append \$5;
#X obj 114 329 sel 0;
#X msg 114 359 text;
#X obj 77 83 translateXYZ -0.1 2.9 0.02;
#X connect 0 0 3 0;
#X connect 2 0 17 0;
#X connect 4 0 0 0;
#X connect 5 0 8 0;
#X connect 6 0 0 1;
#X connect 7 0 6 0;
#X connect 7 1 0 1;
#X connect 8 0 7 0;
#X connect 9 0 0 0;
#X connect 10 0 9 0;
#X connect 11 0 0 0;
#X connect 12 0 14 0;
#X connect 13 0 0 0;
#X connect 14 0 15 0;
#X connect 15 0 16 0;
#X connect 15 1 13 0;
#X connect 16 0 0 0;
#X connect 17 0 4 0;
#X restore 97 300 pd label;
#N canvas 1020 258 345 473 value 0;
#X msg 129 298 text \$1;
#X obj 188 228 loadbang;
#X obj 188 273 sel 0;
#X msg 58 299 text -inf;
#X obj 58 276 t b;
#X obj 141 83 inlet;
#X obj 147 375 outlet;
#X obj 188 250 f \$6;
#X obj 172 194 r \$0_fontpath;
#X obj 58 27 r \$0-value;
#X obj 59 103 - 100;
#X obj 58 251 moses -99;
#X obj 59 60 * 127;
#X obj 141 161 colorRGB 0.1 0.2 0.5 1;
#X obj 149 342 text2d;
#X msg 187 296 15;
#X obj 141 121 translateXYZ -0.3 -0.4 0;
#X obj 58 134 * 100;
#X obj 58 156 int;
#X obj 58 178 / 100;
#X connect 0 0 14 0;
#X connect 1 0 7 0;
#X connect 2 0 15 0;
#X connect 2 1 14 1;
#X connect 3 0 14 0;
#X connect 4 0 3 0;
#X connect 5 0 16 0;
#X connect 7 0 2 0;
#X connect 8 0 14 0;
#X connect 9 0 12 0;
#X connect 10 0 17 0;
#X connect 11 0 4 0;
#X connect 11 1 0 0;
#X connect 12 0 10 0;
#X connect 13 0 14 0;
#X connect 14 0 6 0;
#X connect 15 0 14 1;
#X connect 16 0 13 0;
#X connect 17 0 18 0;
#X connect 18 0 19 0;
#X connect 19 0 11 0;
#X restore 287 241 pd value;
#X text 175 270 vu;
#X text 368 242 value;
#X obj 287 192 separator;
#X connect 0 0 1 0;
#X connect 1 0 23 0;
#X connect 2 0 0 0;
#X connect 3 0 6 0;
#X connect 4 0 5 0;
#X connect 5 0 13 0;
#X connect 6 0 7 0;
#X connect 7 0 36 0;
#X connect 8 0 10 0;
#X connect 9 0 8 0;
#X connect 11 0 7 1;
#X connect 11 1 7 2;
#X connect 12 0 11 0;
#X connect 13 0 6 0;
#X connect 13 0 8 0;
#X connect 14 0 31 0;
#X connect 15 0 16 0;
#X connect 16 0 35 0;
#X connect 16 1 35 1;
#X connect 17 0 19 0;
#X connect 17 1 35 3;
#X connect 18 0 17 0;
#X connect 19 0 35 0;
#X connect 19 1 35 2;
#X connect 20 0 21 0;
#X connect 21 0 31 1;
#X connect 22 0 37 0;
#X connect 23 0 3 0;
#X connect 24 0 23 1;
#X connect 24 1 23 2;
#X connect 25 0 24 0;
#X connect 26 0 33 0;
#X connect 27 0 26 0;
#X connect 28 0 29 0;
#X connect 29 0 32 0;
#X connect 29 1 34 0;
#X connect 30 0 22 1;
#X connect 31 0 36 2;
#X connect 32 0 33 1;
#X connect 33 0 22 0;
#X connect 33 0 43 0;
#X connect 34 0 33 2;
#X connect 35 0 10 1;
#X connect 35 1 10 2;
#X connect 35 2 36 1;
#X connect 35 3 36 2;
#X connect 36 0 9 0;
#X connect 43 0 40 0;
#X restore 945 537 pd display;
#X obj -157 233 s \$0-pos;
#X obj -207 314 s \$0-input;
#X obj -129 205 s \$0-name;
#X obj -64 214 s \$0-xy;
#X obj -19 171 r \$0-vis;
#X obj -64 192 spigot 1;
#X obj 42 54 r \$1;
#X obj -207 291 clip 0 1;
#X obj -207 53 inlet;
#X obj -63 53 r \$0-vu;
#X obj -162 53 r \$1-vu;
#X obj 750 196 tof/param /mute 0 /g tgl 0 1;
#X obj 751 218 s \$0-mute;
#X obj -207 115 route float pos name list;
#X connect 2 0 0 0;
#X connect 3 0 1 0;
#X connect 5 0 7 0;
#X connect 7 0 6 0;
#X connect 8 0 9 0;
#X connect 10 0 11 0;
#X connect 13 0 12 0;
#X connect 14 0 13 0;
#X connect 14 1 13 1;
#X connect 15 0 18 0;
#X connect 16 0 17 0;
#X connect 17 0 14 0;
#X connect 18 0 13 0;
#X connect 19 0 20 0;
#X connect 22 0 21 0;
#X connect 27 0 28 0;
#X connect 28 0 26 0;
#X connect 30 0 29 0;
#X connect 31 0 34 0;
#X connect 32 0 31 0;
#X connect 33 0 32 0;
#X connect 33 0 35 0;
#X connect 33 0 42 0;
#X connect 36 0 32 1;
#X connect 36 0 33 1;
#X connect 37 0 38 0;
#X connect 38 0 39 0;
#X connect 39 0 33 0;
#X connect 40 0 38 0;
#X connect 41 0 32 1;
#X connect 41 0 33 1;
#X connect 50 0 51 1;
#X connect 51 0 49 0;
#X connect 52 0 59 0;
#X connect 53 0 47 0;
#X connect 54 0 59 0;
#X connect 55 0 59 0;
#X connect 56 0 59 0;
#X connect 57 0 58 0;
#X connect 59 0 53 0;
#X connect 59 1 46 0;
#X connect 59 2 48 0;
#X connect 59 3 51 0;
