#N canvas 1 82 1364 661 10;
#X obj -260 88 s \$0-input;
#X obj -273 21 inlet;
#X obj -174 90 s \$0-xy;
#X obj -176 303 outlet zone;
#X obj -91 303 outlet clic;
#X obj -266 303 outlet value;
#X obj -176 280 r \$0-zone;
#X obj -91 279 r \$0-clic;
#X text -273 -52 gem_toggle \, 5 arguments: NAME Xpos Ypos Xsize Ysize
;
#X obj 31 547 pack f f f f;
#X obj 41 501 t b f;
#X obj 80 500 t b f;
#X obj 117 500 t b f;
#X obj 31 571 s \$0-bcolor;
#X obj 121 477 / 100;
#X obj 78 477 / 100;
#X obj 42 475 / 100;
#X obj 32 450 / 100;
#X obj 504 134 pack f f f f;
#X obj 514 88 t b f;
#X obj 553 87 t b f;
#X obj 590 87 t b f;
#X obj 594 64 / 100;
#X obj 551 64 / 100;
#X obj 515 62 / 100;
#X obj 505 37 / 100;
#X obj 504 158 s \$0-bcolor2;
#X obj 409 571 pack f f f f;
#X obj 419 525 t b f;
#X obj 458 524 t b f;
#X obj 495 524 t b f;
#X obj 499 501 / 100;
#X obj 456 501 / 100;
#X obj 420 499 / 100;
#X obj 409 474 / 100;
#X obj 409 594 s \$0-tcolor;
#X obj 333 355 pack f f f f;
#X obj 343 309 t b f;
#X obj 382 308 t b f;
#X obj 419 308 t b f;
#X obj 423 285 / 100;
#X obj 380 285 / 100;
#X obj 344 283 / 100;
#X obj 334 258 / 100;
#X obj 333 380 s \$0-wcolor;
#X obj 36 380 tof/param /bcolorR 50 /g slider 0 100;
#X obj 51 406 tof/param /bcolorV 50 /g slider 0 100;
#X obj 98 426 tof/param /bcolorB 50 /g slider 0 100;
#X obj 130 450 tof/param /bcolorA 50 /g slider 0 100;
#X obj 409 404 tof/param /tcolorR 100 /g slider 0 100;
#X obj 429 430 tof/param /tcolorV 100 /g slider 0 100;
#X obj 473 452 tof/param /tcolorB 100 /g slider 0 100;
#X obj 505 476 tof/param /tcolorA 100 /g slider 0 100;
#X obj 353 214 tof/param /wcolorV 100 /g slider 0 100;
#X obj 384 239 tof/param /wcolorB 100 /g slider 0 100;
#X obj 416 263 tof/param /wcolorA 100 /g slider 0 100;
#X obj -20 9 inlet params;
#X obj -20 55 print PARAM_NOTFOUND;
#X obj -20 31 tof/param route;
#X obj -17 80 b;
#X obj -16 102 tof/param gui;
#X obj -265 372 tof/param /on 0 /g tgl 0 1;
#X obj -259 546 / 10;
#X obj -258 569 s \$0-width;
#X obj -259 521 tof/param /width 1 /g slider 0 160;
#X obj -261 619 s \$0-tsize;
#X obj -261 594 tof/param /tsize 3 /g slider 0 150;
#X obj 206 165 s \$0-pos;
#X obj 206 143 pack;
#X obj 207 116 t b f;
#X obj 159 45 tof/param /positionX 0 /g slider -160 160;
#X obj 178 70 tof/param /positionY 0 /g slider -160 160;
#X obj 202 94 / 10;
#X obj 166 96 / 10;
#X obj 42 314 pack;
#X obj 43 287 t b f;
#X obj 38 265 / 10;
#X obj 2 267 / 10;
#X obj 42 335 s \$0-size;
#X obj -3 215 tof/param /sizeX 5 /g slider 0 160;
#X obj 14 241 tof/param /sizeY 5 /g slider 0 160;
#X obj -265 191 tof/param /drag 0 /g tgl 0 1;
#X obj -265 213 s \$0-drag;
#X obj -266 236 tof/param /set 0 /g tgl 0 1;
#X obj -266 258 s \$0-set;
#X obj -218 120 s \$0-pos;
#X obj -264 446 s \$0-reset;
#X obj -264 424 tof/param /reset /g bng;
#X obj 320 187 tof/param /wcolorR 100 /g slider 0 100;
#X text -277 -19 author : raphael isdant http://www.raphaelisdant.fr
;
#X text -275 -36 comment;
#X obj -153 21 r \$0-bang;
#N canvas 1 82 1364 661 display 1;
#X obj 105 85 gemhead;
#X obj 48 456 loadbang;
#X obj 137 522 r \$0-tsize;
#X msg 205 570 justify center top;
#X msg 48 529 text \$1;
#X obj 214 489 loadbang;
#X msg 214 510 5;
#X obj 48 481 tof/argument 2;
#X obj 105 617 text3d;
#X obj 144 318 loadbang;
#X msg 144 342 draw line;
#X obj 200 397 r \$0-tcolor;
#X obj 213 318 r \$0-width;
#X obj 106 239 circle;
#X msg 262 207 \$1 \$2 1;
#X obj 262 182 r \$0-size;
#X msg 263 157 \$1 \$2 0;
#X obj 263 135 r \$0-pos;
#X obj 238 50 route bang;
#X obj 313 79 del 200;
#X obj 430 12 r \$0-value;
#X obj 354 52 r \$0-bcolor;
#X obj 105 121 alpha;
#X obj 105 50 r \$0-vis;
#X msg 213 342 \$1;
#X obj 165 239 r \$0-wcolor;
#X obj 106 157 color 0.5 0.5 0.5 0.8;
#X obj 106 185 translate 1 \$2 \$3 0;
#X obj 106 213 scale 1 \$4 \$5 1;
#X obj 106 265 color 1 1 1 1;
#X obj 106 289 translate 1 0 0 0.01;
#X obj 106 419 color 1 1 1 0.5;
#X obj 106 370 square 1;
#X obj 339 116 l 0.5 0.5 0.5 0.8;
#X obj 208 101 l 1 1 1 1;
#X obj 208 24 r \$0-bcolor2;
#X connect 0 0 22 0;
#X connect 1 0 7 0;
#X connect 2 0 8 1;
#X connect 3 0 8 0;
#X connect 4 0 8 0;
#X connect 5 0 6 0;
#X connect 5 0 3 0;
#X connect 6 0 8 1;
#X connect 7 0 4 0;
#X connect 9 0 10 0;
#X connect 10 0 32 0;
#X connect 11 0 31 1;
#X connect 12 0 24 0;
#X connect 13 0 29 0;
#X connect 14 0 28 2;
#X connect 15 0 14 0;
#X connect 16 0 27 2;
#X connect 17 0 16 0;
#X connect 18 0 19 0;
#X connect 18 0 34 0;
#X connect 19 0 33 0;
#X connect 20 0 18 0;
#X connect 21 0 33 0;
#X connect 22 0 26 0;
#X connect 23 0 0 0;
#X connect 24 0 32 1;
#X connect 25 0 29 1;
#X connect 26 0 27 0;
#X connect 27 0 28 0;
#X connect 28 0 13 0;
#X connect 29 0 30 0;
#X connect 30 0 32 0;
#X connect 31 0 8 0;
#X connect 32 0 31 0;
#X connect 33 0 26 1;
#X connect 34 0 26 1;
#X connect 35 0 34 0;
#X restore -266 168 pd display;
#N canvas 803 185 562 455 test_position 0;
#X obj 21 156 spigot;
#X obj 21 89 t a a a;
#X msg 54 181 \$3;
#X msg 75 96 \$1 \$2;
#X obj 21 207 spigot;
#X obj 75 117 expr if ($f1 > $f3-$f5 && $f1 < $f3+$f5 && $f2 > $f4-$f6
&& $f2 < $f4+$f6 \, 1 \, 0) \;;
#X msg 226 61 \$1;
#X msg 285 61 \$2;
#X msg 353 62 \$1;
#X msg 419 63 \$2;
#X obj 490 70 loadbang;
#X msg 21 257 pos \$1 \$2;
#X obj 21 234 spigot 0;
#X obj 226 15 r \$0-pos;
#X obj 352 18 r \$0-size;
#X obj 78 210 r \$0-drag;
#X obj 352 37 t b a a;
#X obj 226 38 t a a;
#X obj 111 277 r \$0-set;
#X msg 111 319 set \$1;
#X obj 194 319 sel 1;
#X obj 75 152 change;
#X obj 21 68 r \$0-xy;
#X text -13 31 $f3 X \, $f4 Y \, $f5 scale_X \, $f6 scale_y;
#X text -11 11 \$2 X \, \$3 Y \, \$4 scale_X \, \$5 scale_y;
#X obj 159 179 s \$0-zone;
#X obj 216 232 s \$0-clic;
#X obj 21 285 s \$0-bang;
#X obj 149 357 bng 15 250 50 0 empty empty empty 17 7 0 10 -262144
-1 -1;
#X obj 111 390 s \$2-value;
#X obj 154 232 s \$2-clic;
#X obj 94 179 s \$2-zone;
#X obj 226 86 \$3;
#X obj 285 92 \$4;
#X obj 353 94 \$5;
#X obj 419 91 \$6;
#X obj 190 394 s \$0-value;
#X obj 243 318 r \$0-bang;
#X obj 311 320 r \$2-bang;
#X obj 198 276 r \$0-input;
#X connect 0 0 2 0;
#X connect 0 0 4 0;
#X connect 1 0 0 0;
#X connect 1 2 3 0;
#X connect 2 0 4 1;
#X connect 2 0 20 0;
#X connect 2 0 26 0;
#X connect 2 0 30 0;
#X connect 3 0 5 0;
#X connect 4 0 12 0;
#X connect 5 0 21 0;
#X connect 6 0 32 0;
#X connect 7 0 33 0;
#X connect 8 0 34 0;
#X connect 9 0 35 0;
#X connect 10 0 32 0;
#X connect 10 0 33 0;
#X connect 10 0 34 0;
#X connect 10 0 35 0;
#X connect 11 0 27 0;
#X connect 12 0 11 0;
#X connect 13 0 17 0;
#X connect 14 0 16 0;
#X connect 15 0 12 1;
#X connect 16 0 32 0;
#X connect 16 1 8 0;
#X connect 16 2 9 0;
#X connect 17 0 6 0;
#X connect 17 1 7 0;
#X connect 18 0 19 0;
#X connect 19 0 28 0;
#X connect 20 0 28 0;
#X connect 21 0 0 1;
#X connect 21 0 25 0;
#X connect 21 0 31 0;
#X connect 22 0 1 0;
#X connect 28 0 29 0;
#X connect 28 0 36 0;
#X connect 32 0 5 2;
#X connect 33 0 5 3;
#X connect 34 0 5 4;
#X connect 35 0 5 5;
#X connect 37 0 28 0;
#X connect 38 0 28 0;
#X connect 39 0 28 0;
#X restore -266 145 pd test_position;
#X obj -260 64 route bang pos list;
#X obj -77 22 r \$2;
#X obj -228 21 r \$2-bang;
#X obj -266 279 r \$0-value;
#X obj 150 -35 loadbang;
#X obj 218 -34 r \$0-reset;
#X obj -10 136 loadbang;
#X obj 58 137 r \$0-reset;
#X obj -259 470 loadbang;
#X obj -191 471 r \$0-reset;
#X obj -259 494 tof/argument 7;
#X obj 20 186 tof/argument 6;
#X obj 154 -11 tof/argument 3;
#X obj 177 16 tof/argument 4;
#X obj -6 160 tof/argument 5;
#X obj -265 394 s \$0-vis;
#X obj -265 348 tof/argument 8;
#X obj -264 326 loadbang;
#X obj 508 -33 tof/param /bcolor2R 100 /g slider 0 100;
#X obj 524 -7 tof/param /bcolor2V 100 /g slider 0 100;
#X obj 556 18 tof/param /bcolor2B 100 /g slider 0 100;
#X obj 596 40 tof/param /bcolor2A 100 /g slider 0 100;
#X connect 1 0 94 0;
#X connect 6 0 3 0;
#X connect 7 0 4 0;
#X connect 9 0 13 0;
#X connect 10 0 9 0;
#X connect 10 1 9 1;
#X connect 11 0 9 0;
#X connect 11 1 9 2;
#X connect 12 0 9 0;
#X connect 12 1 9 3;
#X connect 14 0 12 0;
#X connect 15 0 11 0;
#X connect 16 0 10 0;
#X connect 17 0 9 0;
#X connect 18 0 26 0;
#X connect 19 0 18 0;
#X connect 19 1 18 1;
#X connect 20 0 18 0;
#X connect 20 1 18 2;
#X connect 21 0 18 0;
#X connect 21 1 18 3;
#X connect 22 0 21 0;
#X connect 23 0 20 0;
#X connect 24 0 19 0;
#X connect 25 0 18 0;
#X connect 27 0 35 0;
#X connect 28 0 27 0;
#X connect 28 1 27 1;
#X connect 29 0 27 0;
#X connect 29 1 27 2;
#X connect 30 0 27 0;
#X connect 30 1 27 3;
#X connect 31 0 30 0;
#X connect 32 0 29 0;
#X connect 33 0 28 0;
#X connect 34 0 27 0;
#X connect 36 0 44 0;
#X connect 37 0 36 0;
#X connect 37 1 36 1;
#X connect 38 0 36 0;
#X connect 38 1 36 2;
#X connect 39 0 36 0;
#X connect 39 1 36 3;
#X connect 40 0 39 0;
#X connect 41 0 38 0;
#X connect 42 0 37 0;
#X connect 43 0 36 0;
#X connect 45 0 17 0;
#X connect 46 0 16 0;
#X connect 47 0 15 0;
#X connect 48 0 14 0;
#X connect 49 0 34 0;
#X connect 50 0 33 0;
#X connect 51 0 32 0;
#X connect 52 0 31 0;
#X connect 53 0 42 0;
#X connect 54 0 41 0;
#X connect 55 0 40 0;
#X connect 56 0 58 0;
#X connect 58 0 57 0;
#X connect 59 0 60 0;
#X connect 61 0 109 0;
#X connect 62 0 63 0;
#X connect 64 0 62 0;
#X connect 66 0 65 0;
#X connect 68 0 67 0;
#X connect 69 0 68 0;
#X connect 69 1 68 1;
#X connect 70 0 73 0;
#X connect 71 0 72 0;
#X connect 72 0 69 0;
#X connect 73 0 68 0;
#X connect 74 0 78 0;
#X connect 75 0 74 0;
#X connect 75 1 74 1;
#X connect 76 0 75 0;
#X connect 77 0 74 0;
#X connect 79 0 77 0;
#X connect 80 0 76 0;
#X connect 81 0 82 0;
#X connect 83 0 84 0;
#X connect 87 0 86 0;
#X connect 88 0 43 0;
#X connect 91 0 94 0;
#X connect 94 0 0 0;
#X connect 94 1 85 0;
#X connect 94 2 2 0;
#X connect 95 0 94 0;
#X connect 96 0 94 0;
#X connect 97 0 5 0;
#X connect 98 0 106 0;
#X connect 98 0 107 0;
#X connect 99 0 106 0;
#X connect 99 0 107 0;
#X connect 100 0 105 0;
#X connect 100 0 108 0;
#X connect 101 0 105 0;
#X connect 101 0 108 0;
#X connect 102 0 104 0;
#X connect 103 0 104 0;
#X connect 104 0 64 0;
#X connect 105 0 80 0;
#X connect 106 0 70 0;
#X connect 107 0 71 0;
#X connect 108 0 79 0;
#X connect 110 0 61 0;
#X connect 111 0 110 0;
#X connect 112 0 25 0;
#X connect 113 0 24 0;
#X connect 114 0 23 0;
#X connect 115 0 22 0;
