#N canvas 1 85 1009 658 10;
#X obj 666 8 inlet params;
#X obj 666 54 print PARAM_NOTFOUND;
#X obj 666 30 tof/param route;
#X obj 669 79 b;
#X obj 670 108 tof/param gui;
#X obj 242 94 tof/param /feedback-onoff 0 /g tgl;
#X obj 143 78 inlet;
#X obj 272 118 tof/param /feedback-amount 10 /g slider 0 127;
#X text 595 231 buffer;
#X obj 596 253 pix_buffer \$0-stockage 128;
#N canvas 1 82 1351 661 buffer 1;
#X obj 286 113 t a b;
#X obj 39 105 t a b;
#X obj 66 162 + 1;
#X obj 286 67 gemhead 51;
#X obj 66 131 f;
#X obj 333 148 random 10;
#X obj 333 205 +;
#X obj 348 181 + 50;
#X obj 40 237 pix_buffer_write \$0-stockage;
#X obj 286 274 pix_buffer_read \$0-stockage;
#X obj 384 97 inlet;
#X text 37 8 ecriture dans le buffer;
#X text 283 34 lecture dans le buffer;
#X obj 333 230 % 128;
#X obj 66 197 % 128;
#X obj 41 37 inlet;
#X obj 292 18 inlet;
#X obj 286 305 outlet;
#X connect 0 0 9 0;
#X connect 0 1 5 0;
#X connect 1 0 8 0;
#X connect 1 1 4 0;
#X connect 2 0 14 0;
#X connect 3 0 0 0;
#X connect 4 0 2 0;
#X connect 4 0 7 0;
#X connect 4 0 8 1;
#X connect 5 0 6 0;
#X connect 6 0 13 0;
#X connect 7 0 6 1;
#X connect 9 0 17 0;
#X connect 10 0 5 1;
#X connect 13 0 9 1;
#X connect 14 0 4 1;
#X connect 15 0 1 0;
#X connect 16 0 3 0;
#X restore 157 324 pd buffer;
#X obj 155 381 outlet;
#X obj 225 38 loadbang;
#X obj 224 64 \$3;
#X obj 302 186 loadbang;
#X obj 301 210 \$4;
#X connect 0 0 2 0;
#X connect 2 0 1 0;
#X connect 3 0 4 0;
#X connect 5 0 10 1;
#X connect 6 0 10 0;
#X connect 7 0 10 2;
#X connect 10 0 11 0;
#X connect 12 0 13 0;
#X connect 13 0 10 1;
#X connect 14 0 15 0;
#X connect 15 0 10 2;
