#N canvas 128 82 1122 661 10;
#X obj 43 416 *;
#X obj 167 340 /;
#X obj 194 426 / 2;
#X obj 167 396 t f f;
#X obj 69 472 -;
#X obj 298 238 * -8;
#X obj 167 369 * 8;
#X obj 298 273 + 4;
#X obj 281 115 gemmouse 1 1;
#X obj 43 339 clip 0 1;
#X obj 298 194 clip 0 1;
#X obj 505 654 outlet mid_button;
#X obj 659 654 outlet right_button;
#X obj 453 530 t b f;
#X obj 453 556 pack f f f;
#X obj 651 530 t b f;
#X obj 651 556 pack f f f;
#X obj 282 551 t b f;
#X obj 282 577 pack f f f;
#X obj 308 506 t b f;
#X obj 451 475 t b f;
#X obj 657 489 t b f;
#X obj 264 654 outlet left_button;
#X obj 290 614 s \$0-left;
#X obj 493 605 s \$0-center;
#X obj 670 607 s \$0-right;
#X obj 126 104 loadbang;
#X obj 128 132 t b b;
#X obj 82 174 value GEMSW;
#X obj 194 178 value GEMSH;
#X obj 34 72 r GEMS;
#X obj 167 297 pack;
#X connect 0 0 4 0;
#X connect 1 0 6 0;
#X connect 2 0 4 1;
#X connect 3 0 0 1;
#X connect 3 1 2 0;
#X connect 4 0 14 0;
#X connect 4 0 16 0;
#X connect 4 0 18 0;
#X connect 5 0 7 0;
#X connect 6 0 3 0;
#X connect 7 0 13 0;
#X connect 7 0 15 0;
#X connect 7 0 17 0;
#X connect 8 0 9 0;
#X connect 8 1 10 0;
#X connect 8 2 19 0;
#X connect 8 3 20 0;
#X connect 8 4 21 0;
#X connect 9 0 0 0;
#X connect 10 0 5 0;
#X connect 13 0 14 0;
#X connect 13 1 14 1;
#X connect 14 0 11 0;
#X connect 14 0 24 0;
#X connect 15 0 16 0;
#X connect 15 1 16 1;
#X connect 16 0 12 0;
#X connect 16 0 25 0;
#X connect 17 0 18 0;
#X connect 17 1 18 1;
#X connect 18 0 22 0;
#X connect 18 0 23 0;
#X connect 19 0 18 0;
#X connect 19 1 18 2;
#X connect 20 0 14 0;
#X connect 20 1 14 2;
#X connect 21 0 16 0;
#X connect 21 1 16 2;
#X connect 26 0 27 0;
#X connect 27 0 28 0;
#X connect 27 1 29 0;
#X connect 28 0 31 0;
#X connect 29 0 31 1;
#X connect 30 0 27 0;
#X connect 31 0 1 0;
