#N canvas 1 82 1364 661 10;
#X obj 842 290 outlet zone;
#X obj 927 290 outlet clic;
#X obj 752 290 outlet value;
#X obj 752 266 r \$0-value;
#X obj 842 267 r \$0-zone;
#X obj 927 266 r \$0-clic;
#X text -273 -52 gem_toggle \, 5 arguments: NAME Xpos Ypos Xsize Ysize
;
#X obj 68 511 pack f f f f;
#X obj 78 465 t b f;
#X obj 117 464 t b f;
#X obj 154 464 t b f;
#X obj 67 553 s \$0-bcolor;
#X obj 158 441 / 100;
#X obj 115 441 / 100;
#X obj 79 439 / 100;
#X obj 69 414 / 100;
#X obj 388 503 pack f f f f;
#X obj 398 457 t b f;
#X obj 437 456 t b f;
#X obj 474 456 t b f;
#X obj 478 433 / 100;
#X obj 435 433 / 100;
#X obj 399 431 / 100;
#X obj 389 406 / 100;
#X obj 389 544 s \$0-tcolor;
#X obj 694 491 pack f f f f;
#X obj 704 445 t b f;
#X obj 743 444 t b f;
#X obj 780 444 t b f;
#X obj 784 421 / 100;
#X obj 741 421 / 100;
#X obj 705 419 / 100;
#X obj 695 394 / 100;
#X obj 695 532 s \$0-wcolor;
#X obj 73 344 tof/param /bcolorR 50 /g slider 0 100;
#X obj 88 370 tof/param /bcolorV 50 /g slider 0 100;
#X obj 119 395 tof/param /bcolorB 50 /g slider 0 100;
#X obj 151 419 tof/param /bcolorA 50 /g slider 0 100;
#X obj 391 336 tof/param /tcolorR 100 /g slider 0 100;
#X obj 408 362 tof/param /tcolorV 100 /g slider 0 100;
#X obj 439 387 tof/param /tcolorB 100 /g slider 0 100;
#X obj 471 411 tof/param /tcolorA 100 /g slider 0 100;
#X obj 714 350 tof/param /wcolorV 100 /g slider 0 100;
#X obj 745 375 tof/param /wcolorB 100 /g slider 0 100;
#X obj 777 399 tof/param /wcolorA 100 /g slider 0 100;
#X obj 948 103 inlet params;
#X obj 948 149 print PARAM_NOTFOUND;
#X obj 948 125 tof/param route;
#X obj 951 174 b;
#X obj 952 203 tof/param gui;
#X obj -215 417 tof/param /on 0 /g tgl 0 1;
#X obj -214 439 s \$0-vis;
#X obj -215 488 / 10;
#X obj -214 511 s \$0-width;
#X obj -215 463 tof/param /width 1 /g slider 0 160;
#X obj -216 560 s \$0-tsize;
#X obj -217 535 tof/param /tsize 3 /g slider 0 150;
#X obj 599 98 s \$0-pos;
#X obj 582 75 pack;
#X obj 583 48 t b f;
#X obj 535 -23 tof/param /positionX 0 /g slider -160 160;
#X obj 554 2 tof/param /positionY 0 /g slider -160 160;
#X obj 578 26 / 10;
#X obj 542 28 / 10;
#X obj 858 77 pack;
#X obj 859 50 t b f;
#X obj 854 28 / 10;
#X obj 818 30 / 10;
#X obj 851 98 s \$0-size;
#X obj 813 -22 tof/param /sizeX 5 /g slider 0 160;
#X obj 830 4 tof/param /sizeY 5 /g slider 0 160;
#X obj 753 140 tof/param /drag 0 /g tgl 0 1;
#X obj 754 162 s \$0-drag;
#X obj 595 279 s \$0-reset;
#X obj 597 250 tof/param /reset /g bng;
#X obj 681 319 tof/param /wcolorR 100 /g slider 0 100;
#X text -277 -19 author : raphael isdant http://www.raphaelisdant.fr
;
#X obj -263 128 s \$0-input;
#X obj -263 105 limit 0 1;
#X obj -263 31 inlet;
#X obj -145 153 s \$0-xy;
#X obj -124 101 r \$0-vis;
#X obj -145 131 spigot 1;
#X obj -227 154 s \$0-pos;
#X obj -263 55 route float pos name list;
#X obj -196 177 s \$0-name;
#N canvas 602 82 542 661 display 0;
#X obj -119 309 square;
#X obj 16 251 loadbang;
#X msg 16 275 draw line;
#X obj -119 55 gemhead;
#X obj -68 443 loadbang;
#X obj -119 381 color 1 1 1 0.5;
#X msg -68 464 5;
#X obj -119 78 alpha;
#X obj -45 84 r \$0-pos;
#X obj 15 88 r \$0-size;
#X obj -32 357 r \$0-tcolor;
#X obj -44 193 r \$0-wcolor;
#X obj 28 448 r \$0-name;
#X obj 85 251 r \$0-width;
#X msg 85 275 width \$1;
#X obj -119 35 r \$0-vis;
#X obj -119 217 color 1 1 1 1;
#X obj -59 503 r \$0-tsize;
#X msg -20 561 justify center top;
#X msg -104 484 justify center base;
#X obj -119 536 text3d 0;
#X obj -119 194 square;
#X obj -119 172 color 0.5 0.5 0.5 0.8;
#X obj -119 100 t a a;
#X msg 97 511 text X\$1 Y\$2;
#X obj 4 148 r \$0-bcolor;
#X obj 97 483 r \$0-value;
#X obj -119 148 scale 1 \$4 \$5 1;
#X msg 15 110 \$1 \$2 1;
#X obj -119 126 translate 1 \$2 \$3 0;
#X msg -45 106 \$1 \$2 0;
#X obj -119 253 translate 1 0 0 0.01;
#X obj -119 332 translate 1 0 -0.5 0;
#X obj -119 565 text3d \$2;
#X obj 27 473 symbol \$2;
#X connect 0 0 32 0;
#X connect 1 0 2 0;
#X connect 2 0 0 0;
#X connect 3 0 7 0;
#X connect 4 0 6 0;
#X connect 4 0 19 0;
#X connect 4 0 18 0;
#X connect 5 0 20 0;
#X connect 6 0 20 1;
#X connect 6 0 33 1;
#X connect 7 0 23 0;
#X connect 8 0 30 0;
#X connect 9 0 28 0;
#X connect 10 0 5 1;
#X connect 11 0 16 1;
#X connect 12 0 34 0;
#X connect 13 0 14 0;
#X connect 14 0 0 0;
#X connect 15 0 3 0;
#X connect 16 0 31 0;
#X connect 17 0 20 1;
#X connect 17 0 33 1;
#X connect 18 0 33 0;
#X connect 19 0 20 0;
#X connect 20 0 33 0;
#X connect 21 0 16 0;
#X connect 22 0 21 0;
#X connect 23 0 29 0;
#X connect 24 0 20 0;
#X connect 25 0 22 1;
#X connect 26 0 24 0;
#X connect 27 0 22 0;
#X connect 28 0 27 2;
#X connect 29 0 27 0;
#X connect 30 0 29 2;
#X connect 31 0 0 0;
#X connect 32 0 5 0;
#X connect 34 0 33 0;
#X restore 916 476 pd display;
#N canvas 516 98 678 591 test_position 0;
#X obj 44 172 spigot;
#X obj 44 105 t a a a;
#X msg 98 112 \$1 \$2;
#X obj 44 223 spigot;
#X msg 249 77 \$1;
#X msg 308 77 \$2;
#X msg 376 78 \$1;
#X msg 442 79 \$2;
#X obj 513 86 loadbang;
#X msg 44 273 pos \$1 \$2;
#X obj 44 250 spigot 0;
#X obj 249 31 r \$0-pos;
#X obj 375 34 r \$0-size;
#X obj 101 226 r \$0-drag;
#X obj 375 53 t b a a;
#X obj 457 234 r \$0-input;
#X obj 160 193 s \$1-zone;
#X obj 249 54 t a a;
#X msg 222 495 draw line;
#X msg 220 476 draw fill;
#X obj 220 448 sel 1 0;
#X obj 393 366 spigot;
#X obj 411 478 r \$0-size;
#X obj 369 417 r \$0-wcolor;
#X obj 294 439 color 1 1 1 1;
#X obj 114 168 change;
#X obj 294 515 circle 0.15;
#X msg 59 345 \$1;
#X obj 316 186 expr $f1 - $f3 \; $f2 - $f4 \; $f1 + $f3 \; $f2 - $f4
\; $f1 + $f3 \; $f2 + $f4 \; $f1 - $f3 \; $f2 + $f4 \;;
#N canvas 1 82 449 380 rangeOUTX 0;
#X obj 150 171 inlet;
#X obj 200 171 inlet;
#X obj 64 143 inlet;
#X obj 64 293 outlet;
#X obj 64 170 t f b;
#X obj 64 252 expr ($f1-$f2)*(0-1)/($f2-$f3)+0;
#X connect 0 0 5 1;
#X connect 1 0 5 2;
#X connect 2 0 4 0;
#X connect 4 0 5 0;
#X connect 5 0 3 0;
#X restore 59 372 pd rangeOUTX;
#N canvas 1 82 449 380 rangeOUTY 0;
#X obj 150 171 inlet;
#X obj 200 171 inlet;
#X obj 64 143 inlet;
#X obj 64 293 outlet;
#X obj 64 170 t f b;
#X obj 64 252 expr ($f1-$f2)*(0-1)/($f2-$f3)+0;
#X connect 0 0 5 1;
#X connect 1 0 5 2;
#X connect 2 0 4 0;
#X connect 4 0 5 0;
#X connect 5 0 3 0;
#X restore 149 372 pd rangeOUTY;
#X msg 149 352 \$2;
#X obj 59 463 pack;
#X obj 149 413 i;
#X obj 149 392 * 100;
#X obj 149 435 / 100;
#X obj 59 412 i;
#X obj 59 391 * 100;
#X obj 59 434 / 100;
#N canvas 353 118 449 380 rangeINX 0;
#X obj 150 171 inlet;
#X obj 200 171 inlet;
#X obj 64 143 inlet;
#X obj 64 293 outlet;
#X obj 64 170 t f b;
#X obj 64 252 expr ($f1-0)*($f2-$f3)/(0-1)+$f2;
#X connect 0 0 5 1;
#X connect 1 0 5 2;
#X connect 2 0 4 0;
#X connect 4 0 5 0;
#X connect 5 0 3 0;
#X restore 457 333 pd rangeINX;
#N canvas 355 113 449 380 rangeINY 0;
#X obj 150 171 inlet;
#X obj 200 171 inlet;
#X obj 64 143 inlet;
#X obj 64 293 outlet;
#X obj 64 170 t f b;
#X obj 64 252 expr ($f1-0)*($f2-$f3)/(0-1)+$f2;
#X connect 0 0 5 1;
#X connect 1 0 5 2;
#X connect 2 0 4 0;
#X connect 4 0 5 0;
#X connect 5 0 3 0;
#X restore 546 336 pd rangeINY;
#X obj 457 362 t b f;
#X obj 457 267 unpack f f;
#X obj 457 388 pack f f;
#X obj 546 302 limit 0 1;
#X obj 457 291 limit 0 1;
#X obj 98 133 expr if ($f1 > $f3-$f5 && $f1 < $f3+$f5 && $f2 > $f4-$f6
&& $f2 < $f4+$f6 \, 1 \, 0) \;;
#X obj 475 479 r \$0-width;
#X msg 475 503 width \$1;
#X obj 289 388 r \$0-vis;
#X obj 133 491 s \$0-value;
#X obj 231 193 s \$0-zone;
#X obj 126 283 s \$0-clic;
#X obj 44 80 r \$0-xy;
#X text 9 43 $f3 X \, $f4 Y \, $f5 scale_X \, $f6 scale_y;
#X text 11 23 \$2 X \, \$3 Y \, \$4 scale_X \, \$5 scale_y;
#X obj 294 489 scale 1 \$4 \$5 1;
#X msg 411 500 \$1 \$2 1;
#X obj 294 465 translate 1 0 0 0.01;
#X obj 294 414 gemhead 99;
#X msg 393 394 \$1 \$2 0.01;
#X obj 44 293 s \$0-xypad;
#X obj 249 102 \$3;
#X obj 308 108 \$4;
#X obj 376 109 \$5;
#X obj 442 107 \$6;
#X obj 148 254 s \$2-clic;
#X obj 57 492 s \$2-value;
#X msg 77 197 \$3;
#X connect 0 0 68 0;
#X connect 0 0 3 0;
#X connect 1 0 0 0;
#X connect 1 2 2 0;
#X connect 2 0 46 0;
#X connect 3 0 10 0;
#X connect 3 0 21 0;
#X connect 3 0 27 0;
#X connect 3 0 31 0;
#X connect 4 0 62 0;
#X connect 5 0 63 0;
#X connect 6 0 64 0;
#X connect 7 0 65 0;
#X connect 8 0 62 0;
#X connect 8 0 63 0;
#X connect 8 0 64 0;
#X connect 8 0 65 0;
#X connect 9 0 61 0;
#X connect 10 0 9 0;
#X connect 11 0 17 0;
#X connect 12 0 14 0;
#X connect 13 0 10 1;
#X connect 14 0 62 0;
#X connect 14 1 6 0;
#X connect 14 2 7 0;
#X connect 15 0 42 0;
#X connect 17 0 4 0;
#X connect 17 1 5 0;
#X connect 18 0 26 0;
#X connect 19 0 26 0;
#X connect 20 0 19 0;
#X connect 20 1 18 0;
#X connect 21 0 60 0;
#X connect 22 0 57 0;
#X connect 23 0 24 1;
#X connect 24 0 58 0;
#X connect 25 0 16 0;
#X connect 25 0 21 1;
#X connect 25 0 20 0;
#X connect 25 0 51 0;
#X connect 27 0 29 0;
#X connect 28 0 29 1;
#X connect 28 0 39 1;
#X connect 28 1 30 1;
#X connect 28 1 40 1;
#X connect 28 2 29 2;
#X connect 28 2 39 2;
#X connect 28 5 30 2;
#X connect 28 5 40 2;
#X connect 29 0 37 0;
#X connect 30 0 34 0;
#X connect 31 0 30 0;
#X connect 32 0 50 0;
#X connect 32 0 67 0;
#X connect 33 0 35 0;
#X connect 34 0 33 0;
#X connect 35 0 32 1;
#X connect 36 0 38 0;
#X connect 37 0 36 0;
#X connect 38 0 32 0;
#X connect 39 0 29 0;
#X connect 39 0 43 0;
#X connect 40 0 41 0;
#X connect 40 0 30 0;
#X connect 41 0 43 0;
#X connect 41 1 43 1;
#X connect 42 0 45 0;
#X connect 42 1 44 0;
#X connect 43 0 60 0;
#X connect 44 0 40 0;
#X connect 45 0 39 0;
#X connect 46 0 0 1;
#X connect 46 0 25 0;
#X connect 47 0 48 0;
#X connect 48 0 26 0;
#X connect 49 0 59 0;
#X connect 53 0 1 0;
#X connect 56 0 26 0;
#X connect 57 0 56 2;
#X connect 58 0 56 0;
#X connect 59 0 24 0;
#X connect 60 0 58 2;
#X connect 62 0 28 0;
#X connect 62 0 46 2;
#X connect 63 0 28 1;
#X connect 63 0 46 3;
#X connect 64 0 28 2;
#X connect 64 0 46 4;
#X connect 65 0 28 3;
#X connect 65 0 46 5;
#X connect 68 0 3 1;
#X connect 68 0 52 0;
#X connect 68 0 66 0;
#X restore 916 498 pd test_position;
#N canvas 761 438 450 300 init 0;
#X obj 129 83 \$0;
#X obj 129 3 \$4;
#X obj 129 31 == 0;
#X obj 129 59 sel 1;
#X obj 129 -22 loadbang;
#X obj 106 -21 bng 15 250 50 0 empty empty empty 17 7 0 10 -262144
-1 -1;
#X msg 129 111 \; \$1-pos 0 0 \; \$1-size 2 2 \;;
#X obj 318 153 s \$0-pos;
#X obj 254 153 s \$0-name;
#X obj 373 154 s \$0-size;
#X obj 318 103 bng 15 250 50 0 empty empty empty 17 7 0 10 -262144
-1 -1;
#X obj 373 104 bng 15 250 50 0 empty empty empty 17 7 0 10 -262144
-1 -1;
#X obj 254 103 bng 15 250 50 0 empty empty empty 17 7 0 10 -262144
-1 -1;
#X obj 254 60 r \$0-reset;
#X obj 254 129 symbol \$2;
#X obj 318 129 \$3 \$4;
#X obj 373 128 \$5 \$6;
#X connect 0 0 6 0;
#X connect 1 0 2 0;
#X connect 2 0 3 0;
#X connect 3 0 0 0;
#X connect 4 0 1 0;
#X connect 5 0 1 0;
#X connect 10 0 15 0;
#X connect 11 0 16 0;
#X connect 12 0 14 0;
#X connect 13 0 14 0;
#X connect 13 0 15 0;
#X connect 13 0 16 0;
#X connect 14 0 8 0;
#X connect 15 0 7 0;
#X connect 16 0 9 0;
#X restore 916 455 pd init;
#X obj -135 32 r \$0-xypad;
#X obj -218 31 r \$2-xypad;
#X obj -51 31 r \$2;
#X connect 3 0 2 0;
#X connect 4 0 0 0;
#X connect 5 0 1 0;
#X connect 7 0 11 0;
#X connect 8 0 7 0;
#X connect 8 1 7 1;
#X connect 9 0 7 0;
#X connect 9 1 7 2;
#X connect 10 0 7 0;
#X connect 10 1 7 3;
#X connect 12 0 10 0;
#X connect 13 0 9 0;
#X connect 14 0 8 0;
#X connect 15 0 7 0;
#X connect 16 0 24 0;
#X connect 17 0 16 0;
#X connect 17 1 16 1;
#X connect 18 0 16 0;
#X connect 18 1 16 2;
#X connect 19 0 16 0;
#X connect 19 1 16 3;
#X connect 20 0 19 0;
#X connect 21 0 18 0;
#X connect 22 0 17 0;
#X connect 23 0 16 0;
#X connect 25 0 33 0;
#X connect 26 0 25 0;
#X connect 26 1 25 1;
#X connect 27 0 25 0;
#X connect 27 1 25 2;
#X connect 28 0 25 0;
#X connect 28 1 25 3;
#X connect 29 0 28 0;
#X connect 30 0 27 0;
#X connect 31 0 26 0;
#X connect 32 0 25 0;
#X connect 34 0 15 0;
#X connect 35 0 14 0;
#X connect 36 0 13 0;
#X connect 37 0 12 0;
#X connect 38 0 23 0;
#X connect 39 0 22 0;
#X connect 40 0 21 0;
#X connect 41 0 20 0;
#X connect 42 0 31 0;
#X connect 43 0 30 0;
#X connect 44 0 29 0;
#X connect 45 0 47 0;
#X connect 47 0 46 0;
#X connect 48 0 49 0;
#X connect 50 0 51 0;
#X connect 52 0 53 0;
#X connect 54 0 52 0;
#X connect 56 0 55 0;
#X connect 58 0 57 0;
#X connect 59 0 58 0;
#X connect 59 1 58 1;
#X connect 60 0 63 0;
#X connect 61 0 62 0;
#X connect 62 0 59 0;
#X connect 63 0 58 0;
#X connect 64 0 68 0;
#X connect 65 0 64 0;
#X connect 65 1 64 1;
#X connect 66 0 65 0;
#X connect 67 0 64 0;
#X connect 69 0 67 0;
#X connect 70 0 66 0;
#X connect 71 0 72 0;
#X connect 74 0 73 0;
#X connect 75 0 32 0;
#X connect 78 0 77 0;
#X connect 79 0 84 0;
#X connect 81 0 82 1;
#X connect 82 0 80 0;
#X connect 84 0 78 0;
#X connect 84 1 83 0;
#X connect 84 2 85 0;
#X connect 84 3 82 0;
#X connect 89 0 84 0;
#X connect 90 0 84 0;
#X connect 91 0 84 0;
