#N canvas 1 82 1364 661 10;
#X obj 842 290 outlet zone;
#X obj 927 290 outlet clic;
#X obj 752 290 outlet value;
#X obj 752 266 r \$0-value;
#X obj 842 267 r \$0-zone;
#X obj 927 266 r \$0-clic;
#X text -273 -52 gem_toggle \, 5 arguments: NAME Xpos Ypos Xsize Ysize
;
#X obj 68 511 pack f f f f;
#X obj 78 465 t b f;
#X obj 117 464 t b f;
#X obj 154 464 t b f;
#X obj 67 553 s \$0-bcolor;
#X obj 158 441 / 100;
#X obj 115 441 / 100;
#X obj 79 439 / 100;
#X obj 69 414 / 100;
#X obj 388 503 pack f f f f;
#X obj 398 457 t b f;
#X obj 437 456 t b f;
#X obj 474 456 t b f;
#X obj 478 433 / 100;
#X obj 435 433 / 100;
#X obj 399 431 / 100;
#X obj 389 406 / 100;
#X obj 389 544 s \$0-tcolor;
#X obj 694 491 pack f f f f;
#X obj 704 445 t b f;
#X obj 743 444 t b f;
#X obj 780 444 t b f;
#X obj 784 421 / 100;
#X obj 741 421 / 100;
#X obj 705 419 / 100;
#X obj 695 394 / 100;
#X obj 695 532 s \$0-wcolor;
#X obj 73 344 tof/param /bcolorR 50 /g slider 0 100;
#X obj 88 370 tof/param /bcolorV 50 /g slider 0 100;
#X obj 119 395 tof/param /bcolorB 50 /g slider 0 100;
#X obj 151 419 tof/param /bcolorA 50 /g slider 0 100;
#X obj 391 336 tof/param /tcolorR 100 /g slider 0 100;
#X obj 408 362 tof/param /tcolorV 100 /g slider 0 100;
#X obj 439 387 tof/param /tcolorB 100 /g slider 0 100;
#X obj 471 411 tof/param /tcolorA 100 /g slider 0 100;
#X obj 714 350 tof/param /wcolorV 100 /g slider 0 100;
#X obj 745 375 tof/param /wcolorB 100 /g slider 0 100;
#X obj 777 399 tof/param /wcolorA 100 /g slider 0 100;
#X obj 948 103 inlet params;
#X obj 948 149 print PARAM_NOTFOUND;
#X obj 948 125 tof/param route;
#X obj 951 174 b;
#X obj 952 203 tof/param gui;
#X obj -215 417 tof/param /on 0 /g tgl 0 1;
#X obj -214 439 s \$0-vis;
#X obj -215 488 / 10;
#X obj -214 511 s \$0-width;
#X obj -215 463 tof/param /width 1 /g slider 0 160;
#X obj -216 560 s \$0-tsize;
#X obj -217 535 tof/param /tsize 3 /g slider 0 150;
#X obj 599 98 s \$0-pos;
#X obj 582 75 pack;
#X obj 583 48 t b f;
#X obj 535 -23 tof/param /positionX 0 /g slider -160 160;
#X obj 554 2 tof/param /positionY 0 /g slider -160 160;
#X obj 578 26 / 10;
#X obj 542 28 / 10;
#X obj 858 77 pack;
#X obj 859 50 t b f;
#X obj 854 28 / 10;
#X obj 818 30 / 10;
#X obj 851 98 s \$0-size;
#X obj 813 -22 tof/param /sizeX 5 /g slider 0 160;
#X obj 830 4 tof/param /sizeY 5 /g slider 0 160;
#X obj 753 140 tof/param /drag 0 /g tgl 0 1;
#X obj 754 162 s \$0-drag;
#X obj 595 279 s \$0-reset;
#X obj 597 250 tof/param /reset /g bng;
#X obj 681 319 tof/param /wcolorR 100 /g slider 0 100;
#X text -277 -19 author : raphael isdant http://www.raphaelisdant.fr
;
#X text -275 -36 XXXX;
#X text -276 -2 XXXXXXXX;
#N canvas 486 268 765 684 gem_array 0;
#X obj 114 210 separator;
#X obj 114 149 t a b;
#X obj 114 285 t a b b;
#X obj 203 322 f 0;
#X obj 229 322 + 1;
#X obj 132 440 * -1;
#X obj 252 481 pack 0 0;
#X obj 132 472 pack 0 0;
#X obj 205 345 t f f;
#X floatatom 373 294 5 0 0 0 zoom - -;
#X msg 252 509 \$2 \$1 0;
#X msg 132 504 \$2 \$1 0;
#X msg 219 195 0;
#X obj 114 257 rotateXYZ;
#X floatatom 165 234 5 0 0 0 rotate - -;
#X obj 114 62 tgl 15 0 empty empty empty 17 7 0 10 -262144 -1 -1 0
1;
#X floatatom 502 118 5 0 0 0 width - -;
#X obj 233 437 +;
#X obj 269 440 +;
#X floatatom 369 391 5 0 0 0 x_position - -;
#X obj 114 179 repeat 100;
#X obj 253 401 / 10;
#X obj 205 366 tabread \$1;
#X obj 336 430 r \$0-set;
#X msg 336 455 set \$1;
#N canvas 189 466 462 312 draw 0;
#X obj 31 123 GEMglBegin;
#X obj 86 100 GLdefine GL_LINE_STRIP;
#X obj 31 13 inlet;
#X obj 86 77 loadbang;
#X obj 159 13 inlet;
#X obj 221 12 inlet;
#X obj 31 200 GEMglEnd;
#X obj 31 151 GEMglVertex3fv;
#X obj 31 175 GEMglVertex3fv;
#X obj 64 52 bng 15 250 50 0 empty empty empty 17 7 0 10 -262144 -1
-1;
#X msg 239 103 symbol GL_ACCUM;
#X msg 366 80 GL_POINTS;
#X msg 183 46 GL_LINES;
#X obj 351 51 sel 0 1;
#X msg 249 67 GL_LINE_STRIP;
#X obj 168 154 spigot 1;
#X obj 218 125 == 0;
#X obj 353 20 r \$0-mode;
#X connect 0 0 7 0;
#X connect 1 0 0 1;
#X connect 2 0 0 0;
#X connect 3 0 1 0;
#X connect 4 0 15 0;
#X connect 5 0 8 1;
#X connect 7 0 8 0;
#X connect 8 0 6 0;
#X connect 9 0 1 0;
#X connect 10 0 1 0;
#X connect 11 0 1 0;
#X connect 12 0 1 0;
#X connect 13 0 14 0;
#X connect 13 1 11 0;
#X connect 14 0 1 0;
#X connect 15 0 7 1;
#X connect 16 0 15 1;
#X connect 17 0 13 0;
#X connect 17 0 16 0;
#X restore 65 564 pd draw;
#X obj 114 104 alpha;
#X obj 55 409 color 1 1 1 1;
#X obj 476 325 t b f;
#X obj 114 35 r \$0-vis;
#X obj 124 386 r \$0-scolor;
#X obj 401 325 r \$0-ymin;
#X obj 476 302 r \$0-ymax;
#X obj 94 344 r \$0-xmin;
#X obj 402 366 expr ($f2 + $f1) / 2;
#X obj 523 433 r \$0-xmin;
#X obj 560 458 r \$0-ymin;
#X obj 570 486 r \$0-xmax;
#X obj 610 434 r \$0-ymax;
#X floatatom 523 459 5 0 0 0 - - -;
#X floatatom 530 514 5 0 0 0 - - -;
#X floatatom 546 535 5 0 0 0 - - -;
#X floatatom 637 520 5 0 0 0 - - -;
#X obj 504 46 r \$0-ymax;
#X obj 621 39 r \$0-ymin;
#X obj 399 216 t b f;
#X obj 399 190 r \$0-xmax;
#X obj 503 215 r \$0-xmin;
#X obj 373 243 * 100;
#X obj 295 58 loadbang;
#X obj 373 270 expr $f1 / ($f2 - $f3);
#X msg 295 88 100;
#X obj 502 88 expr ($f1 - $f2) * 0.5;
#X obj 205 399 * 4;
#X obj 209 43 r \$0-buffer;
#X obj 373 107 r \$0-zoom;
#X obj 587 59 t b f;
#X obj 348 243 bng 15 250 50 0 empty empty empty 17 7 0 10 -262144
-1 -1;
#X obj 473 231 t b f;
#X msg 332 85 1;
#X obj 359 195 t b f;
#X obj 373 154 f;
#X obj 267 173 r \$0-set;
#X obj 114 79 gemhead 99;
#X obj 55 370 translateXYZ \$1 \$2 0.01;
#X obj 267 209 symbol;
#X msg 267 270 set \$1;
#X connect 0 0 13 0;
#X connect 1 0 20 0;
#X connect 1 1 12 0;
#X connect 2 0 64 0;
#X connect 2 2 3 0;
#X connect 3 0 4 0;
#X connect 3 0 8 0;
#X connect 4 0 3 1;
#X connect 5 0 7 0;
#X connect 6 0 10 0;
#X connect 7 0 11 0;
#X connect 8 0 22 0;
#X connect 8 1 21 0;
#X connect 9 0 21 1;
#X connect 10 0 25 2;
#X connect 11 0 25 1;
#X connect 12 0 3 1;
#X connect 13 0 2 0;
#X connect 14 0 13 3;
#X connect 15 0 63 0;
#X connect 16 0 53 1;
#X connect 17 0 7 1;
#X connect 18 0 6 1;
#X connect 19 0 18 1;
#X connect 19 0 17 1;
#X connect 20 0 0 0;
#X connect 21 0 18 0;
#X connect 21 0 17 0;
#X connect 22 0 53 0;
#X connect 23 0 24 0;
#X connect 24 0 22 0;
#X connect 26 0 1 0;
#X connect 27 0 25 0;
#X connect 28 0 34 0;
#X connect 28 1 34 1;
#X connect 29 0 15 0;
#X connect 30 0 27 1;
#X connect 31 0 34 0;
#X connect 32 0 28 0;
#X connect 33 0 64 1;
#X connect 34 0 64 2;
#X connect 35 0 39 0;
#X connect 36 0 40 0;
#X connect 37 0 41 0;
#X connect 38 0 42 0;
#X connect 43 0 52 0;
#X connect 44 0 56 0;
#X connect 45 0 48 0;
#X connect 45 1 50 1;
#X connect 46 0 45 0;
#X connect 47 0 58 0;
#X connect 48 0 50 0;
#X connect 49 0 51 0;
#X connect 49 0 59 0;
#X connect 50 0 9 0;
#X connect 51 0 60 0;
#X connect 52 0 16 0;
#X connect 53 0 5 0;
#X connect 53 0 6 0;
#X connect 54 0 20 1;
#X connect 54 0 60 0;
#X connect 55 0 61 0;
#X connect 56 0 52 0;
#X connect 56 1 52 1;
#X connect 57 0 50 0;
#X connect 58 0 48 0;
#X connect 58 1 50 2;
#X connect 59 0 61 0;
#X connect 60 0 61 0;
#X connect 60 1 48 1;
#X connect 61 0 48 0;
#X connect 62 0 65 0;
#X connect 63 0 26 0;
#X connect 64 0 27 0;
#X connect 65 0 66 0;
#X connect 66 0 22 0;
#X restore 501 153 pd gem_array;
#N canvas 699 197 467 592 display 0;
#X obj -150 274 square;
#X obj -135 204 loadbang;
#X msg -135 228 draw line;
#X obj -150 20 gemhead;
#X obj -99 408 loadbang;
#X obj -150 346 color 1 1 1 0.5;
#X msg -99 429 5;
#X obj -150 323 scale 1 1 3 0;
#X obj -150 43 alpha;
#X obj -39 25 r \$0-pos;
#X obj 21 29 r \$0-size;
#X obj -63 322 r \$0-tcolor;
#X obj -75 138 r \$0-wcolor;
#X obj 4 428 r \$0-name;
#X obj -11 457 symbol \$1;
#X obj -11 408 loadbang;
#X obj -66 204 r \$0-width;
#X msg -66 228 width \$1;
#X obj -150 0 r \$0-vis;
#X obj -150 162 color 1 1 1 1;
#X obj -90 468 r \$0-tsize;
#X msg -135 451 justify center top;
#X obj -150 531 text3d \$1;
#X obj -150 139 square;
#X obj -150 117 color 0.5 0.5 0.5 0.8;
#X msg -24 478 text \$1;
#X obj -27 93 r \$0-bcolor;
#X obj -150 89 scale 1 \$4 \$5 1;
#X msg 21 51 \$1 \$2 1;
#X obj -150 67 translate 1 \$2 \$3 0;
#X msg -39 47 \$1 \$2 0;
#X obj -150 297 translate 1 0 -0.5 0.01;
#X connect 0 0 31 0;
#X connect 1 0 2 0;
#X connect 2 0 0 0;
#X connect 3 0 8 0;
#X connect 4 0 6 0;
#X connect 4 0 21 0;
#X connect 5 0 22 0;
#X connect 6 0 22 1;
#X connect 7 0 5 0;
#X connect 8 0 29 0;
#X connect 9 0 30 0;
#X connect 10 0 28 0;
#X connect 11 0 5 1;
#X connect 12 0 19 1;
#X connect 13 0 14 0;
#X connect 14 0 25 0;
#X connect 15 0 14 0;
#X connect 16 0 17 0;
#X connect 17 0 0 0;
#X connect 18 0 3 0;
#X connect 19 0 0 0;
#X connect 20 0 22 1;
#X connect 21 0 22 0;
#X connect 23 0 19 0;
#X connect 24 0 23 0;
#X connect 25 0 22 0;
#X connect 26 0 24 1;
#X connect 27 0 24 0;
#X connect 28 0 27 2;
#X connect 29 0 27 0;
#X connect 30 0 29 2;
#X connect 31 0 5 0;
#X restore 503 176 pd display;
#N canvas 106 328 628 509 test_position 0;
#X obj 14 141 spigot;
#X obj 14 74 t a a a;
#X msg 47 166 \$3;
#X msg 68 81 \$1 \$2;
#X obj 14 192 spigot;
#X obj 68 102 expr if ($f1 > $f3-$f5 && $f1 < $f3+$f5 && $f2 > $f4-$f6
&& $f2 < $f4+$f6 \, 1 \, 0) \;;
#X obj 219 71 \$2;
#X obj 278 77 \$3;
#X obj 346 79 \$4;
#X obj 412 76 \$5;
#X msg 219 46 \$1;
#X msg 278 46 \$2;
#X msg 346 47 \$1;
#X msg 412 48 \$2;
#X obj 483 55 loadbang;
#X msg 14 242 pos \$1 \$2;
#X obj 14 219 spigot 0;
#X obj 219 0 r \$0-pos;
#X obj 345 3 r \$0-size;
#X obj 71 195 r \$0-drag;
#X obj 345 22 t b a a;
#X obj 158 303 r \$0-input;
#X obj 142 158 s \$1-zone;
#X obj 147 217 s \$1-clic;
#X obj 219 23 t a a;
#X obj 104 262 r \$0-set;
#X msg 104 304 set \$1;
#X obj 233 303 sel 1;
#X obj 412 165 expr $f1 - $f3 \; $f2 - $f4 \; $f1 + $f3 \; $f2 - $f4
\; $f1 + $f3 \; $f2 + $f4 \; $f1 - $f3 \; $f2 + $f4 \;;
#X obj 474 289 s \$0-ymax;
#X obj 412 279 s \$0-xmin;
#X obj 424 313 s \$0-ymin;
#X obj 434 341 s \$0-xmax;
#X msg 17 375 \$1;
#N canvas 0 0 449 380 rangeOUTX 0;
#X obj 150 171 inlet;
#X obj 200 171 inlet;
#X obj 64 143 inlet;
#X obj 64 293 outlet;
#X obj 64 170 t f b;
#X obj 64 252 expr ($f1-$f2)*(0-1)/($f2-$f3)+0;
#X connect 0 0 5 1;
#X connect 1 0 5 2;
#X connect 2 0 4 0;
#X connect 4 0 5 0;
#X connect 5 0 3 0;
#X restore 17 402 pd rangeOUTX;
#N canvas 0 0 449 380 rangeOUTY 0;
#X obj 150 171 inlet;
#X obj 200 171 inlet;
#X obj 64 143 inlet;
#X obj 64 293 outlet;
#X obj 64 170 t f b;
#X obj 64 252 expr ($f1-$f2)*(0-1)/($f2-$f3)+0;
#X connect 0 0 5 1;
#X connect 1 0 5 2;
#X connect 2 0 4 0;
#X connect 4 0 5 0;
#X connect 5 0 3 0;
#X restore 168 403 pd rangeOUTY;
#X msg 168 383 \$2;
#X obj 40 349 r \$0-xmin;
#X obj 203 379 r \$0-ymin;
#X obj 74 370 r \$0-xmax;
#X obj 261 379 r \$0-ymax;
#X obj 68 136 change;
#X obj 14 49 r \$0-xy;
#X obj 141 196 s \$0-clic;
#X obj 68 158 s \$0-zone;
#X obj 14 262 s \$0-table;
#X connect 0 0 2 0;
#X connect 0 0 4 0;
#X connect 1 0 0 0;
#X connect 1 2 3 0;
#X connect 2 0 4 1;
#X connect 2 0 23 0;
#X connect 2 0 27 0;
#X connect 2 0 43 0;
#X connect 3 0 5 0;
#X connect 4 0 16 0;
#X connect 4 0 36 0;
#X connect 4 0 33 0;
#X connect 5 0 41 0;
#X connect 6 0 5 2;
#X connect 6 0 28 0;
#X connect 7 0 5 3;
#X connect 7 0 28 1;
#X connect 8 0 5 4;
#X connect 8 0 28 2;
#X connect 9 0 5 5;
#X connect 9 0 28 3;
#X connect 10 0 6 0;
#X connect 11 0 7 0;
#X connect 12 0 8 0;
#X connect 13 0 9 0;
#X connect 14 0 9 0;
#X connect 14 0 8 0;
#X connect 14 0 7 0;
#X connect 14 0 6 0;
#X connect 15 0 45 0;
#X connect 16 0 15 0;
#X connect 17 0 24 0;
#X connect 18 0 20 0;
#X connect 19 0 16 1;
#X connect 20 0 6 0;
#X connect 20 1 12 0;
#X connect 20 2 13 0;
#X connect 24 0 10 0;
#X connect 24 1 11 0;
#X connect 25 0 26 0;
#X connect 28 0 30 0;
#X connect 28 1 31 0;
#X connect 28 2 32 0;
#X connect 28 5 29 0;
#X connect 33 0 34 0;
#X connect 36 0 35 0;
#X connect 37 0 34 1;
#X connect 38 0 35 1;
#X connect 39 0 34 2;
#X connect 40 0 35 2;
#X connect 41 0 0 1;
#X connect 41 0 22 0;
#X connect 41 0 44 0;
#X connect 42 0 1 0;
#X restore 503 198 pd test_position;
#N canvas 561 186 450 300 init 0;
#X obj 129 83 \$0;
#X obj 129 3 \$4;
#X obj 129 31 == 0;
#X obj 129 59 sel 1;
#X obj 129 -22 loadbang;
#X obj 106 -21 bng 15 250 50 0 empty empty empty 17 7 0 10 -262144
-1 -1;
#X msg 129 111 \; \$1-pos 0 0 \; \$1-size 2 1 \;;
#X obj 244 119 symbol \$1;
#X obj 308 119 \$2 \$3;
#X obj 363 118 \$4 \$5;
#X obj 308 143 s \$0-pos;
#X obj 244 143 s \$0-name;
#X obj 363 144 s \$0-size;
#X obj 308 93 bng 15 250 50 0 empty empty empty 17 7 0 10 -262144 -1
-1;
#X obj 363 94 bng 15 250 50 0 empty empty empty 17 7 0 10 -262144 -1
-1;
#X obj 244 93 bng 15 250 50 0 empty empty empty 17 7 0 10 -262144 -1
-1;
#X obj 244 50 r \$0-reset;
#X obj 426 145 s \$0-tsize;
#X msg 424 112 3;
#X obj 498 143 s \$0-width;
#X msg 496 110 0.1;
#X connect 0 0 6 0;
#X connect 1 0 2 0;
#X connect 2 0 3 0;
#X connect 3 0 0 0;
#X connect 4 0 1 0;
#X connect 5 0 1 0;
#X connect 7 0 11 0;
#X connect 8 0 10 0;
#X connect 9 0 12 0;
#X connect 13 0 8 0;
#X connect 14 0 9 0;
#X connect 15 0 7 0;
#X connect 16 0 9 0;
#X connect 16 0 8 0;
#X connect 16 0 7 0;
#X connect 16 0 18 0;
#X connect 16 0 20 0;
#X connect 18 0 17 0;
#X connect 20 0 19 0;
#X restore 502 130 pd init;
#X obj -235 157 s \$0-input;
#X obj -235 134 limit 0 1;
#X obj -235 60 inlet;
#X obj -76 204 s \$0-xy;
#X obj -55 152 r \$0-vis;
#X obj -76 182 spigot 1;
#X obj -23 60 r \$1;
#X obj -105 121 s \$0-pos;
#X obj -164 159 s \$0-name;
#X obj -190 60 r \$1-table;
#X obj -107 61 r \$0-table;
#X obj 212 -17 tof/param /buffer 100 /g slider 1 1280;
#X obj 211 9 s \$0-buffer;
#X obj 1011 496 pack f f f f;
#X obj 1021 450 t b f;
#X obj 1060 449 t b f;
#X obj 1097 449 t b f;
#X obj 1101 426 / 100;
#X obj 1058 426 / 100;
#X obj 1022 424 / 100;
#X obj 1012 399 / 100;
#X obj 998 324 tof/param /scolorR 100 /g slider 0 100;
#X obj 1031 355 tof/param /scolorV 100 /g slider 0 100;
#X obj 1062 380 tof/param /scolorB 100 /g slider 0 100;
#X obj 1094 404 tof/param /scolorA 100 /g slider 0 100;
#X obj 1012 537 s \$0-scolor;
#X obj 210 31 tof/param /mode 0 /g tgl 0 1;
#X obj 211 53 s \$0-mode;
#X obj 214 78 tof/param /zoom 1 /g slider 1 20;
#X obj 216 102 s \$0-zoom;
#X obj -235 84 route float name list pos;
#X connect 3 0 2 0;
#X connect 4 0 0 0;
#X connect 5 0 1 0;
#X connect 7 0 11 0;
#X connect 8 0 7 0;
#X connect 8 1 7 1;
#X connect 9 0 7 0;
#X connect 9 1 7 2;
#X connect 10 0 7 0;
#X connect 10 1 7 3;
#X connect 12 0 10 0;
#X connect 13 0 9 0;
#X connect 14 0 8 0;
#X connect 15 0 7 0;
#X connect 16 0 24 0;
#X connect 17 0 16 0;
#X connect 17 1 16 1;
#X connect 18 0 16 0;
#X connect 18 1 16 2;
#X connect 19 0 16 0;
#X connect 19 1 16 3;
#X connect 20 0 19 0;
#X connect 21 0 18 0;
#X connect 22 0 17 0;
#X connect 23 0 16 0;
#X connect 25 0 33 0;
#X connect 26 0 25 0;
#X connect 26 1 25 1;
#X connect 27 0 25 0;
#X connect 27 1 25 2;
#X connect 28 0 25 0;
#X connect 28 1 25 3;
#X connect 29 0 28 0;
#X connect 30 0 27 0;
#X connect 31 0 26 0;
#X connect 32 0 25 0;
#X connect 34 0 15 0;
#X connect 35 0 14 0;
#X connect 36 0 13 0;
#X connect 37 0 12 0;
#X connect 38 0 23 0;
#X connect 39 0 22 0;
#X connect 40 0 21 0;
#X connect 41 0 20 0;
#X connect 42 0 31 0;
#X connect 43 0 30 0;
#X connect 44 0 29 0;
#X connect 45 0 47 0;
#X connect 47 0 46 0;
#X connect 48 0 49 0;
#X connect 50 0 51 0;
#X connect 52 0 53 0;
#X connect 54 0 52 0;
#X connect 56 0 55 0;
#X connect 58 0 57 0;
#X connect 59 0 58 0;
#X connect 59 1 58 1;
#X connect 60 0 63 0;
#X connect 61 0 62 0;
#X connect 62 0 59 0;
#X connect 63 0 58 0;
#X connect 64 0 68 0;
#X connect 65 0 64 0;
#X connect 65 1 64 1;
#X connect 66 0 65 0;
#X connect 67 0 64 0;
#X connect 69 0 67 0;
#X connect 70 0 66 0;
#X connect 71 0 72 0;
#X connect 74 0 73 0;
#X connect 75 0 32 0;
#X connect 84 0 83 0;
#X connect 85 0 113 0;
#X connect 87 0 88 1;
#X connect 88 0 86 0;
#X connect 89 0 113 0;
#X connect 92 0 113 0;
#X connect 93 0 113 0;
#X connect 94 0 95 0;
#X connect 96 0 108 0;
#X connect 97 0 96 0;
#X connect 97 1 96 1;
#X connect 98 0 96 0;
#X connect 98 1 96 2;
#X connect 99 0 96 0;
#X connect 99 1 96 3;
#X connect 100 0 99 0;
#X connect 101 0 98 0;
#X connect 102 0 97 0;
#X connect 103 0 96 0;
#X connect 104 0 103 0;
#X connect 105 0 102 0;
#X connect 106 0 101 0;
#X connect 107 0 100 0;
#X connect 109 0 110 0;
#X connect 111 0 112 0;
#X connect 113 0 84 0;
#X connect 113 1 91 0;
#X connect 113 2 88 0;
#X connect 113 3 90 0;
