#N canvas 1 82 1364 661 10;
#X obj 842 290 outlet zone;
#X obj 927 290 outlet clic;
#X obj 752 290 outlet value;
#X obj 752 266 r \$0-value;
#X obj 842 267 r \$0-zone;
#X obj 927 266 r \$0-clic;
#X text -273 -52 gem_toggle \, 5 arguments: NAME Xpos Ypos Xsize Ysize
;
#X obj 68 511 pack f f f f;
#X obj 78 465 t b f;
#X obj 117 464 t b f;
#X obj 154 464 t b f;
#X obj 67 553 s \$0-bcolor;
#X obj 158 441 / 100;
#X obj 115 441 / 100;
#X obj 79 439 / 100;
#X obj 69 414 / 100;
#X obj 388 503 pack f f f f;
#X obj 398 457 t b f;
#X obj 437 456 t b f;
#X obj 474 456 t b f;
#X obj 478 433 / 100;
#X obj 435 433 / 100;
#X obj 399 431 / 100;
#X obj 389 406 / 100;
#X obj 389 544 s \$0-tcolor;
#X obj 694 491 pack f f f f;
#X obj 704 445 t b f;
#X obj 743 444 t b f;
#X obj 780 444 t b f;
#X obj 784 421 / 100;
#X obj 741 421 / 100;
#X obj 705 419 / 100;
#X obj 695 394 / 100;
#X obj 695 532 s \$0-wcolor;
#X obj 73 344 tof/param /bcolorR 50 /g slider 0 100;
#X obj 88 370 tof/param /bcolorV 50 /g slider 0 100;
#X obj 119 395 tof/param /bcolorB 50 /g slider 0 100;
#X obj 151 419 tof/param /bcolorA 50 /g slider 0 100;
#X obj 391 336 tof/param /tcolorR 100 /g slider 0 100;
#X obj 408 362 tof/param /tcolorV 100 /g slider 0 100;
#X obj 439 387 tof/param /tcolorB 100 /g slider 0 100;
#X obj 471 411 tof/param /tcolorA 100 /g slider 0 100;
#X obj 714 350 tof/param /wcolorV 100 /g slider 0 100;
#X obj 745 375 tof/param /wcolorB 100 /g slider 0 100;
#X obj 777 399 tof/param /wcolorA 100 /g slider 0 100;
#X obj 948 103 inlet params;
#X obj 948 149 print PARAM_NOTFOUND;
#X obj 948 125 tof/param route;
#X obj 951 174 b;
#X obj 952 203 tof/param gui;
#X obj -215 417 tof/param /on 0 /g tgl 0 1;
#X obj -214 439 s \$0-vis;
#X obj -215 488 / 10;
#X obj -214 511 s \$0-width;
#X obj -215 463 tof/param /width 1 /g slider 0 160;
#X obj -216 560 s \$0-tsize;
#X obj -217 535 tof/param /tsize 3 /g slider 0 150;
#X obj 599 98 s \$0-pos;
#X obj 582 75 pack;
#X obj 583 48 t b f;
#X obj 535 -23 tof/param /positionX 0 /g slider -160 160;
#X obj 554 2 tof/param /positionY 0 /g slider -160 160;
#X obj 578 26 / 10;
#X obj 542 28 / 10;
#X obj 858 77 pack;
#X obj 859 50 t b f;
#X obj 854 28 / 10;
#X obj 818 30 / 10;
#X obj 851 98 s \$0-size;
#X obj 813 -22 tof/param /sizeX 5 /g slider 0 160;
#X obj 830 4 tof/param /sizeY 5 /g slider 0 160;
#X obj 753 140 tof/param /drag 0 /g tgl 0 1;
#X obj 754 162 s \$0-drag;
#X obj 595 279 s \$0-reset;
#X obj 597 250 tof/param /reset /g bng;
#X obj 681 319 tof/param /wcolorR 100 /g slider 0 100;
#X text -277 -19 author : raphael isdant http://www.raphaelisdant.fr
;
#N canvas 1 82 1364 661 init 0;
#X obj 129 83 \$0;
#X obj 129 3 \$4;
#X obj 129 31 == 0;
#X obj 129 59 sel 1;
#X obj 106 -21 bng 15 250 50 0 empty empty empty 17 7 0 10 -262144
-1 -1;
#X msg 129 111 \; \$1-pos 0 0 \; \$1-size 1 3 \;;
#X obj 298 133 s \$0-pos;
#X obj 234 133 s \$0-name;
#X obj 353 134 s \$0-size;
#X obj 298 83 bng 15 250 50 0 empty empty empty 17 7 0 10 -262144 -1
-1;
#X obj 353 84 bng 15 250 50 0 empty empty empty 17 7 0 10 -262144 -1
-1;
#X obj 234 83 bng 15 250 50 0 empty empty empty 17 7 0 10 -262144 -1
-1;
#X obj 234 40 r \$0-reset;
#X obj 129 -22 initbang;
#X obj 430 129 s \$0-width;
#X msg 432 102 0.1;
#X obj 430 73 bng 15 250 50 0 empty empty empty 17 7 0 10 -262144 -1
-1;
#X obj 518 126 s \$0-tsize;
#X obj 514 67 bng 15 250 50 0 empty empty empty 17 7 0 10 -262144 -1
-1;
#X msg 516 96 3;
#X obj 234 108 symbol \$2;
#X obj 298 109 \$3 \$4;
#X obj 353 108 \$5 \$6;
#X connect 0 0 5 0;
#X connect 1 0 2 0;
#X connect 2 0 3 0;
#X connect 3 0 0 0;
#X connect 4 0 1 0;
#X connect 9 0 21 0;
#X connect 10 0 22 0;
#X connect 11 0 20 0;
#X connect 12 0 15 0;
#X connect 12 0 19 0;
#X connect 12 0 20 0;
#X connect 12 0 21 0;
#X connect 12 0 22 0;
#X connect 13 0 1 0;
#X connect 15 0 14 0;
#X connect 16 0 15 0;
#X connect 18 0 19 0;
#X connect 19 0 17 0;
#X connect 20 0 7 0;
#X connect 21 0 6 0;
#X connect 22 0 8 0;
#X restore 916 483 pd init;
#N canvas 192 82 703 661 test_position 0;
#X obj 79 235 spigot;
#X obj 79 168 t a a a;
#X msg 112 260 \$3;
#X msg 133 175 \$1 \$2;
#X obj 79 286 spigot;
#X text 93 59 $f3 X \, $f4 Y \, $f5 scale_X \, $f6 scale_y;
#X text 95 39 \$2 X \, \$3 Y \, \$4 scale_X \, \$5 scale_y;
#X obj 133 196 expr if ($f1 > $f3-$f5 && $f1 < $f3+$f5 && $f2 > $f4-$f6
&& $f2 < $f4+$f6 \, 1 \, 0) \;;
#X msg 284 140 \$1;
#X msg 343 140 \$2;
#X msg 411 141 \$1;
#X msg 477 142 \$2;
#X obj 212 526 s \$0-p1;
#X obj 294 526 s \$0-p2;
#X obj 387 520 s \$0-p3;
#X obj 477 523 s \$0-p4;
#X text 212 540 bas gauche;
#X text 393 538 haut droite;
#X text 296 539 bas droite;
#X text 462 541 haut gauche;
#X obj 373 464 t b f;
#X obj 444 431 t b f;
#X obj 284 263 expr $f1 - $f3 \; $f2 - $f4 \; $f1 + $f3 \; $f2 - $f4
\; $f1 + $f3 \; $f2 + $f4 \; $f1 - $f3 \; $f2 + $f4 \;;
#X msg 91 336 pos \$1 \$2;
#X obj 91 313 spigot 0;
#X obj 284 94 r \$0-pos;
#X obj 410 97 r \$0-size;
#X obj 136 289 r \$0-drag;
#X obj 410 116 t b a a;
#N canvas 0 0 449 380 rangeOUT 0;
#X obj 150 171 inlet;
#X obj 200 171 inlet;
#X obj 64 143 inlet;
#X obj 64 293 outlet;
#X obj 64 170 t f b;
#X obj 64 252 expr ($f1-$f2)*(0-1)/($f2-$f3)+0;
#X connect 0 0 5 1;
#X connect 1 0 5 2;
#X connect 2 0 4 0;
#X connect 4 0 5 0;
#X connect 5 0 3 0;
#X restore 79 475 pd rangeOUT;
#N canvas 355 113 449 380 rangeIN 0;
#X obj 150 171 inlet;
#X obj 200 171 inlet;
#X obj 64 143 inlet;
#X obj 64 293 outlet;
#X obj 64 170 t f b;
#X obj 64 252 expr ($f1-0)*($f2-$f3)/(0-1)+$f2;
#X connect 0 0 5 1;
#X connect 1 0 5 2;
#X connect 2 0 4 0;
#X connect 4 0 5 0;
#X connect 5 0 3 0;
#X restore 92 428 pd rangeIN;
#X obj 43 388 r \$0-input;
#X obj 77 529 f;
#X obj 43 411 t b f;
#X obj 133 237 s \$1-zone;
#X obj 164 318 s \$1-clic;
#X obj 284 117 t a a;
#X msg 79 452 \$2;
#X obj 52 360 t b a;
#X obj 112 449 f;
#X obj 79 141 r \$0-xy;
#X obj 146 565 s \$0-value;
#X obj 203 236 s \$0-zone;
#X obj 225 318 s \$0-clic;
#X obj 91 356 s \$0-vslider;
#X obj 548 149 initbang;
#X obj 284 165 \$3;
#X obj 344 171 \$4;
#X obj 411 172 \$5;
#X obj 476 170 \$6;
#X obj 212 497 pack \$3 \$5 f;
#X obj 294 498 pack \$4 \$6 f;
#X obj 387 494 pack \$4 \$6 f;
#X obj 477 498 pack \$3 \$6 f;
#X obj 77 564 s \$2-value;
#X connect 0 0 2 0;
#X connect 0 0 4 0;
#X connect 1 0 0 0;
#X connect 1 2 3 0;
#X connect 2 0 4 1;
#X connect 2 0 35 0;
#X connect 2 0 43 0;
#X connect 3 0 7 0;
#X connect 4 0 24 0;
#X connect 4 0 38 0;
#X connect 7 0 0 1;
#X connect 7 0 34 0;
#X connect 7 0 42 0;
#X connect 8 0 46 0;
#X connect 9 0 47 0;
#X connect 10 0 48 0;
#X connect 11 0 49 0;
#X connect 20 0 52 0;
#X connect 20 1 52 1;
#X connect 21 0 53 0;
#X connect 21 1 53 1;
#X connect 22 0 50 0;
#X connect 22 1 29 1;
#X connect 22 1 30 1;
#X connect 22 1 50 1;
#X connect 22 2 51 0;
#X connect 22 3 51 1;
#X connect 22 4 52 0;
#X connect 22 5 29 2;
#X connect 22 5 30 2;
#X connect 22 5 52 1;
#X connect 22 6 53 0;
#X connect 22 7 53 1;
#X connect 23 0 44 0;
#X connect 24 0 23 0;
#X connect 25 0 36 0;
#X connect 26 0 28 0;
#X connect 27 0 24 1;
#X connect 28 0 46 0;
#X connect 28 1 10 0;
#X connect 28 2 11 0;
#X connect 29 0 32 1;
#X connect 30 0 39 0;
#X connect 31 0 33 0;
#X connect 32 0 41 0;
#X connect 32 0 54 0;
#X connect 33 0 32 0;
#X connect 33 1 30 0;
#X connect 36 0 8 0;
#X connect 36 1 9 0;
#X connect 37 0 39 0;
#X connect 38 0 32 0;
#X connect 38 1 37 0;
#X connect 39 0 21 0;
#X connect 39 0 20 0;
#X connect 39 0 29 0;
#X connect 40 0 1 0;
#X connect 45 0 46 0;
#X connect 45 0 47 0;
#X connect 45 0 48 0;
#X connect 45 0 49 0;
#X connect 46 0 7 2;
#X connect 46 0 22 0;
#X connect 47 0 7 3;
#X connect 47 0 22 1;
#X connect 48 0 7 4;
#X connect 48 0 22 2;
#X connect 49 0 7 5;
#X connect 49 0 22 3;
#X connect 50 0 12 0;
#X connect 51 0 13 0;
#X connect 52 0 14 0;
#X connect 53 0 15 0;
#X restore 916 504 pd test_position;
#N canvas 644 150 380 593 display 1;
#X obj -145 318 square;
#X msg -58 273 \$1 \$2 0;
#X obj -145 295 scale 1 \$4 \$5 0;
#X obj -145 171 polygon 4;
#X obj -130 248 loadbang;
#X obj -93 151 r \$0-p4;
#X obj -133 94 r \$0-p1;
#X msg -130 272 draw line;
#X obj -145 24 gemhead;
#X obj -120 113 r \$0-p2;
#X obj -107 131 r \$0-p3;
#X obj 71 374 * 100;
#X obj 71 419 / 100;
#X obj 71 397 i;
#X obj -145 390 color 1 1 1 0.5;
#X obj -145 47 alpha;
#X obj 7 172 r \$0-pos;
#X obj -58 251 r \$0-size;
#X obj -98 43 r \$0-bcolor;
#X obj -58 366 r \$0-tcolor;
#X obj -70 172 r \$0-wcolor;
#X obj -10 420 r \$0-name;
#X obj 5 276 r \$0-width;
#X msg 5 300 width \$1;
#X obj -145 4 r \$0-vis;
#X obj -81 510 r \$0-tsize;
#X msg 71 480 text \$1;
#X msg -124 484 justify center top;
#X msg -130 453 justify center base;
#X obj -145 505 text3d 0;
#X msg 8 487 text \$1;
#X obj -145 341 translate 1 0 -0.7 0;
#X obj -145 71 color 0.5 0.5 0.5 0.8;
#X obj -11 393 loadbang;
#X obj -145 421 scaleXYZ 1.5 0.7 1;
#X obj -145 196 color 1 1 1 1;
#X msg -67 546 5;
#X obj -145 222 translate 1 \$2 \$3 0.01;
#X msg 7 194 \$1 \$2 0.01;
#X obj 71 352 r \$0-value;
#X obj 8 458 symbol \$2;
#X obj -144 535 text3d \$2;
#X connect 0 0 31 0;
#X connect 1 0 2 2;
#X connect 2 0 0 0;
#X connect 3 0 35 0;
#X connect 4 0 7 0;
#X connect 5 0 3 4;
#X connect 6 0 3 1;
#X connect 7 0 0 0;
#X connect 8 0 15 0;
#X connect 9 0 3 2;
#X connect 10 0 3 3;
#X connect 11 0 13 0;
#X connect 12 0 26 0;
#X connect 13 0 12 0;
#X connect 14 0 34 0;
#X connect 15 0 32 0;
#X connect 16 0 38 0;
#X connect 17 0 1 0;
#X connect 18 0 32 1;
#X connect 19 0 14 1;
#X connect 20 0 35 1;
#X connect 21 0 40 0;
#X connect 22 0 23 0;
#X connect 23 0 0 0;
#X connect 24 0 8 0;
#X connect 25 0 29 1;
#X connect 25 0 41 1;
#X connect 26 0 41 0;
#X connect 27 0 41 0;
#X connect 28 0 29 0;
#X connect 29 0 41 0;
#X connect 30 0 29 0;
#X connect 31 0 14 0;
#X connect 32 0 3 0;
#X connect 33 0 27 0;
#X connect 33 0 28 0;
#X connect 33 0 36 0;
#X connect 33 0 40 0;
#X connect 34 0 29 0;
#X connect 35 0 37 0;
#X connect 36 0 29 1;
#X connect 36 0 41 1;
#X connect 37 0 2 0;
#X connect 38 0 37 2;
#X connect 39 0 11 0;
#X connect 40 0 30 0;
#X restore 915 526 pd display;
#X obj -263 128 s \$0-input;
#X obj -263 105 limit 0 1;
#X obj -169 152 s \$0-name;
#X obj -263 31 inlet;
#X obj -37 157 s \$0-xy;
#X obj -16 105 r \$0-vis;
#X obj -37 135 spigot 1;
#X obj -135 32 r \$0-vslider;
#X obj -263 55 route float pos name list;
#X obj -218 31 r \$2-vslider;
#X obj -51 31 r \$2;
#X obj -242 186 s \$0-pos;
#X connect 3 0 2 0;
#X connect 4 0 0 0;
#X connect 5 0 1 0;
#X connect 7 0 11 0;
#X connect 8 0 7 0;
#X connect 8 1 7 1;
#X connect 9 0 7 0;
#X connect 9 1 7 2;
#X connect 10 0 7 0;
#X connect 10 1 7 3;
#X connect 12 0 10 0;
#X connect 13 0 9 0;
#X connect 14 0 8 0;
#X connect 15 0 7 0;
#X connect 16 0 24 0;
#X connect 17 0 16 0;
#X connect 17 1 16 1;
#X connect 18 0 16 0;
#X connect 18 1 16 2;
#X connect 19 0 16 0;
#X connect 19 1 16 3;
#X connect 20 0 19 0;
#X connect 21 0 18 0;
#X connect 22 0 17 0;
#X connect 23 0 16 0;
#X connect 25 0 33 0;
#X connect 26 0 25 0;
#X connect 26 1 25 1;
#X connect 27 0 25 0;
#X connect 27 1 25 2;
#X connect 28 0 25 0;
#X connect 28 1 25 3;
#X connect 29 0 28 0;
#X connect 30 0 27 0;
#X connect 31 0 26 0;
#X connect 32 0 25 0;
#X connect 34 0 15 0;
#X connect 35 0 14 0;
#X connect 36 0 13 0;
#X connect 37 0 12 0;
#X connect 38 0 23 0;
#X connect 39 0 22 0;
#X connect 40 0 21 0;
#X connect 41 0 20 0;
#X connect 42 0 31 0;
#X connect 43 0 30 0;
#X connect 44 0 29 0;
#X connect 45 0 47 0;
#X connect 47 0 46 0;
#X connect 48 0 49 0;
#X connect 50 0 51 0;
#X connect 52 0 53 0;
#X connect 54 0 52 0;
#X connect 56 0 55 0;
#X connect 58 0 57 0;
#X connect 59 0 58 0;
#X connect 59 1 58 1;
#X connect 60 0 63 0;
#X connect 61 0 62 0;
#X connect 62 0 59 0;
#X connect 63 0 58 0;
#X connect 64 0 68 0;
#X connect 65 0 64 0;
#X connect 65 1 64 1;
#X connect 66 0 65 0;
#X connect 67 0 64 0;
#X connect 69 0 67 0;
#X connect 70 0 66 0;
#X connect 71 0 72 0;
#X connect 74 0 73 0;
#X connect 75 0 32 0;
#X connect 81 0 80 0;
#X connect 83 0 88 0;
#X connect 85 0 86 1;
#X connect 86 0 84 0;
#X connect 87 0 88 0;
#X connect 88 0 81 0;
#X connect 88 1 91 0;
#X connect 88 2 82 0;
#X connect 88 3 86 0;
#X connect 89 0 88 0;
#X connect 90 0 88 0;
