#N canvas 1 82 664 661 10;
#X declare -lib Gem;
#X obj 33 19 cnv 15 400 40 empty empty empty 20 12 0 14 -250209 -66577
0;
#X obj 43 28 cnv 15 380 20 empty empty empty 20 12 0 14 -262144 -66577
0;
#X text 262 206 <= gestion de la fenêtre gem;
#X obj 73 208 tgl 15 0 empty empty empty 17 7 0 10 -262144 -1 -1 1
1;
#X msg 144 206 /dimen 640 480;
#X msg 176 233 /lighting 0;
#X obj 455 125 cnv 15 200 20 empty empty /gemsInfo/ 2 12 0 8 -254305
-262144 0;
#X obj 457 149 tgl 15 0 /gemsInfo/on /gemsInfo/on_ On 17 7 0 10 -262144
-1 -1 1 1;
#X obj 62 346 mtl/gemsMouse;
#X obj 68 270 mtl/gemsWin /dimen 640 480;
#X obj 61 376 mtl/gemsInfo;
#X text 31 78 tags: gems;
#X text 46 28 [gemsInfo] : information display on a GEM windows;
#X text 31 63 description : information display on a GEM windows;
#X text 36 99 author : raphael isdant http://www.raphaelisdant.fr;
#X connect 3 0 9 0;
#X connect 4 0 9 0;
#X connect 5 0 9 0;
#X connect 8 0 10 0;
