#N canvas 1 82 922 661 10;
#X text 30 71 Description: A more advanced video feedback loop using
snapshots of the rendering window.;
#X obj 286 100 tgl 15 0 empty empty empty 0 -6 0 10 -262144 -1 -1 1
1;
#X text 30 100 tags: gems;
#X obj 286 130 mtl/gemsWin /dimen 320 240;
#X obj 34 20 cnv 15 400 40 empty empty empty 20 12 0 14 -254305 -66577
0;
#X obj 46 29 cnv 15 380 20 empty empty empty 20 12 0 14 -262144 -66577
0;
#X obj 381 30 tgl 15 1 empty empty empty 17 7 0 10 -262144 -1 -1 0
1;
#X obj 404 30 tgl 15 0 empty empty empty 17 7 0 10 -262144 -1 -1 0
1;
#X obj 554 107 cnv 15 200 20 empty empty /gemsDelay/ 2 12 0 8 -258401
-262144 0;
#X obj 551 139 cnv 15 300 150 empty empty empty 20 12 0 14 -261234
-66577 0;
#X obj 563 165 hsl 128 15 0 150 0 0 /banane/frames /banane/frames_
frames 135 10 0 10 -262144 -1 -1 5947 1;
#X obj 560 143 tgl 15 0 /banane/delay-onoff /banane/delay-onoff_ delay-onoff
17 7 0 10 -262144 -1 -1 1 1;
#X obj 48 262 pix_texture;
#X obj 48 285 rectangle 5.33 4;
#X obj 48 213 pix_video;
#X obj 48 191 gemhead 45;
#X text 49 29 [gemsDelay];
#X obj 561 193 hradio 15 1 0 3 /banane/delay-mode /banane/delay-mode_
Delay_Mode 0 -8 0 10 -262144 -1 -1 0;
#X text 344 190 Argument 1: on/off;
#X text 344 204 Argument 2: nombre de frames;
#X text 342 217 Argument 3 : Delay mode;
#X obj 48 238 mtl/gemsDelay /id banane 1 10 2;
#X connect 1 0 3 0;
#X connect 12 0 13 0;
#X connect 14 0 21 0;
#X connect 15 0 14 0;
#X connect 21 0 12 0;
