#N canvas 1 82 1364 661 10;
#X obj -273 21 inlet;
#X obj 611 522 outlet zone;
#X obj 696 522 outlet clic;
#X obj 521 522 outlet value;
#X obj 521 498 r \$0-value;
#X obj 611 499 r \$0-zone;
#X obj 696 498 r \$0-clic;
#X text -273 -52 gemsFreeForm \, 5 arguments: NAME Xpos Ypos Xsize
Ysize;
#X obj 68 511 pack f f f f;
#X obj 78 465 t b f;
#X obj 117 464 t b f;
#X obj 154 464 t b f;
#X obj 67 553 s \$0-bcolor;
#X obj 158 441 / 100;
#X obj 115 441 / 100;
#X obj 79 439 / 100;
#X obj 69 414 / 100;
#X obj 388 503 pack f f f f;
#X obj 398 457 t b f;
#X obj 437 456 t b f;
#X obj 474 456 t b f;
#X obj 478 433 / 100;
#X obj 435 433 / 100;
#X obj 399 431 / 100;
#X obj 389 406 / 100;
#X obj 389 544 s \$0-tcolor;
#X obj 73 344 tof/param /bcolorR 50 /g slider 0 100;
#X obj 88 370 tof/param /bcolorV 50 /g slider 0 100;
#X obj 119 395 tof/param /bcolorB 50 /g slider 0 100;
#X obj 151 419 tof/param /bcolorA 50 /g slider 0 100;
#X obj 391 336 tof/param /tcolorR 100 /g slider 0 100;
#X obj 408 362 tof/param /tcolorV 100 /g slider 0 100;
#X obj 439 387 tof/param /tcolorB 100 /g slider 0 100;
#X obj 471 411 tof/param /tcolorA 100 /g slider 0 100;
#X obj 295 -34 inlet params;
#X obj 295 12 print PARAM_NOTFOUND;
#X obj 295 -12 tof/param route;
#X obj 298 37 b;
#X obj 299 66 tof/param gui;
#X obj 303 98 tof/param /on 0 /g tgl 0 1;
#X obj 304 120 s \$0-vis;
#X obj 303 169 / 10;
#X obj 304 192 s \$0-width;
#X obj 303 144 tof/param /width 1 /g slider 0 160;
#X obj 302 241 s \$0-tsize;
#X obj 301 216 tof/param /tsize 3 /g slider 0 150;
#X obj 599 98 s \$0-pos;
#X obj 582 75 pack;
#X obj 583 48 t b f;
#X obj 535 -23 tof/param /positionX 0 /g slider -160 160;
#X obj 554 2 tof/param /positionY 0 /g slider -160 160;
#X obj 578 26 / 10;
#X obj 542 28 / 10;
#X obj 719 342 pack;
#X obj 720 315 t b f;
#X obj 715 293 / 10;
#X obj 679 295 / 10;
#X obj 712 363 s \$0-size;
#X obj 674 243 tof/param /sizeX 5 /g slider 0 160;
#X obj 691 269 tof/param /sizeY 5 /g slider 0 160;
#X obj 561 138 tof/param /drag 0 /g tgl 0 1;
#X obj 562 160 s \$0-drag;
#X obj 547 188 tof/param /set 0 /g tgl 0 1;
#X obj 548 210 s \$0-set;
#X obj -212 143 s \$0-pos;
#X obj 511 287 s \$0-reset;
#X obj 513 258 tof/param /reset /g bng;
#X text -277 -19 author : raphael isdant http://www.raphaelisdant.fr
;
#X obj -103 10 r \$0-freeform;
#X obj -62 162 s \$0-xy;
#X obj -17 116 r \$0-vis;
#X obj -62 140 spigot 1;
#N canvas 1 503 326 240 init 0;
#X obj 119 73 \$0;
#X obj 119 -7 \$4;
#X obj 119 21 == 0;
#X obj 119 49 sel 1;
#X obj 119 -32 loadbang;
#X obj 96 -31 bng 15 250 50 0 empty empty empty 17 7 0 10 -262144 -1
-1;
#X obj 181 -33 r \$0-reset;
#X msg 119 101 \; \$1-pos 0 0 \; \$1-size 1 1 \;;
#X connect 0 0 7 0;
#X connect 1 0 2 0;
#X connect 2 0 3 0;
#X connect 3 0 0 0;
#X connect 4 0 1 0;
#X connect 5 0 1 0;
#X connect 6 0 1 0;
#X restore -259 191 pd init;
#N canvas 544 82 666 661 test_position 0;
#X obj 79 235 spigot;
#X obj 79 168 t a a a;
#X msg 112 260 \$3;
#X msg 133 175 \$1 \$2;
#X obj 79 286 spigot;
#X msg 284 140 \$1;
#X msg 343 140 \$2;
#X msg 411 141 \$1;
#X msg 477 142 \$2;
#X obj 212 526 s \$0-p1;
#X obj 294 526 s \$0-p2;
#X obj 388 530 s \$0-p3;
#X obj 477 523 s \$0-p4;
#X text 212 540 bas gauche;
#X text 394 548 haut droite;
#X text 296 539 bas droite;
#X text 462 541 haut gauche;
#X obj 397 410 t b f;
#X obj 318 407 t b f;
#X obj 284 263 expr $f1 - $f3 \; $f2 - $f4 \; $f1 + $f3 \; $f2 - $f4
\; $f1 + $f3 \; $f2 + $f4 \; $f1 - $f3 \; $f2 + $f4 \;;
#X obj 397 434 * 1;
#X obj 307 434 * 1;
#X msg 91 336 pos \$1 \$2;
#X obj 91 313 spigot 0;
#X obj 284 94 r \$0-pos;
#X obj 410 97 r \$0-size;
#X obj 136 289 r \$0-drag;
#X obj 410 116 t b a a;
#X obj 133 235 s \$1-zone;
#X obj 173 331 s \$1-clic;
#X obj 284 117 t a a;
#X obj 79 136 r \$0-xy;
#X text 78 51 $f3 X \, $f4 Y \, $f5 scale_X \, $f6 scale_y;
#X text 80 31 \$2 X \, \$3 Y \, \$4 scale_X \, \$5 scale_y;
#X obj 194 235 s \$0-zone;
#X obj 173 354 s \$0-clic;
#X obj 133 196 expr if ($f1 > $f3-$f5 && $f1 < $f3+$f5 && $f2 > $f4-$f6
&& $f2 < $f4+$f6 \, 1 \, 0) \;;
#N canvas 577 137 669 606 corner_test1 0;
#X obj 50 47 r \$0-xy;
#X obj 283 98 r \$0-p1;
#X msg 49 169 \$1 \$2;
#X obj 49 209 expr if ($f1 > $f3-0.5 && $f1 < $f3+0.5 && $f2 > $f4-0.5
&& $f2 < $f4+0.5 \, 1 \, 0) \;;
#X msg 283 147 \$1;
#X msg 397 155 \$2;
#X obj 283 124 t a a;
#X obj 15 374 s \$0-p1;
#X obj 14 265 spigot;
#X msg 15 346 \$1 \$2 0;
#X msg 48 292 \$3;
#X obj 15 318 spigot;
#X obj 70 257 s \$0-point1;
#X obj 283 172 \$3;
#X obj 398 179 \$4;
#X connect 0 0 2 0;
#X connect 0 0 8 0;
#X connect 1 0 6 0;
#X connect 2 0 3 0;
#X connect 3 0 8 1;
#X connect 3 0 12 0;
#X connect 4 0 13 0;
#X connect 5 0 14 0;
#X connect 6 0 4 0;
#X connect 6 1 5 0;
#X connect 8 0 10 0;
#X connect 8 0 11 0;
#X connect 9 0 7 0;
#X connect 10 0 11 1;
#X connect 11 0 9 0;
#X connect 13 0 3 2;
#X connect 14 0 3 3;
#X restore 419 282 pd corner_test1;
#N canvas 747 264 529 479 corner_test2 0;
#X obj 50 47 r \$0-xy;
#X msg 49 169 \$1 \$2;
#X obj 49 209 expr if ($f1 > $f3-0.5 && $f1 < $f3+0.5 && $f2 > $f4-0.5
&& $f2 < $f4+0.5 \, 1 \, 0) \;;
#X msg 283 147 \$1;
#X msg 397 155 \$2;
#X obj 283 124 t a a;
#X obj 14 265 spigot;
#X msg 15 346 \$1 \$2 0;
#X msg 48 292 \$3;
#X obj 15 318 spigot;
#X obj 15 374 s \$0-p2;
#X obj 283 98 r \$0-p2;
#X obj 113 270 s \$0-point2;
#X obj 283 172 \$6;
#X obj 398 179 \$4;
#X connect 0 0 1 0;
#X connect 0 0 6 0;
#X connect 1 0 2 0;
#X connect 2 0 6 1;
#X connect 2 0 12 0;
#X connect 3 0 13 0;
#X connect 4 0 14 0;
#X connect 5 0 3 0;
#X connect 5 1 4 0;
#X connect 6 0 8 0;
#X connect 6 0 9 0;
#X connect 7 0 10 0;
#X connect 8 0 9 1;
#X connect 9 0 7 0;
#X connect 11 0 5 0;
#X connect 13 0 2 2;
#X connect 14 0 2 3;
#X restore 419 305 pd corner_test2;
#N canvas 186 256 529 479 corner_test3 0;
#X obj 50 47 r \$0-xy;
#X msg 49 169 \$1 \$2;
#X obj 49 209 expr if ($f1 > $f3-0.5 && $f1 < $f3+0.5 && $f2 > $f4-0.5
&& $f2 < $f4+0.5 \, 1 \, 0) \;;
#X msg 283 147 \$1;
#X msg 397 155 \$2;
#X obj 283 124 t a a;
#X obj 14 265 spigot;
#X msg 15 346 \$1 \$2 0;
#X msg 48 292 \$3;
#X obj 15 318 spigot;
#X obj 283 98 r \$0-p3;
#X obj 15 374 s \$0-p3;
#X obj 125 281 s \$0-point3;
#X obj 283 172 \$3;
#X obj 398 179 \$4;
#X connect 0 0 1 0;
#X connect 0 0 6 0;
#X connect 1 0 2 0;
#X connect 2 0 6 1;
#X connect 2 0 12 0;
#X connect 3 0 13 0;
#X connect 4 0 14 0;
#X connect 5 0 3 0;
#X connect 5 1 4 0;
#X connect 6 0 8 0;
#X connect 6 0 9 0;
#X connect 7 0 11 0;
#X connect 8 0 9 1;
#X connect 9 0 7 0;
#X connect 10 0 5 0;
#X connect 13 0 2 2;
#X connect 14 0 2 3;
#X restore 419 331 pd corner_test3;
#N canvas 184 261 529 479 corner_test4 0;
#X obj 50 47 r \$0-xy;
#X msg 49 169 \$1 \$2;
#X obj 49 209 expr if ($f1 > $f3-0.5 && $f1 < $f3+0.5 && $f2 > $f4-0.5
&& $f2 < $f4+0.5 \, 1 \, 0) \;;
#X msg 283 147 \$1;
#X msg 397 155 \$2;
#X obj 283 124 t a a;
#X obj 14 265 spigot;
#X msg 15 346 \$1 \$2 0;
#X msg 48 292 \$3;
#X obj 15 318 spigot;
#X obj 283 98 r \$0-p4;
#X obj 15 375 s \$0-p4;
#X obj 73 260 s \$0-point4;
#X obj 283 172 \$3;
#X obj 398 179 \$4;
#X connect 0 0 1 0;
#X connect 0 0 6 0;
#X connect 1 0 2 0;
#X connect 2 0 6 1;
#X connect 2 0 12 0;
#X connect 3 0 13 0;
#X connect 4 0 14 0;
#X connect 5 0 3 0;
#X connect 5 1 4 0;
#X connect 6 0 8 0;
#X connect 6 0 9 0;
#X connect 7 0 11 0;
#X connect 8 0 9 1;
#X connect 9 0 7 0;
#X connect 10 0 5 0;
#X connect 13 0 2 2;
#X connect 14 0 2 3;
#X restore 422 356 pd corner_test4;
#X obj 90 356 s \$0-freeform;
#X obj 284 165 \$3;
#X obj 343 171 \$4;
#X obj 410 173 \$5;
#X obj 477 170 \$6;
#X obj 212 496 pack \$3 \$5 f;
#X obj 294 498 pack \$4 \$6 f;
#X obj 387 496 pack \$4 \$6 f;
#X obj 477 499 pack \$3 \$6 f;
#X connect 0 0 2 0;
#X connect 0 0 4 0;
#X connect 1 0 0 0;
#X connect 1 2 3 0;
#X connect 2 0 4 1;
#X connect 2 0 29 0;
#X connect 2 0 35 0;
#X connect 3 0 36 0;
#X connect 4 0 23 0;
#X connect 5 0 42 0;
#X connect 6 0 43 0;
#X connect 7 0 44 0;
#X connect 8 0 45 0;
#X connect 17 0 20 0;
#X connect 17 1 20 1;
#X connect 18 0 21 0;
#X connect 18 1 21 1;
#X connect 19 0 46 0;
#X connect 19 1 46 1;
#X connect 19 2 21 0;
#X connect 19 3 47 1;
#X connect 19 4 20 0;
#X connect 19 5 48 1;
#X connect 19 6 49 0;
#X connect 19 7 49 1;
#X connect 20 0 48 0;
#X connect 21 0 47 0;
#X connect 22 0 41 0;
#X connect 23 0 22 0;
#X connect 24 0 30 0;
#X connect 25 0 27 0;
#X connect 26 0 23 1;
#X connect 27 0 42 0;
#X connect 27 1 7 0;
#X connect 27 2 8 0;
#X connect 30 0 5 0;
#X connect 30 1 6 0;
#X connect 31 0 1 0;
#X connect 36 0 0 1;
#X connect 36 0 28 0;
#X connect 36 0 34 0;
#X connect 42 0 19 0;
#X connect 42 0 36 2;
#X connect 43 0 19 1;
#X connect 43 0 36 3;
#X connect 44 0 19 2;
#X connect 44 0 36 4;
#X connect 45 0 19 3;
#X connect 45 0 36 5;
#X connect 46 0 9 0;
#X connect 47 0 10 0;
#X connect 48 0 11 0;
#X connect 49 0 12 0;
#X restore -259 215 pd test_position;
#N canvas 1 82 1364 661 display 0;
#X obj -138 206 polygon 4;
#X obj -86 186 r \$0-p4;
#X obj -126 129 r \$0-p1;
#X obj -138 29 gemhead;
#X obj -113 148 r \$0-p2;
#X obj -100 166 r \$0-p3;
#X obj -138 52 alpha;
#X obj -91 48 r \$0-bcolor;
#X obj -63 207 r \$0-wcolor;
#X obj -138 9 r \$0-vis;
#X obj -138 231 color 1 1 1 1;
#X obj -138 103 pix_texture;
#X obj -49 76 inlet texture;
#X obj -138 76 color 1 1 1 1;
#X obj 45 278 polygon 4;
#X obj 97 258 r \$0-p4;
#X obj 57 201 r \$0-p1;
#X obj 70 220 r \$0-p2;
#X obj 83 238 r \$0-p3;
#X msg 31 182 draw line;
#X obj 45 117 r \$0-width;
#X msg 45 138 width \$1;
#X obj 31 161 loadbang;
#X obj -88 338 r \$0-p-over;
#X obj -121 362 spigot;
#X obj -67 285 loadbang;
#X msg -67 306 draw line;
#X obj -121 443 circle 0.2;
#X obj -121 413 color 1 0 0;
#X obj -121 576 text3d \$1;
#X msg -107 527 justify center base;
#X obj -34 438 r \$0-tcolor;
#X obj 94 508 r \$0-name;
#X obj 32 460 loadbang;
#X obj -70 551 r \$0-tsize;
#X msg 6 490 5;
#X obj -121 466 color 1 1 1 0.5;
#X obj -121 305 gemhead;
#X obj -121 389 translate 1 0 0 0;
#X obj -121 491 translate 1 0 -0.5 0;
#X obj 32 510 pack s f;
#X msg 32 532 text \$1 \$2;
#N canvas 1 82 450 300 selection 0;
#X obj 89 43 r \$0-p3;
#X obj 247 47 r \$0-p4;
#X obj -9 69 r \$0-point1;
#X obj -9 114 l;
#X obj -9 93 sel 1;
#X obj -11 43 r \$0-p1;
#X obj 40 43 r \$0-p2;
#X obj 75 116 l;
#X obj 75 95 sel 1;
#X obj 75 71 r \$0-point2;
#X obj 153 115 l;
#X obj 153 94 sel 1;
#X obj 153 70 r \$0-point3;
#X obj 230 117 l;
#X obj 230 72 r \$0-point4;
#X obj 230 96 sel 1;
#X msg 99 164 0;
#X msg 129 166 1;
#X msg 161 167 2;
#X msg 196 170 3;
#X obj 196 194 change;
#X obj 196 224 outlet;
#X obj 28 208 outlet;
#X connect 0 0 10 1;
#X connect 1 0 13 1;
#X connect 2 0 4 0;
#X connect 3 0 22 0;
#X connect 4 0 3 0;
#X connect 4 0 16 0;
#X connect 5 0 3 1;
#X connect 6 0 7 1;
#X connect 7 0 22 0;
#X connect 8 0 7 0;
#X connect 8 0 17 0;
#X connect 9 0 8 0;
#X connect 10 0 22 0;
#X connect 11 0 10 0;
#X connect 11 0 18 0;
#X connect 12 0 11 0;
#X connect 13 0 22 0;
#X connect 14 0 15 0;
#X connect 15 0 13 0;
#X connect 15 0 19 0;
#X connect 16 0 20 0;
#X connect 17 0 20 0;
#X connect 18 0 20 0;
#X connect 19 0 20 0;
#X connect 20 0 21 0;
#X restore 12 346 pd selection;
#X obj 92 421 t b a;
#X msg 32 558 font vera.ttf;
#X obj 32 486 symbol \$2;
#X connect 0 0 10 0;
#X connect 1 0 0 4;
#X connect 2 0 0 1;
#X connect 3 0 6 0;
#X connect 4 0 0 2;
#X connect 5 0 0 3;
#X connect 6 0 13 0;
#X connect 7 0 13 1;
#X connect 8 0 10 1;
#X connect 9 0 3 0;
#X connect 10 0 14 0;
#X connect 11 0 0 0;
#X connect 12 0 11 1;
#X connect 13 0 11 0;
#X connect 15 0 14 4;
#X connect 16 0 14 1;
#X connect 17 0 14 2;
#X connect 18 0 14 3;
#X connect 19 0 14 0;
#X connect 20 0 21 0;
#X connect 21 0 14 0;
#X connect 22 0 19 0;
#X connect 23 0 24 1;
#X connect 24 0 38 0;
#X connect 25 0 26 0;
#X connect 26 0 27 0;
#X connect 27 0 36 0;
#X connect 28 0 27 0;
#X connect 30 0 29 0;
#X connect 31 0 36 1;
#X connect 32 0 40 0;
#X connect 33 0 30 0;
#X connect 33 0 35 0;
#X connect 33 0 45 0;
#X connect 34 0 29 1;
#X connect 35 0 29 1;
#X connect 36 0 39 0;
#X connect 37 0 24 0;
#X connect 38 0 28 0;
#X connect 39 0 29 0;
#X connect 40 0 41 0;
#X connect 41 0 29 0;
#X connect 42 0 38 2;
#X connect 42 1 43 0;
#X connect 43 0 40 0;
#X connect 43 1 40 1;
#X connect 44 0 29 0;
#X connect 45 0 40 0;
#X restore -205 242 pd display;
#X obj -191 190 inlet texture;
#N canvas 1 82 1364 661 save 1;
#X obj 30 270 s \$0-p1;
#X obj 48 293 s \$0-p2;
#X obj 67 314 s \$0-p3;
#X obj 86 270 s \$0-p4;
#X msg 103 0 print;
#X msg 103 46 rewind;
#X msg 19 61 bang;
#X obj 329 63 bng 15 250 50 0 empty empty empty 17 7 0 10 -262144 -1
-1;
#X text 346 61 save;
#X msg 103 22 clear;
#X obj 241 247 r \$0-xy;
#X msg 241 267 \$3;
#X obj 30 203 msgfile;
#X obj 69 224 bng 15 250 50 0 empty empty empty 17 7 0 10 -262144 -1
-1;
#X obj 30 245 route 0 1 2 3;
#X obj 229 68 bng 15 250 50 0 empty empty empty 17 7 0 10 -262144 -1
-1;
#X text 245 68 load;
#N canvas 731 369 450 300 fill 0;
#X obj 262 29 r \$0-p4;
#X obj 38 29 r \$0-p1;
#X obj 108 34 r \$0-p2;
#X obj 194 26 r \$0-p3;
#X obj 148 183 outlet;
#X msg 115 104 goto 1 \, replace 1 \$1 \$2 0;
#X msg 212 80 goto 2 \, replace 2 \$1 \$2 0;
#X msg 261 103 goto 3 \, replace 3 \$1 \$2 0;
#X msg 15 71 goto 0 \, replace 0 \$1 \$2 0;
#X connect 0 0 7 0;
#X connect 1 0 8 0;
#X connect 2 0 5 0;
#X connect 3 0 6 0;
#X connect 5 0 4 0;
#X connect 6 0 4 0;
#X connect 7 0 4 0;
#X connect 8 0 4 0;
#X restore 113 135 pd fill;
#X obj 322 37 r \$0-save;
#X obj 223 38 r \$0-load;
#X obj 248 324 <;
#X obj 242 289 t f f f;
#X obj 215 199 r \$0-point1;
#X obj 299 201 r \$0-point2;
#X obj 384 201 r \$0-point3;
#X obj 469 201 r \$0-point4;
#X obj 215 366 sel 1;
#X obj 215 388 bng 15 250 50 0 empty empty empty 17 7 0 10 -262144
-1 -1;
#X text 221 173 Auto-save;
#X obj 113 183 s \$0-value;
#X obj 113 161 route replace;
#X obj 19 8 loadbang;
#X msg 223 119 read \$1 \, flush;
#X msg 30 164 add 0 0 0 0;
#X obj 30 132 until;
#X msg 30 107 4;
#X msg 322 119 write \$1;
#X obj 19 29 t b b;
#X obj -2 8 bng 15 250 50 0 empty empty empty 17 7 0 10 -262144 -1
-1;
#X msg 104 74 flush;
#X obj 215 223 expr if ($f1 || $f2 || $f3 || $f4 > 0 \, 1 \, 0) \;
;
#X obj 215 345 spigot;
#X obj 139 250 s \$0-p-over;
#X obj 245 389 s \$0-save;
#X obj 223 98 symbol \$1;
#X obj 321 92 symbol \$1;
#X connect 4 0 12 0;
#X connect 5 0 12 0;
#X connect 6 0 12 0;
#X connect 7 0 45 0;
#X connect 9 0 12 0;
#X connect 10 0 11 0;
#X connect 11 0 21 0;
#X connect 12 0 14 0;
#X connect 12 1 13 0;
#X connect 12 1 35 0;
#X connect 14 0 0 0;
#X connect 14 1 1 0;
#X connect 14 2 2 0;
#X connect 14 3 3 0;
#X connect 15 0 44 0;
#X connect 17 0 12 0;
#X connect 17 0 30 0;
#X connect 18 0 45 0;
#X connect 19 0 44 0;
#X connect 20 0 41 1;
#X connect 21 1 20 1;
#X connect 21 2 20 0;
#X connect 22 0 40 0;
#X connect 23 0 40 1;
#X connect 24 0 40 2;
#X connect 25 0 40 3;
#X connect 26 0 27 0;
#X connect 26 0 43 0;
#X connect 30 0 29 0;
#X connect 31 0 37 0;
#X connect 32 0 12 0;
#X connect 33 0 12 0;
#X connect 34 0 33 0;
#X connect 35 0 34 0;
#X connect 36 0 12 0;
#X connect 37 0 6 0;
#X connect 37 1 44 0;
#X connect 38 0 37 0;
#X connect 39 0 12 0;
#X connect 40 0 41 0;
#X connect 40 0 42 0;
#X connect 41 0 26 0;
#X connect 44 0 32 0;
#X connect 45 0 36 0;
#X restore -259 244 pd save;
#X obj -250 514 pack f f f f;
#X obj -240 468 t b f;
#X obj -201 467 t b f;
#X obj -164 467 t b f;
#X obj -160 444 / 100;
#X obj -203 444 / 100;
#X obj -239 442 / 100;
#X obj -249 417 / 100;
#X obj -249 555 s \$0-wcolor;
#X obj -230 373 tof/param /wcolorV 100 /g slider 0 100;
#X obj -199 398 tof/param /wcolorB 100 /g slider 0 100;
#X obj -167 422 tof/param /wcolorA 100 /g slider 0 100;
#X obj -263 342 tof/param /wcolorR 100 /g slider 0 100;
#X obj -260 64 route pos list;
#X obj -220 9 r \$2-freeform;
#X obj 19 9 r \$2;
#X connect 0 0 90 0;
#X connect 4 0 3 0;
#X connect 5 0 1 0;
#X connect 6 0 2 0;
#X connect 8 0 12 0;
#X connect 9 0 8 0;
#X connect 9 1 8 1;
#X connect 10 0 8 0;
#X connect 10 1 8 2;
#X connect 11 0 8 0;
#X connect 11 1 8 3;
#X connect 13 0 11 0;
#X connect 14 0 10 0;
#X connect 15 0 9 0;
#X connect 16 0 8 0;
#X connect 17 0 25 0;
#X connect 18 0 17 0;
#X connect 18 1 17 1;
#X connect 19 0 17 0;
#X connect 19 1 17 2;
#X connect 20 0 17 0;
#X connect 20 1 17 3;
#X connect 21 0 20 0;
#X connect 22 0 19 0;
#X connect 23 0 18 0;
#X connect 24 0 17 0;
#X connect 26 0 16 0;
#X connect 27 0 15 0;
#X connect 28 0 14 0;
#X connect 29 0 13 0;
#X connect 30 0 24 0;
#X connect 31 0 23 0;
#X connect 32 0 22 0;
#X connect 33 0 21 0;
#X connect 34 0 36 0;
#X connect 36 0 35 0;
#X connect 37 0 38 0;
#X connect 39 0 40 0;
#X connect 41 0 42 0;
#X connect 43 0 41 0;
#X connect 45 0 44 0;
#X connect 47 0 46 0;
#X connect 48 0 47 0;
#X connect 48 1 47 1;
#X connect 49 0 52 0;
#X connect 50 0 51 0;
#X connect 51 0 48 0;
#X connect 52 0 47 0;
#X connect 53 0 57 0;
#X connect 54 0 53 0;
#X connect 54 1 53 1;
#X connect 55 0 54 0;
#X connect 56 0 53 0;
#X connect 58 0 56 0;
#X connect 59 0 55 0;
#X connect 60 0 61 0;
#X connect 62 0 63 0;
#X connect 66 0 65 0;
#X connect 68 0 90 0;
#X connect 70 0 71 1;
#X connect 71 0 69 0;
#X connect 75 0 74 0;
#X connect 77 0 85 0;
#X connect 78 0 77 0;
#X connect 78 1 77 1;
#X connect 79 0 77 0;
#X connect 79 1 77 2;
#X connect 80 0 77 0;
#X connect 80 1 77 3;
#X connect 81 0 80 0;
#X connect 82 0 79 0;
#X connect 83 0 78 0;
#X connect 84 0 77 0;
#X connect 86 0 83 0;
#X connect 87 0 82 0;
#X connect 88 0 81 0;
#X connect 89 0 84 0;
#X connect 90 0 64 0;
#X connect 90 1 71 0;
#X connect 91 0 90 0;
#X connect 92 0 90 0;
