#N canvas 1 82 1351 661 10;
#X obj 2 382 pack f f f f;
#X obj 12 336 t b f;
#X obj 51 335 t b f;
#X obj 88 335 t b f;
#X obj 92 312 / 100;
#X obj 49 312 / 100;
#X obj 13 310 / 100;
#X obj 3 285 / 100;
#X obj 3 423 s \$0-tcolor;
#X obj 5 215 tof/param /tcolorR 100 /g slider 0 100;
#X obj 22 241 tof/param /tcolorV 100 /g slider 0 100;
#X obj 53 266 tof/param /tcolorB 100 /g slider 0 100;
#X obj 85 290 tof/param /tcolorA 100 /g slider 0 100;
#X obj 948 103 inlet params;
#X obj 948 149 print PARAM_NOTFOUND;
#X obj 948 125 tof/param route;
#X obj 951 174 b;
#X obj 952 203 tof/param gui;
#X obj -236 232 tof/param /on 0 /g tgl 0 1;
#X obj -235 254 s \$0-vis;
#X obj -240 302 s \$0-tsize;
#X obj 674 384 t b f;
#X obj 632 312 tof/param /rotationX 0 /g slider -160 160;
#X obj 651 337 tof/param /rotationY 0 /g slider -160 160;
#X obj 675 361 / 10;
#X obj 639 363 / 10;
#X obj 858 77 pack;
#X obj 859 50 t b f;
#X obj 854 28 / 10;
#X obj 818 30 / 10;
#X obj 851 98 s \$0-size;
#X obj 813 -22 tof/param /sizeX 5 /g slider 0 160;
#X obj 830 4 tof/param /sizeY 5 /g slider 0 160;
#X obj 753 140 tof/param /drag 0 /g tgl 0 1;
#X obj 754 162 s \$0-drag;
#X obj -251 418 s \$0-reset;
#X obj -249 389 tof/param /reset /g bng;
#N canvas 1 82 1351 661 init 0;
#X obj 129 83 \$0;
#X obj 129 3 \$4;
#X obj 129 31 == 0;
#X obj 129 59 sel 1;
#X obj 106 -21 bng 15 250 50 0 empty empty empty 17 7 0 10 -262144
-1 -1;
#X msg 129 111 \; \$1-pos 0 0 \; \$1-size 1 3 \;;
#X obj 298 133 s \$0-pos;
#X obj 234 133 s \$0-name;
#X obj 353 134 s \$0-size;
#X obj 298 83 bng 15 250 50 0 empty empty empty 17 7 0 10 -262144 -1
-1;
#X obj 353 84 bng 15 250 50 0 empty empty empty 17 7 0 10 -262144 -1
-1;
#X obj 234 83 bng 15 250 50 0 empty empty empty 17 7 0 10 -262144 -1
-1;
#X obj 234 40 r \$0-reset;
#X obj 129 -22 initbang;
#X obj 430 129 s \$0-width;
#X msg 432 102 0.1;
#X obj 430 73 bng 15 250 50 0 empty empty empty 17 7 0 10 -262144 -1
-1;
#X obj 518 126 s \$0-tsize;
#X obj 514 67 bng 15 250 50 0 empty empty empty 17 7 0 10 -262144 -1
-1;
#X msg 516 96 3;
#X obj 234 108 symbol \$2;
#X obj 298 109 \$3 \$4;
#X obj 353 108 \$5 \$6;
#X connect 0 0 5 0;
#X connect 1 0 2 0;
#X connect 2 0 3 0;
#X connect 3 0 0 0;
#X connect 4 0 1 0;
#X connect 9 0 21 0;
#X connect 10 0 22 0;
#X connect 11 0 20 0;
#X connect 12 0 15 0;
#X connect 12 0 19 0;
#X connect 12 0 20 0;
#X connect 12 0 21 0;
#X connect 12 0 22 0;
#X connect 13 0 1 0;
#X connect 15 0 14 0;
#X connect 16 0 15 0;
#X connect 18 0 19 0;
#X connect 19 0 17 0;
#X connect 20 0 7 0;
#X connect 21 0 6 0;
#X connect 22 0 8 0;
#X restore 329 198 pd init;
#N canvas 1 82 641 661 display 0;
#X obj 337 58 gemhead;
#X obj 337 275 color 1 1 1 0.5;
#X obj 424 249 r \$0-tcolor;
#X obj 160 345 r \$0-name;
#X obj 337 38 r \$0-vis;
#X obj 416 464 r \$0-tsize;
#X msg 375 434 justify center base;
#X msg 160 394 text \$1;
#X obj 160 241 loadbang;
#X msg 366 401 5;
#X obj 160 370 symbol \$2;
#X obj 337 81 alpha;
#X obj 322 500 text3d 0;
#X obj 337 187 rotate;
#X msg 370 128 \$1 \$2 \$3;
#X obj 353 152 r \$0-angle;
#X obj 370 106 r \$0-rota;
#X obj 160 272 t b b b b;
#X obj 466 170 r \$0-pos;
#X msg 466 192 \$1 \$2 0.01;
#X obj 337 220 translate 1 \$2 \$3 0.01;
#X obj 323 542 outlet;
#X msg 361 359 font ./fonts/fontsnthings/lightningbolts.ttf;
#X connect 0 0 11 0;
#X connect 1 0 12 0;
#X connect 2 0 1 1;
#X connect 3 0 10 0;
#X connect 4 0 0 0;
#X connect 5 0 12 1;
#X connect 6 0 12 0;
#X connect 7 0 12 0;
#X connect 8 0 17 0;
#X connect 9 0 12 1;
#X connect 10 0 7 0;
#X connect 11 0 13 0;
#X connect 12 0 21 0;
#X connect 13 0 20 0;
#X connect 14 0 13 2;
#X connect 15 0 13 1;
#X connect 16 0 14 0;
#X connect 17 0 10 0;
#X connect 17 1 6 0;
#X connect 17 2 9 0;
#X connect 17 3 22 0;
#X connect 18 0 19 0;
#X connect 19 0 20 2;
#X connect 20 0 1 0;
#X connect 22 0 12 0;
#X restore 329 227 pd display;
#X obj -203 124 s \$0-name;
#X obj -142 144 s \$0-xy;
#X obj -121 92 r \$0-vis;
#X obj -142 122 spigot 1;
#X obj -38 10 r \$2;
#X obj -253 156 s \$0-pos;
#X obj -263 55 route pos name list;
#X obj -259 16 inlet;
#X obj 199 12 inlet;
#X obj 199 42 s \$0-name;
#X obj -241 277 tof/param /tsize 10 /g slider 0 150;
#X obj 735 427 t b f;
#X obj 732 377 tof/param /rotationZ 0 /g slider -160 160;
#X obj 730 403 / 10;
#X obj 687 475 pack f f f;
#X obj -249 328 tof/param /angle 0 /g slider -360 360;
#X obj -249 356 s \$0-angle;
#X obj 689 503 s \$0-rota;
#X obj 394 505 s \$0-pos;
#X obj 377 482 pack;
#X obj 378 455 t b f;
#X obj 330 384 tof/param /positionX 0 /g slider -160 160;
#X obj 349 409 tof/param /positionY 0 /g slider -160 160;
#X obj 373 433 / 10;
#X obj 337 435 / 10;
#N canvas 1 82 1351 661 test_position 0;
#X obj 498 402 spigot;
#X msg 498 451 pos \$1 \$2;
#X obj 498 428 spigot 0;
#X obj 555 401 r \$0-drag;
#X obj 498 320 r \$0-xy;
#X obj 591 377 tgl 15 0 empty empty empty 17 7 0 10 -262144 -1 -1 0
1;
#X obj 522 352 unpack f f f;
#X obj 498 474 s \$0-bang;
#X connect 0 0 2 0;
#X connect 1 0 7 0;
#X connect 2 0 1 0;
#X connect 3 0 2 1;
#X connect 4 0 6 0;
#X connect 4 0 0 0;
#X connect 5 0 0 1;
#X connect 6 2 5 0;
#X restore 328 173 pd test_position;
#X obj 329 254 outlet;
#X obj -205 10 r \$2-bang;
#X obj -122 11 r \$0-bang;
#X connect 0 0 8 0;
#X connect 1 0 0 0;
#X connect 1 1 0 1;
#X connect 2 0 0 0;
#X connect 2 1 0 2;
#X connect 3 0 0 0;
#X connect 3 1 0 3;
#X connect 4 0 3 0;
#X connect 5 0 2 0;
#X connect 6 0 1 0;
#X connect 7 0 0 0;
#X connect 9 0 7 0;
#X connect 10 0 6 0;
#X connect 11 0 5 0;
#X connect 12 0 4 0;
#X connect 13 0 15 0;
#X connect 15 0 14 0;
#X connect 16 0 17 0;
#X connect 18 0 19 0;
#X connect 21 0 53 0;
#X connect 21 1 53 1;
#X connect 22 0 25 0;
#X connect 23 0 24 0;
#X connect 24 0 21 0;
#X connect 25 0 53 0;
#X connect 26 0 30 0;
#X connect 27 0 26 0;
#X connect 27 1 26 1;
#X connect 28 0 27 0;
#X connect 29 0 26 0;
#X connect 31 0 29 0;
#X connect 32 0 28 0;
#X connect 33 0 34 0;
#X connect 36 0 35 0;
#X connect 38 0 65 0;
#X connect 41 0 42 1;
#X connect 42 0 40 0;
#X connect 43 0 45 0;
#X connect 45 0 44 0;
#X connect 45 1 39 0;
#X connect 45 2 42 0;
#X connect 46 0 45 0;
#X connect 47 0 48 0;
#X connect 49 0 20 0;
#X connect 50 0 53 0;
#X connect 50 1 53 2;
#X connect 51 0 52 0;
#X connect 52 0 50 0;
#X connect 53 0 56 0;
#X connect 54 0 55 0;
#X connect 58 0 57 0;
#X connect 59 0 58 0;
#X connect 59 1 58 1;
#X connect 60 0 63 0;
#X connect 61 0 62 0;
#X connect 62 0 59 0;
#X connect 63 0 58 0;
#X connect 66 0 45 0;
#X connect 67 0 45 0;
