#N canvas 1 82 1351 661 10;
#N canvas 0 82 1366 662 traitement 0;
#X text 410 -3 num X;
#X obj 49 154 separator;
#X obj 45 256 separator;
#X obj 403 664 outlet;
#X obj 406 128 f;
#X obj 403 29 inlet;
#X obj 554 127 f;
#X obj 551 16 inlet;
#X text 557 1 num Y;
#X obj 49 128 repeat 1;
#X obj 45 230 repeat 1;
#X obj 144 17 inlet;
#X obj 188 568 expr (1/$f2)*($f1*2+1)-1;
#X obj 465 484 /;
#X obj 606 472 /;
#X obj 139 517 expr (1/$f2)*($f1*2+1)-1;
#X msg 460 457 1;
#X msg 601 445 1;
#X obj 467 414 t b f;
#X obj 608 402 t b f;
#X obj 389 184 t f f f f f f;
#X obj 547 189 t f f f f f f;
#X obj 65 610 translateXYZ;
#X obj 394 627 scaleXYZ;
#X obj 146 52 t a b;
#X obj 400 159 max 1;
#X obj 549 164 max 1;
#X obj 60 384 separator;
#X obj 66 409 t a b;
#X obj 60 358 repeat 1;
#X obj 51 179 t a b b;
#X obj 47 280 t a b b;
#X obj 721 31 inlet;
#X text 722 8 num z;
#X obj 721 129 f;
#X obj 726 165 max 1;
#X obj 731 192 t f f f;
#X obj 104 470 expr (1/$f2)*($f1*2+1)-1;
#X obj 724 470 /;
#X msg 715 439 1;
#X obj 766 404 t b f;
#X obj 499 63 t b b b b;
#X obj 436 108 tof/argument 1 1;
#X obj 578 94 tof/argument 2 1;
#X obj 750 111 tof/argument 3 1;
#X obj 120 209 tof/increment;
#X obj 132 321 tof/increment;
#X obj 113 433 tof/increment;
#X obj 559 653 outlet;
#X obj 651 656 outlet;
#X obj 779 654 outlet;
#X obj 559 606 /;
#X obj 659 589 /;
#X obj 771 591 /;
#X obj 783 490 - 1;
#X obj 650 534 - 1;
#X obj 524 493 - 1;
#X obj 606 19 initbang;
#X connect 1 0 30 0;
#X connect 2 0 31 0;
#X connect 4 0 25 0;
#X connect 5 0 4 0;
#X connect 6 0 26 0;
#X connect 7 0 6 0;
#X connect 9 0 1 0;
#X connect 10 0 2 0;
#X connect 11 0 24 0;
#X connect 12 0 22 3;
#X connect 13 0 23 1;
#X connect 14 0 23 2;
#X connect 15 0 22 2;
#X connect 16 0 13 0;
#X connect 17 0 14 0;
#X connect 18 0 16 0;
#X connect 18 1 13 1;
#X connect 18 1 56 0;
#X connect 19 0 17 0;
#X connect 19 1 14 1;
#X connect 19 1 55 0;
#X connect 20 0 29 1;
#X connect 20 1 37 1;
#X connect 20 4 18 0;
#X connect 21 0 10 1;
#X connect 21 3 15 1;
#X connect 21 4 19 0;
#X connect 22 0 23 0;
#X connect 23 0 3 0;
#X connect 24 0 9 0;
#X connect 24 1 45 1;
#X connect 25 0 20 0;
#X connect 26 0 21 0;
#X connect 27 0 28 0;
#X connect 28 0 22 0;
#X connect 28 1 47 0;
#X connect 29 0 27 0;
#X connect 30 0 10 0;
#X connect 30 1 46 1;
#X connect 30 2 45 0;
#X connect 31 0 29 0;
#X connect 31 1 47 1;
#X connect 31 2 46 0;
#X connect 32 0 34 0;
#X connect 34 0 35 0;
#X connect 35 0 36 0;
#X connect 36 0 9 1;
#X connect 36 1 12 1;
#X connect 36 2 40 0;
#X connect 37 0 22 1;
#X connect 38 0 23 3;
#X connect 39 0 38 0;
#X connect 40 0 39 0;
#X connect 40 1 38 1;
#X connect 40 1 54 0;
#X connect 41 0 42 0;
#X connect 41 1 43 0;
#X connect 41 2 44 0;
#X connect 42 0 4 0;
#X connect 43 0 6 0;
#X connect 44 0 34 0;
#X connect 45 0 12 0;
#X connect 45 0 53 0;
#X connect 46 0 15 0;
#X connect 46 0 52 0;
#X connect 47 0 37 0;
#X connect 47 0 51 0;
#X connect 51 0 48 0;
#X connect 52 0 49 0;
#X connect 53 0 50 0;
#X connect 54 0 53 1;
#X connect 55 0 52 1;
#X connect 56 0 51 1;
#X connect 57 0 41 0;
#X restore 202 248 pd traitement;
#X obj 181 316 outlet;
#X obj 230 316 outlet;
#X obj 276 316 outlet;
#X obj 325 316 outlet;
#X obj 187 127 inlet;
#X obj 968 123 inlet params;
#X obj 968 169 print PARAM_NOTFOUND;
#X obj 968 145 tof/param route;
#X obj 971 194 b;
#X obj 972 223 tof/param gui;
#X obj 280 112 tof/param /nombreX 1 /g slider 0 100;
#X obj 302 139 tof/param /nombreY 1 /g slider 0 100;
#X obj 311 166 tof/param /nombreZ 1 /g slider 0 100;
#X obj 230 21 loadbang;
#X obj 239 64 \$3;
#X obj 272 64 \$4;
#X obj 301 63 \$5;
#X connect 0 0 1 0;
#X connect 0 1 2 0;
#X connect 0 2 3 0;
#X connect 0 3 4 0;
#X connect 5 0 0 0;
#X connect 6 0 8 0;
#X connect 8 0 7 0;
#X connect 9 0 10 0;
#X connect 11 0 0 1;
#X connect 12 0 0 2;
#X connect 13 0 0 3;
#X connect 14 0 15 0;
#X connect 14 0 16 0;
#X connect 14 0 17 0;
#X connect 15 0 0 1;
#X connect 16 0 0 2;
#X connect 17 0 0 3;
