#N canvas 1 82 922 661 10;
#X text 30 71 Description: A more advanced video feedback loop using
snapshots of the rendering window.;
#X obj 286 100 tgl 15 0 empty empty empty 0 -6 0 10 -262144 -1 -1 1
1;
#X text 30 100 tags: gems;
#X obj 286 130 mtl/gemsWin /dimen 320 240;
#X obj 34 20 cnv 15 400 40 empty empty empty 20 12 0 14 -254305 -66577
0;
#X obj 46 29 cnv 15 380 20 empty empty empty 20 12 0 14 -262144 -66577
0;
#X obj 381 30 tgl 15 1 empty empty empty 17 7 0 10 -262144 -1 -1 0
1;
#X obj 404 30 tgl 15 0 empty empty empty 17 7 0 10 -262144 -1 -1 0
1;
#X obj 554 107 cnv 15 200 20 empty empty /gemsMotionBlur/ 2 12 0 8
-258401 -262144 0;
#X obj 551 139 cnv 15 300 150 empty empty empty 20 12 0 14 -261234
-66577 0;
#X obj 563 165 hsl 128 15 0 1 0 0 /banane/feedback-amount /banane/feedback-amount_
feedback-amount 135 10 0 10 -262144 -1 -1 1300 1;
#X obj 560 143 tgl 15 0 /banane/feedback-onoff /banane/feedback-onoff_
feedback_on/off 17 7 0 10 -262144 -1 -1 1 1;
#X obj 77 275 pix_video;
#X obj 77 296 pix_texture;
#X obj 77 326 rectangle 5.33 4;
#X obj 77 253 gemhead 45;
#X text 49 28 [gemsMotionBlur];
#X text 242 206 Argument 2: feedback amount;
#X text 242 192 Argument 1: on/off;
#X obj 51 171 mtl/gemsMotionBlur /id banane 1 0.5;
#X connect 1 0 3 0;
#X connect 12 0 13 0;
#X connect 13 0 14 0;
#X connect 15 0 12 0;
