#N canvas 1 82 1351 661 10;
#X obj 2 382 pack f f f f;
#X obj 12 336 t b f;
#X obj 51 335 t b f;
#X obj 88 335 t b f;
#X obj 92 312 / 100;
#X obj 49 312 / 100;
#X obj 13 310 / 100;
#X obj 3 285 / 100;
#X obj 3 423 s \$0-tcolor;
#X obj 5 215 tof/param /tcolorR 100 /g slider 0 100;
#X obj 53 266 tof/param /tcolorB 100 /g slider 0 100;
#X obj 85 290 tof/param /tcolorA 100 /g slider 0 100;
#X obj 391 332 inlet params;
#X obj 391 378 print PARAM_NOTFOUND;
#X obj 391 354 tof/param route;
#X obj 394 403 b;
#X obj 394 432 tof/param gui;
#X obj -236 232 tof/param /on 0 /g tgl 0 1;
#X obj -235 254 s \$0-vis;
#X obj -237 305 s \$0-tsize;
#X obj -239 384 tof/param /drag 0 /g tgl 0 1;
#X obj -238 406 s \$0-drag;
#X obj -239 361 s \$0-reset;
#X obj -237 332 tof/param /reset /g bng;
#N canvas 1 82 1351 661 init 0;
#X obj 129 83 \$0;
#X obj 129 31 == 0;
#X obj 129 59 sel 1;
#X obj 106 -21 bng 15 250 50 0 empty empty empty 17 7 0 10 -262144
-1 -1;
#X obj 298 133 s \$0-pos;
#X obj 234 133 s \$0-name;
#X obj 353 134 s \$0-tsize;
#X obj 298 83 bng 15 250 50 0 empty empty empty 17 7 0 10 -262144 -1
-1;
#X obj 353 84 bng 15 250 50 0 empty empty empty 17 7 0 10 -262144 -1
-1;
#X obj 234 83 bng 15 250 50 0 empty empty empty 17 7 0 10 -262144 -1
-1;
#X obj 234 40 r \$0-reset;
#X obj 129 -22 initbang;
#X obj 430 129 s \$0-tcolor;
#X obj 430 73 bng 15 250 50 0 empty empty empty 17 7 0 10 -262144 -1
-1;
#X obj 234 108 symbol \$2;
#X obj 298 109 \$3 \$4;
#X obj 353 108 \$5;
#X msg 129 111 \; \$1-pos 0 0 \; \$1-tsize 100 \;;
#X obj 431 99 \$6 \$7 \$8 \$9;
#X obj 129 3 \$3;
#X connect 0 0 17 0;
#X connect 1 0 2 0;
#X connect 2 0 0 0;
#X connect 3 0 19 0;
#X connect 7 0 15 0;
#X connect 8 0 16 0;
#X connect 9 0 14 0;
#X connect 10 0 14 0;
#X connect 10 0 15 0;
#X connect 10 0 16 0;
#X connect 10 0 18 0;
#X connect 11 0 19 0;
#X connect 13 0 18 0;
#X connect 14 0 5 0;
#X connect 15 0 4 0;
#X connect 16 0 6 0;
#X connect 18 0 12 0;
#X connect 19 0 1 0;
#X restore 395 227 pd init;
#N canvas 1 82 1351 661 display 0;
#X obj 531 187 gemhead;
#X obj 534 317 color 1 1 1 0.5;
#X obj 659 224 r \$0-pos;
#X obj 621 293 r \$0-tcolor;
#X obj 415 410 r \$0-name;
#X obj 531 167 r \$0-vis;
#X obj 607 500 r \$0-tsize;
#X msg 566 470 justify center base;
#X msg 415 459 text \$1;
#X obj 285 275 loadbang;
#X msg 557 437 5;
#X obj 528 267 translate 1 \$2 \$3 0.01;
#X msg 659 246 \$1 \$2 0.01;
#X obj 415 435 symbol \$2;
#X obj 528 226 alpha;
#X obj 351 308 t b b b b b;
#X msg 599 353 alias 1;
#X obj 513 536 text2d 0;
#X obj 335 446 r \$0-nombre;
#X msg 341 470 string \$1;
#X obj 506 583 outlet;
#X msg 547 393 font ./fonts/fontsnthings/squarethings.ttf;
#X connect 0 0 14 0;
#X connect 1 0 17 0;
#X connect 2 0 12 0;
#X connect 3 0 1 1;
#X connect 4 0 13 0;
#X connect 5 0 0 0;
#X connect 6 0 17 1;
#X connect 7 0 17 0;
#X connect 8 0 17 0;
#X connect 9 0 15 0;
#X connect 10 0 17 1;
#X connect 11 0 1 0;
#X connect 12 0 11 2;
#X connect 13 0 8 0;
#X connect 14 0 11 0;
#X connect 15 0 13 0;
#X connect 15 1 7 0;
#X connect 15 2 10 0;
#X connect 15 3 21 0;
#X connect 15 4 16 0;
#X connect 16 0 17 0;
#X connect 17 0 20 0;
#X connect 18 0 19 0;
#X connect 19 0 17 0;
#X connect 21 0 17 0;
#X restore 394 270 pd display;
#X obj -183 144 s \$0-name;
#X obj -122 164 s \$0-xy;
#X obj -101 112 r \$0-vis;
#X obj -122 142 spigot 1;
#X obj 12 30 r \$2;
#X obj -194 117 s \$0-pos;
#X obj -239 36 inlet;
#X obj -52 146 s \$0-nombre;
#X obj 394 300 outlet;
#X obj 310 138 pack;
#X obj 311 111 t b f;
#X obj 263 40 tof/param /positionX 0 /g slider -160 160;
#X obj 282 65 tof/param /positionY 0 /g slider -160 160;
#X obj 306 89 / 10;
#X obj 270 91 / 10;
#X obj 328 160 s \$0-pos;
#X obj -238 280 tof/param /tsize 100 /g slider 0 150;
#X obj 22 241 tof/param /tcolorV 0 /g slider 0 100;
#X obj -185 30 r \$2-bang;
#X obj -87 29 r \$0-bang;
#X obj -243 75 route bang pos name list float;
#X obj -255 144 s \$0-input;
#N canvas 1 82 1351 661 test_position 0;
#X obj 498 402 spigot;
#X msg 498 451 pos \$1 \$2;
#X obj 498 428 spigot 0;
#X obj 555 401 r \$0-drag;
#X obj 498 320 r \$0-xy;
#X obj 591 377 tgl 15 0 empty empty empty 17 7 0 10 -262144 -1 -1 0
1;
#X obj 522 352 unpack f f f;
#X obj 498 474 s \$0-bang;
#X connect 0 0 2 0;
#X connect 1 0 7 0;
#X connect 2 0 1 0;
#X connect 3 0 2 1;
#X connect 4 0 6 0;
#X connect 4 0 0 0;
#X connect 5 0 0 1;
#X connect 6 2 5 0;
#X restore -217 448 pd test_position;
#X connect 0 0 8 0;
#X connect 1 0 0 0;
#X connect 1 1 0 1;
#X connect 2 0 0 0;
#X connect 2 1 0 2;
#X connect 3 0 0 0;
#X connect 3 1 0 3;
#X connect 4 0 3 0;
#X connect 5 0 2 0;
#X connect 6 0 1 0;
#X connect 7 0 0 0;
#X connect 9 0 7 0;
#X connect 10 0 5 0;
#X connect 11 0 4 0;
#X connect 12 0 14 0;
#X connect 14 0 13 0;
#X connect 15 0 16 0;
#X connect 17 0 18 0;
#X connect 20 0 21 0;
#X connect 23 0 22 0;
#X connect 25 0 34 0;
#X connect 28 0 29 1;
#X connect 29 0 27 0;
#X connect 30 0 46 0;
#X connect 32 0 46 0;
#X connect 35 0 41 0;
#X connect 36 0 35 0;
#X connect 36 1 35 1;
#X connect 37 0 40 0;
#X connect 38 0 39 0;
#X connect 39 0 36 0;
#X connect 40 0 35 0;
#X connect 42 0 19 0;
#X connect 43 0 6 0;
#X connect 44 0 46 0;
#X connect 45 0 46 0;
#X connect 46 0 47 0;
#X connect 46 1 31 0;
#X connect 46 2 26 0;
#X connect 46 3 29 0;
#X connect 46 4 33 0;
