#N canvas 1 82 1364 661 10;
#X obj 126 182 gemhead;
#X obj 38 362 translateXYZ 0 1 0;
#X obj 49 285 separator;
#X obj 38 392 rectangle 16 0.01;
#X obj 44 314 translateXYZ 0 -16 0;
#X obj 45 338 repeat 32;
#X obj 240 304 separator;
#X obj 234 329 rotateXYZ 0 0 90;
#X obj 225 408 translateXYZ 0 1 0;
#X obj 237 446 rectangle 16 0.01;
#X obj 178 250 t a a;
#X obj 230 354 translateXYZ 0 -16 0;
#X obj 230 378 repeat 32;
#X obj 893 40 inlet params;
#X obj 893 86 print PARAM_NOTFOUND;
#X obj 893 62 tof/param route;
#X obj 896 111 b;
#X obj 897 140 tof/param gui;
#X obj 183 224 spigot;
#X obj 242 179 tof/param /on 1 /g tgl 0 1;
#X text 771 189 author : raphael isdant http://www.raphaelisdant.fr
;
#X connect 0 0 18 0;
#X connect 1 0 3 0;
#X connect 2 0 4 0;
#X connect 4 0 5 0;
#X connect 5 0 1 0;
#X connect 6 0 7 0;
#X connect 7 0 11 0;
#X connect 8 0 9 0;
#X connect 10 0 2 0;
#X connect 10 1 6 0;
#X connect 11 0 12 0;
#X connect 12 0 8 0;
#X connect 13 0 15 0;
#X connect 15 0 14 0;
#X connect 16 0 17 0;
#X connect 18 0 10 0;
#X connect 19 0 18 1;
#X coords 0 661 1 660 60 20 0;
