#N canvas 639 82 657 661 10;
#X declare -lib Gem;
#X declare -lib Gem;
#X obj 18 -58 cnv 15 400 40 empty empty empty 20 12 0 14 -254305 -66577
0;
#X obj 28 -49 cnv 15 380 20 empty empty empty 20 12 0 14 -262144 -66577
0;
#X obj 340 -47 tgl 15 1 empty empty empty 17 7 0 10 -262144 -1 -1 0
1;
#X obj 363 -47 tgl 15 0 empty empty empty 17 7 0 10 -262144 -1 -1 0
1;
#X obj 29 401 cnv 15 400 60 empty empty empty 20 12 0 14 -254305 -66577
0;
#X text 59 400 arguments:;
#X text 59 412 nom \, posX \, posY \, tailleX \, tailleY;
#X obj 475 200 tgl 15 0 empty empty empty 17 7 0 10 -262144 -1 -1 1
1;
#X obj 439 -46 cnv 15 200 20 empty empty /banane/ 2 12 0 8 -258401
-262144 0;
#X obj 437 90 cnv 15 200 90 empty empty empty 20 12 0 14 -233017 -66577
0;
#X text 438 86 couleur du texte (RVBA);
#X obj 445 104 hsl 128 15 0 100 0 0 /banane/tcolorR /banane/tcolorR_
tcolorR 135 10 0 10 -262144 -1 -1 12700 1;
#X obj 445 123 hsl 128 15 0 100 0 0 /banane/tcolorV /banane/tcolorV_
tcolorV 135 10 0 10 -262144 -1 -1 8600 1;
#X obj 445 142 hsl 128 15 0 100 0 0 /banane/tcolorB /banane/tcolorB_
tcolorB 135 10 0 10 -262144 -1 -1 10000 1;
#X obj 445 161 hsl 128 15 0 100 0 0 /banane/tcolorA /banane/tcolorA_
tcolorA 135 10 0 10 -262144 -1 -1 9900 1;
#X obj 470 222 mtl/gemsWin /dimen 640 480;
#X obj 437 13 cnv 15 200 70 empty empty empty 20 12 0 14 -261234 -66577
0;
#X obj 444 20 hsl 128 15 -160 160 0 0 /banane/positionX /banane/positionX_
positionX 135 10 0 10 -262144 -1 -1 7250 1;
#X obj 445 41 hsl 128 15 -160 160 0 0 /banane/positionY /banane/positionY_
positionY 135 10 0 10 -262144 -1 -1 6950 1;
#X obj 438 -21 cnv 15 200 30 empty empty empty 20 12 0 14 -191407 -66577
0;
#X obj 444 -14 tgl 15 0 /banane/on /banane/on_ On 17 7 0 10 -262144
-1 -1 1 1;
#X obj 478 -14 tgl 15 0 /banane/drag /banane/drag_ Drag 17 7 0 10 -262144
-1 -1 0 1;
#X obj 582 -14 bng 15 250 50 0 /banane/reset /banane/reset_ Reset 17
7 0 10 -262144 -1 -1;
#X obj 440 -70 import Gem;
#X obj 444 61 hsl 128 15 0 800 0 0 /banane/tsize /banane/tsize_ tsize
135 10 0 10 -262144 -1 -1 3387 1;
#X text 10 9 tags: gems \, font;
#X obj 88 201 mtl/seq1x8-nbx;
#X obj 164 129 mtl/clkMaster 120;
#X obj 93 129 loadbang;
#X obj 94 151 tgl 15 0 empty empty empty 17 7 0 10 -262144 -1 -1 0
1;
#X obj 92 173 mtl/clkSlave 2 8;
#X obj 57 327 mtl/gemsMouse;
#X obj 149 327 mtl/randomLetter;
#X obj 149 304 metro 100;
#X msg 149 269 bang;
#X msg 150 354 name \$1;
#X obj 264 249 vsl 15 128 46 140 0 0 empty empty empty 0 -9 0 10 -262144
-1 -1 5400 1;
#X msg 196 269 stop;
#X obj 44 430 mtl/gemsFont-Peaxwebdesigncircles /id banane -1 1 100 1 1 0 1;
#X text 11 -6 Description: Font Peaxwebdesigncircles in the Gem window.;
#X text 31 -49 [gemsfont-Peaxwebdesigncircles] : font Peaxwebdesigncircles;
#X text 10 24 author : raphael isdant http://www.raphaelisdant.fr \,
JKP http://jkp.antisocial.be \, Peaxwebdesigncircles http://www.peax-webdesign.com/;
#X connect 7 0 15 0;
#X connect 26 0 36 0;
#X connect 28 0 29 0;
#X connect 29 0 30 0;
#X connect 30 0 26 0;
#X connect 31 0 38 0;
#X connect 32 0 35 0;
#X connect 33 0 32 0;
#X connect 34 0 33 0;
#X connect 35 0 38 0;
#X connect 36 0 38 0;
#X connect 37 0 33 0;
