#N canvas 1 82 1351 661 10;
#X declare -lib zexy;
#X obj 151 242 t a b;
#X obj 154 322 t a b;
#X obj 149 194 inlet;
#X obj 151 387 outlet;
#X obj 236 395 outlet;
#X obj 322 388 outlet;
#X obj 153 355 separator;
#X obj 738 72 inlet params;
#X obj 738 118 print PARAM_NOTFOUND;
#X obj 738 94 tof/param route;
#X obj 741 143 b;
#X obj 742 172 tof/param gui;
#X obj 290 122 tof/param /nombre 1 /g slider 0 100;
#X obj 603 275 import zexy;
#X obj 152 299 zexy/repeat \$3;
#X obj 420 399 outlet nombre;
#X connect 0 0 14 0;
#X connect 0 1 5 0;
#X connect 1 0 6 0;
#X connect 1 1 4 0;
#X connect 2 0 0 0;
#X connect 6 0 3 0;
#X connect 7 0 9 0;
#X connect 9 0 8 0;
#X connect 10 0 11 0;
#X connect 12 0 14 1;
#X connect 12 0 15 0;
#X connect 14 0 1 0;
