#N canvas 1 82 1364 661 10;
#X obj 842 290 outlet zone;
#X obj 927 290 outlet clic;
#X obj 752 290 outlet value;
#X obj 752 266 r \$0-value;
#X obj 842 267 r \$0-zone;
#X obj 927 266 r \$0-clic;
#X text -273 -52 gem_toggle \, 5 arguments: NAME Xpos Ypos Xsize Ysize
;
#X obj 68 511 pack f f f f;
#X obj 78 465 t b f;
#X obj 117 464 t b f;
#X obj 154 464 t b f;
#X obj 67 553 s \$0-bcolor;
#X obj 158 441 / 100;
#X obj 115 441 / 100;
#X obj 79 439 / 100;
#X obj 69 414 / 100;
#X obj 388 503 pack f f f f;
#X obj 398 457 t b f;
#X obj 437 456 t b f;
#X obj 474 456 t b f;
#X obj 478 433 / 100;
#X obj 435 433 / 100;
#X obj 399 431 / 100;
#X obj 389 406 / 100;
#X obj 389 544 s \$0-tcolor;
#X obj 694 491 pack f f f f;
#X obj 704 445 t b f;
#X obj 743 444 t b f;
#X obj 780 444 t b f;
#X obj 784 421 / 100;
#X obj 741 421 / 100;
#X obj 705 419 / 100;
#X obj 695 394 / 100;
#X obj 695 532 s \$0-wcolor;
#X obj 73 344 tof/param /bcolorR 50 /g slider 0 100;
#X obj 88 370 tof/param /bcolorV 50 /g slider 0 100;
#X obj 119 395 tof/param /bcolorB 50 /g slider 0 100;
#X obj 151 419 tof/param /bcolorA 50 /g slider 0 100;
#X obj 391 336 tof/param /tcolorR 100 /g slider 0 100;
#X obj 408 362 tof/param /tcolorV 100 /g slider 0 100;
#X obj 439 387 tof/param /tcolorB 100 /g slider 0 100;
#X obj 471 411 tof/param /tcolorA 100 /g slider 0 100;
#X obj 714 350 tof/param /wcolorV 100 /g slider 0 100;
#X obj 745 375 tof/param /wcolorB 100 /g slider 0 100;
#X obj 777 399 tof/param /wcolorA 100 /g slider 0 100;
#X obj 948 103 inlet params;
#X obj 948 149 print PARAM_NOTFOUND;
#X obj 948 125 tof/param route;
#X obj 951 174 b;
#X obj 952 203 tof/param gui;
#X obj -215 417 tof/param /on 0 /g tgl 0 1;
#X obj -214 439 s \$0-vis;
#X obj -215 488 / 10;
#X obj -214 511 s \$0-width;
#X obj -215 463 tof/param /width 1 /g slider 0 160;
#X obj -216 560 s \$0-tsize;
#X obj -217 535 tof/param /tsize 3 /g slider 0 150;
#X obj 599 98 s \$0-pos;
#X obj 582 75 pack;
#X obj 583 48 t b f;
#X obj 535 -23 tof/param /positionX 0 /g slider -160 160;
#X obj 554 2 tof/param /positionY 0 /g slider -160 160;
#X obj 578 26 / 10;
#X obj 542 28 / 10;
#X obj 858 77 pack;
#X obj 859 50 t b f;
#X obj 854 28 / 10;
#X obj 818 30 / 10;
#X obj 851 98 s \$0-size;
#X obj 813 -22 tof/param /sizeX 5 /g slider 0 160;
#X obj 830 4 tof/param /sizeY 5 /g slider 0 160;
#X obj 753 140 tof/param /drag 0 /g tgl 0 1;
#X obj 754 162 s \$0-drag;
#X obj 595 279 s \$0-reset;
#X obj 597 250 tof/param /reset /g bng;
#X obj 681 319 tof/param /wcolorR 100 /g slider 0 100;
#X text -277 -19 author : raphael isdant http://www.raphaelisdant.fr
;
#X obj -263 128 s \$0-input;
#X obj -263 105 limit 0 1;
#X obj -96 263 s \$0-name;
#X obj -263 31 inlet;
#X obj 42 248 s \$0-xy;
#X obj 63 196 r \$0-vis;
#X obj 42 226 spigot 1;
#X obj -51 31 r \$1;
#X obj -188 228 s \$0-pos;
#N canvas 1 82 1364 661 init 0;
#X obj 119 73 \$0;
#X obj 119 -7 \$4;
#X obj 119 21 == 0;
#X obj 119 49 sel 1;
#X obj 119 -32 loadbang;
#X obj 96 -31 bng 15 250 50 0 empty empty empty 17 7 0 10 -262144 -1
-1;
#X msg 119 101 \; \$1-pos 0 0 \; \$1-size 3 1 \;;
#X obj 291 121 s \$0-pos;
#X obj 227 121 s \$0-name;
#X obj 346 122 s \$0-size;
#X obj 291 71 bng 15 250 50 0 empty empty empty 17 7 0 10 -262144 -1
-1;
#X obj 346 72 bng 15 250 50 0 empty empty empty 17 7 0 10 -262144 -1
-1;
#X obj 227 71 bng 15 250 50 0 empty empty empty 17 7 0 10 -262144 -1
-1;
#X obj 227 28 r \$0-reset;
#X obj 440 139 s \$0-width;
#X msg 442 112 0.1;
#X obj 440 83 bng 15 250 50 0 empty empty empty 17 7 0 10 -262144 -1
-1;
#X obj 528 136 s \$0-tsize;
#X obj 524 77 bng 15 250 50 0 empty empty empty 17 7 0 10 -262144 -1
-1;
#X msg 526 106 3;
#X obj 227 97 symbol \$2;
#X obj 291 97 \$3 \$4;
#X obj 346 96 \$5 \$6;
#X connect 0 0 6 0;
#X connect 1 0 2 0;
#X connect 2 0 3 0;
#X connect 3 0 0 0;
#X connect 4 0 1 0;
#X connect 5 0 1 0;
#X connect 10 0 21 0;
#X connect 11 0 22 0;
#X connect 12 0 20 0;
#X connect 13 0 15 0;
#X connect 13 0 19 0;
#X connect 13 0 20 0;
#X connect 13 0 21 0;
#X connect 13 0 22 0;
#X connect 15 0 14 0;
#X connect 16 0 15 0;
#X connect 18 0 19 0;
#X connect 19 0 17 0;
#X connect 20 0 8 0;
#X connect 21 0 7 0;
#X connect 22 0 9 0;
#X restore 902 486 pd init;
#N canvas 496 82 859 661 display 1;
#X obj -37 250 square;
#X obj -22 200 loadbang;
#X msg -22 224 draw line;
#X obj -37 16 gemhead;
#X obj 14 404 loadbang;
#X obj -37 302 color 1 1 1 0.5;
#X msg 14 425 5;
#X obj -37 39 alpha;
#X obj 104 27 r \$0-pos;
#X obj 108 78 r \$0-size;
#X obj 308 353 r \$0-input;
#X obj 50 278 r \$0-tcolor;
#X obj 38 134 r \$0-wcolor;
#X obj 110 412 r \$0-name;
#X obj 110 389 loadbang;
#X obj 47 200 r \$0-width;
#X msg 47 224 width \$1;
#X obj -37 -4 r \$0-vis;
#X obj -37 158 color 1 1 1 1;
#X obj 23 464 r \$0-tsize;
#X msg 179 472 text \$1;
#X msg -22 445 justify center base;
#X obj -37 527 text3d \$1;
#X obj -37 497 text3d 0;
#N canvas 199 124 694 619 angle 0;
#X obj 240 338 atan;
#X obj 121 63 inlet;
#X obj 272 58 inlet;
#X text 159 65 x y;
#X obj 134 92 unpack;
#X obj 250 89 unpack;
#X obj 237 317 /;
#X obj 244 292 swap;
#X obj 320 268 < 0;
#X obj 231 247 t f f;
#X obj 383 439 *;
#X obj 436 452 +;
#X obj 376 284 pack;
#X obj 328 235 t f f;
#X obj 378 254 > 0;
#X obj 405 308 route 1;
#X obj 404 336 sel 0 1;
#X obj 383 479 *;
#X obj 194 159 pack;
#X obj 248 215 unpack;
#X obj 194 183 route 0;
#X obj 124 224 moses 0;
#X obj 304 560 outlet;
#X obj 334 520 * 57.2958;
#X obj 158 288 / 2;
#X obj 60 301 / -2;
#X obj 523 320 t b b;
#X obj 339 357 t b b;
#X msg 516 343 1;
#X msg 561 342 0;
#X msg 335 380 -1;
#X msg 482 393 1;
#X obj 472 372 t b b;
#X obj 164 134 -;
#X obj 243 133 -;
#N canvas 1 82 450 300 pi 0;
#X obj 92 83 inlet;
#X obj 92 216 outlet;
#X text 25 27 bang to get the value of pi;
#X msg 161 121 1;
#X obj 161 143 atan;
#X obj 161 162 * 4;
#X obj 92 188 f;
#X obj 161 97 loadbang;
#X connect 0 0 6 0;
#X connect 3 0 4 0;
#X connect 4 0 5 0;
#X connect 5 0 6 1;
#X connect 6 0 1 0;
#X connect 7 0 3 0;
#X restore 546 409 pd pi;
#N canvas 1 82 450 300 pi 0;
#X obj 102 93 inlet;
#X obj 102 226 outlet;
#X text 35 37 bang to get the value of pi;
#X msg 171 131 1;
#X obj 171 153 atan;
#X obj 171 172 * 4;
#X obj 102 198 f;
#X obj 171 107 loadbang;
#X connect 0 0 6 0;
#X connect 3 0 4 0;
#X connect 4 0 5 0;
#X connect 5 0 6 1;
#X connect 6 0 1 0;
#X connect 7 0 3 0;
#X restore 55 268 pd pi;
#N canvas 0 0 450 300 pi 0;
#X obj 112 103 inlet;
#X obj 112 236 outlet;
#X text 45 47 bang to get the value of pi;
#X msg 181 141 1;
#X obj 181 163 atan;
#X obj 181 182 * 4;
#X obj 112 208 f;
#X obj 181 117 loadbang;
#X connect 0 0 6 0;
#X connect 3 0 4 0;
#X connect 4 0 5 0;
#X connect 5 0 6 1;
#X connect 6 0 1 0;
#X connect 7 0 3 0;
#X restore 387 382 pd pi;
#N canvas 0 0 450 300 pi 0;
#X obj 122 113 inlet;
#X obj 122 246 outlet;
#X text 55 57 bang to get the value of pi;
#X msg 191 151 1;
#X obj 191 173 atan;
#X obj 191 192 * 4;
#X obj 122 218 f;
#X obj 191 127 loadbang;
#X connect 0 0 6 0;
#X connect 3 0 4 0;
#X connect 4 0 5 0;
#X connect 5 0 6 1;
#X connect 6 0 1 0;
#X connect 7 0 3 0;
#X restore 153 255 pd pi;
#X connect 0 0 10 0;
#X connect 1 0 4 0;
#X connect 2 0 5 0;
#X connect 4 0 33 0;
#X connect 4 1 34 0;
#X connect 5 0 33 1;
#X connect 5 1 34 1;
#X connect 6 0 0 0;
#X connect 7 0 6 0;
#X connect 7 1 6 1;
#X connect 8 0 12 0;
#X connect 9 0 7 0;
#X connect 9 1 8 0;
#X connect 10 0 11 0;
#X connect 11 0 17 0;
#X connect 12 0 15 0;
#X connect 13 0 7 1;
#X connect 13 1 14 0;
#X connect 14 0 12 1;
#X connect 15 0 16 0;
#X connect 15 1 26 0;
#X connect 16 0 27 0;
#X connect 16 1 32 0;
#X connect 17 0 23 0;
#X connect 18 0 20 0;
#X connect 19 0 9 0;
#X connect 19 1 13 0;
#X connect 20 0 21 0;
#X connect 20 1 19 0;
#X connect 21 0 36 0;
#X connect 21 1 38 0;
#X connect 23 0 22 0;
#X connect 24 0 23 0;
#X connect 25 0 23 0;
#X connect 26 0 28 0;
#X connect 26 1 29 0;
#X connect 27 0 30 0;
#X connect 27 1 37 0;
#X connect 28 0 10 1;
#X connect 28 0 17 1;
#X connect 29 0 11 1;
#X connect 30 0 10 1;
#X connect 30 0 17 1;
#X connect 31 0 10 1;
#X connect 31 0 17 1;
#X connect 32 0 31 0;
#X connect 32 1 35 0;
#X connect 33 0 18 0;
#X connect 34 0 18 1;
#X connect 35 0 11 1;
#X connect 36 0 25 0;
#X connect 37 0 11 1;
#X connect 38 0 24 0;
#X restore 556 354 pd angle;
#X obj 268 429 mod 360;
#X obj 268 405 + 90;
#X obj 268 454 / 360;
#X obj 268 523 -;
#X obj 268 478 t b f;
#X msg 268 502 1;
#X obj 335 496 - 90;
#X obj 335 466 * -360;
#X msg 556 332 \$1 \$2;
#X obj 284 550 s \$1-value;
#X obj 335 436 0;
#X obj 457 391 circle;
#X obj 458 555 curve 2;
#X msg 477 528 0 0 0;
#X obj 475 507 loadbang;
#X obj 457 480 color 1 1 1 1;
#X obj 457 421 rotateXYZ 0 0 -90;
#X obj -37 277 t a a;
#X obj 131 309 separator;
#X obj 601 303 loadbang;
#X msg 544 528 1 0 0;
#X obj 659 304 r \$0-pos;
#X obj 179 429 i;
#X obj 179 451 / 100;
#X obj 179 407 * 100;
#X msg 62 522 justify center top;
#X obj 352 403 r \$0-set;
#X obj 253 550 f;
#X obj 308 399 t b f;
#X obj 237 352 t b f;
#X msg 457 354 draw line;
#X obj 457 327 loadbang;
#X obj 382 300 r \$0-width;
#X msg 382 324 width \$1;
#X obj 532 455 r \$0-scolor;
#X obj -95 413 r \$0-name;
#X obj -92 439 symbol;
#X msg -91 487 text \$1;
#X obj 556 280 r \$0-angle;
#X obj 633 255 route pos;
#X obj 253 573 s \$0-value;
#X obj 633 230 r \$0-knob;
#X obj 179 383 r \$0-value;
#X obj -37 105 scale 1 \$4 \$5 1;
#X msg 108 100 \$1 \$2 1;
#X obj -37 61 color 0.5 0.5 0.5 0.8;
#X obj 86 0 r \$0-bcolor;
#X msg 104 49 \$1 \$2 0.01;
#X obj -37 129 square;
#X obj -37 83 translate 1 \$2 \$3 0.01;
#X obj -37 359 translate 1 0 -0.5 0.01;
#X obj 438 249 translate 1 0 0 0.01;
#X obj 110 438 symbol \$2;
#X obj 601 333 l \$3 \$4;
#X connect 0 0 42 0;
#X connect 1 0 2 0;
#X connect 2 0 0 0;
#X connect 3 0 7 0;
#X connect 4 0 6 0;
#X connect 4 0 21 0;
#X connect 4 0 50 0;
#X connect 5 0 75 0;
#X connect 6 0 22 1;
#X connect 6 0 23 1;
#X connect 7 0 70 0;
#X connect 8 0 72 0;
#X connect 9 0 69 0;
#X connect 10 0 53 0;
#X connect 11 0 5 1;
#X connect 12 0 18 1;
#X connect 14 0 77 0;
#X connect 15 0 16 0;
#X connect 16 0 0 0;
#X connect 17 0 3 0;
#X connect 18 0 0 0;
#X connect 19 0 23 1;
#X connect 19 0 22 1;
#X connect 20 0 23 0;
#X connect 21 0 23 0;
#X connect 23 0 22 0;
#X connect 24 0 41 3;
#X connect 24 0 54 0;
#X connect 25 0 27 0;
#X connect 26 0 25 0;
#X connect 27 0 29 0;
#X connect 28 0 34 0;
#X connect 28 0 52 1;
#X connect 29 0 30 0;
#X connect 29 1 28 1;
#X connect 30 0 28 0;
#X connect 31 0 26 0;
#X connect 31 0 41 3;
#X connect 32 0 31 0;
#X connect 33 0 24 0;
#X connect 35 0 32 0;
#X connect 36 0 41 0;
#X connect 38 0 37 1;
#X connect 39 0 45 0;
#X connect 39 0 38 0;
#X connect 40 0 37 0;
#X connect 41 0 40 0;
#X connect 42 0 5 0;
#X connect 42 1 43 0;
#X connect 43 0 76 0;
#X connect 44 0 78 0;
#X connect 45 0 37 2;
#X connect 46 0 78 0;
#X connect 47 0 48 0;
#X connect 48 0 20 0;
#X connect 49 0 47 0;
#X connect 50 0 22 0;
#X connect 51 0 35 0;
#X connect 52 0 65 0;
#X connect 53 0 52 0;
#X connect 53 1 35 0;
#X connect 54 0 52 0;
#X connect 54 1 26 0;
#X connect 55 0 36 0;
#X connect 56 0 55 0;
#X connect 57 0 58 0;
#X connect 58 0 36 0;
#X connect 58 0 37 0;
#X connect 59 0 40 1;
#X connect 60 0 61 0;
#X connect 61 0 62 0;
#X connect 62 0 22 0;
#X connect 63 0 33 0;
#X connect 64 0 78 0;
#X connect 66 0 64 0;
#X connect 67 0 49 0;
#X connect 68 0 73 0;
#X connect 69 0 68 2;
#X connect 70 0 74 0;
#X connect 71 0 70 1;
#X connect 72 0 74 2;
#X connect 73 0 18 0;
#X connect 74 0 68 0;
#X connect 75 0 23 0;
#X connect 76 0 36 0;
#X connect 77 0 22 0;
#X connect 78 0 24 1;
#X restore 894 544 pd display;
#N canvas 101 258 631 485 test_position 0;
#X obj 9 182 spigot;
#X obj 9 115 t a a a;
#X msg 42 207 \$3;
#X msg 63 122 \$1 \$2;
#X obj 9 233 spigot;
#X obj 63 143 expr if ($f1 > $f3-$f5 && $f1 < $f3+$f5 && $f2 > $f4-$f6
&& $f2 < $f4+$f6 \, 1 \, 0) \;;
#X msg 214 87 \$1;
#X msg 273 87 \$2;
#X msg 341 88 \$1;
#X msg 407 89 \$2;
#X obj 478 96 loadbang;
#X msg 9 283 pos \$1 \$2;
#X obj 9 260 spigot 0;
#X obj 214 41 r \$0-pos;
#X obj 340 44 r \$0-size;
#X obj 54 236 r \$0-drag;
#X obj 340 63 t b a a;
#X obj 108 182 s \$1-zone;
#X obj 137 259 s \$1-clic;
#X obj 214 64 t a a;
#X obj 63 180 change;
#X obj -63 259 s \$0-angle;
#X obj 76 204 s \$0-zone;
#X obj 136 237 s \$0-clic;
#X obj 9 90 r \$0-xy;
#X text -26 50 $f3 X \, $f4 Y \, $f5 scale_X \, $f6 scale_y;
#X text -24 30 \$2 X \, \$3 Y \, \$4 scale_X \, \$5 scale_y;
#X obj 9 311 s \$0-knob;
#X obj 214 112 \$3;
#X obj 273 118 \$4;
#X obj 341 121 \$5;
#X obj 407 123 \$6;
#X connect 0 0 2 0;
#X connect 0 0 4 0;
#X connect 1 0 0 0;
#X connect 1 2 3 0;
#X connect 2 0 4 1;
#X connect 2 0 18 0;
#X connect 2 0 23 0;
#X connect 3 0 5 0;
#X connect 4 0 12 0;
#X connect 4 0 21 0;
#X connect 5 0 20 0;
#X connect 6 0 28 0;
#X connect 7 0 29 0;
#X connect 8 0 30 0;
#X connect 9 0 31 0;
#X connect 10 0 28 0;
#X connect 10 0 29 0;
#X connect 10 0 30 0;
#X connect 10 0 31 0;
#X connect 11 0 27 0;
#X connect 12 0 11 0;
#X connect 13 0 19 0;
#X connect 14 0 16 0;
#X connect 15 0 12 1;
#X connect 16 0 28 0;
#X connect 16 1 8 0;
#X connect 16 2 9 0;
#X connect 19 0 6 0;
#X connect 19 1 7 0;
#X connect 20 0 17 0;
#X connect 20 0 0 1;
#X connect 20 0 22 0;
#X connect 24 0 1 0;
#X connect 28 0 5 2;
#X connect 29 0 5 3;
#X connect 30 0 5 4;
#X connect 31 0 5 5;
#X restore 894 521 pd test_position;
#X obj -218 31 r \$1-knob;
#X obj -135 32 r \$0-knob;
#X obj -191 72 route float pos name list;
#X text -275 -36 comment;
#X text -276 -2 comment;
#X connect 3 0 2 0;
#X connect 4 0 0 0;
#X connect 5 0 1 0;
#X connect 7 0 11 0;
#X connect 8 0 7 0;
#X connect 8 1 7 1;
#X connect 9 0 7 0;
#X connect 9 1 7 2;
#X connect 10 0 7 0;
#X connect 10 1 7 3;
#X connect 12 0 10 0;
#X connect 13 0 9 0;
#X connect 14 0 8 0;
#X connect 15 0 7 0;
#X connect 16 0 24 0;
#X connect 17 0 16 0;
#X connect 17 1 16 1;
#X connect 18 0 16 0;
#X connect 18 1 16 2;
#X connect 19 0 16 0;
#X connect 19 1 16 3;
#X connect 20 0 19 0;
#X connect 21 0 18 0;
#X connect 22 0 17 0;
#X connect 23 0 16 0;
#X connect 25 0 33 0;
#X connect 26 0 25 0;
#X connect 26 1 25 1;
#X connect 27 0 25 0;
#X connect 27 1 25 2;
#X connect 28 0 25 0;
#X connect 28 1 25 3;
#X connect 29 0 28 0;
#X connect 30 0 27 0;
#X connect 31 0 26 0;
#X connect 32 0 25 0;
#X connect 34 0 15 0;
#X connect 35 0 14 0;
#X connect 36 0 13 0;
#X connect 37 0 12 0;
#X connect 38 0 23 0;
#X connect 39 0 22 0;
#X connect 40 0 21 0;
#X connect 41 0 20 0;
#X connect 42 0 31 0;
#X connect 43 0 30 0;
#X connect 44 0 29 0;
#X connect 45 0 47 0;
#X connect 47 0 46 0;
#X connect 48 0 49 0;
#X connect 50 0 51 0;
#X connect 52 0 53 0;
#X connect 54 0 52 0;
#X connect 56 0 55 0;
#X connect 58 0 57 0;
#X connect 59 0 58 0;
#X connect 59 1 58 1;
#X connect 60 0 63 0;
#X connect 61 0 62 0;
#X connect 62 0 59 0;
#X connect 63 0 58 0;
#X connect 64 0 68 0;
#X connect 65 0 64 0;
#X connect 65 1 64 1;
#X connect 66 0 65 0;
#X connect 67 0 64 0;
#X connect 69 0 67 0;
#X connect 70 0 66 0;
#X connect 71 0 72 0;
#X connect 74 0 73 0;
#X connect 75 0 32 0;
#X connect 78 0 77 0;
#X connect 80 0 91 0;
#X connect 82 0 83 1;
#X connect 83 0 81 0;
#X connect 84 0 91 0;
#X connect 89 0 91 0;
#X connect 90 0 91 0;
#X connect 91 0 78 0;
#X connect 91 1 85 0;
#X connect 91 2 79 0;
#X connect 91 3 83 0;
