#N canvas 0 82 1366 662 10;
#X obj 25 78 bng 15 250 50 0 empty empty empty 0 -6 0 8 -262144 -1
-1;
#X text 20 29 Comment: Taken from Andy Farnell's work.;
#X text 21 14 Description: Generates part of a gun sound.;
#X obj 25 175 mtl/out~;
#X text 21 44 tags: synthesize~;
#X obj 463 152 cnv 15 200 20 empty empty /bounce/ 2 12 0 8 -258401
-262144 0;
#X obj 463 194 hsl 100 15 10 2000 0 0 /gunGas/reverb /gunGas/reverb_
reverb 105 7 0 8 -262144 -1 -1 4925 1;
#X obj 463 177 hsl 100 15 1 100 0 0 /gunGas/trigger /gunGas/trigger_
trigger 105 7 0 8 -262144 -1 -1 4900 1;
#X obj 24 139 mtl/gunGas~ /id gunGas 50 1000;
#X connect 0 0 8 0;
#X connect 8 0 3 0;
#X connect 8 0 3 1;
