#N canvas 0 25 1272 692 10;
#X obj 18 136 inlet~;
#X obj 84 129 inlet~;
#X obj 477 83 inlet params;
#X obj 477 129 print PARAM_NOTFOUND;
#X obj 477 105 tof/param route;
#X obj 473 228 b;
#X obj 474 257 tof/param gui;
#X obj 38 367 outlet~;
#X obj 139 366 outlet~;
#X obj 159 90 tof/param /freq 0 /g slider 0 1;
#N canvas 0 25 1272 692 hacheur 0;
#X obj 90 46 inlet~ signal;
#X obj 135 457 *~;
#N canvas 0 22 462 312 rh_scalelog 0;
#X obj 20 155 exp;
#X obj 20 107 *;
#X obj 20 130 +;
#X obj 98 87 log;
#X obj 194 84 log;
#X obj 123 123 t b f;
#X obj 123 145 -;
#X obj 20 183 outlet;
#X obj 20 19 inlet;
#X obj 98 23 inlet;
#X obj 194 24 inlet;
#X connect 0 0 7 0;
#X connect 1 0 2 0;
#X connect 2 0 0 0;
#X connect 3 0 2 1;
#X connect 3 0 5 0;
#X connect 4 0 6 0;
#X connect 5 0 6 0;
#X connect 5 1 6 1;
#X connect 6 0 1 1;
#X connect 8 0 1 0;
#X connect 9 0 3 0;
#X connect 10 0 4 0;
#X restore 193 207 pd rh_scalelog;
#X msg 240 183 0.1;
#X obj 145 538 outlet~;
#X obj 240 155 loadbang;
#X obj 201 52 inlet freq;
#X obj 201 275 phasor~ 0;
#X obj 253 328 -~ 0.5;
#X obj 253 350 clip~ 0 1e-06;
#X obj 259 384 *~ 1e+06;
#X obj 285 268 * -1;
#X obj 284 292 + 1;
#X obj 199 243 sig~;
#X obj 338 202 clip 0 1;
#X obj 338 161 / 100;
#X obj 352 74 inlet duty;
#X obj 148 496 hip~ 5;
#X msg 286 183 70;
#X connect 0 0 1 0;
#X connect 1 0 17 0;
#X connect 2 0 13 0;
#X connect 3 0 2 1;
#X connect 5 0 3 0;
#X connect 5 0 18 0;
#X connect 6 0 2 0;
#X connect 7 0 8 0;
#X connect 8 0 9 0;
#X connect 9 0 10 0;
#X connect 10 0 1 1;
#X connect 11 0 12 0;
#X connect 12 0 8 1;
#X connect 13 0 7 0;
#X connect 14 0 11 0;
#X connect 15 0 14 0;
#X connect 16 0 15 0;
#X connect 17 0 4 0;
#X connect 18 0 2 2;
#X restore 63 225 pd hacheur;
#X obj 187 116 tof/param /duty 0 /g slider 0 100;
#N canvas 0 25 1272 692 hacheur 0;
#X obj 90 46 inlet~ signal;
#X obj 135 457 *~;
#N canvas 0 22 462 312 rh_scalelog 0;
#X obj 20 155 exp;
#X obj 20 107 *;
#X obj 20 130 +;
#X obj 98 87 log;
#X obj 194 84 log;
#X obj 123 123 t b f;
#X obj 123 145 -;
#X obj 20 183 outlet;
#X obj 20 19 inlet;
#X obj 98 23 inlet;
#X obj 194 24 inlet;
#X connect 0 0 7 0;
#X connect 1 0 2 0;
#X connect 2 0 0 0;
#X connect 3 0 2 1;
#X connect 3 0 5 0;
#X connect 4 0 6 0;
#X connect 5 0 6 0;
#X connect 5 1 6 1;
#X connect 6 0 1 1;
#X connect 8 0 1 0;
#X connect 9 0 3 0;
#X connect 10 0 4 0;
#X restore 193 207 pd rh_scalelog;
#X msg 240 183 0.1;
#X obj 130 557 outlet~;
#X obj 240 155 loadbang;
#X obj 201 52 inlet freq;
#X obj 201 275 phasor~ 0;
#X obj 253 328 -~ 0.5;
#X obj 253 350 clip~ 0 1e-06;
#X obj 259 384 *~ 1e+06;
#X obj 285 268 * -1;
#X obj 285 289 + 1;
#X obj 199 243 sig~;
#X obj 338 202 clip 0 1;
#X obj 338 161 / 100;
#X obj 352 74 inlet duty;
#X obj 148 502 hip~ 5;
#X msg 286 183 70;
#X connect 0 0 1 0;
#X connect 1 0 17 0;
#X connect 2 0 13 0;
#X connect 3 0 2 1;
#X connect 5 0 3 0;
#X connect 5 0 18 0;
#X connect 6 0 2 0;
#X connect 7 0 8 0;
#X connect 8 0 9 0;
#X connect 9 0 10 0;
#X connect 10 0 1 1;
#X connect 11 0 12 0;
#X connect 12 0 8 1;
#X connect 13 0 7 0;
#X connect 14 0 11 0;
#X connect 15 0 14 0;
#X connect 16 0 15 0;
#X connect 17 0 4 0;
#X connect 18 0 2 2;
#X restore 167 220 pd hacheur;
#X connect 0 0 10 0;
#X connect 1 0 12 0;
#X connect 2 0 4 0;
#X connect 4 0 3 0;
#X connect 5 0 6 0;
#X connect 9 0 10 1;
#X connect 9 0 12 1;
#X connect 10 0 7 0;
#X connect 11 0 10 2;
#X connect 11 0 12 2;
#X connect 12 0 8 0;
