#N canvas 0 25 1016 659 10;
#X obj 200 214 tof/param /porte1 0 /g tgl;
#X obj 315 241 tof/param /porte2 0 /g tgl;
#X obj 118 167 inlet porte1;
#X obj 228 156 inlet porte2;
#X obj 159 46 cnv 15 156 25 empty empty HALF_ADDER___ 4 12 0 14 -1
-262144 0;
#X obj 248 415 outlet sum_out;
#X obj 94 417 outlet carry_out;
#X obj 662 226 inlet params;
#X obj 662 272 print PARAM_NOTFOUND;
#X obj 662 248 tof/param route;
#X obj 655 303 b;
#X obj 656 332 tof/param gui;
#X obj 97 337 mtl/and /id \$0-and;
#X obj 245 337 mtl/xor /id \$0-xor;
#X connect 0 0 12 0;
#X connect 0 0 13 0;
#X connect 1 0 12 1;
#X connect 1 0 13 1;
#X connect 2 0 12 0;
#X connect 2 0 13 0;
#X connect 3 0 12 1;
#X connect 3 0 13 1;
#X connect 7 0 9 0;
#X connect 9 0 8 0;
#X connect 10 0 11 0;
#X connect 12 0 6 0;
#X connect 13 0 5 0;
