#N canvas 1 82 1272 661 10;
#X obj 66 478 outlet~;
#X obj 208 478 outlet~;
#X obj 27 225 inlet~;
#X obj 996 215 inlet params;
#X obj 996 261 print PARAM_NOTFOUND;
#X obj 996 237 tof/param route;
#X obj 974 361 b;
#X obj 975 390 tof/param gui;
#X obj 128 222 inlet~;
#X obj 211 213 tof/param /limit 0 /g slider -50 0;
#X obj 277 243 tof/param /wet_mix 0 /g slider 0 1;
#X obj 339 278 tof/param /residue_mix 0 /g slider 0 1;
#X obj 53 355 sigpack/hardlimit~;
#X obj 193 379 sigpack/hardlimit~;
#X obj 271 179 tof/argument 5;
#X obj 240 158 tof/argument 4;
#X obj 198 132 tof/argument 3;
#X obj 198 109 loadbang;
#X connect 2 0 12 0;
#X connect 3 0 5 0;
#X connect 5 0 4 0;
#X connect 6 0 7 0;
#X connect 8 0 13 0;
#X connect 9 0 12 1;
#X connect 9 0 13 1;
#X connect 10 0 12 2;
#X connect 10 0 13 2;
#X connect 11 0 12 3;
#X connect 11 0 13 3;
#X connect 12 0 0 0;
#X connect 13 0 1 0;
#X connect 14 0 11 0;
#X connect 15 0 10 0;
#X connect 16 0 9 0;
#X connect 17 0 14 0;
#X connect 17 0 15 0;
#X connect 17 0 16 0;
