#N canvas 0 25 1272 692 10;
#X obj 197 464 outlet~;
#X obj 401 465 outlet~;
#X obj 27 47 inlet~;
#X obj 996 37 inlet params;
#X obj 996 83 print PARAM_NOTFOUND;
#X obj 996 59 tof/param route;
#X obj 974 183 b;
#X obj 975 212 tof/param gui;
#X obj 128 44 inlet~;
#X obj 211 35 tof/param /mag1 0 /g slider -1 1;
#X obj 241 58 tof/param /mag2 0 /g slider -1 1;
#X obj 291 78 tof/param /mag3 0 /g slider -1 1;
#X obj 324 99 tof/param /mag4 0 /g slider -1 1;
#X obj 360 120 tof/param /mag5 0 /g slider -1 1;
#X obj 389 142 tof/param /mag6 0 /g slider -1 1;
#X obj 413 162 tof/param /mag7 0 /g slider -1 1;
#X obj 454 184 tof/param /mag8 0 /g slider -1 1;
#X obj 494 206 tof/param /mag9 0 /g slider -1 1;
#X obj 529 229 tof/param /mag10 0 /g slider -1 1;
#X obj 202 410 sigpack/harmgen~ _ _ _ _ _ _ _;
#X obj 401 409 sigpack/harmgen~ _ _ _ _ _ _ _ _ _ _;
#X connect 2 0 19 0;
#X connect 3 0 5 0;
#X connect 5 0 4 0;
#X connect 6 0 7 0;
#X connect 8 0 20 0;
#X connect 9 0 19 1;
#X connect 9 0 20 1;
#X connect 10 0 19 2;
#X connect 10 0 20 2;
#X connect 11 0 19 3;
#X connect 11 0 20 3;
#X connect 12 0 19 4;
#X connect 12 0 20 4;
#X connect 13 0 19 5;
#X connect 13 0 20 5;
#X connect 14 0 19 6;
#X connect 14 0 20 6;
#X connect 15 0 19 7;
#X connect 15 0 20 7;
#X connect 16 0 19 8;
#X connect 16 0 20 8;
#X connect 17 0 19 9;
#X connect 17 0 20 9;
#X connect 18 0 19 9;
#X connect 18 0 20 10;
#X connect 19 0 0 0;
#X connect 20 0 1 0;
