#N canvas 1 82 1351 661 10;
#X obj 1169 106 inlet params;
#X obj 1169 152 print PARAM_NOTFOUND;
#X obj 1169 128 tof/param route;
#X obj 1169 173 b;
#X obj 1169 196 tof/param gui;
#X obj 1170 241 s \$0-loadbang;
#X obj 162 267 vline~;
#X obj 162 288 *~;
#X obj 98 329 +~ 140;
#X obj 141 329 +~ 275;
#X obj 183 329 +~ 455;
#X obj 474 351 *~;
#X obj 502 151 t b b;
#X obj 539 242 vline~;
#X obj 538 271 *~;
#X obj 537 300 *~;
#X msg 538 220 1 0 0 \, 0 50 1;
#X obj 434 305 lop~ 1200;
#X obj 225 329 +~ 645;
#X obj 267 329 +~ 1155;
#X msg 293 207 6 1 0 \, 0 100 1;
#X obj 193 555 *~ 0.7;
#X obj 206 629 outlet~;
#X obj 557 79 inlet bang;
#X obj 696 354 switch~;
#X msg 691 289 1;
#X msg 722 289 0;
#X obj 781 285 sel 0;
#X obj 557 108 t b b b;
#N canvas 0 50 729 537 noise 0;
#X obj 260 259 +~;
#X obj 261 281 wrap~;
#X obj 260 342 -~ 0.5;
#X obj 260 322 wrap~;
#X msg 327 146 0;
#X obj 258 166 phasor~ 0.01;
#X obj 259 187 *~ 10000;
#X obj 292 217 *~ 6789;
#X obj 261 302 *~ 98765;
#X obj 260 399 outlet~;
#X obj 329 122 inlet;
#X obj 261 364 *~ 2;
#X connect 0 0 1 0;
#X connect 1 0 8 0;
#X connect 2 0 11 0;
#X connect 3 0 2 0;
#X connect 4 0 5 1;
#X connect 5 0 6 0;
#X connect 6 0 0 0;
#X connect 6 0 7 0;
#X connect 7 0 0 1;
#X connect 8 0 3 0;
#X connect 10 0 4 0;
#X connect 11 0 9 0;
#X restore 391 238 pd noise;
#X obj 394 260 *~ 9.99999e+06;
#X obj 388 283 clip~ -0.5 0.5;
#X obj 209 583 *~;
#X msg 292 544 1 5;
#X obj 292 567 vline~;
#X msg 781 228 1 0 \, 0 150;
#X obj 780 250 line 1 150;
#X obj 782 308 del 5;
#X msg 751 397 0 4;
#X obj 115 103 + 0.5;
#X obj 55 183 * 190;
#X obj 96 189 * 360;
#X obj 134 199 * 590;
#X obj 176 212 * 825;
#X obj 225 218 * 1470;
#X obj 99 417 vcf~ 90;
#X obj 166 418 vcf~ 55;
#X obj 228 418 vcf~ 40;
#X obj 276 418 vcf~ 35;
#X obj 324 418 vcf~ 30;
#X obj 113 499 *~ 200;
#X obj 158 499 *~ 30;
#X obj 197 499 *~ 20;
#X obj 249 501 *~ 8;
#X obj 295 498 *~ 3;
#X obj 115 80 tof/param /pitch 0 /g slider 0 1;
#X obj 1170 217 initbang;
#X obj 115 60 tof/argument 3;
#X obj 115 35 loadbang;
#X connect 0 0 2 0;
#X connect 2 0 1 0;
#X connect 3 0 4 0;
#X connect 6 0 7 0;
#X connect 6 0 7 1;
#X connect 7 0 8 0;
#X connect 7 0 9 0;
#X connect 7 0 10 0;
#X connect 7 0 18 0;
#X connect 7 0 19 0;
#X connect 8 0 45 1;
#X connect 9 0 46 1;
#X connect 10 0 47 1;
#X connect 11 0 45 0;
#X connect 11 0 46 0;
#X connect 11 0 47 0;
#X connect 11 0 48 0;
#X connect 11 0 49 0;
#X connect 12 0 16 0;
#X connect 12 1 20 0;
#X connect 13 0 14 0;
#X connect 13 0 14 1;
#X connect 14 0 15 0;
#X connect 14 0 15 1;
#X connect 15 0 11 0;
#X connect 16 0 13 0;
#X connect 17 0 11 1;
#X connect 18 0 48 1;
#X connect 19 0 49 1;
#X connect 20 0 6 0;
#X connect 21 0 32 0;
#X connect 23 0 28 0;
#X connect 25 0 24 0;
#X connect 26 0 24 0;
#X connect 27 0 37 0;
#X connect 27 0 38 0;
#X connect 28 0 35 0;
#X connect 28 0 29 0;
#X connect 28 0 33 0;
#X connect 28 1 12 0;
#X connect 28 2 25 0;
#X connect 29 0 30 0;
#X connect 30 0 31 0;
#X connect 31 0 17 0;
#X connect 32 0 22 0;
#X connect 33 0 34 0;
#X connect 34 0 32 1;
#X connect 35 0 36 0;
#X connect 36 0 27 0;
#X connect 37 0 26 0;
#X connect 38 0 34 0;
#X connect 39 0 40 0;
#X connect 39 0 41 0;
#X connect 39 0 42 0;
#X connect 39 0 43 0;
#X connect 39 0 44 0;
#X connect 40 0 8 1;
#X connect 41 0 9 1;
#X connect 42 0 10 1;
#X connect 43 0 18 1;
#X connect 44 0 19 1;
#X connect 45 0 50 0;
#X connect 46 0 51 0;
#X connect 47 0 52 0;
#X connect 48 0 53 0;
#X connect 49 0 54 0;
#X connect 50 0 21 0;
#X connect 51 0 21 0;
#X connect 52 0 21 0;
#X connect 53 0 21 0;
#X connect 54 0 21 0;
#X connect 55 0 39 0;
#X connect 56 0 5 0;
#X connect 57 0 55 0;
#X connect 58 0 57 0;
