#N canvas 1 82 1364 661 10;
#X obj 942 44 inlet params;
#X obj 942 90 print PARAM_NOTFOUND;
#X obj 942 66 tof/param route;
#X obj 951 113 b;
#X obj 952 142 tof/param gui;
#X obj 953 197 s \$0-loadbang;
#X obj 953 173 loadbang;
#N canvas 0 22 414 354 makenoise 0;
#X obj 183 77 until;
#X msg 185 55 8195;
#X obj 182 105 f;
#X obj 211 104 + 1;
#X obj 182 129 t f b;
#X obj 208 153 random 20000;
#X obj 208 178 / 10000;
#X obj 209 204 - 1;
#X obj 175 237 pack 0 0;
#X obj 175 262 s \$0-hatnoise;
#X obj 72 314 table \$0-hatnoise 8195;
#X msg 223 75 0;
#X obj 183 28 r \$0-loadbang;
#X connect 0 0 2 0;
#X connect 1 0 0 0;
#X connect 2 0 3 0;
#X connect 2 0 4 0;
#X connect 3 0 2 1;
#X connect 4 0 8 0;
#X connect 4 1 5 0;
#X connect 5 0 6 0;
#X connect 6 0 7 0;
#X connect 7 0 8 1;
#X connect 8 0 9 0;
#X connect 11 0 2 1;
#X connect 12 0 1 0;
#X restore 942 12 pd makenoise;
#X obj 93 603 outlet~;
#X obj 48 454 hip~ 3700;
#X obj 99 529 *~;
#X obj 104 501 hip~;
#N canvas 0 22 832 517 3-detuned-squares 0;
#X obj 34 86 *~ 10000;
#X obj 34 64 osc~ 1047;
#X obj 193 87 *~ 10000;
#X obj 193 65 osc~ 1109;
#X obj 349 77 *~ 10000;
#X obj 350 56 osc~ 1397;
#X obj 187 268 outlet~;
#X obj 441 17 inlet;
#X obj 41 125 clip~ -1 1;
#X obj 196 121 clip~ -1 1;
#X obj 348 115 clip~ -1 1;
#X obj 41 25 inlet~;
#X obj 199 25 inlet~;
#X obj 357 15 inlet~;
#X connect 0 0 8 0;
#X connect 1 0 0 0;
#X connect 2 0 9 0;
#X connect 3 0 2 0;
#X connect 4 0 10 0;
#X connect 5 0 4 0;
#X connect 7 0 1 1;
#X connect 7 0 3 1;
#X connect 7 0 5 1;
#X connect 8 0 6 0;
#X connect 9 0 6 0;
#X connect 10 0 6 0;
#X connect 11 0 1 0;
#X connect 12 0 3 0;
#X connect 13 0 5 0;
#X restore 51 158 pd 3-detuned-squares;
#X obj 320 212 line;
#X msg 372 187 0 370;
#X msg 307 189 0 \, 1 21;
#X obj 440 327 vline~;
#X obj 435 187 f;
#X obj 406 383 *~;
#X msg 428 221 0 \, 1 \$1;
#X obj 508 205 pack 0 0 0;
#X msg 486 243 1 \, 0 \$3 \$2;
#X obj 342 162 delay 10;
#X obj 322 236 * 5650;
#X obj 515 547 switch~;
#X obj 480 492 delay;
#X msg 481 516 0;
#X obj 482 469 f;
#X msg 445 518 1;
#X obj 425 433 t b;
#X obj 546 331 f;
#X obj 582 302 t b f;
#X obj 546 367 +;
#X obj 423 412 r \$0-hit-hat;
#X msg 651 56 1;
#X obj 621 100 s \$0-hit-hat;
#X obj 622 17 t b b;
#X obj 95 551 lop~ 3000;
#X obj 289 375 f 4000;
#X msg 270 395 \$1 \, 44000 100;
#X obj 140 480 line;
#X obj 53 336 *~;
#X msg 287 120 0;
#X obj 649 79 s \$0-hat-switch-on;
#X obj 516 523 r \$0-hat-switch-on;
#X obj 344 112 r \$0-hit-hat;
#N canvas 0 22 462 312 rh_scalelog 0;
#X obj 20 155 exp;
#X obj 20 107 *;
#X obj 20 130 +;
#X obj 98 87 log;
#X obj 194 84 log;
#X obj 123 123 t b f;
#X obj 123 145 -;
#X obj 20 183 outlet;
#X obj 20 19 inlet;
#X obj 98 23 inlet;
#X obj 194 24 inlet;
#X connect 0 0 7 0;
#X connect 1 0 2 0;
#X connect 2 0 0 0;
#X connect 3 0 2 1;
#X connect 3 0 5 0;
#X connect 4 0 6 0;
#X connect 5 0 6 0;
#X connect 5 1 6 1;
#X connect 6 0 1 1;
#X connect 8 0 1 0;
#X connect 9 0 3 0;
#X connect 10 0 4 0;
#X restore 615 220 pd rh_scalelog;
#X msg 662 196 1;
#X msg 708 195 10000;
#N canvas 0 22 462 312 rh_scalelog 0;
#X obj 20 155 exp;
#X obj 20 107 *;
#X obj 20 130 +;
#X obj 98 87 log;
#X obj 194 84 log;
#X obj 123 123 t b f;
#X obj 123 145 -;
#X obj 20 183 outlet;
#X obj 20 19 inlet;
#X obj 98 23 inlet;
#X obj 194 24 inlet;
#X connect 0 0 7 0;
#X connect 1 0 2 0;
#X connect 2 0 0 0;
#X connect 3 0 2 1;
#X connect 3 0 5 0;
#X connect 4 0 6 0;
#X connect 5 0 6 0;
#X connect 5 1 6 1;
#X connect 6 0 1 1;
#X connect 8 0 1 0;
#X connect 9 0 3 0;
#X connect 10 0 4 0;
#X restore 476 97 pd rh_scalelog;
#X msg 523 73 1;
#N canvas 0 22 462 312 rh_scalelog 0;
#X obj 20 155 exp;
#X obj 20 107 *;
#X obj 20 130 +;
#X obj 98 87 log;
#X obj 194 84 log;
#X obj 123 123 t b f;
#X obj 123 145 -;
#X obj 20 183 outlet;
#X obj 20 19 inlet;
#X obj 98 23 inlet;
#X obj 194 24 inlet;
#X connect 0 0 7 0;
#X connect 1 0 2 0;
#X connect 2 0 0 0;
#X connect 3 0 2 1;
#X connect 3 0 5 0;
#X connect 4 0 6 0;
#X connect 5 0 6 0;
#X connect 5 1 6 1;
#X connect 6 0 1 1;
#X connect 8 0 1 0;
#X connect 9 0 3 0;
#X connect 10 0 4 0;
#X restore 224 552 pd rh_scalelog;
#X obj 480 124 + 1;
#N canvas 0 22 462 312 rh_scalelog 0;
#X obj 20 155 exp;
#X obj 20 107 *;
#X obj 20 130 +;
#X obj 98 87 log;
#X obj 194 84 log;
#X obj 123 123 t b f;
#X obj 123 145 -;
#X obj 20 183 outlet;
#X obj 20 19 inlet;
#X obj 98 23 inlet;
#X obj 194 24 inlet;
#X connect 0 0 7 0;
#X connect 1 0 2 0;
#X connect 2 0 0 0;
#X connect 3 0 2 1;
#X connect 3 0 5 0;
#X connect 4 0 6 0;
#X connect 5 0 6 0;
#X connect 5 1 6 1;
#X connect 6 0 1 1;
#X connect 8 0 1 0;
#X connect 9 0 3 0;
#X connect 10 0 4 0;
#X restore 80 334 pd rh_scalelog;
#X msg 175 309 20000;
#X obj 34 398 bp~ 10000 1;
#X obj 32 422 bp~ 10000 0.5;
#X msg 269 536 100;
#X msg 316 534 20000;
#X obj 341 134 t b b;
#N canvas 0 22 462 312 rh_scalelog 0;
#X obj 20 155 exp;
#X obj 20 107 *;
#X obj 20 130 +;
#X obj 98 87 log;
#X obj 194 84 log;
#X obj 123 123 t b f;
#X obj 123 145 -;
#X obj 20 183 outlet;
#X obj 20 19 inlet;
#X obj 98 23 inlet;
#X obj 194 24 inlet;
#X connect 0 0 7 0;
#X connect 1 0 2 0;
#X connect 2 0 0 0;
#X connect 3 0 2 1;
#X connect 3 0 5 0;
#X connect 4 0 6 0;
#X connect 5 0 6 0;
#X connect 5 1 6 1;
#X connect 6 0 1 1;
#X connect 8 0 1 0;
#X connect 9 0 3 0;
#X connect 10 0 4 0;
#X restore 123 422 pd rh_scalelog;
#X msg 218 397 10;
#N canvas 0 22 462 312 rh_scalelog 0;
#X obj 20 155 exp;
#X obj 20 107 *;
#X obj 20 130 +;
#X obj 98 87 log;
#X obj 194 84 log;
#X obj 123 123 t b f;
#X obj 123 145 -;
#X obj 20 183 outlet;
#X obj 20 19 inlet;
#X obj 98 23 inlet;
#X obj 194 24 inlet;
#X connect 0 0 7 0;
#X connect 1 0 2 0;
#X connect 2 0 0 0;
#X connect 3 0 2 1;
#X connect 3 0 5 0;
#X connect 4 0 6 0;
#X connect 5 0 6 0;
#X connect 5 1 6 1;
#X connect 6 0 1 1;
#X connect 8 0 1 0;
#X connect 9 0 3 0;
#X connect 10 0 4 0;
#X restore 321 347 pd rh_scalelog;
#X msg 423 321 20000;
#X msg 570 72 1000;
#X msg 376 322 1000;
#N canvas 0 22 466 316 rh_scalelog 0;
#X obj 20 155 exp;
#X obj 20 107 *;
#X obj 20 130 +;
#X obj 98 87 log;
#X obj 194 84 log;
#X obj 123 123 t b f;
#X obj 123 145 -;
#X obj 20 183 outlet;
#X obj 20 19 inlet;
#X obj 98 23 inlet;
#X obj 194 24 inlet;
#X connect 0 0 7 0;
#X connect 1 0 2 0;
#X connect 2 0 0 0;
#X connect 3 0 2 1;
#X connect 3 0 5 0;
#X connect 4 0 6 0;
#X connect 5 0 6 0;
#X connect 5 1 6 1;
#X connect 6 0 1 1;
#X connect 8 0 1 0;
#X connect 9 0 3 0;
#X connect 10 0 4 0;
#X restore 119 33 pd rh_scalelog;
#X msg 165 7 50;
#X msg 213 8 5000;
#X msg 171 396 3;
#X msg 127 309 1000;
#N canvas 0 22 466 316 rh_scalelog 0;
#X obj 20 155 exp;
#X obj 20 107 *;
#X obj 20 130 +;
#X obj 98 87 log;
#X obj 194 84 log;
#X obj 123 123 t b f;
#X obj 123 145 -;
#X obj 20 183 outlet;
#X obj 20 19 inlet;
#X obj 98 23 inlet;
#X obj 194 24 inlet;
#X connect 0 0 7 0;
#X connect 1 0 2 0;
#X connect 2 0 0 0;
#X connect 3 0 2 1;
#X connect 3 0 5 0;
#X connect 4 0 6 0;
#X connect 5 0 6 0;
#X connect 5 1 6 1;
#X connect 6 0 1 1;
#X connect 8 0 1 0;
#X connect 9 0 3 0;
#X connect 10 0 4 0;
#X restore 95 203 pd rh_scalelog;
#X msg 204 199 100;
#X msg 206 179 0.1;
#X obj 76 224 tabosc4~ \$0-hatnoise;
#X obj 623 -4 inlet;
#X obj 94 582 tanh~;
#X obj 130 96 *~;
#X obj 118 63 sig~;
#X obj 160 104 *~;
#X obj 50 178 *~ 0.5;
#X obj 158 77 + 1;
#X obj 194 105 + 1;
#X obj 663 168 r \$0-loadbang;
#X obj 375 294 r \$0-loadbang;
#X obj 179 377 r \$0-loadbang;
#X obj 146 284 r \$0-loadbang;
#X obj 197 156 r \$0-loadbang;
#X obj 179 -17 r \$0-loadbang;
#X obj 285 510 r \$0-loadbang;
#X obj 528 45 r \$0-loadbang;
#N canvas 0 22 414 354 makenoise 0;
#X obj 183 77 until;
#X msg 185 55 8195;
#X obj 182 105 f;
#X obj 211 104 + 1;
#X obj 182 129 t f b;
#X obj 208 153 random 20000;
#X obj 208 178 / 10000;
#X obj 209 204 - 1;
#X obj 175 237 pack 0 0;
#X obj 175 262 s \$0-hatnoise;
#X obj 72 314 table \$0-hatnoise 8195;
#X msg 223 75 0;
#X obj 183 28 r \$0-loadbang;
#X connect 0 0 2 0;
#X connect 1 0 0 0;
#X connect 2 0 3 0;
#X connect 2 0 4 0;
#X connect 3 0 2 1;
#X connect 4 0 8 0;
#X connect 4 1 5 0;
#X connect 5 0 6 0;
#X connect 6 0 7 0;
#X connect 7 0 8 1;
#X connect 8 0 9 0;
#X connect 11 0 2 1;
#X connect 12 0 1 0;
#X restore 936 314 pd makenoise;
#X obj -49 -13 tof/param /pitch 0.5 /g slider 0 1;
#X obj 157 57 tof/param /ratioA 0.5 /g slider 0 1;
#X obj 188 81 tof/param /ratioB 0.5 /g slider 0 1;
#X obj 405 14 tof/param /attack 0.5 /g slider 0 1;
#X obj 612 145 tof/param /release 0.5 /g slider 0 1;
#X obj 242 488 tof/param /lowpass 0.5 /g slider 0 1;
#X obj -110 110 tof/param /noisepitch 0.5 /g slider 0 1;
#X obj 109 245 tof/param /noise 0.5 /g slider 0 1;
#X obj 133 264 tof/param /filter 0.5 /g slider 0 1;
#X obj 341 263 tof/param /snap 0.5 /g slider 0 1;
#X obj 83 353 tof/param /filterQ 0.5 /g slider 0 1;
#X connect 0 0 2 0;
#X connect 2 0 1 0;
#X connect 3 0 4 0;
#X connect 6 0 5 0;
#X connect 9 0 11 0;
#X connect 10 0 37 0;
#X connect 11 0 10 0;
#X connect 12 0 80 0;
#X connect 13 0 23 0;
#X connect 14 0 13 0;
#X connect 15 0 13 0;
#X connect 16 0 18 0;
#X connect 16 0 18 1;
#X connect 17 0 19 0;
#X connect 18 0 10 1;
#X connect 19 0 16 0;
#X connect 20 0 21 0;
#X connect 21 0 16 0;
#X connect 22 0 14 0;
#X connect 23 0 9 1;
#X connect 25 0 26 0;
#X connect 26 0 24 0;
#X connect 27 0 25 0;
#X connect 28 0 24 0;
#X connect 29 0 27 0;
#X connect 29 0 28 0;
#X connect 30 0 32 0;
#X connect 31 0 30 0;
#X connect 31 1 32 1;
#X connect 32 0 27 1;
#X connect 33 0 29 0;
#X connect 34 0 43 0;
#X connect 36 0 35 0;
#X connect 36 1 34 0;
#X connect 37 0 76 0;
#X connect 38 0 39 0;
#X connect 39 0 40 0;
#X connect 40 0 11 1;
#X connect 41 0 55 0;
#X connect 42 0 12 3;
#X connect 44 0 24 0;
#X connect 45 0 59 0;
#X connect 46 0 20 2;
#X connect 46 0 30 0;
#X connect 47 0 46 1;
#X connect 48 0 46 2;
#X connect 49 0 52 0;
#X connect 50 0 49 1;
#X connect 51 0 37 1;
#X connect 52 0 17 1;
#X connect 52 0 20 1;
#X connect 52 0 31 0;
#X connect 53 0 55 1;
#X connect 53 0 56 1;
#X connect 54 0 53 2;
#X connect 55 0 56 0;
#X connect 56 0 9 0;
#X connect 57 0 51 1;
#X connect 58 0 51 2;
#X connect 59 0 15 0;
#X connect 59 0 20 0;
#X connect 59 0 22 0;
#X connect 59 0 38 0;
#X connect 59 0 42 0;
#X connect 59 1 17 0;
#X connect 60 0 55 2;
#X connect 61 0 60 2;
#X connect 62 0 38 1;
#X connect 63 0 62 2;
#X connect 64 0 49 2;
#X connect 65 0 62 1;
#X connect 66 0 78 0;
#X connect 67 0 66 1;
#X connect 68 0 66 2;
#X connect 69 0 60 1;
#X connect 70 0 53 1;
#X connect 71 0 74 0;
#X connect 72 0 71 2;
#X connect 73 0 71 1;
#X connect 74 0 41 0;
#X connect 75 0 36 0;
#X connect 76 0 8 0;
#X connect 77 0 12 1;
#X connect 78 0 77 0;
#X connect 78 0 12 0;
#X connect 78 0 79 0;
#X connect 79 0 12 2;
#X connect 80 0 55 0;
#X connect 81 0 77 1;
#X connect 82 0 79 1;
#X connect 83 0 47 0;
#X connect 83 0 48 0;
#X connect 84 0 65 0;
#X connect 84 0 63 0;
#X connect 85 0 69 0;
#X connect 85 0 61 0;
#X connect 86 0 70 0;
#X connect 86 0 54 0;
#X connect 87 0 73 0;
#X connect 87 0 72 0;
#X connect 88 0 67 0;
#X connect 88 0 68 0;
#X connect 89 0 57 0;
#X connect 89 0 58 0;
#X connect 90 0 50 0;
#X connect 90 0 64 0;
#X connect 92 0 66 0;
#X connect 93 0 81 0;
#X connect 94 0 82 0;
#X connect 95 0 49 0;
#X connect 96 0 46 0;
#X connect 97 0 51 0;
#X connect 98 0 71 0;
#X connect 99 0 41 1;
#X connect 100 0 53 0;
#X connect 101 0 62 0;
#X connect 102 0 60 0;
