#N canvas 1 82 1351 661 10;
#N canvas 1 82 1351 661 hold~ 0;
#X obj 98 267 inlet~;
#X obj 151 567 outlet~;
#X obj 328 249 inlet;
#X obj 259 366 sig~ 0;
#X obj 308 321 sel 0 1;
#X obj 332 434 snapshot~;
#X obj 262 294 t f f;
#X obj 142 394 multiplex~ 0 1;
#X connect 0 0 7 0;
#X connect 2 0 6 0;
#X connect 3 0 7 1;
#X connect 4 1 5 0;
#X connect 5 0 3 0;
#X connect 6 0 7 0;
#X connect 6 1 4 0;
#X connect 7 0 1 0;
#X connect 7 0 5 0;
#X restore 155 341 pd hold~;
#X obj 156 268 inlet~;
#X obj 154 378 outlet~;
#X obj 208 290 != 0;
#X obj 208 313 change 0;
#X obj 494 29 inlet params;
#X obj 494 75 print PARAM_NOTFOUND;
#X obj 494 51 tof/param route;
#X obj 494 96 b;
#X obj 494 119 tof/param gui;
#X obj 495 164 s \$0-loadbang;
#X obj 495 140 initbang;
#X obj 208 259 tof/param /hold 0 /g tgl;
#X obj 208 239 tof/argument 3;
#X obj 208 214 loadbang;
#X connect 0 0 2 0;
#X connect 1 0 0 0;
#X connect 3 0 4 0;
#X connect 4 0 0 1;
#X connect 5 0 7 0;
#X connect 7 0 6 0;
#X connect 8 0 9 0;
#X connect 11 0 10 0;
#X connect 12 0 3 0;
#X connect 13 0 12 0;
#X connect 14 0 13 0;
