#N canvas 1 98 1351 659 10;
#N canvas 1 87 495 243 tables 0;
#X obj 65 43 table \$0-sine 1026;
#X obj 65 64 table \$0-tri 1026;
#X msg 269 58 sinesum 1024 1;
#X obj 269 33 loadbang;
#X obj 269 81 s \$0-sine;
#N canvas 359 217 654 452 mktri 0;
#N canvas 480 359 450 300 count1026 0;
#X obj 121 199 f 0;
#X obj 152 199 + 1;
#X msg 171 142 0;
#X obj 121 143 until;
#X obj 121 116 max;
#X msg 121 89 1024;
#X obj 121 63 t b b;
#X obj 121 40 inlet;
#X obj 121 235 outlet;
#X connect 0 0 1 0;
#X connect 0 0 8 0;
#X connect 1 0 0 1;
#X connect 2 0 0 1;
#X connect 3 0 0 0;
#X connect 4 0 3 0;
#X connect 5 0 4 0;
#X connect 6 0 5 0;
#X connect 6 1 2 0;
#X connect 7 0 6 0;
#X restore 131 158 pd count1026;
#X obj 131 82 loadbang;
#X msg 151 118 bang;
#X obj 131 188 t a a;
#X obj 131 327 tabwrite \$0-tri;
#X obj 131 237 / 513;
#X obj 131 216 moses 513;
#X obj 192 259 / 513;
#X msg 192 281 1 \$1;
#X obj 192 307 -;
#X obj 193 236 - 513;
#X connect 0 0 3 0;
#X connect 1 0 0 0;
#X connect 2 0 0 0;
#X connect 3 0 6 0;
#X connect 3 1 4 1;
#X connect 5 0 4 0;
#X connect 6 0 5 0;
#X connect 6 1 10 0;
#X connect 7 0 8 0;
#X connect 8 0 9 0;
#X connect 9 0 4 0;
#X connect 10 0 7 0;
#X restore 267 125 pd mktri;
#X connect 2 0 4 0;
#X connect 3 0 2 0;
#X restore 856 123 pd tables;
#N canvas 1 82 1351 661 select-wave 0;
#X obj 88 152 inlet;
#X obj 193 546 outlet;
#X obj 88 346 spigot 1;
#X obj 186 345 spigot 0;
#X obj 186 367 * 1024;
#X obj 186 390 + 1;
#X obj 262 345 spigot 0;
#X obj 262 367 * 1024;
#X obj 262 390 + 1;
#X obj 267 425 tabread4 \$0-tri;
#X obj 191 463 tabread4 \$0-sine;
#X obj 191 489 * 0.5;
#X obj 191 512 + 0.5;
#X obj 363 399 <= 0.5;
#X msg 286 198 1 0 0 0;
#X msg 329 225 0 1 0 0;
#X msg 372 248 0 0 1 0;
#X msg 432 249 0 0 0 1;
#X obj 316 281 unpack 0 0 0 0;
#X obj 359 346 spigot 0;
#X obj 339 129 tof/param /waveform 0 /nbx slider 0 3;
#X obj 344 158 select 0 1 2 3;
#X obj 339 56 initbang;
#X obj 339 102 tof/argument 7;
#X obj 339 79 loadbang;
#X connect 0 0 2 0;
#X connect 0 0 3 0;
#X connect 0 0 6 0;
#X connect 0 0 19 0;
#X connect 2 0 1 0;
#X connect 3 0 4 0;
#X connect 4 0 5 0;
#X connect 5 0 10 0;
#X connect 6 0 7 0;
#X connect 7 0 8 0;
#X connect 8 0 9 0;
#X connect 9 0 1 0;
#X connect 10 0 11 0;
#X connect 11 0 12 0;
#X connect 12 0 1 0;
#X connect 13 0 1 0;
#X connect 14 0 18 0;
#X connect 15 0 18 0;
#X connect 16 0 18 0;
#X connect 17 0 18 0;
#X connect 18 0 2 1;
#X connect 18 1 3 1;
#X connect 18 2 6 1;
#X connect 18 3 19 1;
#X connect 19 0 13 0;
#X connect 20 0 21 0;
#X connect 21 0 14 0;
#X connect 21 1 15 0;
#X connect 21 2 16 0;
#X connect 21 3 17 0;
#X connect 23 0 20 0;
#X connect 24 0 23 0;
#X restore 50 483 pd select-wave;
#X obj 50 512 outlet;
#N canvas 172 83 586 377 LICENSE-GPL 0;
#X text 57 88 This program is free software: you can redistribute it
and/or modify it under the terms of the GNU General Public License
as published by the Free Software Foundation \, either version 3 of
the License \, or (at your option) any later version.;
#X text 58 168 This program is distributed in the hope that it will
be useful \, but WITHOUT ANY WARRANTY \; without even the implied warranty
of MERCHANTABILITY or FITNESS FOR A PARTICULAR PURPOSE. See the GNU
General Public License for more details.;
#X text 57 261 You should have received a copy of the GNU General Public
License along with this program. If not \, see <http://www.gnu.org/licenses/>.
;
#X text 61 54 Copyright (C) 2009 \, Reality Jockey Ltd.;
#X text 60 325 See the file LICENSE.txt for the full license text.
;
#X restore 856 146 pd LICENSE-GPL;
#X obj 856 169 inlet params;
#X obj 856 215 print PARAM_NOTFOUND;
#X obj 856 191 tof/param route;
#X obj 852 314 b;
#X obj 853 343 tof/param gui;
#X obj 50 453 mtl/mphasor /id \$0-mphasor;
#X obj 167 200 tof/param /on 0 /g tgl 0 1;
#X obj 197 251 tof/param /updates 0 /g slider 1 1000;
#X obj 225 302 tof/param /phase 0 /g slider 0 1;
#X obj 236 354 tof/param /frequency 10 /g slider 1 1000;
#X msg 167 221 /on \$1;
#X msg 197 273 /updates \$1;
#X msg 225 326 /phase \$1;
#X msg 236 376 /frequency \$1;
#X obj 514 171 tof/argument 6;
#X obj 480 149 tof/argument 5;
#X obj 450 122 tof/argument 4;
#X obj 424 99 tof/argument 3;
#X obj 456 76 loadbang;
#X obj 50 99 inlet;
#X connect 1 0 2 0;
#X connect 4 0 6 0;
#X connect 6 0 5 0;
#X connect 7 0 8 0;
#X connect 9 0 1 0;
#X connect 10 0 14 0;
#X connect 11 0 15 0;
#X connect 12 0 16 0;
#X connect 13 0 17 0;
#X connect 14 0 9 1;
#X connect 15 0 9 1;
#X connect 16 0 9 1;
#X connect 17 0 9 1;
#X connect 18 0 13 0;
#X connect 19 0 12 0;
#X connect 20 0 11 0;
#X connect 21 0 10 0;
#X connect 22 0 18 0;
#X connect 22 0 19 0;
#X connect 22 0 20 0;
#X connect 22 0 21 0;
#X connect 23 0 9 0;
