#N canvas 1199 229 657 483 10;
#X obj 78 59 inlet~ left;
#X obj 179 63 inlet~ right;
#X obj 79 122 outlet~ left;
#X obj 182 122 outlet~ right;
#N canvas 784 223 454 439 limiter~ 0;
#X obj 78 168 *~;
#X obj 109 168 *~;
#X obj 79 63 inlet~ left;
#X obj 179 63 inlet~ right;
#X obj 77 195 outlet~ left;
#X obj 180 195 outlet~ right;
#X obj 95 117 zexy/limiter~ 50 1;
#X obj 78 148 zexy/z~ 64;
#X obj 148 147 zexy/z~ 64;
#X connect 0 0 4 0;
#X connect 1 0 5 0;
#X connect 2 0 6 0;
#X connect 2 0 7 0;
#X connect 3 0 6 1;
#X connect 3 0 8 0;
#X connect 6 0 1 0;
#X connect 6 0 0 1;
#X connect 7 0 0 0;
#X connect 8 0 1 1;
#X restore 79 85 pd limiter~;
#X text 76 13 very nice limiter from zexy with a 50ms buffer / 64 samples
delayed;
#X connect 0 0 4 0;
#X connect 1 0 4 1;
#X connect 4 0 2 0;
#X connect 4 1 3 0;
