#N canvas 207 199 657 483 10;
#X obj 78 59 inlet~ left;
#X obj 179 63 inlet~ right;
#X obj 79 122 outlet~ left;
#X obj 182 122 outlet~ right;
#X text 27 25 very nice limiter from zexy with 10 ms buffer;
#N canvas 786 226 454 439 limiter~ 1;
#X obj 69 224 *~;
#X obj 100 224 *~;
#X obj 79 63 inlet~ left;
#X obj 179 63 inlet~ right;
#X obj 68 251 outlet~ left;
#X obj 171 251 outlet~ right;
#X obj 81 103 limiter~ 10 1;
#X obj 57 154 z~ 90;
#X obj 147 149 z~ 90, f 11;
#X connect 0 0 4 0;
#X connect 1 0 5 0;
#X connect 2 0 6 0;
#X connect 2 0 7 0;
#X connect 3 0 6 1;
#X connect 3 0 8 0;
#X connect 6 0 1 0;
#X connect 6 0 0 1;
#X connect 7 0 0 0;
#X connect 8 0 1 1;
#X restore 79 85 pd limiter~;
#X connect 0 0 5 0;
#X connect 1 0 5 1;
#X connect 5 0 2 0;
#X connect 5 1 3 0;
