#N canvas 0 25 1280 695 10;
#X obj 418 179 inlet~;
#X obj 419 538 /~;
#X obj 419 567 outlet~;
#X obj 469 316 dbtorms;
#X obj 469 295 + 3;
#X obj 469 340 + 0.1;
#X obj 469 387 moses 1;
#X obj 469 457 f;
#X obj 469 433 + 0.5;
#X obj 469 410 * 0.5;
#X obj 469 223 env~ 128 64;
#X obj 470 362 env+ 11;
#X obj 418 505 z~ 128;
#X obj 469 504 line~;
#X obj 570 224 env~ 1024 128;
#X obj 469 267 max;
#X msg 469 481 \$1 4;
#X connect 0 0 10 0;
#X connect 0 0 12 0;
#X connect 0 0 14 0;
#X connect 1 0 2 0;
#X connect 3 0 5 0;
#X connect 4 0 3 0;
#X connect 5 0 11 0;
#X connect 6 0 9 0;
#X connect 6 1 7 0;
#X connect 7 0 16 0;
#X connect 8 0 7 0;
#X connect 9 0 8 0;
#X connect 10 0 15 0;
#X connect 11 0 6 0;
#X connect 12 0 1 0;
#X connect 13 0 1 1;
#X connect 14 0 15 1;
#X connect 15 0 4 0;
#X connect 16 0 13 0;
