#N canvas 1 82 1351 661 10;
#X obj 958 297 inlet params;
#X obj 958 339 print PARAM_NOTFOUND;
#X obj 958 318 tof/param route;
#X obj 958 360 b;
#X obj 957 382 tof/param gui;
#X obj 956 428 s \$0-loadbang;
#X obj 267 284 vline~;
#X obj 267 305 *~;
#X obj 164 360 +~ 140;
#X obj 218 359 +~ 275;
#X obj 271 358 +~ 455;
#X obj 472 415 *~;
#X obj 435 165 t b b;
#X obj 215 537 *~ 30;
#X obj 176 537 *~ 40;
#X obj 265 537 *~ 10;
#X obj 185 454 vcf~ 75;
#X obj 252 454 vcf~ 64;
#X obj 303 454 vcf~ 55;
#X obj 117 454 vcf~ 150;
#X obj 132 537 *~ 300;
#X obj 508 276 vline~;
#X obj 508 306 *~;
#X obj 520 377 *~;
#X msg 508 249 1 0 0 \, 0 50 1;
#X obj 432 359 lop~ 1200;
#X obj 327 358 +~ 645;
#X obj 324 309 +~ 1155;
#X obj 313 537 *~ 7;
#X obj 364 452 vcf~ 45;
#X msg 267 263 6 1 0 \, 0 100 1;
#X obj 230 651 outlet~;
#X obj 388 82 inlet bang;
#X obj 582 418 switch~;
#X msg 577 359 1;
#X msg 608 359 0;
#X obj 681 379 sel 0;
#X obj 414 110 t b b b;
#N canvas 0 50 741 549 noise 0;
#X obj 260 259 +~;
#X obj 261 281 wrap~;
#X obj 260 342 -~ 0.5;
#X obj 260 322 wrap~;
#X msg 327 146 0;
#X obj 258 166 phasor~ 0.01;
#X obj 292 217 *~ 6789;
#X obj 261 302 *~ 98765;
#X obj 260 399 outlet~;
#X obj 329 122 inlet;
#X obj 261 364 *~ 2;
#X obj 258 186 *~ 10000;
#X connect 0 0 1 0;
#X connect 1 0 7 0;
#X connect 2 0 10 0;
#X connect 3 0 2 0;
#X connect 4 0 5 1;
#X connect 5 0 11 0;
#X connect 6 0 0 1;
#X connect 7 0 3 0;
#X connect 9 0 4 0;
#X connect 10 0 8 0;
#X connect 11 0 0 0;
#X connect 11 0 6 0;
#X restore 405 233 pd noise;
#X obj 389 264 *~ 9.99999e+06;
#X obj 389 318 clip~ -0.5 0.5;
#X obj 211 614 *~;
#X msg 310 593 1 5;
#X obj 310 614 vline~;
#X msg 678 326 1 0 \, 0 150;
#X obj 678 352 line 1 150;
#X obj 681 402 del 5;
#X msg 655 452 0 4;
#X obj 53 234 * 140;
#X obj 94 234 * 275;
#X obj 139 234 * 455;
#X obj 183 234 * 645;
#X obj 227 234 * 1155;
#X obj 113 152 + 0.4;
#X obj 113 173 * 0.6;
#X obj 211 593 *~ 1;
#X obj 113 131 tof/param /pitch 0 /g slider 0 1;
#X obj 956 404 initbang;
#X obj 116 97 tof/argument 3;
#X obj 116 75 loadbang;
#X connect 0 0 2 0;
#X connect 2 0 1 0;
#X connect 3 0 4 0;
#X connect 6 0 7 0;
#X connect 6 0 7 1;
#X connect 7 0 8 0;
#X connect 7 0 9 0;
#X connect 7 0 10 0;
#X connect 7 0 26 0;
#X connect 7 0 27 0;
#X connect 8 0 19 1;
#X connect 9 0 16 1;
#X connect 10 0 17 1;
#X connect 11 0 16 0;
#X connect 11 0 17 0;
#X connect 11 0 18 0;
#X connect 11 0 19 0;
#X connect 11 0 29 0;
#X connect 12 0 24 0;
#X connect 12 1 30 0;
#X connect 13 0 55 0;
#X connect 14 0 55 0;
#X connect 15 0 55 0;
#X connect 16 0 14 0;
#X connect 17 0 13 0;
#X connect 18 0 15 0;
#X connect 19 0 20 0;
#X connect 20 0 55 0;
#X connect 21 0 22 0;
#X connect 21 0 22 1;
#X connect 22 0 23 0;
#X connect 22 0 23 1;
#X connect 23 0 11 0;
#X connect 24 0 21 0;
#X connect 25 0 11 1;
#X connect 26 0 18 1;
#X connect 27 0 29 1;
#X connect 28 0 55 0;
#X connect 29 0 28 0;
#X connect 30 0 6 0;
#X connect 32 0 37 0;
#X connect 34 0 33 0;
#X connect 35 0 33 0;
#X connect 36 0 46 0;
#X connect 36 0 47 0;
#X connect 37 0 44 0;
#X connect 37 0 38 0;
#X connect 37 0 42 0;
#X connect 37 1 12 0;
#X connect 37 2 34 0;
#X connect 38 0 39 0;
#X connect 39 0 40 0;
#X connect 40 0 25 0;
#X connect 41 0 31 0;
#X connect 42 0 43 0;
#X connect 43 0 41 1;
#X connect 44 0 45 0;
#X connect 45 0 36 0;
#X connect 46 0 35 0;
#X connect 47 0 43 0;
#X connect 48 0 8 1;
#X connect 49 0 9 1;
#X connect 50 0 10 1;
#X connect 51 0 26 1;
#X connect 52 0 27 1;
#X connect 53 0 48 0;
#X connect 53 0 49 0;
#X connect 53 0 50 0;
#X connect 53 0 51 0;
#X connect 53 0 52 0;
#X connect 54 0 53 0;
#X connect 55 0 41 0;
#X connect 56 0 54 0;
#X connect 57 0 5 0;
#X connect 58 0 56 0;
#X connect 59 0 58 0;
