#N canvas 1 82 1364 661 10;
#X obj 26 143 mtl/out~;
#X obj 23 75 bng 15 250 50 0 empty empty empty 17 7 0 10 -262144 -1
-1;
#X text 19 27 tags: synthesize~;
#X obj 249 141 hsl 100 15 0 1 0 0 /lowtom/pitch /lowtom/pitch_ pitch
105 7 0 8 -262144 -1 -1 0 1;
#X obj 246 112 cnv 15 200 20 empty empty /lowtom/ 2 12 0 8 -258401
-262144 0;
#X obj 25 110 mtl/lowtom~ /id lowtom;
#X text 16 10 Description : lowtom by stefan "ichabod" ichabod@gmail.com
;
#X connect 1 0 5 0;
#X connect 5 0 0 0;
#X connect 5 0 0 1;
