#N canvas 1 82 1364 661 10;
#X obj 101 369 hsl 128 15 0 1 0 0 empty empty 0-1 -2 -8 0 10 -262144
-1 -1 0 1;
#X obj 101 517 hsl 128 15 0 1 0 0 empty empty 0-1 -2 -8 0 10 -262144
-1 -1 0 1;
#X text 752 248 mapcurve \; -------- \; This object allow to make a
interpretation of data between 0-1 \, and use logarytmic multiplier
or other. You can also draw in the graph.;
#X obj 94 256 mtl/seq1x8-nbx;
#X floatatom 98 161 5 0 0 0 - - -;
#X obj 99 91 loadbang;
#X obj 100 113 tgl 15 0 empty empty empty 17 7 0 10 -262144 -1 -1 1
1;
#X obj 98 135 mtl/clkSlave 2 8;
#X obj 132 56 mtl/clkMaster 40;
#X obj 649 87 cnv 15 200 20 empty empty /mapcurve/ 2 12 0 8 -258401
-262144 0;
#X obj 654 137 hsl 128 15 0 1 0 0 /mapcurve/x /mapcurve/x_ x 135 10
0 10 -262144 -1 -1 9000 1;
#X obj 98 390 mtl/mapcurve /id mapcurve;
#X obj 651 117 hradio 15 1 0 5 /mapcurve/type /mapcurve/type_ type
135 10 0 10 -262144 -1 -1 0;
#X obj 655 157 hsl 128 15 0 1 0 0 /mapcurve/x2 /mapcurve/x2_ x2 135
10 0 10 -262144 -1 -1 0 1;
#X obj 655 178 hsl 128 15 0 1 0 0 /mapcurve/y /mapcurve/y_ y 135 10
0 10 -262144 -1 -1 0 1;
#X text 753 333 tags: control;
#X text 752 233 Description: Mapcurve;
#X text 752 318 Comment: Based on Jerome Abel's work.;
#X obj 392 132 loadbang;
#X text 406 166 Right inlet sets pattern;
#X msg 391 188 1 -1 -1 -1 0 0 0 0;
#X connect 0 0 11 0;
#X connect 3 0 0 0;
#X connect 4 0 3 0;
#X connect 5 0 6 0;
#X connect 6 0 7 0;
#X connect 7 0 4 0;
#X connect 11 0 1 0;
#X connect 18 0 20 0;
#X connect 20 0 3 1;
