#N canvas 432 25 801 650 10;
#X obj 16 474 bp~ 440 80;
#X obj 94 474 bp~ 440 80;
#X obj 171 474 bp~ 440 80;
#X obj 249 474 bp~ 440 80;
#X obj 83 236 unpack 1 2 3 4 5;
#X msg 83 46 3454 5645 6433 6999 600;
#X text 11 46 metal;
#X text 9 73 glass 2;
#X text 11 179 wood;
#X msg 83 208 109 230 352 413 10;
#X msg 83 127 1245 1503 2131 2575 100;
#X text 11 151 plastic;
#X text 10 125 china;
#X text 10 99 glass 1;
#X text 7 207 cardboard;
#X msg 83 154 627 781 972 1184 70;
#X text 65 12 Simple material formants;
#X msg 83 71 2312 2466 3200 5314 380;
#X msg 82 98 1679 1233 4251 4640 340;
#X msg 83 181 221 333 426 527 40;
#X obj 140 567 clip~ -1 1;
#X obj 10 262 inlet~;
#X obj 141 594 outlet~;
#X obj 141 540 *~ 1;
#X obj 333 472 / 10;
#X obj 311 185 route 0 1 2 3 4 5 6;
#X obj 358 111 loadbang;
#X obj 358 139 f 0;
#X obj 614 374 t f f;
#X obj 417 73 relay float list;
#X obj 336 18 inlet;
#X obj 614 299 line 20;
#X obj 336 74 s \$0-slope;
#X obj 463 104 s \$0-setting;
#X obj 222 215 r \$0-setting;
#X obj 635 228 r \$0-slope;
#X obj 540 274 r \$0-slope;
#X obj 404 283 r \$0-slope;
#X obj 239 286 r \$0-slope;
#X obj 115 293 r \$0-slope;
#X obj 106 318 pack;
#X obj 218 308 pack;
#X obj 336 42 route slope;
#X obj 106 338 line 1;
#X obj 218 334 line 1;
#X obj 351 331 line 1;
#X obj 487 322 line 1;
#X obj 351 296 pack;
#X obj 488 276 pack;
#X obj 614 253 pack;
#X connect 0 0 23 0;
#X connect 1 0 23 0;
#X connect 2 0 23 0;
#X connect 3 0 23 0;
#X connect 4 0 40 0;
#X connect 4 1 41 0;
#X connect 4 2 47 0;
#X connect 4 3 48 0;
#X connect 4 4 49 0;
#X connect 5 0 4 0;
#X connect 9 0 4 0;
#X connect 10 0 4 0;
#X connect 15 0 4 0;
#X connect 17 0 4 0;
#X connect 18 0 4 0;
#X connect 19 0 4 0;
#X connect 20 0 22 0;
#X connect 21 0 0 0;
#X connect 21 0 1 0;
#X connect 21 0 2 0;
#X connect 21 0 3 0;
#X connect 23 0 20 0;
#X connect 24 0 23 1;
#X connect 25 0 9 0;
#X connect 25 1 19 0;
#X connect 25 2 15 0;
#X connect 25 3 10 0;
#X connect 25 4 18 0;
#X connect 25 5 17 0;
#X connect 25 6 5 0;
#X connect 26 0 27 0;
#X connect 27 0 25 0;
#X connect 28 0 3 2;
#X connect 28 0 2 2;
#X connect 28 0 1 2;
#X connect 28 0 0 2;
#X connect 28 1 24 0;
#X connect 29 0 27 0;
#X connect 29 1 33 0;
#X connect 30 0 42 0;
#X connect 31 0 28 0;
#X connect 34 0 4 0;
#X connect 35 0 49 1;
#X connect 36 0 48 1;
#X connect 37 0 47 1;
#X connect 38 0 41 1;
#X connect 39 0 40 1;
#X connect 40 0 43 0;
#X connect 41 0 44 0;
#X connect 42 0 32 0;
#X connect 42 1 29 0;
#X connect 43 0 0 1;
#X connect 44 0 1 1;
#X connect 45 0 2 1;
#X connect 46 0 3 1;
#X connect 47 0 45 0;
#X connect 48 0 46 0;
#X connect 49 0 31 0;
