#N canvas 1 82 1351 661 10;
#X obj 644 76 r \$0-channel;
#X obj 866 179 s \$0-channel;
#X obj 306 399 spigot;
#X obj 345 372 r \$0-on;
#X obj 284 433 outlet;
#X obj 121 101 cnv 15 129 72 empty \$0-canvas empty 5 10 0 14 -166441
-1 0;
#N canvas 351 82 998 661 color 0;
#X obj 178 154 r \$0-on;
#X obj 172 264 t b f;
#X obj 172 292 f;
#X obj 178 177 select 0 1;
#X msg 172 205 1;
#X msg 222 203 13;
#X obj 172 317 pack f 1;
#X obj 381 163 r \$0-on;
#X obj 381 186 select 0 1;
#X msg 381 210 1;
#X msg 414 211 13;
#X obj 381 237 f;
#X msg 381 261 color \$1 12 22;
#X obj 381 283 s \$0-canvas;
#X obj 752 179 s \$0-canvas;
#X msg 752 155 label \$1;
#X obj 752 130 symbol \$2;
#X obj 172 235 f 1;
#X obj 62 222 r \$0-channel;
#X msg 172 343 color \$2 12 22 \, label Channel_\$1;
#X obj 172 371 s \$0-canvaschannel;
#X obj 752 103 initbang;
#X obj 280 79 inlet;
#X connect 0 0 3 0;
#X connect 1 0 2 0;
#X connect 1 1 6 1;
#X connect 2 0 6 0;
#X connect 3 0 4 0;
#X connect 3 1 5 0;
#X connect 4 0 17 0;
#X connect 5 0 17 0;
#X connect 6 0 19 0;
#X connect 7 0 8 0;
#X connect 8 0 9 0;
#X connect 8 1 10 0;
#X connect 9 0 11 0;
#X connect 10 0 11 0;
#X connect 11 0 12 0;
#X connect 12 0 13 0;
#X connect 15 0 14 0;
#X connect 16 0 15 0;
#X connect 17 0 1 0;
#X connect 18 0 2 0;
#X connect 19 0 20 0;
#X connect 21 0 16 0;
#X connect 22 0 3 0;
#X connect 22 0 8 0;
#X restore 687 419 pd color;
#X obj 124 157 bng 15 250 50 0 empty \$0-activity Activity 17 7 0 14
-262144 -1 -1;
#X obj 123 140 cnv 15 120 15 empty \$0-canvaschannel Channel_0 0 8
0 14 -166441 -1 0;
#X obj 124 123 tgl 15 0 \$0-on \$0-on_ On/Off 17 7 0 14 -262144 -33289
-1 0 1;
#X obj 337 431 s \$0-activity;
#X obj 485 33 notein;
#X obj 492 392 spigot;
#X obj 531 365 r \$0-on;
#X obj 470 426 outlet;
#X obj 866 156 int;
#X obj 866 132 tof/param /channel 1 /g slider 1 16;
#X obj 1179 89 inlet params;
#X obj 1179 135 print PARAM_NOTFOUND;
#X obj 1179 111 tof/param route;
#X obj 1182 156 b;
#X obj 1182 178 tof/param gui;
#X obj 627 106 f;
#X obj 600 426 outlet;
#X msg 623 53 bang;
#X obj 616 382 spigot;
#X obj 655 355 r \$0-on;
#X obj 707 236 tof/param /on 1 /g tgl;
#X obj 861 101 tof/argument 4;
#X obj 817 80 tof/argument 3;
#X obj 854 55 loadbang;
#X connect 0 0 22 1;
#X connect 2 0 4 0;
#X connect 2 0 10 0;
#X connect 3 0 2 1;
#X connect 11 0 2 0;
#X connect 11 1 12 0;
#X connect 11 2 24 0;
#X connect 12 0 14 0;
#X connect 13 0 12 1;
#X connect 15 0 1 0;
#X connect 16 0 15 0;
#X connect 17 0 19 0;
#X connect 19 0 18 0;
#X connect 20 0 21 0;
#X connect 22 0 25 0;
#X connect 24 0 22 0;
#X connect 25 0 23 0;
#X connect 26 0 25 1;
#X connect 27 0 2 1;
#X connect 27 0 12 1;
#X connect 27 0 25 1;
#X connect 27 0 6 0;
#X connect 28 0 16 0;
#X connect 29 0 27 0;
#X connect 30 0 28 0;
#X connect 30 0 29 0;
#X coords 0 -1 1 1 130 73 2 120 100;
