#N canvas 1 82 1364 661 10;
#X obj 532 186 spigot;
#X obj 448 343 spigot;
#X obj 487 316 r \$0-on;
#X obj 426 377 outlet;
#X obj 136 100 cnv 15 149 124 empty \$0-canvas Note-Range-Filter 5
10 0 14 -166441 -1 0;
#N canvas 1 82 1364 661 color 0;
#X obj 203 55 r \$0-on;
#X obj 195 163 t b f;
#X obj 203 78 select 0 1;
#X msg 197 106 1;
#X msg 247 104 13;
#X obj 1063 232 r \$0-on;
#X obj 1063 255 select 0 1;
#X msg 1057 283 1;
#X msg 1107 281 13;
#X obj 1067 332 f;
#X msg 1058 363 color \$1 12 22;
#X obj 1060 391 s \$0-canvas;
#X obj 1029 203 loadbang;
#X obj 1180 328 s \$0-canvas;
#X obj 1178 252 loadbang;
#X msg 1177 305 label \$1;
#X obj 1178 279 symbol \$2;
#X obj 197 136 f 1;
#X obj 101 79 r \$0-left;
#X msg 208 304 color \$2 12 22 \, label Left_\$1;
#X obj 212 330 s \$0-canvasleft;
#X obj 741 58 r \$0-on;
#X obj 733 166 t b f;
#X obj 741 81 select 0 1;
#X msg 735 109 1;
#X msg 785 107 13;
#X obj 735 139 f 1;
#X obj 622 105 r \$0-right;
#X msg 647 246 color \$2 12 22 \, label Right_\$1;
#X obj 642 285 s \$0-canvasright;
#X obj 169 212 pack s 1;
#X obj 710 214 pack s 1;
#X obj 704 189 symbol;
#X obj 166 186 symbol;
#X obj 104 121 mtl/numToNote;
#X obj 635 141 mtl/numToNote;
#X connect 0 0 2 0;
#X connect 1 0 33 0;
#X connect 1 1 30 1;
#X connect 2 0 3 0;
#X connect 2 1 4 0;
#X connect 3 0 17 0;
#X connect 4 0 17 0;
#X connect 5 0 6 0;
#X connect 6 0 7 0;
#X connect 6 1 8 0;
#X connect 7 0 9 0;
#X connect 8 0 9 0;
#X connect 9 0 10 0;
#X connect 10 0 11 0;
#X connect 12 0 7 0;
#X connect 14 0 16 0;
#X connect 15 0 13 0;
#X connect 16 0 15 0;
#X connect 17 0 1 0;
#X connect 18 0 34 0;
#X connect 19 0 20 0;
#X connect 21 0 23 0;
#X connect 22 0 32 0;
#X connect 22 1 31 1;
#X connect 23 0 24 0;
#X connect 23 1 25 0;
#X connect 24 0 26 0;
#X connect 25 0 26 0;
#X connect 26 0 22 0;
#X connect 27 0 35 0;
#X connect 28 0 29 0;
#X connect 30 0 19 0;
#X connect 31 0 28 0;
#X connect 32 0 31 0;
#X connect 33 0 30 0;
#X connect 34 0 33 0;
#X connect 35 0 32 0;
#X restore 218 545 pd color;
#X obj 140 121 tgl 15 0 \$0-on \$0-on_ On/Off 17 7 0 14 -262144 -33289
-1 0 1;
#X obj 479 375 s \$0-activity;
#X obj 552 24 notein;
#X obj 612 189 spigot;
#X obj 627 326 spigot;
#X obj 665 294 r \$0-on;
#X obj 614 366 outlet;
#X obj 911 237 int;
#X obj 1179 89 inlet params;
#X obj 1179 135 print PARAM_NOTFOUND;
#X obj 1179 111 tof/param route;
#X obj 1175 234 b;
#X obj 1176 263 tof/param gui;
#X obj 913 267 s \$0-left;
#X obj 664 76 r \$0-left;
#X obj 537 242 spigot;
#X obj 636 259 spigot;
#X obj 690 174 r \$0-right;
#X obj 902 351 int;
#X obj 904 381 s \$0-right;
#X obj 914 211 tof/param /left 1 /g slider 0 127;
#X obj 905 325 tof/param /right 1 /g slider 0 127;
#X obj 136 140 cnv 15 100 60 empty \$0-canvasleft Left_C$ symbol 20
12 0 14 -166441 -1 0;
#X obj 136 160 cnv 15 100 60 empty \$0-canvasright Right_C$ symbol
20 12 0 14 -166441 -1 0;
#X obj 643 125 >=;
#X obj 651 218 <=;
#X obj 518 156 pipe 1;
#X obj 578 145 pipe 1;
#X obj 147 188 bng 15 250 50 0 empty \$0-activity Activity 17 7 0 14
-262144 -1 -1;
#X connect 0 0 21 0;
#X connect 1 0 3 0;
#X connect 1 0 7 0;
#X connect 2 0 1 1;
#X connect 8 0 30 0;
#X connect 8 0 31 0;
#X connect 8 0 32 0;
#X connect 8 1 33 0;
#X connect 9 0 22 0;
#X connect 10 0 12 0;
#X connect 11 0 10 1;
#X connect 13 0 19 0;
#X connect 14 0 16 0;
#X connect 16 0 15 0;
#X connect 17 0 18 0;
#X connect 20 0 30 1;
#X connect 21 0 1 0;
#X connect 22 0 10 0;
#X connect 23 0 31 1;
#X connect 24 0 25 0;
#X connect 26 0 13 0;
#X connect 27 0 24 0;
#X connect 30 0 0 1;
#X connect 30 0 9 1;
#X connect 31 0 21 1;
#X connect 31 0 22 1;
#X connect 32 0 0 0;
#X connect 33 0 9 0;
#X coords 0 -1 1 1 150 125 2 135 100;
