#N canvas 1 82 1364 661 10;
#X obj 332 216 spigot;
#X obj 371 189 r \$0-on;
#X obj 310 250 outlet;
#X obj 120 100 cnv 15 89 60 empty \$0-canvas Note-Delay 5 10 0 14 -258699
-1 0;
#N canvas 353 82 998 661 color 0;
#X obj 381 163 r \$0-on;
#X obj 381 186 select 0 1;
#X msg 375 214 1;
#X msg 425 212 13;
#X obj 385 263 f;
#X msg 376 294 color \$1 12 22;
#X obj 378 322 s \$0-canvas;
#X obj 347 134 loadbang;
#X obj 754 179 s \$0-canvas;
#X obj 752 103 loadbang;
#X msg 751 156 label \$1;
#X obj 752 130 symbol \$2;
#X connect 0 0 1 0;
#X connect 1 0 2 0;
#X connect 1 1 3 0;
#X connect 2 0 4 0;
#X connect 3 0 4 0;
#X connect 4 0 5 0;
#X connect 5 0 6 0;
#X connect 7 0 2 0;
#X connect 9 0 11 0;
#X connect 10 0 8 0;
#X connect 11 0 10 0;
#X restore 409 429 pd color;
#X obj 124 142 bng 15 250 50 0 empty \$0-activity Activity 17 7 0 14
-262144 -1 -1;
#X obj 124 121 tgl 15 0 \$0-on \$0-on_ On/Off 17 7 0 14 -262144 -33289
-1 1 1;
#X obj 363 248 s \$0-activity;
#X obj 485 33 notein;
#X obj 518 209 spigot;
#X obj 557 182 r \$0-on;
#X obj 496 243 outlet;
#X obj 911 237 int;
#X obj 1179 89 inlet params;
#X obj 1179 135 print PARAM_NOTFOUND;
#X obj 1179 111 tof/param route;
#X obj 1175 234 b;
#X obj 1176 263 tof/param gui;
#X obj 637 243 outlet;
#X obj 914 211 tof/param /delay 100 /g slider 1 10000;
#X obj 637 186 spigot;
#X obj 676 159 r \$0-on;
#X obj 913 267 s \$0-delay;
#X obj 653 76 r \$0-delay;
#X obj 523 101 r \$0-delay;
#X obj 356 96 r \$0-delay;
#X obj 339 126 pipe;
#X obj 506 131 pipe;
#X obj 636 106 pipe;
#X connect 0 0 2 0;
#X connect 0 0 7 0;
#X connect 1 0 0 1;
#X connect 8 0 26 0;
#X connect 8 1 27 0;
#X connect 8 2 28 0;
#X connect 9 0 11 0;
#X connect 10 0 9 1;
#X connect 12 0 22 0;
#X connect 13 0 15 0;
#X connect 15 0 14 0;
#X connect 16 0 17 0;
#X connect 19 0 12 0;
#X connect 20 0 18 0;
#X connect 21 0 20 1;
#X connect 23 0 28 1;
#X connect 24 0 27 1;
#X connect 25 0 26 1;
#X connect 26 0 0 0;
#X connect 27 0 9 0;
#X connect 28 0 20 0;
#X coords 0 -1 1 1 89 61 2 120 100;
