#N canvas 1 82 1364 661 10;
#X obj 61 310 notein;
#X obj 33 57 mtl/piano 1;
#X obj 51 395 mtl/out~;
#X obj 61 339 pack;
#X obj 52 366 mtl/buzz~;
#X msg 210 331 /harmonics \$1;
#X text 28 10 Description: Midi Controller Learner;
#X text 28 24 tags: midi;
#X obj 219 220 mtl/Midi-Controller-learner /id CC-Learner;
#X obj 396 226 cnv 15 200 20 empty empty /CC-Learner/ 2 12 0 8 -258401
-262144 0;
#X obj 396 249 hsl 100 15 1 16 0 0 /CC-Learner/channel /CC-Learner/channel_
channel 105 7 0 8 -262144 -1 -1 0 1;
#X obj 396 267 hsl 100 15 0 127 0 0 /CC-Learner/controller /CC-Learner/controller_
controller 105 7 0 8 -262144 -1 -1 0 1;
#X connect 0 0 3 0;
#X connect 0 1 3 1;
#X connect 1 0 4 0;
#X connect 3 0 4 0;
#X connect 4 0 2 0;
#X connect 4 0 2 1;
#X connect 5 0 4 1;
#X connect 8 0 5 0;
