#N canvas 0 30 1358 659 10;
#X obj 26 190 loadbang;
#X obj 93 390 outlet;
#X obj 93 321 f 0;
#X obj 127 321 + 1;
#X obj 93 267 metro;
#N canvas 565 325 520 366 \$0-calc-increment 0;
#X obj 165 68 inlet;
#X obj 54 66 inlet;
#X obj 165 129 /;
#X obj 165 100 swap 1000;
#X obj 165 221 / 1;
#X text 165 43 freq;
#X obj 165 296 outlet;
#X text 164 315 counter increment;
#X obj 54 293 outlet;
#X text 48 319 metro period;
#X obj 165 166 t b a;
#X text 211 219 inverse number of updates per sweep;
#X text 54 43 update period;
#X obj 54 127 max 2;
#X connect 0 0 3 0;
#X connect 1 0 13 0;
#X connect 2 0 10 0;
#X connect 3 0 2 0;
#X connect 3 1 2 1;
#X connect 4 0 6 0;
#X connect 10 0 4 0;
#X connect 10 1 4 1;
#X connect 13 0 4 0;
#X connect 13 0 8 0;
#X restore 125 245 pd \$0-calc-increment;
#X text 412 198 [c_mphasor <freq> <update period>];
#X text 332 67 phase (0-1);
#N canvas 105 5 620 333 \$0-wrap 0;
#X obj 75 88 int;
#X obj 43 114 -;
#X obj 43 62 t a a;
#X obj 43 194 +;
#X obj 43 136 t a a;
#X obj 75 161 < 0;
#X obj 43 36 inlet;
#X obj 43 221 t a a;
#X obj 75 249 outlet;
#X obj 43 275 outlet;
#X text 112 40 wraparound between 0 and +1 \, also for negative numbers
;
#X connect 0 0 1 1;
#X connect 1 0 4 0;
#X connect 2 0 1 0;
#X connect 2 1 0 0;
#X connect 3 0 7 0;
#X connect 4 0 3 0;
#X connect 4 1 5 0;
#X connect 5 0 3 1;
#X connect 6 0 2 0;
#X connect 7 0 9 0;
#X connect 7 1 8 0;
#X restore 93 348 pd \$0-wrap;
#N canvas 172 83 586 377 LICENSE-GPL 0;
#X text 57 88 This program is free software: you can redistribute it
and/or modify it under the terms of the GNU General Public License
as published by the Free Software Foundation \, either version 3 of
the License \, or (at your option) any later version.;
#X text 58 168 This program is distributed in the hope that it will
be useful \, but WITHOUT ANY WARRANTY \; without even the implied warranty
of MERCHANTABILITY or FITNESS FOR A PARTICULAR PURPOSE. See the GNU
General Public License for more details.;
#X text 57 261 You should have received a copy of the GNU General Public
License along with this program. If not \, see <http://www.gnu.org/licenses/>.
;
#X text 61 54 Copyright (C) 2009 \, Reality Jockey Ltd.;
#X text 60 325 See the file LICENSE.txt for the full license text.
;
#X restore 655 61 pd LICENSE-GPL;
#X obj 893 70 inlet params;
#X obj 893 116 print PARAM_NOTFOUND;
#X obj 893 92 tof/param route;
#X obj 886 147 b;
#X obj 887 176 tof/param gui;
#X obj 44 11 tof/param /on 0 /g tgl 0 1;
#X obj 94 38 tof/param /updates 0 /g slider 1 1000;
#X obj 177 149 / 100;
#X obj 131 64 tof/param /phase 0 /g slider 0 1;
#X obj 125 92 / 100;
#X obj 169 120 tof/param /frequency 10 /g slider 1 1000;
#X connect 0 0 4 0;
#X connect 2 0 8 0;
#X connect 3 0 2 1;
#X connect 4 0 2 0;
#X connect 5 0 4 1;
#X connect 5 1 3 1;
#X connect 8 0 1 0;
#X connect 8 1 3 0;
#X connect 10 0 12 0;
#X connect 12 0 11 0;
#X connect 13 0 14 0;
#X connect 15 0 4 0;
#X connect 16 0 5 0;
#X connect 17 0 5 1;
#X connect 18 0 19 0;
#X connect 19 0 2 0;
#X connect 20 0 17 0;
