#N canvas 0 25 1016 684 10;
#X obj 317 159 cnv 15 200 20 empty empty /nor/ 2 12 0 8 -258401 -262144
0;
#X obj 317 187 tgl 15 0 /nor/porte1 /nor/porte1_ porte-1 17 7 0 10
-262144 -1 -1 0 1;
#X obj 317 206 tgl 15 0 /nor/porte2 /nor/porte2_ porte-2 17 7 0 10
-262144 -1 -1 0 1;
#X obj 72 290 tgl 15 0 empty empty empty 17 7 0 10 -262144 -1 -1 1
1;
#X obj 71 197 tgl 15 0 empty empty empty 17 7 0 10 -262144 -1 -1 0
1;
#X obj 165 192 tgl 15 0 empty empty empty 17 7 0 10 -262144 -1 -1 0
1;
#X obj 71 248 mtl/nor /id nor;
#X connect 4 0 6 0;
#X connect 5 0 6 1;
#X connect 6 0 3 0;
