#N canvas 1 84 1358 659 12;
#X obj 137 66 inlet;
#X obj 137 122 % 12;
#X obj 137 175 sel 0 1 2 3 4 5 6 7 8 9 10 11;
#X obj 226 119 / 12;
#X obj 226 146 int;
#X msg 135 225 C;
#X msg 151 259 C#;
#X msg 184 227 D;
#X msg 200 260 D#;
#X msg 225 228 E;
#X msg 252 259 F;
#X msg 268 233 F#;
#X msg 289 261 G;
#X msg 314 234 G#;
#X msg 332 258 A;
#X msg 353 231 A#;
#X msg 376 258 B;
#X obj 153 314 symbol;
#X obj 155 555 outlet;
#X obj 222 381 makefilename %d;
#X obj 179 466 pack s s;
#X obj 165 503 tosymbol;
#X connect 0 0 1 0;
#X connect 0 0 3 0;
#X connect 1 0 2 0;
#X connect 2 0 5 0;
#X connect 2 1 6 0;
#X connect 2 2 7 0;
#X connect 2 3 8 0;
#X connect 2 4 9 0;
#X connect 2 5 10 0;
#X connect 2 6 11 0;
#X connect 2 7 12 0;
#X connect 2 8 13 0;
#X connect 2 9 14 0;
#X connect 2 10 15 0;
#X connect 2 11 16 0;
#X connect 3 0 4 0;
#X connect 4 0 19 0;
#X connect 5 0 17 0;
#X connect 6 0 17 0;
#X connect 7 0 17 0;
#X connect 8 0 17 0;
#X connect 9 0 17 0;
#X connect 10 0 17 0;
#X connect 11 0 17 0;
#X connect 12 0 17 0;
#X connect 13 0 17 0;
#X connect 14 0 17 0;
#X connect 15 0 17 0;
#X connect 16 0 17 0;
#X connect 17 0 20 0;
#X connect 19 0 20 1;
#X connect 20 0 21 0;
#X connect 21 0 18 0;
