#N canvas 1 82 1272 661 10;
#X obj 1 -21 cnv 15 690 30 empty empty chorus~ 2 12 1 14 -233017 -66577
0;
#X obj 8 200 mtl/out~;
#X obj 238 54 cnv 15 200 40 empty empty empty 20 12 0 14 -232576 -66577
0;
#X text 298 55 PARAM ENABLED;
#X obj 235 221 cnv 15 200 20 empty empty /octave.divider/ 2 12 0 8
-258401 -262144 0;
#X obj 235 248 hsl 100 15 0 100 0 0 /octave.divider/multiplier /octave.divider/multiplier_
multiplier 105 7 0 8 -262144 -1 -1 9900 1;
#X obj 235 266 hsl 100 15 0 1 0 0 /octave.divider/wet /octave.divider/wet_
wet 105 7 0 8 -262144 -1 -1 0 1;
#X text 250 151 <-Click on the propeties menu to display params;
#X text 547 101 tags: fx~;
#X obj 237 77 tof/open_help tof/param;
#X obj 100 42 tgl 15 0 empty empty empty 17 7 0 10 -262144 -1 -1 0
1;
#X obj 8 153 mtl/octave.divider~ /id octave.divider;
#X text 541 116 Author: Miller Pucket;
#X obj 35 19 osc~ 440;
#X obj 38 91 *~;
#X text 543 72 Description : E03 Octave Dividing via ring multiplication
;
#X connect 10 0 14 1;
#X connect 11 0 1 0;
#X connect 11 1 1 1;
#X connect 13 0 14 0;
#X connect 14 0 11 0;
#X connect 14 0 11 1;
