#N canvas 1 82 1016 656 10;
#X obj 97 96 inlet~;
#X obj 164 102 inlet~;
#X obj 115 369 outlet~;
#X obj 209 371 outlet~;
#X obj 124 237 tof/crossfade~ 2;
#X obj 602 166 inlet params;
#X obj 602 212 print PARAM_NOTFOUND;
#X obj 311 118 tof/param /wet 0 /g slider 0 1;
#X obj 311 161 line~;
#X msg 311 140 \$1 5;
#X obj 602 188 tof/param route;
#X obj 595 243 b;
#X obj 596 272 tof/param gui;
#X obj 502 18 tof/param /speed 1 /g slider 1 2;
#X obj 565 126 s \$0-speed;
#N canvas 0 25 1016 659 harmoniser 0;
#X obj 44 59 +~;
#X text 110 34 input from soundcard;
#X obj 62 93 delwrite~ \$0-delay 2000;
#N canvas 741 374 236 296 triangle 0;
#X obj 24 57 phasor~ 1;
#X obj 24 160 abs~;
#X obj 24 137 *~ 2;
#X obj 24 113 -~ 0.5;
#X obj 24 243 outlet~;
#X obj 166 132 wrap~;
#X obj 166 204 abs~;
#X obj 166 181 *~ 2;
#X obj 166 157 -~ 0.5;
#X obj 88 243 outlet~;
#X obj 166 244 outlet~;
#X obj 88 136 wrap~;
#X obj 88 208 abs~;
#X obj 88 185 *~ 2;
#X obj 88 161 -~ 0.5;
#X obj 88 106 -~ 0.3;
#X obj 166 103 -~ 0.7;
#X obj 24 27 inlet;
#X connect 0 0 3 0;
#X connect 0 0 15 0;
#X connect 0 0 16 0;
#X connect 1 0 4 0;
#X connect 2 0 1 0;
#X connect 3 0 2 0;
#X connect 5 0 8 0;
#X connect 6 0 10 0;
#X connect 7 0 6 0;
#X connect 8 0 7 0;
#X connect 11 0 14 0;
#X connect 12 0 9 0;
#X connect 13 0 12 0;
#X connect 14 0 13 0;
#X connect 15 0 11 0;
#X connect 16 0 5 0;
#X connect 17 0 0 0;
#X restore 165 174 pd triangle;
#N canvas 0 22 187 273 window 0;
#X obj 23 43 inlet~;
#X obj 23 178 +~ 0.5;
#X obj 23 243 outlet~;
#X obj 23 85 cos~;
#X obj 23 138 *~ -0.5;
#X obj 23 208 sqrt~;
#X connect 0 0 3 0;
#X connect 1 0 5 0;
#X connect 3 0 4 0;
#X connect 4 0 1 0;
#X connect 5 0 2 0;
#X restore 314 292 pd window;
#N canvas 0 22 187 273 window 0;
#X obj 23 43 inlet~;
#X obj 23 178 +~ 0.5;
#X obj 22 245 outlet~;
#X obj 23 85 cos~;
#X obj 23 138 *~ -0.5;
#X obj 25 210 sqrt~;
#X connect 0 0 3 0;
#X connect 1 0 5 0;
#X connect 3 0 4 0;
#X connect 4 0 1 0;
#X connect 5 0 2 0;
#X restore 80 292 pd window;
#X obj 65 322 *~;
#X obj 299 322 *~;
#X obj 65 356 +~;
#N canvas 0 22 187 273 window 0;
#X obj 23 43 inlet~;
#X obj 22 187 +~ 0.5;
#X obj 23 239 outlet~;
#X obj 23 85 cos~;
#X obj 23 138 *~ -0.5;
#X obj 22 212 sqrt~;
#X connect 0 0 3 0;
#X connect 1 0 5 0;
#X connect 3 0 4 0;
#X connect 4 0 1 0;
#X connect 5 0 2 0;
#X restore 196 293 pd window;
#X obj 181 324 *~;
#N canvas 0 22 160 266 delay 0;
#X obj 24 20 inlet;
#X obj 24 197 line~;
#X msg 24 171 \$1 100;
#X obj 24 120 /;
#X obj 24 65 t b f;
#X msg 24 95 250;
#X obj 24 226 outlet~;
#X floatatom 38 143 5 0 0 0 - - -;
#X connect 0 0 4 0;
#X connect 1 0 6 0;
#X connect 2 0 1 0;
#X connect 3 0 2 0;
#X connect 3 0 7 0;
#X connect 4 0 5 0;
#X connect 4 1 3 1;
#X connect 5 0 3 0;
#X restore 65 189 pd delay;
#X obj 65 231 *~;
#X obj 181 235 *~;
#X obj 299 232 *~;
#X text 43 523 Time-domain harmonizer with fixed intervals: one octave
down and one octave up. You'll notice delay on these tones. Delay times
can be regulated to an extent with the 'speed' slider.;
#X text 44 643 Katja Vetter jan 2012;
#X obj 65 260 vd~ \$0-delay 260;
#X obj 181 260 vd~ \$0-delay 260;
#X obj 299 260 vd~ \$0-delay 260;
#X text 43 581 In exchange for the noticable delay \, this harmonizer
does not suffer from 'rough tones' \, there is only a very subtile
amplitude modulation associated with the speed setting.;
#X obj 44 32 inlet~;
#X obj 44 440 outlet~;
#X obj 258 93 r \$0-speed;
#X connect 0 0 2 0;
#X connect 0 0 22 0;
#X connect 3 0 5 0;
#X connect 3 0 12 1;
#X connect 3 1 9 0;
#X connect 3 1 13 1;
#X connect 3 2 4 0;
#X connect 3 2 14 1;
#X connect 4 0 7 1;
#X connect 5 0 6 1;
#X connect 6 0 8 0;
#X connect 7 0 8 1;
#X connect 8 0 22 0;
#X connect 9 0 10 1;
#X connect 10 0 8 1;
#X connect 11 0 12 0;
#X connect 11 0 13 0;
#X connect 11 0 14 0;
#X connect 12 0 17 0;
#X connect 13 0 18 0;
#X connect 14 0 19 0;
#X connect 17 0 6 0;
#X connect 18 0 10 0;
#X connect 19 0 7 0;
#X connect 21 0 0 0;
#X connect 23 0 11 0;
#X connect 23 0 3 0;
#X restore 168 170 pd harmoniser;
#N canvas 0 25 1016 659 harmoniser 0;
#X obj 44 59 +~;
#X text 110 34 input from soundcard;
#N canvas 741 374 236 296 triangle 0;
#X obj 24 57 phasor~ 1;
#X obj 24 160 abs~;
#X obj 24 137 *~ 2;
#X obj 24 113 -~ 0.5;
#X obj 24 243 outlet~;
#X obj 166 132 wrap~;
#X obj 166 204 abs~;
#X obj 166 181 *~ 2;
#X obj 166 157 -~ 0.5;
#X obj 88 243 outlet~;
#X obj 166 244 outlet~;
#X obj 88 136 wrap~;
#X obj 88 208 abs~;
#X obj 88 185 *~ 2;
#X obj 88 161 -~ 0.5;
#X obj 88 106 -~ 0.3;
#X obj 166 103 -~ 0.7;
#X obj 24 27 inlet;
#X connect 0 0 3 0;
#X connect 0 0 15 0;
#X connect 0 0 16 0;
#X connect 1 0 4 0;
#X connect 2 0 1 0;
#X connect 3 0 2 0;
#X connect 5 0 8 0;
#X connect 6 0 10 0;
#X connect 7 0 6 0;
#X connect 8 0 7 0;
#X connect 11 0 14 0;
#X connect 12 0 9 0;
#X connect 13 0 12 0;
#X connect 14 0 13 0;
#X connect 15 0 11 0;
#X connect 16 0 5 0;
#X connect 17 0 0 0;
#X restore 165 174 pd triangle;
#N canvas 0 22 187 273 window 0;
#X obj 23 43 inlet~;
#X obj 23 178 +~ 0.5;
#X obj 23 243 outlet~;
#X obj 23 85 cos~;
#X obj 23 138 *~ -0.5;
#X obj 23 208 sqrt~;
#X connect 0 0 3 0;
#X connect 1 0 5 0;
#X connect 3 0 4 0;
#X connect 4 0 1 0;
#X connect 5 0 2 0;
#X restore 314 292 pd window;
#N canvas 0 22 187 273 window 0;
#X obj 23 43 inlet~;
#X obj 23 178 +~ 0.5;
#X obj 22 245 outlet~;
#X obj 23 85 cos~;
#X obj 23 138 *~ -0.5;
#X obj 25 210 sqrt~;
#X connect 0 0 3 0;
#X connect 1 0 5 0;
#X connect 3 0 4 0;
#X connect 4 0 1 0;
#X connect 5 0 2 0;
#X restore 80 292 pd window;
#X obj 65 322 *~;
#X obj 299 322 *~;
#X obj 65 356 +~;
#N canvas 0 22 187 273 window 0;
#X obj 23 43 inlet~;
#X obj 22 187 +~ 0.5;
#X obj 23 239 outlet~;
#X obj 23 85 cos~;
#X obj 23 138 *~ -0.5;
#X obj 22 212 sqrt~;
#X connect 0 0 3 0;
#X connect 1 0 5 0;
#X connect 3 0 4 0;
#X connect 4 0 1 0;
#X connect 5 0 2 0;
#X restore 196 293 pd window;
#X obj 181 324 *~;
#N canvas 0 22 160 266 delay 0;
#X obj 24 20 inlet;
#X obj 24 197 line~;
#X msg 24 171 \$1 100;
#X obj 24 120 /;
#X obj 24 65 t b f;
#X msg 24 95 250;
#X obj 24 226 outlet~;
#X floatatom 38 143 5 0 0 0 - - -;
#X connect 0 0 4 0;
#X connect 1 0 6 0;
#X connect 2 0 1 0;
#X connect 3 0 2 0;
#X connect 3 0 7 0;
#X connect 4 0 5 0;
#X connect 4 1 3 1;
#X connect 5 0 3 0;
#X restore 65 189 pd delay;
#X obj 65 231 *~;
#X obj 181 235 *~;
#X obj 299 232 *~;
#X text 43 523 Time-domain harmonizer with fixed intervals: one octave
down and one octave up. You'll notice delay on these tones. Delay times
can be regulated to an extent with the 'speed' slider.;
#X text 44 643 Katja Vetter jan 2012;
#X text 43 581 In exchange for the noticable delay \, this harmonizer
does not suffer from 'rough tones' \, there is only a very subtile
amplitude modulation associated with the speed setting.;
#X obj 44 32 inlet~;
#X obj 44 440 outlet~;
#X obj 258 93 r \$0-speed;
#X obj 62 93 delwrite~ \$0-delay-d 2000;
#X obj 66 260 vd~ \$0-delay-d 260;
#X obj 181 260 vd~ \$0-delay-d 260;
#X obj 299 260 vd~ \$0-delay-d 260;
#X connect 0 0 18 0;
#X connect 0 0 20 0;
#X connect 2 0 4 0;
#X connect 2 0 11 1;
#X connect 2 1 8 0;
#X connect 2 1 12 1;
#X connect 2 2 3 0;
#X connect 2 2 13 1;
#X connect 3 0 6 1;
#X connect 4 0 5 1;
#X connect 5 0 7 0;
#X connect 6 0 7 1;
#X connect 7 0 18 0;
#X connect 8 0 9 1;
#X connect 9 0 7 1;
#X connect 10 0 11 0;
#X connect 10 0 12 0;
#X connect 10 0 13 0;
#X connect 11 0 21 0;
#X connect 12 0 22 0;
#X connect 13 0 23 0;
#X connect 17 0 0 0;
#X connect 19 0 10 0;
#X connect 19 0 2 0;
#X connect 21 0 5 0;
#X connect 22 0 9 0;
#X connect 23 0 6 0;
#X restore 184 200 pd harmoniser;
#X connect 0 0 4 0;
#X connect 0 0 15 0;
#X connect 1 0 4 1;
#X connect 1 0 16 0;
#X connect 4 0 2 0;
#X connect 4 1 3 0;
#X connect 5 0 10 0;
#X connect 7 0 9 0;
#X connect 8 0 4 4;
#X connect 9 0 8 0;
#X connect 10 0 6 0;
#X connect 11 0 12 0;
#X connect 13 0 14 0;
#X connect 15 0 4 2;
#X connect 16 0 4 3;
