#N canvas 1 82 1272 661 10;
#X obj 1 -21 cnv 15 690 30 empty empty octave.doubler~ 2 12 1 14 -233017
-66577 0;
#X obj 8 200 mtl/out~;
#X obj 238 54 cnv 15 200 40 empty empty empty 20 12 0 14 -232576 -66577
0;
#X text 298 55 PARAM ENABLED;
#X obj 235 181 cnv 15 200 20 empty empty /octave.doubler/ 2 12 0 8
-258401 -262144 0;
#X obj 238 210 hsl 100 15 0 1 0 0 /octave.doubler/wet /octave.doubler/wet_
wet 105 7 0 8 -262144 -1 -1 0 1;
#X text 244 152 <-Click on the propeties menu to display params;
#X text 547 101 tags: fx~;
#X obj 237 77 tof/open_help tof/param;
#X obj 6 153 mtl/octave.doubler~ /id octave.doubler;
#X obj 76 42 tgl 15 0 empty empty empty 17 7 0 10 -262144 -1 -1 0 1
;
#N canvas 5 185 450 300 generate~ 0;
#X obj 32 89 metro 400;
#X obj 32 175 mtof;
#X obj 104 195 mtof;
#X floatatom 83 69 5 0 0 0 - - -;
#X obj 32 261 outlet~;
#X obj 103 261 outlet~;
#X obj 30 14 inlet;
#X obj 104 175 mtl/closestNote 0 2 4 7 9;
#X obj 104 234 *~;
#X obj 31 234 *~;
#X obj 32 155 mtl/closestNote 0 2 4 7 9;
#X obj 32 111 random 10;
#X obj 32 132 + 40;
#X obj 32 213 phasor~ 200;
#X obj 104 214 phasor~ 100;
#X connect 0 0 11 0;
#X connect 1 0 13 0;
#X connect 2 0 14 0;
#X connect 3 0 0 1;
#X connect 6 0 0 0;
#X connect 6 0 8 1;
#X connect 6 0 9 1;
#X connect 7 0 2 0;
#X connect 8 0 5 0;
#X connect 9 0 4 0;
#X connect 10 0 1 0;
#X connect 11 0 12 0;
#X connect 12 0 7 0;
#X connect 12 0 10 0;
#X connect 13 0 9 0;
#X connect 14 0 8 0;
#X restore 76 67 pd generate~;
#X text 545 72 Description :;
#X text 543 116 Author: Miller Pucket;
#X text 547 135 We already saw how to use ring modulation to alias
a pitched sound down one octave. Here we do the reverse: filter out
all odd harmonics using a variable-delay comb filter tuned one octave
above the incoming sound. We use two taps into the delay line. The
fixed one (delread~) adjusts for the delayed output of fiddle~. The
variable one (vd~) adds to this an additional delay equal to 1/2 the
measured period of the incoming sound. THese two are added. Odd harmonics
are 180 degrees out of phase at the two taps and cancel. Even harmonics
get through - so the sound goes up an octave \, without denaturing
the timbre as a speed-up would.;
#X text 624 72 G06 OCTAVE DOUBLING VIA VARIABLE COMB FILTER;
#X connect 9 0 1 0;
#X connect 9 1 1 1;
#X connect 10 0 11 0;
#X connect 11 0 9 0;
#X connect 11 1 9 1;
