#N canvas 296 345 682 266 10;
#X obj 21 14 inlet~;
#X obj 71 14 inlet~;
#X obj 11 148 outlet~;
#X obj 60 148 outlet~;
#X obj 10 106 tof/crossfade~ 2;
#X obj 499 -8 inlet params;
#X obj 499 38 print PARAM_NOTFOUND;
#X obj 180 33 tof/param /wet 0 /g slider 0 1;
#X obj 174 85 line~;
#X msg 180 55 \$1 5;
#X obj 499 14 tof/param route;
#X obj 492 69 b;
#X obj 493 98 tof/param gui;
#N canvas 0 25 1272 692 octave.doubler 0;
#X obj 138 200 fiddle~ 2048;
#X obj 206 223 unpack;
#X obj 206 247 moses 1;
#X obj 279 225 mtof;
#X obj 332 274 samplerate~;
#X obj 279 273 t f b;
#X obj 158 423 +~;
#X obj 310 327 +;
#X obj 279 248 expr 500/$f1;
#X obj 310 379 line~;
#X obj 310 356 pack 0 20;
#X text 323 225 fundamental frequency;
#X text 391 248 1/2 period \, in msec;
#X text 366 318 estimate fiddle~ delay;
#X obj 332 300 expr 2048000/$f1;
#X text 368 333 as one window (in msec);
#X obj 103 130 inlet~;
#X obj 151 496 outlet~;
#X obj 625 196 fiddle~ 2048;
#X obj 693 219 unpack;
#X obj 693 243 moses 1;
#X obj 766 221 mtof;
#X obj 819 270 samplerate~;
#X obj 766 269 t f b;
#X obj 645 419 +~;
#X obj 797 323 +;
#X obj 766 244 expr 500/$f1;
#X obj 797 375 line~;
#X obj 797 352 pack 0 20;
#X text 810 221 fundamental frequency;
#X text 878 244 1/2 period \, in msec;
#X text 853 314 estimate fiddle~ delay;
#X obj 819 296 expr 2048000/$f1;
#X text 855 329 as one window (in msec);
#X obj 590 126 inlet~;
#X obj 638 492 outlet~;
#X obj 138 175 delwrite~ \$0-del-g 100;
#X obj 162 353 delread~ \$0-del-g;
#X obj 181 399 vd~ \$0-del-g;
#X obj 626 171 delwrite~ \$0-del-d 100;
#X obj 646 347 delread~ \$0-del-d;
#X obj 668 395 vd~ \$0-del-d;
#X connect 0 2 1 0;
#X connect 1 0 2 0;
#X connect 2 1 3 0;
#X connect 3 0 8 0;
#X connect 4 0 14 0;
#X connect 5 0 7 0;
#X connect 5 1 4 0;
#X connect 6 0 17 0;
#X connect 7 0 10 0;
#X connect 8 0 5 0;
#X connect 9 0 38 0;
#X connect 10 0 9 0;
#X connect 14 0 7 1;
#X connect 14 0 37 0;
#X connect 16 0 0 0;
#X connect 16 0 36 0;
#X connect 18 2 19 0;
#X connect 19 0 20 0;
#X connect 20 1 21 0;
#X connect 21 0 26 0;
#X connect 22 0 32 0;
#X connect 23 0 25 0;
#X connect 23 1 22 0;
#X connect 24 0 35 0;
#X connect 25 0 28 0;
#X connect 26 0 23 0;
#X connect 27 0 41 0;
#X connect 28 0 27 0;
#X connect 32 0 25 1;
#X connect 32 0 40 0;
#X connect 34 0 18 0;
#X connect 34 0 39 0;
#X connect 37 0 6 0;
#X connect 38 0 6 1;
#X connect 40 0 24 0;
#X connect 41 0 24 1;
#X restore 35 61 pd octave.doubler;
#X connect 0 0 4 0;
#X connect 0 0 13 0;
#X connect 1 0 4 1;
#X connect 1 0 13 1;
#X connect 4 0 2 0;
#X connect 4 1 3 0;
#X connect 5 0 10 0;
#X connect 7 0 9 0;
#X connect 8 0 4 4;
#X connect 9 0 8 0;
#X connect 10 0 6 0;
#X connect 11 0 12 0;
#X connect 13 0 4 2;
#X connect 13 1 4 3;
