#N canvas 1 82 1364 661 10;
#X msg 72 138 1330 1600;
#X obj 80 252 tgl 15 0 empty empty empty 17 7 0 10 -262144 -1 -1 0
1;
#X symbolatom 147 254 10 0 0 0 - - -;
#X text 146 139 from 13h30 to 16h00;
#X text 212 255 <- current time;
#X text 467 19 You need [zexy/time];
#X text 74 7 opening_hours \; ------------- \; Return 0 or 1 when the
current time is between beginning and end time \;;
#X obj 81 183 mtl/opening_hours;
#X obj 504 111 cnv 15 200 20 empty empty /opening_hours/ 2 12 0 8 -258401
-262144 0;
#X obj 504 134 tgl 15 0 /opening_hours/on /opening_hours/on_ on 17
7 0 8 -262144 -166441 -1 0 1;
#X obj 504 152 nbx 5 14 0 23 0 0 /opening_hours/hourfrom /opening_hours/hourfrom_
hourfrom 50 8 0 8 -262144 -1 -1 0 256;
#X obj 504 170 nbx 5 14 0 59 0 0 /opening_hours/minfrom /opening_hours/minfrom_
minfrom 50 8 0 8 -262144 -1 -1 0 256;
#X obj 504 188 nbx 5 14 0 23 0 0 /opening_hours/hourto /opening_hours/hourto_
hourto 50 8 0 8 -262144 -1 -1 0 256;
#X obj 504 206 nbx 5 14 0 59 0 0 /opening_hours/minto /opening_hours/minto_
minto 50 8 0 8 -262144 -1 -1 0 256;
#X text 74 64 author : Jérôme Abel http://jeromeabel.net/;
#X text 74 79 tags: tools;
#X connect 0 0 7 0;
#X connect 7 0 1 0;
#X connect 7 1 2 0;
