#N canvas 1 82 1364 661 10;
#X obj 101 231 cnv 12 105 12 empty \$0-cnv-hours CLOSE 40 6 0 10 -66577
-66577 0;
#X obj 128 203 nbx 2 12 0 24 0 0 empty empty empty 0 -8 0 10 -1 -262144
-1 0 256;
#X obj 164 203 nbx 2 12 0 60 0 0 empty empty empty 0 -8 0 10 -1 -262144
-1 0 256;
#X obj 182 591 s \$0-cnv-hours;
#X msg 182 569 color 16 12 12 \, label OPEN;
#X obj 128 217 nbx 2 12 0 24 0 0 empty empty empty 0 -8 0 10 -1 -262144
-1 0 256;
#X obj 164 217 nbx 2 12 0 60 0 0 empty empty empty 0 -8 0 10 -1 -262144
-1 0 256;
#X obj 81 438 &&;
#X obj 157 409 t b f;
#X obj 81 507 change;
#N canvas 1 79 450 300 x100 0;
#X obj 194 213 * 100;
#X obj 194 241 +;
#X obj 230 212 t b f;
#X obj 192 265 outlet;
#X obj 203 190 inlet;
#X obj 240 193 inlet;
#X connect 0 0 1 0;
#X connect 1 0 3 0;
#X connect 2 0 1 0;
#X connect 2 1 1 1;
#X connect 4 0 0 0;
#X connect 5 0 2 0;
#X restore 96 316 pd x100;
#N canvas 1 80 450 300 x100 0;
#X obj 194 213 * 100;
#X obj 194 241 +;
#X obj 230 212 t b f;
#X obj 192 265 outlet;
#X obj 203 190 inlet;
#X obj 240 193 inlet;
#X connect 0 0 1 0;
#X connect 1 0 3 0;
#X connect 2 0 1 0;
#X connect 2 1 1 1;
#X connect 4 0 0 0;
#X connect 5 0 2 0;
#X restore 172 316 pd x100;
#N canvas 1 79 450 300 x100 0;
#X obj 194 213 * 100;
#X obj 194 241 +;
#X obj 230 212 t b f;
#X obj 192 265 outlet;
#X obj 203 190 inlet;
#X obj 240 193 inlet;
#X connect 0 0 1 0;
#X connect 1 0 3 0;
#X connect 2 0 1 0;
#X connect 2 1 1 1;
#X connect 4 0 0 0;
#X connect 5 0 2 0;
#X restore 256 318 pd x100;
#X obj 81 369 >=;
#X obj 157 369 <;
#X obj 81 390 tgl 15 0 empty empty empty 17 7 0 10 -262144 -1 -1 0
1;
#X obj 157 390 tgl 15 0 empty empty empty 17 7 0 10 -262144 -1 -1 0
1;
#N canvas 1 85 450 300 /100 0;
#X obj 240 138 / 100;
#X obj 240 158 int;
#X obj 213 116 t f f;
#X obj 240 178 * 100;
#X obj 213 195 -;
#X obj 213 221 outlet;
#X obj 138 208 outlet;
#X obj 213 88 inlet;
#X connect 0 0 1 0;
#X connect 1 0 3 0;
#X connect 1 0 6 0;
#X connect 2 0 4 0;
#X connect 2 1 0 0;
#X connect 3 0 4 1;
#X connect 4 0 5 0;
#X connect 7 0 2 0;
#X restore 128 177 pd /100;
#X text 155 199 :;
#X text 155 211 :;
#N canvas 1 80 450 300 /100 0;
#X obj 240 138 / 100;
#X obj 240 158 int;
#X obj 213 116 t f f;
#X obj 240 178 * 100;
#X obj 213 195 -;
#X obj 213 221 outlet;
#X obj 138 208 outlet;
#X obj 213 88 inlet;
#X connect 0 0 1 0;
#X connect 1 0 3 0;
#X connect 1 0 6 0;
#X connect 2 0 4 0;
#X connect 2 1 0 0;
#X connect 3 0 4 1;
#X connect 4 0 5 0;
#X connect 7 0 2 0;
#X restore 188 177 pd /100;
#X obj 142 76 inlet;
#X obj 142 101 unpack f f;
#X obj 81 592 outlet;
#X obj 214 437 pack f f f;
#X obj 214 459 l2s :;
#X obj 214 480 outlet;
#X text 138 56 list : start end;
#X text 208 496 symbol : current time;
#X text 77 611 toggle : open (1) \, close (0);
#X text 68 23 opening_hours: set start and end hours;
#X text 100 199 from;
#X text 100 211 to;
#X obj 256 286 zexy/time;
#X obj 253 230 tof/param /on 0 /g tgl;
#X obj 256 262 metro 1000;
#X obj 297 47 tof/param /hourfrom 0 /g nbx;
#X obj 320 71 tof/param /minfrom 0 /g nbx;
#X obj 503 50 tof/param /hourto 0 /g nbx;
#X obj 556 75 tof/param /minto 0 /g nbx;
#X obj 271 86 * 100;
#X obj 279 122 +;
#X obj 311 95 t b f;
#X obj 495 92 * 100;
#X obj 503 128 +;
#X obj 535 101 t b f;
#X obj 465 313 route 0 1;
#X obj 505 451 s \$0-cnv-hours;
#X msg 491 358 color 16 12 12 \, label CLOSE;
#X msg 466 382 color 2 2 2 \, label CLOSE;
#X obj 182 524 sel 1;
#X obj 1011 77 inlet params;
#X obj 1011 123 print PARAM_NOTFOUND;
#X obj 1011 99 tof/param route;
#X obj 1007 222 b;
#X obj 1008 251 tof/param gui;
#X connect 1 0 10 0;
#X connect 2 0 10 1;
#X connect 4 0 3 0;
#X connect 5 0 11 0;
#X connect 6 0 11 1;
#X connect 7 0 9 0;
#X connect 8 0 7 0;
#X connect 8 1 7 1;
#X connect 9 0 23 0;
#X connect 9 0 50 0;
#X connect 10 0 13 1;
#X connect 11 0 14 1;
#X connect 12 0 13 0;
#X connect 12 0 14 0;
#X connect 13 0 15 0;
#X connect 14 0 16 0;
#X connect 15 0 7 0;
#X connect 16 0 8 0;
#X connect 17 0 1 0;
#X connect 17 1 2 0;
#X connect 20 0 5 0;
#X connect 20 1 6 0;
#X connect 21 0 22 0;
#X connect 22 0 17 0;
#X connect 22 1 20 0;
#X connect 24 0 25 0;
#X connect 25 0 26 0;
#X connect 33 0 12 0;
#X connect 33 0 24 0;
#X connect 33 1 12 1;
#X connect 33 1 24 1;
#X connect 33 2 24 2;
#X connect 34 0 35 0;
#X connect 34 0 46 0;
#X connect 35 0 33 0;
#X connect 36 0 40 0;
#X connect 37 0 42 0;
#X connect 38 0 43 0;
#X connect 39 0 45 0;
#X connect 40 0 41 0;
#X connect 41 0 17 0;
#X connect 42 0 41 0;
#X connect 42 1 41 1;
#X connect 43 0 44 0;
#X connect 44 0 20 0;
#X connect 45 0 44 0;
#X connect 45 1 44 1;
#X connect 46 0 49 0;
#X connect 46 1 48 0;
#X connect 48 0 47 0;
#X connect 49 0 47 0;
#X connect 50 0 4 0;
#X connect 51 0 53 0;
#X connect 53 0 52 0;
#X connect 54 0 55 0;
#X coords 0 -1 1 1 107 47 2 100 200;
