#N canvas 1 82 1351 661 10;
#X obj 91 434 outlet~;
#X obj 85 212 inlet~;
#X obj 145 221 inlet~;
#X obj 151 434 outlet~;
#X obj 766 85 inlet params;
#X obj 255 414 tof/param /wet 0 /g slider 0 1;
#X obj 766 131 print PARAM_NOTFOUND;
#X obj 91 409 tof/crossfade~ 2;
#X msg 255 438 \$1 5;
#X obj 255 462 line~;
#X obj 766 107 tof/param route;
#N canvas 529 160 730 557 peakfilter 0;
#X obj 107 324 cpole~;
#X obj 105 378 czero~;
#X obj 374 263 *~ 0.01;
#X obj 429 263 *~ 0.01;
#X obj 392 224 cos~;
#X obj 429 225 cos~;
#X obj 428 203 -~ 0.25;
#X obj 409 120 samplerate~;
#X obj 393 142 /~;
#X obj 104 228 inlet~;
#X obj 108 566 outlet~;
#X obj 178 290 *~;
#X obj 206 291 *~;
#X obj 232 155 *~ -0.1;
#X obj 232 176 expr~ exp($v1);
#X obj 232 197 *~ -1;
#X obj 232 219 +~ 0.9999;
#X obj 231 133 clip~ 0.001 100;
#X text 289 507 taken from 3.audio.examples/H12.peaking.pd and modified
;
#X text 291 522 by Roman (net-pd);
#X obj 231 95 sig~;
#X msg 511 97 bang;
#X obj 178 421 + 1;
#X obj 105 414 /~ 10;
#X obj 135 475 *~ 3;
#X obj 323 380 + 1;
#X obj 269 411 *;
#X obj 263 372 t b f;
#X obj 110 501 +~;
#X obj 214 72 + 20;
#X obj 180 395 / 4;
#X obj 322 355 * 16;
#X obj 110 543 /~ 5;
#X obj 409 97 r \$0-loadbang;
#X obj 400 75 + 20;
#X obj 396 30 pow 2;
#X obj 398 54 * 5000;
#X obj 203 48 * 20;
#X obj 268 347 * 1;
#X obj 264 11 inlet resonance;
#X obj 393 8 inlet cutoff;
#X connect 0 0 1 0;
#X connect 0 1 1 1;
#X connect 1 0 23 0;
#X connect 2 0 1 2;
#X connect 3 0 1 3;
#X connect 4 0 2 0;
#X connect 4 0 11 0;
#X connect 5 0 3 0;
#X connect 5 0 12 0;
#X connect 6 0 5 0;
#X connect 7 0 8 1;
#X connect 8 0 6 0;
#X connect 8 0 4 0;
#X connect 9 0 0 0;
#X connect 11 0 0 2;
#X connect 12 0 0 3;
#X connect 13 0 14 0;
#X connect 14 0 15 0;
#X connect 15 0 16 0;
#X connect 16 0 11 1;
#X connect 16 0 12 1;
#X connect 17 0 13 0;
#X connect 20 0 17 0;
#X connect 21 0 7 0;
#X connect 22 0 23 1;
#X connect 23 0 28 0;
#X connect 23 0 24 0;
#X connect 24 0 28 1;
#X connect 25 0 27 0;
#X connect 26 0 24 1;
#X connect 27 0 26 0;
#X connect 27 1 26 1;
#X connect 28 0 32 0;
#X connect 29 0 20 0;
#X connect 30 0 22 0;
#X connect 31 0 25 0;
#X connect 32 0 10 0;
#X connect 33 0 7 0;
#X connect 34 0 8 0;
#X connect 35 0 31 0;
#X connect 35 0 36 0;
#X connect 36 0 34 0;
#X connect 37 0 29 0;
#X connect 37 0 30 0;
#X connect 38 0 26 0;
#X connect 39 0 37 0;
#X connect 39 0 38 0;
#X connect 40 0 35 0;
#X restore 148 354 pd peakfilter;
#X obj 209 227 tof/param /resonance 0 /g slider 0 1;
#X obj 252 256 tof/param /cutoff 0 /g slider 0 1;
#N canvas 529 160 730 557 peakfilter 0;
#X obj 107 324 cpole~;
#X obj 105 378 czero~;
#X obj 374 263 *~ 0.01;
#X obj 429 263 *~ 0.01;
#X obj 392 224 cos~;
#X obj 429 225 cos~;
#X obj 428 203 -~ 0.25;
#X obj 409 120 samplerate~;
#X obj 393 142 /~;
#X obj 104 228 inlet~;
#X obj 108 566 outlet~;
#X obj 178 290 *~;
#X obj 206 291 *~;
#X obj 232 155 *~ -0.1;
#X obj 232 176 expr~ exp($v1);
#X obj 232 197 *~ -1;
#X obj 232 219 +~ 0.9999;
#X obj 231 133 clip~ 0.001 100;
#X text 289 507 taken from 3.audio.examples/H12.peaking.pd and modified
;
#X text 291 522 by Roman (net-pd);
#X obj 231 95 sig~;
#X msg 511 97 bang;
#X obj 178 421 + 1;
#X obj 105 414 /~ 10;
#X obj 135 475 *~ 3;
#X obj 323 380 + 1;
#X obj 269 411 *;
#X obj 263 372 t b f;
#X obj 110 501 +~;
#X obj 214 72 + 20;
#X obj 180 395 / 4;
#X obj 322 355 * 16;
#X obj 110 543 /~ 5;
#X obj 409 97 r \$0-loadbang;
#X obj 400 75 + 20;
#X obj 396 30 pow 2;
#X obj 398 54 * 5000;
#X obj 203 48 * 20;
#X obj 268 347 * 1;
#X obj 264 11 inlet resonance;
#X obj 393 8 inlet cutoff;
#X connect 0 0 1 0;
#X connect 0 1 1 1;
#X connect 1 0 23 0;
#X connect 2 0 1 2;
#X connect 3 0 1 3;
#X connect 4 0 2 0;
#X connect 4 0 11 0;
#X connect 5 0 3 0;
#X connect 5 0 12 0;
#X connect 6 0 5 0;
#X connect 7 0 8 1;
#X connect 8 0 6 0;
#X connect 8 0 4 0;
#X connect 9 0 0 0;
#X connect 11 0 0 2;
#X connect 12 0 0 3;
#X connect 13 0 14 0;
#X connect 14 0 15 0;
#X connect 15 0 16 0;
#X connect 16 0 11 1;
#X connect 16 0 12 1;
#X connect 17 0 13 0;
#X connect 20 0 17 0;
#X connect 21 0 7 0;
#X connect 22 0 23 1;
#X connect 23 0 28 0;
#X connect 23 0 24 0;
#X connect 24 0 28 1;
#X connect 25 0 27 0;
#X connect 26 0 24 1;
#X connect 27 0 26 0;
#X connect 27 1 26 1;
#X connect 28 0 32 0;
#X connect 29 0 20 0;
#X connect 30 0 22 0;
#X connect 31 0 25 0;
#X connect 32 0 10 0;
#X connect 33 0 7 0;
#X connect 34 0 8 0;
#X connect 35 0 31 0;
#X connect 35 0 36 0;
#X connect 36 0 34 0;
#X connect 37 0 29 0;
#X connect 37 0 30 0;
#X connect 38 0 26 0;
#X connect 39 0 37 0;
#X connect 39 0 38 0;
#X connect 40 0 35 0;
#X restore 245 356 pd peakfilter;
#X obj 767 154 b;
#X obj 767 183 tof/param gui;
#X obj 325 188 tof/argument 5;
#X obj 293 153 tof/argument 4;
#X obj 251 115 tof/argument 3;
#X obj 256 77 loadbang;
#X connect 1 0 7 0;
#X connect 1 0 11 0;
#X connect 2 0 7 1;
#X connect 2 0 14 0;
#X connect 4 0 10 0;
#X connect 5 0 8 0;
#X connect 7 0 0 0;
#X connect 7 1 3 0;
#X connect 8 0 9 0;
#X connect 9 0 7 4;
#X connect 10 0 6 0;
#X connect 11 0 7 2;
#X connect 12 0 11 1;
#X connect 12 0 14 1;
#X connect 13 0 11 2;
#X connect 13 0 14 2;
#X connect 14 0 7 3;
#X connect 15 0 16 0;
#X connect 17 0 13 0;
#X connect 18 0 12 0;
#X connect 19 0 5 0;
#X connect 20 0 17 0;
#X connect 20 0 18 0;
#X connect 20 0 19 0;
