#N canvas 269 337 937 393 10;
#X obj 1 -21 cnv 15 690 30 empty empty phaser~ 2 12 1 14 -233017 -66577
0;
#X obj 8 200 mtl/out~;
#X obj 16 75 tgl 15 0 empty empty empty 17 7 0 10 -262144 -1 -1 0 1
;
#X obj 251 45 cnv 15 140 80 empty empty empty 20 12 0 14 -232576 -66577
0;
#X text 293 50 PARAM ENABLED;
#X obj 235 181 cnv 15 200 20 empty empty /phaser/ 2 12 0 8 -258401
-262144 0;
#X obj 241 208 hsl 100 15 0 100 0 0 /phaser/rate /phaser/rate_ rate
105 7 0 8 -262144 -1 -1 0 1;
#X obj 241 227 hsl 100 15 0 1 0 0 /phaser/wet /phaser/wet_ wet 105
7 0 8 -262144 -1 -1 0 1;
#X text 543 300 tags: fx~;
#N canvas 0 25 1272 692 chord 0;
#X obj 87 97 -~ 0.5;
#X obj 87 146 clip~ -0.5 0.5;
#X obj 87 169 cos~;
#X obj 499 293 hip~ 5;
#X obj 499 356 outlet~;
#X obj 87 122 *~ 3;
#X obj 87 74 phasor~ 220;
#X obj 221 97 -~ 0.5;
#X obj 221 146 clip~ -0.5 0.5;
#X obj 221 169 cos~;
#X obj 221 122 *~ 3;
#X obj 356 100 -~ 0.5;
#X obj 356 149 clip~ -0.5 0.5;
#X obj 356 172 cos~;
#X obj 356 125 *~ 3;
#X obj 491 100 -~ 0.5;
#X obj 491 149 clip~ -0.5 0.5;
#X obj 491 172 cos~;
#X obj 491 125 *~ 3;
#X obj 221 74 phasor~ 251;
#X obj 356 77 phasor~ 281;
#X obj 491 77 phasor~ 311;
#X text 147 32 test sound for phaser;
#X obj 626 78 inlet;
#X obj 499 326 *~ 0;
#X connect 0 0 5 0;
#X connect 1 0 2 0;
#X connect 2 0 3 0;
#X connect 3 0 24 0;
#X connect 5 0 1 0;
#X connect 6 0 0 0;
#X connect 7 0 10 0;
#X connect 8 0 9 0;
#X connect 9 0 3 0;
#X connect 10 0 8 0;
#X connect 11 0 14 0;
#X connect 12 0 13 0;
#X connect 13 0 3 0;
#X connect 14 0 12 0;
#X connect 15 0 18 0;
#X connect 16 0 17 0;
#X connect 17 0 3 0;
#X connect 18 0 16 0;
#X connect 19 0 7 0;
#X connect 20 0 11 0;
#X connect 21 0 15 0;
#X connect 23 0 24 1;
#X connect 24 0 4 0;
#X restore 16 106 pd chord;
#X text 540 66 The phaser ranks \, along with fuzz and wah-wah \, as
one of the great guitar pedals. A phaser simply adds an all-passed
copy of the signal to the original \, making phase reinforcement and
cancellation at frequencies that depend on the all-pass coefficients.
In this example the coefficients range from 0.88 to 0.98 \, controlled
by a phasor~ object (no relation). The phasor~ is converted to a symmetrical
triangle wave (abs($v1-0.5)) and then ranged appropriately.;
#X text 539 207 Many variations of this have been invented. A deeper
effect can be obtained by using 12 all-pass filters and adding the
outputs of the 4th \, 8th. and 12th one to the original. Various stereo
configurations are possible. Some people use 6 instead of the 4 stages
used here. Controls can be added to change the frequency of sweeping
and the range of the all-pass coeefficients.;
#X text 540 319 Author: Miller Pucket;
#X text 684 48 Description : PHASER;
#X text 149 151 <- Select the popup menu's propeties item to display
params;
#X obj 9 153 mtl/phaser~ /id phaser;
#N canvas 0 22 450 300 help 0;
#X obj 76 50 inlet;
#X msg 77 76 symbol tof/param;
#X obj 77 107 tof/openHelp;
#X connect 0 0 1 0;
#X connect 1 0 2 0;
#X restore 299 92 pd help;
#X msg 298 69 tof/param;
#X connect 2 0 9 0;
#X connect 9 0 15 0;
#X connect 9 0 15 1;
#X connect 15 0 1 0;
#X connect 15 1 1 1;
#X connect 17 0 16 0;
