#N canvas 1 84 1272 659 10;
#X obj 42 181 notein;
#X obj 33 57 mtl/piano 1;
#X obj 29 283 mtl/out~;
#X obj 42 210 pack;
#X obj 385 189 cnv 15 200 20 empty empty /phase-distorsion/ 2 12 0
8 -258401 -262144 0;
#X obj 387 221 hsl 128 15 0 1 0 0 /phase-distorsion/phase /phase-distorsion/phase_
phase -2 -8 0 10 -262144 -1 -1 9525 1;
#X text 382 247 tags: instrument~;
#X obj 29 251 mtl/phase-distorsion~ /id phase-distorsion 0.75;
#X text 384 265;
#X connect 0 0 3 0;
#X connect 0 1 3 1;
#X connect 1 0 7 0;
#X connect 3 0 7 0;
#X connect 7 0 2 0;
#X connect 7 0 2 1;
