#N canvas 1 82 1272 661 10;
#X obj 48 552 outlet~;
#X obj 48 231 inlet~;
#X obj 76 266 inlet~;
#X obj 108 552 outlet~;
#X obj 1073 79 inlet params;
#X obj 215 526 tof/param /wet 0 /g slider 0 1;
#X obj 1073 125 print PARAM_NOTFOUND;
#X obj 48 527 tof/crossfade~ 2;
#X msg 215 556 \$1 5;
#X obj 215 580 line~;
#X obj 1073 101 tof/param route;
#X obj 1069 224 b;
#X obj 1070 253 tof/param gui;
#X obj 197 220 tof/param /fbdelay 0 /g slider 0 1;
#X obj 223 246 tof/param /feedback 0 /g slider 0 1;
#X obj 266 271 tof/param /speed 0 /g slider 0 1;
#X obj 293 297 tof/param /phase 0 /g slider 0 1;
#X obj 326 323 tof/param /depth 0 /g slider 0 1;
#N canvas 0 50 821 576 phaser 0;
#X obj 136 490 +~;
#N canvas 0 50 249 192 allpass-filter 0;
#X obj 37 136 rpole~;
#X obj 30 87 rzero_rev~;
#X obj 31 23 inlet~;
#X obj 38 160 outlet~;
#X obj 167 48 inlet~;
#X obj 172 139 outlet~;
#X connect 0 0 3 0;
#X connect 1 0 0 0;
#X connect 2 0 1 0;
#X connect 4 0 1 1;
#X connect 4 0 5 0;
#X connect 4 0 0 1;
#X restore 162 218 pd allpass-filter;
#N canvas 0 50 249 192 allpass-filter 0;
#X obj 37 136 rpole~;
#X obj 30 87 rzero_rev~;
#X obj 31 23 inlet~;
#X obj 38 160 outlet~;
#X obj 167 48 inlet~;
#X obj 172 139 outlet~;
#X connect 0 0 3 0;
#X connect 1 0 0 0;
#X connect 2 0 1 0;
#X connect 4 0 1 1;
#X connect 4 0 5 0;
#X connect 4 0 0 1;
#X restore 161 240 pd allpass-filter;
#N canvas 0 50 249 192 allpass-filter 0;
#X obj 37 136 rpole~;
#X obj 30 87 rzero_rev~;
#X obj 31 23 inlet~;
#X obj 38 160 outlet~;
#X obj 167 48 inlet~;
#X obj 172 139 outlet~;
#X connect 0 0 3 0;
#X connect 1 0 0 0;
#X connect 2 0 1 0;
#X connect 4 0 1 1;
#X connect 4 0 5 0;
#X connect 4 0 0 1;
#X restore 160 263 pd allpass-filter;
#N canvas 0 50 249 192 allpass-filter 0;
#X obj 37 136 rpole~;
#X obj 30 87 rzero_rev~;
#X obj 31 23 inlet~;
#X obj 38 160 outlet~;
#X obj 167 48 inlet~;
#X obj 172 139 outlet~;
#X connect 0 0 3 0;
#X connect 1 0 0 0;
#X connect 2 0 1 0;
#X connect 4 0 1 1;
#X connect 4 0 5 0;
#X connect 4 0 0 1;
#X restore 159 285 pd allpass-filter;
#N canvas 0 50 249 192 allpass-filter 0;
#X obj 37 136 rpole~;
#X obj 30 87 rzero_rev~;
#X obj 31 23 inlet~;
#X obj 38 160 outlet~;
#X obj 167 48 inlet~;
#X obj 172 139 outlet~;
#X connect 0 0 3 0;
#X connect 1 0 0 0;
#X connect 2 0 1 0;
#X connect 4 0 1 1;
#X connect 4 0 5 0;
#X connect 4 0 0 1;
#X restore 157 308 pd allpass-filter;
#N canvas 0 50 249 192 allpass-filter 0;
#X obj 37 136 rpole~;
#X obj 30 87 rzero_rev~;
#X obj 31 23 inlet~;
#X obj 38 160 outlet~;
#X obj 167 48 inlet~;
#X obj 172 139 outlet~;
#X connect 0 0 3 0;
#X connect 1 0 0 0;
#X connect 2 0 1 0;
#X connect 4 0 1 1;
#X connect 4 0 5 0;
#X connect 4 0 0 1;
#X restore 156 330 pd allpass-filter;
#N canvas 0 50 249 192 allpass-filter 0;
#X obj 37 136 rpole~;
#X obj 30 87 rzero_rev~;
#X obj 31 23 inlet~;
#X obj 38 160 outlet~;
#X obj 167 48 inlet~;
#X obj 172 139 outlet~;
#X connect 0 0 3 0;
#X connect 1 0 0 0;
#X connect 2 0 1 0;
#X connect 4 0 1 1;
#X connect 4 0 5 0;
#X connect 4 0 0 1;
#X restore 157 351 pd allpass-filter;
#N canvas 0 50 249 192 allpass-filter 0;
#X obj 37 136 rpole~;
#X obj 30 87 rzero_rev~;
#X obj 31 23 inlet~;
#X obj 38 160 outlet~;
#X obj 167 48 inlet~;
#X obj 172 139 outlet~;
#X connect 0 0 3 0;
#X connect 1 0 0 0;
#X connect 2 0 1 0;
#X connect 4 0 1 1;
#X connect 4 0 5 0;
#X connect 4 0 0 1;
#X restore 156 373 pd allpass-filter;
#N canvas 0 50 249 192 allpass-filter 0;
#X obj 37 136 rpole~;
#X obj 30 87 rzero_rev~;
#X obj 31 23 inlet~;
#X obj 38 160 outlet~;
#X obj 167 48 inlet~;
#X obj 172 139 outlet~;
#X connect 0 0 3 0;
#X connect 1 0 0 0;
#X connect 2 0 1 0;
#X connect 4 0 1 1;
#X connect 4 0 5 0;
#X connect 4 0 0 1;
#X restore 154 396 pd allpass-filter;
#N canvas 0 50 249 192 allpass-filter 0;
#X obj 37 136 rpole~;
#X obj 30 87 rzero_rev~;
#X obj 31 23 inlet~;
#X obj 38 160 outlet~;
#X obj 167 48 inlet~;
#X obj 172 139 outlet~;
#X connect 0 0 3 0;
#X connect 1 0 0 0;
#X connect 2 0 1 0;
#X connect 4 0 1 1;
#X connect 4 0 5 0;
#X connect 4 0 0 1;
#X restore 153 418 pd allpass-filter;
#N canvas 0 50 249 192 allpass-filter 0;
#X obj 37 136 rpole~;
#X obj 30 87 rzero_rev~;
#X obj 31 23 inlet~;
#X obj 38 160 outlet~;
#X obj 167 48 inlet~;
#X obj 172 139 outlet~;
#X connect 0 0 3 0;
#X connect 1 0 0 0;
#X connect 2 0 1 0;
#X connect 4 0 1 1;
#X connect 4 0 5 0;
#X connect 4 0 0 1;
#X restore 152 441 pd allpass-filter;
#N canvas 0 50 249 192 allpass-filter 0;
#X obj 37 136 rpole~;
#X obj 30 87 rzero_rev~;
#X obj 31 23 inlet~;
#X obj 38 160 outlet~;
#X obj 167 48 inlet~;
#X obj 172 139 outlet~;
#X connect 0 0 3 0;
#X connect 1 0 0 0;
#X connect 2 0 1 0;
#X connect 4 0 1 1;
#X connect 4 0 5 0;
#X connect 4 0 0 1;
#X restore 151 463 pd allpass-filter;
#X obj 214 163 *~ 0.1;
#X obj 374 126 sqrt;
#X obj 373 147 clip 0 0.9999;
#X obj 452 413 *~ 0.333333;
#X obj 137 510 hip~ 5;
#X obj 74 221 *~ 1;
#X obj 374 101 * 0.9999;
#X obj 141 534 outlet~;
#X obj 44 148 inlet~;
#X text 264 8 PHASER;
#X obj 208 73 * 100;
#X obj 209 48 pow 4;
#X msg 212 102 \$1 20;
#X obj 214 121 line~;
#X obj 504 153 phasor~ 0.3;
#X obj 505 347 expr~ 1 - 0.03 - 0.6*abs($v1-0.5)*abs($v1-0.5);
#X obj 504 100 pow 4;
#X obj 503 125 * 10;
#X msg 617 225 \$1 20;
#X obj 619 244 line~;
#X obj 500 275 *~;
#X obj 530 176 *~ -1;
#X obj 530 201 +~ 1;
#X obj 504 222 min~;
#X obj 504 241 -~ 0.25;
#X obj 615 204 * 4;
#X obj 499 302 +~ 0.5;
#X obj 211 26 inlet fbdelay;
#X obj 315 26 inlet feedback;
#X obj 426 27 inlet speed;
#X obj 520 28 inlet phase;
#X obj 614 28 inlet depth;
#X obj 452 439 delwrite~ \$0-fb-g 100;
#X obj 212 143 vd~ \$0-fb-g;
#X connect 0 0 17 0;
#X connect 1 0 2 0;
#X connect 1 1 2 1;
#X connect 2 0 3 0;
#X connect 2 1 3 1;
#X connect 3 0 4 0;
#X connect 3 1 4 1;
#X connect 4 0 5 0;
#X connect 4 0 16 0;
#X connect 4 1 5 1;
#X connect 5 0 6 0;
#X connect 5 1 6 1;
#X connect 6 0 7 0;
#X connect 6 1 7 1;
#X connect 7 0 8 0;
#X connect 7 1 8 1;
#X connect 8 0 9 0;
#X connect 8 0 16 0;
#X connect 8 1 9 1;
#X connect 9 0 10 0;
#X connect 9 1 10 1;
#X connect 10 0 11 0;
#X connect 10 1 11 1;
#X connect 11 0 12 0;
#X connect 11 1 12 1;
#X connect 12 0 0 1;
#X connect 12 0 16 0;
#X connect 13 0 1 0;
#X connect 14 0 15 0;
#X connect 15 0 13 1;
#X connect 16 0 45 0;
#X connect 17 0 20 0;
#X connect 18 0 1 0;
#X connect 18 0 0 0;
#X connect 19 0 14 0;
#X connect 21 0 18 0;
#X connect 23 0 25 0;
#X connect 24 0 23 0;
#X connect 25 0 26 0;
#X connect 26 0 46 0;
#X connect 27 0 34 0;
#X connect 27 0 36 0;
#X connect 28 0 1 1;
#X connect 29 0 30 0;
#X connect 30 0 27 0;
#X connect 31 0 32 0;
#X connect 32 0 33 1;
#X connect 33 0 39 0;
#X connect 34 0 35 0;
#X connect 35 0 36 1;
#X connect 36 0 37 0;
#X connect 37 0 33 0;
#X connect 38 0 31 0;
#X connect 39 0 28 0;
#X connect 40 0 24 0;
#X connect 41 0 19 0;
#X connect 42 0 29 0;
#X connect 43 0 27 1;
#X connect 44 0 38 0;
#X connect 46 0 13 0;
#X restore 146 385 pd phaser _ _ _ _;
#N canvas 0 50 821 576 phaser 0;
#X obj 136 490 +~;
#N canvas 0 50 249 192 allpass-filter 0;
#X obj 37 136 rpole~;
#X obj 30 87 rzero_rev~;
#X obj 31 23 inlet~;
#X obj 38 160 outlet~;
#X obj 167 48 inlet~;
#X obj 172 139 outlet~;
#X connect 0 0 3 0;
#X connect 1 0 0 0;
#X connect 2 0 1 0;
#X connect 4 0 1 1;
#X connect 4 0 5 0;
#X connect 4 0 0 1;
#X restore 162 218 pd allpass-filter;
#N canvas 0 50 249 192 allpass-filter 0;
#X obj 37 136 rpole~;
#X obj 30 87 rzero_rev~;
#X obj 31 23 inlet~;
#X obj 38 160 outlet~;
#X obj 167 48 inlet~;
#X obj 172 139 outlet~;
#X connect 0 0 3 0;
#X connect 1 0 0 0;
#X connect 2 0 1 0;
#X connect 4 0 1 1;
#X connect 4 0 5 0;
#X connect 4 0 0 1;
#X restore 161 240 pd allpass-filter;
#N canvas 0 50 249 192 allpass-filter 0;
#X obj 37 136 rpole~;
#X obj 30 87 rzero_rev~;
#X obj 31 23 inlet~;
#X obj 38 160 outlet~;
#X obj 167 48 inlet~;
#X obj 172 139 outlet~;
#X connect 0 0 3 0;
#X connect 1 0 0 0;
#X connect 2 0 1 0;
#X connect 4 0 1 1;
#X connect 4 0 5 0;
#X connect 4 0 0 1;
#X restore 160 263 pd allpass-filter;
#N canvas 0 50 249 192 allpass-filter 0;
#X obj 37 136 rpole~;
#X obj 30 87 rzero_rev~;
#X obj 31 23 inlet~;
#X obj 38 160 outlet~;
#X obj 167 48 inlet~;
#X obj 172 139 outlet~;
#X connect 0 0 3 0;
#X connect 1 0 0 0;
#X connect 2 0 1 0;
#X connect 4 0 1 1;
#X connect 4 0 5 0;
#X connect 4 0 0 1;
#X restore 159 285 pd allpass-filter;
#N canvas 0 50 249 192 allpass-filter 0;
#X obj 37 136 rpole~;
#X obj 30 87 rzero_rev~;
#X obj 31 23 inlet~;
#X obj 38 160 outlet~;
#X obj 167 48 inlet~;
#X obj 172 139 outlet~;
#X connect 0 0 3 0;
#X connect 1 0 0 0;
#X connect 2 0 1 0;
#X connect 4 0 1 1;
#X connect 4 0 5 0;
#X connect 4 0 0 1;
#X restore 157 308 pd allpass-filter;
#N canvas 0 50 249 192 allpass-filter 0;
#X obj 37 136 rpole~;
#X obj 30 87 rzero_rev~;
#X obj 31 23 inlet~;
#X obj 38 160 outlet~;
#X obj 167 48 inlet~;
#X obj 172 139 outlet~;
#X connect 0 0 3 0;
#X connect 1 0 0 0;
#X connect 2 0 1 0;
#X connect 4 0 1 1;
#X connect 4 0 5 0;
#X connect 4 0 0 1;
#X restore 156 330 pd allpass-filter;
#N canvas 0 50 249 192 allpass-filter 0;
#X obj 37 136 rpole~;
#X obj 30 87 rzero_rev~;
#X obj 31 23 inlet~;
#X obj 38 160 outlet~;
#X obj 167 48 inlet~;
#X obj 172 139 outlet~;
#X connect 0 0 3 0;
#X connect 1 0 0 0;
#X connect 2 0 1 0;
#X connect 4 0 1 1;
#X connect 4 0 5 0;
#X connect 4 0 0 1;
#X restore 157 351 pd allpass-filter;
#N canvas 0 50 249 192 allpass-filter 0;
#X obj 37 136 rpole~;
#X obj 30 87 rzero_rev~;
#X obj 31 23 inlet~;
#X obj 38 160 outlet~;
#X obj 167 48 inlet~;
#X obj 172 139 outlet~;
#X connect 0 0 3 0;
#X connect 1 0 0 0;
#X connect 2 0 1 0;
#X connect 4 0 1 1;
#X connect 4 0 5 0;
#X connect 4 0 0 1;
#X restore 156 373 pd allpass-filter;
#N canvas 0 50 249 192 allpass-filter 0;
#X obj 37 136 rpole~;
#X obj 30 87 rzero_rev~;
#X obj 31 23 inlet~;
#X obj 38 160 outlet~;
#X obj 167 48 inlet~;
#X obj 172 139 outlet~;
#X connect 0 0 3 0;
#X connect 1 0 0 0;
#X connect 2 0 1 0;
#X connect 4 0 1 1;
#X connect 4 0 5 0;
#X connect 4 0 0 1;
#X restore 154 396 pd allpass-filter;
#N canvas 0 50 249 192 allpass-filter 0;
#X obj 37 136 rpole~;
#X obj 30 87 rzero_rev~;
#X obj 31 23 inlet~;
#X obj 38 160 outlet~;
#X obj 167 48 inlet~;
#X obj 172 139 outlet~;
#X connect 0 0 3 0;
#X connect 1 0 0 0;
#X connect 2 0 1 0;
#X connect 4 0 1 1;
#X connect 4 0 5 0;
#X connect 4 0 0 1;
#X restore 153 418 pd allpass-filter;
#N canvas 0 50 249 192 allpass-filter 0;
#X obj 37 136 rpole~;
#X obj 30 87 rzero_rev~;
#X obj 31 23 inlet~;
#X obj 38 160 outlet~;
#X obj 167 48 inlet~;
#X obj 172 139 outlet~;
#X connect 0 0 3 0;
#X connect 1 0 0 0;
#X connect 2 0 1 0;
#X connect 4 0 1 1;
#X connect 4 0 5 0;
#X connect 4 0 0 1;
#X restore 152 441 pd allpass-filter;
#N canvas 0 50 249 192 allpass-filter 0;
#X obj 37 136 rpole~;
#X obj 30 87 rzero_rev~;
#X obj 31 23 inlet~;
#X obj 38 160 outlet~;
#X obj 167 48 inlet~;
#X obj 172 139 outlet~;
#X connect 0 0 3 0;
#X connect 1 0 0 0;
#X connect 2 0 1 0;
#X connect 4 0 1 1;
#X connect 4 0 5 0;
#X connect 4 0 0 1;
#X restore 151 463 pd allpass-filter;
#X obj 214 163 *~ 0.1;
#X obj 374 126 sqrt;
#X obj 373 147 clip 0 0.9999;
#X obj 452 413 *~ 0.333333;
#X obj 137 510 hip~ 5;
#X obj 74 221 *~ 1;
#X obj 374 101 * 0.9999;
#X obj 141 534 outlet~;
#X obj 44 148 inlet~;
#X text 264 8 PHASER;
#X obj 208 73 * 100;
#X obj 209 48 pow 4;
#X msg 212 102 \$1 20;
#X obj 214 121 line~;
#X obj 504 153 phasor~ 0.3;
#X obj 505 347 expr~ 1 - 0.03 - 0.6*abs($v1-0.5)*abs($v1-0.5);
#X obj 504 100 pow 4;
#X obj 503 125 * 10;
#X msg 617 225 \$1 20;
#X obj 619 244 line~;
#X obj 500 275 *~;
#X obj 530 176 *~ -1;
#X obj 530 201 +~ 1;
#X obj 504 222 min~;
#X obj 504 241 -~ 0.25;
#X obj 615 204 * 4;
#X obj 499 302 +~ 0.5;
#X obj 211 26 inlet fbdelay;
#X obj 315 26 inlet feedback;
#X obj 426 27 inlet speed;
#X obj 520 28 inlet phase;
#X obj 614 28 inlet depth;
#X obj 452 439 delwrite~ \$0-fb-d 100;
#X obj 212 143 vd~ \$0-fb-d;
#X connect 0 0 17 0;
#X connect 1 0 2 0;
#X connect 1 1 2 1;
#X connect 2 0 3 0;
#X connect 2 1 3 1;
#X connect 3 0 4 0;
#X connect 3 1 4 1;
#X connect 4 0 5 0;
#X connect 4 0 16 0;
#X connect 4 1 5 1;
#X connect 5 0 6 0;
#X connect 5 1 6 1;
#X connect 6 0 7 0;
#X connect 6 1 7 1;
#X connect 7 0 8 0;
#X connect 7 1 8 1;
#X connect 8 0 9 0;
#X connect 8 0 16 0;
#X connect 8 1 9 1;
#X connect 9 0 10 0;
#X connect 9 1 10 1;
#X connect 10 0 11 0;
#X connect 10 1 11 1;
#X connect 11 0 12 0;
#X connect 11 1 12 1;
#X connect 12 0 0 1;
#X connect 12 0 16 0;
#X connect 13 0 1 0;
#X connect 14 0 15 0;
#X connect 15 0 13 1;
#X connect 16 0 45 0;
#X connect 17 0 20 0;
#X connect 18 0 1 0;
#X connect 18 0 0 0;
#X connect 19 0 14 0;
#X connect 21 0 18 0;
#X connect 23 0 25 0;
#X connect 24 0 23 0;
#X connect 25 0 26 0;
#X connect 26 0 46 0;
#X connect 27 0 34 0;
#X connect 27 0 36 0;
#X connect 28 0 1 1;
#X connect 29 0 30 0;
#X connect 30 0 27 0;
#X connect 31 0 32 0;
#X connect 32 0 33 1;
#X connect 33 0 39 0;
#X connect 34 0 35 0;
#X connect 35 0 36 1;
#X connect 36 0 37 0;
#X connect 37 0 33 0;
#X connect 38 0 31 0;
#X connect 39 0 28 0;
#X connect 40 0 24 0;
#X connect 41 0 19 0;
#X connect 42 0 29 0;
#X connect 43 0 27 1;
#X connect 44 0 38 0;
#X connect 46 0 13 0;
#X restore 289 383 pd phaser _ _ _ _;
#X obj 338 185 tof/argument 8;
#X obj 315 159 tof/argument 7;
#X obj 278 127 tof/argument 6;
#X obj 244 106 tof/argument 5;
#X obj 209 82 tof/argument 4;
#X obj 271 33 loadbang;
#X obj 215 500 tof/argument 3;
#X obj 215 478 loadbang;
#X connect 1 0 7 0;
#X connect 1 0 18 0;
#X connect 2 0 7 1;
#X connect 2 0 19 0;
#X connect 4 0 10 0;
#X connect 5 0 8 0;
#X connect 7 0 0 0;
#X connect 7 1 3 0;
#X connect 8 0 9 0;
#X connect 9 0 7 4;
#X connect 10 0 6 0;
#X connect 11 0 12 0;
#X connect 13 0 18 1;
#X connect 13 0 19 1;
#X connect 14 0 18 2;
#X connect 14 0 19 2;
#X connect 15 0 18 3;
#X connect 15 0 19 3;
#X connect 16 0 18 4;
#X connect 16 0 19 4;
#X connect 17 0 18 5;
#X connect 17 0 19 5;
#X connect 18 0 7 2;
#X connect 19 0 7 3;
#X connect 20 0 17 0;
#X connect 21 0 16 0;
#X connect 22 0 15 0;
#X connect 23 0 14 0;
#X connect 24 0 13 0;
#X connect 25 0 20 0;
#X connect 25 0 21 0;
#X connect 25 0 22 0;
#X connect 25 0 23 0;
#X connect 25 0 24 0;
#X connect 26 0 5 0;
#X connect 27 0 26 0;
