#N canvas 1 82 1272 661 10;
#X obj 48 291 mtl/out~;
#X text 41 144 tags: fx~;
#X text 415 257 <-Click on the propeties menu to display params;
#X obj 436 30 cnv 15 200 20 empty empty /phaser2/ 2 12 0 8 -258401
-262144 0;
#X obj 445 58 hsl 100 15 0 1 0 0 /phaser2/wet /phaser2/wet_ wet 105
7 0 8 -262144 -1 -1 7425 1;
#X obj 46 190 tgl 15 0 empty empty empty 17 7 0 10 -262144 -1 -1 1
1;
#N canvas 5 185 450 300 generate~ 0;
#X obj 32 213 osc~ 200;
#X obj 32 89 metro 400;
#X obj 32 175 mtof;
#X obj 104 195 mtof;
#X obj 32 132 + 20;
#X obj 32 111 random 70;
#X floatatom 83 69 5 0 0 0 - - -, f 5;
#X obj 32 261 outlet~;
#X obj 103 261 outlet~;
#X obj 30 14 inlet;
#X obj 104 175 mtl/closestNote 0 2 4 7 9;
#X obj 104 234 *~;
#X obj 31 234 *~;
#X obj 104 214 osc~ 100;
#X obj 32 155 mtl/closestNote 0 2 4 7 9;
#X connect 0 0 12 0;
#X connect 1 0 5 0;
#X connect 2 0 0 0;
#X connect 3 0 13 0;
#X connect 4 0 10 0;
#X connect 4 0 14 0;
#X connect 5 0 4 0;
#X connect 6 0 1 1;
#X connect 9 0 1 0;
#X connect 9 0 11 1;
#X connect 9 0 12 1;
#X connect 10 0 3 0;
#X connect 11 0 8 0;
#X connect 12 0 7 0;
#X connect 13 0 11 0;
#X connect 14 0 2 0;
#X restore 46 215 pd generate~;
#X text 42 125 Description:;
#X text 133 125 Phaser;
#X obj 444 79 hsl 100 15 0 1 0 0 /phaser2/fbdelay /phaser2/fbdelay_
fbdelay 105 7 0 8 -262144 -1 -1 6336 1;
#X obj 445 100 hsl 100 15 0 1 0 0 /phaser2/feedback /phaser2/feedback_
feedback 105 7 0 8 -262144 -1 -1 5940 1;
#X obj 446 121 hsl 100 15 0 1 0 0 /phaser2/speed /phaser2/speed_ speed
105 7 0 8 -262144 -1 -1 3960 1;
#X obj 445 142 hsl 100 15 0 1 0 0 /phaser2/phase /phaser2/phase_ phase
105 7 0 8 -262144 -1 -1 1980 1;
#X obj 446 163 hsl 100 15 0 1 0 0 /phaser2/depth /phaser2/depth_ depth
105 7 0 8 -262144 -1 -1 8613 1;
#X obj 44 259 mtl/phaser2~ /id phaser2 0.75 0.64 0.6 0.4 0.2 0.87;
#X connect 5 0 6 0;
#X connect 6 0 14 0;
#X connect 6 1 14 1;
#X connect 14 0 0 0;
#X connect 14 1 0 1;
