#N canvas 1 82 1364 661 10;
#N canvas 476 83 690 292 preset 0;
#X msg 55 166 setK 1 \, setD 0 \, setD2 30;
#X obj 36 -34 inlet;
#X obj 115 254 outlet;
#X obj 36 2 + 1;
#X obj 36 43 sel 1 2 3 4 5;
#X msg 115 78 setK 300 \, setD 100 \, setD2 3;
#X text 345 107 4 :elastic tight 3 :superelastic 2 :follow and slowdown
1 :elastic loose 0 :super loose elastic;
#X msg 74 139 setK 1 \, setD 0 \, setD2 200;
#X msg 95 109 setK 0.05 \, setD 0 \, setD2 30;
#X msg 37 198 setK 300 \, setD 300 \, setD2 5;
#X connect 0 0 2 0;
#X connect 1 0 3 0;
#X connect 3 0 4 0;
#X connect 4 0 9 0;
#X connect 4 1 0 0;
#X connect 4 2 7 0;
#X connect 4 3 8 0;
#X connect 4 4 5 0;
#X connect 5 0 2 0;
#X connect 7 0 2 0;
#X connect 8 0 2 0;
#X connect 9 0 2 0;
#X restore 253 260 pd preset;
#N canvas 1 171 268 186 stuff 0;
#X obj 48 97 s \$0-link;
#X obj 13 72 t b b;
#X obj 13 123 s \$0-mass;
#X obj 13 45 metro 5;
#X obj 89 20 bng 15 250 50 0 empty empty empty 0 -6 0 8 -262144 -1
-1;
#X msg 124 92 reset;
#X msg 89 66 resetL \, resetF;
#X obj 89 40 t b b;
#X obj 13 20 inlet;
#X connect 1 0 2 0;
#X connect 1 1 0 0;
#X connect 3 0 1 0;
#X connect 4 0 7 0;
#X connect 5 0 2 0;
#X connect 6 0 0 0;
#X connect 7 0 6 0;
#X connect 7 1 5 0;
#X connect 8 0 3 0;
#X restore 246 120 pd stuff;
#X obj 352 220 inlet;
#X obj 395 525 outlet;
#X obj 253 89 initbang;
#X obj 352 376 pmpd/link \$0-link 0 1 0 200;
#X obj 539 376 pmpd/mass \$0-mass 10000 0;
#X text 319 86 from pmpd : this filter simulate physic caracteristic
like elasticity and gravity...;
#X obj 648 138 inlet command;
#X obj 1001 18 inlet params;
#X obj 1001 64 print PARAM_NOTFOUND;
#X obj 1001 40 tof/param route;
#X obj 997 163 b;
#X obj 998 192 tof/param gui;
#X obj 1148 75 print;
#X obj 256 172 tof/param /presets 0 /g tgl 0 5;
#X connect 0 0 5 0;
#X connect 2 0 5 0;
#X connect 4 0 1 0;
#X connect 5 1 6 0;
#X connect 6 0 3 0;
#X connect 6 0 5 1;
#X connect 8 0 5 0;
#X connect 9 0 11 0;
#X connect 9 0 14 0;
#X connect 11 0 10 0;
#X connect 12 0 13 0;
#X connect 15 0 0 0;
