#N canvas 0 1 1272 692 10;
#X obj 1 -21 cnv 15 690 30 empty empty pingpong~ 2 12 1 14 -233017
-66577 0;
#X obj 56 377 mtl/out~;
#X obj 351 52 cnv 15 200 40 empty empty empty 20 12 0 14 -232576 -66577
0;
#X text 411 53 PARAM ENABLED;
#X obj 462 357 cnv 15 200 20 empty empty /pingpong/ 2 12 0 8 -258401
-262144 0;
#X text 260 328 <-Click on the propeties menu to display params;
#X text 718 33 tags: fx~;
#X obj 350 75 tof/open_help tof/param;
#X obj 463 387 hsl 100 15 0 1 0 0 /pingpong/wet /pingpong/wet_ wet
105 7 0 8 -262144 -1 -1 0 1;
#X text 762 87 .;
#X text 718 15 pingpong~;
#X obj 115 104 noise~;
#X obj 97 124 *~;
#X obj 175 274 sig~ 0;
#X obj 182 165 vsl 15 100 0 2000 0 0 empty empty delay_time(ms) -10
-9 1 10 -262144 -1 -1 0 1;
#X obj 167 124 *~;
#X obj 185 104 osc~ 880;
#X obj 257 277 sig~ 0;
#X obj 272 165 vsl 15 100 0 2000 0 0 empty empty delay_time(ms) -10
-9 1 10 -262144 -1 -1 0 1;
#X obj 94 77 vline~;
#X obj 94 14 bng 24 250 50 0 empty empty empty 17 7 0 10 -4034 -1 -1
;
#X msg 94 52 0.8 10 \, 0 20 10;
#X obj 463 406 hsl 100 15 10 5000 0 0 /pingpong/delayfreq1 /pingpong/delayfreq1_
delayfreq1 105 7 0 8 -262144 -1 -1 0 1;
#X text 720 50 Rldj;
#X obj 464 425 hsl 100 15 10 5000 0 0 /pingpong/delayfreq2 /pingpong/delayfreq2_
delayfreq2 105 7 0 8 -262144 -1 -1 0 1;
#X obj 465 444 hsl 100 15 0 10000 0 0 /pingpong/lpfreq1 /pingpong/lpfreq1_
lpfreq1 105 7 0 8 -262144 -1 -1 0 1;
#X obj 465 463 hsl 100 15 0 10000 0 0 /pingpong/lpfreq2 /pingpong/lpfreq2_
lpfreq2 105 7 0 8 -262144 -1 -1 0 1;
#X obj 465 481 hsl 100 15 0 1 0 0 /pingpong/feedback1 /pingpong/feedback1_
feedback1 105 7 0 8 -262144 -1 -1 0 1;
#X obj 465 500 hsl 100 15 0 1 0 0 /pingpong/feedback2 /pingpong/feedback2_
feedback2 105 7 0 8 -262144 -1 -1 0 1;
#X obj 465 519 hsl 100 15 0 1 0 0 /pingpong/x-feedback1 /pingpong/x-feedback1_
x-feedback1 105 7 0 8 -262144 -1 -1 0 1;
#X obj 465 538 hsl 100 15 0 1 0 0 /pingpong/x-feedback2 /pingpong/x-feedback2_
x-feedback2 105 7 0 8 -262144 -1 -1 0 1;
#X obj 57 327 atl/pingpong~ /id pingpong;
#N canvas 60 83 827 710 REFERENCE 0;
#X text 114 501 See also:;
#X text 114 121 Name: e_pingpong;
#X text 114 141 Summary: pingpong feedback delay line with lowpass
filtered feedback path.;
#X text 114 275 Inlet 2: Delay time left (audio rate);
#X text 114 295 Inlet 3: Delay time right (audio rate);
#X text 114 234 Inlet 0: Audio input channel left;
#X text 114 254 Inlet 1: Audio input channel right;
#X text 114 360 Outlet 1: Audio output channel right;
#X text 114 340 Outlet 0: Audio output channel left;
#X text 114 526 Tags: Audio;
#X text 114 461 WARNING: For stable operation the sum of direct feedback
and cross-feedback on each channel must not be greater than 1;
#X text 114 384 Description: A flexible stereo feedback delay unit
with lowpass filtered feedback path. Set left and right channel delay
times independently either as signals to Inlet 2 & 3 respectively or
as control messages to Inlet 4 Cross-feedback between left and right
channels can also be introduced.;
#X text 114 181;
#X text 114 211;
#X text 114 315;
#X coords 0 -1 1 1 450 450 1 100 100;
#X restore 724 87 pd REFERENCE;
#X connect 11 0 12 1;
#X connect 12 0 31 0;
#X connect 13 0 31 2;
#X connect 14 0 13 0;
#X connect 15 0 31 1;
#X connect 16 0 15 1;
#X connect 17 0 31 3;
#X connect 18 0 17 0;
#X connect 19 0 12 0;
#X connect 19 0 16 0;
#X connect 20 0 21 0;
#X connect 21 0 19 0;
#X connect 31 0 1 0;
#X connect 31 1 1 1;
