#N canvas 0 0 1272 714 10;
#X obj 135 474 outlet~;
#X obj 184 474 outlet~;
#X obj 159 282 tof/crossfade~ 2;
#X obj 629 181 inlet params;
#X obj 629 227 print PARAM_NOTFOUND;
#X obj 422 119 tof/param /wet 0 /g slider 0 1;
#X obj 326 251 line~;
#X msg 326 230 \$1 5;
#X obj 629 203 tof/param route;
#X obj 622 258 b;
#X obj 623 287 tof/param gui;
#N canvas 593 32 687 714 pitchshift 0;
#X obj 121 313 phasor~;
#X obj 105 354 *~ -1;
#X obj 105 379 +~ 1;
#X obj 198 514 sig~ 1;
#X obj 263 513 cos~;
#X obj 199 538 -~;
#X obj 200 563 *~ 0.5;
#X obj 122 582 *~;
#X obj 164 426 samphold~;
#X obj 122 447 *~;
#X obj 165 398 sig~;
#X obj 280 214 t b f;
#X obj 203 267 / 44.1;
#X obj 356 339 *~ -1;
#X obj 357 364 +~ 1;
#X obj 426 514 sig~ 1;
#X obj 490 514 cos~;
#X obj 427 538 -~;
#X obj 428 563 *~ 0.5;
#X obj 357 583 *~;
#X obj 391 421 samphold~;
#X obj 357 448 *~;
#X obj 392 393 sig~;
#X obj 353 291 +~ 0.5;
#X obj 353 313 wrap~;
#X obj 194 152 t b f;
#X obj 152 244 expr (pow(2 \, ($f2/12)) - 1) * (44100/$f1);
#X obj 178 23 inlet~;
#X obj 121 660 outlet~;
#X obj 323 85 inlet;
#X obj 376 33 loadbang;
#X msg 382 84 8192;
#X obj 177 54 delwrite~ \$0-b2 5000;
#X obj 122 492 vd~ \$0-b2;
#X obj 356 493 vd~ \$0-b2;
#X obj 452 95 f 1;
#X obj 507 43 t b b;
#X floatatom 105 201 10 0 0 0 - - -;
#X connect 0 0 1 0;
#X connect 0 0 4 0;
#X connect 0 0 8 1;
#X connect 0 0 23 0;
#X connect 1 0 2 0;
#X connect 2 0 9 0;
#X connect 3 0 5 0;
#X connect 4 0 5 1;
#X connect 5 0 6 0;
#X connect 6 0 7 1;
#X connect 7 0 28 0;
#X connect 8 0 9 1;
#X connect 9 0 33 0;
#X connect 10 0 8 0;
#X connect 11 0 37 0;
#X connect 11 1 26 1;
#X connect 12 0 10 0;
#X connect 12 0 22 0;
#X connect 13 0 14 0;
#X connect 14 0 21 0;
#X connect 15 0 17 0;
#X connect 16 0 17 1;
#X connect 17 0 18 0;
#X connect 18 0 19 1;
#X connect 19 0 28 0;
#X connect 20 0 21 1;
#X connect 21 0 34 0;
#X connect 22 0 20 0;
#X connect 23 0 24 0;
#X connect 24 0 13 0;
#X connect 24 0 20 1;
#X connect 24 0 16 0;
#X connect 25 0 11 0;
#X connect 25 1 26 0;
#X connect 25 1 37 0;
#X connect 26 0 0 0;
#X connect 27 0 32 0;
#X connect 29 0 11 0;
#X connect 30 0 36 0;
#X connect 31 0 25 0;
#X connect 33 0 7 0;
#X connect 34 0 19 0;
#X connect 35 0 11 0;
#X connect 36 0 35 0;
#X connect 36 1 31 0;
#X connect 37 0 26 0;
#X connect 37 0 12 0;
#X restore 178 168 pd pitchshift;
#X obj 148 76 inlet~;
#X obj 216 77 inlet~;
#X obj 330 81 tof/param /pitch 0 /g slider -12 12;
#N canvas 593 32 687 714 pitchshift 0;
#X obj 121 313 phasor~;
#X obj 105 354 *~ -1;
#X obj 105 379 +~ 1;
#X obj 198 514 sig~ 1;
#X obj 263 513 cos~;
#X obj 199 538 -~;
#X obj 200 563 *~ 0.5;
#X obj 122 582 *~;
#X obj 164 426 samphold~;
#X obj 122 447 *~;
#X obj 165 398 sig~;
#X obj 280 214 t b f;
#X obj 203 267 / 44.1;
#X obj 356 339 *~ -1;
#X obj 357 364 +~ 1;
#X obj 426 514 sig~ 1;
#X obj 490 514 cos~;
#X obj 427 538 -~;
#X obj 428 563 *~ 0.5;
#X obj 357 583 *~;
#X obj 391 421 samphold~;
#X obj 357 448 *~;
#X obj 392 393 sig~;
#X obj 353 291 +~ 0.5;
#X obj 353 313 wrap~;
#X obj 194 152 t b f;
#X obj 152 244 expr (pow(2 \, ($f2/12)) - 1) * (44100/$f1);
#X obj 178 23 inlet~;
#X obj 121 660 outlet~;
#X obj 323 85 inlet;
#X obj 376 33 loadbang;
#X msg 382 84 8192;
#X obj 452 95 f 1;
#X obj 507 43 t b b;
#X floatatom 105 201 10 0 0 0 - - -;
#X obj 122 492 vd~ \$0-b2-g;
#X obj 357 493 vd~ \$0-b2-g;
#X obj 177 54 delwrite~ \$0-b2-g 5000;
#X connect 0 0 1 0;
#X connect 0 0 4 0;
#X connect 0 0 8 1;
#X connect 0 0 23 0;
#X connect 1 0 2 0;
#X connect 2 0 9 0;
#X connect 3 0 5 0;
#X connect 4 0 5 1;
#X connect 5 0 6 0;
#X connect 6 0 7 1;
#X connect 7 0 28 0;
#X connect 8 0 9 1;
#X connect 9 0 35 0;
#X connect 10 0 8 0;
#X connect 11 0 34 0;
#X connect 11 1 26 1;
#X connect 12 0 10 0;
#X connect 12 0 22 0;
#X connect 13 0 14 0;
#X connect 14 0 21 0;
#X connect 15 0 17 0;
#X connect 16 0 17 1;
#X connect 17 0 18 0;
#X connect 18 0 19 1;
#X connect 19 0 28 0;
#X connect 20 0 21 1;
#X connect 21 0 36 0;
#X connect 22 0 20 0;
#X connect 23 0 24 0;
#X connect 24 0 13 0;
#X connect 24 0 20 1;
#X connect 24 0 16 0;
#X connect 25 0 11 0;
#X connect 25 1 26 0;
#X connect 25 1 34 0;
#X connect 26 0 0 0;
#X connect 27 0 37 0;
#X connect 29 0 11 0;
#X connect 30 0 33 0;
#X connect 31 0 25 0;
#X connect 32 0 11 0;
#X connect 33 0 32 0;
#X connect 33 1 31 0;
#X connect 34 0 26 0;
#X connect 34 0 12 0;
#X connect 35 0 7 0;
#X connect 36 0 19 0;
#X restore 277 168 pd pitchshift;
#X connect 2 0 0 0;
#X connect 2 1 1 0;
#X connect 3 0 8 0;
#X connect 5 0 7 0;
#X connect 6 0 2 4;
#X connect 7 0 6 0;
#X connect 8 0 4 0;
#X connect 9 0 10 0;
#X connect 11 0 2 2;
#X connect 12 0 2 0;
#X connect 12 0 11 0;
#X connect 13 0 2 1;
#X connect 13 0 15 0;
#X connect 14 0 11 1;
#X connect 14 0 15 1;
#X connect 15 0 2 3;
