#N canvas 671 129 1242 850 10;
#X obj 33 21 inlet~;
#X obj 951 16 inlet params;
#X obj 951 62 print PARAM_NOTFOUND;
#X obj 951 38 tof/param route;
#X obj 954 87 b;
#X obj 954 107 tof/param gui;
#X obj 280 475 fiddle~;
#X obj 250 300 bp~ 220 1;
#X obj 302 279 nbx 5 14 0 20 0 1 empty empty empty 0 -6 0 10 -262144
-1 -1 20 256;
#X floatatom 137 571 5 0 0 0 - - -;
#X text 175 571 fidelity;
#N canvas 37 160 667 661 user-parameters 0;
#X obj 45 167 vradio 15 1 1 4 empty empty empty 0 -8 0 10 -262144 -260097
-1 0;
#N canvas 0 22 167 265 overlap 0;
#X obj 29 35 inlet;
#X obj 29 195 outlet;
#X obj 29 130 pow;
#X obj 29 70 t b f;
#X msg 29 102 2;
#X msg 29 162 overlap \$1;
#X connect 0 0 3 0;
#X connect 2 0 5 0;
#X connect 3 0 4 0;
#X connect 3 1 2 1;
#X connect 4 0 2 0;
#X connect 5 0 1 0;
#X restore 45 238 pd overlap;
#N canvas 775 343 284 292 framesize 0;
#X obj 29 14 inlet;
#X obj 29 242 outlet;
#X obj 29 119 pow;
#X obj 29 64 t b f;
#X msg 29 91 2;
#X msg 29 198 framesize \$1;
#X obj 43 173 s \$0-framesize;
#X floatatom 53 144 5 0 0 0 - - -;
#X obj 159 163 samplerate~;
#X obj 159 136 t b f;
#X obj 159 191 /;
#X obj 159 245 outlet;
#X obj 159 219 * 1.2;
#X obj 29 41 + 7;
#X connect 0 0 13 0;
#X connect 2 0 5 0;
#X connect 2 0 6 0;
#X connect 2 0 7 0;
#X connect 2 0 9 0;
#X connect 3 0 4 0;
#X connect 3 1 2 1;
#X connect 4 0 2 0;
#X connect 5 0 1 0;
#X connect 8 0 10 0;
#X connect 9 0 8 0;
#X connect 9 1 10 1;
#X connect 10 0 12 0;
#X connect 12 0 11 0;
#X connect 13 0 3 0;
#X restore 29 88 pd framesize;
#X obj 29 4 vradio 15 1 1 5 empty empty empty 0 -8 0 10 -262144 -260097
-1 3;
#X text 50 19 256;
#X text 50 35 512;
#X text 49 65 2048;
#X text 67 182 2;
#X text 67 214 8;
#X text 67 199 4;
#X obj 29 607 outlet;
#X floatatom 98 118 5 0 0 0 - - -;
#X text 49 50 1024 (default);
#X text 67 166 1 (default);
#X text 292 84 Overlapping analysis frames can be used for a finer
rate of pitch messages. This may be useful in the case of longer analysis
frames. Note that overlap multiplies the object's CPU load.;
#X msg 124 423 bias \$1;
#X obj 127 397 hsl 100 15 0 1 0 0 empty empty empty -2 -8 0 10 -262144
-260097 -1 1980 0;
#X floatatom 182 423 5 0 0 0 - - -;
#X text 287 382 Bias (range 0 - 1) is used to favour the first peaks
found in the SNAC function. If bias is set to a higher level \, you
are more likely to experience upper octave jumps. If bias is set to
a low level \, low octave jumps are more likely to happen. Set bias
according to your input material. For example \, for a sound type with
weak fundamental \, bias is better not set too high. Default is 0.2.
;
#X obj 126 476 hsl 100 15 0 1 0 0 empty empty empty -2 -8 0 10 -262144
-260097 -1 0 0;
#X floatatom 201 506 5 0 0 0 - - -;
#X msg 123 506 fidelity \$1;
#X text 287 489 Fidelity (range 0 - 1 ) determines the fidelity threshold
required for new pitch information to get through. Fidelity is an indication
of how periodic a sound is (as opposed to noisy \, not periodic). Default
is 0.95.;
#X text 292 -9 Analysis framesize determines the lowest pitch which
can be detected \, corresponding to a period ~1.2 times the framesize.
Framesize also determines latency of the pitch info. Note that reported
pitch is the average pitch of an analysis frame. Framesize is always
a power of two \, because FFT is used for efficiency.;
#X text 168 141 lowest detectable pitch (Hz);
#X obj 127 562 hsl 100 15 0 2000 0 0 empty empty empty -2 -8 0 10 -262144
-260097 -1 0 0;
#X floatatom 199 591 5 0 0 0 - - -;
#X msg 124 590 maxfreq \$1;
#X text 288 560 Maxfreq is the maximum frequency which will possibly
be reported by [helmholtz~]. Default is 2000 Set it lower if you experience
harmonic interference components such as from cellphones.;
#X text 50 2 128;
#X text 293 188 1 - analysis frame size (128 \, 256 \, 512 \, 1024
or 2048);
#X text 293 210 2 - overlap (1 \, 2 \, 4 or 8);
#X text 292 161 Optional initialisation arguments are:;
#X obj 142 119 outlet;
#X msg 124 372 0.2;
#X msg 123 452 0.95;
#X obj 61 276 loadbang;
#X obj 127 318 hsl 100 15 0 100 0 0 empty empty empty -2 -8 0 10 -262144
-260097 -1 4950 0;
#X floatatom 182 344 5 0 0 0 - - -;
#X msg 124 344 sens \$1;
#X msg 124 293 50;
#X text 288 305 Sens (sensitivity) determines a minimum sound level
where [helmholtz~] is sensitive for pitch. If your input sound has
a lot of artifacts (hum \, interference \, colored noise) \, set sens
to a higher dB level. Default is 50 dB (pd deciBels).;
#X text 290 261 ++++++++++++++++++++++++++++++++++++++++++++++++++++++++++
;
#X msg 124 540 2000;
#X connect 0 0 1 0;
#X connect 1 0 10 0;
#X connect 2 0 10 0;
#X connect 2 1 11 0;
#X connect 2 1 33 0;
#X connect 3 0 2 0;
#X connect 15 0 10 0;
#X connect 16 0 15 0;
#X connect 16 0 17 0;
#X connect 19 0 21 0;
#X connect 19 0 20 0;
#X connect 21 0 10 0;
#X connect 25 0 27 0;
#X connect 25 0 26 0;
#X connect 27 0 10 0;
#X connect 34 0 16 0;
#X connect 35 0 19 0;
#X connect 36 0 34 0;
#X connect 36 0 40 0;
#X connect 37 0 39 0;
#X connect 37 0 38 0;
#X connect 39 0 10 0;
#X connect 40 0 37 0;
#X connect 43 0 25 0;
#X restore 42 472 pd user-parameters;
#X obj 41 545 helmholtz~ 1024 1;
#X floatatom 159 473 5 0 0 0 - - -;
#X text 64 492 lowest detectable pitch (Hz);
#X text 65 511 depends on analysis size;
#X obj 795 486 sigmund~ -npeak 9 tracks;
#X obj 795 508 route 0 1 2 3 4 5 6 7 8;
#X obj 980 503 hsl 128 15 0 127 0 1 empty empty empty -2 -8 0 10 -262144
-1 -1 1100 1;
#X text 970 479 Set ramp time for sineoscs;
#N canvas 1300 564 450 300 sineosc~ 0;
#X obj 119 49 inlet;
#X obj 113 210 osc~;
#X obj 153 236 *~;
#X obj 235 159 line~;
#X obj 235 131 pack 0 10;
#X obj 114 131 pack 0 10;
#X obj 114 156 line~;
#X text 252 259 Send it back to the global audio output summing bus
;
#X obj 117 82 unpack f f f;
#X obj 153 261 outlet~;
#X obj 358 106 inlet;
#X connect 0 0 8 0;
#X connect 1 0 2 0;
#X connect 2 0 9 0;
#X connect 3 0 2 1;
#X connect 4 0 3 0;
#X connect 5 0 6 0;
#X connect 6 0 1 0;
#X connect 8 0 5 0;
#X connect 8 1 4 0;
#X connect 10 0 4 1;
#X connect 10 0 5 1;
#X restore 799 538 pd sineosc~;
#N canvas 1302 563 450 300 sineosc~ 0;
#X obj 119 49 inlet;
#X obj 113 210 osc~;
#X obj 153 236 *~;
#X obj 235 159 line~;
#X obj 235 131 pack 0 10;
#X obj 114 131 pack 0 10;
#X obj 114 156 line~;
#X text 252 259 Send it back to the global audio output summing bus
;
#X obj 117 82 unpack f f f;
#X obj 153 261 outlet~;
#X obj 358 106 inlet;
#X connect 0 0 8 0;
#X connect 1 0 2 0;
#X connect 2 0 9 0;
#X connect 3 0 2 1;
#X connect 4 0 3 0;
#X connect 5 0 6 0;
#X connect 6 0 1 0;
#X connect 8 0 5 0;
#X connect 8 1 4 0;
#X connect 10 0 4 1;
#X connect 10 0 5 1;
#X restore 876 536 pd sineosc~;
#N canvas 1302 563 450 300 sineosc~ 0;
#X obj 119 49 inlet;
#X obj 113 210 osc~;
#X obj 153 236 *~;
#X obj 235 159 line~;
#X obj 235 131 pack 0 10;
#X obj 114 131 pack 0 10;
#X obj 114 156 line~;
#X text 252 259 Send it back to the global audio output summing bus
;
#X obj 117 82 unpack f f f;
#X obj 153 261 outlet~;
#X obj 358 106 inlet;
#X connect 0 0 8 0;
#X connect 1 0 2 0;
#X connect 2 0 9 0;
#X connect 3 0 2 1;
#X connect 4 0 3 0;
#X connect 5 0 6 0;
#X connect 6 0 1 0;
#X connect 8 0 5 0;
#X connect 8 1 4 0;
#X connect 10 0 4 1;
#X connect 10 0 5 1;
#X restore 959 537 pd sineosc~;
#X obj 570 518 dbtorms;
#X obj 591 485 sigmund~ notes -stabletime 100;
#X obj 36 184 demux~ . .;
#X obj 37 235 demux~ . . . .;
#X obj 37 376 demux~ . . . . .;
#X obj 297 522 unpack;
#X obj 49 689 outlet pitch;
#X obj 147 689 outlet amplitude;
#X obj 281 398 loadbang;
#X msg 297 447 amp-range 38 86;
#X msg 298 425 npoints 2048;
#X obj -51 622 envrms~;
#X obj -51 598 delay~ 2048 1024;
#X obj 0 569 r \$0-framesize;
#X obj 550 637 fton 440;
#X obj 546 658 outlet note;
#X obj 622 657 outlet octave;
#X obj 707 656 outlet dev;
#X obj 705 512 envrms~;
#X obj 783 654 outlet peaks;
#X obj 92 208 mtl/noisegate~ /id ptng;
#X msg 227 181 /thresold \$1;
#X obj 377 35 tof/param /noisegateThreshold 50 /g nbx;
#X obj 378 13 tof/param /noisegateOn 1 /g tgl;
#X obj 377 56 tof/param /filter 0 /g nbx;
#X obj 448 302 hp6_cheb~;
#X obj 34 127 hip~ 160;
#X obj 67 301 lp6_cheb~ 3000;
#X obj 385 158 tof/param /pitchMethod 0 /g nbx;
#X msg 48 524 fidelity \$1;
#X obj 380 185 tof/param /helmholtzFidelity 0.9 /g slider 0 1;
#X obj 379 207 tof/param /helmholtzFrameSize 3 /g nbx;
#N canvas 775 343 284 292 framesize 0;
#X obj 29 14 inlet;
#X obj 29 242 outlet;
#X obj 29 119 pow;
#X obj 29 64 t b f;
#X msg 29 91 2;
#X msg 29 198 framesize \$1;
#X obj 43 173 s \$0-framesize;
#X floatatom 53 144 5 0 0 0 - - -;
#X obj 159 163 samplerate~;
#X obj 159 136 t b f;
#X obj 159 191 /;
#X obj 159 245 outlet;
#X obj 159 219 * 1.2;
#X obj 29 41 + 7;
#X connect 0 0 13 0;
#X connect 2 0 5 0;
#X connect 2 0 6 0;
#X connect 2 0 7 0;
#X connect 2 0 9 0;
#X connect 3 0 4 0;
#X connect 3 1 2 1;
#X connect 4 0 2 0;
#X connect 5 0 1 0;
#X connect 8 0 10 0;
#X connect 9 0 8 0;
#X connect 9 1 10 1;
#X connect 10 0 12 0;
#X connect 12 0 11 0;
#X connect 13 0 3 0;
#X restore 174 525 pd framesize;
#X floatatom 218 544 5 0 0 0 - - -;
#X msg 123 525 sens \$1;
#X obj 384 77 tof/param /filterLP 3000 /g nbx;
#X obj 382 117 tof/param /filterBP 10000 /g nbx;
#X obj 382 139 tof/param /filterBPReso 10 /g nbx;
#X obj 381 96 tof/param /filterHP 474 /g nbx;
#X obj 55 623 ftom;
#X obj 549 615 mtof;
#X obj 784 624 spigot;
#X obj 834 599 == 4;
#X obj 853 630 tgl 15 0 empty empty empty 17 7 0 10 -262144 -1 -1 0
1;
#X obj 55 649 multiplex . . . .;
#X obj 189 650 multiplex . . . .;
#X obj 418 528 envrms~;
#X msg -24 523 maxfreq \$1;
#X obj 379 228 tof/param /helmholtzMaxFreq 2000 /g nbx;
#X obj 608 602 moses 0;
#X obj 411 479 sigmund~ -hop 2048 pitch env;
#X connect 0 0 49 0;
#X connect 1 0 3 0;
#X connect 3 0 2 0;
#X connect 4 0 5 0;
#X connect 6 2 28 0;
#X connect 7 0 27 0;
#X connect 8 0 7 2;
#X connect 11 0 12 0;
#X connect 11 1 13 0;
#X connect 12 1 62 0;
#X connect 12 2 9 0;
#X connect 16 0 17 0;
#X connect 16 0 64 0;
#X connect 17 0 20 0;
#X connect 17 1 21 0;
#X connect 17 2 22 0;
#X connect 18 0 20 1;
#X connect 18 0 21 1;
#X connect 18 0 22 1;
#X connect 23 0 68 2;
#X connect 24 0 67 3;
#X connect 25 0 26 0;
#X connect 25 1 43 0;
#X connect 26 0 27 0;
#X connect 26 1 50 0;
#X connect 26 2 7 0;
#X connect 26 3 48 0;
#X connect 27 0 12 0;
#X connect 27 0 35 0;
#X connect 27 1 6 0;
#X connect 27 1 69 0;
#X connect 27 2 73 0;
#X connect 27 3 24 0;
#X connect 27 3 41 0;
#X connect 27 4 16 0;
#X connect 28 0 67 1;
#X connect 31 0 32 0;
#X connect 31 0 33 0;
#X connect 32 0 6 0;
#X connect 33 0 6 0;
#X connect 34 0 68 0;
#X connect 35 0 34 0;
#X connect 36 0 35 1;
#X connect 37 0 38 0;
#X connect 37 1 39 0;
#X connect 37 2 40 0;
#X connect 41 0 68 3;
#X connect 43 0 26 0;
#X connect 44 0 43 2;
#X connect 45 0 44 0;
#X connect 45 0 57 0;
#X connect 46 0 25 0;
#X connect 47 0 26 0;
#X connect 48 0 27 0;
#X connect 49 0 25 0;
#X connect 50 0 27 0;
#X connect 51 0 27 0;
#X connect 51 0 65 0;
#X connect 51 0 67 4;
#X connect 51 0 68 4;
#X connect 52 0 12 0;
#X connect 53 0 52 0;
#X connect 54 0 55 0;
#X connect 55 0 12 0;
#X connect 55 1 56 0;
#X connect 57 0 12 0;
#X connect 58 0 50 1;
#X connect 59 0 7 1;
#X connect 60 0 7 2;
#X connect 61 0 48 1;
#X connect 62 0 67 0;
#X connect 63 0 37 0;
#X connect 64 0 42 0;
#X connect 65 0 66 0;
#X connect 66 0 64 1;
#X connect 67 0 29 0;
#X connect 67 0 72 0;
#X connect 68 0 30 0;
#X connect 69 0 68 1;
#X connect 70 0 12 0;
#X connect 71 0 70 0;
#X connect 72 1 63 0;
#X connect 73 0 67 2;
#X connect 73 1 23 0;
