#N canvas 92 159 1345 709 10;
#X obj 268 176 change~;
#X obj 268 219 -~ 1;
#X obj 268 239 abs~;
#X obj 269 132 clip~ -1 1;
#X obj 222 238 sig~ 1;
#X obj 236 262 rpole~;
#X obj 235 307 *~;
#X obj 234 329 lop~ 20;
#X obj 270 106 *~ 1e+07;
#X obj 268 197 fexpr~ $x1==1;
#X obj 268 155 fexpr~ $x1>=0;
#X obj 233 356 q8_sqrt~;
#X obj 419 396 samplerate~;
#X obj 419 372 loadbang;
#X obj 232 382 fexpr~ $x2/$x1;
#X obj 419 441 sig~;
#X obj 419 418 * 0.584;
#X floatatom 285 295 5 0 30 0 - - -;
#X text 328 292 higher number less glissando \, more vibrato :-);
#X text 369 70 "instantanenous" pitch follower. monophonic. based on
amplitude measuring of a gr-300 emulation i made. it's not perfect
and very simple. beware i'm a musician not a programmer. sorry for
any mistakes :-);
#X text 476 417 <-- this number is an obstacle to me. it needs some
adjusting depending on the input frequency to be in tune.;
#X obj 270 78 inlet~;
#X obj 329 545 outlet;
#X obj 329 498 ftom;
#X obj 329 521 mtl/round;
#X obj 233 486 mtl/round;
#X obj 233 511 - 1.5;
#X obj 233 537 mtl/round;
#X obj 233 584 outlet;
#X obj 233 562 change;
#X obj 233 454 cyclone/Snapshot~ 100;
#X text 24 -8 patch by Simon Iten;
#X text 25 7 modified by Patrick Sebastien;
#X obj 345 264 inlet;
#X connect 0 0 9 0;
#X connect 1 0 2 0;
#X connect 2 0 5 1;
#X connect 3 0 10 0;
#X connect 4 0 5 0;
#X connect 5 0 6 0;
#X connect 5 0 6 1;
#X connect 6 0 7 0;
#X connect 7 0 11 0;
#X connect 8 0 3 0;
#X connect 9 0 1 0;
#X connect 10 0 0 0;
#X connect 11 0 14 0;
#X connect 12 0 16 0;
#X connect 13 0 12 0;
#X connect 14 0 30 0;
#X connect 15 0 14 1;
#X connect 16 0 15 0;
#X connect 17 0 7 1;
#X connect 21 0 8 0;
#X connect 23 0 24 0;
#X connect 24 0 22 0;
#X connect 25 0 26 0;
#X connect 26 0 27 0;
#X connect 27 0 29 0;
#X connect 29 0 28 0;
#X connect 29 0 23 0;
#X connect 30 0 25 0;
#X connect 33 0 7 1;
