#N canvas 680 234 991 431 10;
#X obj 31 146 mtl/pitchTracker~ /id pt;
#X floatatom 31 172 5 0 0 0 - - -;
#X floatatom 68 173 5 0 0 0 - - -;
#X floatatom 176 173 5 0 0 0 - - -;
#X floatatom 215 173 5 0 0 0 - - -;
#X symbolatom 109 173 10 0 0 0 - - -;
#X text 14 47 tags: info~;
#X obj 30 81 tgl 15 0 empty empty empty 17 7 0 10 -262144 -1 -1 0 1
;
#N canvas 5 185 450 300 generate~ 0;
#X obj 32 213 osc~ 200;
#X obj 32 89 metro 400;
#X obj 32 175 mtof;
#X obj 104 195 mtof;
#X obj 32 132 + 20;
#X obj 32 111 random 70;
#X floatatom 83 69 5 0 0 0 - - -;
#X obj 32 261 outlet~;
#X obj 103 261 outlet~;
#X obj 30 14 inlet;
#X obj 104 175 mtl/closestNote 0 2 4 7 9;
#X obj 104 234 *~;
#X obj 31 234 *~;
#X obj 104 214 osc~ 100;
#X obj 32 155 mtl/closestNote 0 2 4 7 9;
#X connect 0 0 12 0;
#X connect 1 0 5 0;
#X connect 2 0 0 0;
#X connect 3 0 13 0;
#X connect 4 0 10 0;
#X connect 4 0 14 0;
#X connect 5 0 4 0;
#X connect 6 0 1 1;
#X connect 9 0 1 0;
#X connect 9 0 11 1;
#X connect 9 0 12 1;
#X connect 10 0 3 0;
#X connect 11 0 8 0;
#X connect 12 0 7 0;
#X connect 13 0 11 0;
#X connect 14 0 2 0;
#X restore 30 106 pd generate~;
#X obj 31 245 osc~;
#X obj 32 295 mtl/out~;
#X obj 31 219 mtof;
#X text 14 6 Description:multiple externals for pitch tracking with
noisegate and filters. needs the compilation of http://www.katjaas.nl/helmholtz/helmholtz.html
;
#X obj 380 10 cnv 15 200 40 empty empty empty 20 12 0 14 -232576 -66577
0;
#X text 440 11 PARAM ENABLED;
#X obj 379 33 tof/open_help tof/param;
#X obj 382 73 cnv 15 200 20 empty empty /pt/ 2 12 0 8 -258401 -262144
0;
#X obj 382 96 hsl 100 15 0 100 0 0 /pt/ptng/thresold /pt/ptng/thresold_
ptng/thresold 105 7 0 8 -262144 -1 -1 4950 1;
#X obj 382 114 hsl 100 15 0 1000 0 0 /pt/ptng/attack /pt/ptng/attack_
ptng/attack 105 7 0 8 -262144 -1 -1 990 1;
#X obj 382 132 hsl 100 15 0 1000 0 0 /pt/ptng/decay /pt/ptng/decay_
ptng/decay 105 7 0 8 -262144 -1 -1 990 1;
#X obj 382 150 nbx 5 14 -1e+37 1e+37 0 0 /pt/noisegateThreshold /pt/noisegateThreshold_
noisegateThreshold 50 8 0 8 -262144 -1 -1 50 256;
#X obj 382 168 tgl 15 0 /pt/noisegateOn /pt/noisegateOn_ noisegateOn
17 7 0 8 -262144 -166441 -1 1 1;
#X obj 382 192 nbx 5 14 -1e+37 1e+37 0 0 /pt/filter /pt/filter_ filter
50 8 0 8 -262144 -1 -1 0 256;
#X obj 382 210 nbx 5 14 -1e+37 1e+37 0 0 /pt/pitchMethod /pt/pitchMethod_
pitchMethod 50 8 0 8 -262144 -1 -1 4 256;
#X obj 382 244 hsl 100 15 0 1 0 0 /pt/helmholtzFidelity /pt/helmholtzFidelity_
helmholtzFidelity 105 7 0 8 -262144 -1 -1 8910 1;
#X obj 382 262 nbx 5 14 -1e+37 1e+37 0 0 /pt/helmholtzFrameSize /pt/helmholtzFrameSize_
helmholtzFrameSize 50 8 0 8 -262144 -1 -1 3 256;
#X obj 382 310 nbx 5 14 -1e+37 1e+37 0 0 /pt/filterLP /pt/filterLP_
filterLP 50 8 0 8 -262144 -1 -1 3000 256;
#X obj 382 328 nbx 5 14 -1e+37 1e+37 0 0 /pt/filterBP /pt/filterBP_
filterBP 50 8 0 8 -262144 -1 -1 10000 256;
#X obj 382 346 nbx 5 14 -1e+37 1e+37 0 0 /pt/filterBPReso /pt/filterBPReso_
filterBPReso 50 8 0 8 -262144 -1 -1 10 256;
#X obj 382 364 nbx 5 14 -1e+37 1e+37 0 0 /pt/filterHP /pt/filterHP_
filterHP 50 8 0 8 -262144 -1 -1 474 256;
#X text 596 240 output only when fidelity is higher than;
#X text 599 192 0 = off 1 = lp 2 bp 3 = hp;
#X text 598 209 0 = helmholtz 1 = fiddle 2 = sigmund 3 = sigmund note
4 = sigmund peaks;
#X text 598 259 0 = 128 1 = 256 2 = 512 3 = 1024 4 = 2048;
#X obj 381 282 nbx 5 14 -1e+37 1e+37 0 0 /pt/helmholtzMaxFreq /pt/helmholtzMaxFreq_
helmholtzMaxFreq 50 8 0 8 -262144 -1 -1 2000 256;
#X obj 32 267 multiplex~ . .;
#X obj 131 271 == 4;
#X obj 208 87 openpanel;
#X obj 208 67 bng 15 250 50 0 empty empty empty 17 7 0 10 -262144 -1
-1;
#X msg 157 88 read \$1;
#X obj 117 109 mtl/player~ 0;
#X obj 117 89 t b a;
#N canvas 1048 628 450 300 synth 0;
#X obj 206 59 inlet;
#X obj 68 264 outlet~;
#X obj 52 93 route 0 1 2 3 4 5 6 7 8;
#X obj 226 99 hsl 128 15 0 127 0 1 empty empty empty -2 -8 0 10 -262144
-1 -1 9600 1;
#X text 221 83 Set ramp time for sineoscs;
#N canvas 1298 565 450 300 sineosc~ 0;
#X obj 119 49 inlet;
#X obj 113 210 osc~;
#X obj 153 236 *~;
#X obj 235 159 line~;
#X obj 235 131 pack 0 10;
#X obj 114 131 pack 0 10;
#X obj 114 156 line~;
#X text 252 259 Send it back to the global audio output summing bus
;
#X obj 117 82 unpack f f f;
#X obj 153 261 outlet~;
#X obj 358 106 inlet;
#X connect 0 0 8 0;
#X connect 1 0 2 0;
#X connect 2 0 9 0;
#X connect 3 0 2 1;
#X connect 4 0 3 0;
#X connect 5 0 6 0;
#X connect 6 0 1 0;
#X connect 8 0 5 0;
#X connect 8 1 4 0;
#X connect 10 0 4 1;
#X connect 10 0 5 1;
#X restore 52 115 pd sineosc~;
#N canvas 1302 563 450 300 sineosc~ 0;
#X obj 119 49 inlet;
#X obj 113 210 osc~;
#X obj 153 236 *~;
#X obj 235 159 line~;
#X obj 235 131 pack 0 10;
#X obj 114 131 pack 0 10;
#X obj 114 156 line~;
#X text 252 259 Send it back to the global audio output summing bus
;
#X obj 117 82 unpack f f f;
#X obj 153 261 outlet~;
#X obj 358 106 inlet;
#X connect 0 0 8 0;
#X connect 1 0 2 0;
#X connect 2 0 9 0;
#X connect 3 0 2 1;
#X connect 4 0 3 0;
#X connect 5 0 6 0;
#X connect 6 0 1 0;
#X connect 8 0 5 0;
#X connect 8 1 4 0;
#X connect 10 0 4 1;
#X connect 10 0 5 1;
#X restore 126 116 pd sineosc~;
#N canvas 1302 563 450 300 sineosc~ 0;
#X obj 119 49 inlet;
#X obj 113 210 osc~;
#X obj 153 236 *~;
#X obj 235 159 line~;
#X obj 235 131 pack 0 10;
#X obj 114 131 pack 0 10;
#X obj 114 156 line~;
#X text 252 259 Send it back to the global audio output summing bus
;
#X obj 117 82 unpack f f f;
#X obj 153 261 outlet~;
#X obj 358 106 inlet;
#X connect 0 0 8 0;
#X connect 1 0 2 0;
#X connect 2 0 9 0;
#X connect 3 0 2 1;
#X connect 4 0 3 0;
#X connect 5 0 6 0;
#X connect 6 0 1 0;
#X connect 8 0 5 0;
#X connect 8 1 4 0;
#X connect 10 0 4 1;
#X connect 10 0 5 1;
#X restore 209 117 pd sineosc~;
#N canvas 1298 565 450 300 sineosc~ 0;
#X obj 119 49 inlet;
#X obj 113 210 osc~;
#X obj 153 236 *~;
#X obj 235 159 line~;
#X obj 235 131 pack 0 10;
#X obj 114 131 pack 0 10;
#X obj 114 156 line~;
#X text 252 259 Send it back to the global audio output summing bus
;
#X obj 117 82 unpack f f f;
#X obj 153 261 outlet~;
#X obj 358 106 inlet;
#X connect 0 0 8 0;
#X connect 1 0 2 0;
#X connect 2 0 9 0;
#X connect 3 0 2 1;
#X connect 4 0 3 0;
#X connect 5 0 6 0;
#X connect 6 0 1 0;
#X connect 8 0 5 0;
#X connect 8 1 4 0;
#X connect 10 0 4 1;
#X connect 10 0 5 1;
#X restore 52 135 pd sineosc~;
#N canvas 1302 563 450 300 sineosc~ 0;
#X obj 119 49 inlet;
#X obj 113 210 osc~;
#X obj 153 236 *~;
#X obj 235 159 line~;
#X obj 235 131 pack 0 10;
#X obj 114 131 pack 0 10;
#X obj 114 156 line~;
#X text 252 259 Send it back to the global audio output summing bus
;
#X obj 117 82 unpack f f f;
#X obj 153 261 outlet~;
#X obj 358 106 inlet;
#X connect 0 0 8 0;
#X connect 1 0 2 0;
#X connect 2 0 9 0;
#X connect 3 0 2 1;
#X connect 4 0 3 0;
#X connect 5 0 6 0;
#X connect 6 0 1 0;
#X connect 8 0 5 0;
#X connect 8 1 4 0;
#X connect 10 0 4 1;
#X connect 10 0 5 1;
#X restore 126 136 pd sineosc~;
#N canvas 1302 563 450 300 sineosc~ 0;
#X obj 119 49 inlet;
#X obj 113 210 osc~;
#X obj 153 236 *~;
#X obj 235 159 line~;
#X obj 235 131 pack 0 10;
#X obj 114 131 pack 0 10;
#X obj 114 156 line~;
#X text 252 259 Send it back to the global audio output summing bus
;
#X obj 117 82 unpack f f f;
#X obj 153 261 outlet~;
#X obj 358 106 inlet;
#X connect 0 0 8 0;
#X connect 1 0 2 0;
#X connect 2 0 9 0;
#X connect 3 0 2 1;
#X connect 4 0 3 0;
#X connect 5 0 6 0;
#X connect 6 0 1 0;
#X connect 8 0 5 0;
#X connect 8 1 4 0;
#X connect 10 0 4 1;
#X connect 10 0 5 1;
#X restore 209 137 pd sineosc~;
#N canvas 1298 565 450 300 sineosc~ 0;
#X obj 119 49 inlet;
#X obj 113 210 osc~;
#X obj 153 236 *~;
#X obj 235 159 line~;
#X obj 235 131 pack 0 10;
#X obj 114 131 pack 0 10;
#X obj 114 156 line~;
#X text 252 259 Send it back to the global audio output summing bus
;
#X obj 117 82 unpack f f f;
#X obj 153 261 outlet~;
#X obj 358 106 inlet;
#X connect 0 0 8 0;
#X connect 1 0 2 0;
#X connect 2 0 9 0;
#X connect 3 0 2 1;
#X connect 4 0 3 0;
#X connect 5 0 6 0;
#X connect 6 0 1 0;
#X connect 8 0 5 0;
#X connect 8 1 4 0;
#X connect 10 0 4 1;
#X connect 10 0 5 1;
#X restore 53 156 pd sineosc~;
#N canvas 1302 563 450 300 sineosc~ 0;
#X obj 119 49 inlet;
#X obj 113 210 osc~;
#X obj 153 236 *~;
#X obj 235 159 line~;
#X obj 235 131 pack 0 10;
#X obj 114 131 pack 0 10;
#X obj 114 156 line~;
#X text 252 259 Send it back to the global audio output summing bus
;
#X obj 117 82 unpack f f f;
#X obj 153 261 outlet~;
#X obj 358 106 inlet;
#X connect 0 0 8 0;
#X connect 1 0 2 0;
#X connect 2 0 9 0;
#X connect 3 0 2 1;
#X connect 4 0 3 0;
#X connect 5 0 6 0;
#X connect 6 0 1 0;
#X connect 8 0 5 0;
#X connect 8 1 4 0;
#X connect 10 0 4 1;
#X connect 10 0 5 1;
#X restore 127 157 pd sineosc~;
#N canvas 1302 563 450 300 sineosc~ 0;
#X obj 119 49 inlet;
#X obj 113 210 osc~;
#X obj 153 236 *~;
#X obj 235 159 line~;
#X obj 235 131 pack 0 10;
#X obj 114 131 pack 0 10;
#X obj 114 156 line~;
#X text 252 259 Send it back to the global audio output summing bus
;
#X obj 117 82 unpack f f f;
#X obj 153 261 outlet~;
#X obj 358 106 inlet;
#X connect 0 0 8 0;
#X connect 1 0 2 0;
#X connect 2 0 9 0;
#X connect 3 0 2 1;
#X connect 4 0 3 0;
#X connect 5 0 6 0;
#X connect 6 0 1 0;
#X connect 8 0 5 0;
#X connect 8 1 4 0;
#X connect 10 0 4 1;
#X connect 10 0 5 1;
#X restore 210 158 pd sineosc~;
#X obj 126 174 mtl/limit~;
#X obj 51 26 inlet;
#X connect 0 0 3 0;
#X connect 2 0 5 0;
#X connect 2 1 6 0;
#X connect 2 2 7 0;
#X connect 2 3 8 0;
#X connect 2 4 9 0;
#X connect 2 5 10 0;
#X connect 2 6 11 0;
#X connect 2 7 12 0;
#X connect 2 8 13 0;
#X connect 3 0 5 1;
#X connect 3 0 6 1;
#X connect 3 0 7 1;
#X connect 5 0 14 0;
#X connect 6 0 14 0;
#X connect 7 0 14 0;
#X connect 8 0 14 0;
#X connect 9 0 14 0;
#X connect 10 0 14 0;
#X connect 11 0 14 0;
#X connect 12 0 14 0;
#X connect 13 0 14 0;
#X connect 14 0 1 0;
#X connect 15 0 2 0;
#X restore 112 242 pd synth;
#X obj 160 221 hsl 128 15 0 127 0 1 empty empty empty -2 -8 0 10 -262144
-1 -1 9600 1;
#X text 155 205 Set ramp time for sineoscs;
#X text 28 187 pitch amplitude note octave deviation;
#X connect 0 0 1 0;
#X connect 0 1 2 0;
#X connect 0 2 5 0;
#X connect 0 3 3 0;
#X connect 0 4 4 0;
#X connect 0 5 42 0;
#X connect 1 0 11 0;
#X connect 7 0 8 0;
#X connect 8 0 0 0;
#X connect 8 1 10 1;
#X connect 9 0 35 0;
#X connect 11 0 9 0;
#X connect 23 0 36 0;
#X connect 35 0 10 0;
#X connect 36 0 35 0;
#X connect 37 0 39 0;
#X connect 38 0 37 0;
#X connect 39 0 41 0;
#X connect 40 0 0 0;
#X connect 40 0 10 1;
#X connect 41 0 40 0;
#X connect 41 1 40 0;
#X connect 42 0 35 1;
#X connect 43 0 42 1;
