#N canvas 0 0 1272 714 10;
#X obj -226 190 mtl/out~;
#X text -230 59 tags: fx~;
#X text -77 156 <-Click on the propeties menu to display params;
#X obj 201 41 cnv 15 200 40 empty empty empty 20 12 0 14 -232576 -66577
0;
#X text 261 42 PARAM ENABLED;
#X obj 203 175 cnv 15 200 20 empty empty /platereverb/ 2 12 0 8 -258401
-262144 0;
#X obj 209 204 hsl 100 15 0 1 0 0 /platereverb/wet /platereverb/wet_
wet 105 7 0 8 -262144 -1 -1 7600 1;
#X obj 200 64 tof/open_help tof/param;
#X text -232 24 Description:;
#X text -153 24 PlateReverb;
#X obj 209 223 hsl 100 15 0 1 0 0 /platereverb/decay_diffusion2 /platereverb/decay_diffusion2_
decay_diffusion2 105 7 0 8 -262144 -1 -1 9900 1;
#X obj 209 243 hsl 100 15 0 1 0 0 /platereverb/decay_diffusion /platereverb/decay_diffusion_
decay_diffusion 105 7 0 8 -262144 -1 -1 0 1;
#X obj 208 307 hsl 100 15 0 5 0 0 /platereverb/excursion /platereverb/excursion_
excursion 105 7 0 8 -262144 -1 -1 9900 1;
#X obj 208 328 hsl 100 15 0 1 0 0 /platereverb/decay /platereverb/decay_
decay 105 7 0 8 -262144 -1 -1 5300 1;
#X obj 208 348 hsl 100 15 0 250 0 0 /platereverb/predelay /platereverb/predelay_
predelay 105 7 0 8 -262144 -1 -1 3960 1;
#X obj 208 368 hsl 100 15 0 22050 0 0 /platereverb/damping /platereverb/damping_
damping 105 7 0 8 -262144 -1 -1 9900 1;
#X obj 208 388 hsl 100 15 0 22050 0 0 /platereverb/bandwidth /platereverb/badwidth_
banswidth 105 7 0 8 -262144 -1 -1 5400 1;
#X obj -228 114 mtl/rain~ /id rain;
#X obj 209 263 hsl 100 15 0 1 0 0 /platereverb/inputdiffusion1 /platereverb/inputdiffusion1_
input_diffusion 105 7 0 8 -262144 -1 -1 7800 1;
#X obj 208 285 hsl 100 15 0 1 0 0 /platereverb/inputdiffusion2 /platereverb/inputdiffusion2_
input_diffusion2 105 7 0 8 -262144 -1 -1 9900 1;
#X obj -230 158 mtl/platereverb~ /id platereverb;
#X connect 17 0 20 0;
#X connect 17 0 20 1;
#X connect 20 0 0 0;
#X connect 20 1 0 1;
