#N canvas 1216 205 1009 686 10;
#X obj 23 -189 inlet speed;
#X obj 428 347 outlet done;
#X obj 599 -97 iemlib/dollarg;
#X obj 600 -138 loadbang;
#X obj 816 -118 inlet loop;
#X obj 604 -72 tof/listUnfold;
#X obj 608 -46 route symbol float;
#X obj 477 181 f;
#N canvas 91 47 853 603 reader~ 0;
#X obj 75 533 *~;
#X obj 32 279 tof/phasorshot~;
#X obj 68 442 *~ 0;
#X obj 58 497 tabread4~;
#N canvas 1143 272 704 519 trapezoid~ 0;
#X obj 209 343 cyclone/trapezoid~ 0.1 0.9;
#X msg 319 141 100 \$1;
#X obj 322 169 /;
#X obj 339 245 -;
#X obj 280 253 t f f;
#X msg 340 220 1 \$1;
#X obj 275 299 sig~;
#X obj 358 308 sig~;
#X obj 200 422 outlet~;
#X obj 33 29 inlet~;
#X obj 524 33 inlet;
#X connect 0 0 8 0;
#X connect 1 0 2 0;
#X connect 2 0 4 0;
#X connect 3 0 7 0;
#X connect 4 0 6 0;
#X connect 4 1 5 0;
#X connect 5 0 3 0;
#X connect 6 0 0 1;
#X connect 7 0 0 2;
#X connect 9 0 0 0;
#X connect 10 0 1 0;
#X restore 264 468 pd trapezoid~;
#X msg 298 315 set \$1;
#X obj 64 57 unpack f f f;
#X obj 56 321 *~ 0;
#X obj 56 356 +~ 0;
#X obj 82 573 outlet~;
#X obj 666 22 inlet loop;
#X obj 64 13 inlet speed start end;
#X obj 17 111 *;
#X obj 351 570 outlet~;
#X obj 614 564 outlet done;
#X obj 433 568 outlet samples;
#X obj 233 16 inlet stop;
#X msg 233 46 0;
#X obj 133 197 moses 0;
#X obj 424 511 f;
#X obj 559 485 spigot 1;
#X obj 644 437 == 0;
#X obj 616 512 t b b;
#X obj 203 112 expr abs($f2-$f1);
#X obj 212 166 expr $f3/($f2*$f1);
#X obj 175 266 *;
#X msg 165 222 1;
#X obj 17 218 abs;
#X msg 134 225 -1;
#X obj 22 160 t b f b f;
#X msg 58 214 0;
#X obj 196 574 outlet~;
#X obj 161 498 tabread4~;
#X obj 173 532 *~;
#X msg 346 319 set \$1;
#X obj 63 384 cyclone/pong~ 1 0 1;
#X obj 405 17 inlet;
#X obj 344 49 t b a;
#X obj 15 544 Snapshot~ 100;
#X floatatom 10 571 10 0 0 0 - - -;
#X obj 356 83 unpack f f s s;
#X text 389 -5 length rate table table;
#X connect 0 0 9 0;
#X connect 1 0 7 0;
#X connect 1 0 38 0;
#X connect 1 1 20 0;
#X connect 1 2 20 0;
#X connect 2 0 3 0;
#X connect 2 0 32 0;
#X connect 3 0 0 0;
#X connect 4 0 0 1;
#X connect 4 0 33 1;
#X connect 5 0 3 0;
#X connect 6 0 12 0;
#X connect 6 1 8 1;
#X connect 6 1 23 0;
#X connect 6 2 23 1;
#X connect 7 0 8 0;
#X connect 8 0 35 0;
#X connect 10 0 1 2;
#X connect 10 0 21 0;
#X connect 11 0 6 0;
#X connect 12 0 29 0;
#X connect 16 0 17 0;
#X connect 17 0 1 0;
#X connect 18 0 28 0;
#X connect 18 1 26 0;
#X connect 19 0 15 0;
#X connect 20 0 22 0;
#X connect 21 0 20 1;
#X connect 22 0 14 0;
#X connect 22 1 17 0;
#X connect 23 0 24 0;
#X connect 23 0 25 1;
#X connect 24 0 12 1;
#X connect 25 0 7 1;
#X connect 26 0 25 0;
#X connect 27 0 1 0;
#X connect 28 0 25 0;
#X connect 29 0 19 0;
#X connect 29 1 27 0;
#X connect 29 2 30 0;
#X connect 29 3 18 0;
#X connect 30 0 1 1;
#X connect 32 0 33 0;
#X connect 33 0 31 0;
#X connect 34 0 32 0;
#X connect 35 0 2 0;
#X connect 35 0 13 0;
#X connect 36 0 37 0;
#X connect 37 0 17 0;
#X connect 37 1 40 0;
#X connect 38 0 39 0;
#X connect 40 0 24 1;
#X connect 40 0 2 1;
#X connect 40 0 19 1;
#X connect 40 1 24 2;
#X connect 40 2 5 0;
#X connect 40 3 34 0;
#X restore 22 255 pd reader~;
#N canvas 1170 204 818 584 openInternal 0;
#X obj 87 117 soundfiler;
#X obj 185 -179 inlet;
#X obj 74 379 outlet;
#X obj 183 -97 iemlib/soundfile_info;
#X msg 183 -124 read \$1;
#X obj 582 -41 table \$0R 3;
#X obj 183 190 zexy/demultiplex 0 1;
#X obj 345 166 > 1;
#X obj 133 250 symbol \$0L;
#X obj 288 279 symbol \$0R;
#X obj 185 225 symbol \$0L;
#X obj 133 173 t b b;
#X obj 184 -149 cyclone/tosymbol;
#X obj 582 -13 table \$0L 3;
#X obj 238 -69 unpack f s f f f;
#X obj 84 -4 zexy/demultiplex 0 1;
#X obj 350 -27 > 1;
#X obj 84 27 list append \$0L;
#X obj 201 29 list append \$0L \$0R;
#X obj 85 82 cyclone/prepend read -resize -maxsize 2e+09;
#X obj 113 -152 t s s s;
#X text 139 379 length rate table table;
#X obj 85 174 t f b;
#X obj 76 347 pack f f s s;
#X connect 0 0 22 0;
#X connect 1 0 12 0;
#X connect 3 0 14 0;
#X connect 4 0 3 0;
#X connect 6 0 10 0;
#X connect 6 1 9 0;
#X connect 7 0 6 1;
#X connect 8 0 23 2;
#X connect 9 0 23 3;
#X connect 10 0 23 3;
#X connect 11 0 8 0;
#X connect 11 1 6 0;
#X connect 12 0 20 0;
#X connect 14 0 23 1;
#X connect 14 4 7 0;
#X connect 14 4 16 0;
#X connect 15 0 17 0;
#X connect 15 1 18 0;
#X connect 16 0 15 1;
#X connect 17 0 19 0;
#X connect 18 0 19 0;
#X connect 19 0 0 0;
#X connect 20 0 15 0;
#X connect 20 1 4 0;
#X connect 22 0 23 0;
#X connect 22 1 11 0;
#X connect 23 0 2 0;
#X restore 114 -60 pd openInternal;
#X obj 324 348 outlet samples;
#N canvas 1150 101 936 787 triggerMaker 0;
#X obj 22 29 inlet bang;
#X obj 147 27 inlet list;
#X obj 296 28 inlet float;
#X obj 356 117 sel 0;
#X obj 185 267 clip 0 1;
#X msg 23 171 1 0 1;
#X msg 453 220 \$1 0 1;
#X obj 145 133 list split 3;
#X obj 244 263 clip 0 1;
#X obj 152 231 unpack;
#X obj 120 172 unpack f f f;
#X obj 121 369 pack f f f;
#X msg 258 399 1;
#X obj 114 538 outlet play;
#X obj 367 541 outlet stop;
#X obj 218 356 moses 0;
#X obj 148 275 t f f;
#X msg 215 400 0;
#X connect 0 0 5 0;
#X connect 1 0 7 0;
#X connect 2 0 3 0;
#X connect 3 0 14 0;
#X connect 3 1 6 0;
#X connect 4 0 11 1;
#X connect 5 0 13 0;
#X connect 6 0 13 0;
#X connect 7 0 10 0;
#X connect 7 2 9 0;
#X connect 8 0 11 2;
#X connect 9 0 16 0;
#X connect 9 1 4 0;
#X connect 10 0 11 0;
#X connect 10 1 4 0;
#X connect 10 2 8 0;
#X connect 11 0 13 0;
#X connect 12 0 11 2;
#X connect 15 0 17 0;
#X connect 15 1 12 0;
#X connect 16 0 11 0;
#X connect 16 1 15 0;
#X connect 17 0 11 2;
#X restore -2 79 pd triggerMaker;
#X obj 24 350 outlet~ left;
#X obj 108 351 outlet~ right;
#X obj 208 349 outlet~ progress;
#X obj 2 -104 route bang list float read sample;
#X obj 225 -30 print [player~];
#X obj 227 -72 cyclone/prepend Unknown command;
#X connect 0 0 15 0;
#X connect 2 0 5 0;
#X connect 3 0 2 0;
#X connect 4 0 7 0;
#X connect 5 0 6 0;
#X connect 6 1 7 0;
#X connect 7 0 8 3;
#X connect 8 0 12 0;
#X connect 8 1 13 0;
#X connect 8 2 14 0;
#X connect 8 3 10 0;
#X connect 8 4 1 0;
#X connect 9 0 8 2;
#X connect 11 0 8 0;
#X connect 11 1 8 1;
#X connect 15 0 11 0;
#X connect 15 1 11 1;
#X connect 15 2 11 2;
#X connect 15 3 9 0;
#X connect 15 4 8 2;
#X connect 15 5 17 0;
#X connect 17 0 16 0;
