#N canvas 1 82 1272 661 10;
#X obj 312 623 outlet~;
#X obj 219 151 inlet;
#X obj 393 356 sig~;
#X floatatom 249 281 5 0 0 0 - - -, f 5;
#X obj 137 318 pink~;
#X obj 219 247 t b f;
#X obj 281 366 * 0.001;
#X obj 286 413 + 0.95;
#X obj 393 304 mtof;
#X obj 219 304 del 2;
#X obj 219 177 unpack 0 0;
#X obj 391 239 * 0.0078;
#X obj 391 265 s \$0-vel;
#X obj 335 455 r \$0-vel;
#X msg 219 330 0;
#X obj 163 362 *~ 0;
#X text 98 150 midi note pairs;
#X obj 393 330 expr 1000/$f1;
#X text 39 295 short burst of noise;
#X obj 312 597 *~;
#X obj 352 569 line~;
#X msg 403 542 1;
#X obj 403 516 t b;
#X obj 352 489 select 0;
#X text 400 468 unclick on note-off;
#X msg 352 515 0 500;
#N canvas 126 55 600 400 delays 0;
#X obj 77 73 inlet~;
#X obj 278 79 inlet;
#X obj 227 180 *~ 0.995;
#X obj 227 206 lop~ 5000;
#X obj 412 128 vd~ \$0-buff;
#X floatatom 290 180 5 0 0 0 - - -, f 5;
#X obj 412 79 inlet~;
#X obj 412 154 clip~ -0.5 0.5;
#X obj 412 311 outlet~;
#X obj 77 256 delwrite~ \$0-buff 256;
#X connect 0 0 9 0;
#X connect 1 0 2 1;
#X connect 2 0 3 0;
#X connect 3 0 9 0;
#X connect 4 0 7 0;
#X connect 4 0 2 0;
#X connect 5 0 3 1;
#X connect 6 0 4 0;
#X connect 7 0 8 0;
#X restore 257 455 pd delays;
#X obj 139 233 r \$0-vel;
#X obj 186 330 f 1;
#X obj 312 504 *~ 1;
#X text 277 338 feedback < 50;
#X obj 284 225 select 0;
#X obj 219 223 spigot;
#X msg 255 201 0;
#X obj 589 143 inlet params;
#X obj 589 189 print PARAM_NOTFOUND;
#X obj 589 165 tof/param route;
#X obj 585 288 b;
#X obj 586 317 tof/param gui;
#X obj 302 139 tof/param /feedback 0 /g slider 0 50;
#X obj 302 112 tof/argument 3;
#X obj 302 85 loadbang;
#X connect 1 0 10 0;
#X connect 2 0 26 2;
#X connect 3 0 9 1;
#X connect 4 0 15 0;
#X connect 5 0 9 0;
#X connect 5 0 28 0;
#X connect 5 1 8 0;
#X connect 6 0 7 0;
#X connect 7 0 26 1;
#X connect 8 0 17 0;
#X connect 9 0 14 0;
#X connect 10 0 32 0;
#X connect 10 1 11 0;
#X connect 10 1 31 0;
#X connect 11 0 12 0;
#X connect 13 0 23 0;
#X connect 14 0 15 1;
#X connect 15 0 26 0;
#X connect 17 0 2 0;
#X connect 19 0 0 0;
#X connect 20 0 19 1;
#X connect 21 0 20 0;
#X connect 22 0 21 0;
#X connect 23 0 25 0;
#X connect 23 1 22 0;
#X connect 25 0 20 0;
#X connect 26 0 29 0;
#X connect 27 0 28 1;
#X connect 28 0 15 1;
#X connect 29 0 19 0;
#X connect 31 0 33 0;
#X connect 31 1 32 1;
#X connect 32 0 5 0;
#X connect 33 0 32 1;
#X connect 34 0 36 0;
#X connect 36 0 35 0;
#X connect 37 0 38 0;
#X connect 39 0 6 0;
#X connect 40 0 39 0;
#X connect 41 0 40 0;
