#N canvas 0 25 1272 692 10;
#X obj -4 254 mtl/out~;
#X text -29 46 tags: fx~;
#X text 174 147 <-Click on the propeties menu to display params;
#X obj 270 40 cnv 15 200 40 empty empty empty 20 12 0 14 -232576 -66577
0;
#X text 330 41 PARAM ENABLED;
#X obj 272 174 cnv 15 200 20 empty empty /pvoc-reverb/ 2 12 0 8 -258401
-262144 0;
#X obj 272 197 hsl 100 15 0 1 0 0 /pvoc-reverb/wet /pvoc-reverb/wet_
wet 105 7 0 8 -262144 -1 -1 8000 1;
#X obj 272 215 hsl 100 15 0 100 0 0 /pvoc-reverb/revtime /pvoc-reverb/revtime_
revtime 105 7 0 8 -262144 -1 -1 600 1;
#X obj 269 63 tof/open_help tof/param;
#X text -29 12 Description: Pvoc Reverb;
#X obj 39 192 mtl/pvoc-reverb~ /id pvoc-reverb;
#X obj 29 100 tgl 15 0 empty empty empty 17 7 0 10 -262144 -1 -1 1
1;
#N canvas 5 185 450 300 generate~ 0;
#X obj 32 213 osc~ 200;
#X obj 32 89 metro 400;
#X obj 32 175 mtof;
#X obj 104 195 mtof;
#X obj 32 132 + 20;
#X obj 32 111 random 70;
#X floatatom 83 69 5 0 0 0 - - -;
#X obj 32 261 outlet~;
#X obj 103 261 outlet~;
#X obj 30 14 inlet;
#X obj 104 175 mtl/closestNote 0 2 4 7 9;
#X obj 104 234 *~;
#X obj 31 234 *~;
#X obj 104 214 osc~ 100;
#X obj 32 155 mtl/closestNote 0 2 4 7 9;
#X connect 0 0 12 0;
#X connect 1 0 5 0;
#X connect 2 0 0 0;
#X connect 3 0 13 0;
#X connect 4 0 10 0;
#X connect 4 0 14 0;
#X connect 5 0 4 0;
#X connect 6 0 1 1;
#X connect 9 0 1 0;
#X connect 9 0 11 1;
#X connect 9 0 12 1;
#X connect 10 0 3 0;
#X connect 11 0 8 0;
#X connect 12 0 7 0;
#X connect 13 0 11 0;
#X connect 14 0 2 0;
#X restore 29 125 pd generate~;
#X connect 10 0 0 0;
#X connect 10 1 0 1;
#X connect 11 0 12 0;
#X connect 12 0 10 0;
#X connect 12 1 10 1;
