#N canvas 1 82 1280 661 10;
#X obj 114 5 inlet;
#X obj 319 407 outlet~;
#X obj 326 373 *~;
#X obj 112 70 unpack f f;
#X obj 110 185 phasor~ 0;
#X obj 115 135 mtof;
#X text 489 258 Todo: allow override adsr;
#X obj 112 160 * -1;
#X obj 217 251 -~ 0.5;
#X obj 217 273 clip~ 0 1e-06;
#X obj 223 307 *~ 1e+06;
#X obj 243 177 * -1;
#X obj 243 197 + 1;
#X obj 243 127 clip 0 1;
#X text 282 145 duty (on);
#X obj 243 86 / 100;
#X obj 243 25 tof/param /duty 1 /g slider 1 99;
#X obj 652 36 inlet params;
#X obj 652 82 print PARAM_NOTFOUND;
#X obj 652 58 tof/param route;
#X obj 648 181 b;
#X obj 649 210 tof/param gui;
#X obj 471 187 mtl/adsr~ /id \$0-adsr;
#X connect 0 0 3 0;
#X connect 2 0 1 0;
#X connect 3 0 5 0;
#X connect 3 1 22 0;
#X connect 4 0 8 0;
#X connect 5 0 7 0;
#X connect 7 0 4 0;
#X connect 8 0 9 0;
#X connect 9 0 10 0;
#X connect 10 0 2 0;
#X connect 11 0 12 0;
#X connect 12 0 8 1;
#X connect 13 0 11 0;
#X connect 15 0 13 0;
#X connect 16 0 15 0;
#X connect 17 0 19 0;
#X connect 19 0 18 0;
#X connect 20 0 21 0;
#X connect 22 0 2 1;
