#N canvas 0 25 1272 692 10;
#X obj 42 181 notein;
#X floatatom 174 212 5 0 0 0 - - -;
#X floatatom 215 212 5 0 0 0 - - -;
#X floatatom 256 212 5 0 0 0 - - -;
#X floatatom 136 213 5 0 0 0 - - -;
#X obj 31 46 mtl/piano 1;
#X obj 25 300 mtl/out~;
#X text 220 193 ADSR;
#X obj 42 210 pack;
#X text 28 24 tags: instrument~;
#N canvas 1 57 450 300 adsr 0;
#X obj 67 80 pack f f f f;
#X obj 68 50 t b f;
#X obj 109 50 t b f;
#X obj 151 51 t b f;
#X obj 70 114 outlet;
#X obj 64 21 inlet;
#X obj 104 21 inlet;
#X obj 144 21 inlet;
#X obj 184 21 inlet;
#X connect 0 0 4 0;
#X connect 1 0 0 0;
#X connect 1 1 0 1;
#X connect 2 0 0 0;
#X connect 2 1 0 2;
#X connect 3 0 0 0;
#X connect 3 1 0 3;
#X connect 5 0 0 0;
#X connect 6 0 1 0;
#X connect 7 0 2 0;
#X connect 8 0 3 0;
#X restore 136 241 pd adsr;
#X obj 26 271 mtl/pwm~ /id pwm;
#X obj 104 174 hsl 128 15 1 99 0 0 empty empty duty_cycle -2 -8 0 10
-262144 -1 -1 0 1;
#X text 28 10 Description: Midi instrument using a simple pwm~;
#X connect 0 0 8 0;
#X connect 0 1 8 1;
#X connect 1 0 10 1;
#X connect 2 0 10 2;
#X connect 3 0 10 3;
#X connect 4 0 10 0;
#X connect 5 0 11 0;
#X connect 8 0 11 0;
#X connect 10 0 11 2;
#X connect 11 0 6 0;
#X connect 11 0 6 1;
#X connect 12 0 11 1;
