#N canvas 0 25 1280 695 10;
#X obj 114 5 inlet;
#X obj 319 407 outlet~;
#X obj 326 373 *~;
#X obj 112 70 unpack f f;
#X obj 110 185 phasor~ 0;
#X obj 115 135 mtof;
#X text 489 258 Todo: allow override adsr;
#X obj 505 16 inlet;
#X obj 509 72 unpack f f f f;
#X obj 112 160 * -1;
#X obj 471 187 mtl/adsr~ /id adsr;
#X obj 217 251 -~ 0.5;
#X obj 217 273 clip~ 0 1e-06;
#X obj 223 307 *~ 1e+06;
#X obj 243 177 * -1;
#X obj 243 197 + 1;
#X obj 243 127 clip 0 1;
#X text 282 145 duty (on);
#X obj 242 24 inlet;
#X obj 243 86 / 100;
#X text 231 6 duty cycle (1-100%);
#X connect 0 0 3 0;
#X connect 2 0 1 0;
#X connect 3 0 5 0;
#X connect 3 1 10 0;
#X connect 4 0 11 0;
#X connect 5 0 9 0;
#X connect 7 0 8 0;
#X connect 8 0 10 1;
#X connect 8 1 10 2;
#X connect 8 2 10 3;
#X connect 8 3 10 4;
#X connect 9 0 4 0;
#X connect 10 0 2 1;
#X connect 11 0 12 0;
#X connect 12 0 13 0;
#X connect 13 0 2 0;
#X connect 14 0 15 0;
#X connect 15 0 11 1;
#X connect 16 0 14 0;
#X connect 18 0 19 0;
#X connect 19 0 16 0;
