#N canvas 1 82 1364 661 12;
#X obj 134 76 inlet;
#X msg 36 279 a;
#X msg 71 277 b;
#X msg 107 277 c;
#X msg 141 276 d;
#X msg 181 275 e;
#X msg 215 274 f;
#X msg 251 274 g;
#X msg 285 273 h;
#X msg 323 276 i;
#X msg 359 277 j;
#X msg 395 276 k;
#X msg 429 276 l;
#X msg 463 275 m;
#X msg 503 274 n;
#X msg 537 273 o;
#X msg 573 273 p;
#X msg 608 272 q;
#X msg 645 275 r;
#X msg 684 273 s;
#X msg 718 272 t;
#X msg 754 272 u;
#X msg 788 271 v;
#X msg 828 270 w;
#X msg 863 269 x;
#X msg 898 269 y;
#X msg 932 268 z;
#X obj 157 145 random 25;
#X obj 348 176 select 0 1 2 3 4 5 6 7 8 9 10 11 12 13 14 15 16 17 18
19 20 21 22 23 24 25;
#X obj 477 447 symbol;
#X obj 461 507 outlet;
#X connect 0 0 27 0;
#X connect 1 0 29 0;
#X connect 2 0 29 0;
#X connect 3 0 29 0;
#X connect 4 0 29 0;
#X connect 5 0 29 0;
#X connect 6 0 29 0;
#X connect 7 0 29 0;
#X connect 8 0 29 0;
#X connect 9 0 29 0;
#X connect 10 0 29 0;
#X connect 11 0 29 0;
#X connect 12 0 29 0;
#X connect 13 0 29 0;
#X connect 14 0 29 0;
#X connect 15 0 29 0;
#X connect 16 0 29 0;
#X connect 17 0 29 0;
#X connect 18 0 29 0;
#X connect 19 0 29 0;
#X connect 20 0 29 0;
#X connect 21 0 29 0;
#X connect 22 0 29 0;
#X connect 23 0 29 0;
#X connect 24 0 29 0;
#X connect 25 0 29 0;
#X connect 26 0 29 0;
#X connect 27 0 28 0;
#X connect 28 0 1 0;
#X connect 28 1 2 0;
#X connect 28 2 3 0;
#X connect 28 3 4 0;
#X connect 28 4 5 0;
#X connect 28 5 6 0;
#X connect 28 6 7 0;
#X connect 28 7 8 0;
#X connect 28 8 9 0;
#X connect 28 9 10 0;
#X connect 28 10 11 0;
#X connect 28 11 12 0;
#X connect 28 12 13 0;
#X connect 28 13 14 0;
#X connect 28 14 15 0;
#X connect 28 15 16 0;
#X connect 28 16 17 0;
#X connect 28 17 18 0;
#X connect 28 18 19 0;
#X connect 28 19 20 0;
#X connect 28 20 21 0;
#X connect 28 21 22 0;
#X connect 28 22 23 0;
#X connect 28 23 24 0;
#X connect 28 24 25 0;
#X connect 28 26 26 0;
#X connect 29 0 30 0;
