#N canvas 337 105 1016 638 10;
#X obj 715 78 inlet params;
#X obj 715 124 print PARAM_NOTFOUND;
#X obj 715 100 tof/param route;
#X obj 708 155 b;
#X obj 709 184 tof/param gui;
#X obj 196 261 t a b;
#X floatatom 302 320 5 0 0 0 - - -, f 5;
#X msg 302 264 set 1;
#X obj 210 464 msgfile;
#X obj 287 343 int;
#X msg 187 289 add \$1;
#X obj 196 206 t a b b;
#X msg 125 280 clear;
#X obj 245 367 random;
#X obj 211 24 inlet;
#X msg 272 417 goto \$1;
#X msg 235 418 this;
#X obj 245 392 t b a;
#X msg 264 464 print;
#X obj 210 505 print;
#X obj 245 343 t b b;
#X obj 250 505 outlet;
#X text 340 321 <-- number of files;
#X text 621 437 To set a directory send a message in the following
format:;
#X text 699 478 comment;
#X msg 667 458 symbol /my/audio/loop/directory;
#X msg 667 484 symbol /my/audio/loop/directory/*.wav;
#X text 901 484 only files ending in .wav;
#X text 866 457 all files in directory;
#X text 296 504 <-- outputs random filename;
#X text 621 526 To output a random filename \, send a bang;
#X text 306 464 <-- check what's loaded;
#X text 110 504 for testing -->;
#X text 621 579 Ben Baker-Smith - 2010;
#X obj 391 21 tof/param /path;
#X obj 347 119 route symbol;
#X obj 539 262 cyclone/prepend;
#X obj 302 293 cyclone/counter;
#X obj 196 234 hcs/folder_list;
#X connect 0 0 2 0;
#X connect 2 0 1 0;
#X connect 3 0 4 0;
#X connect 5 0 10 0;
#X connect 5 1 37 0;
#X connect 6 0 9 1;
#X connect 7 0 37 0;
#X connect 8 0 19 0;
#X connect 8 0 21 0;
#X connect 9 0 13 1;
#X connect 10 0 8 0;
#X connect 11 0 38 0;
#X connect 11 1 7 0;
#X connect 11 2 12 0;
#X connect 12 0 8 0;
#X connect 13 0 17 0;
#X connect 14 0 20 0;
#X connect 15 0 8 0;
#X connect 16 0 8 0;
#X connect 17 0 16 0;
#X connect 17 1 15 0;
#X connect 18 0 8 0;
#X connect 20 0 13 0;
#X connect 20 1 9 0;
#X connect 34 0 35 0;
#X connect 35 0 11 0;
#X connect 37 0 6 0;
#X connect 38 0 5 0;
