#N canvas 1 84 1358 659 10;
#X obj 253 142 cnv 15 200 20 empty empty /randomMidi-Notes/ 2 12 0
8 -258401 -262144 0;
#X obj 105 192 bng 15 250 50 0 empty empty empty 17 7 0 10 -262144
-1 -1;
#X obj 93 362 mtl/pluck~ /id pluck;
#X obj 91 431 dac~;
#X text 242 75 randomMidi;
#X text 242 88 tags : Midi;
#X obj 78 258 mtl/randomMidi-Notes;
#X connect 1 0 6 0;
#X connect 2 0 3 0;
#X connect 2 0 3 1;
#X connect 6 0 2 0;
