#N canvas 602 87 423 460 10;
#X obj 20 83 bng 15 250 50 0 empty empty empty 0 -6 0 8 -262144 -1
-1;
#X obj 11 9 cnv 15 380 60 empty empty empty 20 12 0 14 -233017 -66577
0;
#X text 16 51 tags: random;
#X obj 17 104 mtl/randomLetter;
#X text 16 14 Description: Generate a random letter. Bang to output
the random value.;
#X symbolatom 101 170 10 0 0 0 - - -;
#X obj 60 144 symbol \$1;
#X connect 0 0 3 0;
#X connect 3 0 6 0;
#X connect 6 0 5 0;
