#N canvas 1 82 1272 661 10;
#X obj 1 -21 cnv 15 690 30 empty empty recirculating-schroeder-reverb~
2 12 1 14 -233017 -66577 0;
#X obj 8 200 mtl/out~;
#X obj 238 54 cnv 15 200 40 empty empty empty 20 12 0 14 -232576 -66577
0;
#X text 298 55 PARAM ENABLED;
#X obj 404 249 cnv 15 200 20 empty empty /recirculating-schroeder-reverb/
2 12 0 8 -258401 -262144 0;
#X text 310 152 <-Click on the propeties menu to display params;
#X text 708 88 tags: fx~;
#X obj 237 77 tof/open_help tof/param;
#X text 704 103 Author: Andy Farnell;
#X obj 21 61 tgl 15 0 empty empty empty 17 7 0 10 -262144 -1 -1 0 1
;
#N canvas 0 25 1280 695 chord 0;
#X obj 87 97 -~ 0.5;
#X obj 87 146 clip~ -0.5 0.5;
#X obj 87 169 cos~;
#X obj 499 293 hip~ 5;
#X obj 499 356 outlet~;
#X obj 87 122 *~ 3;
#X obj 87 74 phasor~ 220;
#X obj 221 97 -~ 0.5;
#X obj 221 146 clip~ -0.5 0.5;
#X obj 221 169 cos~;
#X obj 221 122 *~ 3;
#X obj 356 100 -~ 0.5;
#X obj 356 149 clip~ -0.5 0.5;
#X obj 356 172 cos~;
#X obj 356 125 *~ 3;
#X obj 491 100 -~ 0.5;
#X obj 491 149 clip~ -0.5 0.5;
#X obj 491 172 cos~;
#X obj 491 125 *~ 3;
#X obj 221 74 phasor~ 251;
#X obj 356 77 phasor~ 281;
#X obj 491 77 phasor~ 311;
#X text 147 32 test sound for phaser;
#X obj 499 326 *~ 0.2;
#X obj 626 78 inlet;
#X connect 0 0 5 0;
#X connect 1 0 2 0;
#X connect 2 0 3 0;
#X connect 3 0 23 0;
#X connect 5 0 1 0;
#X connect 6 0 0 0;
#X connect 7 0 10 0;
#X connect 8 0 9 0;
#X connect 9 0 3 0;
#X connect 10 0 8 0;
#X connect 11 0 14 0;
#X connect 12 0 13 0;
#X connect 13 0 3 0;
#X connect 14 0 12 0;
#X connect 15 0 18 0;
#X connect 16 0 17 0;
#X connect 17 0 3 0;
#X connect 18 0 16 0;
#X connect 19 0 7 0;
#X connect 20 0 11 0;
#X connect 21 0 15 0;
#X connect 23 0 4 0;
#X connect 24 0 23 1;
#X restore 21 92 pd chord;
#X obj 8 153 mtl/recirculating-schroeder-reverb~ /id recirculating-schroeder-reverb
;
#X text 706 59 Description : Reverb extract from the book Designing
Sound by Andy Farnell Page 85;
#X obj 406 279 hsl 100 15 0 1 0 0 /recirculating-schroeder-reverb/wet
/recirculating-schroeder-reverb/wet- wet 105 7 0 8 -262144 -1 -1 0
1;
#X connect 9 0 10 0;
#X connect 10 0 11 0;
#X connect 11 0 1 0;
#X connect 11 1 1 1;
