#N canvas 488 391 726 371 10;
#X obj 54 279 outlet~;
#X obj 53 164 inlet~;
#X obj 113 164 inlet~;
#X obj 114 279 outlet~;
#X obj 477 83 inlet params;
#X obj 181 253 tof/param /wet 0 /g slider 0 1;
#X obj 477 129 print PARAM_NOTFOUND;
#X obj 54 254 tof/crossfade~ 2;
#X msg 218 283 \$1 5;
#X obj 218 307 line~;
#X obj 477 105 tof/param route;
#X obj 473 228 b;
#X obj 474 257 tof/param gui;
#N canvas 550 186 730 557 rect-up 0;
#X obj 209 88 abs~;
#X obj 193 137 *~ 2;
#X obj 197 185 +~ -1;
#X obj 300 48 inlet~;
#X obj 305 368 outlet~;
#X obj 370 38 inlet;
#X obj 315 188 *~;
#X obj 229 242 *~;
#X obj 354 124 -1;
#X obj 340 151 abs;
#X connect 0 0 1 0;
#X connect 1 0 2 0;
#X connect 2 0 7 0;
#X connect 3 0 6 0;
#X connect 3 0 0 0;
#X connect 5 0 8 0;
#X connect 5 0 7 1;
#X connect 6 0 4 0;
#X connect 7 0 4 0;
#X connect 8 0 9 0;
#X connect 9 0 6 1;
#X restore 66 217 pd rect-up;
#N canvas 501 243 730 557 rect-up 0;
#X obj 219 98 abs~;
#X obj 203 147 *~ 2;
#X obj 207 195 +~ -1;
#X obj 310 58 inlet~;
#X obj 315 378 outlet~;
#X obj 380 48 inlet;
#X obj 325 198 *~;
#X obj 239 252 *~;
#X obj 364 134 -1;
#X obj 350 161 abs;
#X connect 0 0 1 0;
#X connect 1 0 2 0;
#X connect 2 0 7 0;
#X connect 3 0 6 0;
#X connect 3 0 0 0;
#X connect 5 0 8 0;
#X connect 5 0 7 1;
#X connect 6 0 4 0;
#X connect 7 0 4 0;
#X connect 8 0 9 0;
#X connect 9 0 6 1;
#X restore 150 220 pd rect-up;
#X obj 196 100 tof/param /rect-up 0 /g slider 0 2;
#X connect 1 0 7 0;
#X connect 1 0 13 0;
#X connect 2 0 7 1;
#X connect 2 0 14 0;
#X connect 4 0 10 0;
#X connect 5 0 8 0;
#X connect 7 0 0 0;
#X connect 7 1 3 0;
#X connect 8 0 9 0;
#X connect 9 0 7 4;
#X connect 10 0 6 0;
#X connect 11 0 12 0;
#X connect 13 0 7 2;
#X connect 14 0 7 3;
#X connect 15 0 14 1;
#X connect 15 0 13 1;
