#N canvas 0 22 450 300 10;
#X obj 122 140 regex;
#X obj 186 79 initbang;
#X obj 113 209 symbol;
#X obj 123 110 t a a;
#X obj 122 86 symbol;
#X obj 116 177 sel 1;
#X obj 121 52 inlet;
#X obj 111 258 outlet;
#X obj 187 119 symbol \$1;
#X connect 0 0 5 0;
#X connect 1 0 8 0;
#X connect 2 0 7 0;
#X connect 3 0 0 0;
#X connect 3 1 2 1;
#X connect 4 0 3 0;
#X connect 5 0 2 0;
#X connect 6 0 4 0;
#X connect 8 0 0 1;
