#N canvas 1 82 1272 661 10;
#X obj 1 -21 cnv 15 690 30 empty empty robot~ 2 12 1 14 -233017 -66577
0;
#X obj 70 255 mtl/out~;
#X obj 772 46 cnv 15 200 40 empty empty empty 20 12 0 14 -232576 -66577
0;
#X text 832 47 PARAM ENABLED;
#X obj 462 357 cnv 15 200 20 empty empty /robot/ 2 12 0 8 -258401 -262144
0;
#X text 206 207 <-Click on the propeties menu to display params;
#X text 788 145 tags: fx~;
#X obj 771 69 tof/open_help tof/param;
#X obj 464 387 hsl 100 15 0 1 0 0 /robot/wet /robot/wet_ wet 105 7
0 8 -262144 -1 -1 0 1;
#X obj 464 408 hsl 100 15 -60 60 0 0 /robot/pitch /robot/pitch_ pitch
105 7 0 8 -262144 -1 -1 4950 1;
#X obj 464 429 hsl 100 15 1000 20000 0 0 /robot/samplerate /robot/samplerate_
samplerate 105 7 0 8 -262144 -1 -1 0 1;
#X obj 463 450 hsl 100 15 0 2 0 0 /robot/tracking /robot/tracking_
tracking 105 7 0 8 -262144 -1 -1 0 1;
#X obj 83 147 mtl/player~ /id player;
#X obj 137 54 openpanel;
#X obj 137 34 bng 15 250 50 0 empty empty empty 17 7 0 10 -262144 -1
-1;
#X text 158 33 You can load a sound file in the internal stereo tables
;
#X msg 136 75 read \$1;
#X text 197 50 (send a bang afterwards to play the loaded/selected
file);
#X obj 34 25 bng 30 250 50 0 empty empty empty 0 -6 0 10 -258113 -1
-1;
#X obj 69 208 mtl/robot~ /id robot;
#X text 793 120 Description: robots;
#X text 788 167 Author: unknown;
#X connect 12 0 19 0;
#X connect 12 0 19 1;
#X connect 13 0 16 0;
#X connect 14 0 13 0;
#X connect 16 0 12 0;
#X connect 18 0 12 0;
#X connect 19 0 1 0;
#X connect 19 1 1 1;
