#N canvas 1 82 1272 661 10;
#X obj 66 300 outlet~;
#X obj 191 298 outlet~;
#X obj 27 47 inlet~;
#X obj 996 37 inlet params;
#X obj 996 83 print PARAM_NOTFOUND;
#X obj 996 59 tof/param route;
#X obj 974 183 b;
#X obj 975 212 tof/param gui;
#X obj 128 44 inlet~;
#X obj 244 146 tof/param /coarse 0 /g slider 0 20;
#X obj 108 208 sigpack/round~;
#X obj 195 235 sigpack/round~;
#X obj 244 106 tof/argument 3;
#X obj 244 81 loadbang;
#X connect 2 0 10 0;
#X connect 3 0 5 0;
#X connect 5 0 4 0;
#X connect 6 0 7 0;
#X connect 8 0 11 0;
#X connect 9 0 10 1;
#X connect 9 0 11 1;
#X connect 10 0 0 0;
#X connect 11 0 1 0;
#X connect 12 0 9 0;
#X connect 13 0 12 0;
