#N canvas 1154 129 1016 756 10;
#X obj 128 9 inlet;
#N canvas 1549 379 450 300 \$0tables 0;
#X obj 10 20 table 1-1065/0;
#X obj 10 40 table 0-1065/0;
#X obj 10 60 table 1-1065/1;
#X obj 10 80 table 0-1065/1;
#X restore 811 60 pd \$0tables;
#N canvas 199 153 767 523 check_if_loaded 0;
#X obj 93 44 inlet check;
#X obj 384 36 inlet remove;
#X obj 86 434 outlet found;
#X obj 226 426 outlet new;
#X obj 214 42 inlet test;
#X obj 141 362 route bang;
#X obj 369 107 t b b;
#X msg 423 126 clear;
#X obj 551 200 route clear;
#X obj 444 454 outlet reset;
#X obj 614 249 list split 1;
#X obj 598 368 pack f s;
#X obj 647 289 cyclone/tosymbol;
#X obj 324 211 unpack f s;
#X obj 381 237 tof/path relative;
#X obj 327 255 pack f s;
#X obj 423 158 tof/param custom /samples /nps;
#X obj 561 35 inlet dump;
#X obj 605 442 outlet dump;
#X obj 266 386 zexy/demultiplex 0 1;
#X msg 606 95 1;
#X obj 560 62 t b b b;
#X msg 556 97 0;
#X obj 99 298 mtl/indexer;
#X obj 31 146 tof/path relative;
#X connect 0 0 24 0;
#X connect 1 0 23 1;
#X connect 4 0 23 2;
#X connect 5 1 2 0;
#X connect 6 0 23 3;
#X connect 6 1 7 0;
#X connect 7 0 16 0;
#X connect 8 0 9 0;
#X connect 8 1 10 0;
#X connect 10 0 11 0;
#X connect 10 1 12 0;
#X connect 11 0 23 0;
#X connect 12 0 11 1;
#X connect 13 0 15 0;
#X connect 13 1 14 0;
#X connect 14 0 15 1;
#X connect 15 0 16 0;
#X connect 16 0 6 0;
#X connect 16 1 8 0;
#X connect 17 0 21 0;
#X connect 19 0 13 0;
#X connect 19 1 18 0;
#X connect 20 0 19 1;
#X connect 21 0 22 0;
#X connect 21 1 23 3;
#X connect 21 2 20 0;
#X connect 22 0 19 1;
#X connect 23 0 2 0;
#X connect 23 1 3 0;
#X connect 23 2 5 0;
#X connect 23 3 19 0;
#X connect 24 0 23 0;
#X restore 179 243 pd check_if_loaded;
#N canvas 1350 327 926 583 load_soundfile 0;
#X obj 51 -25 inlet;
#X obj 98 346 soundfiler;
#X obj 36 545 outlet index;
#X text 158 39 index file tableL tableR channels;
#X obj 48 44 unpack f s s s f;
#X obj 197 73 > 1;
#X obj 90 290 cyclone/prepend read -resize -maxsize 2.14748e+09;
#X obj 169 100 spigot;
#X obj 456 249 s pd-\$0tables;
#X obj 602 16 inlet;
#X obj 203 205 pack s f;
#X obj 243 121 f;
#X msg 350 103 0;
#X obj 254 148 + 20;
#X msg 442 210 obj 10 \$2 table \$1;
#X obj 120 186 list;
#X obj 182 155 t s b;
#X obj 101 103 t s s;
#X obj 164 123 t s s;
#X obj 94 226 list;
#X obj 54 8 t l b;
#X connect 0 0 20 0;
#X connect 4 0 2 0;
#X connect 4 1 19 0;
#X connect 4 2 17 0;
#X connect 4 3 7 0;
#X connect 4 4 5 0;
#X connect 5 0 7 1;
#X connect 6 0 1 0;
#X connect 7 0 18 0;
#X connect 9 0 12 0;
#X connect 10 0 14 0;
#X connect 11 0 13 0;
#X connect 12 0 11 1;
#X connect 13 0 11 1;
#X connect 13 0 10 1;
#X connect 14 0 8 0;
#X connect 15 0 19 1;
#X connect 16 0 10 0;
#X connect 16 1 11 0;
#X connect 17 0 15 0;
#X connect 17 1 16 0;
#X connect 18 0 15 1;
#X connect 18 1 16 0;
#X connect 19 0 6 0;
#X connect 20 0 4 0;
#X connect 20 1 15 1;
#X restore 250 400 pd load_soundfile;
#N canvas 1624 126 637 738 check_soundfile 0;
#X obj 164 141 iemlib/soundfile_info;
#X msg 166 115 read \$1;
#X obj 52 -37 inlet;
#X obj 42 37 unpack f s;
#X obj 165 168 t l b;
#X obj 33 202 zexy/demultiplex 0 1;
#X msg 194 208 0;
#X obj 56 -4 t l b;
#X msg 522 103 1;
#X obj 164 84 tof/path absolute;
#X obj 181 327 unpack f s f f f;
#X obj 45 648 outlet;
#X obj 246 637 outlet;
#X obj 493 531 outlet;
#X obj 34 278 t f f f;
#X obj 39 609 pack f s s s f;
#X obj 87 432 zexy/demultiplex 0 1;
#X obj 208 392 > 1;
#X obj 94 304 pack f \$0;
#X obj 374 263 print [sampleFiler];
#X msg 374 235 Importing \$1;
#X obj 164 57 t s s s;
#X obj 242 593 pack f s f f s s f s;
#X obj 288 551 unpack s s;
#X obj 82 542 unpack s s;
#X msg 78 476 list 0-\$2/\$1 0-\$2/\$1;
#X msg 225 473 list 0-\$2/\$1 1-\$2/\$1;
#X connect 0 0 4 0;
#X connect 1 0 0 0;
#X connect 2 0 7 0;
#X connect 3 0 5 0;
#X connect 3 1 21 0;
#X connect 4 0 10 0;
#X connect 4 1 6 0;
#X connect 5 0 14 0;
#X connect 5 1 13 0;
#X connect 6 0 5 1;
#X connect 7 0 3 0;
#X connect 7 1 8 0;
#X connect 8 0 5 1;
#X connect 9 0 1 0;
#X connect 10 0 22 3;
#X connect 10 1 15 1;
#X connect 10 1 22 7;
#X connect 10 2 22 2;
#X connect 10 4 15 4;
#X connect 10 4 17 0;
#X connect 10 4 22 6;
#X connect 14 0 15 0;
#X connect 14 1 22 0;
#X connect 14 2 18 0;
#X connect 15 0 11 0;
#X connect 16 0 25 0;
#X connect 16 1 26 0;
#X connect 17 0 16 1;
#X connect 18 0 16 0;
#X connect 20 0 19 0;
#X connect 21 0 9 0;
#X connect 21 1 22 1;
#X connect 21 2 20 0;
#X connect 22 0 12 0;
#X connect 23 0 22 4;
#X connect 23 1 22 5;
#X connect 24 0 15 2;
#X connect 24 1 15 3;
#X connect 25 0 24 0;
#X connect 25 0 23 0;
#X connect 26 0 23 0;
#X connect 26 0 24 0;
#X restore 251 344 pd check_soundfile;
#X msg 586 190 clear;
#X obj 586 215 s pd-\$0tables;
#X obj 570 92 loadbang;
#X obj 261 655 outlet index;
#X obj 142 185 cyclone/tosymbol;
#X obj 569 159 t b b b b;
#X obj 256 143 f 0;
#X msg 310 102 \$1;
#X obj 592 118 bng 15 250 50 0 empty empty empty 17 7 0 10 -262144
-1 -1;
#X obj 127 117 t b a b;
#X obj 534 36 inlet;
#X obj 697 627 outlet dump;
#X obj 132 655 outlet sample;
#X obj 128 43 route add float bang symbol dump;
#N canvas 1286 47 1018 686 data 0;
#X obj 838 590 outlet index;
#X obj 217 21 inlet;
#X obj 224 87 unpack f s;
#X obj 462 24 inlet data(soundfile_info);
#X obj 190 296 cyclone/coll;
#C restore;
#X obj 222 117 t f f;
#X obj 102 643 outlet sample;
#X obj 407 111 cyclone/prepend nstore;
#X msg 312 305 open;
#X obj 736 25 inlet;
#X msg 719 139 clear;
#X obj 148 467 cyclone/prepend sample;
#X connect 1 0 2 0;
#X connect 2 0 5 0;
#X connect 3 0 7 0;
#X connect 4 0 11 0;
#X connect 5 0 4 0;
#X connect 5 1 0 0;
#X connect 7 0 4 0;
#X connect 8 0 4 0;
#X connect 9 0 10 0;
#X connect 10 0 4 0;
#X connect 11 0 6 0;
#X restore 137 570 pd data;
#X obj 39 496 spigot 1;
#X msg 128 463 1;
#X msg 175 464 0;
#X connect 0 0 18 0;
#X connect 2 0 20 0;
#X connect 2 1 4 0;
#X connect 2 2 10 0;
#X connect 2 3 16 0;
#X connect 3 0 20 0;
#X connect 4 0 3 0;
#X connect 4 1 19 1;
#X connect 4 2 2 2;
#X connect 5 0 6 0;
#X connect 7 0 10 0;
#X connect 9 0 2 0;
#X connect 10 0 2 2;
#X connect 10 1 5 0;
#X connect 10 2 3 1;
#X connect 10 3 19 2;
#X connect 11 0 2 1;
#X connect 12 0 11 1;
#X connect 13 0 10 0;
#X connect 14 0 21 0;
#X connect 14 1 9 0;
#X connect 14 2 22 0;
#X connect 15 0 2 1;
#X connect 18 0 14 0;
#X connect 18 1 2 1;
#X connect 18 2 11 0;
#X connect 18 3 2 0;
#X connect 18 4 2 3;
#X connect 18 5 9 0;
#X connect 19 0 17 0;
#X connect 19 1 8 0;
#X connect 20 0 19 0;
#X connect 21 0 20 1;
#X connect 22 0 20 1;
