#N canvas 0 25 1272 692 10;
#X obj 66 300 outlet~;
#X obj 27 47 inlet~;
#X obj 996 37 inlet params;
#X obj 996 83 print PARAM_NOTFOUND;
#X obj 996 59 tof/param route;
#X obj 974 183 b;
#X obj 975 212 tof/param gui;
#X obj 128 44 inlet~;
#X obj 185 301 outlet~;
#X obj 244 49 tof/param /thresold 0 /g slider 0 500;
#X obj 81 176 sigpack/saturate~;
#X obj 178 206 sigpack/saturate~;
#X connect 1 0 10 0;
#X connect 2 0 4 0;
#X connect 4 0 3 0;
#X connect 5 0 6 0;
#X connect 7 0 11 0;
#X connect 9 0 10 1;
#X connect 9 0 11 1;
#X connect 10 0 0 0;
#X connect 11 0 8 0;
