#N canvas 1 82 1272 661 10;
#X obj 149 489 outlet~;
#X obj 238 517 outlet~;
#X obj 1019 221 inlet params;
#X obj 1019 267 print PARAM_NOTFOUND;
#X obj 1019 243 tof/param route;
#X obj 1012 298 b;
#X obj 1013 327 tof/param gui;
#X obj 143 68 inlet~;
#X obj 258 71 inlet~;
#N canvas 0 50 1272 714 compression 0;
#X obj 112 216 /;
#X obj 112 172 samplerate~;
#X obj 112 149 loadbang;
#X msg 112 194 1000 \$1;
#X text 165 238 env~ window duration;
#X obj 112 238 * 256;
#X obj 124 78 inlet~;
#X obj 109 335 outlet~;
#X obj 113 122 delwrite~ \$0-del-g 100;
#X obj 112 267 delread~ \$0-del-g 10;
#X connect 0 0 5 0;
#X connect 1 0 3 0;
#X connect 2 0 1 0;
#X connect 3 0 0 0;
#X connect 5 0 9 0;
#X connect 6 0 8 0;
#X connect 9 0 7 0;
#X restore 144 212 pd compression;
#N canvas 1 82 1272 661 compression 0;
#X obj 112 216 /;
#X obj 112 172 samplerate~;
#X obj 112 267 delread~ \$0-del 10;
#X msg 112 194 1000 \$1;
#X text 165 238 env~ window duration;
#X obj 113 122 delwrite~ \$0-del 100;
#X obj 112 238 * 256;
#X obj 124 78 inlet~;
#X obj 109 335 outlet~;
#X obj 112 149 initbang;
#X connect 0 0 6 0;
#X connect 1 0 3 0;
#X connect 2 0 8 0;
#X connect 3 0 0 0;
#X connect 6 0 2 0;
#X connect 7 0 5 0;
#X connect 9 0 1 0;
#X restore 258 214 pd compression;
#N canvas 501 236 604 532 vol 0;
#X obj 77 16 inlet~;
#X obj 105 86 moses 80;
#X obj 159 184 - 80;
#X obj 184 20 inlet;
#X obj 235 21 inlet;
#X obj 161 259 * -1;
#X obj 162 284 + 100;
#X text 235 196 x - x/r;
#X text 232 215 (x*r - x)/ r;
#X text 234 234 x*(r-1)/r;
#X obj 160 210 * 1;
#X obj 197 184 - 1;
#X obj 163 316 dbtorms;
#X obj 122 436 outlet;
#X obj 51 438 outlet;
#X msg 83 314 1;
#X obj 127 146 moses;
#X obj 178 147 f;
#X msg 158 122 0;
#X obj 160 233 / 2;
#X obj 121 380 moses 0;
#X obj 122 350 t f f;
#X obj 76 38 env~ 512 256;
#X connect 0 0 22 0;
#X connect 1 0 15 0;
#X connect 1 0 18 0;
#X connect 1 1 16 0;
#X connect 2 0 10 0;
#X connect 3 0 1 1;
#X connect 3 0 2 1;
#X connect 4 0 11 0;
#X connect 4 0 19 1;
#X connect 5 0 6 0;
#X connect 6 0 12 0;
#X connect 10 0 19 0;
#X connect 11 0 10 1;
#X connect 12 0 21 0;
#X connect 15 0 21 0;
#X connect 16 0 17 0;
#X connect 16 1 2 0;
#X connect 17 0 16 1;
#X connect 18 0 16 1;
#X connect 19 0 5 0;
#X connect 20 0 13 0;
#X connect 20 1 14 0;
#X connect 21 0 20 1;
#X connect 21 1 20 0;
#X connect 22 0 1 0;
#X restore 379 319 pd vol;
#X obj 406 414 line~;
#X obj 538 295 pack 0 20;
#X obj 379 350 pack 0 200;
#X obj 143 453 *~;
#X obj 259 484 *~;
#X obj 378 59 inlet~;
#X obj 598 268 tof/param /attack 20 /g nbx;
#X obj 527 233 tof/param /release 200 /g nbx;
#X obj 478 183 tof/param /ratio 1 /g nbx;
#X obj 467 152 tof/param /thresh 80 /g nbx;
#X obj 591 128 tof/argument 3;
#X obj 563 107 tof/argument 4;
#X obj 527 83 tof/argument 5;
#X obj 492 61 tof/argument 6;
#X obj 528 27 loadbang;
#X connect 2 0 4 0;
#X connect 4 0 3 0;
#X connect 5 0 6 0;
#X connect 7 0 9 0;
#X connect 8 0 10 0;
#X connect 9 0 15 0;
#X connect 10 0 16 0;
#X connect 11 0 14 0;
#X connect 11 1 13 0;
#X connect 12 0 15 1;
#X connect 12 0 16 1;
#X connect 13 0 12 0;
#X connect 14 0 12 0;
#X connect 15 0 0 0;
#X connect 16 0 1 0;
#X connect 17 0 11 0;
#X connect 18 0 13 1;
#X connect 19 0 14 1;
#X connect 20 0 11 2;
#X connect 21 0 11 1;
#X connect 22 0 18 0;
#X connect 23 0 19 0;
#X connect 24 0 20 0;
#X connect 25 0 21 0;
#X connect 26 0 22 0;
#X connect 26 0 23 0;
#X connect 26 0 24 0;
#X connect 26 0 25 0;
