#N canvas 1 82 1364 661 10;
#X obj 897 30 loadbang;
#X text 852 254 Right outlet outputs the current pattern on every modification
;
#X msg 839 367 45 45 45 45 1 1 1 132 18 20 18 1 66 37 25 42;
#X text 860 117 Right inlet sets pattern;
#X floatatom 238 165 5 0 0 0 - - -;
#X obj 838 341 cyclone/prepend set;
#X text 23 40 tags: sequencing;
#X obj 239 95 loadbang;
#X obj 240 117 tgl 15 0 empty empty empty 17 7 0 10 -262144 -1 -1 1
1;
#X obj 218 255 seq-1x16-nbx;
#X obj 348 14 mtl/clkMaster 120;
#X obj 238 139 mtl/clkSlave 2 16;
#X text 12 23 Description: An 16 step beat sequencer.;
#X floatatom 255 321 5 0 0 0 - - -;
#X msg 822 137 45 45 45 45 1 1 1 1 18 20 18 1 1 1 1 1;
#X connect 0 0 14 0;
#X connect 4 0 9 0;
#X connect 5 0 2 0;
#X connect 7 0 8 0;
#X connect 8 0 11 0;
#X connect 9 0 13 0;
#X connect 9 1 5 0;
#X connect 11 0 4 0;
#X connect 14 0 9 1;
