#N canvas 1 82 1364 661 10;
#X obj -138 119 select 0 1 2 3 4 5 6 7;
#X obj 224 -10 % 8;
#X obj 223 -64 inlet;
#X obj 534 -46 inlet;
#X obj 534 -22 unpack f f f f f f f f;
#X obj 149 103 nbx 3 20 -1 127 0 0 empty \$0-seq1 empty 0 -8 0 10 -99865
-1 -262144 0 256;
#X obj 173 124 nbx 3 20 -1 127 0 0 empty \$0-seq2 empty 0 -8 0 10 -258699
-1 -262144 0 256;
#X obj 198 144 nbx 3 20 -1 127 0 0 empty \$0-seq3 empty 0 -8 0 10 -99865
-1 -262144 0 256;
#X obj 173 164 nbx 3 20 -1 127 0 0 empty \$0-seq4 empty 0 -8 0 10 -99865
-1 -262144 0 256;
#X obj 150 184 nbx 3 20 -1 127 0 0 empty \$0-seq5 empty 0 -8 0 10 -99865
-1 -262144 0 256;
#X obj 126 164 nbx 3 20 -1 127 0 0 empty \$0-seq6 empty 0 -8 0 10 -99865
-1 -262144 0 256;
#X obj 102 144 nbx 3 20 -1 127 0 0 empty \$0-seq7 empty 0 -8 0 10 -99865
-1 -262144 0 256;
#X obj 125 123 nbx 3 20 -1 127 0 0 empty \$0-seq8 empty 0 -8 0 10 -99865
-1 -262144 0 256;
#X obj 675 366 t b f;
#X obj 672 427 pack f f f f f f f f;
#X obj 718 367 t b f;
#X obj 759 367 t b f;
#X obj 802 368 t b f;
#X obj 844 368 t b f;
#X obj 887 369 t b f;
#X obj 928 369 t b f;
#X obj 687 460 outlet;
#X obj 204 -41 route list;
#X obj 640 23 t f f;
#X msg 640 44 set \$1;
#X obj 690 23 t f f;
#X msg 689 44 set \$1;
#X obj 741 23 t f f;
#X msg 741 44 set \$1;
#X obj 791 23 t f f;
#X msg 791 44 set \$1;
#X obj 843 20 t f f;
#X msg 843 41 set \$1;
#X obj 893 20 t f f;
#X msg 893 41 set \$1;
#X obj 944 20 t f f;
#X msg 945 42 set \$1;
#X obj 994 20 t f f;
#X msg 994 41 set \$1;
#X obj -38 335 f;
#X obj -11 353 f;
#X obj 5 372 f;
#X obj 32 390 f;
#X obj 46 408 f;
#X obj 73 426 f;
#X obj 89 448 f;
#X obj 113 467 f;
#X obj 101 494 pack f 127;
#X obj 94 578 outlet;
#X obj 318 76 select 0 1 2 3 4 5 6 7;
#X obj 323 426 f;
#X obj 352 415 f;
#X obj 382 409 f;
#X obj 411 406 f;
#X obj 437 412 f;
#X obj 458 434 f;
#X obj 481 454 f;
#X obj 508 473 f;
#X obj 229 487 pack f 0;
#X obj 76 520 route -1;
#N canvas 1 82 1364 661 color 1;
#X obj 71 24 inlet;
#X obj 861 38 inlet;
#X obj 220 151 route 0 1 2 3 4 5 6 7;
#X obj 34 245 s \$0-seq1;
#X obj 593 202 s \$0-seq1;
#X obj 812 126 t b b b b b b b b;
#X obj 669 233 s \$0-seq2;
#X obj 755 259 s \$0-seq3;
#X obj 831 290 s \$0-seq4;
#X obj 917 325 s \$0-seq5;
#X obj 992 356 s \$0-seq6;
#X obj 1079 382 s \$0-seq7;
#X obj 1155 413 s \$0-seq8;
#X obj 102 270 s \$0-seq2;
#X obj 170 297 s \$0-seq3;
#X obj 240 324 s \$0-seq4;
#X obj 304 348 s \$0-seq5;
#X obj 372 373 s \$0-seq6;
#X obj 440 400 s \$0-seq7;
#X obj 510 427 s \$0-seq8;
#X msg 33 220 color 13;
#X msg 101 245 color 13;
#X msg 169 272 color 13;
#X msg 240 299 color 13;
#X msg 303 323 color 13;
#X msg 371 348 color 13;
#X msg 439 375 color 13;
#X msg 509 402 color 13;
#X msg 593 178 color 1;
#X msg 668 208 color 1;
#X msg 754 234 color 1;
#X msg 830 265 color 1;
#X msg 916 300 color 1;
#X msg 992 331 color 1;
#X msg 1078 357 color 1;
#X msg 1154 388 color 1;
#X obj 795 66 initbang;
#X connect 0 0 2 0;
#X connect 1 0 5 0;
#X connect 2 0 20 0;
#X connect 2 1 21 0;
#X connect 2 2 22 0;
#X connect 2 3 23 0;
#X connect 2 4 24 0;
#X connect 2 5 25 0;
#X connect 2 6 26 0;
#X connect 2 7 27 0;
#X connect 5 0 28 0;
#X connect 5 1 29 0;
#X connect 5 2 30 0;
#X connect 5 3 31 0;
#X connect 5 4 32 0;
#X connect 5 5 33 0;
#X connect 5 6 34 0;
#X connect 5 7 35 0;
#X connect 20 0 3 0;
#X connect 21 0 13 0;
#X connect 22 0 14 0;
#X connect 23 0 15 0;
#X connect 24 0 16 0;
#X connect 25 0 17 0;
#X connect 26 0 18 0;
#X connect 27 0 19 0;
#X connect 28 0 4 0;
#X connect 29 0 6 0;
#X connect 30 0 7 0;
#X connect 31 0 8 0;
#X connect 32 0 9 0;
#X connect 33 0 10 0;
#X connect 34 0 11 0;
#X connect 35 0 12 0;
#X connect 36 0 5 0;
#X restore 315 45 pd color;
#X obj 228 15 t f f f b;
#X connect 0 0 39 0;
#X connect 0 1 40 0;
#X connect 0 2 41 0;
#X connect 0 3 42 0;
#X connect 0 4 43 0;
#X connect 0 5 44 0;
#X connect 0 6 45 0;
#X connect 0 7 46 0;
#X connect 1 0 61 0;
#X connect 2 0 22 0;
#X connect 3 0 4 0;
#X connect 4 0 23 0;
#X connect 4 1 25 0;
#X connect 4 2 27 0;
#X connect 4 3 29 0;
#X connect 4 4 31 0;
#X connect 4 5 33 0;
#X connect 4 6 35 0;
#X connect 4 7 37 0;
#X connect 5 0 14 0;
#X connect 5 0 39 1;
#X connect 5 0 50 1;
#X connect 6 0 13 0;
#X connect 6 0 40 1;
#X connect 6 0 51 1;
#X connect 7 0 15 0;
#X connect 7 0 41 1;
#X connect 7 0 52 1;
#X connect 8 0 16 0;
#X connect 8 0 42 1;
#X connect 8 0 53 1;
#X connect 9 0 17 0;
#X connect 9 0 43 1;
#X connect 9 0 54 1;
#X connect 10 0 18 0;
#X connect 10 0 44 1;
#X connect 10 0 55 1;
#X connect 11 0 19 0;
#X connect 11 0 45 1;
#X connect 11 0 56 1;
#X connect 12 0 20 0;
#X connect 12 0 46 1;
#X connect 12 0 57 1;
#X connect 13 0 14 0;
#X connect 13 1 14 1;
#X connect 14 0 21 0;
#X connect 15 0 14 0;
#X connect 15 1 14 2;
#X connect 16 0 14 0;
#X connect 16 1 14 3;
#X connect 17 0 14 0;
#X connect 17 1 14 4;
#X connect 18 0 14 0;
#X connect 18 1 14 5;
#X connect 19 0 14 0;
#X connect 19 1 14 6;
#X connect 20 0 14 0;
#X connect 20 1 14 7;
#X connect 22 0 4 0;
#X connect 22 1 1 0;
#X connect 23 0 24 0;
#X connect 23 1 14 0;
#X connect 23 1 39 1;
#X connect 23 1 50 1;
#X connect 24 0 5 0;
#X connect 25 0 26 0;
#X connect 25 1 14 1;
#X connect 25 1 40 1;
#X connect 25 1 51 1;
#X connect 26 0 6 0;
#X connect 27 0 28 0;
#X connect 27 1 14 2;
#X connect 27 1 41 1;
#X connect 27 1 52 1;
#X connect 28 0 7 0;
#X connect 29 0 30 0;
#X connect 29 1 14 3;
#X connect 29 1 42 1;
#X connect 29 1 53 1;
#X connect 30 0 8 0;
#X connect 31 0 32 0;
#X connect 31 1 14 4;
#X connect 31 1 43 1;
#X connect 31 1 54 1;
#X connect 32 0 9 0;
#X connect 33 0 34 0;
#X connect 33 1 14 5;
#X connect 33 1 44 1;
#X connect 33 1 55 1;
#X connect 34 0 10 0;
#X connect 35 0 36 0;
#X connect 35 1 14 6;
#X connect 35 1 45 1;
#X connect 35 1 56 1;
#X connect 36 0 11 0;
#X connect 37 0 38 0;
#X connect 37 1 14 7;
#X connect 37 1 46 1;
#X connect 37 1 57 1;
#X connect 38 0 12 0;
#X connect 39 0 47 0;
#X connect 40 0 47 0;
#X connect 41 0 47 0;
#X connect 42 0 47 0;
#X connect 43 0 47 0;
#X connect 44 0 47 0;
#X connect 45 0 47 0;
#X connect 46 0 47 0;
#X connect 47 0 59 0;
#X connect 49 0 57 0;
#X connect 49 1 50 0;
#X connect 49 2 51 0;
#X connect 49 3 52 0;
#X connect 49 4 53 0;
#X connect 49 5 54 0;
#X connect 49 6 55 0;
#X connect 49 7 56 0;
#X connect 50 0 58 0;
#X connect 51 0 58 0;
#X connect 52 0 58 0;
#X connect 53 0 58 0;
#X connect 54 0 58 0;
#X connect 55 0 58 0;
#X connect 56 0 58 0;
#X connect 57 0 58 0;
#X connect 58 0 48 0;
#X connect 59 1 48 0;
#X connect 61 0 0 0;
#X connect 61 1 49 0;
#X connect 61 2 60 0;
#X connect 61 3 60 1;
#X coords 0 -1 1 1 139 107 2 100 100;
