#N canvas 1 82 1364 661 10;
#X obj 517 48 loadbang;
#X text 522 307 Right outlet outputs the current pattern on every modification
;
#X text 12 23 Description: An 8 step beat sequencer.;
#X msg 514 409 6 0 6 0 6 0 6 0 6 0 6 0 6 0 6 0;
#X text 480 135 Right inlet sets pattern;
#X floatatom 238 165 5 0 0 0 - - -;
#X obj 513 383 cyclone/prepend set;
#X text 23 40 tags: sequencing;
#X obj 239 95 loadbang;
#X obj 240 117 tgl 15 0 empty empty empty 17 7 0 10 -262144 -1 -1 1
1;
#X obj 238 139 mtl/clkSlave 2 8;
#X obj 225 441 mtl/beep~ /id beep;
#X obj 237 514 dac~;
#X msg 442 155 10 1 3 0 6 1 0 0 11 2 6 0 6 0 6 0;
#X obj 348 14 mtl/clkMaster 120;
#X text 159 383 Octave ->;
#X text 162 296 Notes ->;
#X obj 218 255 mtl/seq1x8-midi;
#X connect 0 0 13 0;
#X connect 5 0 17 0;
#X connect 6 0 3 0;
#X connect 8 0 9 0;
#X connect 9 0 10 0;
#X connect 10 0 5 0;
#X connect 11 0 12 0;
#X connect 11 0 12 1;
#X connect 13 0 17 1;
#X connect 17 0 11 0;
#X connect 17 1 6 0;
