#N canvas 1 82 1364 661 10;
#X obj 171 -83 inlet;
#X obj 100 68 vslider-seq1x16-midi;
#X obj 108 68 vslider-seq1x16-midi;
#X obj 116 68 vslider-seq1x16-midi;
#X obj 124 68 vslider-seq1x16-midi;
#X obj 132 68 vslider-seq1x16-midi;
#X obj 140 68 vslider-seq1x16-midi;
#X obj 148 68 vslider-seq1x16-midi;
#X obj 156 68 vslider-seq1x16-midi;
#X obj 677 579 outlet;
#X obj 171 -60 route list;
#X obj -342 451 f;
#X obj -308 451 f;
#X obj -280 452 f;
#X obj -250 452 f;
#X obj -217 452 f;
#X obj -185 455 f;
#X obj -154 456 f;
#X obj -120 455 f;
#X obj -255 517 pack f 127;
#X obj 99 594 outlet;
#X obj 10 55 s \$0current;
#X obj 198 442 f;
#X obj 227 441 f;
#X obj 261 438 f;
#X obj 292 438 f;
#X obj 323 439 f;
#X obj 356 440 f;
#X obj 391 442 f;
#X obj 429 442 f;
#X obj 474 523 pack f 0;
#X obj -187 74 t f f;
#X obj 116 59 cnv 8 8 8 empty \$0current empty 20 12 0 14 -258113 -66577
0;
#X obj 61 559 route 0;
#X obj 6 14 + 100;
#X msg 4 34 pos \$1 59;
#X obj 375 -83 inlet;
#N canvas 1 82 1364 661 unpack 0;
#X obj 681 593 outlet;
#X obj 431 327 unpack;
#X obj 507 327 unpack;
#X obj 579 326 unpack;
#X obj 662 328 unpack;
#X obj 746 330 unpack;
#X obj 830 326 unpack;
#X obj 904 311 unpack;
#X obj 413 351 t b f;
#X obj 452 351 t b f;
#X obj 493 352 t b f;
#X obj 532 353 t b f;
#X obj 578 356 t b f;
#X obj 611 355 t b f;
#X obj 659 356 t b f;
#X obj 699 361 t b f;
#X obj 742 357 t b f;
#X obj 782 362 t b f;
#X obj 819 361 t b f;
#X obj 859 366 t b f;
#X obj 904 348 t b f;
#X obj 948 349 t b f;
#X obj 336 325 unpack;
#X obj 318 349 t b f;
#X obj 357 349 t b f;
#X obj 340 149 inlet;
#X obj 430 148 inlet;
#X obj 507 147 inlet;
#X obj 591 143 inlet;
#X obj 678 149 inlet;
#X obj 771 150 inlet;
#X obj 854 153 inlet;
#X obj 891 150 inlet;
#X obj 694 518 pack f f f f f f f f f f f f f f f f;
#X connect 1 0 8 0;
#X connect 1 1 9 0;
#X connect 2 0 10 0;
#X connect 2 1 11 0;
#X connect 3 0 12 0;
#X connect 3 1 13 0;
#X connect 4 0 14 0;
#X connect 4 1 15 0;
#X connect 5 0 16 0;
#X connect 5 1 17 0;
#X connect 6 0 18 0;
#X connect 6 1 19 0;
#X connect 7 0 20 0;
#X connect 7 1 21 0;
#X connect 8 0 33 0;
#X connect 8 1 33 2;
#X connect 9 0 33 0;
#X connect 9 1 33 3;
#X connect 10 0 33 0;
#X connect 10 1 33 4;
#X connect 11 0 33 0;
#X connect 11 1 33 5;
#X connect 12 0 33 0;
#X connect 12 1 33 6;
#X connect 13 0 33 0;
#X connect 13 1 33 7;
#X connect 14 0 33 0;
#X connect 14 1 33 8;
#X connect 15 0 33 0;
#X connect 15 1 33 9;
#X connect 16 0 33 0;
#X connect 16 1 33 10;
#X connect 17 0 33 0;
#X connect 17 1 33 11;
#X connect 18 0 33 0;
#X connect 18 1 33 12;
#X connect 19 0 33 0;
#X connect 19 1 33 13;
#X connect 20 0 33 0;
#X connect 20 1 33 14;
#X connect 21 0 33 0;
#X connect 21 1 33 15;
#X connect 22 0 23 0;
#X connect 22 1 24 0;
#X connect 23 0 33 0;
#X connect 23 1 33 0;
#X connect 24 0 33 0;
#X connect 24 1 33 1;
#X connect 25 0 22 0;
#X connect 26 0 1 0;
#X connect 27 0 2 0;
#X connect 28 0 3 0;
#X connect 29 0 4 0;
#X connect 30 0 5 0;
#X connect 31 0 6 0;
#X connect 32 0 7 0;
#X connect 33 0 0 0;
#X restore 736 416 pd unpack __________________________________;
#N canvas 1 82 1364 661 pack2 0;
#X obj 731 -35 inlet;
#X obj 539 115 pack;
#X obj 570 117 pack;
#X obj 602 117 pack;
#X obj 631 116 pack;
#X obj 662 117 pack;
#X obj 693 117 pack;
#X obj 724 116 pack;
#X obj 755 116 pack;
#X obj 424 244 outlet;
#X obj 470 245 outlet;
#X obj 515 246 outlet;
#X obj 561 247 outlet;
#X obj 608 245 outlet;
#X obj 654 246 outlet;
#X obj 699 247 outlet;
#X obj 745 248 outlet;
#X obj 663 0 unpack f f f f f f f f f f f f f f f f;
#X connect 0 0 17 0;
#X connect 1 0 9 0;
#X connect 2 0 10 0;
#X connect 3 0 11 0;
#X connect 4 0 12 0;
#X connect 5 0 13 0;
#X connect 6 0 14 0;
#X connect 7 0 15 0;
#X connect 8 0 16 0;
#X connect 17 0 1 0;
#X connect 17 1 1 1;
#X connect 17 2 2 0;
#X connect 17 3 2 1;
#X connect 17 4 3 0;
#X connect 17 5 3 1;
#X connect 17 6 4 0;
#X connect 17 7 4 1;
#X connect 17 8 5 0;
#X connect 17 9 5 1;
#X connect 17 10 6 0;
#X connect 17 11 6 1;
#X connect 17 12 7 0;
#X connect 17 13 7 1;
#X connect 17 14 8 0;
#X connect 17 15 8 1;
#X restore 362 -17 pd pack2 __________________________________;
#X obj 14 -8 * 8;
#X obj -306 128 select 0 1 2 3 4 5 6;
#X obj 384 157 select 0 1 2 3 4 5 6;
#X obj 168 -8 % 8;
#X obj 8 -28 mod 8;
#X obj 482 -84 loadbang;
#X msg 485 -53 -1 -1 -1 -1 -1 -1 -1 -1 -1 -1 -1 -1 -1 -1 -1 -1;
#X connect 0 0 10 0;
#X connect 1 0 37 0;
#X connect 1 0 11 1;
#X connect 1 0 22 1;
#X connect 2 0 37 1;
#X connect 2 0 12 1;
#X connect 2 0 23 1;
#X connect 3 0 37 2;
#X connect 3 0 13 1;
#X connect 3 0 24 1;
#X connect 4 0 37 3;
#X connect 4 0 14 1;
#X connect 4 0 25 1;
#X connect 5 0 37 4;
#X connect 5 0 15 1;
#X connect 5 0 26 1;
#X connect 6 0 37 5;
#X connect 6 0 16 1;
#X connect 6 0 27 1;
#X connect 7 0 37 6;
#X connect 7 0 17 1;
#X connect 7 0 28 1;
#X connect 8 0 37 7;
#X connect 8 0 18 1;
#X connect 8 0 29 1;
#X connect 10 1 42 0;
#X connect 10 1 43 0;
#X connect 11 0 19 0;
#X connect 12 0 19 0;
#X connect 13 0 19 0;
#X connect 14 0 19 0;
#X connect 15 0 19 0;
#X connect 16 0 19 0;
#X connect 17 0 19 0;
#X connect 18 0 19 0;
#X connect 19 0 33 0;
#X connect 22 0 30 0;
#X connect 23 0 30 0;
#X connect 24 0 30 0;
#X connect 25 0 30 0;
#X connect 26 0 30 0;
#X connect 27 0 30 0;
#X connect 28 0 30 0;
#X connect 29 0 30 0;
#X connect 30 0 33 0;
#X connect 31 0 40 0;
#X connect 31 1 41 0;
#X connect 33 1 20 0;
#X connect 34 0 35 0;
#X connect 35 0 21 0;
#X connect 36 0 38 0;
#X connect 37 0 9 0;
#X connect 38 0 1 0;
#X connect 38 1 2 0;
#X connect 38 2 3 0;
#X connect 38 3 4 0;
#X connect 38 4 5 0;
#X connect 38 5 6 0;
#X connect 38 6 7 0;
#X connect 38 7 8 0;
#X connect 39 0 34 0;
#X connect 40 0 11 0;
#X connect 40 1 12 0;
#X connect 40 2 13 0;
#X connect 40 3 14 0;
#X connect 40 4 15 0;
#X connect 40 5 16 0;
#X connect 40 6 17 0;
#X connect 40 7 18 0;
#X connect 41 0 29 0;
#X connect 41 1 22 0;
#X connect 41 2 23 0;
#X connect 41 3 24 0;
#X connect 41 4 25 0;
#X connect 41 5 26 0;
#X connect 41 6 27 0;
#X connect 41 7 28 0;
#X connect 42 0 31 0;
#X connect 43 0 39 0;
#X connect 44 0 45 0;
#X connect 45 0 38 0;
#X coords 0 -1 1 1 66 106 2 100 58;
