#N canvas 1 82 1364 661 10;
#X obj 171 -83 inlet;
#X obj 100 67 unit-seq1x16-midi;
#X obj 108 67 unit-seq1x16-midi;
#X obj 116 67 unit-seq1x16-midi;
#X obj 124 67 unit-seq1x16-midi;
#X obj 132 67 unit-seq1x16-midi;
#X obj 140 67 unit-seq1x16-midi;
#X obj 148 67 unit-seq1x16-midi;
#X obj 156 67 unit-seq1x16-midi;
#X obj 677 579 outlet;
#X obj 171 -60 route list;
#X obj -342 451 f;
#X obj -308 451 f;
#X obj -280 452 f;
#X obj -250 452 f;
#X obj -217 452 f;
#X obj -185 455 f;
#X obj -154 456 f;
#X obj -120 455 f;
#X obj -255 517 pack f 127;
#X obj 99 594 outlet;
#X obj 10 55 s \$0current;
#X obj 198 442 f;
#X obj 227 441 f;
#X obj 261 438 f;
#X obj 292 438 f;
#X obj 323 439 f;
#X obj 356 440 f;
#X obj 391 442 f;
#X obj 429 442 f;
#X obj 474 523 pack f 0;
#X obj -187 74 t f f;
#X obj 156 59 cnv 8 8 8 empty \$0current empty 20 12 0 14 -258113 -66577
0;
#N canvas 1 82 1364 661 math 0;
#X obj 69 447 outlet;
#X obj 175 245 + 48;
#X obj 202 204 * 12;
#X obj 128 315 +;
#X obj 159 286 t b f;
#X obj 143 95 unpack;
#X obj 162 67 inlet;
#X obj 98 367 *;
#X obj 47 162 route 0;
#X msg 78 194 1;
#X msg 43 193 0;
#X obj 62 236 t b f;
#X connect 1 0 4 0;
#X connect 2 0 1 0;
#X connect 3 0 7 0;
#X connect 4 0 3 0;
#X connect 4 1 3 1;
#X connect 5 0 3 0;
#X connect 5 0 8 0;
#X connect 5 1 2 0;
#X connect 6 0 5 0;
#X connect 7 0 0 0;
#X connect 8 0 10 0;
#X connect 8 1 9 0;
#X connect 9 0 11 0;
#X connect 10 0 11 0;
#X connect 11 0 7 0;
#X connect 11 1 7 1;
#X restore -459 283 pd math;
#N canvas 1 82 1364 661 math 0;
#X obj 79 457 outlet;
#X obj 185 255 + 48;
#X obj 212 214 * 12;
#X obj 138 325 +;
#X obj 169 296 t b f;
#X obj 153 105 unpack;
#X obj 172 77 inlet;
#X obj 108 377 *;
#X obj 57 172 route 0;
#X msg 88 204 1;
#X msg 53 203 0;
#X obj 72 246 t b f;
#X connect 1 0 4 0;
#X connect 2 0 1 0;
#X connect 3 0 7 0;
#X connect 4 0 3 0;
#X connect 4 1 3 1;
#X connect 5 0 3 0;
#X connect 5 0 8 0;
#X connect 5 1 2 0;
#X connect 6 0 5 0;
#X connect 7 0 0 0;
#X connect 8 0 10 0;
#X connect 8 1 9 0;
#X connect 9 0 11 0;
#X connect 10 0 11 0;
#X connect 11 0 7 0;
#X connect 11 1 7 1;
#X restore -410 284 pd math;
#N canvas 1 82 1364 661 math 0;
#X obj 89 467 outlet;
#X obj 195 265 + 48;
#X obj 222 224 * 12;
#X obj 148 335 +;
#X obj 179 306 t b f;
#X obj 163 115 unpack;
#X obj 182 87 inlet;
#X obj 118 387 *;
#X obj 67 182 route 0;
#X msg 98 214 1;
#X msg 63 213 0;
#X obj 82 256 t b f;
#X connect 1 0 4 0;
#X connect 2 0 1 0;
#X connect 3 0 7 0;
#X connect 4 0 3 0;
#X connect 4 1 3 1;
#X connect 5 0 3 0;
#X connect 5 0 8 0;
#X connect 5 1 2 0;
#X connect 6 0 5 0;
#X connect 7 0 0 0;
#X connect 8 0 10 0;
#X connect 8 1 9 0;
#X connect 9 0 11 0;
#X connect 10 0 11 0;
#X connect 11 0 7 0;
#X connect 11 1 7 1;
#X restore -359 285 pd math;
#N canvas 1 82 1364 661 math 0;
#X obj 116 517 outlet;
#X obj 143 138 unpack;
#X obj 162 67 inlet;
#X obj 211 313 + 48;
#X obj 238 272 * 12;
#X obj 164 383 +;
#X obj 195 354 t b f;
#X obj 134 435 *;
#X obj 70 226 route 0;
#X msg 114 262 1;
#X msg 79 261 0;
#X obj 98 304 t b f;
#X connect 1 0 5 0;
#X connect 1 0 8 0;
#X connect 1 1 4 0;
#X connect 2 0 1 0;
#X connect 3 0 6 0;
#X connect 4 0 3 0;
#X connect 5 0 7 0;
#X connect 6 0 5 0;
#X connect 6 1 5 1;
#X connect 7 0 0 0;
#X connect 8 0 10 0;
#X connect 8 1 9 0;
#X connect 9 0 11 0;
#X connect 10 0 11 0;
#X connect 11 0 7 0;
#X connect 11 1 7 1;
#X restore -310 286 pd math;
#N canvas 1 82 1364 661 math 0;
#X obj 115 395 outlet;
#X obj 162 67 inlet;
#X obj 196 242 + 48;
#X obj 223 201 * 12;
#X obj 149 312 +;
#X obj 180 283 t b f;
#X obj 164 92 unpack;
#X obj 119 364 *;
#X obj 68 159 route 0;
#X msg 99 191 1;
#X msg 64 190 0;
#X obj 83 233 t b f;
#X connect 1 0 6 0;
#X connect 2 0 5 0;
#X connect 3 0 2 0;
#X connect 4 0 7 0;
#X connect 5 0 4 0;
#X connect 5 1 4 1;
#X connect 6 0 4 0;
#X connect 6 0 8 0;
#X connect 6 1 3 0;
#X connect 7 0 0 0;
#X connect 8 0 10 0;
#X connect 8 1 9 0;
#X connect 9 0 11 0;
#X connect 10 0 11 0;
#X connect 11 0 7 0;
#X connect 11 1 7 1;
#X restore -262 284 pd math;
#N canvas 1 82 1364 661 math 0;
#X obj 110 501 outlet;
#X obj 162 67 inlet;
#X obj 209 283 + 48;
#X obj 236 242 * 12;
#X obj 162 353 +;
#X obj 193 324 t b f;
#X obj 177 133 unpack;
#X obj 132 405 *;
#X obj 81 200 route 0;
#X msg 112 232 1;
#X msg 77 231 0;
#X obj 96 274 t b f;
#X connect 1 0 6 0;
#X connect 2 0 5 0;
#X connect 3 0 2 0;
#X connect 4 0 7 0;
#X connect 5 0 4 0;
#X connect 5 1 4 1;
#X connect 6 0 4 0;
#X connect 6 0 8 0;
#X connect 6 1 3 0;
#X connect 7 0 0 0;
#X connect 8 0 10 0;
#X connect 8 1 9 0;
#X connect 9 0 11 0;
#X connect 10 0 11 0;
#X connect 11 0 7 0;
#X connect 11 1 7 1;
#X restore -215 285 pd math;
#N canvas 1 82 1364 661 math 0;
#X obj 122 497 outlet;
#X obj 162 67 inlet;
#X obj 207 285 + 48;
#X obj 234 244 * 12;
#X obj 160 355 +;
#X obj 191 326 t b f;
#X obj 175 135 unpack;
#X obj 130 407 *;
#X obj 79 202 route 0;
#X msg 110 234 1;
#X msg 75 233 0;
#X obj 94 276 t b f;
#X connect 1 0 6 0;
#X connect 2 0 5 0;
#X connect 3 0 2 0;
#X connect 4 0 7 0;
#X connect 5 0 4 0;
#X connect 5 1 4 1;
#X connect 6 0 4 0;
#X connect 6 0 8 0;
#X connect 6 1 3 0;
#X connect 7 0 0 0;
#X connect 8 0 10 0;
#X connect 8 1 9 0;
#X connect 9 0 11 0;
#X connect 10 0 11 0;
#X connect 11 0 7 0;
#X connect 11 1 7 1;
#X restore -166 286 pd math;
#N canvas 1 82 1364 661 math 0;
#X obj 124 563 outlet;
#X obj 162 67 inlet;
#X obj 206 282 + 48;
#X obj 233 241 * 12;
#X obj 159 352 +;
#X obj 190 323 t b f;
#X obj 174 132 unpack;
#X obj 129 404 *;
#X obj 78 199 route 0;
#X msg 109 231 1;
#X msg 74 230 0;
#X obj 93 273 t b f;
#X connect 1 0 6 0;
#X connect 2 0 5 0;
#X connect 3 0 2 0;
#X connect 4 0 7 0;
#X connect 5 0 4 0;
#X connect 5 1 4 1;
#X connect 6 0 4 0;
#X connect 6 0 8 0;
#X connect 6 1 3 0;
#X connect 7 0 0 0;
#X connect 8 0 10 0;
#X connect 8 1 9 0;
#X connect 9 0 11 0;
#X connect 10 0 11 0;
#X connect 11 0 7 0;
#X connect 11 1 7 1;
#X restore -115 287 pd math;
#X obj 61 559 route 0;
#X obj 6 14 + 100;
#X msg 4 34 pos \$1 59;
#X obj 375 -83 inlet;
#N canvas 1 82 1364 661 unpack 0;
#X obj 681 593 outlet;
#X obj 130 337 unpack;
#X obj 206 337 unpack;
#X obj 278 336 unpack;
#X obj 361 338 unpack;
#X obj 445 340 unpack;
#X obj 529 336 unpack;
#X obj 603 321 unpack;
#X obj 112 361 t b f;
#X obj 151 361 t b f;
#X obj 192 362 t b f;
#X obj 231 363 t b f;
#X obj 277 366 t b f;
#X obj 310 365 t b f;
#X obj 358 366 t b f;
#X obj 398 371 t b f;
#X obj 441 367 t b f;
#X obj 481 372 t b f;
#X obj 518 371 t b f;
#X obj 558 376 t b f;
#X obj 603 358 t b f;
#X obj 647 359 t b f;
#X obj 35 335 unpack;
#X obj 17 359 t b f;
#X obj 56 359 t b f;
#X obj 39 159 inlet;
#X obj 129 158 inlet;
#X obj 206 157 inlet;
#X obj 290 153 inlet;
#X obj 377 159 inlet;
#X obj 470 160 inlet;
#X obj 553 163 inlet;
#X obj 590 160 inlet;
#X obj 811 296 unpack;
#X obj 892 296 unpack;
#X obj 964 292 unpack;
#X obj 1049 295 unpack;
#X obj 1128 297 unpack;
#X obj 1221 300 unpack;
#X obj 1296 323 unpack;
#X obj 798 352 t b f;
#X obj 837 352 t b f;
#X obj 879 352 t b f;
#X obj 918 353 t b f;
#X obj 961 352 t b f;
#X obj 1003 354 t b f;
#X obj 1047 352 t b f;
#X obj 1087 357 t b f;
#X obj 1127 357 t b f;
#X obj 1167 362 t b f;
#X obj 1212 361 t b f;
#X obj 1252 366 t b f;
#X obj 1296 360 t b f;
#X obj 1353 369 t b f;
#X obj 717 297 unpack;
#X obj 718 352 t b f;
#X obj 757 352 t b f;
#X obj 690 145 inlet;
#X obj 812 145 inlet;
#X obj 906 146 inlet;
#X obj 988 144 inlet;
#X obj 1065 144 inlet;
#X obj 1187 144 inlet;
#X obj 1281 145 inlet;
#X obj 1363 143 inlet;
#X obj 694 518 pack f f f f f f f f f f f f f f f f f f f f f f f f
f f f f f f f f;
#X connect 1 0 8 0;
#X connect 1 1 9 0;
#X connect 2 0 10 0;
#X connect 2 1 11 0;
#X connect 3 0 12 0;
#X connect 3 1 13 0;
#X connect 4 0 14 0;
#X connect 4 1 15 0;
#X connect 5 0 16 0;
#X connect 5 1 17 0;
#X connect 6 0 18 0;
#X connect 6 1 19 0;
#X connect 7 0 20 0;
#X connect 7 1 21 0;
#X connect 8 0 65 0;
#X connect 8 1 65 2;
#X connect 9 0 65 0;
#X connect 9 1 65 3;
#X connect 10 0 65 0;
#X connect 10 1 65 4;
#X connect 11 0 65 0;
#X connect 11 1 65 5;
#X connect 12 0 65 0;
#X connect 12 1 65 6;
#X connect 13 0 65 0;
#X connect 13 1 65 7;
#X connect 14 0 65 0;
#X connect 14 1 65 8;
#X connect 15 0 65 0;
#X connect 15 1 65 9;
#X connect 16 0 65 0;
#X connect 16 1 65 10;
#X connect 17 0 65 0;
#X connect 17 1 65 11;
#X connect 18 0 65 0;
#X connect 18 1 65 12;
#X connect 19 0 65 0;
#X connect 19 1 65 13;
#X connect 20 0 65 0;
#X connect 20 1 65 14;
#X connect 21 0 65 0;
#X connect 21 1 65 15;
#X connect 22 0 23 0;
#X connect 22 1 24 0;
#X connect 23 0 65 0;
#X connect 23 1 65 0;
#X connect 24 0 65 0;
#X connect 24 1 65 1;
#X connect 25 0 22 0;
#X connect 26 0 1 0;
#X connect 27 0 2 0;
#X connect 28 0 3 0;
#X connect 29 0 4 0;
#X connect 30 0 5 0;
#X connect 31 0 6 0;
#X connect 32 0 7 0;
#X connect 33 0 40 0;
#X connect 33 1 41 0;
#X connect 34 0 42 0;
#X connect 34 1 43 0;
#X connect 35 0 44 0;
#X connect 35 1 45 0;
#X connect 36 0 46 0;
#X connect 36 1 47 0;
#X connect 37 0 48 0;
#X connect 37 1 49 0;
#X connect 38 0 50 0;
#X connect 38 1 51 0;
#X connect 39 0 52 0;
#X connect 39 1 53 0;
#X connect 40 0 65 0;
#X connect 40 1 65 18;
#X connect 41 0 65 0;
#X connect 41 1 65 19;
#X connect 42 0 65 0;
#X connect 42 1 65 20;
#X connect 43 0 65 0;
#X connect 43 1 65 21;
#X connect 44 0 65 0;
#X connect 44 1 65 22;
#X connect 45 0 65 0;
#X connect 45 1 65 23;
#X connect 46 0 65 0;
#X connect 46 1 65 24;
#X connect 47 0 65 0;
#X connect 47 1 65 25;
#X connect 48 0 65 0;
#X connect 48 1 65 26;
#X connect 49 0 65 0;
#X connect 49 1 65 27;
#X connect 50 0 65 0;
#X connect 50 1 65 28;
#X connect 51 0 65 0;
#X connect 51 1 65 29;
#X connect 52 0 65 0;
#X connect 52 1 65 30;
#X connect 53 0 65 0;
#X connect 53 1 65 31;
#X connect 54 0 55 0;
#X connect 54 1 56 0;
#X connect 55 0 65 0;
#X connect 55 1 65 16;
#X connect 56 0 65 0;
#X connect 56 1 65 17;
#X connect 57 0 54 0;
#X connect 58 0 33 0;
#X connect 59 0 34 0;
#X connect 60 0 35 0;
#X connect 61 0 36 0;
#X connect 62 0 37 0;
#X connect 63 0 38 0;
#X connect 64 0 39 0;
#X connect 65 0 0 0;
#X restore 736 416 pd unpack __________________________________;
#N canvas 0 82 1366 662 pack2 0;
#X obj 731 -35 inlet;
#X obj 539 115 pack;
#X obj 570 117 pack;
#X obj 602 117 pack;
#X obj 631 116 pack;
#X obj 662 117 pack;
#X obj 693 117 pack;
#X obj 724 116 pack;
#X obj 755 116 pack;
#X obj 663 0 unpack f f f f f f f f f f f f f f f f f f f f f f f f
f f f f f f f f;
#X obj 794 114 pack;
#X obj 825 116 pack;
#X obj 857 116 pack;
#X obj 886 115 pack;
#X obj 917 116 pack;
#X obj 948 116 pack;
#X obj 979 115 pack;
#X obj 1010 115 pack;
#X obj 424 244 outlet;
#X obj 470 245 outlet;
#X obj 515 246 outlet;
#X obj 561 247 outlet;
#X obj 608 245 outlet;
#X obj 654 246 outlet;
#X obj 699 247 outlet;
#X obj 745 248 outlet;
#X obj 792 245 outlet;
#X obj 838 246 outlet;
#X obj 883 247 outlet;
#X obj 929 248 outlet;
#X obj 976 246 outlet;
#X obj 1022 247 outlet;
#X obj 1067 248 outlet;
#X obj 1113 249 outlet;
#X connect 0 0 9 0;
#X connect 1 0 18 0;
#X connect 2 0 19 0;
#X connect 3 0 20 0;
#X connect 4 0 21 0;
#X connect 5 0 22 0;
#X connect 6 0 23 0;
#X connect 7 0 24 0;
#X connect 8 0 25 0;
#X connect 9 0 1 0;
#X connect 9 1 1 1;
#X connect 9 2 2 0;
#X connect 9 3 2 1;
#X connect 9 4 3 0;
#X connect 9 5 3 1;
#X connect 9 6 4 0;
#X connect 9 7 4 1;
#X connect 9 8 5 0;
#X connect 9 9 5 1;
#X connect 9 10 6 0;
#X connect 9 11 6 1;
#X connect 9 12 7 0;
#X connect 9 13 7 1;
#X connect 9 14 8 0;
#X connect 9 15 8 1;
#X connect 9 16 10 0;
#X connect 9 17 10 1;
#X connect 9 18 11 0;
#X connect 9 19 11 1;
#X connect 9 20 12 0;
#X connect 9 21 12 1;
#X connect 9 22 13 0;
#X connect 9 23 13 1;
#X connect 9 24 14 0;
#X connect 9 25 14 1;
#X connect 9 26 15 0;
#X connect 9 27 15 1;
#X connect 9 28 16 0;
#X connect 9 29 16 1;
#X connect 9 30 17 0;
#X connect 9 31 17 1;
#X connect 10 0 26 0;
#X connect 11 0 27 0;
#X connect 12 0 28 0;
#X connect 13 0 29 0;
#X connect 14 0 30 0;
#X connect 15 0 31 0;
#X connect 16 0 32 0;
#X connect 17 0 33 0;
#X restore 362 -17 pd pack2 __________________________________;
#X obj 168 -8 % 16;
#X obj 384 157 select 0 1 2 3 4 5 6 7 8 9 10 11 12 13 14 15;
#X obj -351 103 select 0 1 2 3 4 5 6 7 8 9 10 11 12 13 14 15;
#X obj 164 67 unit-seq1x16-midi;
#X obj 172 67 unit-seq1x16-midi;
#X obj 180 67 unit-seq1x16-midi;
#X obj 188 67 unit-seq1x16-midi;
#X obj 196 67 unit-seq1x16-midi;
#X obj 204 67 unit-seq1x16-midi;
#X obj 212 67 unit-seq1x16-midi;
#X obj 220 67 unit-seq1x16-midi;
#N canvas 1 82 1364 661 math 0;
#X obj 79 457 outlet;
#X obj 185 255 + 48;
#X obj 212 214 * 12;
#X obj 138 325 +;
#X obj 169 296 t b f;
#X obj 153 105 unpack;
#X obj 172 77 inlet;
#X obj 108 377 *;
#X obj 57 172 route 0;
#X msg 88 204 1;
#X msg 53 203 0;
#X obj 72 246 t b f;
#X connect 1 0 4 0;
#X connect 2 0 1 0;
#X connect 3 0 7 0;
#X connect 4 0 3 0;
#X connect 4 1 3 1;
#X connect 5 0 3 0;
#X connect 5 0 8 0;
#X connect 5 1 2 0;
#X connect 6 0 5 0;
#X connect 7 0 0 0;
#X connect 8 0 10 0;
#X connect 8 1 9 0;
#X connect 9 0 11 0;
#X connect 10 0 11 0;
#X connect 11 0 7 0;
#X connect 11 1 7 1;
#X restore -66 287 pd math;
#N canvas 1 82 1364 661 math 0;
#X obj 89 467 outlet;
#X obj 195 265 + 48;
#X obj 222 224 * 12;
#X obj 148 335 +;
#X obj 179 306 t b f;
#X obj 163 115 unpack;
#X obj 182 87 inlet;
#X obj 118 387 *;
#X obj 67 182 route 0;
#X msg 98 214 1;
#X msg 63 213 0;
#X obj 82 256 t b f;
#X connect 1 0 4 0;
#X connect 2 0 1 0;
#X connect 3 0 7 0;
#X connect 4 0 3 0;
#X connect 4 1 3 1;
#X connect 5 0 3 0;
#X connect 5 0 8 0;
#X connect 5 1 2 0;
#X connect 6 0 5 0;
#X connect 7 0 0 0;
#X connect 8 0 10 0;
#X connect 8 1 9 0;
#X connect 9 0 11 0;
#X connect 10 0 11 0;
#X connect 11 0 7 0;
#X connect 11 1 7 1;
#X restore -18 287 pd math;
#N canvas 1 82 1364 661 math 0;
#X obj 116 517 outlet;
#X obj 143 138 unpack;
#X obj 162 67 inlet;
#X obj 211 313 + 48;
#X obj 238 272 * 12;
#X obj 164 383 +;
#X obj 195 354 t b f;
#X obj 134 435 *;
#X obj 70 226 route 0;
#X msg 114 262 1;
#X msg 79 261 0;
#X obj 98 304 t b f;
#X connect 1 0 5 0;
#X connect 1 0 8 0;
#X connect 1 1 4 0;
#X connect 2 0 1 0;
#X connect 3 0 6 0;
#X connect 4 0 3 0;
#X connect 5 0 7 0;
#X connect 6 0 5 0;
#X connect 6 1 5 1;
#X connect 7 0 0 0;
#X connect 8 0 10 0;
#X connect 8 1 9 0;
#X connect 9 0 11 0;
#X connect 10 0 11 0;
#X connect 11 0 7 0;
#X connect 11 1 7 1;
#X restore 31 288 pd math;
#N canvas 1 82 1364 661 math 0;
#X obj 115 395 outlet;
#X obj 162 67 inlet;
#X obj 196 242 + 48;
#X obj 223 201 * 12;
#X obj 149 312 +;
#X obj 180 283 t b f;
#X obj 164 92 unpack;
#X obj 119 364 *;
#X obj 68 159 route 0;
#X msg 99 191 1;
#X msg 64 190 0;
#X obj 83 233 t b f;
#X connect 1 0 6 0;
#X connect 2 0 5 0;
#X connect 3 0 2 0;
#X connect 4 0 7 0;
#X connect 5 0 4 0;
#X connect 5 1 4 1;
#X connect 6 0 4 0;
#X connect 6 0 8 0;
#X connect 6 1 3 0;
#X connect 7 0 0 0;
#X connect 8 0 10 0;
#X connect 8 1 9 0;
#X connect 9 0 11 0;
#X connect 10 0 11 0;
#X connect 11 0 7 0;
#X connect 11 1 7 1;
#X restore 80 288 pd math;
#N canvas 1 82 1364 661 math 0;
#X obj 110 501 outlet;
#X obj 162 67 inlet;
#X obj 209 283 + 48;
#X obj 236 242 * 12;
#X obj 162 353 +;
#X obj 193 324 t b f;
#X obj 177 133 unpack;
#X obj 132 405 *;
#X obj 81 200 route 0;
#X msg 112 232 1;
#X msg 77 231 0;
#X obj 96 274 t b f;
#X connect 1 0 6 0;
#X connect 2 0 5 0;
#X connect 3 0 2 0;
#X connect 4 0 7 0;
#X connect 5 0 4 0;
#X connect 5 1 4 1;
#X connect 6 0 4 0;
#X connect 6 0 8 0;
#X connect 6 1 3 0;
#X connect 7 0 0 0;
#X connect 8 0 10 0;
#X connect 8 1 9 0;
#X connect 9 0 11 0;
#X connect 10 0 11 0;
#X connect 11 0 7 0;
#X connect 11 1 7 1;
#X restore 129 289 pd math;
#N canvas 1 82 1364 661 math 0;
#X obj 122 497 outlet;
#X obj 162 67 inlet;
#X obj 207 285 + 48;
#X obj 234 244 * 12;
#X obj 160 355 +;
#X obj 191 326 t b f;
#X obj 175 135 unpack;
#X obj 130 407 *;
#X obj 79 202 route 0;
#X msg 110 234 1;
#X msg 75 233 0;
#X obj 94 276 t b f;
#X connect 1 0 6 0;
#X connect 2 0 5 0;
#X connect 3 0 2 0;
#X connect 4 0 7 0;
#X connect 5 0 4 0;
#X connect 5 1 4 1;
#X connect 6 0 4 0;
#X connect 6 0 8 0;
#X connect 6 1 3 0;
#X connect 7 0 0 0;
#X connect 8 0 10 0;
#X connect 8 1 9 0;
#X connect 9 0 11 0;
#X connect 10 0 11 0;
#X connect 11 0 7 0;
#X connect 11 1 7 1;
#X restore 178 289 pd math;
#N canvas 1 82 1364 661 math 0;
#X obj 124 563 outlet;
#X obj 162 67 inlet;
#X obj 206 282 + 48;
#X obj 233 241 * 12;
#X obj 159 352 +;
#X obj 190 323 t b f;
#X obj 174 132 unpack;
#X obj 129 404 *;
#X obj 78 199 route 0;
#X msg 109 231 1;
#X msg 74 230 0;
#X obj 93 273 t b f;
#X connect 1 0 6 0;
#X connect 2 0 5 0;
#X connect 3 0 2 0;
#X connect 4 0 7 0;
#X connect 5 0 4 0;
#X connect 5 1 4 1;
#X connect 6 0 4 0;
#X connect 6 0 8 0;
#X connect 6 1 3 0;
#X connect 7 0 0 0;
#X connect 8 0 10 0;
#X connect 8 1 9 0;
#X connect 9 0 11 0;
#X connect 10 0 11 0;
#X connect 11 0 7 0;
#X connect 11 1 7 1;
#X restore 227 289 pd math;
#N canvas 1 82 1364 661 math 0;
#X obj 124 563 outlet;
#X obj 162 67 inlet;
#X obj 206 282 + 48;
#X obj 233 241 * 12;
#X obj 159 352 +;
#X obj 190 323 t b f;
#X obj 174 132 unpack;
#X obj 129 404 *;
#X obj 78 199 route 0;
#X msg 109 231 1;
#X msg 74 230 0;
#X obj 93 273 t b f;
#X connect 1 0 6 0;
#X connect 2 0 5 0;
#X connect 3 0 2 0;
#X connect 4 0 7 0;
#X connect 5 0 4 0;
#X connect 5 1 4 1;
#X connect 6 0 4 0;
#X connect 6 0 8 0;
#X connect 6 1 3 0;
#X connect 7 0 0 0;
#X connect 8 0 10 0;
#X connect 8 1 9 0;
#X connect 9 0 11 0;
#X connect 10 0 11 0;
#X connect 11 0 7 0;
#X connect 11 1 7 1;
#X restore 276 290 pd math;
#X obj -95 457 f;
#X obj -61 457 f;
#X obj -33 458 f;
#X obj -3 458 f;
#X obj 30 458 f;
#X obj 62 461 f;
#X obj 93 462 f;
#X obj 127 461 f;
#X obj 456 440 f;
#X obj 485 439 f;
#X obj 519 436 f;
#X obj 549 439 f;
#X obj 581 437 f;
#X obj 614 438 f;
#X obj 649 440 f;
#X obj 687 440 f;
#X obj 8 -28 mod 16;
#X obj 14 -8 * 8;
#X connect 0 0 10 0;
#X connect 1 0 33 0;
#X connect 1 0 45 0;
#X connect 2 0 34 0;
#X connect 2 0 45 1;
#X connect 3 0 35 0;
#X connect 3 0 45 2;
#X connect 4 0 36 0;
#X connect 4 0 45 3;
#X connect 5 0 37 0;
#X connect 5 0 45 4;
#X connect 6 0 38 0;
#X connect 6 0 45 5;
#X connect 7 0 39 0;
#X connect 7 0 45 6;
#X connect 8 0 40 0;
#X connect 8 0 45 7;
#X connect 10 1 47 0;
#X connect 10 1 82 0;
#X connect 11 0 19 0;
#X connect 12 0 19 0;
#X connect 13 0 19 0;
#X connect 14 0 19 0;
#X connect 15 0 19 0;
#X connect 16 0 19 0;
#X connect 17 0 19 0;
#X connect 18 0 19 0;
#X connect 19 0 41 0;
#X connect 22 0 30 0;
#X connect 23 0 30 0;
#X connect 24 0 30 0;
#X connect 25 0 30 0;
#X connect 26 0 30 0;
#X connect 27 0 30 0;
#X connect 28 0 30 0;
#X connect 29 0 30 0;
#X connect 30 0 41 0;
#X connect 31 0 49 0;
#X connect 31 1 48 0;
#X connect 33 0 11 1;
#X connect 33 0 22 1;
#X connect 34 0 12 1;
#X connect 34 0 23 1;
#X connect 35 0 13 1;
#X connect 35 0 24 1;
#X connect 36 0 14 1;
#X connect 36 0 25 1;
#X connect 37 0 15 1;
#X connect 37 0 26 1;
#X connect 38 0 16 1;
#X connect 38 0 27 1;
#X connect 39 0 17 1;
#X connect 39 0 28 1;
#X connect 40 0 18 1;
#X connect 40 0 29 1;
#X connect 41 1 20 0;
#X connect 42 0 43 0;
#X connect 43 0 21 0;
#X connect 44 0 46 0;
#X connect 45 0 9 0;
#X connect 46 0 1 0;
#X connect 46 0 33 0;
#X connect 46 1 2 0;
#X connect 46 1 34 0;
#X connect 46 2 3 0;
#X connect 46 2 35 0;
#X connect 46 3 4 0;
#X connect 46 3 36 0;
#X connect 46 4 5 0;
#X connect 46 4 37 0;
#X connect 46 5 6 0;
#X connect 46 5 38 0;
#X connect 46 6 7 0;
#X connect 46 6 39 0;
#X connect 46 7 8 0;
#X connect 46 7 40 0;
#X connect 46 8 50 0;
#X connect 46 8 58 0;
#X connect 46 9 51 0;
#X connect 46 9 59 0;
#X connect 46 10 52 0;
#X connect 46 10 60 0;
#X connect 46 11 53 0;
#X connect 46 11 61 0;
#X connect 46 12 54 0;
#X connect 46 12 62 0;
#X connect 46 13 55 0;
#X connect 46 13 63 0;
#X connect 46 14 56 0;
#X connect 46 14 64 0;
#X connect 46 15 57 0;
#X connect 46 15 65 0;
#X connect 47 0 31 0;
#X connect 48 0 81 0;
#X connect 48 1 22 0;
#X connect 48 2 23 0;
#X connect 48 3 24 0;
#X connect 48 4 25 0;
#X connect 48 5 26 0;
#X connect 48 6 27 0;
#X connect 48 7 28 0;
#X connect 48 8 29 0;
#X connect 48 9 74 0;
#X connect 48 10 75 0;
#X connect 48 11 76 0;
#X connect 48 12 77 0;
#X connect 48 13 78 0;
#X connect 48 14 79 0;
#X connect 48 15 80 0;
#X connect 49 0 11 0;
#X connect 49 1 12 0;
#X connect 49 2 13 0;
#X connect 49 3 14 0;
#X connect 49 4 15 0;
#X connect 49 5 16 0;
#X connect 49 6 17 0;
#X connect 49 7 18 0;
#X connect 49 8 66 0;
#X connect 49 9 67 0;
#X connect 49 10 68 0;
#X connect 49 11 69 0;
#X connect 49 12 70 0;
#X connect 49 13 71 0;
#X connect 49 14 72 0;
#X connect 49 15 73 0;
#X connect 50 0 58 0;
#X connect 50 0 45 8;
#X connect 51 0 59 0;
#X connect 51 0 45 9;
#X connect 52 0 60 0;
#X connect 52 0 45 10;
#X connect 53 0 61 0;
#X connect 53 0 45 11;
#X connect 54 0 62 0;
#X connect 54 0 45 12;
#X connect 55 0 63 0;
#X connect 55 0 45 13;
#X connect 56 0 64 0;
#X connect 56 0 45 14;
#X connect 57 0 65 0;
#X connect 57 0 45 15;
#X connect 58 0 74 1;
#X connect 58 0 66 1;
#X connect 59 0 75 1;
#X connect 59 0 67 1;
#X connect 60 0 76 1;
#X connect 60 0 68 1;
#X connect 61 0 77 1;
#X connect 61 0 69 1;
#X connect 62 0 78 1;
#X connect 62 0 70 1;
#X connect 63 0 79 1;
#X connect 63 0 71 1;
#X connect 64 0 80 1;
#X connect 64 0 72 1;
#X connect 65 0 81 1;
#X connect 65 0 73 1;
#X connect 66 0 19 0;
#X connect 67 0 19 0;
#X connect 68 0 19 0;
#X connect 69 0 19 0;
#X connect 70 0 19 0;
#X connect 71 0 19 0;
#X connect 72 0 19 0;
#X connect 73 0 19 0;
#X connect 74 0 30 0;
#X connect 75 0 30 0;
#X connect 76 0 30 0;
#X connect 77 0 30 0;
#X connect 78 0 30 0;
#X connect 79 0 30 0;
#X connect 80 0 30 0;
#X connect 81 0 30 0;
#X connect 82 0 83 0;
#X connect 83 0 42 0;
#X coords 0 -1 1 1 128 151 2 100 58;
