#N canvas 1 84 699 659 10;
#X obj 517 48 loadbang;
#X text 522 307 Right outlet outputs the current pattern on every modification
;
#X text 12 23 Description: An 8 step beat sequencer.;
#X msg 514 409 12 12 45 12 12 45 12 45;
#X text 531 82 Right inlet sets pattern;
#X floatatom 238 165 5 0 0 0 - - -;
#X obj 513 383 cyclone/prepend set;
#X text 23 40 tags: sequencing;
#X obj 348 14 mtl/clkMaster 120;
#X obj 239 95 loadbang;
#X obj 240 117 tgl 15 0 empty empty empty 17 7 0 10 -262144 -1 -1 1
1;
#X obj 238 139 mtl/clkSlave 2 8;
#X msg 503 100 12 12 45 12 12 45 12 45;
#X obj 192 302 seq1x8-nbx;
#X obj 179 373 nbx 5 14 -1e+37 1e+37 0 0 empty empty empty 0 -8 0 10
-262144 -1 -1 12 256;
#X connect 0 0 12 0;
#X connect 5 0 13 0;
#X connect 6 0 3 0;
#X connect 9 0 10 0;
#X connect 10 0 11 0;
#X connect 11 0 5 0;
#X connect 12 0 13 1;
#X connect 13 0 14 0;
#X connect 13 1 6 0;
