#N canvas 1 82 1364 661 10;
#X obj -241 381 spigot;
#X obj -214 399 spigot;
#X obj -198 418 spigot;
#X obj -171 436 spigot;
#X obj -157 454 spigot;
#X obj -130 472 spigot;
#X obj -114 491 spigot;
#X obj -87 509 spigot;
#X obj -127 690 outlet;
#X obj -226 25 inlet;
#X obj 309 37 inlet;
#X obj 106 271 tgl 15 0 empty \$0-seq1 empty 20 7 0 8 -99865 -262144
-262144 0 1;
#X obj 121 287 tgl 15 0 empty \$0-seq2 empty 20 7 0 8 -99865 -262144
-262144 0 1;
#X obj 137 303 tgl 15 0 empty \$0-seq3 empty 20 7 0 8 -99865 -262144
-262144 0 1;
#X obj 152 319 tgl 15 0 empty \$0-seq4 empty 20 7 0 8 -258699 -262144
-262144 0 1;
#X obj 167 335 tgl 15 0 empty \$0-seq5 empty 20 7 0 8 -99865 -262144
-262144 0 1;
#X obj 152 349 tgl 15 0 empty \$0-seq6 empty 20 7 0 8 -99865 -262144
-262144 0 1;
#X obj 136 364 tgl 15 0 empty \$0-seq7 empty 20 7 0 8 -99865 -262144
-262144 0 1;
#X obj 121 380 tgl 15 0 empty \$0-seq8 empty 20 7 0 8 -99865 -262144
-262144 0 1;
#X obj 356 439 t b f;
#X obj 399 440 t b f;
#X obj 440 440 t b f;
#X obj 483 441 t b f;
#X obj 525 441 t b f;
#X obj 568 442 t b f;
#X obj 609 442 t b f;
#X obj 407 621 outlet;
#X obj -245 62 route list;
#X obj 59 147 t f f;
#X msg 59 168 set \$1;
#X obj 109 147 t f f;
#X msg 108 168 set \$1;
#X obj 160 147 t f f;
#X msg 160 168 set \$1;
#X obj 210 147 t f f;
#X msg 210 168 set \$1;
#X obj 262 144 t f f;
#X msg 262 165 set \$1;
#X obj 312 144 t f f;
#X msg 312 165 set \$1;
#X obj 363 144 t f f;
#X msg 364 166 set \$1;
#X obj 413 144 t f f;
#X msg 413 165 set \$1;
#X obj -267 282 select 0 1 2 3 4 5 6 7 8 9 10 11 12 13 14 15;
#X obj -287 130 % 16;
#X obj 105 395 tgl 15 0 empty \$0-seq9 empty 20 7 0 8 -99865 -262144
-262144 0 1;
#X obj 90 379 tgl 15 0 empty \$0-seq10 empty 20 7 0 8 -99865 -262144
-262144 0 1;
#X obj 75 364 tgl 15 0 empty \$0-seq11 empty 20 7 0 8 -99865 -262144
-262144 0 1;
#X obj 60 348 tgl 15 0 empty \$0-seq12 empty 20 7 0 8 -99865 -262144
-262144 0 1;
#X obj 46 332 tgl 15 0 empty \$0-seq13 empty 20 7 0 8 -99865 -262144
-262144 0 1;
#X obj 60 316 tgl 15 0 empty \$0-seq14 empty 20 7 0 8 -99865 -262144
-262144 0 1;
#X obj 75 301 tgl 15 0 empty \$0-seq15 empty 20 7 0 8 -99865 -262144
-262144 0 1;
#X obj 90 286 tgl 15 0 empty \$0-seq16 empty 20 7 0 8 -99865 -262144
-262144 0 1;
#X obj 462 143 t f f;
#X msg 462 164 set \$1;
#X obj 512 143 t f f;
#X msg 511 164 set \$1;
#X obj 563 143 t f f;
#X msg 563 164 set \$1;
#X obj 613 143 t f f;
#X msg 613 164 set \$1;
#X obj 665 140 t f f;
#X msg 665 161 set \$1;
#X obj 715 140 t f f;
#X msg 715 161 set \$1;
#X obj 766 140 t f f;
#X msg 767 162 set \$1;
#X obj 816 140 t f f;
#X msg 816 161 set \$1;
#X obj 651 444 t b f;
#X obj 694 445 t b f;
#X obj 735 445 t b f;
#X obj 778 446 t b f;
#X obj 820 446 t b f;
#X obj 863 447 t b f;
#X obj 904 447 t b f;
#X obj -56 526 spigot;
#X obj -29 544 spigot;
#X obj -13 563 spigot;
#X obj 14 581 spigot;
#X obj 28 599 spigot;
#X obj 55 617 spigot;
#X obj 71 636 spigot;
#X obj 98 654 spigot;
#X obj 226 81 unpack f f f f f f f f f f f f f f f f;
#X obj 425 561 pack f f f f f f f f f f f f f f f f;
#X obj 944 449 t b f;
#X obj -332 172 t f b f;
#N canvas 1 82 1364 661 color 1;
#X obj 71 24 inlet;
#X obj 971 28 inlet;
#X obj 34 245 s \$0-seq1;
#X obj 703 192 s \$0-seq1;
#X obj 763 215 s \$0-seq2;
#X obj 824 240 s \$0-seq3;
#X obj 886 266 s \$0-seq4;
#X obj 949 283 s \$0-seq5;
#X obj 1013 308 s \$0-seq6;
#X obj 1076 335 s \$0-seq7;
#X obj 1142 361 s \$0-seq8;
#X obj 102 270 s \$0-seq2;
#X obj 170 297 s \$0-seq3;
#X obj 240 324 s \$0-seq4;
#X obj 304 348 s \$0-seq5;
#X obj 372 373 s \$0-seq6;
#X obj 440 400 s \$0-seq7;
#X obj 510 427 s \$0-seq8;
#X msg 33 220 color 13;
#X msg 101 245 color 13;
#X msg 169 272 color 13;
#X msg 240 299 color 13;
#X msg 303 323 color 13;
#X msg 371 348 color 13;
#X msg 439 375 color 13;
#X msg 509 402 color 13;
#X msg 703 168 color 21;
#X msg 762 190 color 21;
#X msg 823 215 color 21;
#X msg 885 241 color 21;
#X msg 948 258 color 21;
#X msg 1013 283 color 21;
#X msg 1075 310 color 21;
#X msg 1141 336 color 21;
#X obj 922 116 t b b b b b b b b b b b b b b b b;
#X msg 810 285 color 21;
#X msg 871 309 color 21;
#X msg 941 336 color 21;
#X msg 1011 361 color 21;
#X msg 1080 387 color 21;
#X msg 1150 413 color 21;
#X msg 1218 439 color 21;
#X msg 1292 466 color 21;
#X obj 810 309 s \$0-seq9;
#X obj 872 334 s \$0-seq10;
#X obj 942 361 s \$0-seq11;
#X obj 1012 386 s \$0-seq12;
#X obj 1081 412 s \$0-seq13;
#X obj 1150 438 s \$0-seq14;
#X obj 1219 464 s \$0-seq15;
#X obj 1293 491 s \$0-seq16;
#X obj 326 428 s \$0-seq13;
#X obj 395 454 s \$0-seq14;
#X obj 464 480 s \$0-seq15;
#X obj 538 507 s \$0-seq16;
#X obj 47 364 s \$0-seq9;
#X obj 109 389 s \$0-seq10;
#X obj 179 416 s \$0-seq11;
#X obj 249 441 s \$0-seq12;
#X obj 220 151 route 0 1 2 3 4 5 6 7 8 9 10 11 12 13 14 15;
#X msg 47 340 color 13;
#X msg 108 364 color 13;
#X msg 177 391 color 13;
#X msg 248 416 color 13;
#X msg 325 403 color 13;
#X msg 395 429 color 13;
#X msg 463 455 color 13;
#X msg 537 482 color 13;
#X obj 899 36 initbang;
#X connect 0 0 59 0;
#X connect 1 0 34 0;
#X connect 18 0 2 0;
#X connect 19 0 11 0;
#X connect 20 0 12 0;
#X connect 21 0 13 0;
#X connect 22 0 14 0;
#X connect 23 0 15 0;
#X connect 24 0 16 0;
#X connect 25 0 17 0;
#X connect 26 0 3 0;
#X connect 27 0 4 0;
#X connect 28 0 5 0;
#X connect 29 0 6 0;
#X connect 30 0 7 0;
#X connect 31 0 8 0;
#X connect 32 0 9 0;
#X connect 33 0 10 0;
#X connect 34 0 26 0;
#X connect 34 1 27 0;
#X connect 34 2 28 0;
#X connect 34 3 29 0;
#X connect 34 4 30 0;
#X connect 34 5 31 0;
#X connect 34 6 32 0;
#X connect 34 7 33 0;
#X connect 34 8 35 0;
#X connect 34 9 36 0;
#X connect 34 10 37 0;
#X connect 34 11 38 0;
#X connect 34 12 39 0;
#X connect 34 13 40 0;
#X connect 34 14 41 0;
#X connect 34 15 42 0;
#X connect 35 0 43 0;
#X connect 36 0 44 0;
#X connect 37 0 45 0;
#X connect 38 0 46 0;
#X connect 39 0 47 0;
#X connect 40 0 48 0;
#X connect 41 0 49 0;
#X connect 42 0 50 0;
#X connect 59 0 18 0;
#X connect 59 1 19 0;
#X connect 59 2 20 0;
#X connect 59 3 21 0;
#X connect 59 4 22 0;
#X connect 59 5 23 0;
#X connect 59 6 24 0;
#X connect 59 7 25 0;
#X connect 59 8 60 0;
#X connect 59 9 61 0;
#X connect 59 10 62 0;
#X connect 59 11 63 0;
#X connect 59 12 64 0;
#X connect 59 13 65 0;
#X connect 59 14 66 0;
#X connect 59 15 67 0;
#X connect 60 0 55 0;
#X connect 61 0 56 0;
#X connect 62 0 57 0;
#X connect 63 0 58 0;
#X connect 64 0 51 0;
#X connect 65 0 52 0;
#X connect 66 0 53 0;
#X connect 67 0 54 0;
#X connect 68 0 34 0;
#X restore -377 271 pd color;
#X connect 0 0 8 0;
#X connect 1 0 8 0;
#X connect 2 0 8 0;
#X connect 3 0 8 0;
#X connect 4 0 8 0;
#X connect 5 0 8 0;
#X connect 6 0 8 0;
#X connect 7 0 8 0;
#X connect 9 0 27 0;
#X connect 10 0 85 0;
#X connect 11 0 0 1;
#X connect 11 0 86 0;
#X connect 12 0 1 1;
#X connect 12 0 19 0;
#X connect 13 0 2 1;
#X connect 13 0 20 0;
#X connect 14 0 3 1;
#X connect 14 0 21 0;
#X connect 15 0 4 1;
#X connect 15 0 22 0;
#X connect 16 0 5 1;
#X connect 16 0 23 0;
#X connect 17 0 6 1;
#X connect 17 0 24 0;
#X connect 18 0 7 1;
#X connect 18 0 25 0;
#X connect 19 0 86 0;
#X connect 19 1 86 1;
#X connect 20 0 86 0;
#X connect 20 1 86 2;
#X connect 21 0 86 0;
#X connect 21 1 86 3;
#X connect 22 0 86 0;
#X connect 22 1 86 4;
#X connect 23 0 86 0;
#X connect 23 1 86 5;
#X connect 24 0 86 0;
#X connect 24 1 86 6;
#X connect 25 0 86 0;
#X connect 25 1 86 7;
#X connect 27 0 85 0;
#X connect 27 1 45 0;
#X connect 28 0 29 0;
#X connect 28 1 0 1;
#X connect 28 1 86 0;
#X connect 29 0 11 0;
#X connect 30 0 31 0;
#X connect 30 1 1 1;
#X connect 30 1 86 1;
#X connect 31 0 12 0;
#X connect 32 0 33 0;
#X connect 32 1 2 1;
#X connect 32 1 86 2;
#X connect 33 0 13 0;
#X connect 34 0 35 0;
#X connect 34 1 3 1;
#X connect 34 1 86 3;
#X connect 35 0 14 0;
#X connect 36 0 37 0;
#X connect 36 1 4 1;
#X connect 36 1 86 4;
#X connect 37 0 15 0;
#X connect 38 0 39 0;
#X connect 38 1 5 1;
#X connect 38 1 86 5;
#X connect 39 0 16 0;
#X connect 40 0 41 0;
#X connect 40 1 6 1;
#X connect 40 1 86 6;
#X connect 41 0 17 0;
#X connect 42 0 43 0;
#X connect 42 1 7 1;
#X connect 42 1 86 7;
#X connect 43 0 18 0;
#X connect 44 0 0 0;
#X connect 44 1 1 0;
#X connect 44 2 2 0;
#X connect 44 3 3 0;
#X connect 44 4 4 0;
#X connect 44 5 5 0;
#X connect 44 6 6 0;
#X connect 44 7 7 0;
#X connect 44 8 77 0;
#X connect 44 9 78 0;
#X connect 44 10 79 0;
#X connect 44 11 80 0;
#X connect 44 12 81 0;
#X connect 44 13 82 0;
#X connect 44 14 83 0;
#X connect 44 15 84 0;
#X connect 45 0 88 0;
#X connect 46 0 77 1;
#X connect 46 0 70 0;
#X connect 47 0 78 1;
#X connect 47 0 71 0;
#X connect 48 0 79 1;
#X connect 48 0 72 0;
#X connect 49 0 80 1;
#X connect 49 0 73 0;
#X connect 50 0 81 1;
#X connect 50 0 74 0;
#X connect 51 0 82 1;
#X connect 51 0 75 0;
#X connect 52 0 83 1;
#X connect 52 0 76 0;
#X connect 53 0 84 1;
#X connect 53 0 87 0;
#X connect 54 0 55 0;
#X connect 54 1 86 8;
#X connect 55 0 46 0;
#X connect 56 0 57 0;
#X connect 56 1 86 9;
#X connect 57 0 47 0;
#X connect 58 0 59 0;
#X connect 58 1 86 10;
#X connect 59 0 48 0;
#X connect 60 0 61 0;
#X connect 60 1 86 11;
#X connect 61 0 49 0;
#X connect 62 0 63 0;
#X connect 62 1 86 12;
#X connect 63 0 50 0;
#X connect 64 0 65 0;
#X connect 64 1 86 13;
#X connect 65 0 51 0;
#X connect 66 0 67 0;
#X connect 66 1 86 14;
#X connect 67 0 52 0;
#X connect 68 0 69 0;
#X connect 68 1 86 15;
#X connect 69 0 53 0;
#X connect 70 0 86 0;
#X connect 70 1 86 8;
#X connect 71 0 86 0;
#X connect 71 1 86 9;
#X connect 72 0 86 0;
#X connect 72 1 86 10;
#X connect 73 0 86 0;
#X connect 73 1 86 11;
#X connect 74 0 86 0;
#X connect 74 1 86 12;
#X connect 75 0 86 0;
#X connect 75 1 86 13;
#X connect 76 0 86 0;
#X connect 76 1 86 14;
#X connect 77 0 8 0;
#X connect 78 0 8 0;
#X connect 79 0 8 0;
#X connect 80 0 8 0;
#X connect 81 0 8 0;
#X connect 82 0 8 0;
#X connect 83 0 8 0;
#X connect 84 0 8 0;
#X connect 85 0 28 0;
#X connect 85 1 30 0;
#X connect 85 2 32 0;
#X connect 85 3 34 0;
#X connect 85 4 36 0;
#X connect 85 5 38 0;
#X connect 85 6 40 0;
#X connect 85 7 42 0;
#X connect 85 8 54 0;
#X connect 85 9 56 0;
#X connect 85 10 58 0;
#X connect 85 11 60 0;
#X connect 85 12 62 0;
#X connect 85 13 64 0;
#X connect 85 14 66 0;
#X connect 85 15 68 0;
#X connect 86 0 26 0;
#X connect 87 0 86 0;
#X connect 87 1 86 15;
#X connect 88 0 89 0;
#X connect 88 1 89 1;
#X connect 88 2 44 0;
#X coords 0 -1 1 1 138 140 2 45 270;
