#N canvas 1 82 1034 661 10;
#X obj 133 55 select 0 1 2 3 4 5 6 7;
#X obj 228 -6 % 8;
#X obj 223 -64 inlet;
#X obj 534 -46 inlet;
#X obj 534 -22 unpack f f f f f f f f;
#X obj 100 110 nbx 3 20 -1 127 0 0 7 0 empty 0 -8 0 10 -262144 -1 -1
0 256;
#X obj 139 110 nbx 3 20 -1 127 0 0 7 0 empty 0 -8 0 10 -262144 -1 -1
0 256;
#X obj 178 110 nbx 3 20 -1 127 0 0 7 0 empty 0 -8 0 10 -262144 -1 -1
0 256;
#X obj 217 110 nbx 3 20 -1 127 0 0 7 0 empty 0 -8 0 10 -262144 -1 -1
0 256;
#X obj 256 110 nbx 3 20 -1 127 0 0 7 0 empty 0 -8 0 10 -262144 -1 -1
0 256;
#X obj 295 110 nbx 3 20 -1 127 0 0 7 0 empty 0 -8 0 10 -262144 -1 -1
0 256;
#X obj 334 110 nbx 3 20 -1 127 0 0 7 0 empty 0 -8 0 10 -262144 -1 -1
0 256;
#X obj 373 110 nbx 3 20 -1 127 0 0 7 0 empty 0 -8 0 10 -262144 -1 -1
0 256;
#X obj 675 366 t b f;
#X obj 672 427 pack f f f f f f f f;
#X obj 718 367 t b f;
#X obj 759 367 t b f;
#X obj 802 368 t b f;
#X obj 844 368 t b f;
#X obj 887 369 t b f;
#X obj 928 369 t b f;
#X obj 687 460 outlet;
#X obj 204 -41 route list;
#X obj 640 23 t f f;
#X msg 640 44 set \$1;
#X obj 690 23 t f f;
#X msg 689 44 set \$1;
#X obj 741 23 t f f;
#X msg 741 44 set \$1;
#X obj 791 23 t f f;
#X msg 791 44 set \$1;
#X obj 843 20 t f f;
#X msg 843 41 set \$1;
#X obj 893 20 t f f;
#X msg 893 41 set \$1;
#X obj 944 20 t f f;
#X msg 945 42 set \$1;
#X obj 994 20 t f f;
#X msg 994 41 set \$1;
#X obj 98 282 f;
#X obj 125 300 f;
#X obj 141 319 f;
#X obj 168 337 f;
#X obj 182 355 f;
#X obj 209 373 f;
#X obj 225 392 f;
#X obj 252 410 f;
#X obj 107 487 pack f 127;
#X obj 94 578 outlet;
#X obj -3 96 s \$0current;
#X obj -10 3 mod 8;
#X obj -10 51 + 100;
#X msg -12 71 pos \$1 100;
#X obj -2 30 * 39;
#X obj 381 30 select 0 1 2 3 4 5 6 7;
#X obj 323 426 f;
#X obj 352 415 f;
#X obj 382 409 f;
#X obj 411 406 f;
#X obj 437 412 f;
#X obj 458 434 f;
#X obj 481 454 f;
#X obj 508 473 f;
#X obj 229 487 pack f 0;
#X obj 312 12 t f f;
#X obj 76 520 route -1;
#X obj 334 100 cnv 10 20 10 empty \$0current empty 20 12 0 14 -258113
-66577 0;
#X connect 0 0 39 0;
#X connect 0 1 40 0;
#X connect 0 2 41 0;
#X connect 0 3 42 0;
#X connect 0 4 43 0;
#X connect 0 5 44 0;
#X connect 0 6 45 0;
#X connect 0 7 46 0;
#X connect 1 0 64 0;
#X connect 2 0 22 0;
#X connect 3 0 4 0;
#X connect 4 0 23 0;
#X connect 4 1 25 0;
#X connect 4 2 27 0;
#X connect 4 3 29 0;
#X connect 4 4 31 0;
#X connect 4 5 33 0;
#X connect 4 6 35 0;
#X connect 4 7 37 0;
#X connect 5 0 14 0;
#X connect 5 0 39 1;
#X connect 5 0 55 1;
#X connect 6 0 13 0;
#X connect 6 0 40 1;
#X connect 6 0 56 1;
#X connect 7 0 15 0;
#X connect 7 0 41 1;
#X connect 7 0 57 1;
#X connect 8 0 16 0;
#X connect 8 0 42 1;
#X connect 8 0 58 1;
#X connect 9 0 17 0;
#X connect 9 0 43 1;
#X connect 9 0 59 1;
#X connect 10 0 18 0;
#X connect 10 0 44 1;
#X connect 10 0 60 1;
#X connect 11 0 19 0;
#X connect 11 0 45 1;
#X connect 11 0 61 1;
#X connect 12 0 20 0;
#X connect 12 0 46 1;
#X connect 12 0 62 1;
#X connect 13 0 14 0;
#X connect 13 1 14 1;
#X connect 14 0 21 0;
#X connect 15 0 14 0;
#X connect 15 1 14 2;
#X connect 16 0 14 0;
#X connect 16 1 14 3;
#X connect 17 0 14 0;
#X connect 17 1 14 4;
#X connect 18 0 14 0;
#X connect 18 1 14 5;
#X connect 19 0 14 0;
#X connect 19 1 14 6;
#X connect 20 0 14 0;
#X connect 20 1 14 7;
#X connect 22 0 4 0;
#X connect 22 1 1 0;
#X connect 22 1 50 0;
#X connect 23 0 24 0;
#X connect 23 1 14 0;
#X connect 23 1 39 1;
#X connect 23 1 55 1;
#X connect 24 0 5 0;
#X connect 25 0 26 0;
#X connect 25 1 14 1;
#X connect 25 1 40 1;
#X connect 25 1 56 1;
#X connect 26 0 6 0;
#X connect 27 0 28 0;
#X connect 27 1 14 2;
#X connect 27 1 41 1;
#X connect 27 1 57 1;
#X connect 28 0 7 0;
#X connect 29 0 30 0;
#X connect 29 1 14 3;
#X connect 29 1 42 1;
#X connect 29 1 58 1;
#X connect 30 0 8 0;
#X connect 31 0 32 0;
#X connect 31 1 14 4;
#X connect 31 1 43 1;
#X connect 31 1 59 1;
#X connect 32 0 9 0;
#X connect 33 0 34 0;
#X connect 33 1 14 5;
#X connect 33 1 44 1;
#X connect 33 1 60 1;
#X connect 34 0 10 0;
#X connect 35 0 36 0;
#X connect 35 1 14 6;
#X connect 35 1 45 1;
#X connect 35 1 61 1;
#X connect 36 0 11 0;
#X connect 37 0 38 0;
#X connect 37 1 14 7;
#X connect 37 1 46 1;
#X connect 37 1 62 1;
#X connect 38 0 12 0;
#X connect 39 0 47 0;
#X connect 40 0 47 0;
#X connect 41 0 47 0;
#X connect 42 0 47 0;
#X connect 43 0 47 0;
#X connect 44 0 47 0;
#X connect 45 0 47 0;
#X connect 46 0 47 0;
#X connect 47 0 65 0;
#X connect 50 0 53 0;
#X connect 51 0 52 0;
#X connect 52 0 49 0;
#X connect 53 0 51 0;
#X connect 54 0 62 0;
#X connect 54 1 55 0;
#X connect 54 2 56 0;
#X connect 54 3 57 0;
#X connect 54 4 58 0;
#X connect 54 5 59 0;
#X connect 54 6 60 0;
#X connect 54 7 61 0;
#X connect 55 0 63 0;
#X connect 56 0 63 0;
#X connect 57 0 63 0;
#X connect 58 0 63 0;
#X connect 59 0 63 0;
#X connect 60 0 63 0;
#X connect 61 0 63 0;
#X connect 62 0 63 0;
#X connect 63 0 48 0;
#X connect 64 0 0 0;
#X connect 64 1 54 0;
#X connect 65 1 48 0;
#X coords 0 -1 1 1 312 30 2 100 100;
