#N canvas 1 82 1364 661 10;
#X obj -213 -8 inlet;
#X obj 309 37 inlet;
#X obj 45 278 nbx 3 20 -1e+37 1e+37 0 0 7 0 empty 0 -8 0 10 -262144
-1 -1 78 256;
#X obj 84 278 nbx 3 20 -1e+37 1e+37 0 0 7 0 empty 0 -8 0 10 -262144
-1 -1 -96 256;
#X obj 123 278 nbx 3 20 -1e+37 1e+37 0 0 7 0 empty 0 -8 0 10 -262144
-1 -1 76 256;
#X obj 162 278 nbx 3 20 -1e+37 1e+37 0 0 7 0 empty 0 -8 0 10 -262144
-1 -1 -17 256;
#X obj 201 278 nbx 3 20 -1e+37 1e+37 0 0 7 0 empty 0 -8 0 10 -262144
-1 -1 130 256;
#X obj 240 278 nbx 3 20 -1e+37 1e+37 0 0 7 0 empty 0 -8 0 10 -262144
-1 -1 86 256;
#X obj 279 278 nbx 3 20 -1e+37 1e+37 0 0 7 0 empty 0 -8 0 10 -262144
-1 -1 95 256;
#X obj 318 278 nbx 3 20 -1e+37 1e+37 0 0 7 0 empty 0 -8 0 10 -262144
-1 -1 106 256;
#X obj 353 540 t b f;
#X obj 396 541 t b f;
#X obj 437 541 t b f;
#X obj 480 542 t b f;
#X obj 522 542 t b f;
#X obj 565 543 t b f;
#X obj 606 543 t b f;
#X obj 404 722 outlet;
#X obj -224 17 route list;
#X obj 59 147 t f f;
#X msg 59 168 set \$1;
#X obj 109 147 t f f;
#X msg 108 168 set \$1;
#X obj 160 147 t f f;
#X msg 160 168 set \$1;
#X obj 210 147 t f f;
#X msg 210 168 set \$1;
#X obj 262 144 t f f;
#X msg 262 165 set \$1;
#X obj 312 144 t f f;
#X msg 312 165 set \$1;
#X obj 363 144 t f f;
#X msg 364 166 set \$1;
#X obj 413 144 t f f;
#X msg 413 165 set \$1;
#X obj -492 166 select 0 1 2 3 4 5 6 7 8 9 10 11 12 13 14 15;
#X obj -200 59 % 16;
#X obj 357 278 nbx 3 20 -1e+37 1e+37 0 0 7 0 empty 0 -8 0 10 -262144
-1 -1 13 256;
#X obj 396 278 nbx 3 20 -1e+37 1e+37 0 0 7 0 empty 0 -8 0 10 -262144
-1 -1 9 256;
#X obj 435 278 nbx 3 20 -1e+37 1e+37 0 0 7 0 empty 0 -8 0 10 -262144
-1 -1 35 256;
#X obj 474 278 nbx 3 20 -1e+37 1e+37 0 0 7 0 empty 0 -8 0 10 -262144
-1 -1 46 256;
#X obj 513 278 nbx 3 20 -1e+37 1e+37 0 0 7 0 empty 0 -8 0 10 -262144
-1 -1 40 256;
#X obj 552 278 nbx 3 20 -1e+37 1e+37 0 0 7 0 empty 0 -8 0 10 -262144
-1 -1 45 256;
#X obj 591 278 nbx 3 20 -1e+37 1e+37 0 0 7 0 empty 0 -8 0 10 -262144
-1 -1 38 256;
#X obj 630 278 nbx 3 20 0 127 0 0 7 0 empty 0 -8 0 10 -262144 -1 -1
69 256;
#X obj 462 143 t f f;
#X msg 462 164 set \$1;
#X obj 512 143 t f f;
#X msg 511 164 set \$1;
#X obj 563 143 t f f;
#X msg 563 164 set \$1;
#X obj 613 143 t f f;
#X msg 613 164 set \$1;
#X obj 661 137 t f f;
#X msg 665 161 set \$1;
#X obj 714 137 t f f;
#X msg 715 161 set \$1;
#X obj 766 140 t f f;
#X msg 767 162 set \$1;
#X obj 816 140 t f f;
#X msg 816 161 set \$1;
#X obj 648 545 t b f;
#X obj 691 546 t b f;
#X obj 732 546 t b f;
#X obj 775 547 t b f;
#X obj 817 547 t b f;
#X obj 860 548 t b f;
#X obj 901 548 t b f;
#X obj 226 81 unpack f f f f f f f f f f f f f f f f;
#X obj 422 662 pack f f f f f f f f f f f f f f f f;
#X obj 941 550 t b f;
#X obj -534 228 s \$0current;
#X obj -541 135 mod 16;
#X obj 203 270 cnv 8 30 8 empty \$0current empty 20 12 0 14 -258113
-66577 0;
#X obj -541 183 + 47;
#X msg -543 203 pos \$1 270;
#X obj -534 161 * 39;
#X obj -381 345 f;
#X obj -358 354 f;
#X obj -335 363 f;
#X obj -313 374 f;
#X obj -293 385 f;
#X obj -270 393 f;
#X obj -248 400 f;
#X obj -225 411 f;
#X obj -202 422 f;
#X obj -181 430 f;
#X obj -159 443 f;
#X obj -138 456 f;
#X obj -117 467 f;
#X obj -94 478 f;
#X obj -72 488 f;
#X obj -50 496 f;
#X obj -13 711 outlet;
#X obj -239 533 pack f 127;
#X obj -8 505 f;
#X obj 15 514 f;
#X obj 38 523 f;
#X obj 60 534 f;
#X obj 80 545 f;
#X obj 103 553 f;
#X obj 125 560 f;
#X obj 148 571 f;
#X obj 172 579 f;
#X obj 193 587 f;
#X obj 215 600 f;
#X obj 236 613 f;
#X obj 257 624 f;
#X obj 280 635 f;
#X obj 302 645 f;
#X obj 324 653 f;
#X obj -41 671 route -1;
#X obj 97 639 pack f 0;
#X obj -221 85 t f f;
#X obj -261 125 select 0 1 2 3 4 5 6 7 8 9 10 11 12 13 14 15;
#X connect 0 0 18 0;
#X connect 1 0 68 0;
#X connect 2 0 69 0;
#X connect 2 0 77 1;
#X connect 2 0 95 1;
#X connect 3 0 10 0;
#X connect 3 0 78 1;
#X connect 3 0 96 1;
#X connect 4 0 11 0;
#X connect 4 0 79 1;
#X connect 4 0 97 1;
#X connect 5 0 12 0;
#X connect 5 0 80 1;
#X connect 5 0 98 1;
#X connect 6 0 13 0;
#X connect 6 0 81 1;
#X connect 6 0 99 1;
#X connect 7 0 14 0;
#X connect 7 0 82 1;
#X connect 7 0 100 1;
#X connect 8 0 15 0;
#X connect 8 0 83 1;
#X connect 8 0 101 1;
#X connect 9 0 16 0;
#X connect 9 0 84 1;
#X connect 9 0 102 1;
#X connect 10 0 69 0;
#X connect 10 1 69 1;
#X connect 11 0 69 0;
#X connect 11 1 69 2;
#X connect 12 0 69 0;
#X connect 12 1 69 3;
#X connect 13 0 69 0;
#X connect 13 1 69 4;
#X connect 14 0 69 0;
#X connect 14 1 69 5;
#X connect 15 0 69 0;
#X connect 15 1 69 6;
#X connect 16 0 69 0;
#X connect 16 1 69 7;
#X connect 18 0 68 0;
#X connect 18 1 36 0;
#X connect 18 1 72 0;
#X connect 19 0 20 0;
#X connect 19 1 69 0;
#X connect 19 1 77 1;
#X connect 19 1 95 1;
#X connect 20 0 2 0;
#X connect 21 0 22 0;
#X connect 21 1 69 1;
#X connect 21 1 78 1;
#X connect 21 1 96 1;
#X connect 22 0 3 0;
#X connect 23 0 24 0;
#X connect 23 1 69 2;
#X connect 23 1 79 1;
#X connect 23 1 97 1;
#X connect 24 0 4 0;
#X connect 25 0 26 0;
#X connect 25 1 69 3;
#X connect 25 1 80 1;
#X connect 25 1 98 1;
#X connect 26 0 5 0;
#X connect 27 0 28 0;
#X connect 27 1 69 4;
#X connect 27 1 81 1;
#X connect 27 1 99 1;
#X connect 28 0 6 0;
#X connect 29 0 30 0;
#X connect 29 1 69 5;
#X connect 29 1 82 1;
#X connect 29 1 100 1;
#X connect 30 0 7 0;
#X connect 31 0 32 0;
#X connect 31 1 69 6;
#X connect 31 1 83 1;
#X connect 31 1 101 1;
#X connect 32 0 8 0;
#X connect 33 0 34 0;
#X connect 33 1 69 7;
#X connect 33 1 84 1;
#X connect 33 1 102 1;
#X connect 34 0 9 0;
#X connect 35 0 77 0;
#X connect 35 1 78 0;
#X connect 35 2 79 0;
#X connect 35 3 80 0;
#X connect 35 4 81 0;
#X connect 35 5 82 0;
#X connect 35 6 83 0;
#X connect 35 7 84 0;
#X connect 35 8 85 0;
#X connect 35 9 86 0;
#X connect 35 10 87 0;
#X connect 35 11 88 0;
#X connect 35 12 89 0;
#X connect 35 13 90 0;
#X connect 35 14 91 0;
#X connect 35 15 92 0;
#X connect 36 0 113 0;
#X connect 37 0 61 0;
#X connect 37 0 85 1;
#X connect 37 0 103 1;
#X connect 38 0 62 0;
#X connect 38 0 86 1;
#X connect 38 0 104 1;
#X connect 39 0 63 0;
#X connect 39 0 87 1;
#X connect 39 0 105 1;
#X connect 40 0 64 0;
#X connect 40 0 88 1;
#X connect 40 0 106 1;
#X connect 41 0 65 0;
#X connect 41 0 89 1;
#X connect 41 0 107 1;
#X connect 42 0 66 0;
#X connect 42 0 90 1;
#X connect 42 0 108 1;
#X connect 43 0 67 0;
#X connect 43 0 91 1;
#X connect 43 0 109 1;
#X connect 44 0 70 0;
#X connect 44 0 92 1;
#X connect 44 0 110 1;
#X connect 45 0 46 0;
#X connect 45 1 69 8;
#X connect 45 1 85 1;
#X connect 45 1 103 1;
#X connect 46 0 37 0;
#X connect 47 0 48 0;
#X connect 47 1 69 9;
#X connect 47 1 86 1;
#X connect 47 1 104 1;
#X connect 48 0 38 0;
#X connect 49 0 50 0;
#X connect 49 1 69 10;
#X connect 49 1 87 1;
#X connect 49 1 105 1;
#X connect 50 0 39 0;
#X connect 51 0 52 0;
#X connect 51 1 69 11;
#X connect 51 1 88 1;
#X connect 51 1 106 1;
#X connect 52 0 40 0;
#X connect 53 0 54 0;
#X connect 53 1 69 12;
#X connect 53 1 89 1;
#X connect 53 1 107 1;
#X connect 54 0 41 0;
#X connect 55 0 56 0;
#X connect 55 1 69 13;
#X connect 55 1 90 1;
#X connect 55 1 108 1;
#X connect 56 0 42 0;
#X connect 57 0 58 0;
#X connect 57 1 69 14;
#X connect 57 1 91 1;
#X connect 57 1 109 1;
#X connect 58 0 43 0;
#X connect 59 0 60 0;
#X connect 59 1 69 15;
#X connect 59 1 92 1;
#X connect 59 1 110 1;
#X connect 60 0 44 0;
#X connect 61 0 69 0;
#X connect 61 1 69 8;
#X connect 62 0 69 0;
#X connect 62 1 69 9;
#X connect 63 0 69 0;
#X connect 63 1 69 10;
#X connect 64 0 69 0;
#X connect 64 1 69 11;
#X connect 65 0 69 0;
#X connect 65 1 69 12;
#X connect 66 0 69 0;
#X connect 66 1 69 13;
#X connect 67 0 69 0;
#X connect 67 1 69 14;
#X connect 68 0 19 0;
#X connect 68 1 21 0;
#X connect 68 2 23 0;
#X connect 68 3 25 0;
#X connect 68 4 27 0;
#X connect 68 5 29 0;
#X connect 68 6 31 0;
#X connect 68 7 33 0;
#X connect 68 8 45 0;
#X connect 68 9 47 0;
#X connect 68 10 49 0;
#X connect 68 11 51 0;
#X connect 68 12 53 0;
#X connect 68 13 55 0;
#X connect 68 14 57 0;
#X connect 68 15 59 0;
#X connect 69 0 17 0;
#X connect 70 0 69 0;
#X connect 70 1 69 15;
#X connect 72 0 76 0;
#X connect 74 0 75 0;
#X connect 75 0 71 0;
#X connect 76 0 74 0;
#X connect 77 0 94 0;
#X connect 78 0 94 0;
#X connect 79 0 94 0;
#X connect 80 0 94 0;
#X connect 81 0 94 0;
#X connect 82 0 94 0;
#X connect 83 0 94 0;
#X connect 84 0 94 0;
#X connect 85 0 94 0;
#X connect 86 0 94 0;
#X connect 87 0 94 0;
#X connect 88 0 94 0;
#X connect 89 0 94 0;
#X connect 90 0 94 0;
#X connect 91 0 94 0;
#X connect 92 0 94 0;
#X connect 94 0 111 0;
#X connect 95 0 112 0;
#X connect 96 0 112 0;
#X connect 97 0 112 0;
#X connect 98 0 112 0;
#X connect 99 0 112 0;
#X connect 100 0 112 0;
#X connect 101 0 112 0;
#X connect 102 0 112 0;
#X connect 103 0 112 0;
#X connect 104 0 112 0;
#X connect 105 0 112 0;
#X connect 106 0 112 0;
#X connect 107 0 112 0;
#X connect 108 0 112 0;
#X connect 109 0 112 0;
#X connect 110 0 112 0;
#X connect 111 1 93 0;
#X connect 112 0 111 0;
#X connect 113 0 35 0;
#X connect 113 1 114 0;
#X connect 114 0 110 0;
#X connect 114 1 95 0;
#X connect 114 2 96 0;
#X connect 114 3 97 0;
#X connect 114 4 98 0;
#X connect 114 5 99 0;
#X connect 114 6 100 0;
#X connect 114 7 101 0;
#X connect 114 8 102 0;
#X connect 114 9 103 0;
#X connect 114 10 104 0;
#X connect 114 11 105 0;
#X connect 114 12 106 0;
#X connect 114 13 107 0;
#X connect 114 14 108 0;
#X connect 114 15 109 0;
#X coords 0 -1 1 1 625 28 2 45 270;
