#N canvas 0 25 1272 692 10;
#X obj 114 5 inlet;
#X obj 374 622 outlet~;
#X obj 381 588 *~;
#X obj 112 70 unpack f f;
#X obj 115 135 mtof;
#X text 657 549 Todo: allow override adsr;
#X obj 700 298 inlet;
#X obj 704 354 unpack f f f f;
#X obj 666 469 mtl/adsr~ /id adsr;
#X obj 98 479 cos~;
#X obj 98 447 +~;
#X obj 119 356 phasor~;
#X obj 118 194 sig~;
#X obj 211 381 cos~;
#X obj 211 360 phasor~;
#X obj 211 234 int;
#X obj 209 193 * 7.99;
#X obj 211 214 + 1;
#N canvas 0 22 466 316 rh_scalelog 0;
#X obj 20 155 exp;
#X obj 20 107 *;
#X obj 20 130 +;
#X obj 98 87 log;
#X obj 194 84 log;
#X obj 123 123 t b f;
#X obj 123 145 -;
#X obj 20 183 outlet;
#X obj 20 19 inlet;
#X obj 98 23 inlet;
#X obj 194 24 inlet;
#X connect 0 0 7 0;
#X connect 1 0 2 0;
#X connect 2 0 0 0;
#X connect 3 0 2 1;
#X connect 3 0 5 0;
#X connect 4 0 6 0;
#X connect 5 0 6 0;
#X connect 5 1 6 1;
#X connect 6 0 1 1;
#X connect 8 0 1 0;
#X connect 9 0 3 0;
#X connect 10 0 4 0;
#X restore 306 165 pd rh_scalelog;
#X msg 352 140 0.001;
#X obj 306 185 - 0.001;
#X msg 399 141 0.5;
#X obj 212 282 +~;
#X obj 211 255 sig~;
#X obj 243 255 sig~;
#X obj 181 308 *~;
#X obj 370 318 line~;
#X obj 225 444 *~;
#X msg 384 291 \$1 5;
#X obj 204 26 inlet ratio;
#X obj 297 33 inlet fine;
#X obj 487 33 inlet amount;
#X obj 369 82 loadbang;
#X connect 0 0 3 0;
#X connect 2 0 1 0;
#X connect 3 0 4 0;
#X connect 3 1 8 0;
#X connect 4 0 12 0;
#X connect 6 0 7 0;
#X connect 7 0 8 1;
#X connect 7 1 8 2;
#X connect 7 2 8 3;
#X connect 7 3 8 4;
#X connect 8 0 2 1;
#X connect 9 0 2 0;
#X connect 10 0 9 0;
#X connect 11 0 10 0;
#X connect 12 0 11 0;
#X connect 12 0 25 0;
#X connect 13 0 27 0;
#X connect 14 0 13 0;
#X connect 15 0 23 0;
#X connect 16 0 17 0;
#X connect 17 0 15 0;
#X connect 18 0 20 0;
#X connect 19 0 18 1;
#X connect 20 0 24 0;
#X connect 21 0 18 2;
#X connect 22 0 25 1;
#X connect 23 0 22 0;
#X connect 24 0 22 1;
#X connect 25 0 14 0;
#X connect 26 0 27 1;
#X connect 27 0 10 1;
#X connect 28 0 26 0;
#X connect 29 0 16 0;
#X connect 30 0 18 0;
#X connect 31 0 28 0;
#X connect 32 0 19 0;
#X connect 32 0 21 0;
