#N canvas 0 25 1272 692 10;
#X obj 42 181 notein;
#X floatatom 351 271 5 0 0 0 - - -;
#X floatatom 392 271 5 0 0 0 - - -;
#X floatatom 433 271 5 0 0 0 - - -;
#X floatatom 313 272 5 0 0 0 - - -;
#X obj 31 46 mtl/piano 1;
#X obj 23 384 mtl/out~;
#X text 397 252 ADSR;
#X obj 42 210 pack;
#X text 28 24 tags: instrument~;
#N canvas 1 57 450 300 adsr 0;
#X obj 67 80 pack f f f f;
#X obj 68 50 t b f;
#X obj 109 50 t b f;
#X obj 151 51 t b f;
#X obj 70 114 outlet;
#X obj 64 21 inlet;
#X obj 104 21 inlet;
#X obj 144 21 inlet;
#X obj 184 21 inlet;
#X connect 0 0 4 0;
#X connect 1 0 0 0;
#X connect 1 1 0 1;
#X connect 2 0 0 0;
#X connect 2 1 0 2;
#X connect 3 0 0 0;
#X connect 3 1 0 3;
#X connect 5 0 0 0;
#X connect 6 0 1 0;
#X connect 7 0 2 0;
#X connect 8 0 3 0;
#X restore 313 300 pd adsr;
#X obj 111 182 hsl 128 15 0 1 0 0 empty empty ratio -2 -8 0 10 -262144
-1 -1 2900 1;
#X obj 24 355 mtl/simpleFm~ /id simpleFm;
#X obj 141 227 hsl 128 15 0 1 0 0 empty empty fine -2 -8 0 10 -262144
-1 -1 12600 1;
#X obj 163 265 hsl 128 15 0 1 0 0 empty empty amount -2 -8 0 10 -262144
-1 -1 2300 1;
#X text 27 10 Description: SimpleFm~;
#X connect 0 0 8 0;
#X connect 0 1 8 1;
#X connect 1 0 10 1;
#X connect 2 0 10 2;
#X connect 3 0 10 3;
#X connect 4 0 10 0;
#X connect 5 0 12 0;
#X connect 8 0 12 0;
#X connect 10 0 12 4;
#X connect 11 0 12 1;
#X connect 12 0 6 0;
#X connect 12 0 6 1;
#X connect 13 0 12 2;
#X connect 14 0 12 3;
