#N canvas 1 82 1272 661 10;
#X obj 1094 30 inlet params;
#X obj 1094 76 print PARAM_NOTFOUND;
#X obj 1094 52 tof/param route;
#X obj 1096 102 b;
#X obj 1097 131 tof/param gui;
#X obj 838 341 outlet~;
#X obj 843 176 phasor~;
#X obj 843 220 tabread4~ \$0/wavetable;
#X obj 838 365 table \$0/wavetable;
#X obj 843 198 *~ 1024;
#X obj 843 241 /~ 127;
#X obj 264 619 s \$0/wavetable;
#X msg 264 596 sinesum 1024 \$1 \$2 \$3 \$4 \$5 \$6 \$7 \$8 \$9 \$10
\$11 \$12;
#X obj 264 572 pack f f f f f f f f f f f f;
#X obj 77 85 t b f;
#X obj 138 114 t b f;
#X obj 192 141 t b f;
#X obj 236 175 t b f;
#X obj 277 201 t b f;
#X obj 320 229 t b f;
#X obj 366 256 t b f;
#X obj 406 284 t b f;
#X obj 447 315 t b f;
#X obj 491 344 t b f;
#X obj 535 372 t b f;
#X obj 845 75 inlet;
#X obj 845 102 unpack f f;
#X obj 845 127 mtof;
#X obj 842 152 * -1;
#X obj 933 159 mtl/adsr~ /id \$0-adsr;
#X obj 838 299 *~;
#X obj 31 41 tof/param /harmonic1 100 /g slider 0 127;
#X obj 77 65 tof/param /harmonic2 100 /g slider 0 127;
#X obj 136 93 tof/param /harmonic3 100 /g slider 0 127;
#X obj 192 121 tof/param /harmonic4 100 /g slider 0 127;
#X obj 235 151 tof/param /harmonic5 100 /g slider 0 127;
#X obj 277 181 tof/param /harmonic6 100 /g slider 0 127;
#X obj 320 209 tof/param /harmonic7 100 /g slider 0 127;
#X obj 366 236 tof/param /harmonic8 100 /g slider 0 127;
#X obj 406 264 tof/param /harmonic9 100 /g slider 0 127;
#X obj 447 294 tof/param /harmonic10 100 /g slider 0 127;
#X obj 493 321 tof/param /harmonic11 100 /g slider 0 127;
#X obj 535 352 tof/param /harmonic12 100 /g slider 0 127;
#X connect 0 0 2 0;
#X connect 2 0 1 0;
#X connect 3 0 4 0;
#X connect 6 0 9 0;
#X connect 7 0 10 0;
#X connect 9 0 7 0;
#X connect 10 0 30 0;
#X connect 12 0 11 0;
#X connect 13 0 12 0;
#X connect 14 0 13 0;
#X connect 14 1 13 1;
#X connect 15 0 13 0;
#X connect 15 1 13 2;
#X connect 16 0 13 0;
#X connect 16 1 13 3;
#X connect 17 0 13 0;
#X connect 17 1 13 4;
#X connect 18 0 13 0;
#X connect 18 1 13 5;
#X connect 19 0 13 0;
#X connect 19 1 13 6;
#X connect 20 0 13 0;
#X connect 20 1 13 7;
#X connect 21 0 13 0;
#X connect 21 1 13 8;
#X connect 22 0 13 0;
#X connect 22 1 13 9;
#X connect 23 0 13 0;
#X connect 23 1 13 10;
#X connect 24 0 13 0;
#X connect 24 1 13 11;
#X connect 25 0 26 0;
#X connect 26 0 27 0;
#X connect 26 1 29 0;
#X connect 27 0 28 0;
#X connect 28 0 6 0;
#X connect 29 0 30 1;
#X connect 30 0 5 0;
#X connect 31 0 13 0;
#X connect 32 0 14 0;
#X connect 33 0 15 0;
#X connect 34 0 16 0;
#X connect 35 0 17 0;
#X connect 36 0 18 0;
#X connect 37 0 19 0;
#X connect 38 0 20 0;
#X connect 39 0 21 0;
#X connect 40 0 22 0;
#X connect 41 0 23 0;
#X connect 42 0 24 0;
