#N canvas 1 82 1364 661 10;
#X obj 942 44 inlet params;
#X obj 942 90 print PARAM_NOTFOUND;
#X obj 942 66 tof/param route;
#X obj 951 113 b;
#X obj 952 142 tof/param gui;
#X obj 953 197 s \$0-loadbang;
#X obj 953 173 loadbang;
#N canvas 1 87 429 362 snare-makenoise 0;
#X obj 73 313 table \$0-snarenoise 8195;
#X obj 183 77 until;
#X msg 185 55 8195;
#X obj 182 105 f;
#X obj 211 104 + 1;
#X obj 182 129 t f b;
#X obj 208 153 random 20000;
#X obj 208 178 / 10000;
#X obj 209 204 - 1;
#X obj 175 237 pack 0 0;
#X obj 175 261 s \$0-snarenoise;
#X obj 183 23 r \$0-loadbang;
#X connect 1 0 3 0;
#X connect 2 0 1 0;
#X connect 3 0 4 0;
#X connect 3 0 5 0;
#X connect 4 0 3 1;
#X connect 5 0 9 0;
#X connect 5 1 6 0;
#X connect 6 0 7 0;
#X connect 7 0 8 0;
#X connect 8 0 9 1;
#X connect 9 0 10 0;
#X connect 11 0 2 0;
#X restore 449 -133 pd snare-makenoise;
#X obj 249 453 outlet~;
#X obj 35 312 *~;
#X obj 45 195 lop~;
#X obj 250 385 +~;
#X obj 156 179 r \$0-hit-snare;
#X obj 618 219 switch~;
#X obj 622 62 +;
#X obj 616 12 f;
#X obj 627 -21 t b f;
#X obj 583 164 delay;
#X msg 584 188 0;
#N canvas 0 22 718 566 vead~ 0;
#X obj 158 65 max 0.1;
#X obj 258 65 max 0.1;
#X text 156 22 attack (ms);
#X text 256 22 decay (ms);
#X text 86 22 trigger;
#X obj 87 45 inlet;
#X obj 158 45 inlet;
#X obj 258 45 inlet;
#X obj 144 467 outlet~;
#X obj 87 65 b;
#X obj 93 222 pack 3 4;
#X obj 87 195 f 3;
#X obj 281 314 vline~;
#X text 137 299 attack;
#X text 334 294 decay;
#X obj 89 333 tabread~ \$0-ead;
#X obj 90 302 vline~;
#X msg 87 261 1000 \, 0 \$1 0 \, 1000 0 \$1;
#X msg 281 261 0 \, 1000 0 \$1 \, 0 \$2 \$1;
#X obj 87 359 *~ -1;
#X obj 89 386 +~ 1;
#X obj 284 340 tabread~ \$0-ead;
#X connect 0 0 11 1;
#X connect 1 0 10 1;
#X connect 5 0 9 0;
#X connect 6 0 0 0;
#X connect 7 0 1 0;
#X connect 9 0 11 0;
#X connect 10 0 17 0;
#X connect 10 0 18 0;
#X connect 11 0 10 0;
#X connect 12 0 21 0;
#X connect 15 0 19 0;
#X connect 16 0 15 0;
#X connect 17 0 16 0;
#X connect 18 0 12 0;
#X connect 19 0 20 0;
#X connect 20 0 8 0;
#X connect 21 0 8 0;
#X restore 157 248 pd vead~;
#X obj 386 135 osc~ 330;
#X obj 448 134 osc~ 180;
#X obj 373 180 +~;
#X obj 376 265 *~;
#X obj 389 111 * 330;
#X obj 459 108 * 180;
#X obj 415 166 r \$0-hit-snare;
#N canvas 350 119 887 581 vead~ 0;
#X obj 281 314 vline~;
#X text 156 22 attack (ms);
#X text 256 22 decay (ms);
#X text 86 22 trigger;
#X obj 87 45 inlet;
#X obj 158 45 inlet;
#X obj 258 45 inlet;
#X obj 144 467 outlet~;
#X text 133 301 attack;
#X text 324 314 decay;
#X obj 87 195 f 3;
#X obj 582 240 expr pow($f1 \, 6);
#X obj 577 203 / 1000;
#X obj 539 146 f;
#X obj 566 148 + 1;
#X obj 539 124 until;
#X msg 577 118 0;
#X obj 539 68 t f b;
#X obj 538 181 t f f;
#X obj 671 149 table \$0-ead 1000;
#X obj 542 348 s \$0-ead;
#X obj 534 301 pack 0 0;
#X msg 538 36 1000;
#X obj 90 302 vline~;
#X msg 87 261 1000 \, 0 \$1 0 \, 1000 0 \$1;
#X msg 280 261 0 \, 1000 0 \$1 \, 0 \$2 \$1;
#X obj 87 359 *~ -1;
#X obj 89 386 +~ 1;
#X obj 87 215 pack 50 100;
#X obj 258 65 max 10;
#X obj 158 65 max 1;
#X obj 284 340 tabread4~ \$0-ead;
#X obj 89 332 tabread4~ \$0-ead;
#X obj 434 263 +;
#X msg 404 339 0 5;
#X obj 403 373 vline~;
#X obj 140 435 *~;
#X msg 435 338 1 1;
#X obj 87 65 t b b;
#X obj 418 305 delay 100;
#X obj 376 289 t b;
#X obj 368 143 t b f;
#X obj 537 13 r \$0-loadbang;
#X connect 0 0 31 0;
#X connect 4 0 38 0;
#X connect 5 0 30 0;
#X connect 6 0 29 0;
#X connect 10 0 28 0;
#X connect 11 0 21 1;
#X connect 12 0 11 0;
#X connect 13 0 14 0;
#X connect 13 0 18 0;
#X connect 14 0 13 1;
#X connect 15 0 13 0;
#X connect 16 0 13 1;
#X connect 17 0 15 0;
#X connect 17 1 16 0;
#X connect 18 0 21 0;
#X connect 18 1 12 0;
#X connect 21 0 20 0;
#X connect 22 0 17 0;
#X connect 23 0 32 0;
#X connect 24 0 23 0;
#X connect 25 0 0 0;
#X connect 26 0 27 0;
#X connect 27 0 36 0;
#X connect 28 0 25 0;
#X connect 28 0 24 0;
#X connect 29 0 28 1;
#X connect 29 0 41 0;
#X connect 30 0 10 1;
#X connect 30 0 33 0;
#X connect 31 0 36 0;
#X connect 32 0 26 0;
#X connect 33 0 39 1;
#X connect 34 0 35 0;
#X connect 35 0 36 1;
#X connect 36 0 7 0;
#X connect 37 0 35 0;
#X connect 38 0 10 0;
#X connect 38 1 40 0;
#X connect 39 0 34 0;
#X connect 40 0 39 0;
#X connect 40 0 37 0;
#X connect 41 0 33 0;
#X connect 41 1 33 1;
#X connect 42 0 22 0;
#X restore 411 244 pd vead~;
#X obj 525 80 r \$0-hit-snare;
#X obj 585 141 f;
#X msg 548 190 1;
#X obj 528 105 t b;
#X obj 49 230 bp~ 6000 4;
#X obj 86 290 *~;
#X obj -5 65 expr (($f1 / 100) + 1) * $f2;
#X obj -5 46 f;
#X obj 201 4 t b f;
#X obj 66 169 *;
#X obj 66 147 f;
#X obj 123 116 t b f;
#X text 723 93 decay;
#X text 722 84 body;
#X obj 643 125 +;
#X obj 642 95 f;
#X obj 681 89 t b f;
#X obj -6 93 tabosc4~ \$0-snarenoise;
#X obj 52 -35 s \$0-hit-snare;
#X msg 96 -76 1;
#X obj 51 -96 t b b;
#X obj 98 -54 s \$0-switch-on;
#X obj 621 197 r \$0-switch-on;
#N canvas 0 22 462 312 rh_scalelog 0;
#X obj 20 155 exp;
#X obj 20 107 *;
#X obj 20 130 +;
#X obj 98 87 log;
#X obj 194 84 log;
#X obj 123 123 t b f;
#X obj 123 145 -;
#X obj 20 183 outlet;
#X obj 20 19 inlet;
#X obj 98 23 inlet;
#X obj 194 24 inlet;
#X connect 0 0 7 0;
#X connect 1 0 2 0;
#X connect 2 0 0 0;
#X connect 3 0 2 1;
#X connect 3 0 5 0;
#X connect 4 0 6 0;
#X connect 5 0 6 0;
#X connect 5 1 6 1;
#X connect 6 0 1 1;
#X connect 8 0 1 0;
#X connect 9 0 3 0;
#X connect 10 0 4 0;
#X restore 459 -39 pd rh_scalelog;
#X msg 506 -63 1;
#X msg 550 -65 100;
#N canvas 0 22 462 312 rh_scalelog 0;
#X obj 20 155 exp;
#X obj 20 107 *;
#X obj 20 130 +;
#X obj 98 87 log;
#X obj 194 84 log;
#X obj 123 123 t b f;
#X obj 123 145 -;
#X obj 20 183 outlet;
#X obj 20 19 inlet;
#X obj 98 23 inlet;
#X obj 194 24 inlet;
#X connect 0 0 7 0;
#X connect 1 0 2 0;
#X connect 2 0 0 0;
#X connect 3 0 2 1;
#X connect 3 0 5 0;
#X connect 4 0 6 0;
#X connect 5 0 6 0;
#X connect 5 1 6 1;
#X connect 6 0 1 1;
#X connect 8 0 1 0;
#X connect 9 0 3 0;
#X connect 10 0 4 0;
#X restore 645 -49 pd rh_scalelog;
#X obj 462 -10 s \$0-attack2;
#X obj 181 200 r \$0-attack2;
#X obj 202 221 r \$0-decay2;
#X obj 672 -23 s \$0-decay2;
#N canvas 0 22 462 312 rh_scalelog 0;
#X obj 20 155 exp;
#X obj 20 107 *;
#X obj 20 130 +;
#X obj 98 87 log;
#X obj 194 84 log;
#X obj 123 123 t b f;
#X obj 123 145 -;
#X obj 20 183 outlet;
#X obj 20 19 inlet;
#X obj 98 23 inlet;
#X obj 194 24 inlet;
#X connect 0 0 7 0;
#X connect 1 0 2 0;
#X connect 2 0 0 0;
#X connect 3 0 2 1;
#X connect 3 0 5 0;
#X connect 4 0 6 0;
#X connect 5 0 6 0;
#X connect 5 1 6 1;
#X connect 6 0 1 1;
#X connect 8 0 1 0;
#X connect 9 0 3 0;
#X connect 10 0 4 0;
#X restore 681 69 pd rh_scalelog;
#X msg 731 43 1;
#X msg 780 44 1000;
#N canvas 0 22 462 312 rh_scalelog 0;
#X obj 20 155 exp;
#X obj 20 107 *;
#X obj 20 130 +;
#X obj 98 87 log;
#X obj 194 84 log;
#X obj 123 123 t b f;
#X obj 123 145 -;
#X obj 20 183 outlet;
#X obj 20 19 inlet;
#X obj 98 23 inlet;
#X obj 194 24 inlet;
#X connect 0 0 7 0;
#X connect 1 0 2 0;
#X connect 2 0 0 0;
#X connect 3 0 2 1;
#X connect 3 0 5 0;
#X connect 4 0 6 0;
#X connect 5 0 6 0;
#X connect 5 1 6 1;
#X connect 6 0 1 1;
#X connect 8 0 1 0;
#X connect 9 0 3 0;
#X connect 10 0 4 0;
#X restore 177 120 pd rh_scalelog;
#X msg 224 96 100;
#X msg 270 95 20000;
#X obj 389 82 * 2;
#X obj -5 17 * 2;
#N canvas 0 22 462 312 rh_scalelog 0;
#X obj 20 155 exp;
#X obj 20 107 *;
#X obj 20 130 +;
#X obj 98 87 log;
#X obj 194 84 log;
#X obj 123 123 t b f;
#X obj 123 145 -;
#X obj 20 183 outlet;
#X obj 20 19 inlet;
#X obj 98 23 inlet;
#X obj 194 24 inlet;
#X connect 0 0 7 0;
#X connect 1 0 2 0;
#X connect 2 0 0 0;
#X connect 3 0 2 1;
#X connect 3 0 5 0;
#X connect 4 0 6 0;
#X connect 5 0 6 0;
#X connect 5 1 6 1;
#X connect 6 0 1 1;
#X connect 8 0 1 0;
#X connect 9 0 3 0;
#X connect 10 0 4 0;
#X restore 198 -30 pd rh_scalelog;
#X msg 289 -56 100;
#N canvas 0 22 462 312 rh_scalelog 0;
#X obj 20 155 exp;
#X obj 20 107 *;
#X obj 20 130 +;
#X obj 98 87 log;
#X obj 194 84 log;
#X obj 123 123 t b f;
#X obj 123 145 -;
#X obj 20 183 outlet;
#X obj 20 19 inlet;
#X obj 98 23 inlet;
#X obj 194 24 inlet;
#X connect 0 0 7 0;
#X connect 1 0 2 0;
#X connect 2 0 0 0;
#X connect 3 0 2 1;
#X connect 3 0 5 0;
#X connect 4 0 6 0;
#X connect 5 0 6 0;
#X connect 5 1 6 1;
#X connect 6 0 1 1;
#X connect 8 0 1 0;
#X connect 9 0 3 0;
#X connect 10 0 4 0;
#X restore 814 365 pd rh_scalelog;
#X obj 814 390 s \$0-bp;
#X obj 76 202 r \$0-bp;
#N canvas 0 22 462 312 rh_scalelog 0;
#X obj 20 155 exp;
#X obj 20 107 *;
#X obj 20 130 +;
#X obj 98 87 log;
#X obj 194 84 log;
#X obj 123 123 t b f;
#X obj 123 145 -;
#X obj 20 183 outlet;
#X obj 20 19 inlet;
#X obj 98 23 inlet;
#X obj 194 24 inlet;
#X connect 0 0 7 0;
#X connect 1 0 2 0;
#X connect 2 0 0 0;
#X connect 3 0 2 1;
#X connect 3 0 5 0;
#X connect 4 0 6 0;
#X connect 5 0 6 0;
#X connect 5 1 6 1;
#X connect 6 0 1 1;
#X connect 8 0 1 0;
#X connect 9 0 3 0;
#X connect 10 0 4 0;
#X restore 504 427 pd rh_scalelog;
#X msg 523 403 1;
#X msg 560 400 10;
#X obj 504 451 s \$0-bpq;
#X obj 101 178 r \$0-bpq;
#X msg 833 341 1000;
#X msg 876 337 10000;
#X msg 242 -55 0.1;
#X msg 718 -71 5000;
#X msg 673 -72 100;
#X obj 434 187 r \$0-attack2;
#X obj 456 210 r \$0-bdecay2;
#X obj 709 123 s \$0-bdecay2;
#X msg 394 -46 0.25;
#X obj 50 -118 inlet;
#X obj 267 353 *~ 1;
#X obj 172 352 *~ 1;
#N canvas 380 310 510 360 xfade 0;
#X obj 93 148 t b f;
#X obj 142 150 t b f;
#X obj 170 1 inlet;
#X obj 78 255 outlet;
#X obj 144 267 outlet;
#X obj 182 71 t f b;
#X msg 220 145 0.5;
#X obj 80 226 * 2;
#X obj 103 189 f 0.5;
#X obj 148 188 f 0.5;
#X obj 137 121 moses 0.5;
#X obj 145 221 expr 1 - $f1;
#X obj 145 241 * 2;
#X connect 0 0 9 0;
#X connect 0 1 8 0;
#X connect 1 0 8 0;
#X connect 1 1 9 0;
#X connect 2 0 5 0;
#X connect 5 0 10 0;
#X connect 5 1 6 0;
#X connect 6 0 8 1;
#X connect 6 0 9 1;
#X connect 7 0 3 0;
#X connect 8 0 7 0;
#X connect 9 0 11 0;
#X connect 10 0 0 0;
#X connect 10 1 1 0;
#X connect 11 0 12 0;
#X connect 12 0 4 0;
#X restore 213 319 pd xfade;
#X obj 249 431 tanh~;
#X obj 250 408 *~ 1.3;
#X obj 244 -82 r \$0-loadbang;
#X obj 506 -92 r \$0-loadbang;
#X obj 673 -96 r \$0-loadbang;
#X obj 734 20 r \$0-loadbang;
#X obj 837 314 r \$0-loadbang;
#X obj 533 375 r \$0-loadbang;
#X obj 234 71 r \$0-loadbang;
#X obj 199 -103 tof/param /noise 0 /g slider 0 1;
#X obj -6 -11 tof/param /pitch 0 /g slider 0 1;
#X obj 416 -113 tof/param /attack 0 /g slider 0 1;
#X obj 647 -118 tof/param /decay 0 /g slider 0 1;
#X obj 669 -2 tof/param /bodyDecay 0 /g slider 0 1;
#X obj 809 292 tof/param /bandpass 0 /g slider 0 1;
#X obj 502 357 tof/param /bandpassQ 0 /g slider 0 1;
#X obj 196 296 tof/param /xfade 0 /g slider 0 1;
#X obj 177 54 tof/param /lowpass 0 /g slider 0 1;
#X connect 0 0 2 0;
#X connect 2 0 1 0;
#X connect 3 0 4 0;
#X connect 6 0 5 0;
#X connect 9 0 88 0;
#X connect 10 0 32 0;
#X connect 11 0 91 0;
#X connect 12 0 19 0;
#X connect 14 0 43 0;
#X connect 15 0 14 0;
#X connect 16 0 15 0;
#X connect 16 1 14 1;
#X connect 17 0 18 0;
#X connect 18 0 13 0;
#X connect 19 0 33 0;
#X connect 19 0 33 1;
#X connect 20 0 22 0;
#X connect 21 0 22 1;
#X connect 22 0 23 0;
#X connect 23 0 87 0;
#X connect 24 0 20 0;
#X connect 25 0 21 0;
#X connect 26 0 27 0;
#X connect 27 0 23 1;
#X connect 28 0 31 0;
#X connect 29 0 17 0;
#X connect 30 0 13 0;
#X connect 31 0 29 0;
#X connect 31 0 30 0;
#X connect 32 0 9 0;
#X connect 33 0 9 1;
#X connect 34 0 45 0;
#X connect 35 0 34 0;
#X connect 36 0 35 0;
#X connect 36 1 34 1;
#X connect 37 0 10 1;
#X connect 38 0 37 0;
#X connect 39 0 38 0;
#X connect 39 1 37 1;
#X connect 42 0 29 1;
#X connect 43 0 42 0;
#X connect 44 0 43 0;
#X connect 44 1 42 1;
#X connect 44 1 84 0;
#X connect 45 0 10 0;
#X connect 47 0 49 0;
#X connect 48 0 46 0;
#X connect 48 1 47 0;
#X connect 48 1 85 0;
#X connect 50 0 13 0;
#X connect 51 0 15 0;
#X connect 51 0 55 0;
#X connect 52 0 51 1;
#X connect 53 0 51 2;
#X connect 54 0 16 0;
#X connect 54 0 58 0;
#X connect 56 0 19 1;
#X connect 57 0 19 2;
#X connect 59 0 44 0;
#X connect 60 0 59 1;
#X connect 61 0 59 2;
#X connect 62 0 38 0;
#X connect 63 0 62 1;
#X connect 64 0 62 2;
#X connect 65 0 24 0;
#X connect 65 0 25 0;
#X connect 65 0 39 0;
#X connect 66 0 35 0;
#X connect 67 0 36 0;
#X connect 68 0 67 2;
#X connect 69 0 70 0;
#X connect 71 0 32 1;
#X connect 72 0 75 0;
#X connect 73 0 72 1;
#X connect 74 0 72 2;
#X connect 76 0 32 2;
#X connect 77 0 69 1;
#X connect 78 0 69 2;
#X connect 79 0 67 1;
#X connect 80 0 54 2;
#X connect 81 0 54 1;
#X connect 82 0 27 1;
#X connect 83 0 27 2;
#X connect 85 0 21 1;
#X connect 85 0 20 1;
#X connect 85 0 45 1;
#X connect 86 0 48 0;
#X connect 87 0 11 1;
#X connect 88 0 11 0;
#X connect 89 0 88 1;
#X connect 89 1 87 1;
#X connect 90 0 8 0;
#X connect 91 0 90 0;
#X connect 92 0 79 0;
#X connect 92 0 68 0;
#X connect 93 0 52 0;
#X connect 93 0 53 0;
#X connect 94 0 81 0;
#X connect 94 0 80 0;
#X connect 95 0 60 0;
#X connect 95 0 61 0;
#X connect 96 0 77 0;
#X connect 96 0 78 0;
#X connect 97 0 73 0;
#X connect 97 0 74 0;
#X connect 98 0 63 0;
#X connect 98 0 64 0;
#X connect 99 0 67 0;
#X connect 100 0 66 0;
#X connect 100 0 65 0;
#X connect 101 0 51 0;
#X connect 102 0 54 0;
#X connect 103 0 59 0;
#X connect 104 0 69 0;
#X connect 105 0 72 0;
#X connect 106 0 89 0;
#X connect 107 0 62 0;
