#N canvas 1 82 1351 661 10;
#X obj 651 10 inlet~;
#X obj 651 70 *~;
#X obj 688 70 *~;
#X obj 651 95 sqrt~;
#X obj 771 276 rmstodb~;
#X obj 461 353 metro 20;
#X obj 771 303 dbtopow~;
#X obj 651 45 rfft~;
#X obj 541 241 *~ 0;
#X obj 570 217 == 0;
#X obj 680 217 == 1;
#X obj 800 217 == 2;
#X obj 680 180 r \$0-scale-mode;
#X obj 651 276 rmstodb~;
#X obj 651 241 *~ 0;
#X obj 771 241 *~ 0;
#X obj 651 328 clip~ 0 100;
#X obj 255 486 r \$0-fft-size;
#X obj 783 8 r \$0-fft-size;
#X obj 279 551 * 0.5;
#X msg 279 595 resize \$1;
#X obj 651 119 /~ 2047;
#X obj 731 86 - 1;
#X obj 128 572 * 0.125;
#X msg 783 33 set \$1 2;
#X obj 461 304 r \$0-onoff;
#X msg 128 600 xticks \$1 \$1 1;
#N canvas 1 82 450 278 (subpatch) 0;
#X array \$0-spectrum 512 float 4;
#X coords 0 0.5 512 0 300 140 2 0 0;
#X restore 136 175 graph;
#X text 130 322 0;
#X text 206 314 π;
#X text 206 321 –;
#X text 281 314 π;
#X text 281 321 –;
#X text 281 330 4;
#X text 429 314 π;
#X text 429 321 –;
#X text 429 330 2;
#X text 206 330 8;
#X text 355 321 –;
#X text 355 330 8;
#X text 352 314 3π;
#X obj 783 59 switch~ 2048 2;
#X obj 885 9 r \$0-onoff;
#X text 149 345 Gain g / Normalized Frequency ω (rad/sample);
#X obj 651 460 tabwrite~ \$0-spectrum;
#X obj 279 665 send \$0-spectrum;
#X text 240 103 Spectrogram;
#X obj 395 595 pack 1 1024;
#X msg 395 625 bounds 0 \$1 \$2 0;
#N canvas 38 280 450 300 cadre 0;
#X text 119 102 State;
#X text 162 102 FFT Size;
#X text 242 102 Amplitude Scale;
#X obj 165 118 nbx 5 14 2 1e+37 0 0 \$0-fft-size \$0-fft-sizei empty
0 -8 0 10 -262144 -1 -1 1024 256;
#X msg 145 77 set \$1;
#N canvas 0 50 450 300 toPowerOf2 0;
#X obj 230 98 log;
#X obj 230 120 /;
#X obj 230 47 t f b;
#X obj 260 100 log;
#X obj 260 76 f 2;
#X obj 230 142 int;
#X obj 230 164 max 1;
#X obj 229 233 pow, f 5;
#X obj 229 189 t b f;
#X obj 229 211 f 2;
#X obj 230 23 inlet;
#X obj 229 255 outlet;
#X connect 0 0 1 0;
#X connect 1 0 5 0;
#X connect 2 0 0 0;
#X connect 2 1 4 0;
#X connect 3 0 1 1;
#X connect 4 0 3 0;
#X connect 5 0 6 0;
#X connect 6 0 8 0;
#X connect 7 0 11 0;
#X connect 8 0 9 0;
#X connect 8 1 7 1;
#X connect 9 0 7 0;
#X connect 10 0 2 0;
#X restore 145 145 pd toPowerOf2;
#X obj 127 118 tgl 15 0 \$0-onoff \$0-onoffi empty 17 7 0 10 -262144
-1 -1 1 1;
#N canvas 0 50 450 300 toScale 0;
#X obj 116 162 sel 0 1 2;
#X obj 116 184 symbol Rms;
#X obj 133 204 symbol Decibel;
#X obj 151 224 symbol Power;
#X obj 64 14 sel Rms Decibel Power;
#X msg 116 246 set \$1;
#X obj 91 45 f 0;
#X obj 122 45 f 1;
#X obj 152 45 f 2;
#X obj 168 96 inlet;
#X obj 165 139 outlet;
#X obj 187 46 bang;
#X obj 228 96 r \$0-scale-modet;
#X obj 225 139 s \$0-scale-modeti;
#X connect 0 0 1 0;
#X connect 0 1 2 0;
#X connect 0 2 3 0;
#X connect 1 0 5 0;
#X connect 2 0 5 0;
#X connect 3 0 5 0;
#X connect 4 0 6 0;
#X connect 4 1 7 0;
#X connect 4 2 8 0;
#X connect 4 3 11 0;
#X connect 5 0 13 0;
#X connect 6 0 10 0;
#X connect 7 0 10 0;
#X connect 8 0 10 0;
#X connect 9 0 0 0;
#X connect 11 0 10 0;
#X connect 12 0 4 0;
#X restore 259 141 pd toScale;
#X obj 244 118 hradio 15 1 0 3 \$0-scale-mode \$0-scale-modei empty
0 -8 0 10 -262144 -1 -1 0;
#X symbolatom 293 119 10 0 0 0 - #0-scale-modeti #0-scale-modet, f
10;
#X connect 3 0 5 0;
#X connect 4 0 3 0;
#X connect 5 0 4 0;
#X connect 7 0 8 0;
#X connect 8 0 7 0;
#X coords 0 -1 1 1 346 40 2 100 100;
#X restore 100 121 pd cadre;
#X obj 255 523 t f b f f, f 11;
#X obj 430 442 r \$0-scale-mode;
#N canvas 134 277 552 378 mapscale 0;
#X obj 275 130 t b b;
#X obj 275 109 sel 0 1 2, f 26;
#X obj 275 51 inlet;
#X msg 128 159 yticks 0 20 1;
#X obj 326 130 t b b;
#X obj 326 152 f 100;
#X obj 376 130 t b b;
#X obj 306 255 outlet;
#X obj 236 275 outlet;
#X obj 275 152 f 0.5;
#X msg 128 129 yticks 0 0.5 1;
#X obj 376 152 f 0.1;
#X msg 127 193 yticks 0 0.02 1;
#X obj 118 64 f 30;
#X obj 118 86 / 2048;
#X obj 90 18 inlet;
#X obj 118 108 * -1;
#X obj 90 135 *;
#X obj 19 208 f;
#X msg 18 229 ylabel \$1 0 0.1 0.2 0.3 0.4 0.5;
#X obj 19 258 f;
#X msg 19 278 ylabel \$1 0 20 40 60 80 100;
#X obj 90 165 * 0.5;
#X obj 19 307 f;
#X msg 19 333 ylabel \$1 0 0.02 0.04 0.06 0.08 0.1;
#X obj 90 40 t b f b;
#X obj 275 73 f 0;
#X connect 0 0 10 0;
#X connect 0 0 18 0;
#X connect 0 1 9 0;
#X connect 1 0 0 0;
#X connect 1 1 4 0;
#X connect 1 2 6 0;
#X connect 2 0 26 0;
#X connect 3 0 8 0;
#X connect 4 0 5 0;
#X connect 4 1 3 0;
#X connect 4 1 20 0;
#X connect 5 0 7 0;
#X connect 6 0 12 0;
#X connect 6 0 23 0;
#X connect 6 1 11 0;
#X connect 9 0 7 0;
#X connect 10 0 8 0;
#X connect 11 0 7 0;
#X connect 12 0 8 0;
#X connect 13 0 14 0;
#X connect 14 0 16 0;
#X connect 15 0 25 0;
#X connect 16 0 17 1;
#X connect 17 0 22 0;
#X connect 17 0 18 1;
#X connect 17 0 20 1;
#X connect 18 0 19 0;
#X connect 19 0 8 0;
#X connect 20 0 21 0;
#X connect 21 0 8 0;
#X connect 22 0 23 1;
#X connect 23 0 24 0;
#X connect 24 0 8 0;
#X connect 25 0 26 0;
#X connect 25 1 17 0;
#X connect 25 2 13 0;
#X connect 26 0 1 0;
#X restore 430 518 pd mapscale;
#X obj 319 551 * 0.5;
#X obj 541 328 clip~ 0 0.5;
#X obj 771 328 clip~ 0 0.1;
#X obj 731 57 / 4;
#X obj 991 11 inlet params;
#X obj 991 57 print PARAM_NOTFOUND;
#X obj 991 33 tof/param route;
#X obj 992 80 b;
#X obj 992 105 tof/param gui;
#X obj 949 392 tof/param /state 1 /g tgl 0 1;
#X obj 949 348 initbang;
#X obj 954 164 initbang;
#X obj 950 258 initbang;
#X obj 954 231 s \$0-fft-sizei;
#X obj 950 325 s \$0-scale-modei;
#X obj 949 415 s \$0-onoffi;
#X obj 954 208 tof/param /size 1024 /g nbx 0 2048;
#X obj 950 302 tof/param /scale 0 /g tgl 0 2;
#X obj 954 186 tof/argument 4;
#X obj 950 283 tof/argument 5;
#X obj 949 370 tof/argument 3;
#X connect 0 0 7 0;
#X connect 1 0 3 0;
#X connect 2 0 3 0;
#X connect 3 0 21 0;
#X connect 4 0 6 0;
#X connect 5 0 44 0;
#X connect 6 0 55 0;
#X connect 7 0 1 0;
#X connect 7 0 1 1;
#X connect 7 1 2 0;
#X connect 7 1 2 1;
#X connect 8 0 54 0;
#X connect 9 0 8 1;
#X connect 10 0 14 1;
#X connect 11 0 15 1;
#X connect 12 0 11 0;
#X connect 12 0 10 0;
#X connect 12 0 9 0;
#X connect 13 0 16 0;
#X connect 14 0 13 0;
#X connect 15 0 4 0;
#X connect 16 0 44 0;
#X connect 17 0 50 0;
#X connect 17 0 52 0;
#X connect 18 0 24 0;
#X connect 18 0 56 0;
#X connect 19 0 20 0;
#X connect 20 0 45 0;
#X connect 21 0 8 0;
#X connect 21 0 14 0;
#X connect 21 0 15 0;
#X connect 22 0 21 1;
#X connect 23 0 26 0;
#X connect 24 0 41 0;
#X connect 25 0 5 0;
#X connect 26 0 45 0;
#X connect 42 0 41 0;
#X connect 47 0 48 0;
#X connect 48 0 45 0;
#X connect 50 0 23 0;
#X connect 50 1 47 0;
#X connect 50 2 53 0;
#X connect 50 3 19 0;
#X connect 51 0 52 1;
#X connect 52 0 45 0;
#X connect 52 1 47 0;
#X connect 53 0 47 1;
#X connect 54 0 44 0;
#X connect 55 0 44 0;
#X connect 56 0 22 0;
#X connect 57 0 59 0;
#X connect 59 0 58 0;
#X connect 60 0 61 0;
#X connect 62 0 68 0;
#X connect 63 0 73 0;
#X connect 64 0 71 0;
#X connect 65 0 72 0;
#X connect 69 0 66 0;
#X connect 70 0 67 0;
#X connect 71 0 69 0;
#X connect 72 0 70 0;
#X connect 73 0 62 0;
#X coords 0 -1 1 1 346 260 2 100 100;
