#N canvas 1 82 1351 661 10;
#X obj 134 105 +~ 1;
#X obj 134 129 *~ 0.5;
#X text 130 38 Low Frequency Oscillator;
#X text 244 135 Depth (ms);
#X text 26 303 x[n];
#X obj 83 302 *~ 1;
#X text 164 276 Feedback (0-1);
#X obj 134 82 osc~ 1;
#X text 190 57 Rate (Hz);
#X text 257 165 Shift (ms);
#X obj 62 334 +~, f 4;
#X obj 134 60 nbx 5 14 -1e+37 1e+37 0 0 empty \$0-rate empty 0 -8 0
10 -262144 -1 -1 0 256;
#X obj 185 139 nbx 5 14 0 1e+37 0 0 empty \$0-depth empty 0 -8 0 10
-262144 -1 -1 0 256;
#X obj 197 169 nbx 5 14 0 1e+37 0 0 empty \$0-shift empty 0 -8 0 10
-262144 -1 -1 0 256;
#X obj 104 278 nbx 5 14 0 1 0 0 empty \$0-feedback empty 0 -8 0 10
-262144 -1 -1 0 256;
#X obj 134 158 *~ 1, f 9;
#X obj 134 188 +~ 0.001, f 11;
#X obj 62 28 noise~;
#X obj 62 356 *~ 0.5;
#N canvas 0 50 622 635 apset~ 0;
#N canvas 0 50 450 300 ap~ 0;
#X obj 127 160 rpole~;
#X obj 127 135 rzero_rev~;
#X obj 127 92 inlet~;
#X obj 127 185 outlet~;
#X obj 204 92 inlet~;
#X connect 0 0 3 0;
#X connect 1 0 0 0;
#X connect 2 0 1 0;
#X connect 4 0 1 1;
#X connect 4 0 0 1;
#X restore 155 36 pd ap~;
#N canvas 0 50 450 300 ap~ 0;
#X obj 127 160 rpole~;
#X obj 127 135 rzero_rev~;
#X obj 127 92 inlet~;
#X obj 127 185 outlet~;
#X obj 204 92 inlet~;
#X connect 0 0 3 0;
#X connect 1 0 0 0;
#X connect 2 0 1 0;
#X connect 4 0 1 1;
#X connect 4 0 0 1;
#X restore 155 66 pd ap~;
#N canvas 0 50 450 300 ap~ 0;
#X obj 127 160 rpole~;
#X obj 127 135 rzero_rev~;
#X obj 127 92 inlet~;
#X obj 127 185 outlet~;
#X obj 204 92 inlet~;
#X connect 0 0 3 0;
#X connect 1 0 0 0;
#X connect 2 0 1 0;
#X connect 4 0 1 1;
#X connect 4 0 0 1;
#X restore 155 96 pd ap~;
#N canvas 0 50 450 300 ap~ 0;
#X obj 127 160 rpole~;
#X obj 127 135 rzero_rev~;
#X obj 127 92 inlet~;
#X obj 127 185 outlet~;
#X obj 204 92 inlet~;
#X connect 0 0 3 0;
#X connect 1 0 0 0;
#X connect 2 0 1 0;
#X connect 4 0 1 1;
#X connect 4 0 0 1;
#X restore 155 126 pd ap~;
#N canvas 0 50 450 300 ap~ 0;
#X obj 127 160 rpole~;
#X obj 127 135 rzero_rev~;
#X obj 127 92 inlet~;
#X obj 127 185 outlet~;
#X obj 204 92 inlet~;
#X connect 0 0 3 0;
#X connect 1 0 0 0;
#X connect 2 0 1 0;
#X connect 4 0 1 1;
#X connect 4 0 0 1;
#X restore 155 156 pd ap~;
#N canvas 0 50 450 300 ap~ 0;
#X obj 127 160 rpole~;
#X obj 127 135 rzero_rev~;
#X obj 127 92 inlet~;
#X obj 127 185 outlet~;
#X obj 204 92 inlet~;
#X connect 0 0 3 0;
#X connect 1 0 0 0;
#X connect 2 0 1 0;
#X connect 4 0 1 1;
#X connect 4 0 0 1;
#X restore 155 186 pd ap~;
#N canvas 0 50 450 300 ap~ 0;
#X obj 127 160 rpole~;
#X obj 127 135 rzero_rev~;
#X obj 127 92 inlet~;
#X obj 127 185 outlet~;
#X obj 204 92 inlet~;
#X connect 0 0 3 0;
#X connect 1 0 0 0;
#X connect 2 0 1 0;
#X connect 4 0 1 1;
#X connect 4 0 0 1;
#X restore 155 216 pd ap~;
#N canvas 0 50 450 300 ap~ 0;
#X obj 127 160 rpole~;
#X obj 127 135 rzero_rev~;
#X obj 127 92 inlet~;
#X obj 127 185 outlet~;
#X obj 204 92 inlet~;
#X connect 0 0 3 0;
#X connect 1 0 0 0;
#X connect 2 0 1 0;
#X connect 4 0 1 1;
#X connect 4 0 0 1;
#X restore 155 246 pd ap~;
#N canvas 0 50 450 300 ap~ 0;
#X obj 127 160 rpole~;
#X obj 127 135 rzero_rev~;
#X obj 127 92 inlet~;
#X obj 127 185 outlet~;
#X obj 204 92 inlet~;
#X connect 0 0 3 0;
#X connect 1 0 0 0;
#X connect 2 0 1 0;
#X connect 4 0 1 1;
#X connect 4 0 0 1;
#X restore 155 276 pd ap~;
#N canvas 0 50 450 300 ap~ 0;
#X obj 127 160 rpole~;
#X obj 127 135 rzero_rev~;
#X obj 127 92 inlet~;
#X obj 127 185 outlet~;
#X obj 204 92 inlet~;
#X connect 0 0 3 0;
#X connect 1 0 0 0;
#X connect 2 0 1 0;
#X connect 4 0 1 1;
#X connect 4 0 0 1;
#X restore 155 306 pd ap~;
#N canvas 0 50 450 300 ap~ 0;
#X obj 127 160 rpole~;
#X obj 127 135 rzero_rev~;
#X obj 127 92 inlet~;
#X obj 127 185 outlet~;
#X obj 204 92 inlet~;
#X connect 0 0 3 0;
#X connect 1 0 0 0;
#X connect 2 0 1 0;
#X connect 4 0 1 1;
#X connect 4 0 0 1;
#X restore 155 336 pd ap~;
#N canvas 0 50 450 300 ap~ 0;
#X obj 127 160 rpole~;
#X obj 127 135 rzero_rev~;
#X obj 127 92 inlet~;
#X obj 127 185 outlet~;
#X obj 204 92 inlet~;
#X connect 0 0 3 0;
#X connect 1 0 0 0;
#X connect 2 0 1 0;
#X connect 4 0 1 1;
#X connect 4 0 0 1;
#X restore 155 366 pd ap~;
#N canvas 0 50 450 300 ap~ 0;
#X obj 127 160 rpole~;
#X obj 127 135 rzero_rev~;
#X obj 127 92 inlet~;
#X obj 127 185 outlet~;
#X obj 204 92 inlet~;
#X connect 0 0 3 0;
#X connect 1 0 0 0;
#X connect 2 0 1 0;
#X connect 4 0 1 1;
#X connect 4 0 0 1;
#X restore 155 396 pd ap~;
#N canvas 0 50 450 300 ap~ 0;
#X obj 127 160 rpole~;
#X obj 127 135 rzero_rev~;
#X obj 127 92 inlet~;
#X obj 127 185 outlet~;
#X obj 204 92 inlet~;
#X connect 0 0 3 0;
#X connect 1 0 0 0;
#X connect 2 0 1 0;
#X connect 4 0 1 1;
#X connect 4 0 0 1;
#X restore 155 426 pd ap~;
#N canvas 0 50 450 300 ap~ 0;
#X obj 127 160 rpole~;
#X obj 127 135 rzero_rev~;
#X obj 127 92 inlet~;
#X obj 127 185 outlet~;
#X obj 204 92 inlet~;
#X connect 0 0 3 0;
#X connect 1 0 0 0;
#X connect 2 0 1 0;
#X connect 4 0 1 1;
#X connect 4 0 0 1;
#X restore 155 456 pd ap~;
#N canvas 0 50 450 300 ap~ 0;
#X obj 127 160 rpole~;
#X obj 127 135 rzero_rev~;
#X obj 127 92 inlet~;
#X obj 127 185 outlet~;
#X obj 204 92 inlet~;
#X connect 0 0 3 0;
#X connect 1 0 0 0;
#X connect 2 0 1 0;
#X connect 4 0 1 1;
#X connect 4 0 0 1;
#X restore 155 486 pd ap~;
#X obj 155 6 inlet~;
#X obj 225 6 inlet~;
#X obj 155 511 outlet~;
#X connect 0 0 1 0;
#X connect 1 0 2 0;
#X connect 2 0 3 0;
#X connect 3 0 4 0;
#X connect 4 0 5 0;
#X connect 5 0 6 0;
#X connect 6 0 7 0;
#X connect 7 0 8 0;
#X connect 8 0 9 0;
#X connect 9 0 10 0;
#X connect 10 0 11 0;
#X connect 11 0 12 0;
#X connect 12 0 13 0;
#X connect 13 0 14 0;
#X connect 14 0 15 0;
#X connect 15 0 18 0;
#X connect 16 0 0 0;
#X connect 17 0 0 1;
#X connect 17 0 1 1;
#X connect 17 0 2 1;
#X connect 17 0 3 1;
#X connect 17 0 4 1;
#X connect 17 0 5 1;
#X connect 17 0 6 1;
#X connect 17 0 7 1;
#X connect 17 0 8 1;
#X connect 17 0 9 1;
#X connect 17 0 10 1;
#X connect 17 0 11 1;
#X connect 17 0 12 1;
#X connect 17 0 13 1;
#X connect 17 0 14 1;
#X connect 17 0 15 1;
#X restore 83 251 pd apset~;
#X obj 134 210 clip~ 0 1;
#X text 126 302 ax'[n];
#X text 96 335 y[n] = x[n] + ax'[n];
#X text 139 230 b;
#X text 146 251 x'[n] = -bx[n] + x[n-1] + bx'[n-1] (16x);
#X text 546 14 spectrogram~;
#X text 546 103 author : Pierre Guillot - https://github.com/pierreguillot
;
#X text 545 118 tags: info~;
#X obj 547 137 cnv 15 200 20 empty empty /spectrogram/ 2 12 0 8 -258401
-262144 0;
#X obj 547 163 tgl 15 0 /spectro/state /spectro/state_ State 17 7 0
10 -262144 -1 -1 1 1;
#X text 547 32 The spectrogram offers a visual representation of the
spectrum of frequencies of a signal. The horizontal axis represents
the frequency bins that depend on the FFT size. The vertical axis represents
the amplitude of a frequency bins. Three amplitude scales are available
: rms (root mean square) \, decibel and power., f 77;
#X obj 547 197 nbx 5 14 2 1e+37 0 0 /spectro/size /spectro/size_ FFT_Size
0 -8 0 10 -262144 -1 -1 1024 256;
#X obj 545 228 hradio 15 1 0 3 /spectro/scale /spectro/scale_ Amplitude_Scale
0 -8 0 10 -262144 -1 -1 0;
#X obj 61 655 out~;
#X obj 98 383 mtl/spectrogram~ /id spectro;
#X connect 0 0 1 0;
#X connect 1 0 15 0;
#X connect 5 0 10 1;
#X connect 7 0 0 0;
#X connect 10 0 18 0;
#X connect 11 0 7 0;
#X connect 12 0 15 1;
#X connect 13 0 16 1;
#X connect 14 0 5 1;
#X connect 15 0 16 0;
#X connect 16 0 20 0;
#X connect 17 0 10 0;
#X connect 17 0 19 0;
#X connect 18 0 33 0;
#X connect 18 0 34 0;
#X connect 19 0 5 0;
#X connect 20 0 19 1;
