#N canvas 1 82 1272 661 10;
#X obj 499 -8 inlet params;
#X obj 499 38 print PARAM_NOTFOUND;
#X obj 499 14 tof/param route;
#X obj 501 61 b;
#X obj 501 85 tof/param gui;
#X obj 302 383 cos~;
#X obj 345 361 +~ -0.25;
#X obj 345 384 cos~;
#X obj 137 428 *~;
#X obj 203 428 *~;
#X obj 136 452 -~;
#X text 352 313 <-- shift frequency;
#X text 681 346 cosine and sine waves;
#X obj 302 337 phasor~;
#X text 237 428 <-- complex multipier;
#X text 236 445 (calculates real part);
#X text 683 362 to form the real and;
#X text 680 377 imaginary part of a;
#X text 680 394 complex sinusoid;
#X obj 137 390 hilbert~;
#X obj 137 339 inlet~;
#X obj 135 485 outlet~;
#X obj 302 278 tof/param /frequency 0 /g slider 0 1;
#X obj 462 430 *~;
#X obj 528 430 *~;
#X obj 461 454 -~;
#X obj 462 392 hilbert~;
#X obj 462 341 inlet~;
#X obj 460 487 outlet~;
#X obj 302 249 tof/argument 3;
#X obj 302 223 loadbang;
#X connect 0 0 2 0;
#X connect 2 0 1 0;
#X connect 3 0 4 0;
#X connect 5 0 8 1;
#X connect 5 0 23 1;
#X connect 6 0 7 0;
#X connect 7 0 9 1;
#X connect 7 0 24 1;
#X connect 8 0 10 0;
#X connect 9 0 10 1;
#X connect 10 0 21 0;
#X connect 13 0 6 0;
#X connect 13 0 5 0;
#X connect 19 0 8 0;
#X connect 19 1 9 0;
#X connect 20 0 19 0;
#X connect 22 0 13 0;
#X connect 23 0 25 0;
#X connect 24 0 25 1;
#X connect 25 0 28 0;
#X connect 26 0 23 0;
#X connect 26 1 24 0;
#X connect 27 0 26 0;
#X connect 29 0 22 0;
#X connect 30 0 29 0;
