#N canvas 0 0 1272 714 10;
#X obj 295 472 outlet~;
#X obj 284 143 inlet~;
#X obj 376 143 inlet~;
#X obj 400 471 outlet~;
#X obj 742 240 inlet params;
#X obj 742 286 print PARAM_NOTFOUND;
#X obj 742 262 tof/param route;
#X obj 739 414 tof/param gui;
#X obj 447 179 * 0.5;
#X obj 284 229 +~;
#X obj 381 223 -~;
#X obj 294 363 -~;
#X obj 395 369 +~;
#X obj 446 139 tof/param /width 0 /g slider 0 2;
#X obj 738 385 b;
#X msg 439 208 \$1 100;
#X obj 432 239 line~;
#X obj 383 272 *~;
#X obj 286 278 *~ 0.5;
#X connect 1 0 9 0;
#X connect 1 0 10 0;
#X connect 2 0 9 1;
#X connect 2 0 10 1;
#X connect 4 0 6 0;
#X connect 6 0 5 0;
#X connect 8 0 15 0;
#X connect 9 0 18 0;
#X connect 10 0 17 0;
#X connect 11 0 0 0;
#X connect 12 0 3 0;
#X connect 13 0 8 0;
#X connect 14 0 7 0;
#X connect 15 0 16 0;
#X connect 16 0 17 1;
#X connect 17 0 11 1;
#X connect 17 0 12 1;
#X connect 18 0 11 0;
#X connect 18 0 12 0;
