#N canvas 0 25 1272 692 10;
#X obj 499 -8 inlet params;
#X obj 499 38 print PARAM_NOTFOUND;
#X obj 499 14 tof/param route;
#X obj 492 69 b;
#X obj 493 98 tof/param gui;
#X obj 253 410 outlet~;
#X obj 208 267 lop~ 500;
#X obj 267 266 hip~ 500;
#X obj 128 266 lop~ 500;
#X obj 67 266 hip~ 500;
#X msg 289 205 \$1 20;
#X obj 288 225 line 0 2;
#X obj 269 144 + 30;
#X obj 268 119 * 60;
#X obj 297 306 delwrite~ \$0-del 50;
#X obj 436 264 + 1;
#X obj 436 221 expr pow($f1 \, 2);
#X obj 436 243 * 45;
#X obj 434 304 line~;
#X msg 437 285 \$1 20;
#X obj 435 347 vd~ \$0-del;
#X obj 67 152 inlet~;
#X obj 99 394 outlet~;
#X obj 145 150 inlet~;
#X obj 269 165 mtof;
#X obj 457 180 tof/param /width 0.2 /g slider 0 1;
#X obj 249 86 tof/param /rolloff 0.2 /g slider 0 1;
#X connect 0 0 2 0;
#X connect 2 0 1 0;
#X connect 3 0 4 0;
#X connect 6 0 5 0;
#X connect 7 0 14 0;
#X connect 8 0 22 0;
#X connect 9 0 22 0;
#X connect 10 0 11 0;
#X connect 11 0 9 1;
#X connect 11 0 8 1;
#X connect 11 0 6 1;
#X connect 11 0 7 1;
#X connect 12 0 24 0;
#X connect 13 0 12 0;
#X connect 15 0 19 0;
#X connect 16 0 17 0;
#X connect 17 0 15 0;
#X connect 18 0 20 0;
#X connect 19 0 18 0;
#X connect 20 0 5 0;
#X connect 21 0 8 0;
#X connect 21 0 9 0;
#X connect 23 0 6 0;
#X connect 23 0 7 0;
#X connect 24 0 10 0;
#X connect 25 0 16 0;
#X connect 26 0 13 0;
