#N canvas 0 25 1272 692 10;
#X obj 182 255 wrap~;
#X obj 182 277 -~ 0.5;
#X obj 182 233 -~;
#X obj 204 192 / 100;
#X obj 278 323 / 100;
#X obj 181 364 *~;
#X obj 386 260 wrap~;
#X obj 386 282 -~ 0.5;
#X obj 386 238 -~;
#X obj 408 197 / 100;
#X obj 481 330 / 100;
#X obj 385 369 *~;
#X obj 573 255 wrap~;
#X obj 573 277 -~ 0.5;
#X obj 573 233 -~;
#X obj 579 206 / 100;
#X obj 693 322 / 100;
#X obj 572 364 *~;
#X text 457 300 AMPLITUDES (percent);
#X obj 156 390 +~;
#X obj 157 416 +~;
#X obj 70 199 phasor~ 88.2;
#X obj 42 35 inlet frequency;
#X obj 133 627 outlet~;
#X obj 846 159 inlet params;
#X obj 846 205 print PARAM_NOTFOUND;
#X obj 846 181 tof/param route;
#X obj 842 304 b;
#X obj 843 333 tof/param gui;
#X obj 75 117 unpack f f;
#X obj 94 153 sig~;
#X obj 260 448 mtl/adsr~ /id adsr;
#X obj 188 555 *~;
#X obj 993 216 print;
#X obj 186 77 tof/param /phase-1 50 /g slider 0 100;
#X obj 253 98 tof/param /amp-1 0 /g slider 50 100;
#X obj 326 121 tof/param /phase-2 0 /g slider 50 100;
#X obj 440 148 tof/param /amp-2 0 /g slider 50 100;
#X obj 561 172 tof/param /phase-3 0 /g slider 50 100;
#X obj 669 239 tof/param /amp-3 50 /g slider 0 100;
#X connect 0 0 1 0;
#X connect 1 0 5 0;
#X connect 2 0 0 0;
#X connect 3 0 2 1;
#X connect 4 0 5 1;
#X connect 5 0 19 0;
#X connect 6 0 7 0;
#X connect 7 0 11 0;
#X connect 8 0 6 0;
#X connect 9 0 8 1;
#X connect 10 0 11 1;
#X connect 11 0 19 1;
#X connect 12 0 13 0;
#X connect 13 0 17 0;
#X connect 14 0 12 0;
#X connect 15 0 14 1;
#X connect 16 0 17 1;
#X connect 17 0 20 1;
#X connect 19 0 20 0;
#X connect 20 0 32 0;
#X connect 21 0 2 0;
#X connect 21 0 8 0;
#X connect 21 0 14 0;
#X connect 22 0 29 0;
#X connect 24 0 26 0;
#X connect 24 0 33 0;
#X connect 26 0 25 0;
#X connect 27 0 28 0;
#X connect 29 0 30 0;
#X connect 29 1 31 0;
#X connect 30 0 21 0;
#X connect 31 0 32 1;
#X connect 32 0 23 0;
#X connect 34 0 3 0;
#X connect 35 0 4 0;
#X connect 36 0 9 0;
#X connect 37 0 10 0;
#X connect 38 0 15 0;
#X connect 39 0 16 0;
