#N canvas 1 82 1272 661 10;
#X obj 144 466 outlet~;
#X obj 254 468 outlet~;
#X obj 145 432 tof/crossfade~ 2;
#X obj 1019 221 inlet params;
#X obj 1019 267 print PARAM_NOTFOUND;
#X obj 615 245 tof/param /wet 0 /g slider 0 1;
#X obj 615 299 line~;
#X msg 615 274 \$1 5;
#X obj 1019 243 tof/param route;
#X obj 1012 298 b;
#X obj 1013 327 tof/param gui;
#X obj 105 221 inlet~;
#X obj 162 220 inlet~;
#X obj 244 159 tof/param /amplitude 0 /g slider 0 1;
#X obj 276 197 tof/param /frequency 0 /g slider 1 30;
#X obj 307 233 tof/param /signalcontrol 0 /g slider 1 1.4;
#N canvas 0 50 1272 714 tremolo 0;
#X obj 56 153 inlet~;
#X obj 61 381 outlet~;
#X obj 81 337 *~;
#X obj 189 21 osc~;
#X obj 189 235 *~;
#X obj 190 191 /~ 2;
#X obj 189 165 +~ 1;
#X obj 189 283 +~;
#X obj 215 246 expr 1-$f1;
#X obj 189 102 *~;
#X obj 188 129 clip~ -1 1;
#X obj 227 63 * 25;
#X obj 227 82 + 1;
#X obj 227 43 - 1;
#X obj 371 6 inlet amplitude;
#X obj 482 4 inlet signalcontrol;
#X obj 189 0 inlet frequency;
#X connect 0 0 2 0;
#X connect 2 0 1 0;
#X connect 3 0 9 0;
#X connect 4 0 7 0;
#X connect 5 0 4 0;
#X connect 6 0 5 0;
#X connect 7 0 2 1;
#X connect 8 0 7 1;
#X connect 9 0 10 0;
#X connect 10 0 6 0;
#X connect 11 0 12 0;
#X connect 12 0 9 1;
#X connect 13 0 11 0;
#X connect 14 0 4 1;
#X connect 14 0 8 0;
#X connect 15 0 13 0;
#X connect 16 0 3 0;
#X restore 186 321 pd tremolo;
#N canvas 0 50 1272 714 tremolo 0;
#X obj 56 153 inlet~;
#X obj 61 381 outlet~;
#X obj 81 337 *~;
#X obj 189 21 osc~;
#X obj 189 235 *~;
#X obj 190 191 /~ 2;
#X obj 189 165 +~ 1;
#X obj 189 283 +~;
#X obj 215 246 expr 1-$f1;
#X obj 189 102 *~;
#X obj 188 129 clip~ -1 1;
#X obj 227 63 * 25;
#X obj 227 82 + 1;
#X obj 227 43 - 1;
#X obj 371 6 inlet amplitude;
#X obj 482 4 inlet signalcontrol;
#X obj 189 0 inlet frequency;
#X connect 0 0 2 0;
#X connect 2 0 1 0;
#X connect 3 0 9 0;
#X connect 4 0 7 0;
#X connect 5 0 4 0;
#X connect 6 0 5 0;
#X connect 7 0 2 1;
#X connect 8 0 7 1;
#X connect 9 0 10 0;
#X connect 10 0 6 0;
#X connect 11 0 12 0;
#X connect 12 0 9 1;
#X connect 13 0 11 0;
#X connect 14 0 4 1;
#X connect 14 0 8 0;
#X connect 15 0 13 0;
#X connect 16 0 3 0;
#X restore 268 321 pd tremolo;
#X obj 615 217 tof/argument 3;
#X obj 615 192 loadbang;
#X obj 310 123 tof/argument 6;
#X obj 279 104 tof/argument 5;
#X obj 244 83 tof/argument 4;
#X obj 277 52 loadbang;
#X connect 2 0 0 0;
#X connect 2 1 1 0;
#X connect 3 0 8 0;
#X connect 5 0 7 0;
#X connect 6 0 2 4;
#X connect 7 0 6 0;
#X connect 8 0 4 0;
#X connect 9 0 10 0;
#X connect 11 0 16 0;
#X connect 11 0 2 0;
#X connect 12 0 2 1;
#X connect 12 0 17 0;
#X connect 13 0 16 1;
#X connect 13 0 17 1;
#X connect 14 0 16 2;
#X connect 14 0 17 2;
#X connect 15 0 16 3;
#X connect 15 0 17 3;
#X connect 16 0 2 2;
#X connect 17 0 2 3;
#X connect 18 0 5 0;
#X connect 19 0 18 0;
#X connect 20 0 15 0;
#X connect 21 0 14 0;
#X connect 22 0 13 0;
#X connect 23 0 20 0;
#X connect 23 0 21 0;
#X connect 23 0 22 0;
