#N canvas 612 199 1272 685 10;
#X obj 159 308 outlet~;
#X obj 208 308 outlet~;
#X obj 159 282 tof/crossfade~ 2;
#X obj 571 16 inlet params;
#X obj 571 62 print PARAM_NOTFOUND;
#X obj 326 206 tof/param /wet 0 /g slider 0 1;
#X obj 326 251 line~;
#X msg 326 230 \$1 5;
#X obj 571 38 tof/param route;
#X obj 571 91 b;
#X obj 572 120 tof/param gui;
#X obj 119 71 inlet~;
#X obj 165 71 inlet~;
#X obj 288 47 tof/param /frequency 0 /g slider 0.5 25;
#N canvas 530 365 1272 714 tremolo 0;
#X obj 251 90 osc~;
#X obj 252 156 *~;
#X obj 252 207 clip~ -1 1;
#X obj 144 316 *~;
#X obj 309 132 hsl 128 15 1 20 1 0 empty empty empty -2 -8 0 10 -262144
-1 -1 0 1;
#X obj 254 62 hsl 128 15 0.5 25 0 0 empty empty empty -2 -8 0 10 -262144
-1 -1 0 1;
#X text 302 91 <-- Sine wave (between -1 and 1);
#X text 291 156 <-- Multipled by a positive number X;
#X text 313 170 (between -X and X);
#X text 323 207 <-- Trim at -1 and 1;
#X text 346 235 a square wave as X increases);
#X text 346 221 (the sine wave tends to become;
#X text 392 306 <-- Normalize between 0 and 1;
#X text 250 47 Frequency of the oscillator;
#X text 304 117 Number X (between 1 and 20 \, log);
#X obj 252 290 *~;
#X obj 252 319 +~;
#X obj 332 273 hsl 128 15 0 0.5 0 0 empty empty empty -2 -8 0 10 -262144
-1 -1 0 1;
#X obj 315 319 expr 1-$f1;
#X floatatom 315 341 5 0 0 0 - - -;
#X text 415 318 and adjust depth;
#X text 418 47 ("Rate");
#X text 326 256 "Depth";
#X obj 129 372 outlet~;
#X obj 143 63 inlet~;
#X obj 267 8 inlet shape;
#X obj 371 5 inlet frequency;
#X obj 538 51 loadbang;
#X msg 537 75 0.5;
#X connect 0 0 1 0;
#X connect 1 0 2 0;
#X connect 2 0 15 0;
#X connect 3 0 23 0;
#X connect 4 0 1 1;
#X connect 5 0 0 0;
#X connect 15 0 16 0;
#X connect 16 0 3 1;
#X connect 17 0 15 1;
#X connect 17 0 18 0;
#X connect 18 0 16 1;
#X connect 18 0 19 0;
#X connect 24 0 3 0;
#X connect 25 0 1 1;
#X connect 26 0 0 0;
#X connect 27 0 28 0;
#X connect 28 0 18 0;
#X connect 28 0 15 1;
#X restore 276 170 pd tremolo;
#X obj 233 66 hsl 128 15 1 20 1 0 empty empty empty -2 -8 0 10 -262144
-1 -1 0 1;
#X obj 230 44 - 1;
#X obj 230 19 tof/param /shape 0 /g slider 2 21;
#N canvas 530 365 1272 714 tremolo 0;
#X obj 251 90 osc~;
#X obj 252 156 *~;
#X obj 252 207 clip~ -1 1;
#X obj 144 316 *~;
#X obj 309 132 hsl 128 15 1 20 1 0 empty empty empty -2 -8 0 10 -262144
-1 -1 0 1;
#X obj 254 62 hsl 128 15 0.5 25 0 0 empty empty empty -2 -8 0 10 -262144
-1 -1 0 1;
#X text 302 91 <-- Sine wave (between -1 and 1);
#X text 291 156 <-- Multipled by a positive number X;
#X text 313 170 (between -X and X);
#X text 323 207 <-- Trim at -1 and 1;
#X text 346 235 a square wave as X increases);
#X text 346 221 (the sine wave tends to become;
#X text 392 306 <-- Normalize between 0 and 1;
#X text 250 47 Frequency of the oscillator;
#X text 304 117 Number X (between 1 and 20 \, log);
#X obj 252 290 *~;
#X obj 252 319 +~;
#X obj 332 273 hsl 128 15 0 0.5 0 0 empty empty empty -2 -8 0 10 -262144
-1 -1 0 1;
#X obj 315 319 expr 1-$f1;
#X floatatom 315 341 5 0 0 0 - - -;
#X text 415 318 and adjust depth;
#X text 418 47 ("Rate");
#X text 326 256 "Depth";
#X obj 129 372 outlet~;
#X obj 143 63 inlet~;
#X obj 267 8 inlet shape;
#X obj 371 5 inlet frequency;
#X obj 538 51 loadbang;
#X msg 537 75 0.5;
#X connect 0 0 1 0;
#X connect 1 0 2 0;
#X connect 2 0 15 0;
#X connect 3 0 23 0;
#X connect 4 0 1 1;
#X connect 5 0 0 0;
#X connect 15 0 16 0;
#X connect 16 0 3 1;
#X connect 17 0 15 1;
#X connect 17 0 18 0;
#X connect 18 0 16 1;
#X connect 18 0 19 0;
#X connect 24 0 3 0;
#X connect 25 0 1 1;
#X connect 26 0 0 0;
#X connect 27 0 28 0;
#X connect 28 0 18 0;
#X connect 28 0 15 1;
#X restore 199 171 pd tremolo;
#X connect 2 0 0 0;
#X connect 2 1 1 0;
#X connect 3 0 8 0;
#X connect 5 0 7 0;
#X connect 6 0 2 4;
#X connect 7 0 6 0;
#X connect 8 0 4 0;
#X connect 9 0 10 0;
#X connect 11 0 2 0;
#X connect 11 0 18 0;
#X connect 12 0 2 1;
#X connect 12 0 14 0;
#X connect 13 0 14 2;
#X connect 13 0 18 2;
#X connect 14 0 2 3;
#X connect 15 0 14 1;
#X connect 15 0 18 1;
#X connect 16 0 15 0;
#X connect 17 0 16 0;
#X connect 18 0 2 2;
