#N canvas 406 288 615 344 10;
#X obj 71 183 mtl/out~;
#X obj 74 13 cnv 15 200 40 empty empty empty 20 12 0 14 -232576 -66577
0;
#X text 134 14 PARAM ENABLED;
#X text 237 156 <-Click on the propeties menu to display params;
#X text 72 73 tags: fx~;
#X obj 73 36 tof/open_help tof/param;
#X text 128 129 .;
#X obj 72 128 osc~ 250;
#X obj 71 157 mtl/tremolo2~ /id tremolo2;
#X obj 321 179 cnv 15 200 20 empty empty /tremolo2/ 2 12 0 8 -258401
-262144 0;
#X obj 321 202 hsl 100 15 0 1 0 0 /tremolo2/wet /tremolo2/wet_ wet
105 7 0 8 -262144 -1 -1 9900 1;
#X obj 321 220 hsl 100 15 0 20 0 0 /tremolo2/shape /tremolo2/shape_
shape 105 7 0 8 -262144 -1 -1 8300 1;
#X obj 321 238 hsl 100 15 0.5 25 0 0 /tremolo2/frequency /tremolo2/frequency_
frequency 105 7 0 8 -262144 -1 -1 4300 1;
#X obj 321 256 hsl 100 15 0 0.5 0 0 /tremolo2/depth /tremolo2/depth_
depth 105 7 0 8 -262144 -1 -1 9900 1;
#X text 72 56 Description: tremolo2;
#X text 72 89 Pierre Massat (http://guitarextended.wordpress.com/)
;
#X connect 7 0 8 0;
#X connect 7 0 8 1;
#X connect 8 0 0 0;
#X connect 8 1 0 1;
