#N canvas 1 82 1272 661 10;
#X obj 125 315 mtl/out~;
#X text 446 73 tags: fx~;
#X text 390 283 <-Click on the propeties menu to display params;
#X obj 440 110 cnv 15 200 20 empty empty /ugurphase/ 2 12 0 8 -258401
-262144 0;
#X obj 443 137 hsl 100 15 0 1 0 0 /ugurphase/wet /ugurphase/wet_ wet
105 7 0 8 -262144 -1 -1 9900 1;
#X obj 129 191 tgl 15 0 empty empty empty 17 7 0 10 -262144 -1 -1 0
1;
#N canvas 5 185 450 300 generate~ 0;
#X obj 32 213 osc~ 200;
#X obj 32 89 metro 400;
#X obj 32 175 mtof;
#X obj 104 195 mtof;
#X obj 32 132 + 20;
#X obj 32 111 random 70;
#X floatatom 83 69 5 0 0 0 - - -, f 5;
#X obj 32 261 outlet~;
#X obj 103 261 outlet~;
#X obj 30 14 inlet;
#X obj 104 175 mtl/closestNote 0 2 4 7 9;
#X obj 104 234 *~;
#X obj 31 234 *~;
#X obj 104 214 osc~ 100;
#X obj 32 155 mtl/closestNote 0 2 4 7 9;
#X connect 0 0 12 0;
#X connect 1 0 5 0;
#X connect 2 0 0 0;
#X connect 3 0 13 0;
#X connect 4 0 10 0;
#X connect 4 0 14 0;
#X connect 5 0 4 0;
#X connect 6 0 1 1;
#X connect 9 0 1 0;
#X connect 9 0 11 1;
#X connect 9 0 12 1;
#X connect 10 0 3 0;
#X connect 11 0 8 0;
#X connect 12 0 7 0;
#X connect 13 0 11 0;
#X connect 14 0 2 0;
#X restore 129 216 pd generate~;
#X text 525 41 guassian phase distortion algorithm;
#X text 451 55 by ugur guney;
#X text 433 41 Description:;
#X obj 443 156 hsl 100 15 0 1 0 0 /ugurphase/squeeze /ugurphase/squeeze_
squeeze 105 7 0 8 -262144 -1 -1 9900 1;
#X obj 443 175 hsl 100 15 0 1 0 0 /ugurphase/height /ugurphase/height_
height 105 7 0 8 -262144 -1 -1 9900 1;
#X obj 443 194 hsl 100 15 0 1 0 0 /ugurphase/width /ugurphase/width_
width 105 7 0 8 -262144 -1 -1 9900 1;
#X obj 124 284 mtl/ugurphase~ /id ugurphase 1 1 1 1;
#X connect 5 0 6 0;
#X connect 6 0 13 0;
#X connect 6 1 13 1;
#X connect 13 0 0 0;
#X connect 13 1 0 1;
