#N canvas 1 82 1272 661 10;
#X obj 96 471 outlet~;
#X obj 57 218 inlet~;
#X obj 996 37 inlet params;
#X obj 996 83 print PARAM_NOTFOUND;
#X obj 996 59 tof/param route;
#X obj 974 183 b;
#X obj 975 212 tof/param gui;
#X obj 158 215 inlet~;
#X obj 215 472 outlet~;
#X obj 274 220 tof/param /level 0 /g slider 0 1;
#X obj 286 250 tof/param /distorsion 0 /g slider 0 1;
#X obj 120 343 sigpack/valverect~;
#X obj 211 377 sigpack/valverect~;
#X obj 314 166 tof/argument 4;
#X obj 285 145 tof/argument 3;
#X obj 285 118 loadbang;
#X connect 1 0 11 0;
#X connect 2 0 4 0;
#X connect 4 0 3 0;
#X connect 5 0 6 0;
#X connect 7 0 12 0;
#X connect 9 0 11 1;
#X connect 9 0 12 1;
#X connect 10 0 11 2;
#X connect 10 0 12 2;
#X connect 11 0 0 0;
#X connect 12 0 8 0;
#X connect 13 0 10 0;
#X connect 14 0 9 0;
#X connect 15 0 13 0;
#X connect 15 0 14 0;
