#N canvas 1 82 1364 661 10;
#X obj 62 253 pix_halftone;
#X msg 172 97 style \$1;
#X obj 62 330 outlet;
#X obj 41 83 inlet;
#X obj 808 118 inlet params;
#X obj 808 164 print PARAM_NOTFOUND;
#X obj 808 140 tof/param route;
#X obj 804 263 b;
#X obj 805 292 tof/param gui;
#X obj 955 175 print;
#X obj 128 -5 tof/param /size 3 /g nbx 0 100;
#X obj 137 15 tof/param /angle 0 /g nbx -360 360;
#X obj 162 39 tof/param /smooth 0 /g nbx 0 100;
#X obj 177 61 tof/param /style 0 /g tgl 0 4;
#X connect 0 0 2 0;
#X connect 1 0 0 0;
#X connect 3 0 0 0;
#X connect 4 0 6 0;
#X connect 4 0 9 0;
#X connect 6 0 5 0;
#X connect 7 0 8 0;
#X connect 10 0 0 1;
#X connect 11 0 0 2;
#X connect 12 0 0 3;
#X connect 13 0 1 0;
#X coords 0 661 1 660 150 50 0;
