#N canvas 1 82 1351 661 10;
#X obj 104 443 pix_halftone;
#X msg 216 369 style \$1;
#X obj 104 465 outlet;
#X obj 85 355 inlet;
#X obj 827 228 inlet params;
#X obj 827 274 print PARAM_NOTFOUND;
#X obj 827 250 tof/param route;
#X obj 829 300 b;
#X obj 829 322 tof/param gui;
#X obj 172 267 tof/param /size 3 /g nbx 0 100;
#X obj 185 291 tof/param /angle 0 /g nbx -360 360;
#X obj 210 315 tof/param /smooth 0 /g nbx 0 100;
#X obj 232 342 tof/param /style 0 /g tgl 0 4;
#X obj 178 138 tof/argument 3;
#X obj 207 161 tof/argument 4;
#X obj 237 188 tof/argument 5;
#X obj 273 213 tof/argument 6;
#X obj 209 111 loadbang;
#X connect 0 0 2 0;
#X connect 1 0 0 0;
#X connect 3 0 0 0;
#X connect 4 0 6 0;
#X connect 6 0 5 0;
#X connect 7 0 8 0;
#X connect 9 0 0 1;
#X connect 10 0 0 2;
#X connect 11 0 0 3;
#X connect 12 0 1 0;
#X connect 13 0 9 0;
#X connect 14 0 10 0;
#X connect 15 0 11 0;
#X connect 16 0 12 0;
#X connect 17 0 13 0;
#X connect 17 0 14 0;
#X connect 17 0 15 0;
#X connect 17 0 16 0;
#X coords 0 661 1 660 150 50 0;
