#N canvas 1 82 1364 661 10;
#X obj 101 221 cnv 12 75 12 empty \$0-cnv-hours SLEEP 20 6 0 10 -24198
-33289 0;
#X obj 104 205 nbx 2 12 0 24 0 0 empty empty empty 0 -8 0 10 -1 -262144
-1 0 256;
#X obj 145 205 nbx 2 12 0 60 0 0 empty empty empty 0 -8 0 10 -1 -262144
-1 0 256;
#N canvas 1 79 450 300 x100 0;
#X obj 194 213 * 100;
#X obj 194 241 +;
#X obj 230 212 t b f;
#X obj 192 265 outlet;
#X obj 203 190 inlet;
#X obj 240 193 inlet;
#X connect 0 0 1 0;
#X connect 1 0 3 0;
#X connect 2 0 1 0;
#X connect 2 1 1 1;
#X connect 4 0 0 0;
#X connect 5 0 2 0;
#X restore 96 316 pd x100;
#N canvas 1 79 450 300 x100 0;
#X obj 194 213 * 100;
#X obj 194 241 +;
#X obj 230 212 t b f;
#X obj 192 265 outlet;
#X obj 203 190 inlet;
#X obj 240 193 inlet;
#X connect 0 0 1 0;
#X connect 1 0 3 0;
#X connect 2 0 1 0;
#X connect 2 1 1 1;
#X connect 4 0 0 0;
#X connect 5 0 2 0;
#X restore 256 318 pd x100;
#X obj 81 390 tgl 15 0 empty empty empty 17 7 0 10 -262144 -1 -1 0
1;
#N canvas 1 85 450 300 /100 0;
#X obj 240 138 / 100;
#X obj 240 158 int;
#X obj 213 116 t f f;
#X obj 240 178 * 100;
#X obj 213 195 -;
#X obj 213 221 outlet;
#X obj 138 208 outlet;
#X obj 213 88 inlet;
#X connect 0 0 1 0;
#X connect 1 0 3 0;
#X connect 1 0 6 0;
#X connect 2 0 4 0;
#X connect 2 1 0 0;
#X connect 3 0 4 1;
#X connect 4 0 5 0;
#X connect 7 0 2 0;
#X restore 128 177 pd /100;
#X text 132 200 :;
#X obj 97 67 inlet;
#X obj 81 592 outlet;
#X obj 214 437 pack f f f;
#X obj 214 459 l2s :;
#X obj 214 480 outlet;
#X text 208 496 symbol : current time;
#X obj 256 286 zexy/time;
#X obj 81 369 ==;
#X msg 439 253 color 16 12 12 \, label SLEEP;
#X text 93 47 list : clock;
#X text 68 23 wake up: set wake up hours;
#X text 77 611 toggle : wake up (1) \, sleep (0);
#X msg 150 563 color 10 12 12 \, label WAKE-UP;
#X obj 1001 67 inlet params;
#X obj 1001 113 print PARAM_NOTFOUND;
#X obj 1001 89 tof/param route;
#X obj 997 212 b;
#X obj 998 241 tof/param gui;
#X msg 414 277 color 2 2 2 \, label SLEEP;
#X obj 413 208 route 0 1;
#X obj 154 533 sel 1;
#X obj 318 132 tof/param /on 0 /g tgl;
#X obj 453 346 s \$0-cnv-hours;
#X obj 152 589 s \$0-cnv-hours;
#X obj 195 49 tof/param /hour 0 /g nbx;
#X obj 248 74 tof/param /min 0 /g nbx;
#X obj 205 105 * 100;
#X obj 222 158 +;
#X obj 245 114 t b f;
#X obj 256 262 metro 1000;
#X obj 80 488 f;
#X connect 1 0 3 0;
#X connect 2 0 3 1;
#X connect 3 0 15 1;
#X connect 4 0 15 0;
#X connect 5 0 28 0;
#X connect 5 0 38 0;
#X connect 6 0 1 0;
#X connect 6 1 2 0;
#X connect 8 0 6 0;
#X connect 10 0 11 0;
#X connect 11 0 12 0;
#X connect 14 0 4 0;
#X connect 14 0 10 0;
#X connect 14 1 4 1;
#X connect 14 1 10 1;
#X connect 14 2 10 2;
#X connect 15 0 5 0;
#X connect 16 0 30 0;
#X connect 20 0 31 0;
#X connect 21 0 23 0;
#X connect 23 0 22 0;
#X connect 24 0 25 0;
#X connect 26 0 30 0;
#X connect 27 0 26 0;
#X connect 27 1 16 0;
#X connect 28 0 20 0;
#X connect 29 0 37 0;
#X connect 29 0 27 0;
#X connect 32 0 34 0;
#X connect 33 0 36 0;
#X connect 34 0 35 0;
#X connect 35 0 6 0;
#X connect 36 0 35 0;
#X connect 36 1 35 1;
#X connect 37 0 14 0;
#X connect 38 0 9 0;
#X coords 0 -1 1 1 76 40 2 100 200;
