#N canvas 0 0 1272 714 10;
#X obj 210 81 inlet~;
#X obj 243 415 outlet~;
#X obj 338 391 outlet~;
#X obj 306 84 inlet~;
#X obj 610 56 inlet params;
#X obj 375 290 tof/param /wet 0 /g slider 0 1;
#X obj 610 102 print PARAM_NOTFOUND;
#X obj 244 364 tof/crossfade~ 2;
#X msg 375 313 \$1 5;
#X obj 375 337 line~;
#X obj 610 78 tof/param route;
#X obj 565 176 tof/param gui;
#N canvas 153 112 944 688 waveshaper 0;
#X obj 90 46 inlet~ signal;
#X obj 190 443 outlet~;
#X obj 239 243 abs~;
#X obj 161 269 *~ -2;
#X obj 163 295 +~ 1;
#X obj 184 334 *~;
#X obj 238 212 *~ 0.6;
#X obj 236 317 cos~;
#X obj 238 270 /~ 3.14;
#X obj 238 289 +~ 0.25;
#N canvas 0 22 466 316 rh_scalelog 0;
#X obj 20 155 exp;
#X obj 20 107 *;
#X obj 20 130 +;
#X obj 98 87 log;
#X obj 194 84 log;
#X obj 123 123 t b f;
#X obj 123 145 -;
#X obj 20 183 outlet;
#X obj 20 19 inlet;
#X obj 98 23 inlet;
#X obj 194 24 inlet;
#X connect 0 0 7 0;
#X connect 1 0 2 0;
#X connect 2 0 0 0;
#X connect 3 0 2 1;
#X connect 3 0 5 0;
#X connect 4 0 6 0;
#X connect 5 0 6 0;
#X connect 5 1 6 1;
#X connect 6 0 1 1;
#X connect 8 0 1 0;
#X connect 9 0 3 0;
#X connect 10 0 4 0;
#X restore 289 164 pd rh_scalelog;
#X msg 337 140 0.1;
#X obj 188 365 *~ 0.2;
#X msg 382 140 5;
#X obj 143 233 expr~ $v1>0;
#X obj 286 89 inlet;
#X obj 337 114 loadbang;
#X connect 0 0 6 0;
#X connect 0 0 14 0;
#X connect 2 0 8 0;
#X connect 3 0 4 0;
#X connect 4 0 5 0;
#X connect 5 0 12 0;
#X connect 6 0 2 0;
#X connect 7 0 5 1;
#X connect 8 0 9 0;
#X connect 9 0 7 0;
#X connect 10 0 6 1;
#X connect 11 0 10 1;
#X connect 12 0 1 0;
#X connect 13 0 10 2;
#X connect 14 0 3 0;
#X connect 15 0 10 0;
#X connect 16 0 11 0;
#X connect 16 0 13 0;
#X restore 280 203 pd waveshaper;
#X obj 564 147 b;
#X obj 379 91 tof/param /strength 0 /g slider 0 1;
#N canvas 153 112 944 688 waveshaper 0;
#X obj 90 46 inlet~ signal;
#X obj 190 443 outlet~;
#X obj 239 243 abs~;
#X obj 161 269 *~ -2;
#X obj 163 295 +~ 1;
#X obj 184 334 *~;
#X obj 238 212 *~ 0.6;
#X obj 236 317 cos~;
#X obj 238 270 /~ 3.14;
#X obj 238 289 +~ 0.25;
#N canvas 0 22 466 316 rh_scalelog 0;
#X obj 20 155 exp;
#X obj 20 107 *;
#X obj 20 130 +;
#X obj 98 87 log;
#X obj 194 84 log;
#X obj 123 123 t b f;
#X obj 123 145 -;
#X obj 20 183 outlet;
#X obj 20 19 inlet;
#X obj 98 23 inlet;
#X obj 194 24 inlet;
#X connect 0 0 7 0;
#X connect 1 0 2 0;
#X connect 2 0 0 0;
#X connect 3 0 2 1;
#X connect 3 0 5 0;
#X connect 4 0 6 0;
#X connect 5 0 6 0;
#X connect 5 1 6 1;
#X connect 6 0 1 1;
#X connect 8 0 1 0;
#X connect 9 0 3 0;
#X connect 10 0 4 0;
#X restore 289 164 pd rh_scalelog;
#X msg 337 140 0.1;
#X obj 188 365 *~ 0.2;
#X msg 382 140 5;
#X obj 143 233 expr~ $v1>0;
#X obj 286 89 inlet;
#X obj 337 114 loadbang;
#X connect 0 0 6 0;
#X connect 0 0 14 0;
#X connect 2 0 8 0;
#X connect 3 0 4 0;
#X connect 4 0 5 0;
#X connect 5 0 12 0;
#X connect 6 0 2 0;
#X connect 7 0 5 1;
#X connect 8 0 9 0;
#X connect 9 0 7 0;
#X connect 10 0 6 1;
#X connect 11 0 10 1;
#X connect 12 0 1 0;
#X connect 13 0 10 2;
#X connect 14 0 3 0;
#X connect 15 0 10 0;
#X connect 16 0 11 0;
#X connect 16 0 13 0;
#X restore 394 205 pd waveshaper;
#X connect 0 0 7 0;
#X connect 0 0 12 0;
#X connect 3 0 7 1;
#X connect 3 0 15 0;
#X connect 4 0 10 0;
#X connect 5 0 8 0;
#X connect 7 0 1 0;
#X connect 7 1 2 0;
#X connect 8 0 9 0;
#X connect 9 0 7 4;
#X connect 10 0 6 0;
#X connect 12 0 7 2;
#X connect 13 0 11 0;
#X connect 14 0 12 1;
#X connect 14 0 15 1;
#X connect 15 0 7 3;
