#N canvas 1 82 1272 661 10;
#X obj 50 109 *~ 0.5;
#X obj 134 110 *~ 0.5;
#X obj 51 179 mtl/out~;
#X obj 51 85 osc~ 110;
#X obj 134 85 osc~ 110;
#X obj 24 233 cyclone/Scope~ 130 130 256 3 128 -1 1 0 0 0 0 102 255
51 135 135 135 0;
#X obj 215 233 cyclone/Scope~ 130 130 256 3 128 -1 1 0 0 0 0 102 255
51 135 135 135 0;
#X text 712 140 tags: fx~;
#X obj 310 59 cnv 15 200 40 empty empty empty 20 12 0 14 -232576 -66577
0;
#X text 370 60 PARAM ENABLED;
#X obj 377 213 cnv 15 200 20 empty empty /wavedistort/ 2 12 0 8 -258401
-262144 0;
#X obj 377 236 hsl 100 15 0 1 0 0 /wavedistort/wet /wavedistort/wet_
wet 105 7 0 8 -262144 -1 -1 0 1;
#X obj 377 255 hsl 100 15 0 1 0 0 /wavedistort/strength /wavedistort/strength_
strength 105 7 0 8 -262144 -1 -1 0 1;
#X obj 345 79 tof/open_help tof/param;
#X text 711 110 Description: wave distort;
#X obj 50 147 mtl/wavedistort~ /id wavedistort;
#X text 711 125 Author: Unknown;
#X connect 0 0 5 0;
#X connect 0 0 15 0;
#X connect 1 0 15 1;
#X connect 3 0 0 0;
#X connect 4 0 1 0;
#X connect 15 0 2 0;
#X connect 15 1 2 1;
#X connect 15 1 6 0;
