#N canvas 0 25 1016 659 10;
#X obj 65 -60 tof/param /porte1 0 /g tgl;
#X obj 175 -17 tof/param /porte2 0 /g tgl;
#X obj 47 -82 inlet porte1;
#X obj 139 -82 inlet porte2;
#X obj 82 326 outlet xor;
#X obj -64 -131 cnv 15 140 25 empty empty OU_EXCLUSIF_(XOR) 4 12 0
14 -1 -262144 0;
#X obj 91 223 atl/or \$0-or;
#X obj 612 176 inlet params;
#X obj 612 222 print PARAM_NOTFOUND;
#X obj 612 198 tof/param route;
#X obj 605 253 b;
#X obj 606 282 tof/param gui;
#X obj 15 196 atl/and \$0-nand1;
#X obj 155 192 atl/and \$0-nand2;
#X obj 116 126 atl/not /id \$0-not2;
#X obj 62 155 atl/not /id \$0-not;
#X connect 0 0 12 0;
#X connect 0 0 14 0;
#X connect 1 0 13 1;
#X connect 1 0 15 0;
#X connect 2 0 12 0;
#X connect 2 0 14 0;
#X connect 3 0 13 1;
#X connect 3 0 15 0;
#X connect 6 0 4 0;
#X connect 7 0 9 0;
#X connect 9 0 8 0;
#X connect 10 0 11 0;
#X connect 12 0 6 0;
#X connect 13 0 6 1;
#X connect 14 0 13 0;
#X connect 15 0 12 1;
