#N canvas 0 98 1920 982 10;
#X obj 1434 30 inlet params;
#X obj 1434 76 print PARAM_NOTFOUND;
#X obj 1434 52 tof/param route;
#X obj 1434 101 b;
#X obj 1434 125 tof/param gui;
#X obj 1218 52 loadbang;
#X obj 249 100 inlet~;
#X obj 121 100 inlet~;
#X obj 297 902 outlet~;
#X obj 387 899 outlet~;
#X obj 294 865 tof/crossfade~ 2;
#X msg 998 794 \$1 5;
#X obj 998 816 line~;
#X obj 998 724 loadbang;
#X obj 999 770 tof/param /wet 0 /g slider 0 1;
#X obj 1248 198 tof/param /boost 0.1 /g slider 0.1 10;
#X obj 1280 222 tof/param /range 0.1 /g slider 0.1 10;
#X obj 362 735 *~ -1;
#X msg 455 607 1;
#X obj 363 647 +~ 6;
#X obj 362 757 *~;
#X obj 362 779 hip~ 5;
#X obj 362 706 hip~ 28.94;
#N canvas 0 98 566 300 spigot~ 0;
#X obj 63 24 inlet~;
#X obj 95 75 == 0;
#X obj 174 75 == 1;
#X obj 64 174 *~;
#X obj 180 166 *~;
#X obj 179 246 outlet~;
#X obj 63 244 outlet~;
#X obj 233 23 inlet;
#X obj 250 166 *~;
#X obj 249 246 outlet~;
#X obj 244 75 == 2;
#X connect 0 0 3 0;
#X connect 0 0 4 0;
#X connect 0 0 8 0;
#X connect 1 0 3 1;
#X connect 2 0 4 1;
#X connect 3 0 6 0;
#X connect 4 0 5 0;
#X connect 7 0 1 0;
#X connect 7 0 2 0;
#X connect 7 0 10 0;
#X connect 8 0 9 0;
#X connect 10 0 8 1;
#X restore 367 432 pd spigot~;
#X obj 366 293 hip~;
#X obj 402 293 abs;
#X obj 367 395 +~;
#X obj 559 292 hip~;
#X obj 596 291 + 1;
#X obj 558 337 lop~;
#X floatatom 595 361 5 0 0 0 - - -, f 5;
#X obj 595 337 + 4000;
#X obj 363 625 *~ 30;
#X obj 418 554 loadbang;
#X obj 367 366 *~;
#X obj 508 365 *~;
#X obj 400 367 abs;
#X obj 434 367 - 1;
#X obj 625 290 * 400;
#X obj 558 359 *~ 4;
#X obj 366 315 hip~ 20;
#X obj 652 338 * -3800;
#X obj 480 292 * -790;
#X obj 431 292 + 900;
#X obj 362 677 clip~;
#X obj 368 229 +~;
#X obj 366 557 +~;
#X obj 366 473 hip~ 2100;
#X obj 444 473 lop~ 200;
#X msg 417 606 10;
#X obj 366 269 lop~ 2000;
#X obj 408 519 *~ 2;
#X obj 456 519 *~ 8;
#X obj 366 519 *~ 4;
#X obj 596 472 lop~ 100;
#X obj 522 472 hip~ 500;
#X msg 492 609 6.3;
#X obj 418 581 t b b b;
#X obj 763 741 *~ -1;
#X msg 856 613 1;
#X obj 764 653 +~ 6;
#X obj 763 763 *~;
#X obj 763 785 hip~ 5;
#X obj 763 712 hip~ 28.94;
#N canvas 0 50 566 300 spigot~ 0;
#X obj 63 24 inlet~;
#X obj 95 75 == 0;
#X obj 174 75 == 1;
#X obj 64 174 *~;
#X obj 180 166 *~;
#X obj 179 246 outlet~;
#X obj 63 244 outlet~;
#X obj 233 23 inlet;
#X obj 250 166 *~;
#X obj 249 246 outlet~;
#X obj 244 75 == 2;
#X connect 0 0 3 0;
#X connect 0 0 4 0;
#X connect 0 0 8 0;
#X connect 1 0 3 1;
#X connect 2 0 4 1;
#X connect 3 0 6 0;
#X connect 4 0 5 0;
#X connect 7 0 1 0;
#X connect 7 0 2 0;
#X connect 7 0 10 0;
#X connect 8 0 9 0;
#X connect 10 0 8 1;
#X restore 768 438 pd spigot~;
#X obj 767 299 hip~;
#X obj 803 299 abs;
#X obj 768 401 +~;
#X obj 960 298 hip~;
#X obj 997 297 + 1;
#X obj 959 343 lop~;
#X floatatom 996 367 5 0 0 0 - - -, f 5;
#X obj 996 343 + 4000;
#X obj 764 631 *~ 30;
#X obj 819 560 loadbang;
#X obj 768 372 *~;
#X obj 909 371 *~;
#X obj 801 373 abs;
#X obj 835 373 - 1;
#X obj 1026 296 * 400;
#X obj 959 365 *~ 4;
#X obj 767 321 hip~ 20;
#X obj 1053 344 * -3800;
#X obj 881 298 * -790;
#X obj 832 298 + 900;
#X obj 763 683 clip~;
#X obj 769 235 +~;
#X obj 767 563 +~;
#X obj 767 479 hip~ 2100;
#X obj 845 479 lop~ 200;
#X msg 818 612 10;
#X obj 767 275 lop~ 2000;
#X obj 809 525 *~ 2;
#X obj 857 525 *~ 8;
#X obj 767 525 *~ 4;
#X obj 997 478 lop~ 100;
#X obj 923 478 hip~ 500;
#X msg 893 615 6.3;
#X obj 819 587 t b b b;
#X obj 1302 256 tof/param /choice 1 /g radio;
#X obj 1205 76 tof/argument 3;
#X obj 1236 99 tof/argument 4;
#X obj 1264 121 tof/argument 5;
#X obj 998 748 tof/argument 6;
#X connect 0 0 2 0;
#X connect 2 0 1 0;
#X connect 3 0 4 0;
#X connect 5 0 100 0;
#X connect 5 0 101 0;
#X connect 5 0 102 0;
#X connect 6 0 10 1;
#X connect 6 0 86 0;
#X connect 7 0 10 0;
#X connect 7 0 45 0;
#X connect 10 0 8 0;
#X connect 10 1 9 0;
#X connect 11 0 12 0;
#X connect 12 0 10 4;
#X connect 13 0 103 0;
#X connect 14 0 11 0;
#X connect 15 0 20 1;
#X connect 15 0 61 1;
#X connect 16 0 41 0;
#X connect 16 0 38 0;
#X connect 16 0 35 1;
#X connect 16 0 37 0;
#X connect 16 0 78 0;
#X connect 16 0 76 1;
#X connect 16 0 79 0;
#X connect 16 0 82 0;
#X connect 17 0 20 0;
#X connect 18 0 44 1;
#X connect 19 0 44 0;
#X connect 20 0 21 0;
#X connect 21 0 10 2;
#X connect 22 0 17 0;
#X connect 23 0 47 0;
#X connect 23 0 48 0;
#X connect 23 1 54 0;
#X connect 23 1 55 0;
#X connect 23 2 52 0;
#X connect 24 0 40 0;
#X connect 25 0 24 1;
#X connect 26 0 23 0;
#X connect 27 0 29 0;
#X connect 28 0 27 1;
#X connect 29 0 39 0;
#X connect 31 0 29 1;
#X connect 31 0 30 0;
#X connect 32 0 19 0;
#X connect 33 0 57 0;
#X connect 34 0 26 0;
#X connect 35 0 26 1;
#X connect 36 0 34 1;
#X connect 37 0 36 0;
#X connect 38 0 28 0;
#X connect 39 0 35 0;
#X connect 40 0 34 0;
#X connect 41 0 31 0;
#X connect 42 0 43 0;
#X connect 43 0 25 0;
#X connect 44 0 22 0;
#X connect 45 0 27 0;
#X connect 45 0 50 0;
#X connect 46 0 32 0;
#X connect 47 0 53 0;
#X connect 48 0 53 0;
#X connect 49 0 32 1;
#X connect 50 0 24 0;
#X connect 51 0 46 1;
#X connect 52 0 46 1;
#X connect 53 0 46 0;
#X connect 54 0 51 0;
#X connect 55 0 51 0;
#X connect 56 0 44 2;
#X connect 57 0 49 0;
#X connect 57 1 18 0;
#X connect 57 2 56 0;
#X connect 58 0 61 0;
#X connect 59 0 85 1;
#X connect 60 0 85 0;
#X connect 61 0 62 0;
#X connect 62 0 10 3;
#X connect 63 0 58 0;
#X connect 64 0 88 0;
#X connect 64 0 89 0;
#X connect 64 1 95 0;
#X connect 64 1 96 0;
#X connect 64 2 93 0;
#X connect 65 0 81 0;
#X connect 66 0 65 1;
#X connect 67 0 64 0;
#X connect 68 0 70 0;
#X connect 69 0 68 1;
#X connect 70 0 80 0;
#X connect 72 0 70 1;
#X connect 72 0 71 0;
#X connect 73 0 60 0;
#X connect 74 0 98 0;
#X connect 75 0 67 0;
#X connect 76 0 67 1;
#X connect 77 0 75 1;
#X connect 78 0 77 0;
#X connect 79 0 69 0;
#X connect 80 0 76 0;
#X connect 81 0 75 0;
#X connect 82 0 72 0;
#X connect 83 0 84 0;
#X connect 84 0 66 0;
#X connect 85 0 63 0;
#X connect 86 0 68 0;
#X connect 86 0 91 0;
#X connect 87 0 73 0;
#X connect 88 0 94 0;
#X connect 89 0 94 0;
#X connect 90 0 73 1;
#X connect 91 0 65 0;
#X connect 92 0 87 1;
#X connect 93 0 87 1;
#X connect 94 0 87 0;
#X connect 95 0 92 0;
#X connect 96 0 92 0;
#X connect 97 0 85 2;
#X connect 98 0 90 0;
#X connect 98 1 59 0;
#X connect 98 2 97 0;
#X connect 99 0 23 1;
#X connect 99 0 64 1;
#X connect 100 0 15 0;
#X connect 101 0 16 0;
#X connect 102 0 99 0;
#X connect 103 0 14 0;
