#N canvas 0 98 1920 982 10;
#X obj 1157 48 inlet params;
#X obj 1157 94 print PARAM_NOTFOUND;
#X obj 1157 70 tof/param route;
#X obj 1157 119 b;
#X obj 1157 143 tof/param gui;
#X obj 928 57 tof/argument 4;
#X obj 972 11 loadbang;
#X obj 971 274 tof/param /bass 0.1 /g slider 0.1 10;
#X obj 991 324 tof/param /middle 0.1 /g slider 0.1 10;
#X obj 958 80 tof/argument 5;
#X obj 987 102 tof/argument 6;
#X obj 1034 418 tof/param /gain 0.1 /g slider 0.01 1;
#X obj 1004 124 tof/argument 7;
#X obj 1021 148 tof/argument 8;
#X obj 437 346 inlet~;
#X obj 376 346 inlet~;
#X obj 422 543 outlet~;
#X obj 512 540 outlet~;
#X obj 419 506 tof/crossfade~ 2;
#X msg 633 474 \$1 5;
#X obj 633 496 line~;
#X obj 633 404 loadbang;
#X obj 634 450 tof/param /wet 0 /g slider 0 1;
#X obj 1011 371 tof/param /treble 0.1 /g slider 0.1 10;
#X obj 1112 606 tof/param /option 0 /g tgl;
#X obj 1054 172 tof/argument 9;
#X obj 971 296 s \$0-bass;
#X obj 991 346 s \$0-middle;
#X obj 1011 393 s \$0-treble;
#X obj 1034 440 s \$0-gain;
#X obj 1054 486 s \$0-master;
#X obj 1054 464 tof/param /master 0.1 /g slider 0.01 1;
#X obj 1112 628 s \$0-option;
#N canvas 0 98 1920 982 moteur 0;
#N canvas 0 50 566 300 spigot~ 0;
#X obj 63 24 inlet~;
#X obj 95 75 == 0;
#X obj 174 75 == 1;
#X obj 64 174 *~;
#X obj 180 166 *~;
#X obj 179 246 outlet~;
#X obj 63 244 outlet~;
#X obj 233 23 inlet;
#X connect 0 0 3 0;
#X connect 0 0 4 0;
#X connect 1 0 3 1;
#X connect 2 0 4 1;
#X connect 3 0 6 0;
#X connect 4 0 5 0;
#X connect 7 0 1 0;
#X connect 7 0 2 0;
#X restore 491 348 pd spigot~;
#N canvas 217 50 450 432 1stStage 0;
#X obj 24 10 inlet~;
#X obj 21 330 outlet~;
#X obj 23 45 hip~ 1.539;
#N canvas 0 50 562 300 tanh-clip2~ 0;
#X obj 36 23 inlet~;
#X obj 38 198 outlet~;
#X obj 245 20 inlet;
#X obj 136 23 inlet;
#X obj 37 97 expr~ if($v1<0 \, $f2 * tanh($v1 / $f2) \, $f3 * tanh($v1
/ $f3)), f 67;
#X connect 0 0 4 0;
#X connect 2 0 4 2;
#X connect 3 0 4 1;
#X connect 4 0 1 0;
#X restore 22 137 pd tanh-clip2~;
#X obj 180 91 loadbang;
#X obj 87 99 hsl 50 10 -3 0 0 0 empty empty trim -2 -8 0 10 -262144
-1 -1 4900 1;
#X floatatom 41 96 5 0 0 0 - - -, f 5;
#X msg 143 93 0.4;
#X obj 256 112 loadbang;
#X obj 163 120 hsl 50 10 0 3 0 0 empty empty trim -2 -8 0 10 -262144
-1 -1 4900 1;
#X floatatom 117 117 5 0 0 0 - - -, f 5;
#X msg 219 114 100;
#X obj 21 196 hip~;
#X obj 256 112 loadbang;
#X obj 163 120 hsl 50 10 0 3 0 0 empty empty trim -2 -8 0 10 -262144
-1 -1 4900 1;
#X floatatom 117 117 5 0 0 0 - - -, f 5;
#X msg 219 114 100;
#X obj 203 195 loadbang;
#X obj 106 199 hsl 50 10 0 1000 0 0 empty empty trim -2 -8 0 10 -262144
-1 -1 1960 1;
#X floatatom 61 198 5 0 0 0 - - -, f 5;
#X msg 168 196 400;
#X obj 22 274 *~ 20;
#X connect 0 0 2 0;
#X connect 2 0 3 0;
#X connect 3 0 12 0;
#X connect 4 0 7 0;
#X connect 5 0 6 0;
#X connect 6 0 3 1;
#X connect 7 0 5 0;
#X connect 8 0 11 0;
#X connect 9 0 10 0;
#X connect 10 0 3 2;
#X connect 11 0 9 0;
#X connect 12 0 21 0;
#X connect 13 0 16 0;
#X connect 14 0 15 0;
#X connect 16 0 14 0;
#X connect 17 0 20 0;
#X connect 18 0 19 0;
#X connect 19 0 12 1;
#X connect 20 0 18 0;
#X connect 21 0 1 0;
#X restore 489 203 pd 1stStage;
#X obj 489 287 *~;
#X obj 489 264 hip~;
#X obj 488 241 hip~ 72.34;
#N canvas 0 50 562 300 tanh-clip2~ 0;
#X obj 36 23 inlet~;
#X obj 38 198 outlet~;
#X obj 245 20 inlet;
#X obj 136 23 inlet;
#X obj 37 97 expr~ if($v1<0 \, $f2 * tanh($v1 / $f2) \, $f3 * tanh($v1
/ $f3)), f 67;
#X connect 0 0 4 0;
#X connect 2 0 4 2;
#X connect 3 0 4 1;
#X connect 4 0 1 0;
#X restore 490 312 pd tanh-clip2~;
#X obj 690 313 loadbang;
#X msg 596 311 -20;
#X msg 643 311 2;
#N canvas 126 72 450 541 CH4Stagege 0;
#X obj 15 10 inlet~;
#X obj 14 481 outlet~;
#X obj 15 100 hip~ 48.22;
#N canvas 0 50 562 300 tanh-clip2~ 0;
#X obj 36 23 inlet~;
#X obj 38 198 outlet~;
#X obj 245 20 inlet;
#X obj 136 23 inlet;
#X obj 37 97 expr~ if($v1<0 \, $f2 * tanh($v1 / $f2) \, $f3 * tanh($v1
/ $f3)), f 67;
#X connect 0 0 4 0;
#X connect 2 0 4 2;
#X connect 3 0 4 1;
#X connect 4 0 1 0;
#X restore 16 196 pd tanh-clip2~;
#X obj 217 180 hsl 50 10 0 10 0 0 empty empty trim -2 -8 0 10 -262144
-1 -1 0 1;
#X obj 88 174 hsl 50 10 0 -10 0 0 empty empty trim -2 -8 0 10 -262144
-1 -1 392 1;
#X floatatom 44 171 5 0 0 0 - - -, f 5;
#X floatatom 170 176 5 0 0 0 - - -, f 5;
#X msg 178 147 0.6;
#X obj 141 119 loadbang;
#X msg 107 146 -0.8;
#N canvas 0 50 562 300 tanh-clip2~ 0;
#X obj 36 23 inlet~;
#X obj 38 198 outlet~;
#X obj 245 20 inlet;
#X obj 136 23 inlet;
#X obj 37 97 expr~ if($v1<0 \, $f2 * tanh($v1 / $f2) \, $f3 * tanh($v1
/ $f3)), f 67;
#X connect 0 0 4 0;
#X connect 2 0 4 2;
#X connect 3 0 4 1;
#X connect 4 0 1 0;
#X restore 16 376 pd tanh-clip2~;
#X obj 201 352 hsl 50 10 0 10 0 0 empty empty trim -2 -8 0 10 -262144
-1 -1 0 1;
#X obj 88 354 hsl 50 10 0 -10 0 0 empty empty trim -2 -8 0 10 -262144
-1 -1 4900 1;
#X floatatom 44 351 5 0 0 0 - - -, f 5;
#X floatatom 154 346 5 0 0 0 - - -, f 5;
#X obj 133 277 loadbang;
#X obj 15 445 hip~;
#X obj 108 444 hsl 50 10 1 1000 0 0 empty empty trim -2 -8 0 10 -262144
-1 -1 0 1;
#X floatatom 56 444 5 0 0 0 - - -, f 5;
#X obj 101 417 loadbang;
#X msg 64 420 600;
#X obj 15 69 lop~ 7234;
#X obj 15 42 hip~ 72.34;
#X obj 15 282 hip~ 32.883;
#X obj 15 221 *~ -20;
#X msg 107 326 -10;
#X msg 176 319 10;
#X obj 16 405 *~ -10;
#X connect 0 0 23 0;
#X connect 2 0 3 0;
#X connect 3 0 25 0;
#X connect 4 0 7 0;
#X connect 5 0 6 0;
#X connect 6 0 3 1;
#X connect 7 0 3 2;
#X connect 8 0 7 0;
#X connect 9 0 10 0;
#X connect 9 0 8 0;
#X connect 10 0 5 0;
#X connect 11 0 28 0;
#X connect 12 0 15 0;
#X connect 13 0 14 0;
#X connect 14 0 11 1;
#X connect 15 0 11 2;
#X connect 16 0 26 0;
#X connect 16 0 27 0;
#X connect 17 0 1 0;
#X connect 18 0 19 0;
#X connect 19 0 17 1;
#X connect 20 0 21 0;
#X connect 21 0 19 0;
#X connect 22 0 2 0;
#X connect 23 0 22 0;
#X connect 24 0 11 0;
#X connect 25 0 24 0;
#X connect 26 0 13 0;
#X connect 27 0 15 0;
#X connect 28 0 17 0;
#X restore 557 377 pd CH4Stagege;
#N canvas 483 98 450 716 CH34Stage 0;
#X obj 27 16 inlet~;
#X obj 30 698 outlet~;
#X obj 30 312 hip~ 33.86;
#X obj 30 336 hip~ 33.86;
#N canvas 0 50 562 300 tanh-clip2~ 0;
#X obj 36 23 inlet~;
#X obj 38 198 outlet~;
#X obj 245 20 inlet;
#X obj 136 23 inlet;
#X obj 37 97 expr~ if($v1<0 \, $f2 * tanh($v1 / $f2) \, $f3 * tanh($v1
/ $f3)), f 67;
#X connect 0 0 4 0;
#X connect 2 0 4 2;
#X connect 3 0 4 1;
#X connect 4 0 1 0;
#X restore 30 224 pd tanh-clip2~;
#X obj 231 208 hsl 50 10 0 10 0 0 empty empty trim -2 -8 0 10 -262144
-1 -1 0 1;
#X obj 102 202 hsl 50 10 0 -10 0 0 empty empty trim -2 -8 0 10 -262144
-1 -1 1470 1;
#X floatatom 58 199 5 0 0 0 - - -, f 5;
#X floatatom 184 204 5 0 0 0 - - -, f 5;
#X obj 155 147 loadbang;
#X obj 28 143 *~ -10;
#X obj 27 85 hip~ 34.05;
#X msg 121 174 -3;
#X msg 192 175 8;
#X obj 30 399 hip~ 0.1063;
#X obj 29 379 lop~ 3386.27;
#N canvas 0 50 562 300 tanh-clip2~ 0;
#X obj 36 23 inlet~;
#X obj 38 198 outlet~;
#X obj 245 20 inlet;
#X obj 136 23 inlet;
#X obj 37 97 expr~ if($v1<0 \, $f2 * tanh($v1 / $f2) \, $f3 * tanh($v1
/ $f3)), f 67;
#X connect 0 0 4 0;
#X connect 2 0 4 2;
#X connect 3 0 4 1;
#X connect 4 0 1 0;
#X restore 31 495 pd tanh-clip2~;
#X obj 232 479 hsl 50 10 0 10 0 0 empty empty trim -2 -8 0 10 -262144
-1 -1 0 1;
#X obj 103 473 hsl 50 10 0 -10 0 0 empty empty trim -2 -8 0 10 -262144
-1 -1 4900 1;
#X floatatom 59 470 5 0 0 0 - - -, f 5;
#X floatatom 185 475 5 0 0 0 - - -, f 5;
#X obj 156 418 loadbang;
#X msg 122 445 -10;
#X msg 193 446 10;
#N canvas 0 50 562 300 tanh-clip2~ 0;
#X obj 36 23 inlet~;
#X obj 38 198 outlet~;
#X obj 245 20 inlet;
#X obj 136 23 inlet;
#X obj 37 97 expr~ if($v1<0 \, $f2 * tanh($v1 / $f2) \, $f3 * tanh($v1
/ $f3)), f 67;
#X connect 0 0 4 0;
#X connect 2 0 4 2;
#X connect 3 0 4 1;
#X connect 4 0 1 0;
#X restore 31 628 pd tanh-clip2~;
#X obj 232 612 hsl 50 10 0 10 0 0 empty empty trim -2 -8 0 10 -262144
-1 -1 0 1;
#X obj 103 606 hsl 50 10 0 -10 0 0 empty empty trim -2 -8 0 10 -262144
-1 -1 4900 1;
#X floatatom 59 603 5 0 0 0 - - -, f 5;
#X floatatom 185 608 5 0 0 0 - - -, f 5;
#X obj 156 551 loadbang;
#X msg 122 578 -10;
#X msg 193 579 10;
#X obj 30 527 *~ -5;
#X obj 26 57 lop~ 388.62;
#X obj 29 265 hip~ 10;
#X connect 0 0 33 0;
#X connect 2 0 3 0;
#X connect 3 0 15 0;
#X connect 4 0 34 0;
#X connect 5 0 8 0;
#X connect 6 0 7 0;
#X connect 7 0 4 1;
#X connect 8 0 4 2;
#X connect 9 0 12 0;
#X connect 9 0 13 0;
#X connect 10 0 4 0;
#X connect 11 0 10 0;
#X connect 12 0 6 0;
#X connect 13 0 8 0;
#X connect 14 0 16 0;
#X connect 15 0 14 0;
#X connect 16 0 32 0;
#X connect 17 0 20 0;
#X connect 18 0 19 0;
#X connect 19 0 16 1;
#X connect 20 0 16 2;
#X connect 21 0 22 0;
#X connect 21 0 23 0;
#X connect 22 0 18 0;
#X connect 23 0 20 0;
#X connect 24 0 1 0;
#X connect 25 0 28 0;
#X connect 26 0 27 0;
#X connect 27 0 24 1;
#X connect 28 0 24 2;
#X connect 29 0 30 0;
#X connect 29 0 31 0;
#X connect 30 0 26 0;
#X connect 31 0 28 0;
#X connect 32 0 24 0;
#X connect 33 0 11 0;
#X connect 34 0 2 0;
#X restore 492 411 pd CH34Stage;
#X obj 492 591 *~;
#N canvas 287 50 699 658 ToneStack 0;
#X obj 44 6 inlet~;
#X obj 243 600 outlet~;
#X obj 242 199 *~;
#X obj 332 198 * 0.55;
#X obj 146 11 inlet;
#X obj 340 10 inlet;
#X obj 443 14 inlet;
#X obj 616 11 inlet;
#X obj 275 198 + 2.5;
#X obj 242 297 bp~;
#X obj 251 238 + 145;
#X obj 298 238 * -7;
#X msg 286 276 4;
#X obj 320 276 loadbang;
#X obj 243 367 +~;
#X obj 47 235 hip~;
#X obj 90 235 + 9362;
#X obj 140 236 * 100;
#X obj 48 203 *~;
#X obj 49 51 +~;
#X obj 442 200 hip~;
#X obj 444 134 *~;
#X obj 484 134 * 0.04;
#X obj 488 201 + 2893.7;
#X obj 558 200 * 1000;
#X obj 243 447 hip~;
#X obj 292 449 * 24.11;
#X connect 0 0 19 0;
#X connect 2 0 9 0;
#X connect 3 0 8 0;
#X connect 4 0 17 0;
#X connect 4 0 18 1;
#X connect 5 0 3 0;
#X connect 5 0 11 0;
#X connect 6 0 22 0;
#X connect 6 0 24 0;
#X connect 7 0 26 0;
#X connect 8 0 2 1;
#X connect 9 0 14 0;
#X connect 10 0 9 1;
#X connect 11 0 10 0;
#X connect 12 0 9 2;
#X connect 13 0 12 0;
#X connect 14 0 25 0;
#X connect 15 0 14 0;
#X connect 16 0 15 1;
#X connect 17 0 16 0;
#X connect 18 0 15 0;
#X connect 19 0 18 0;
#X connect 19 0 2 0;
#X connect 19 0 21 0;
#X connect 20 0 14 1;
#X connect 21 0 20 0;
#X connect 22 0 21 1;
#X connect 23 0 20 1;
#X connect 24 0 23 0;
#X connect 25 0 1 0;
#X connect 26 0 25 1;
#X restore 493 474 pd ToneStack;
#X obj 493 565 +~;
#X obj 522 536 *~;
#X obj 522 511 lop~ 54.18;
#X obj 488 181 hip~ 79.57;
#X obj 539 263 * 63.6619;
#X obj 490 378 *~ 20;
#X obj 492 620 *~ 0.05;
#X obj 492 646 outlet~;
#X obj 536 592 r \$0-master;
#X obj 575 535 r \$0-deep;
#X obj 796 487 r \$0-presence;
#X obj 790 462 r \$0-midle;
#X obj 782 437 r \$0-bass;
#X obj 767 412 r \$0-treble;
#X obj 852 173 r \$0-gain;
#X obj 736 95 r \$0-option;
#X obj 489 155 inlet~;
#X connect 0 0 18 0;
#X connect 0 1 9 0;
#X connect 1 0 4 0;
#X connect 2 0 5 0;
#X connect 3 0 2 0;
#X connect 4 0 3 0;
#X connect 5 0 0 0;
#X connect 6 0 7 0;
#X connect 6 0 8 0;
#X connect 7 0 5 1;
#X connect 8 0 5 2;
#X connect 9 0 10 0;
#X connect 10 0 12 0;
#X connect 11 0 19 0;
#X connect 12 0 13 0;
#X connect 12 0 15 0;
#X connect 13 0 11 0;
#X connect 14 0 13 1;
#X connect 15 0 14 0;
#X connect 16 0 1 0;
#X connect 17 0 3 1;
#X connect 18 0 10 0;
#X connect 19 0 20 0;
#X connect 21 0 11 1;
#X connect 22 0 14 1;
#X connect 23 0 12 4;
#X connect 24 0 12 3;
#X connect 25 0 12 2;
#X connect 26 0 12 1;
#X connect 27 0 17 0;
#X connect 27 0 2 1;
#X connect 28 0 0 1;
#X connect 29 0 16 0;
#X restore 541 433 pd moteur;
#X obj 1085 536 s \$0-gain;
#X obj 1105 582 s \$0-master;
#X obj 1085 514 tof/param /deep 0.1 /g slider 0.01 1;
#X obj 1105 560 tof/param /presence 0.1 /g slider 0.01 1;
#X obj 1070 200 tof/argument 10;
#X obj 1103 224 tof/argument 11;
#X obj 632 428 tof/argument 12;
#N canvas 0 98 1920 982 moteur 0;
#N canvas 0 50 566 300 spigot~ 0;
#X obj 63 24 inlet~;
#X obj 95 75 == 0;
#X obj 174 75 == 1;
#X obj 64 174 *~;
#X obj 180 166 *~;
#X obj 179 246 outlet~;
#X obj 63 244 outlet~;
#X obj 233 23 inlet;
#X connect 0 0 3 0;
#X connect 0 0 4 0;
#X connect 1 0 3 1;
#X connect 2 0 4 1;
#X connect 3 0 6 0;
#X connect 4 0 5 0;
#X connect 7 0 1 0;
#X connect 7 0 2 0;
#X restore 491 348 pd spigot~;
#N canvas 217 50 450 432 1stStage 0;
#X obj 24 10 inlet~;
#X obj 21 330 outlet~;
#X obj 23 45 hip~ 1.539;
#N canvas 0 50 562 300 tanh-clip2~ 0;
#X obj 36 23 inlet~;
#X obj 38 198 outlet~;
#X obj 245 20 inlet;
#X obj 136 23 inlet;
#X obj 37 97 expr~ if($v1<0 \, $f2 * tanh($v1 / $f2) \, $f3 * tanh($v1
/ $f3)), f 67;
#X connect 0 0 4 0;
#X connect 2 0 4 2;
#X connect 3 0 4 1;
#X connect 4 0 1 0;
#X restore 22 137 pd tanh-clip2~;
#X obj 180 91 loadbang;
#X obj 87 99 hsl 50 10 -3 0 0 0 empty empty trim -2 -8 0 10 -262144
-1 -1 4900 1;
#X floatatom 41 96 5 0 0 0 - - -, f 5;
#X msg 143 93 0.4;
#X obj 256 112 loadbang;
#X obj 163 120 hsl 50 10 0 3 0 0 empty empty trim -2 -8 0 10 -262144
-1 -1 4900 1;
#X floatatom 117 117 5 0 0 0 - - -, f 5;
#X msg 219 114 100;
#X obj 21 196 hip~;
#X obj 256 112 loadbang;
#X obj 163 120 hsl 50 10 0 3 0 0 empty empty trim -2 -8 0 10 -262144
-1 -1 4900 1;
#X floatatom 117 117 5 0 0 0 - - -, f 5;
#X msg 219 114 100;
#X obj 203 195 loadbang;
#X obj 106 199 hsl 50 10 0 1000 0 0 empty empty trim -2 -8 0 10 -262144
-1 -1 1960 1;
#X floatatom 61 198 5 0 0 0 - - -, f 5;
#X msg 168 196 400;
#X obj 22 274 *~ 20;
#X connect 0 0 2 0;
#X connect 2 0 3 0;
#X connect 3 0 12 0;
#X connect 4 0 7 0;
#X connect 5 0 6 0;
#X connect 6 0 3 1;
#X connect 7 0 5 0;
#X connect 8 0 11 0;
#X connect 9 0 10 0;
#X connect 10 0 3 2;
#X connect 11 0 9 0;
#X connect 12 0 21 0;
#X connect 13 0 16 0;
#X connect 14 0 15 0;
#X connect 16 0 14 0;
#X connect 17 0 20 0;
#X connect 18 0 19 0;
#X connect 19 0 12 1;
#X connect 20 0 18 0;
#X connect 21 0 1 0;
#X restore 489 203 pd 1stStage;
#X obj 489 287 *~;
#X obj 489 264 hip~;
#X obj 488 241 hip~ 72.34;
#N canvas 0 50 562 300 tanh-clip2~ 0;
#X obj 36 23 inlet~;
#X obj 38 198 outlet~;
#X obj 245 20 inlet;
#X obj 136 23 inlet;
#X obj 37 97 expr~ if($v1<0 \, $f2 * tanh($v1 / $f2) \, $f3 * tanh($v1
/ $f3)), f 67;
#X connect 0 0 4 0;
#X connect 2 0 4 2;
#X connect 3 0 4 1;
#X connect 4 0 1 0;
#X restore 490 312 pd tanh-clip2~;
#X obj 690 313 loadbang;
#X msg 596 311 -20;
#X msg 643 311 2;
#N canvas 126 72 450 541 CH4Stagege 0;
#X obj 15 10 inlet~;
#X obj 14 481 outlet~;
#X obj 15 100 hip~ 48.22;
#N canvas 0 50 562 300 tanh-clip2~ 0;
#X obj 36 23 inlet~;
#X obj 38 198 outlet~;
#X obj 245 20 inlet;
#X obj 136 23 inlet;
#X obj 37 97 expr~ if($v1<0 \, $f2 * tanh($v1 / $f2) \, $f3 * tanh($v1
/ $f3)), f 67;
#X connect 0 0 4 0;
#X connect 2 0 4 2;
#X connect 3 0 4 1;
#X connect 4 0 1 0;
#X restore 16 196 pd tanh-clip2~;
#X obj 217 180 hsl 50 10 0 10 0 0 empty empty trim -2 -8 0 10 -262144
-1 -1 0 1;
#X obj 88 174 hsl 50 10 0 -10 0 0 empty empty trim -2 -8 0 10 -262144
-1 -1 392 1;
#X floatatom 44 171 5 0 0 0 - - -, f 5;
#X floatatom 170 176 5 0 0 0 - - -, f 5;
#X msg 178 147 0.6;
#X obj 141 119 loadbang;
#X msg 107 146 -0.8;
#N canvas 0 50 562 300 tanh-clip2~ 0;
#X obj 36 23 inlet~;
#X obj 38 198 outlet~;
#X obj 245 20 inlet;
#X obj 136 23 inlet;
#X obj 37 97 expr~ if($v1<0 \, $f2 * tanh($v1 / $f2) \, $f3 * tanh($v1
/ $f3)), f 67;
#X connect 0 0 4 0;
#X connect 2 0 4 2;
#X connect 3 0 4 1;
#X connect 4 0 1 0;
#X restore 16 376 pd tanh-clip2~;
#X obj 201 352 hsl 50 10 0 10 0 0 empty empty trim -2 -8 0 10 -262144
-1 -1 0 1;
#X obj 88 354 hsl 50 10 0 -10 0 0 empty empty trim -2 -8 0 10 -262144
-1 -1 4900 1;
#X floatatom 44 351 5 0 0 0 - - -, f 5;
#X floatatom 154 346 5 0 0 0 - - -, f 5;
#X obj 133 277 loadbang;
#X obj 15 445 hip~;
#X obj 108 444 hsl 50 10 1 1000 0 0 empty empty trim -2 -8 0 10 -262144
-1 -1 0 1;
#X floatatom 56 444 5 0 0 0 - - -, f 5;
#X obj 101 417 loadbang;
#X msg 64 420 600;
#X obj 15 69 lop~ 7234;
#X obj 15 42 hip~ 72.34;
#X obj 15 282 hip~ 32.883;
#X obj 15 221 *~ -20;
#X msg 107 326 -10;
#X msg 176 319 10;
#X obj 16 405 *~ -10;
#X connect 0 0 23 0;
#X connect 2 0 3 0;
#X connect 3 0 25 0;
#X connect 4 0 7 0;
#X connect 5 0 6 0;
#X connect 6 0 3 1;
#X connect 7 0 3 2;
#X connect 8 0 7 0;
#X connect 9 0 10 0;
#X connect 9 0 8 0;
#X connect 10 0 5 0;
#X connect 11 0 28 0;
#X connect 12 0 15 0;
#X connect 13 0 14 0;
#X connect 14 0 11 1;
#X connect 15 0 11 2;
#X connect 16 0 26 0;
#X connect 16 0 27 0;
#X connect 17 0 1 0;
#X connect 18 0 19 0;
#X connect 19 0 17 1;
#X connect 20 0 21 0;
#X connect 21 0 19 0;
#X connect 22 0 2 0;
#X connect 23 0 22 0;
#X connect 24 0 11 0;
#X connect 25 0 24 0;
#X connect 26 0 13 0;
#X connect 27 0 15 0;
#X connect 28 0 17 0;
#X restore 557 377 pd CH4Stagege;
#N canvas 483 98 450 716 CH34Stage 0;
#X obj 27 16 inlet~;
#X obj 30 698 outlet~;
#X obj 30 312 hip~ 33.86;
#X obj 30 336 hip~ 33.86;
#N canvas 0 50 562 300 tanh-clip2~ 0;
#X obj 36 23 inlet~;
#X obj 38 198 outlet~;
#X obj 245 20 inlet;
#X obj 136 23 inlet;
#X obj 37 97 expr~ if($v1<0 \, $f2 * tanh($v1 / $f2) \, $f3 * tanh($v1
/ $f3)), f 67;
#X connect 0 0 4 0;
#X connect 2 0 4 2;
#X connect 3 0 4 1;
#X connect 4 0 1 0;
#X restore 30 224 pd tanh-clip2~;
#X obj 231 208 hsl 50 10 0 10 0 0 empty empty trim -2 -8 0 10 -262144
-1 -1 0 1;
#X obj 102 202 hsl 50 10 0 -10 0 0 empty empty trim -2 -8 0 10 -262144
-1 -1 1470 1;
#X floatatom 58 199 5 0 0 0 - - -, f 5;
#X floatatom 184 204 5 0 0 0 - - -, f 5;
#X obj 155 147 loadbang;
#X obj 28 143 *~ -10;
#X obj 27 85 hip~ 34.05;
#X msg 121 174 -3;
#X msg 192 175 8;
#X obj 30 399 hip~ 0.1063;
#X obj 29 379 lop~ 3386.27;
#N canvas 0 50 562 300 tanh-clip2~ 0;
#X obj 36 23 inlet~;
#X obj 38 198 outlet~;
#X obj 245 20 inlet;
#X obj 136 23 inlet;
#X obj 37 97 expr~ if($v1<0 \, $f2 * tanh($v1 / $f2) \, $f3 * tanh($v1
/ $f3)), f 67;
#X connect 0 0 4 0;
#X connect 2 0 4 2;
#X connect 3 0 4 1;
#X connect 4 0 1 0;
#X restore 31 495 pd tanh-clip2~;
#X obj 232 479 hsl 50 10 0 10 0 0 empty empty trim -2 -8 0 10 -262144
-1 -1 0 1;
#X obj 103 473 hsl 50 10 0 -10 0 0 empty empty trim -2 -8 0 10 -262144
-1 -1 4900 1;
#X floatatom 59 470 5 0 0 0 - - -, f 5;
#X floatatom 185 475 5 0 0 0 - - -, f 5;
#X obj 156 418 loadbang;
#X msg 122 445 -10;
#X msg 193 446 10;
#N canvas 0 50 562 300 tanh-clip2~ 0;
#X obj 36 23 inlet~;
#X obj 38 198 outlet~;
#X obj 245 20 inlet;
#X obj 136 23 inlet;
#X obj 37 97 expr~ if($v1<0 \, $f2 * tanh($v1 / $f2) \, $f3 * tanh($v1
/ $f3)), f 67;
#X connect 0 0 4 0;
#X connect 2 0 4 2;
#X connect 3 0 4 1;
#X connect 4 0 1 0;
#X restore 31 628 pd tanh-clip2~;
#X obj 232 612 hsl 50 10 0 10 0 0 empty empty trim -2 -8 0 10 -262144
-1 -1 0 1;
#X obj 103 606 hsl 50 10 0 -10 0 0 empty empty trim -2 -8 0 10 -262144
-1 -1 4900 1;
#X floatatom 59 603 5 0 0 0 - - -, f 5;
#X floatatom 185 608 5 0 0 0 - - -, f 5;
#X obj 156 551 loadbang;
#X msg 122 578 -10;
#X msg 193 579 10;
#X obj 30 527 *~ -5;
#X obj 26 57 lop~ 388.62;
#X obj 29 265 hip~ 10;
#X connect 0 0 33 0;
#X connect 2 0 3 0;
#X connect 3 0 15 0;
#X connect 4 0 34 0;
#X connect 5 0 8 0;
#X connect 6 0 7 0;
#X connect 7 0 4 1;
#X connect 8 0 4 2;
#X connect 9 0 12 0;
#X connect 9 0 13 0;
#X connect 10 0 4 0;
#X connect 11 0 10 0;
#X connect 12 0 6 0;
#X connect 13 0 8 0;
#X connect 14 0 16 0;
#X connect 15 0 14 0;
#X connect 16 0 32 0;
#X connect 17 0 20 0;
#X connect 18 0 19 0;
#X connect 19 0 16 1;
#X connect 20 0 16 2;
#X connect 21 0 22 0;
#X connect 21 0 23 0;
#X connect 22 0 18 0;
#X connect 23 0 20 0;
#X connect 24 0 1 0;
#X connect 25 0 28 0;
#X connect 26 0 27 0;
#X connect 27 0 24 1;
#X connect 28 0 24 2;
#X connect 29 0 30 0;
#X connect 29 0 31 0;
#X connect 30 0 26 0;
#X connect 31 0 28 0;
#X connect 32 0 24 0;
#X connect 33 0 11 0;
#X connect 34 0 2 0;
#X restore 492 411 pd CH34Stage;
#X obj 492 591 *~;
#N canvas 287 50 699 658 ToneStack 0;
#X obj 44 6 inlet~;
#X obj 243 600 outlet~;
#X obj 242 199 *~;
#X obj 332 198 * 0.55;
#X obj 146 11 inlet;
#X obj 340 10 inlet;
#X obj 443 14 inlet;
#X obj 616 11 inlet;
#X obj 275 198 + 2.5;
#X obj 242 297 bp~;
#X obj 251 238 + 145;
#X obj 298 238 * -7;
#X msg 286 276 4;
#X obj 320 276 loadbang;
#X obj 243 367 +~;
#X obj 47 235 hip~;
#X obj 90 235 + 9362;
#X obj 140 236 * 100;
#X obj 48 203 *~;
#X obj 49 51 +~;
#X obj 442 200 hip~;
#X obj 444 134 *~;
#X obj 484 134 * 0.04;
#X obj 488 201 + 2893.7;
#X obj 558 200 * 1000;
#X obj 243 447 hip~;
#X obj 292 449 * 24.11;
#X connect 0 0 19 0;
#X connect 2 0 9 0;
#X connect 3 0 8 0;
#X connect 4 0 17 0;
#X connect 4 0 18 1;
#X connect 5 0 3 0;
#X connect 5 0 11 0;
#X connect 6 0 22 0;
#X connect 6 0 24 0;
#X connect 7 0 26 0;
#X connect 8 0 2 1;
#X connect 9 0 14 0;
#X connect 10 0 9 1;
#X connect 11 0 10 0;
#X connect 12 0 9 2;
#X connect 13 0 12 0;
#X connect 14 0 25 0;
#X connect 15 0 14 0;
#X connect 16 0 15 1;
#X connect 17 0 16 0;
#X connect 18 0 15 0;
#X connect 19 0 18 0;
#X connect 19 0 2 0;
#X connect 19 0 21 0;
#X connect 20 0 14 1;
#X connect 21 0 20 0;
#X connect 22 0 21 1;
#X connect 23 0 20 1;
#X connect 24 0 23 0;
#X connect 25 0 1 0;
#X connect 26 0 25 1;
#X restore 493 474 pd ToneStack;
#X obj 493 565 +~;
#X obj 522 536 *~;
#X obj 522 511 lop~ 54.18;
#X obj 488 181 hip~ 79.57;
#X obj 539 263 * 63.6619;
#X obj 490 378 *~ 20;
#X obj 492 620 *~ 0.05;
#X obj 492 646 outlet~;
#X obj 536 592 r \$0-master;
#X obj 575 535 r \$0-deep;
#X obj 796 487 r \$0-presence;
#X obj 790 462 r \$0-midle;
#X obj 782 437 r \$0-bass;
#X obj 767 412 r \$0-treble;
#X obj 852 173 r \$0-gain;
#X obj 736 95 r \$0-option;
#X obj 489 155 inlet~;
#X connect 0 0 18 0;
#X connect 0 1 9 0;
#X connect 1 0 4 0;
#X connect 2 0 5 0;
#X connect 3 0 2 0;
#X connect 4 0 3 0;
#X connect 5 0 0 0;
#X connect 6 0 7 0;
#X connect 6 0 8 0;
#X connect 7 0 5 1;
#X connect 8 0 5 2;
#X connect 9 0 10 0;
#X connect 10 0 12 0;
#X connect 11 0 19 0;
#X connect 12 0 13 0;
#X connect 12 0 15 0;
#X connect 13 0 11 0;
#X connect 14 0 13 1;
#X connect 15 0 14 0;
#X connect 16 0 1 0;
#X connect 17 0 3 1;
#X connect 18 0 10 0;
#X connect 19 0 20 0;
#X connect 21 0 11 1;
#X connect 22 0 14 1;
#X connect 23 0 12 4;
#X connect 24 0 12 3;
#X connect 25 0 12 2;
#X connect 26 0 12 1;
#X connect 27 0 17 0;
#X connect 27 0 2 1;
#X connect 28 0 0 1;
#X connect 29 0 16 0;
#X restore 462 432 pd moteur;
#X connect 0 0 2 0;
#X connect 2 0 1 0;
#X connect 3 0 4 0;
#X connect 5 0 23 0;
#X connect 6 0 5 0;
#X connect 6 0 9 0;
#X connect 6 0 10 0;
#X connect 6 0 12 0;
#X connect 6 0 13 0;
#X connect 6 0 25 0;
#X connect 6 0 38 0;
#X connect 6 0 39 0;
#X connect 7 0 26 0;
#X connect 8 0 27 0;
#X connect 9 0 8 0;
#X connect 10 0 7 0;
#X connect 11 0 29 0;
#X connect 12 0 11 0;
#X connect 13 0 24 0;
#X connect 14 0 18 1;
#X connect 14 0 33 0;
#X connect 15 0 18 0;
#X connect 15 0 41 0;
#X connect 18 0 16 0;
#X connect 18 1 17 0;
#X connect 19 0 20 0;
#X connect 20 0 18 4;
#X connect 21 0 40 0;
#X connect 22 0 19 0;
#X connect 23 0 28 0;
#X connect 24 0 32 0;
#X connect 25 0 31 0;
#X connect 31 0 30 0;
#X connect 33 0 18 3;
#X connect 36 0 34 0;
#X connect 37 0 35 0;
#X connect 38 0 36 0;
#X connect 39 0 37 0;
#X connect 40 0 22 0;
#X connect 41 0 18 2;
