#N canvas 0 98 1920 982 10;
#X obj 1507 86 inlet params;
#X obj 1507 132 print PARAM_NOTFOUND;
#X obj 1507 108 tof/param route;
#X obj 1507 157 b;
#X obj 1507 181 tof/param gui;
#X obj 791 94 tof/argument 4;
#X obj 797 35 loadbang;
#X obj 821 117 tof/argument 5;
#X obj 850 142 tof/argument 6;
#X obj 871 167 tof/argument 7;
#X obj 248 46 inlet~;
#X obj 120 46 inlet~;
#X obj 296 848 outlet~;
#X obj 386 845 outlet~;
#X obj 293 811 tof/crossfade~ 2;
#X msg 738 758 \$1 5;
#X obj 738 780 line~;
#X obj 738 688 loadbang;
#X obj 739 734 tof/param /wet 0 /g slider 0 1;
#N canvas 785 98 450 300 1stStage 0;
#X obj 46 103 +~ 4.2;
#X obj 45 152 -~ 0.8;
#X obj 46 128 clip~ 1.8 100;
#X obj 46 12 inlet~;
#X obj 45 204 outlet~;
#X obj 45 42 hip~ 35.6;
#X connect 0 0 2 0;
#X connect 1 0 4 0;
#X connect 2 0 1 0;
#X connect 3 0 5 0;
#X connect 5 0 0 0;
#X restore 352 364 pd 1stStage;
#N canvas 128 98 488 646 2ndStage 0;
#X obj 20 12 inlet~;
#X obj 20 508 outlet~;
#X obj 200 10 inlet;
#X obj 84 243 *~;
#X obj 24 434 lop~;
#X obj 79 433 + 5600;
#X obj 152 433 * 5560;
#X obj 20 298 clip~ -100 15;
#X obj 268 152 loadbang;
#X obj 268 203 * -1;
#X obj 22 324 *~ 10;
#X obj 21 54 hip~ 720;
#X obj 22 362 hip~ 7.2;
#X obj 297 10 inlet;
#N canvas 0 50 566 300 spigot~ 0;
#X obj 63 24 inlet~;
#X obj 95 75 == 0;
#X obj 174 75 == 1;
#X obj 64 174 *~;
#X obj 180 166 *~;
#X obj 179 246 outlet~;
#X obj 63 244 outlet~;
#X obj 233 23 inlet;
#X connect 0 0 3 0;
#X connect 0 0 4 0;
#X connect 1 0 3 1;
#X connect 2 0 4 1;
#X connect 3 0 6 0;
#X connect 4 0 5 0;
#X connect 7 0 1 0;
#X connect 7 0 2 0;
#X restore 19 83 pd spigot~;
#X obj 20 268 +~;
#X obj 16 169 *~;
#X msg 268 175 0.05;
#X obj 122 244 + 1.3;
#X obj 172 244 * 3;
#X obj 52 167 / 1.7;
#X connect 0 0 11 0;
#X connect 2 0 6 0;
#X connect 2 0 19 0;
#X connect 2 0 20 0;
#X connect 3 0 15 1;
#X connect 4 0 1 0;
#X connect 5 0 4 1;
#X connect 6 0 5 0;
#X connect 7 0 10 0;
#X connect 8 0 17 0;
#X connect 9 0 7 1;
#X connect 10 0 12 0;
#X connect 11 0 14 0;
#X connect 12 0 4 0;
#X connect 13 0 14 1;
#X connect 14 0 16 0;
#X connect 14 1 3 0;
#X connect 15 0 7 0;
#X connect 16 0 15 0;
#X connect 17 0 9 0;
#X connect 17 0 7 2;
#X connect 18 0 3 1;
#X connect 19 0 18 0;
#X connect 20 0 16 1;
#X restore 352 403 pd 2ndStage;
#X obj 391 510 hip~ 3200;
#X obj 391 537 *~;
#X obj 349 583 +~;
#X obj 346 625 *~;
#X obj 512 511 hip~ 3200;
#X obj 512 536 *~;
#X obj 384 626 * 3;
#X obj 353 441 lop~ 723;
#X obj 433 538 * 3;
#X obj 545 537 * 0.5;
#X obj 347 673 hip~ 1.59;
#X obj 917 279 tof/param /gainup 0 /g tgl;
#X obj 854 226 tof/param /tone 0.1 /g slider 0.01 1;
#X obj 874 251 tof/param /level 0.1 /g slider 0.01 1;
#N canvas 785 50 450 300 1stStage 0;
#X obj 46 103 +~ 4.2;
#X obj 45 152 -~ 0.8;
#X obj 46 128 clip~ 1.8 100;
#X obj 46 12 inlet~;
#X obj 45 204 outlet~;
#X obj 45 42 hip~ 35.6;
#X connect 0 0 2 0;
#X connect 1 0 4 0;
#X connect 2 0 1 0;
#X connect 3 0 5 0;
#X connect 5 0 0 0;
#X restore 661 355 pd 1stStage;
#N canvas 128 98 488 646 2ndStage 0;
#X obj 20 12 inlet~;
#X obj 20 508 outlet~;
#X obj 200 10 inlet;
#X obj 84 243 *~;
#X obj 24 434 lop~;
#X obj 79 433 + 5600;
#X obj 152 433 * 5560;
#X obj 20 298 clip~ -100 15;
#X obj 226 191 loadbang;
#X obj 226 241 * -1;
#X obj 22 324 *~ 10;
#X obj 21 54 hip~ 720;
#X obj 22 362 hip~ 7.2;
#X obj 297 10 inlet;
#N canvas 0 50 566 300 spigot~ 0;
#X obj 63 24 inlet~;
#X obj 95 75 == 0;
#X obj 174 75 == 1;
#X obj 64 174 *~;
#X obj 180 166 *~;
#X obj 179 246 outlet~;
#X obj 63 244 outlet~;
#X obj 233 23 inlet;
#X connect 0 0 3 0;
#X connect 0 0 4 0;
#X connect 1 0 3 1;
#X connect 2 0 4 1;
#X connect 3 0 6 0;
#X connect 4 0 5 0;
#X connect 7 0 1 0;
#X connect 7 0 2 0;
#X restore 19 83 pd spigot~;
#X obj 20 268 +~;
#X obj 16 169 *~;
#X msg 226 214 0.05;
#X obj 122 244 + 1.3;
#X obj 172 244 * 3;
#X obj 52 167 / 1.7;
#X connect 0 0 11 0;
#X connect 2 0 6 0;
#X connect 2 0 19 0;
#X connect 2 0 20 0;
#X connect 3 0 15 1;
#X connect 4 0 1 0;
#X connect 5 0 4 1;
#X connect 6 0 5 0;
#X connect 7 0 10 0;
#X connect 8 0 17 0;
#X connect 9 0 7 1;
#X connect 10 0 12 0;
#X connect 11 0 14 0;
#X connect 12 0 4 0;
#X connect 13 0 14 1;
#X connect 14 0 16 0;
#X connect 14 1 3 0;
#X connect 15 0 7 0;
#X connect 16 0 15 0;
#X connect 17 0 7 2;
#X connect 17 0 9 0;
#X connect 18 0 3 1;
#X connect 19 0 18 0;
#X connect 20 0 16 1;
#X restore 661 394 pd 2ndStage;
#X obj 700 501 hip~ 3200;
#X obj 700 528 *~;
#X obj 658 574 +~;
#X obj 655 616 *~;
#X obj 821 502 hip~ 3200;
#X obj 821 527 *~;
#X obj 693 617 * 3;
#X obj 662 432 lop~ 723;
#X obj 742 529 * 3;
#X obj 854 528 * 0.5;
#X obj 656 664 hip~ 1.59;
#X obj 834 197 tof/param /drive 2 /g slider 0.1 10;
#X obj 738 711 tof/argument 8;
#X connect 0 0 2 0;
#X connect 2 0 1 0;
#X connect 3 0 4 0;
#X connect 5 0 34 0;
#X connect 6 0 5 0;
#X connect 6 0 7 0;
#X connect 6 0 8 0;
#X connect 6 0 9 0;
#X connect 7 0 33 0;
#X connect 8 0 48 0;
#X connect 9 0 32 0;
#X connect 10 0 14 1;
#X connect 10 0 35 0;
#X connect 11 0 14 0;
#X connect 11 0 19 0;
#X connect 14 0 12 0;
#X connect 14 1 13 0;
#X connect 15 0 16 0;
#X connect 16 0 14 4;
#X connect 17 0 49 0;
#X connect 18 0 15 0;
#X connect 19 0 20 0;
#X connect 20 0 28 0;
#X connect 20 0 25 0;
#X connect 21 0 22 0;
#X connect 22 0 23 1;
#X connect 23 0 24 0;
#X connect 24 0 31 0;
#X connect 25 0 26 0;
#X connect 26 0 23 1;
#X connect 27 0 24 1;
#X connect 28 0 23 0;
#X connect 28 0 21 0;
#X connect 29 0 22 1;
#X connect 30 0 26 1;
#X connect 31 0 14 2;
#X connect 32 0 36 2;
#X connect 32 0 20 2;
#X connect 33 0 29 0;
#X connect 33 0 30 0;
#X connect 33 0 45 0;
#X connect 33 0 46 0;
#X connect 34 0 27 0;
#X connect 34 0 43 0;
#X connect 35 0 36 0;
#X connect 36 0 44 0;
#X connect 36 0 41 0;
#X connect 37 0 38 0;
#X connect 38 0 39 1;
#X connect 39 0 40 0;
#X connect 40 0 47 0;
#X connect 41 0 42 0;
#X connect 42 0 39 1;
#X connect 43 0 40 1;
#X connect 44 0 39 0;
#X connect 44 0 37 0;
#X connect 45 0 38 1;
#X connect 46 0 42 1;
#X connect 47 0 14 3;
#X connect 48 0 20 1;
#X connect 48 0 36 1;
#X connect 49 0 18 0;
