#N canvas 0 98 1920 982 10;
#X obj 1157 48 inlet params;
#X obj 1157 94 print PARAM_NOTFOUND;
#X obj 1157 70 tof/param route;
#X obj 1157 119 b;
#X obj 1157 143 tof/param gui;
#X obj 675 152 lop~ 23405;
#X obj 675 179 *~ 120;
#N canvas 0 98 562 300 tanh-clip2~ 0;
#X obj 36 23 inlet~;
#X obj 38 198 outlet~;
#X obj 245 20 inlet;
#X obj 136 23 inlet;
#X obj 37 97 expr~ if($v1<0 \, $f2 * tanh($v1 / $f2) \, $f3 * tanh($v1
/ $f3)), f 67;
#X connect 0 0 4 0;
#X connect 2 0 4 2;
#X connect 3 0 4 1;
#X connect 4 0 1 0;
#X restore 675 203 pd tanh-clip2~;
#X msg 602 152 118;
#X msg 554 153 -150;
#X obj 586 126 loadbang;
#X obj 675 233 lop~ 2000;
#X obj 676 261 *~;
#N canvas 0 50 562 300 tanh-clip2~ 0;
#X obj 36 23 inlet~;
#X obj 38 198 outlet~;
#X obj 245 20 inlet;
#X obj 136 23 inlet;
#X obj 37 97 expr~ if($v1<0 \, $f2 * tanh($v1 / $f2) \, $f3 * tanh($v1
/ $f3)), f 67;
#X connect 0 0 4 0;
#X connect 2 0 4 2;
#X connect 3 0 4 1;
#X connect 4 0 1 0;
#X restore 677 328 pd tanh-clip2~;
#X obj 585 230 loadbang;
#X obj 676 288 *~ 0.06;
#X msg 561 256 -0.4;
#X msg 601 256 0.9;
#N canvas 0 50 566 300 spigot~ 0;
#X obj 63 24 inlet~;
#X obj 95 75 == 0;
#X obj 174 75 == 1;
#X obj 64 174 *~;
#X obj 180 166 *~;
#X obj 179 246 outlet~;
#X obj 63 244 outlet~;
#X obj 233 23 inlet;
#X connect 0 0 3 0;
#X connect 0 0 4 0;
#X connect 1 0 3 1;
#X connect 2 0 4 1;
#X connect 3 0 6 0;
#X connect 4 0 5 0;
#X connect 7 0 1 0;
#X connect 7 0 2 0;
#X restore 677 432 pd spigot~;
#N canvas 0 50 562 300 tanh-clip2~ 0;
#X obj 36 23 inlet~;
#X obj 38 198 outlet~;
#X obj 245 20 inlet;
#X obj 136 23 inlet;
#X obj 37 97 expr~ if($v1<0 \, $f2 * tanh($v1 / $f2) \, $f3 * tanh($v1
/ $f3)), f 67;
#X connect 0 0 4 0;
#X connect 2 0 4 2;
#X connect 3 0 4 1;
#X connect 4 0 1 0;
#X restore 678 403 pd tanh-clip2~;
#X obj 583 314 loadbang;
#X msg 559 340 -0.4;
#X msg 599 340 0.9;
#X obj 675 530 +~;
#N canvas 0 50 562 300 tanh-clip2~ 0;
#X obj 36 23 inlet~;
#X obj 38 198 outlet~;
#X obj 245 20 inlet;
#X obj 136 23 inlet;
#X obj 37 97 expr~ if($v1<0 \, $f2 * tanh($v1 / $f2) \, $f3 * tanh($v1
/ $f3)), f 67;
#X connect 0 0 4 0;
#X connect 2 0 4 2;
#X connect 3 0 4 1;
#X connect 4 0 1 0;
#X restore 676 624 pd tanh-clip2~;
#X obj 565 517 loadbang;
#X obj 723 597 * -1;
#X msg 565 539 10;
#X obj 676 646 *~ 5;
#N canvas 0 50 692 300 800Tone 0;
#X obj 45 211 +~;
#X obj 245 154 bp~ 250 1;
#X obj 322 154 hip~ 1000;
#X obj 322 177 *~;
#X obj 355 178 / 10;
#X obj 529 136 hip~ 20000;
#X obj 527 172 *~;
#X obj 560 173 / 10;
#X obj 44 167 *~;
#X obj 76 167 / 10;
#X obj 43 126 bp~ 70 2;
#X obj 41 43 +~;
#X obj 40 10 inlet~;
#X obj 45 251 outlet~;
#X obj 527 9 inlet;
#X obj 282 10 inlet;
#X obj 143 8 inlet;
#X obj 245 132 *~ 0.2;
#X obj 323 132 *~ 0.2;
#X obj 42 99 *~ 0.2;
#X connect 0 0 13 0;
#X connect 1 0 0 0;
#X connect 2 0 3 0;
#X connect 3 0 0 0;
#X connect 4 0 3 1;
#X connect 5 0 6 0;
#X connect 6 0 0 1;
#X connect 7 0 6 1;
#X connect 8 0 0 0;
#X connect 9 0 8 1;
#X connect 10 0 8 0;
#X connect 11 0 5 0;
#X connect 11 0 17 0;
#X connect 11 0 18 0;
#X connect 11 0 19 0;
#X connect 12 0 11 0;
#X connect 14 0 7 0;
#X connect 15 0 4 0;
#X connect 16 0 9 0;
#X connect 17 0 1 0;
#X connect 18 0 2 0;
#X connect 19 0 10 0;
#X restore 809 480 pd 800Tone;
#N canvas 744 50 450 300 450Tone 0;
#X obj 18 206 +~;
#X obj 179 57 +~;
#X obj 20 94 *~;
#X obj 52 95 + 0.15;
#X obj 101 95 * 0.04;
#X obj 20 125 hip~;
#X obj 59 124 + 20;
#X obj 96 125 * 18;
#X obj 19 161 lop~;
#X obj 59 160 + 30;
#X obj 100 159 * 27;
#X obj 179 94 *~;
#X obj 211 94 * 0.35;
#X obj 180 121 hip~ 7235;
#X obj 291 93 *~;
#X obj 326 93 * 0.1;
#X obj 291 124 hip~ 23580;
#X obj 15 6 inlet~;
#X obj 17 261 outlet~;
#X obj 294 4 inlet;
#X obj 84 7 inlet;
#X obj 188 4 inlet;
#X connect 0 0 18 0;
#X connect 1 0 2 0;
#X connect 1 0 11 0;
#X connect 1 0 14 0;
#X connect 2 0 5 0;
#X connect 3 0 2 1;
#X connect 4 0 3 0;
#X connect 5 0 8 0;
#X connect 6 0 5 1;
#X connect 7 0 6 0;
#X connect 8 0 0 0;
#X connect 9 0 8 1;
#X connect 10 0 9 0;
#X connect 11 0 13 0;
#X connect 12 0 11 1;
#X connect 13 0 0 0;
#X connect 14 0 16 0;
#X connect 15 0 14 1;
#X connect 16 0 0 1;
#X connect 17 0 1 0;
#X connect 19 0 15 0;
#X connect 20 0 4 0;
#X connect 20 0 7 0;
#X connect 20 0 10 0;
#X connect 21 0 12 0;
#X restore 675 481 pd 450Tone;
#X obj 928 94 tof/argument 4;
#X obj 941 70 loadbang;
#X obj 971 216 tof/param /bass 0.1 /g slider 0.1 10;
#X obj 991 245 tof/param /middle 0.1 /g slider 0.1 10;
#X obj 958 117 tof/argument 5;
#X obj 987 139 tof/argument 6;
#X obj 1032 297 tof/param /gain 0.1 /g slider 0.01 1;
#X obj 1004 161 tof/argument 7;
#X obj 1021 185 tof/argument 8;
#X obj 1077 326 tof/param /modern 0 /g tgl;
#X obj 248 46 inlet~;
#X obj 373 157 lop~ 23405;
#X obj 373 184 *~ 120;
#N canvas 0 98 562 300 tanh-clip2~ 0;
#X obj 36 23 inlet~;
#X obj 38 198 outlet~;
#X obj 245 20 inlet;
#X obj 136 23 inlet;
#X obj 37 97 expr~ if($v1<0 \, $f2 * tanh($v1 / $f2) \, $f3 * tanh($v1
/ $f3)), f 67;
#X connect 0 0 4 0;
#X connect 2 0 4 2;
#X connect 3 0 4 1;
#X connect 4 0 1 0;
#X restore 386 207 pd tanh-clip2~;
#X obj 373 238 lop~ 2000;
#X obj 374 266 *~;
#N canvas 0 50 562 300 tanh-clip2~ 0;
#X obj 36 23 inlet~;
#X obj 38 198 outlet~;
#X obj 245 20 inlet;
#X obj 136 23 inlet;
#X obj 37 97 expr~ if($v1<0 \, $f2 * tanh($v1 / $f2) \, $f3 * tanh($v1
/ $f3)), f 67;
#X connect 0 0 4 0;
#X connect 2 0 4 2;
#X connect 3 0 4 1;
#X connect 4 0 1 0;
#X restore 375 333 pd tanh-clip2~;
#X obj 374 293 *~ 0.06;
#N canvas 0 50 566 300 spigot~ 0;
#X obj 63 24 inlet~;
#X obj 95 75 == 0;
#X obj 174 75 == 1;
#X obj 64 174 *~;
#X obj 180 166 *~;
#X obj 179 246 outlet~;
#X obj 63 244 outlet~;
#X obj 233 23 inlet;
#X connect 0 0 3 0;
#X connect 0 0 4 0;
#X connect 1 0 3 1;
#X connect 2 0 4 1;
#X connect 3 0 6 0;
#X connect 4 0 5 0;
#X connect 7 0 1 0;
#X connect 7 0 2 0;
#X restore 375 437 pd spigot~;
#N canvas 0 50 562 300 tanh-clip2~ 0;
#X obj 36 23 inlet~;
#X obj 38 198 outlet~;
#X obj 245 20 inlet;
#X obj 136 23 inlet;
#X obj 37 97 expr~ if($v1<0 \, $f2 * tanh($v1 / $f2) \, $f3 * tanh($v1
/ $f3)), f 67;
#X connect 0 0 4 0;
#X connect 2 0 4 2;
#X connect 3 0 4 1;
#X connect 4 0 1 0;
#X restore 376 408 pd tanh-clip2~;
#X obj 373 535 +~;
#N canvas 0 50 562 300 tanh-clip2~ 0;
#X obj 36 23 inlet~;
#X obj 38 198 outlet~;
#X obj 245 20 inlet;
#X obj 136 23 inlet;
#X obj 37 97 expr~ if($v1<0 \, $f2 * tanh($v1 / $f2) \, $f3 * tanh($v1
/ $f3)), f 67;
#X connect 0 0 4 0;
#X connect 2 0 4 2;
#X connect 3 0 4 1;
#X connect 4 0 1 0;
#X restore 373 635 pd tanh-clip2~;
#X obj 420 608 * -1;
#X obj 373 657 *~ 5;
#N canvas 0 50 692 300 800Tone 0;
#X obj 45 211 +~;
#X obj 245 154 bp~ 250 1;
#X obj 322 154 hip~ 1000;
#X obj 322 177 *~;
#X obj 355 178 / 10;
#X obj 529 136 hip~ 20000;
#X obj 527 172 *~;
#X obj 560 173 / 10;
#X obj 44 167 *~;
#X obj 76 167 / 10;
#X obj 43 126 bp~ 70 2;
#X obj 41 43 +~;
#X obj 40 10 inlet~;
#X obj 45 251 outlet~;
#X obj 527 9 inlet;
#X obj 282 10 inlet;
#X obj 143 8 inlet;
#X obj 245 132 *~ 0.2;
#X obj 323 132 *~ 0.2;
#X obj 42 99 *~ 0.2;
#X connect 0 0 13 0;
#X connect 1 0 0 0;
#X connect 2 0 3 0;
#X connect 3 0 0 0;
#X connect 4 0 3 1;
#X connect 5 0 6 0;
#X connect 6 0 0 1;
#X connect 7 0 6 1;
#X connect 8 0 0 0;
#X connect 9 0 8 1;
#X connect 10 0 8 0;
#X connect 11 0 5 0;
#X connect 11 0 17 0;
#X connect 11 0 18 0;
#X connect 11 0 19 0;
#X connect 12 0 11 0;
#X connect 14 0 7 0;
#X connect 15 0 4 0;
#X connect 16 0 9 0;
#X connect 17 0 1 0;
#X connect 18 0 2 0;
#X connect 19 0 10 0;
#X restore 507 488 pd 800Tone;
#N canvas 744 50 450 300 450Tone 0;
#X obj 18 206 +~;
#X obj 179 57 +~;
#X obj 20 94 *~;
#X obj 52 95 + 0.15;
#X obj 101 95 * 0.04;
#X obj 20 125 hip~;
#X obj 59 124 + 20;
#X obj 96 125 * 18;
#X obj 19 161 lop~;
#X obj 59 160 + 30;
#X obj 100 159 * 27;
#X obj 179 94 *~;
#X obj 211 94 * 0.35;
#X obj 180 121 hip~ 7235;
#X obj 291 93 *~;
#X obj 326 93 * 0.1;
#X obj 291 124 hip~ 23580;
#X obj 15 6 inlet~;
#X obj 17 261 outlet~;
#X obj 294 4 inlet;
#X obj 84 7 inlet;
#X obj 188 4 inlet;
#X connect 0 0 18 0;
#X connect 1 0 2 0;
#X connect 1 0 11 0;
#X connect 1 0 14 0;
#X connect 2 0 5 0;
#X connect 3 0 2 1;
#X connect 4 0 3 0;
#X connect 5 0 8 0;
#X connect 6 0 5 1;
#X connect 7 0 6 0;
#X connect 8 0 0 0;
#X connect 9 0 8 1;
#X connect 10 0 9 0;
#X connect 11 0 13 0;
#X connect 12 0 11 1;
#X connect 13 0 0 0;
#X connect 14 0 16 0;
#X connect 15 0 14 1;
#X connect 16 0 0 1;
#X connect 17 0 1 0;
#X connect 19 0 15 0;
#X connect 20 0 4 0;
#X connect 20 0 7 0;
#X connect 20 0 10 0;
#X connect 21 0 12 0;
#X restore 373 486 pd 450Tone;
#X obj 120 46 inlet~;
#X obj 296 848 outlet~;
#X obj 386 845 outlet~;
#X obj 293 811 tof/crossfade~ 2;
#X msg 507 779 \$1 5;
#X obj 507 801 line~;
#X obj 507 709 loadbang;
#X obj 506 733 tof/argument 9;
#X obj 508 755 tof/param /wet 0 /g slider 0 1;
#X obj 1011 270 tof/param /treble 0.1 /g slider 0.1 10;
#X connect 0 0 2 0;
#X connect 2 0 1 0;
#X connect 3 0 4 0;
#X connect 5 0 6 0;
#X connect 6 0 7 0;
#X connect 7 0 11 0;
#X connect 8 0 7 2;
#X connect 8 0 44 2;
#X connect 9 0 7 1;
#X connect 9 0 44 1;
#X connect 10 0 9 0;
#X connect 10 0 8 0;
#X connect 11 0 12 0;
#X connect 12 0 15 0;
#X connect 13 0 19 0;
#X connect 14 0 16 0;
#X connect 14 0 17 0;
#X connect 15 0 13 0;
#X connect 16 0 13 1;
#X connect 16 0 47 1;
#X connect 17 0 13 2;
#X connect 17 0 47 2;
#X connect 18 0 30 0;
#X connect 18 1 29 0;
#X connect 19 0 18 0;
#X connect 20 0 21 0;
#X connect 20 0 22 0;
#X connect 21 0 19 1;
#X connect 21 0 50 1;
#X connect 22 0 19 2;
#X connect 22 0 50 2;
#X connect 23 0 24 0;
#X connect 24 0 28 0;
#X connect 25 0 27 0;
#X connect 26 0 24 1;
#X connect 27 0 52 2;
#X connect 27 0 53 0;
#X connect 27 0 26 0;
#X connect 27 0 24 2;
#X connect 28 0 60 3;
#X connect 29 0 23 1;
#X connect 30 0 23 0;
#X connect 31 0 66 0;
#X connect 32 0 31 0;
#X connect 32 0 35 0;
#X connect 32 0 36 0;
#X connect 32 0 38 0;
#X connect 32 0 39 0;
#X connect 33 0 29 1;
#X connect 33 0 30 2;
#X connect 33 0 56 2;
#X connect 33 0 55 1;
#X connect 34 0 29 2;
#X connect 34 0 30 1;
#X connect 34 0 56 1;
#X connect 34 0 55 2;
#X connect 35 0 34 0;
#X connect 36 0 33 0;
#X connect 37 0 12 1;
#X connect 37 0 46 1;
#X connect 38 0 37 0;
#X connect 39 0 40 0;
#X connect 40 0 18 1;
#X connect 40 0 49 1;
#X connect 41 0 5 0;
#X connect 41 0 60 1;
#X connect 42 0 43 0;
#X connect 43 0 44 0;
#X connect 44 0 45 0;
#X connect 45 0 46 0;
#X connect 46 0 48 0;
#X connect 47 0 50 0;
#X connect 48 0 47 0;
#X connect 49 0 56 0;
#X connect 49 1 55 0;
#X connect 50 0 49 0;
#X connect 51 0 52 0;
#X connect 52 0 54 0;
#X connect 53 0 52 1;
#X connect 54 0 60 2;
#X connect 55 0 51 1;
#X connect 56 0 51 0;
#X connect 57 0 42 0;
#X connect 57 0 60 0;
#X connect 60 0 58 0;
#X connect 60 1 59 0;
#X connect 61 0 62 0;
#X connect 62 0 60 4;
#X connect 63 0 64 0;
#X connect 64 0 65 0;
#X connect 65 0 61 0;
#X connect 66 0 30 3;
#X connect 66 0 29 3;
#X connect 66 0 56 3;
#X connect 66 0 55 3;
