#N canvas 262 211 748 500 10;
#X obj 27 269 mtl/out~;
#X obj 307 149 cnv 15 200 20 empty empty /absolute/ 2 12 0 8 -258401
-262144 0;
#X obj 72 166 osc~ 400;
#X floatatom 75 111 5 0 0 0 - - -, f 5;
#X obj 314 197 hsl 128 15 0 1 0 0 /absolute/wet /absolute/wet_ wet
-2 -8 0 10 -262144 -1 -1 0 1;
#X text 314 81 tags: fx~;
#X text 312 66 Author: Unknown;
#X obj 27 234 mtl/absolute~ /id absolute 1;
#X connect 2 0 7 0;
#X connect 2 0 7 1;
#X connect 3 0 2 0;
#X connect 7 0 0 0;
#X connect 7 1 0 1;
#X coords 0 0 1 1 402 40 0;
