#N canvas 1 82 1364 661 10;
#X obj 959 175 inlet params;
#X obj 959 221 print PARAM_NOTFOUND;
#X obj 959 197 tof/param route;
#X obj 869 445 b;
#X obj 870 474 tof/param gui;
#X obj 508 456 vline~;
#X obj 445 585 *~;
#X obj 509 407 f;
#X obj 378 416 *~;
#X obj 364 207 f;
#X msg 359 284 1.4 \, 0 \$1;
#X obj 378 441 +~;
#X obj 439 266 delay 5;
#X msg 509 431 0 5 \, 1 3 5 \, 0 \$1 8;
#X obj 634 364 switch~;
#X msg 466 388 0.25;
#X msg 557 288 1;
#X obj 593 262 delay;
#X msg 589 288 0;
#X obj 222 577 *~;
#X obj 243 558 vline~;
#X obj 156 511 f;
#X obj 163 449 t b b b;
#X obj 426 635 +~;
#X obj 431 662 hip~ 10;
#X obj 431 756 outlet~;
#X obj 431 704 lop~ 1000;
#X obj 357 304 vline~;
#N canvas 0 50 462 312 rh_scalelog 0;
#X obj 20 155 exp;
#X obj 20 107 *;
#X obj 20 130 +;
#X obj 98 87 log;
#X obj 194 84 log;
#X obj 123 123 t b f;
#X obj 123 145 -;
#X obj 20 183 outlet;
#X obj 20 19 inlet;
#X obj 98 23 inlet;
#X obj 194 24 inlet;
#X connect 0 0 7 0;
#X connect 1 0 2 0;
#X connect 2 0 0 0;
#X connect 3 0 2 1;
#X connect 3 0 5 0;
#X connect 4 0 6 0;
#X connect 5 0 6 0;
#X connect 5 1 6 1;
#X connect 6 0 1 1;
#X connect 8 0 1 0;
#X connect 9 0 3 0;
#X connect 10 0 4 0;
#X restore 481 678 pd rh_scalelog;
#X msg 528 654 100;
#X msg 574 654 10000;
#N canvas 0 50 462 312 rh_scalelog 0;
#X obj 20 155 exp;
#X obj 20 107 *;
#X obj 20 130 +;
#X obj 98 87 log;
#X obj 194 84 log;
#X obj 123 123 t b f;
#X obj 123 145 -;
#X obj 20 183 outlet;
#X obj 20 19 inlet;
#X obj 98 23 inlet;
#X obj 194 24 inlet;
#X connect 0 0 7 0;
#X connect 1 0 2 0;
#X connect 2 0 0 0;
#X connect 3 0 2 1;
#X connect 3 0 5 0;
#X connect 4 0 6 0;
#X connect 5 0 6 0;
#X connect 5 1 6 1;
#X connect 6 0 1 1;
#X connect 8 0 1 0;
#X connect 9 0 3 0;
#X connect 10 0 4 0;
#X restore 608 210 pd rh_scalelog;
#N canvas 0 50 462 312 rh_scalelog 0;
#X obj 20 155 exp;
#X obj 20 107 *;
#X obj 20 130 +;
#X obj 98 87 log;
#X obj 194 84 log;
#X obj 123 123 t b f;
#X obj 123 145 -;
#X obj 20 183 outlet;
#X obj 20 19 inlet;
#X obj 98 23 inlet;
#X obj 194 24 inlet;
#X connect 0 0 7 0;
#X connect 1 0 2 0;
#X connect 2 0 0 0;
#X connect 3 0 2 1;
#X connect 3 0 5 0;
#X connect 4 0 6 0;
#X connect 5 0 6 0;
#X connect 5 1 6 1;
#X connect 6 0 1 1;
#X connect 8 0 1 0;
#X connect 9 0 3 0;
#X connect 10 0 4 0;
#X restore 290 169 pd rh_scalelog;
#X msg 652 186 10;
#X obj 627 230 + 10;
#X msg 557 187 stop;
#N canvas 0 50 462 312 rh_scalelog 0;
#X obj 20 155 exp;
#X obj 20 107 *;
#X obj 20 130 +;
#X obj 98 87 log;
#X obj 194 84 log;
#X obj 123 123 t b f;
#X obj 123 145 -;
#X obj 20 183 outlet;
#X obj 20 19 inlet;
#X obj 98 23 inlet;
#X obj 194 24 inlet;
#X connect 0 0 7 0;
#X connect 1 0 2 0;
#X connect 2 0 0 0;
#X connect 3 0 2 1;
#X connect 3 0 5 0;
#X connect 4 0 6 0;
#X connect 5 0 6 0;
#X connect 5 1 6 1;
#X connect 6 0 1 1;
#X connect 8 0 1 0;
#X connect 9 0 3 0;
#X connect 10 0 4 0;
#X restore 233 290 pd rh_scalelog;
#N canvas 0 50 462 312 rh_scalelog 0;
#X obj 20 155 exp;
#X obj 20 107 *;
#X obj 20 130 +;
#X obj 98 87 log;
#X obj 194 84 log;
#X obj 123 123 t b f;
#X obj 123 145 -;
#X obj 20 183 outlet;
#X obj 20 19 inlet;
#X obj 98 23 inlet;
#X obj 194 24 inlet;
#X connect 0 0 7 0;
#X connect 1 0 2 0;
#X connect 2 0 0 0;
#X connect 3 0 2 1;
#X connect 3 0 5 0;
#X connect 4 0 6 0;
#X connect 5 0 6 0;
#X connect 5 1 6 1;
#X connect 6 0 1 1;
#X connect 8 0 1 0;
#X connect 9 0 3 0;
#X connect 10 0 4 0;
#X restore 110 292 pd rh_scalelog;
#X msg 337 139 1;
#N canvas 1 82 650 490 bd-makenoise 0;
#X msg 30 27 0 \, 0.582156 \, 0.967879 \, 0.967879 \, -0.846448 \,
0.939307 \, 0.896449 \, -0.890497 \, -0.814304 \, -0.900021 \, -0.928593
\, 0.157146 \, 0.642872 \, 0.214291 \, 0.100002 \, -0.014286 \, -0.100002
\, 0.014286 \, 0.128574 \, 0.242863 \, -0.014286 \, -0.771446 \, -0.75716
\, -0.0441568 \, -0.0961061 \, -0.148055 \, -0.200005 \, -0.257149
\, 0.857162 \, 0.914307 \, 1.01431 \, -0.278578 \, -0.214291 \, -0.150003
\, -0.0857162 \, 0 \, 0.0857162 \, 0.171432 \, 0.257149 \, 0.292864
\, 0.328579 \, -0.985737 \, -0.776208 \, -0.557156 \, -0.0714302 \,
0.0714302 \, 0.214291 \, -0.0714302 \, -0.957165 \, -0.714302 \, -0.600014
\, -0.557156 \, -0.292864 \, -0.114288 \, 0.0285721 \, 0.200005 \,
0.428581 \, 0.500011 \, 0.971451 \, 0.942879 \, 0.82859 \, 0.68573
\, 0.442867 \, -0.171432 \, -0.895259 \, -1.09526 \, -1.03812 \, -0.695254
\, -0.0428581 \, -0.185719 \, -0.328579 \, -0.471439 \, 0.014286 \,
0.128574 \, 0.100002 \, 0.559537 \, 0.688111 \, 1.05955 \, 1.08812
\, -0.673825 \, -0.82859 \, -0.357151 \, -0.0214291 \, -0.14286 \,
-0.128574 \, 0.0809542 \, 0.290483 \, 0.500011 \, 0.742874 \, 0.557156
\, 0.371437 \, -0.214291 \, -0.290483 \, -0.366675 \, -0.442867 \,
-0.400009 \, -0.414295 \, -0.442867 \, -0.54287 \, -0.628586 \,;
#X obj 30 300 t b f;
#X obj 31 323 f;
#X obj 59 322 + 1;
#X obj 31 347 pack 0 0;
#X obj 31 369 s \$0-bassnoise;
#X obj 220 331 table \$0-bassnoise 100;
#X msg 96 306 0;
#X obj 29 2 r \$0-loadbang;
#X connect 0 0 1 0;
#X connect 1 0 2 0;
#X connect 1 1 4 1;
#X connect 2 0 3 0;
#X connect 2 0 4 0;
#X connect 3 0 2 1;
#X connect 4 0 5 0;
#X connect 7 0 2 1;
#X connect 8 0 0 0;
#X restore 87 739 pd bd-makenoise;
#X obj 223 482 tabplay~ \$0-bassnoise;
#X msg 698 185 2000;
#X obj 440 295 t b b b;
#X obj 492 163 t b b b b;
#X obj 143 415 pow 4;
#X msg 238 528 0 1;
#X obj 111 312 + 10;
#X obj 490 120 inlet;
#X obj 355 324 expr~ pow($v1 \, 5);
#X obj 384 466 osc~;
#X obj 384 491 *~ 1;
#N canvas 0 50 462 312 rh_scalelog 0;
#X obj 20 155 exp;
#X obj 20 107 *;
#X obj 20 130 +;
#X obj 98 87 log;
#X obj 194 84 log;
#X obj 123 123 t b f;
#X obj 123 145 -;
#X obj 20 183 outlet;
#X obj 20 19 inlet;
#X obj 98 23 inlet;
#X obj 194 24 inlet;
#X connect 0 0 7 0;
#X connect 1 0 2 0;
#X connect 2 0 0 0;
#X connect 3 0 2 1;
#X connect 3 0 5 0;
#X connect 4 0 6 0;
#X connect 5 0 6 0;
#X connect 5 1 6 1;
#X connect 6 0 1 1;
#X connect 8 0 1 0;
#X connect 9 0 3 0;
#X connect 10 0 4 0;
#X restore 722 414 pd rh_scalelog;
#X msg 812 388 1000;
#X msg 766 390 0.01;
#X obj 726 436 + 1;
#X msg 371 141 100;
#X msg 324 265 1000;
#X msg 277 267 1;
#X msg 203 265 150;
#X msg 152 270 20;
#X obj 154 241 r \$0-loadbang;
#X obj 276 239 r \$0-loadbang;
#X obj 337 112 r \$0-loadbang;
#X obj 652 158 r \$0-loadbang;
#X obj 766 364 r \$0-loadbang;
#X obj 528 627 r \$0-loadbang;
#X obj 106 81 tof/param /curvetime 0 /g slider 0 1;
#X obj 701 339 tof/param /square 0 /g slider 0 1;
#X obj 601 128 tof/param /decay 0 /g slider 0 1;
#X obj 481 607 tof/param /lowpass 0 /g slider 0 1;
#X obj 70 380 tof/param /noizelevel 0 /g slider 0 1;
#X obj 62 187 tof/param /freq1 0 /g slider 0 1;
#X obj 162 210 tof/param /freq2 0 /g slider 0 1;
#X obj 807 589 s \$0-loadbang;
#X obj 807 565 loadbang;
#X obj 383 517 cyclone/tanh~;
#X obj 432 735 cyclone/tanh~;
#X obj 701 295 initbang;
#X obj 601 75 initbang;
#X obj 601 100 \$3;
#X obj 62 136 initbang;
#X obj 62 162 \$4;
#X obj 160 162 \$5;
#X obj 106 34 initbang;
#X obj 106 57 \$6;
#X text 162 354;
#X obj 47 331 initbang;
#X obj 47 357 \$7;
#X obj 701 317 \$8;
#X obj 485 560 initbang;
#X obj 485 583 \$9;
#X connect 0 0 2 0;
#X connect 2 0 1 0;
#X connect 3 0 4 0;
#X connect 5 0 6 1;
#X connect 6 0 23 1;
#X connect 7 0 13 0;
#X connect 8 0 11 0;
#X connect 9 0 10 0;
#X connect 10 0 27 0;
#X connect 11 0 49 0;
#X connect 12 0 42 0;
#X connect 13 0 5 0;
#X connect 15 0 49 1;
#X connect 16 0 14 0;
#X connect 17 0 18 0;
#X connect 18 0 14 0;
#X connect 19 0 23 0;
#X connect 20 0 19 1;
#X connect 21 0 20 0;
#X connect 22 0 45 0;
#X connect 22 1 21 0;
#X connect 22 2 40 0;
#X connect 23 0 24 0;
#X connect 24 0 26 0;
#X connect 26 0 76 0;
#X connect 27 0 48 0;
#X connect 28 0 26 1;
#X connect 29 0 28 1;
#X connect 30 0 28 2;
#X connect 31 0 7 1;
#X connect 31 0 34 0;
#X connect 32 0 9 1;
#X connect 33 0 31 1;
#X connect 34 0 17 1;
#X connect 35 0 17 0;
#X connect 36 0 8 1;
#X connect 37 0 46 0;
#X connect 38 0 32 1;
#X connect 40 0 19 0;
#X connect 41 0 31 2;
#X connect 42 0 22 0;
#X connect 42 1 9 0;
#X connect 42 2 15 0;
#X connect 43 0 17 0;
#X connect 43 0 12 0;
#X connect 43 2 16 0;
#X connect 43 2 35 0;
#X connect 43 3 7 0;
#X connect 44 0 21 1;
#X connect 45 0 20 0;
#X connect 46 0 11 1;
#X connect 47 0 43 0;
#X connect 48 0 8 0;
#X connect 49 0 50 0;
#X connect 50 0 75 0;
#X connect 51 0 54 0;
#X connect 52 0 51 2;
#X connect 53 0 51 1;
#X connect 54 0 50 1;
#X connect 55 0 32 2;
#X connect 56 0 36 2;
#X connect 57 0 36 1;
#X connect 58 0 37 2;
#X connect 59 0 37 1;
#X connect 60 0 59 0;
#X connect 60 0 58 0;
#X connect 61 0 57 0;
#X connect 61 0 56 0;
#X connect 62 0 38 0;
#X connect 62 0 55 0;
#X connect 63 0 33 0;
#X connect 63 0 41 0;
#X connect 64 0 53 0;
#X connect 64 0 52 0;
#X connect 65 0 29 0;
#X connect 65 0 30 0;
#X connect 66 0 32 0;
#X connect 67 0 51 0;
#X connect 68 0 31 0;
#X connect 69 0 28 0;
#X connect 70 0 44 0;
#X connect 71 0 37 0;
#X connect 72 0 36 0;
#X connect 74 0 73 0;
#X connect 75 0 6 0;
#X connect 76 0 25 0;
#X connect 77 0 88 0;
#X connect 78 0 79 0;
#X connect 79 0 68 0;
#X connect 80 0 81 0;
#X connect 80 0 82 0;
#X connect 81 0 71 0;
#X connect 82 0 72 0;
#X connect 83 0 84 0;
#X connect 84 0 66 0;
#X connect 86 0 87 0;
#X connect 87 0 70 0;
#X connect 88 0 67 0;
#X connect 89 0 90 0;
#X connect 90 0 69 0;
