#N canvas 0 82 1366 662 10;
#X obj 94 472 outlet~;
#X obj 89 300 inlet~;
#X obj 157 294 inlet~;
#X obj 228 476 outlet~;
#X obj 517 276 inlet params;
#X obj 517 322 print PARAM_NOTFOUND;
#X obj 517 298 tof/param route;
#X obj 513 421 b;
#X obj 514 450 tof/param gui;
#N canvas 529 147 730 557 bitcrusher 0;
#X obj 222 245 outlet~;
#X obj 104 -271 inlet~;
#X obj 184 44 wrap~;
#X obj 153 87 -~;
#X obj 155 6 *~ 65536;
#X obj 153 109 /~ 65536;
#X obj 215 141 samphold~;
#N canvas 0 50 466 316 rh_scalelog 0;
#X obj 20 155 exp;
#X obj 20 107 *;
#X obj 20 130 +;
#X obj 98 87 log;
#X obj 194 84 log;
#X obj 123 123 t b f;
#X obj 123 145 -;
#X obj 20 183 outlet;
#X obj 20 19 inlet;
#X obj 98 23 inlet;
#X obj 194 24 inlet;
#X connect 0 0 7 0;
#X connect 1 0 2 0;
#X connect 2 0 0 0;
#X connect 3 0 2 1;
#X connect 3 0 5 0;
#X connect 4 0 6 0;
#X connect 5 0 6 0;
#X connect 5 1 6 1;
#X connect 6 0 1 1;
#X connect 8 0 1 0;
#X connect 9 0 3 0;
#X connect 10 0 4 0;
#X restore 233 -76 pd rh_scalelog;
#X msg 351 -109 65536;
#X msg 305 -109 1;
#X obj 390 -51 phasor~ 4400;
#N canvas 0 50 466 316 rh_scalelog 0;
#X obj 20 155 exp;
#X obj 20 107 *;
#X obj 20 130 +;
#X obj 98 87 log;
#X obj 194 84 log;
#X obj 123 123 t b f;
#X obj 123 145 -;
#X obj 20 183 outlet;
#X obj 20 19 inlet;
#X obj 98 23 inlet;
#X obj 194 24 inlet;
#X connect 0 0 7 0;
#X connect 1 0 2 0;
#X connect 2 0 0 0;
#X connect 3 0 2 1;
#X connect 3 0 5 0;
#X connect 4 0 6 0;
#X connect 5 0 6 0;
#X connect 5 1 6 1;
#X connect 6 0 1 1;
#X connect 8 0 1 0;
#X connect 9 0 3 0;
#X connect 10 0 4 0;
#X restore 388 -77 pd rh_scalelog;
#X msg 506 -110 44009;
#X msg 458 -111 512;
#X obj 234 -163 expr pow($f1 \, 4);
#X obj 303 -137 loadbang;
#X obj 460 -138 loadbang;
#X obj 228 -254 inlet bitdepth;
#X obj 383 -232 inlet samplerate;
#X connect 1 0 4 0;
#X connect 2 0 3 1;
#X connect 3 0 5 0;
#X connect 4 0 2 0;
#X connect 4 0 3 0;
#X connect 5 0 6 0;
#X connect 6 0 0 0;
#X connect 7 0 4 1;
#X connect 7 0 5 1;
#X connect 8 0 7 2;
#X connect 9 0 7 1;
#X connect 10 0 6 1;
#X connect 11 0 10 0;
#X connect 12 0 11 2;
#X connect 13 0 11 1;
#X connect 14 0 7 0;
#X connect 15 0 9 0;
#X connect 15 0 8 0;
#X connect 16 0 13 0;
#X connect 16 0 12 0;
#X connect 17 0 14 0;
#X connect 18 0 11 0;
#X restore 103 418 pd bitcrusher;
#N canvas 529 147 730 557 bitcrusher 0;
#X obj 222 245 outlet~;
#X obj 104 -271 inlet~;
#X obj 184 44 wrap~;
#X obj 153 87 -~;
#X obj 155 6 *~ 65536;
#X obj 153 109 /~ 65536;
#X obj 215 141 samphold~;
#N canvas 0 50 466 316 rh_scalelog 0;
#X obj 20 155 exp;
#X obj 20 107 *;
#X obj 20 130 +;
#X obj 98 87 log;
#X obj 194 84 log;
#X obj 123 123 t b f;
#X obj 123 145 -;
#X obj 20 183 outlet;
#X obj 20 19 inlet;
#X obj 98 23 inlet;
#X obj 194 24 inlet;
#X connect 0 0 7 0;
#X connect 1 0 2 0;
#X connect 2 0 0 0;
#X connect 3 0 2 1;
#X connect 3 0 5 0;
#X connect 4 0 6 0;
#X connect 5 0 6 0;
#X connect 5 1 6 1;
#X connect 6 0 1 1;
#X connect 8 0 1 0;
#X connect 9 0 3 0;
#X connect 10 0 4 0;
#X restore 233 -76 pd rh_scalelog;
#X msg 351 -109 65536;
#X msg 305 -109 1;
#X obj 390 -51 phasor~ 4400;
#N canvas 0 50 466 316 rh_scalelog 0;
#X obj 20 155 exp;
#X obj 20 107 *;
#X obj 20 130 +;
#X obj 98 87 log;
#X obj 194 84 log;
#X obj 123 123 t b f;
#X obj 123 145 -;
#X obj 20 183 outlet;
#X obj 20 19 inlet;
#X obj 98 23 inlet;
#X obj 194 24 inlet;
#X connect 0 0 7 0;
#X connect 1 0 2 0;
#X connect 2 0 0 0;
#X connect 3 0 2 1;
#X connect 3 0 5 0;
#X connect 4 0 6 0;
#X connect 5 0 6 0;
#X connect 5 1 6 1;
#X connect 6 0 1 1;
#X connect 8 0 1 0;
#X connect 9 0 3 0;
#X connect 10 0 4 0;
#X restore 388 -77 pd rh_scalelog;
#X msg 506 -110 44009;
#X msg 458 -111 512;
#X obj 234 -163 expr pow($f1 \, 4);
#X obj 303 -137 loadbang;
#X obj 460 -138 loadbang;
#X obj 228 -254 inlet bitdepth;
#X obj 383 -232 inlet samplerate;
#X connect 1 0 4 0;
#X connect 2 0 3 1;
#X connect 3 0 5 0;
#X connect 4 0 2 0;
#X connect 4 0 3 0;
#X connect 5 0 6 0;
#X connect 6 0 0 0;
#X connect 7 0 4 1;
#X connect 7 0 5 1;
#X connect 8 0 7 2;
#X connect 9 0 7 1;
#X connect 10 0 6 1;
#X connect 11 0 10 0;
#X connect 12 0 11 2;
#X connect 13 0 11 1;
#X connect 14 0 7 0;
#X connect 15 0 9 0;
#X connect 15 0 8 0;
#X connect 16 0 13 0;
#X connect 16 0 12 0;
#X connect 17 0 14 0;
#X connect 18 0 11 0;
#X restore 223 416 pd bitcrusher;
#X obj 234 293 tof/param /bitdepth 1 /g slider 0 1;
#X obj 214 337 tof/param /samplerate 1 /g slider 0 1;
#X obj 296 255 tof/argument 4;
#X obj 271 228 tof/argument 3;
#X obj 271 200 loadbang;
#X connect 1 0 9 0;
#X connect 2 0 10 0;
#X connect 4 0 6 0;
#X connect 6 0 5 0;
#X connect 7 0 8 0;
#X connect 9 0 0 0;
#X connect 10 0 3 0;
#X connect 11 0 10 1;
#X connect 11 0 9 1;
#X connect 12 0 10 2;
#X connect 12 0 9 2;
#X connect 13 0 12 0;
#X connect 14 0 11 0;
#X connect 15 0 13 0;
#X connect 15 0 14 0;
