#N canvas 1 82 1272 661 10;
#X obj 33 21 inlet~;
#X obj 31 231 outlet~;
#X obj 82 209 outlet~;
#X obj 95 22 inlet~;
#X obj 364 130 inlet params;
#X obj 306 90 tof/param /wet 0 /g slider 0 1;
#X obj 364 176 print PARAM_NOTFOUND;
#X obj 32 179 tof/crossfade~ 2;
#X msg 235 220 \$1 5;
#X obj 235 244 line~;
#X obj 364 152 tof/param route;
#X obj 364 221 tof/param gui;
#X obj 364 197 b;
#X obj 174 130 blockmirror~;
#X obj 47 103 blockmirror~;
#X obj 307 66 tof/argument 3;
#X obj 307 33 loadbang;
#X connect 0 0 7 0;
#X connect 0 0 14 0;
#X connect 3 0 7 1;
#X connect 3 0 13 0;
#X connect 4 0 10 0;
#X connect 5 0 8 0;
#X connect 7 0 1 0;
#X connect 7 1 2 0;
#X connect 8 0 9 0;
#X connect 9 0 7 4;
#X connect 10 0 6 0;
#X connect 12 0 11 0;
#X connect 13 0 7 3;
#X connect 14 0 7 2;
#X connect 15 0 5 0;
#X connect 16 0 15 0;
