#N canvas 1 84 1016 659 10;
#N canvas 385 69 294 182 Chaos 0;
#X obj 210 27 inlet;
#X text 223 8 P;
#X text 73 7 X;
#X text 20 146 P * X * (1 - X);
#X text -4 96 0 < X < 1;
#X obj 57 26 inlet;
#X obj 57 57 expr $f2 * $f1 * (1 - $f1);
#X obj 57 96 clip 0.001 0.999;
#X obj 57 128 outlet;
#X connect 0 0 6 1;
#X connect 5 0 6 0;
#X connect 6 0 7 0;
#X connect 7 0 8 0;
#X restore 134 335 pd Chaos;
#X obj 125 244 inlet;
#X obj 125 297 float;
#X text 286 331 -> X = P * X * (1 - X);
#X msg 125 271 bang;
#X obj 133 364 outlet;
#X obj 529 131 inlet params;
#X obj 529 177 print PARAM_NOTFOUND;
#X obj 529 153 tof/param route;
#X obj 522 208 b;
#X obj 523 237 tof/param gui;
#X obj 188 276 tof/param /p 3 /slider 0 1;
#X obj 188 298 + 3;
#X obj 188 251 tof/argument 3;
#X obj 188 228 loadbang;
#X connect 0 0 2 1;
#X connect 0 0 5 0;
#X connect 1 0 4 0;
#X connect 2 0 0 0;
#X connect 4 0 2 0;
#X connect 6 0 8 0;
#X connect 8 0 7 0;
#X connect 9 0 10 0;
#X connect 11 0 12 0;
#X connect 12 0 0 1;
#X connect 13 0 11 0;
#X connect 14 0 13 0;
