#N canvas 1 82 1272 661 10;
#X obj 228 315 outlet~;
#X obj 364 322 outlet~;
#X obj 228 216 inlet~;
#X obj 996 37 inlet params;
#X obj 996 83 print PARAM_NOTFOUND;
#X obj 996 59 tof/param route;
#X obj 974 183 b;
#X obj 975 212 tof/param gui;
#X obj 364 221 inlet~;
#X obj 447 191 tof/param /ratio 1 /g slider 0 1;
#X obj 479 222 tof/param /bits 32 /g slider 1 32;
#X obj 227 285 sigpack/decimate~;
#X obj 364 286 sigpack/decimate~;
#X obj 480 156 tof/argument 4;
#X obj 448 130 tof/argument 3;
#X obj 448 100 loadbang;
#X connect 2 0 11 0;
#X connect 3 0 5 0;
#X connect 5 0 4 0;
#X connect 6 0 7 0;
#X connect 8 0 12 0;
#X connect 9 0 11 1;
#X connect 9 0 12 1;
#X connect 10 0 11 2;
#X connect 10 0 12 2;
#X connect 11 0 0 0;
#X connect 12 0 1 0;
#X connect 13 0 10 0;
#X connect 14 0 9 0;
#X connect 15 0 13 0;
#X connect 15 0 14 0;
