#N canvas 1 82 1351 661 10;
#N canvas 383 314 627 300 delayphasor 0;
#X obj 311 292 *~ 0.8;
#X obj 310 249 /~ 44.1;
#X obj 310 226 +~ 100;
#X obj 310 204 *~ 50;
#X obj 308 132 -~ 0.5;
#X obj 309 158 abs~;
#X obj 310 183 *~ 2;
#X obj 84 247 /~ 44.1;
#X obj 84 224 +~ 100;
#X obj 84 202 *~ 50;
#X obj 82 130 -~ 0.5;
#X obj 83 156 abs~;
#X obj 84 181 *~ 2;
#X floatatom 174 78 5 0 0 0 - - -, f 5;
#X obj 84 290 *~ 0.8;
#X obj 9 4 inlet~;
#X obj 174 37 loadbang;
#X msg 174 56 0.5;
#X floatatom 380 36 5 0 0 0 - - -, f 5;
#X floatatom 422 34 5 0 0 0 - - -, f 5;
#X obj 380 12 inlet;
#X obj 422 11 inlet;
#X obj 253 68 inlet~;
#X obj 83 110 phasor~ 0.033;
#X obj 309 112 phasor~ 0.033;
#X obj 83 317 outlet~;
#X obj 312 319 outlet~;
#X obj 488 13 inlet phasor;
#X obj 82 269 vd~ \$0-dpdelay11;
#X obj 309 271 vd~ \$0-dpdelay22;
#X obj 253 90 delwrite~ \$0-dpdelay22 1000;
#X obj 9 26 delwrite~ \$0-dpdelay11 1000;
#X connect 0 0 26 0;
#X connect 0 0 30 0;
#X connect 1 0 29 0;
#X connect 2 0 1 0;
#X connect 3 0 2 0;
#X connect 4 0 5 0;
#X connect 5 0 6 0;
#X connect 6 0 3 0;
#X connect 7 0 28 0;
#X connect 8 0 7 0;
#X connect 9 0 8 0;
#X connect 10 0 11 0;
#X connect 11 0 12 0;
#X connect 12 0 9 0;
#X connect 13 0 23 1;
#X connect 14 0 25 0;
#X connect 14 0 31 0;
#X connect 15 0 31 0;
#X connect 16 0 17 0;
#X connect 17 0 13 0;
#X connect 18 0 9 1;
#X connect 18 0 3 1;
#X connect 19 0 8 1;
#X connect 19 0 2 1;
#X connect 20 0 18 0;
#X connect 21 0 19 0;
#X connect 22 0 30 0;
#X connect 23 0 10 0;
#X connect 24 0 4 0;
#X connect 27 0 13 0;
#X connect 28 0 14 0;
#X connect 29 0 0 0;
#X restore 98 319 pd delayphasor;
#X obj 206 542 outlet~;
#X obj 298 541 outlet~;
#X obj 98 280 inlet~;
#X obj 158 280 inlet~;
#X obj 868 34 inlet params;
#X obj 868 80 print PARAM_NOTFOUND;
#X obj 206 506 tof/crossfade~ 2;
#X obj 316 431 tof/param /wet 0 /g slider 0 1;
#X obj 358 220 tof/param /delay2 10 /g slider 1 20000;
#X obj 296 189 tof/param /delay1 100 /g slider 1 20000;
#X obj 391 248 tof/param /phasor 0.3 /g slider 0.01 10;
#X obj 316 474 line~;
#X msg 316 453 \$1 5;
#X obj 868 56 tof/param route;
#X obj 875 105 b;
#X obj 876 134 tof/param gui;
#X obj 316 404 tof/argument 3;
#X obj 316 382 loadbang;
#X obj 360 167 tof/argument 6;
#X obj 323 145 tof/argument 5;
#X obj 290 128 tof/argument 4;
#X obj 290 106 loadbang;
#X connect 0 0 7 2;
#X connect 0 1 7 3;
#X connect 3 0 0 0;
#X connect 3 0 7 0;
#X connect 4 0 0 1;
#X connect 4 0 7 1;
#X connect 5 0 14 0;
#X connect 7 0 1 0;
#X connect 7 1 2 0;
#X connect 8 0 13 0;
#X connect 9 0 0 3;
#X connect 10 0 0 2;
#X connect 11 0 0 4;
#X connect 12 0 7 4;
#X connect 13 0 12 0;
#X connect 14 0 6 0;
#X connect 15 0 16 0;
#X connect 17 0 8 0;
#X connect 18 0 17 0;
#X connect 19 0 11 0;
#X connect 20 0 9 0;
#X connect 21 0 10 0;
#X connect 22 0 19 0;
#X connect 22 0 20 0;
#X connect 22 0 21 0;
