#N canvas 0 82 1366 662 10;
#X text 10 50 See: http://www.acoustics.hut.fi/~jpekonen/Papers/dafx08/
;
#X text 11 5 Description: "Coefficient Modulated Allpass Filter as
Distortion Effect" as in the DAFx 2008 paper by Jussi Pekonen;
#X obj 15 211 mtl/out~;
#X text 9 68 Author: Frank Barknecht \, 2008;
#X text 10 85 tags: fx~;
#X text 22 261 presets;
#X msg 35 302 /disAp/lop 30 \, /disAp/drive 110 \, /disAp/wet 1;
#X msg 145 160 /wet \$1;
#X floatatom 145 139 5 0 1 0 - - -, f 5;
#X obj 24 323 tof/param route;
#X text 365 184 <-Click on the propeties menu to display params;
#X obj 495 272 cnv 15 200 20 empty empty /disAp/ 2 12 0 8 -258401 -262144
0;
#X obj 498 315 hsl 100 15 0 127 0 0 /disAp/lop /disAp/lop_ lop 105
7 0 8 -262144 -1 -1 6236 1;
#X obj 498 333 hsl 100 15 0 500 0 0 /disAp/drive /disAp/drive_ drive
105 7 0 8 -262144 -1 -1 1386 1;
#X obj 498 297 hsl 100 15 0 1 0 0 /disAp/wet /disAp/wet_ wet 105 7
0 8 -262144 -1 -1 9900 1;
#X msg 24 282 /disAp/lop 80 \, /disAp/drive 70 \, /disAp/wet 1;
#X obj 15 135 tgl 15 0 empty empty empty 17 7 0 10 -262144 -1 -1 1
1;
#N canvas 3 190 450 300 generate~ 0;
#X obj 32 213 osc~ 200;
#X obj 32 89 metro 400;
#X obj 32 175 mtof;
#X obj 104 195 mtof;
#X obj 32 132 + 20;
#X obj 32 111 random 70;
#X floatatom 83 69 5 0 0 0 - - -, f 5;
#X obj 32 261 outlet~;
#X obj 103 261 outlet~;
#X obj 30 14 inlet;
#X obj 104 175 mtl/closestNote 0 2 4 7 9;
#X obj 104 234 *~;
#X obj 31 234 *~;
#X obj 104 214 osc~ 100;
#X obj 32 155 mtl/closestNote 0 2 4 7 9;
#X connect 0 0 12 0;
#X connect 1 0 5 0;
#X connect 2 0 0 0;
#X connect 3 0 13 0;
#X connect 4 0 10 0;
#X connect 4 0 14 0;
#X connect 5 0 4 0;
#X connect 6 0 1 1;
#X connect 9 0 1 0;
#X connect 9 0 11 1;
#X connect 9 0 12 1;
#X connect 10 0 3 0;
#X connect 11 0 8 0;
#X connect 12 0 7 0;
#X connect 13 0 11 0;
#X connect 14 0 2 0;
#X restore 15 160 pd generate~;
#X obj 16 187 mtl/distoAp~ /id disAp 1 300 100;
#X connect 6 0 9 0;
#X connect 7 0 18 2;
#X connect 8 0 7 0;
#X connect 15 0 9 0;
#X connect 16 0 17 0;
#X connect 17 0 18 0;
#X connect 17 1 18 1;
#X connect 18 0 2 0;
#X connect 18 1 2 1;
