#N canvas 1 82 1351 661 10;
#X obj 56 161 inlet~;
#X obj 54 370 outlet~;
#X obj 149 346 outlet~;
#X obj 119 167 inlet~;
#X obj 839 127 inlet params;
#X obj 340 263 tof/param /wet 0 /g slider 0 1;
#X obj 839 173 print PARAM_NOTFOUND;
#X obj 55 319 tof/crossfade~ 2;
#X msg 340 286 \$1 5;
#X obj 340 310 line~;
#X obj 839 149 tof/param route;
#X obj 841 233 tof/param gui;
#X obj 193 152 tof/param /amount 0 /g slider -1 1;
#N canvas 153 112 944 688 waveshaper 0;
#X obj 176 173 inlet~;
#X obj 225 591 outlet~;
#X obj 381 229 inlet;
#X obj 284 295 expr ((2*$f1)/(1-$f1));
#X obj 230 533 expr~ ((1+$f2)*$v1/(1+$f2*abs($v1)));
#X floatatom 278 323 5 0 0 0 - - -, f 5;
#X obj 413 420 * 2;
#X floatatom 464 458 5 0 0 0 - - -, f 5;
#X obj 426 450 /;
#X floatatom 424 493 5 0 0 0 - - -, f 5;
#X msg 438 390 1;
#X obj 455 357 t b f;
#X obj 445 419 -;
#X connect 0 0 4 0;
#X connect 2 0 3 0;
#X connect 2 0 6 0;
#X connect 2 0 11 0;
#X connect 3 0 5 0;
#X connect 4 0 1 0;
#X connect 6 0 8 0;
#X connect 8 0 9 0;
#X connect 8 0 4 1;
#X connect 10 0 12 0;
#X connect 11 0 10 0;
#X connect 11 1 12 1;
#X connect 12 0 7 0;
#X connect 12 0 8 1;
#X restore 89 262 pd waveshaper;
#X obj 840 204 b;
#N canvas 153 112 944 688 waveshaper 0;
#X obj 176 173 inlet~;
#X obj 225 591 outlet~;
#X obj 381 229 inlet;
#X obj 284 295 expr ((2*$f1)/(1-$f1));
#X obj 230 533 expr~ ((1+$f2)*$v1/(1+$f2*abs($v1)));
#X floatatom 278 323 5 0 0 0 - - -, f 5;
#X obj 413 420 * 2;
#X floatatom 464 458 5 0 0 0 - - -, f 5;
#X obj 426 450 /;
#X floatatom 424 493 5 0 0 0 - - -, f 5;
#X msg 438 390 1;
#X obj 455 357 t b f;
#X obj 445 419 -;
#X connect 0 0 4 0;
#X connect 2 0 3 0;
#X connect 2 0 6 0;
#X connect 2 0 11 0;
#X connect 3 0 5 0;
#X connect 4 0 1 0;
#X connect 6 0 8 0;
#X connect 8 0 9 0;
#X connect 8 0 4 1;
#X connect 10 0 12 0;
#X connect 11 0 10 0;
#X connect 11 1 12 1;
#X connect 12 0 7 0;
#X connect 12 0 8 1;
#X restore 133 285 pd waveshaper;
#X obj 232 123 tof/argument 3;
#X obj 201 89 tof/argument 4;
#X obj 201 58 loadbang;
#X connect 0 0 7 0;
#X connect 0 0 13 0;
#X connect 3 0 7 1;
#X connect 3 0 15 0;
#X connect 4 0 10 0;
#X connect 5 0 8 0;
#X connect 7 0 1 0;
#X connect 7 1 2 0;
#X connect 8 0 9 0;
#X connect 9 0 7 4;
#X connect 10 0 6 0;
#X connect 12 0 13 1;
#X connect 12 0 15 1;
#X connect 13 0 7 2;
#X connect 14 0 11 0;
#X connect 15 0 7 3;
#X connect 16 0 5 0;
#X connect 17 0 12 0;
#X connect 18 0 16 0;
#X connect 18 0 17 0;
