#N canvas 1 82 1351 661 10;
#X obj 88 236 inlet~;
#X obj 86 446 outlet~;
#X obj 137 424 outlet~;
#X obj 150 237 inlet~;
#N canvas 1 57 450 300 fx 0;
#X obj 83 182 outlet~;
#X obj 133 182 outlet~;
#X obj 83 42 inlet~;
#X obj 133 42 inlet~;
#X obj 83 102 expr~ tanh($v1*$f2);
#X obj 134 125 expr~ tanh($v1*$f2);
#X obj 231 42 inlet;
#X connect 2 0 4 0;
#X connect 3 0 5 0;
#X connect 4 0 0 0;
#X connect 5 0 1 0;
#X connect 6 0 5 1;
#X connect 6 0 4 1;
#X restore 140 360 pd fx;
#X obj 709 248 inlet params;
#X obj 290 407 tof/param /wet 0 /g slider 0 1;
#X obj 709 294 print PARAM_NOTFOUND;
#X obj 87 394 tof/crossfade~ 2;
#X obj 194 327 tof/param /amount 1 /g slider 1 100;
#X msg 290 435 \$1 5;
#X obj 290 459 line~;
#X obj 709 270 tof/param route;
#X obj 710 322 b;
#X obj 710 351 tof/param gui;
#X obj 290 374 tof/argument 3;
#X obj 207 290 tof/argument 4;
#X obj 207 260 loadbang;
#X connect 0 0 4 0;
#X connect 0 0 8 0;
#X connect 3 0 4 1;
#X connect 3 0 8 1;
#X connect 4 0 8 2;
#X connect 4 1 8 3;
#X connect 5 0 12 0;
#X connect 6 0 10 0;
#X connect 8 0 1 0;
#X connect 8 1 2 0;
#X connect 9 0 4 2;
#X connect 10 0 11 0;
#X connect 11 0 8 4;
#X connect 12 0 7 0;
#X connect 13 0 14 0;
#X connect 15 0 6 0;
#X connect 16 0 9 0;
#X connect 17 0 15 0;
#X connect 17 0 16 0;
