#N canvas 0 82 1366 662 10;
#X obj -15 98 *~ 0.5;
#X obj 66 98 *~ 0.5;
#X text -18 19 Description: A distortion using expr~ tanh;
#X obj -16 165 mtl/out~;
#X obj -16 74 osc~ 110;
#X obj 67 73 osc~ 110;
#X text -17 37 tags: fx~;
#X text 262 122 <-Click on the propeties menu to display params;
#X obj 471 18 cnv 15 200 20 empty empty /tanh/ 2 12 0 8 -258401 -262144
0;
#X obj 471 41 hsl 100 15 0 1 0 0 /tanh/wet /tanh/wet_ wet 105 7 0 8
-262144 -1 -1 4950 1;
#X obj 471 59 hsl 100 15 1 100 0 0 /tanh/amount /tanh/amount_ amount
105 7 0 8 -262144 -1 -1 4900 1;
#X obj -15 123 mtl/distoTanh~ /id tanh 0.5 50;
#X connect 0 0 11 0;
#X connect 1 0 11 1;
#X connect 4 0 0 0;
#X connect 5 0 1 0;
#X connect 11 0 3 0;
#X connect 11 1 3 1;
