#N canvas 1 82 1351 661 10;
#X obj 198 236 inlet~;
#X obj 196 446 outlet~;
#X obj 290 428 outlet~;
#X obj 260 237 inlet~;
#X obj 670 161 inlet params;
#N canvas 275 202 786 441 lofidisto 0;
#X obj -213 210 rpole~;
#X obj -213 185 rzero_rev~;
#X obj -213 -60 inlet~;
#X obj -213 235 outlet~;
#X obj -147 2 lop~ 500;
#X obj -146 143 clip~ -0.9999 0.9999;
#X obj 202 -110 inlet;
#X obj 265 -111 inlet;
#X obj -31 41 pack 0 10;
#X obj -31 63 line~;
#X obj -147 115 *~;
#X text 202 -132 lop;
#X text 265 -131 drive;
#X obj 202 -85 mtof;
#X obj 47 210 rpole~;
#X obj 47 185 rzero_rev~;
#X obj 47 -60 inlet~;
#X obj 47 235 outlet~;
#X obj 113 2 lop~ 500;
#X obj 114 143 clip~ -0.9999 0.9999;
#X obj 229 41 pack 0 10;
#X obj 229 63 line~;
#X obj 113 115 *~;
#X connect 0 0 3 0;
#X connect 1 0 0 0;
#X connect 2 0 1 0;
#X connect 2 0 4 0;
#X connect 4 0 10 0;
#X connect 5 0 0 1;
#X connect 5 0 1 1;
#X connect 6 0 13 0;
#X connect 7 0 8 0;
#X connect 7 0 20 0;
#X connect 8 0 9 0;
#X connect 9 0 10 1;
#X connect 10 0 5 0;
#X connect 13 0 4 1;
#X connect 13 0 18 1;
#X connect 14 0 17 0;
#X connect 15 0 14 0;
#X connect 16 0 15 0;
#X connect 16 0 18 0;
#X connect 18 0 22 0;
#X connect 19 0 14 1;
#X connect 19 0 15 1;
#X connect 20 0 21 0;
#X connect 21 0 22 1;
#X connect 22 0 19 0;
#X restore 246 322 pd lofidisto;
#X obj 197 394 tof/crossfade~ 2;
#X obj 326 233 tof/param /lop 0 /g slider 0 127;
#X obj 329 263 tof/param /drive 0 /g slider 0 500;
#X obj 352 291 tof/param /wet 0 /g slider 0 1;
#X obj 670 207 print PARAM_NOTFOUND;
#X msg 352 315 \$1 5;
#X obj 352 337 line~;
#X obj 670 183 tof/param route;
#X obj 677 258 b;
#X obj 678 287 tof/param gui;
#X obj 391 202 tof/argument 5;
#X obj 360 183 tof/argument 4;
#X obj 326 161 tof/argument 3;
#X obj 326 139 loadbang;
#X connect 0 0 5 0;
#X connect 0 0 6 0;
#X connect 3 0 5 1;
#X connect 3 0 6 1;
#X connect 4 0 13 0;
#X connect 5 0 6 2;
#X connect 5 1 6 3;
#X connect 6 0 1 0;
#X connect 6 1 2 0;
#X connect 7 0 5 2;
#X connect 8 0 5 3;
#X connect 9 0 11 0;
#X connect 11 0 12 0;
#X connect 12 0 6 4;
#X connect 13 0 10 0;
#X connect 14 0 15 0;
#X connect 16 0 7 0;
#X connect 17 0 8 0;
#X connect 18 0 9 0;
#X connect 19 0 16 0;
#X connect 19 0 17 0;
#X connect 19 0 18 0;
