#N canvas 1 82 1351 661 10;
#X obj 92 466 outlet~;
#X text 90 328 NEEDS ZEXY;
#X obj 91 351 inlet~;
#N canvas 501 275 730 557 disto 0;
#X obj -189 264 * -1;
#X msg -47 372 1 \$1;
#X obj -47 401 /;
#X obj 146 65 inlet;
#X obj -215 497 outlet~;
#X obj 117 169 -;
#X text 170 208 CLIPS AND THEN BOOSTS THE SIGNAL;
#X text -213 39 NEEDS ZEXY;
#X obj -217 359 clip~ -1 1;
#X obj -210 113 inlet~;
#X obj -133 59 inlet;
#X obj -123 177 -;
#X obj -52 289 t b f;
#X obj -215 418 *~ 1;
#X obj -43 316 -;
#X obj -47 348 / 2;
#X obj -216 391 +~ 0;
#X obj 116 381 t b f;
#X obj 125 436 +;
#X obj -215 460 +~ 0;
#X obj -6 456 / -2;
#X text -90 57 positive distort level (0-1);
#X text 194 63 negative distort level (0-1);
#X obj -123 218 / 1;
#X obj -13 227 / 1;
#X msg -122 148 1.00001 \$1;
#X msg 118 140 1.00001 \$1;
#X connect 0 0 8 1;
#X connect 0 0 12 0;
#X connect 0 0 18 0;
#X connect 1 0 2 0;
#X connect 2 0 13 1;
#X connect 3 0 25 0;
#X connect 5 0 24 0;
#X connect 8 0 16 0;
#X connect 9 0 8 0;
#X connect 10 0 26 0;
#X connect 11 0 23 0;
#X connect 12 0 14 0;
#X connect 12 1 14 1;
#X connect 13 0 19 0;
#X connect 14 0 15 0;
#X connect 15 0 1 0;
#X connect 16 0 13 0;
#X connect 17 0 18 0;
#X connect 17 1 18 1;
#X connect 18 0 20 0;
#X connect 19 0 4 0;
#X connect 20 0 16 1;
#X connect 23 0 0 0;
#X connect 24 0 8 2;
#X connect 24 0 14 0;
#X connect 24 0 17 0;
#X connect 25 0 11 0;
#X connect 26 0 5 0;
#X restore 176 409 pd disto;
#N canvas 635 186 730 557 disto 0;
#X obj -189 264 * -1;
#X msg -47 372 1 \$1;
#X obj -47 401 /;
#X obj 146 65 inlet;
#X obj -215 497 outlet~;
#X obj 117 169 -;
#X text 170 208 CLIPS AND THEN BOOSTS THE SIGNAL;
#X text -213 39 NEEDS ZEXY;
#X obj -217 359 clip~ -1 1;
#X obj -210 113 inlet~;
#X obj -133 59 inlet;
#X obj -123 177 -;
#X obj -52 289 t b f;
#X obj -215 418 *~ 1;
#X obj -43 316 -;
#X obj -47 348 / 2;
#X obj -216 391 +~ 0;
#X obj 116 381 t b f;
#X obj 125 436 +;
#X obj -215 460 +~ 0;
#X obj -6 456 / -2;
#X text -90 57 positive distort level (0-1);
#X text 195 59 negative distort level (0-1);
#X obj -123 218 / 1;
#X obj -13 227 / 1;
#X msg -122 148 1.00001 \$1;
#X msg 118 140 1.00001 \$1;
#X connect 0 0 8 1;
#X connect 0 0 12 0;
#X connect 0 0 18 0;
#X connect 1 0 2 0;
#X connect 2 0 13 1;
#X connect 3 0 25 0;
#X connect 5 0 24 0;
#X connect 8 0 16 0;
#X connect 9 0 8 0;
#X connect 10 0 26 0;
#X connect 11 0 23 0;
#X connect 12 0 14 0;
#X connect 12 1 14 1;
#X connect 13 0 19 0;
#X connect 14 0 15 0;
#X connect 15 0 1 0;
#X connect 16 0 13 0;
#X connect 17 0 18 0;
#X connect 17 1 18 1;
#X connect 18 0 20 0;
#X connect 19 0 4 0;
#X connect 20 0 16 1;
#X connect 23 0 0 0;
#X connect 24 0 8 2;
#X connect 24 0 14 0;
#X connect 24 0 17 0;
#X connect 25 0 11 0;
#X connect 26 0 5 0;
#X restore 105 412 pd disto;
#X obj 151 351 inlet~;
#X obj 152 466 outlet~;
#X obj 515 270 inlet params;
#X obj 257 446 tof/param /wet 0 /g slider 0 1;
#X obj 515 316 print PARAM_NOTFOUND;
#X obj 92 441 tof/crossfade~ 2;
#X obj 235 287 tof/param /positive 0 /g slider 0 1;
#X obj 256 306 tof/param /negative 0 /g slider 0 1;
#X msg 256 470 \$1 5;
#X obj 256 494 line~;
#X obj 515 292 tof/param route;
#X obj 511 415 b;
#X obj 512 444 tof/param gui;
#X obj 257 418 tof/argument 3;
#X obj 257 395 loadbang;
#X obj 259 254 tof/argument 5;
#X obj 227 224 tof/argument 4;
#X obj 227 201 loadbang;
#X connect 2 0 4 0;
#X connect 2 0 10 0;
#X connect 3 0 10 3;
#X connect 4 0 10 2;
#X connect 5 0 3 0;
#X connect 5 0 10 1;
#X connect 7 0 15 0;
#X connect 8 0 13 0;
#X connect 10 0 0 0;
#X connect 10 1 6 0;
#X connect 11 0 4 1;
#X connect 11 0 3 1;
#X connect 12 0 4 2;
#X connect 12 0 3 2;
#X connect 13 0 14 0;
#X connect 14 0 10 4;
#X connect 15 0 9 0;
#X connect 16 0 17 0;
#X connect 18 0 8 0;
#X connect 19 0 18 0;
#X connect 20 0 12 0;
#X connect 21 0 11 0;
#X connect 22 0 20 0;
#X connect 22 0 21 0;
