#N canvas 1 82 1272 661 10;
#X obj 135 474 outlet~;
#X obj 231 474 outlet~;
#X obj 122 426 tof/crossfade~ 2;
#X obj 1019 221 inlet params;
#X obj 1019 267 print PARAM_NOTFOUND;
#X obj 289 350 tof/param /wet 0 /g slider 0 1;
#X obj 289 395 line~;
#X msg 289 374 \$1 5;
#X obj 1019 243 tof/param route;
#X obj 1012 298 b;
#X obj 1013 327 tof/param gui;
#X obj 71 178 inlet~;
#X obj 117 178 inlet~;
#N canvas 0 50 1272 714 doubling 0;
#X obj 56 153 inlet~;
#X obj 373 335 outlet~;
#N canvas 1 82 1272 661 retard 0;
#X obj 318 285 random 100;
#X obj 338 403 line~;
#X obj 318 253 metro 50;
#X obj 339 228 t b f;
#X obj 318 124 loadbang;
#X obj 428 253 -;
#X obj 446 228 t b f;
#X obj 483 416 +~;
#X obj 356 202 * 5000;
#X obj 336 181 expr 1.01-$f1;
#X obj 458 523 outlet~;
#X obj 331 38 inlet frequency;
#X obj 413 68 inlet amplitude;
#X obj 570 46 inlet offset;
#X obj 333 356 pack f f;
#X connect 0 0 14 0;
#X connect 1 0 7 0;
#X connect 2 0 0 0;
#X connect 3 0 2 0;
#X connect 3 1 2 1;
#X connect 4 0 2 0;
#X connect 5 0 0 1;
#X connect 6 0 5 0;
#X connect 6 1 5 1;
#X connect 7 0 10 0;
#X connect 8 0 3 0;
#X connect 8 0 14 1;
#X connect 9 0 8 0;
#X connect 11 0 9 0;
#X connect 12 0 5 0;
#X connect 13 0 6 0;
#X connect 13 0 7 1;
#X connect 14 0 1 0;
#X restore 445 185 pd retard;
#X obj 222 155 inlet~;
#X obj 47 194 delwrite~ \$0-ligne-g 500;
#X obj 213 196 delwrite~ \$0-ligne-d 500;
#X obj 376 270 vd~ \$0-ligne-g;
#X obj 495 336 outlet~;
#X obj 498 271 vd~ \$0-ligne-g;
#X obj 386 50 inlet frequency;
#X obj 501 47 inlet amplitude;
#X obj 579 114 inlet offset;
#X connect 0 0 4 0;
#X connect 2 0 6 0;
#X connect 2 0 8 0;
#X connect 3 0 5 0;
#X connect 6 0 1 0;
#X connect 8 0 7 0;
#X connect 9 0 2 0;
#X connect 10 0 2 1;
#X connect 11 0 2 2;
#X restore 152 278 pd doubling;
#X obj 247 237 tof/param /offset 0 /g slider 1 50;
#X obj 215 201 tof/param /amplitude 0 /g slider 1 200;
#X obj 191 171 tof/param /frequency 0 /g slider 0 1;
#X obj 290 326 tof/argument 3;
#X obj 290 301 loadbang;
#X obj 246 146 tof/argument 6;
#X obj 221 118 tof/argument 5;
#X obj 187 93 tof/argument 4;
#X obj 187 65 loadbang;
#X connect 2 0 0 0;
#X connect 2 1 1 0;
#X connect 3 0 8 0;
#X connect 5 0 7 0;
#X connect 6 0 2 4;
#X connect 7 0 6 0;
#X connect 8 0 4 0;
#X connect 9 0 10 0;
#X connect 11 0 13 0;
#X connect 11 0 2 0;
#X connect 12 0 13 1;
#X connect 12 0 2 1;
#X connect 13 0 2 2;
#X connect 13 1 2 3;
#X connect 14 0 13 4;
#X connect 15 0 13 3;
#X connect 16 0 13 2;
#X connect 17 0 5 0;
#X connect 18 0 17 0;
#X connect 19 0 14 0;
#X connect 20 0 15 0;
#X connect 21 0 16 0;
#X connect 22 0 19 0;
#X connect 22 0 20 0;
#X connect 22 0 21 0;
