#N canvas 1 82 1351 661 12;
#X obj 31 42 inlet~;
#X obj 81 42 inlet~;
#X obj 31 463 outlet~;
#X obj 101 463 outlet~;
#X obj 37 238 line~;
#X msg 37 212 \$1 5;
#X obj 140 223 line~;
#X msg 149 197 \$1 5;
#N canvas 145 311 597 529 fxecho 0;
#X obj -68 205 inlet~;
#X obj -68 410 outlet~;
#X obj -69 285 +~;
#X obj -6 300 -~;
#X obj 38 85 inlet~;
#X obj 237 91 inlet;
#X obj 176 220 clip 0 1;
#X obj 13 369 *~ 0;
#X text -76 43 Based on a pabstraction in help patch 44;
#X obj 14 239 vd~ \$0fbr;
#X obj 14 395 delwrite~ \$0fbr 1000;
#X connect 0 0 2 0;
#X connect 0 0 3 0;
#X connect 2 0 1 0;
#X connect 3 0 7 0;
#X connect 4 0 9 0;
#X connect 5 0 6 0;
#X connect 6 0 7 1;
#X connect 7 0 10 0;
#X connect 9 0 2 1;
#X connect 9 0 3 1;
#X restore 113 265 pd fxecho;
#N canvas 168 140 597 529 fxecho 0;
#X obj -68 205 inlet~;
#X obj -68 410 outlet~;
#X obj -69 285 +~;
#X obj -6 300 -~;
#X obj 38 85 inlet~;
#X obj 237 91 inlet;
#X obj 176 220 clip 0 1;
#X obj 13 369 *~ 0;
#X text -76 43 Based on a pabstraction in help patch 44;
#X obj 14 239 vd~ \$0fbl;
#X obj 14 395 delwrite~ \$0fbl 1000;
#X connect 0 0 2 0;
#X connect 0 0 3 0;
#X connect 2 0 1 0;
#X connect 3 0 7 0;
#X connect 4 0 9 0;
#X connect 5 0 6 0;
#X connect 6 0 7 1;
#X connect 7 0 10 0;
#X connect 9 0 2 1;
#X connect 9 0 3 1;
#X restore 23 263 pd fxecho;
#X obj 902 92 inlet params;
#X obj 902 138 print PARAM_NOTFOUND;
#X obj 267 345 tof/param /wet 0 /g slider 0 1;
#X obj 267 388 line~;
#X msg 267 367 \$1 5;
#X obj 31 410 tof/crossfade~ 2;
#X obj 180 132 tof/param /delay 100 /g slider 0 5000;
#X obj 190 162 tof/param /strength 0.5 /g slider 0 1;
#X obj 902 114 tof/param route;
#X obj 906 173 b;
#X obj 907 202 tof/param gui;
#X obj 267 314 tof/argument 3;
#X obj 267 288 loadbang;
#X obj 221 101 tof/argument 5;
#X obj 185 83 tof/argument 4;
#X obj 185 57 loadbang;
#X connect 0 0 9 0;
#X connect 0 0 15 0;
#X connect 1 0 8 0;
#X connect 1 0 15 1;
#X connect 4 0 9 1;
#X connect 5 0 4 0;
#X connect 6 0 8 1;
#X connect 7 0 6 0;
#X connect 8 0 15 3;
#X connect 9 0 15 2;
#X connect 10 0 18 0;
#X connect 12 0 14 0;
#X connect 13 0 15 4;
#X connect 14 0 13 0;
#X connect 15 0 2 0;
#X connect 15 1 3 0;
#X connect 16 0 7 0;
#X connect 16 0 5 0;
#X connect 17 0 8 2;
#X connect 17 0 9 2;
#X connect 18 0 11 0;
#X connect 19 0 20 0;
#X connect 21 0 12 0;
#X connect 22 0 21 0;
#X connect 23 0 17 0;
#X connect 24 0 16 0;
#X connect 25 0 23 0;
#X connect 25 0 24 0;
