#N canvas 1 82 1351 661 10;
#N canvas 457 452 466 316 robotfeedback 0;
#X obj 260 117 *~ 0.9;
#X obj 33 118 *~ 0.9;
#X obj 31 173 *~ 0.5;
#X obj 220 179 *~ 0.5;
#X obj 32 89 delwrite~ \$0-elevate 1000;
#X obj 225 88 delwrite~ \$0-trashed 1000;
#X obj 221 152 delread~ \$0-trashed 1000;
#X obj 336 38 inlet;
#X obj 32 65 inlet~;
#X obj 226 61 inlet~;
#X obj 31 200 outlet~;
#X obj 221 206 outlet~;
#X obj 32 149 delread~ \$0-elevate 1000;
#X connect 0 0 5 0;
#X connect 1 0 4 0;
#X connect 2 0 10 0;
#X connect 3 0 11 0;
#X connect 6 0 0 0;
#X connect 6 0 3 0;
#X connect 7 0 6 0;
#X connect 7 0 12 0;
#X connect 8 0 4 0;
#X connect 9 0 5 0;
#X connect 12 0 1 0;
#X connect 12 0 2 0;
#X restore 104 223 pd robotfeedback;
#X obj 82 163 inlet~;
#X obj 132 153 inlet~;
#X obj 100 343 outlet~;
#X obj 150 343 outlet~;
#X obj 101 295 tof/crossfade~ 2;
#X obj 896 40 inlet params;
#X obj 896 86 print PARAM_NOTFOUND;
#X obj 313 309 tof/param /wet 0 /g slider 0 1;
#X obj 313 352 line~;
#X msg 313 331 \$1 5;
#X obj 197 152 tof/param /amount 20 /g slider 1 100;
#X obj 896 62 tof/param route;
#X obj 893 116 b;
#X obj 894 145 tof/param gui;
#X obj 232 113 tof/argument 3;
#X obj 200 88 tof/argument 4;
#X obj 200 64 loadbang;
#X connect 0 0 5 2;
#X connect 0 1 5 3;
#X connect 1 0 0 0;
#X connect 1 0 5 0;
#X connect 2 0 0 1;
#X connect 2 0 5 1;
#X connect 5 0 3 0;
#X connect 5 1 4 0;
#X connect 6 0 12 0;
#X connect 8 0 10 0;
#X connect 9 0 5 4;
#X connect 10 0 9 0;
#X connect 11 0 0 2;
#X connect 12 0 7 0;
#X connect 13 0 14 0;
#X connect 15 0 8 0;
#X connect 16 0 11 0;
#X connect 17 0 15 0;
#X connect 17 0 16 0;
