#N canvas 1 82 1364 661 10;
#X obj 884 228 cnv 15 200 20 empty empty /envelope-generator/ 2 12
0 8 -258401 -262144 0;
#X obj 884 251 nbx 5 14 -1e+37 1e+37 0 0 /envelope-generator/duration
/envelope-generator/duration_ duration 50 8 0 8 -262144 -1 -1 5000
256;
#X obj 884 269 bng 15 250 50 0 /envelope-generator/dump /envelope-generator/dump_
dump 17 7 0 8 -262144 -1 -1;
#X obj 884 287 bng 15 250 50 0 /envelope-generator/reset /envelope-generator/reset_
reset 17 7 0 8 -262144 -1 -1;
#X obj 884 305 bng 15 250 50 0 /envelope-generator/start /envelope-generator/start_
start 17 7 0 8 -262144 -1 -1;
#X text 467 19 You need [ggee];
#X obj 323 228 mtl/seq1x8;
#X obj 295 578 mtl/out~;
#X obj 433 87 loadbang;
#X text 530 138 Right inlet sets pattern;
#X obj 832 95 mtl/clkMaster 120;
#X msg 433 143 1 0 1 1 1 1 1 1;
#X obj 311 74 loadbang;
#X obj 312 96 tgl 15 0 empty empty empty 17 7 0 10 -262144 -1 -1 1
1;
#X obj 310 118 mtl/clkSlave 2 8;
#X text 19 1 envelope generator \;;
#X obj 831 56 r \$0-tempo;
#X obj 955 446 s \$0-tempo;
#X obj 517 205 r \$0-tempo;
#X obj 509 241 mtl/bpmToMs;
#X floatatom 951 391 5 0 0 0 - - -;
#X obj 296 515 *~;
#X msg 500 310 /duration \$1;
#X obj 220 439 osc~ 250;
#X obj 520 280 / 8;
#X text 19 15 inspired from the ArgoPd library http://paresys.pagesperso-orange.fr/ARGOPd/index.html
;
#X text 16 43 tags: control;
#X obj 312 351 mtl/envelope-generator /id envelope-generator;
#X connect 6 0 27 0;
#X connect 8 0 11 0;
#X connect 11 0 6 1;
#X connect 12 0 13 0;
#X connect 13 0 14 0;
#X connect 14 0 6 0;
#X connect 16 0 10 0;
#X connect 18 0 19 0;
#X connect 19 0 24 0;
#X connect 20 0 17 0;
#X connect 21 0 7 0;
#X connect 21 0 7 1;
#X connect 22 0 27 1;
#X connect 23 0 21 0;
#X connect 24 0 22 0;
#X connect 27 0 21 1;
