#N canvas 1 82 1351 661 10;
#X msg 333 223 motion 4 4;
#X msg 314 82 0 50 1 50;
#X text 489 31 reset to default;
#X text 580 81 set the duration in milliseconds (ms);
#X text 405 223 move selected point (values are x and y amounts in
pixels);
#X msg 369 254 dump;
#X obj 598 553 outlet;
#X msg 318 156 sustain 0.2;
#X msg 331 181 release;
#X obj 1011 77 inlet params;
#X obj 1011 123 print PARAM_NOTFOUND;
#X obj 1007 222 b;
#X msg 327 121 duration \$1;
#X obj 528 172 tof/param /dump /g bng;
#X obj 345 30 tof/param /reset /g bng;
#X obj 330 -17 tof/param /start /g bng;
#X obj 1033 433 cnv 15 100 60 empty empty empty 20 12 0 14 -233017
-66577 0;
#X obj 1011 99 tof/param route;
#X obj 1008 251 tof/param gui;
#X obj 260 13 inlet bang;
#X obj 255 475 line;
#X obj 413 84 tof/param /duration 5000 /g nbx;
#X obj 242 501 outlet;
#X obj 308 307 ggee/envgen 203 123 1 0  ;
#X connect 0 0 23 0;
#X connect 1 0 23 0;
#X connect 5 0 23 0;
#X connect 7 0 23 0;
#X connect 8 0 23 0;
#X connect 9 0 17 0;
#X connect 11 0 18 0;
#X connect 12 0 23 0;
#X connect 13 0 5 0;
#X connect 14 0 1 0;
#X connect 15 0 23 0;
#X connect 17 0 10 0;
#X connect 19 0 23 0;
#X connect 20 0 22 0;
#X connect 21 0 12 0;
#X connect 23 0 20 0;
#X connect 23 1 6 0;
#X coords 0 -1 1 1 220 140 2 300 300;
