#N canvas 1 82 1351 661 10;
#X obj 884 228 cnv 15 200 20 empty empty /envelope-generator/ 2 12
0 8 -258401 -262144 0;
#X obj 884 251 nbx 5 14 -1e+37 1e+37 0 0 /envelope-generator/min /envelope-generator/min_
min 50 8 0 8 -262144 -1 -1 5000 256;
#X obj 884 269 bng 15 250 50 0 /envelope-generator/dump /envelope-generator/dump_
dump 17 7 0 8 -262144 -1 -1;
#X obj 884 287 bng 15 250 50 0 /envelope-generator/reset /envelope-generator/reset_
reset 17 7 0 8 -262144 -1 -1;
#X obj 884 305 bng 15 250 50 0 /envelope-generator/start /envelope-generator/start_
start 17 7 0 8 -262144 -1 -1;
#X text 467 19 You need [ggee];
#X obj 323 228 mtl/seq1x8;
#X obj 182 312 openpanel;
#X obj 182 292 bng 15 250 50 0 empty empty empty 17 7 0 10 -262144
-1 -1;
#X text 203 291 You can load a sound file in the internal stereo tables
;
#X msg 181 333 read \$1;
#X text 243 314 (send a bang afterwards to play the loaded/selected
file);
#X obj 295 578 mtl/out~;
#X obj 289 353 mtl/player~;
#X obj 467 162 loadbang;
#X text 581 191 Right inlet sets pattern;
#X obj 845 51 mtl/clkMaster 120;
#X msg 466 193 1 0 1 1 1 1 1 1;
#X obj 324 139 loadbang;
#X obj 325 161 tgl 15 0 empty empty empty 17 7 0 10 -262144 -1 -1 1
1;
#X obj 323 183 mtl/clkSlave 2 8;
#X text 74 7 envelope generator \;;
#X text 75 53 tags: control~;
#X text 74 21 inspired from the ArgoPd library http://paresys.pagesperso-orange.fr/ARGOPd/index.html
;
#X obj 289 397 mtl/envelope-generator~ /id envelope-generator;
#X connect 6 0 13 0;
#X connect 6 0 24 1;
#X connect 7 0 10 0;
#X connect 8 0 7 0;
#X connect 10 0 13 0;
#X connect 13 0 24 0;
#X connect 14 0 17 0;
#X connect 17 0 6 1;
#X connect 18 0 19 0;
#X connect 19 0 20 0;
#X connect 20 0 6 0;
#X connect 24 0 12 0;
#X connect 24 0 12 1;
