#N canvas 1 82 1351 661 10;
#X obj 185 313 inlet~;
#X obj 235 313 inlet~;
#X obj 194 425 outlet~;
#X obj 254 426 outlet~;
#X obj 193 383 tof/crossfade~ 2;
#X obj 798 43 inlet params;
#X obj 798 89 print PARAM_NOTFOUND;
#X obj 323 293 tof/param /wet 0 /g slider 0 1;
#X obj 331 357 line~;
#X msg 323 315 \$1 5;
#X obj 798 65 tof/param route;
#X obj 791 120 b;
#X obj 792 149 tof/param gui;
#N canvas 1 82 1272 661 flanger 0;
#X obj 75 293 inlet~;
#X obj 121 291 inlet~;
#X obj 189 437 *~;
#X obj 312 437 *~;
#X obj 381 242 * 10;
#X obj 220 333 phasor~;
#X obj 189 383 cos~;
#X obj 311 388 cos~;
#X obj 189 415 +~ 1;
#X obj 312 412 +~ 1;
#N canvas 518 513 473 213 feedback 0;
#X obj 92 18 inlet~;
#X obj 278 26 inlet~;
#X obj 19 142 outlet~;
#X obj 191 154 outlet~;
#X obj 58 88 *~;
#X obj 232 94 *~;
#X obj 58 112 delwrite~ \$0-flanger-l 1000;
#X obj 233 115 delwrite~ \$0-flanger-r 1000;
#X obj 18 49 vd~ \$0-flanger-l;
#X obj 193 55 vd~ \$0-flanger-r;
#X obj 18 22 inlet~;
#X obj 192 25 inlet~;
#X obj 300 147 block~ 4 1 1;
#X obj 374 28 inlet~;
#X connect 0 0 6 0;
#X connect 1 0 7 0;
#X connect 4 0 6 0;
#X connect 5 0 7 0;
#X connect 8 0 4 0;
#X connect 8 0 2 0;
#X connect 9 0 5 0;
#X connect 9 0 3 0;
#X connect 10 0 8 0;
#X connect 11 0 9 0;
#X connect 13 0 5 1;
#X connect 13 0 4 1;
#X restore 207 505 pd feedback;
#X obj 310 365 +~ 0.06;
#X obj 190 461 +~ 0.12;
#X obj 313 460 +~ 0.12;
#X obj 163 554 outlet~;
#X obj 255 570 outlet~;
#X msg 478 396 \$1 20;
#X obj 480 419 line~;
#X obj 478 354 * 0.9;
#X obj 479 374 + 0.05;
#X obj 216 276 expr pow($f1 \, 2);
#X obj 218 304 + 0.1;
#X obj 474 321 tof/param /feedback 0 /g slider 0 50;
#X obj 392 214 tof/param /width 0 /g slider 0 100;
#X obj 277 175 tof/param /frequence 20 /g slider 0 100;
#X obj 377 302 line~;
#X msg 375 273 \$1 5;
#X obj 358 151 tof/argument 6;
#X obj 320 126 tof/argument 5;
#X obj 287 93 tof/argument 4;
#X obj 286 64 loadbang;
#X connect 0 0 10 1;
#X connect 1 0 10 3;
#X connect 2 0 12 0;
#X connect 3 0 13 0;
#X connect 4 0 26 0;
#X connect 5 0 6 0;
#X connect 5 0 11 0;
#X connect 6 0 8 0;
#X connect 7 0 9 0;
#X connect 8 0 2 0;
#X connect 9 0 3 0;
#X connect 10 0 14 0;
#X connect 10 1 15 0;
#X connect 11 0 7 0;
#X connect 12 0 10 0;
#X connect 13 0 10 2;
#X connect 16 0 17 0;
#X connect 17 0 10 4;
#X connect 18 0 19 0;
#X connect 19 0 16 0;
#X connect 20 0 21 0;
#X connect 21 0 5 0;
#X connect 22 0 18 0;
#X connect 23 0 4 0;
#X connect 24 0 20 0;
#X connect 25 0 3 1;
#X connect 25 0 2 1;
#X connect 26 0 25 0;
#X connect 27 0 22 0;
#X connect 28 0 23 0;
#X connect 29 0 24 0;
#X connect 30 0 27 0;
#X connect 30 0 28 0;
#X connect 30 0 29 0;
#X restore 240 349 pd flanger;
#X obj 323 267 tof/argument 3;
#X obj 323 243 loadbang;
#X connect 0 0 4 0;
#X connect 0 0 13 0;
#X connect 1 0 4 1;
#X connect 1 0 13 1;
#X connect 4 0 2 0;
#X connect 4 1 3 0;
#X connect 5 0 10 0;
#X connect 7 0 9 0;
#X connect 8 0 4 4;
#X connect 9 0 8 0;
#X connect 10 0 6 0;
#X connect 11 0 12 0;
#X connect 13 0 4 2;
#X connect 13 1 4 3;
#X connect 14 0 7 0;
#X connect 15 0 14 0;
