#N canvas 1 82 1351 661 10;
#X obj 70 193 inlet~;
#X obj 120 193 inlet~;
#X obj 79 305 outlet~;
#X obj 139 306 outlet~;
#X obj 78 263 tof/crossfade~ 2;
#X obj 548 171 inlet params;
#X obj 548 217 print PARAM_NOTFOUND;
#X obj 208 173 tof/param /wet 0 /g slider 0 1;
#X obj 216 237 line~;
#X msg 208 195 \$1 5;
#X obj 548 193 tof/param route;
#X obj 541 248 b;
#X obj 542 277 tof/param gui;
#N canvas 1 82 1272 661 flanger 0;
#X floatatom 153 29 5 0.001 1 0 Frequency - -, f 5;
#X obj 267 20 sig~ 0.1;
#X obj 302 203 *~;
#X floatatom 423 194 5 0 0 0 Depth - -, f 5;
#X obj 302 228 +~ 1;
#X obj 266 50 phasor~;
#X obj 280 82 *~ -1;
#X obj 279 106 +~ 1;
#X obj 279 138 min~;
#X obj 278 164 *~ 2;
#X obj 155 -116 vsl 15 128 0 1 0 0 empty empty empty 0 -9 0 10 -262144
-1 -1 0 1;
#X obj 698 -68 inlet~;
#X obj 237 339 outlet~;
#X obj 267 -11 tof/param /frequence 1 /g slider 0 1;
#X obj 463 97 tof/param /depth 0 /g slider 0 10;
#X msg 463 119 \$1 5;
#X obj 459 145 line~;
#X obj 900 -68 inlet~;
#X obj 692 -25 delwrite~ \$0-flange-g 1000;
#X obj 893 -25 delwrite~ \$0-flange-d 1000;
#X obj 237 308 vd~ \$0-flange-g;
#X obj 370 345 outlet~;
#X obj 370 314 vd~ \$0-flange-d;
#X obj 379 -35 tof/argument 5;
#X obj 349 -58 tof/argument 4;
#X obj 349 -86 loadbang;
#X connect 0 0 1 0;
#X connect 1 0 5 0;
#X connect 2 0 4 0;
#X connect 3 0 2 1;
#X connect 4 0 20 0;
#X connect 4 0 22 0;
#X connect 5 0 6 0;
#X connect 5 0 8 1;
#X connect 6 0 7 0;
#X connect 7 0 8 0;
#X connect 8 0 9 0;
#X connect 9 0 2 0;
#X connect 10 0 0 0;
#X connect 11 0 18 0;
#X connect 13 0 1 0;
#X connect 14 0 15 0;
#X connect 15 0 16 0;
#X connect 16 0 2 1;
#X connect 17 0 19 0;
#X connect 20 0 12 0;
#X connect 22 0 21 0;
#X connect 23 0 14 0;
#X connect 24 0 13 0;
#X connect 25 0 23 0;
#X connect 25 0 24 0;
#X restore 125 229 pd flanger;
#X obj 209 139 tof/argument 3;
#X obj 210 114 loadbang;
#X connect 0 0 4 0;
#X connect 0 0 13 0;
#X connect 1 0 4 1;
#X connect 1 0 13 1;
#X connect 4 0 2 0;
#X connect 4 1 3 0;
#X connect 5 0 10 0;
#X connect 7 0 9 0;
#X connect 8 0 4 4;
#X connect 9 0 8 0;
#X connect 10 0 6 0;
#X connect 11 0 12 0;
#X connect 13 0 4 2;
#X connect 13 1 4 3;
#X connect 14 0 7 0;
#X connect 15 0 14 0;
