#N canvas 0 25 1016 659 10;
#X obj 47 186 tof/param /porte1 0 /g tgl;
#X obj 252 243 tof/param /porte2 0 /g tgl;
#X obj 35 166 inlet porte1;
#X obj 236 218 inlet porte2;
#X obj 159 46 cnv 15 156 25 empty empty FULL_ADDER___ 4 12 0 14 -1
-262144 0;
#X obj 394 280 inlet carry_in;
#X obj 408 305 tof/param /carry_in 0 /g tgl;
#X obj 394 394 outlet sum_out;
#X obj 112 411 outlet carry_out;
#X obj 672 236 inlet params;
#X obj 672 282 print PARAM_NOTFOUND;
#X obj 672 258 tof/param route;
#X obj 665 313 b;
#X obj 666 342 tof/param gui;
#X obj 117 385 mtl/or /id \$0-or;
#X obj 49 328 mtl/half_adder /id \$0-half_adder;
#X obj 204 356 mtl/half_adder /id \$0-half_adder-1;
#X connect 0 0 15 0;
#X connect 1 0 15 1;
#X connect 2 0 15 0;
#X connect 3 0 15 1;
#X connect 5 0 16 1;
#X connect 6 0 16 1;
#X connect 9 0 11 0;
#X connect 11 0 10 0;
#X connect 12 0 13 0;
#X connect 14 0 8 0;
#X connect 15 0 14 0;
#X connect 15 1 16 0;
#X connect 16 0 14 1;
#X connect 16 1 7 0;
