#N canvas 1 82 1351 661 10;
#X obj 105 560 pack f f f f;
#X obj 105 465 t b f;
#X obj 151 495 t b f;
#X obj 202 528 t b f;
#X obj 202 504 / 100;
#X obj 151 470 / 100;
#X obj 105 442 / 100;
#X obj 44 410 / 100;
#X obj 105 588 s \$0-tcolor;
#X obj 44 383 tof/param /tcolorR 100 /g slider 0 100;
#X obj 151 444 tof/param /tcolorB 100 /g slider 0 100;
#X obj 202 480 tof/param /tcolorA 100 /g slider 0 100;
#X obj 522 67 inlet params;
#X obj 522 113 print PARAM_NOTFOUND;
#X obj 522 89 tof/param route;
#X obj 525 138 b;
#X obj 525 163 tof/param gui;
#X obj -234 285 tof/param /on 0 /g tgl 0 1;
#X obj -234 307 s \$0-vis;
#X obj -234 498 s \$0-tsize;
#X obj -233 379 tof/param /drag 0 /g tgl 0 1;
#X obj -233 401 s \$0-drag;
#X obj -233 354 s \$0-reset;
#X obj -233 332 tof/param /reset /g bng;
#N canvas 1 82 1351 661 display 0;
#X obj 528 317 color 1 1 1 0.5;
#X obj 679 223 r \$0-pos;
#X obj 630 294 r \$0-tcolor;
#X obj 281 241 r \$0-name;
#X obj 577 75 r \$0-vis;
#X obj 566 405 r \$0-tsize;
#X msg 336 219 justify center base;
#X msg 318 291 text \$1;
#X msg 355 189 5;
#X obj 528 267 translate 1 \$2 \$3 0.01;
#X msg 679 245 \$1 \$2 0.01;
#X obj 318 267 symbol \$2;
#X obj 528 129 alpha;
#X obj 513 351 r \$0-nombre;
#X msg 513 375 string \$1;
#X obj 513 467 outlet;
#X msg 373 159 font ./fonts/invaders.from.space/invaders.from.space.ttf;
#X obj 318 72 initbang;
#X obj 528 76 inlet;
#X obj 528 103 spigot;
#X obj 528 238 rotate;
#X msg 561 179 \$1 \$2 \$3;
#X obj 544 203 r \$0-angle;
#X obj 561 157 r \$0-rota;
#X obj 512 439 text3d 0;
#X obj 318 98 t b b b b;
#X connect 0 0 24 0;
#X connect 1 0 10 0;
#X connect 2 0 0 1;
#X connect 3 0 11 0;
#X connect 4 0 19 1;
#X connect 5 0 24 1;
#X connect 6 0 24 0;
#X connect 7 0 24 0;
#X connect 8 0 24 1;
#X connect 9 0 0 0;
#X connect 10 0 9 2;
#X connect 11 0 7 0;
#X connect 12 0 20 0;
#X connect 13 0 14 0;
#X connect 14 0 24 0;
#X connect 16 0 24 0;
#X connect 17 0 25 0;
#X connect 18 0 19 0;
#X connect 19 0 12 0;
#X connect 20 0 9 0;
#X connect 21 0 20 2;
#X connect 22 0 20 1;
#X connect 23 0 21 0;
#X connect 24 0 15 0;
#X connect 25 0 11 0;
#X connect 25 1 6 0;
#X connect 25 2 8 0;
#X connect 25 3 16 0;
#X restore 407 111 pd display;
#X obj -161 106 s \$0-name;
#X obj -118 194 s \$0-xy;
#X obj -65 147 r \$0-vis;
#X obj -118 172 spigot 1;
#X obj -42 40 r \$2;
#X obj -202 126 s \$0-pos;
#X obj -239 36 inlet;
#X obj -78 102 s \$0-nombre;
#X obj 407 141 outlet;
#X obj 84 192 pack;
#X obj 84 165 t b f;
#X obj 37 91 tof/param /positionX 0 /g slider -160 160;
#X obj 84 120 tof/param /positionY 0 /g slider -160 160;
#X obj 84 142 / 10;
#X obj 37 113 / 10;
#X obj 84 215 s \$0-pos;
#X obj -234 476 tof/param /tsize 100 /g slider 0 150, f 37;
#X obj -193 36 r \$2-bang;
#X obj -118 38 r \$0-bang;
#X obj -243 75 route bang pos name list float;
#X obj -243 151 s \$0-input;
#N canvas 1 82 1351 661 test_position 0;
#X obj 498 402 spigot;
#X msg 498 451 pos \$1 \$2;
#X obj 498 428 spigot 0;
#X obj 555 401 r \$0-drag;
#X obj 498 320 r \$0-xy;
#X obj 591 377 tgl 15 0 empty empty empty 17 7 0 10 -262144 -1 -1 0
1;
#X obj 522 352 unpack f f f;
#X obj 498 474 s \$0-bang;
#X connect 0 0 2 0;
#X connect 1 0 7 0;
#X connect 2 0 1 0;
#X connect 3 0 2 1;
#X connect 4 0 6 0;
#X connect 4 0 0 0;
#X connect 5 0 0 1;
#X connect 6 2 5 0;
#X restore -234 523 pd test_position;
#X obj 525 193 initbang;
#X obj 525 216 tof/argument 2;
#X obj 525 240 s \$0-name;
#X obj 37 18 initbang;
#X obj 37 42 tof/argument 3;
#X obj 84 65 tof/argument 4;
#X obj 44 252 initbang;
#X obj 44 277 tof/argument 6;
#X obj 105 303 tof/argument 7;
#X obj 151 331 tof/argument 8;
#X obj 204 358 tof/argument 9;
#X obj -234 426 initbang;
#X obj -234 451 tof/argument 5;
#X obj 105 418 tof/param /tcolorV 100 /g slider 0 100;
#X obj 106 20 r \$0-reset;
#X obj 116 251 r \$0-reset;
#X obj -166 426 r \$0-reset;
#X obj -234 260 tof/argument 10;
#X obj -234 230 initbang;
#X obj 407 80 inlet;
#X obj 605 494 t b f;
#X obj 563 422 tof/param /rotationX 0 /g slider -160 160;
#X obj 582 447 tof/param /rotationY 0 /g slider -160 160;
#X obj 606 471 / 10;
#X obj 570 473 / 10;
#X obj 666 537 t b f;
#X obj 663 487 tof/param /rotationZ 0 /g slider -160 160;
#X obj 661 513 / 10;
#X obj 618 585 pack f f f;
#X obj 620 613 s \$0-rota;
#X obj 555 313 initbang;
#X obj 627 312 r \$0-reset;
#X obj 555 338 tof/argument 10;
#X obj 616 364 tof/argument 11;
#X obj 662 392 tof/argument 12;
#X obj -233 597 tof/param /angle 0 /g slider -360 360;
#X obj -233 625 s \$0-angle;
#X obj -233 547 initbang;
#X obj -165 547 r \$0-reset;
#X obj -233 572 tof/argument 13;
#X connect 0 0 8 0;
#X connect 1 0 0 0;
#X connect 1 1 0 1;
#X connect 2 0 0 0;
#X connect 2 1 0 2;
#X connect 3 0 0 0;
#X connect 3 1 0 3;
#X connect 4 0 3 0;
#X connect 5 0 2 0;
#X connect 6 0 1 0;
#X connect 7 0 0 0;
#X connect 9 0 7 0;
#X connect 10 0 5 0;
#X connect 11 0 4 0;
#X connect 12 0 14 0;
#X connect 14 0 13 0;
#X connect 15 0 16 0;
#X connect 17 0 18 0;
#X connect 20 0 21 0;
#X connect 23 0 22 0;
#X connect 24 0 33 0;
#X connect 27 0 28 1;
#X connect 28 0 26 0;
#X connect 29 0 44 0;
#X connect 31 0 44 0;
#X connect 34 0 40 0;
#X connect 35 0 34 0;
#X connect 35 1 34 1;
#X connect 36 0 39 0;
#X connect 37 0 38 0;
#X connect 38 0 35 0;
#X connect 39 0 34 0;
#X connect 41 0 19 0;
#X connect 42 0 44 0;
#X connect 43 0 44 0;
#X connect 44 0 45 0;
#X connect 44 1 30 0;
#X connect 44 2 25 0;
#X connect 44 3 28 0;
#X connect 44 4 32 0;
#X connect 47 0 48 0;
#X connect 48 0 49 0;
#X connect 50 0 51 0;
#X connect 50 0 52 0;
#X connect 51 0 36 0;
#X connect 52 0 37 0;
#X connect 53 0 54 0;
#X connect 53 0 55 0;
#X connect 53 0 56 0;
#X connect 53 0 57 0;
#X connect 54 0 9 0;
#X connect 55 0 60 0;
#X connect 56 0 10 0;
#X connect 57 0 11 0;
#X connect 58 0 59 0;
#X connect 59 0 41 0;
#X connect 60 0 6 0;
#X connect 61 0 51 0;
#X connect 61 0 52 0;
#X connect 62 0 54 0;
#X connect 62 0 55 0;
#X connect 62 0 56 0;
#X connect 62 0 57 0;
#X connect 63 0 59 0;
#X connect 64 0 17 0;
#X connect 65 0 64 0;
#X connect 66 0 24 0;
#X connect 67 0 75 0;
#X connect 67 1 75 1;
#X connect 68 0 71 0;
#X connect 69 0 70 0;
#X connect 70 0 67 0;
#X connect 71 0 75 0;
#X connect 72 0 75 0;
#X connect 72 1 75 2;
#X connect 73 0 74 0;
#X connect 74 0 72 0;
#X connect 75 0 76 0;
#X connect 77 0 79 0;
#X connect 77 0 80 0;
#X connect 77 0 81 0;
#X connect 78 0 79 0;
#X connect 78 0 80 0;
#X connect 78 0 81 0;
#X connect 79 0 68 0;
#X connect 80 0 69 0;
#X connect 81 0 73 0;
#X connect 82 0 83 0;
#X connect 84 0 86 0;
#X connect 85 0 86 0;
#X connect 86 0 82 0;
