#N canvas 0 82 1366 662 10;
#X obj 893 41 inlet params;
#X obj 893 87 print PARAM_NOTFOUND;
#X obj 893 63 tof/param route;
#X obj 896 112 b;
#X obj 897 141 tof/param gui;
#X text 896 179 author : raphael isdant http://www.raphaelisdant.fr
;
#X obj 194 449 curve 2;
#X obj 194 345 translateXYZ 1 0 0;
#X msg 213 413 -10 10 0;
#X msg 277 413 -10 -10 0;
#X obj 38 451 curve 2;
#X obj 175 195 spigot;
#X obj 213 380 loadbang;
#X obj 612 491 curve 2;
#X obj 473 499 curve 2;
#X obj 524 182 spigot;
#X obj 517 415 loadbang;
#X obj 524 79 gemhead 0;
#X obj 175 128 alpha;
#X msg 547 460 10 0 10;
#X obj 473 352 translateXYZ 0 0 -1;
#X msg 492 460 -10 0 10;
#X msg 631 455 -10 0 -10;
#X msg 695 455 -10 0 10;
#X msg 112 412 10 10 0;
#X msg 56 412 -10 10 0;
#X obj 524 111 alpha;
#X obj 175 149 color 0.5 0.5 0.5 0.5;
#X obj 473 320 repeat 20;
#X obj 194 313 repeat 20;
#X obj 38 243 repeat 20;
#X obj 612 315 repeat 20;
#X obj 175 216 t a a a;
#X obj 524 135 color 0.5 0.5 0.5 0.5;
#X obj 612 281 GEMglPushMatrix;
#X obj 612 367 translateXYZ 1 0 0;
#X obj 473 292 GEMglPopMatrix;
#X obj 214 261 GEMglPushMatrix;
#X obj 38 216 GEMglPopMatrix;
#X obj 524 203 t a a a a a;
#X obj 38 284 translateXYZ 0 -1 0;
#X obj 172 98 separator;
#X obj 587 234 GEMglDisable;
#X obj 656 208 GLdefine GL_LIGHTING;
#X obj 656 185 loadbang;
#X obj 524 257 GEMglEnable;
#X obj 635 181 bng 15 250 50 0 empty empty empty 17 7 0 10 -262144
-1 -1;
#X obj 208 75 tof/param /on 1 /g tgl 0 1;
#X connect 0 0 2 0;
#X connect 2 0 1 0;
#X connect 3 0 4 0;
#X connect 7 0 6 0;
#X connect 8 0 6 1;
#X connect 9 0 6 2;
#X connect 11 0 32 0;
#X connect 12 0 9 0;
#X connect 12 0 8 0;
#X connect 12 0 25 0;
#X connect 12 0 24 0;
#X connect 15 0 39 0;
#X connect 16 0 23 0;
#X connect 16 0 22 0;
#X connect 16 0 19 0;
#X connect 16 0 21 0;
#X connect 17 0 26 0;
#X connect 18 0 27 0;
#X connect 19 0 14 2;
#X connect 20 0 14 0;
#X connect 21 0 14 1;
#X connect 22 0 13 1;
#X connect 23 0 13 2;
#X connect 24 0 10 2;
#X connect 25 0 10 1;
#X connect 26 0 33 0;
#X connect 27 0 11 0;
#X connect 28 0 20 0;
#X connect 29 0 7 0;
#X connect 30 0 40 0;
#X connect 31 0 35 0;
#X connect 32 1 38 0;
#X connect 32 2 37 0;
#X connect 33 0 15 0;
#X connect 34 0 31 0;
#X connect 35 0 13 0;
#X connect 36 0 28 0;
#X connect 37 0 29 0;
#X connect 38 0 30 0;
#X connect 39 1 36 0;
#X connect 39 2 34 0;
#X connect 39 3 41 0;
#X connect 40 0 10 0;
#X connect 41 0 18 0;
#X connect 43 0 42 1;
#X connect 43 0 45 1;
#X connect 44 0 43 0;
#X connect 46 0 43 0;
#X connect 47 0 15 1;
#X connect 47 0 11 1;
#X coords 0 662 1 661 60 20 0;
