#N canvas 1 85 1009 658 10;
#N canvas 1 82 554 661 traitement 0;
#X obj 297 -32 inlet alpha/colorRGBA;
#X obj 66 -30 inlet render;
#X obj 142 277 pix_snap2tex 0 0 320 240;
#X obj 462 192 value GEMSH;
#X obj 370 192 value GEMSW;
#X obj 370 153 t b b;
#X obj 372 67 r GEMS;
#X obj 392 237 pack;
#X obj 142 310 alpha;
#X obj 297 34 clip 0 1;
#X obj 142 335 colorRGB 1 1 1 0.5;
#X obj 456 -29 initbang;
#X obj 456 -7 \$3;
#X obj 370 125 initbang;
#X obj 297 62 pow 0.1;
#X obj 136 148 t b;
#X obj 23 34 gemhead 52;
#X obj 135 39 gemhead 53;
#X obj 142 363 rectangle 5.33 4;
#X connect 0 0 9 0;
#X connect 1 0 16 0;
#X connect 1 0 17 0;
#X connect 2 0 8 0;
#X connect 3 0 7 1;
#X connect 4 0 7 0;
#X connect 5 0 4 0;
#X connect 5 1 3 0;
#X connect 6 0 5 0;
#X connect 7 0 2 2;
#X connect 8 0 10 0;
#X connect 9 0 14 0;
#X connect 10 0 18 0;
#X connect 11 0 12 0;
#X connect 12 0 9 0;
#X connect 13 0 5 0;
#X connect 14 0 10 4;
#X connect 15 0 2 0;
#X connect 16 0 2 0;
#X connect 17 0 15 0;
#X restore 179 360 pd traitement;
#X obj 699 198 inlet params;
#X obj 699 244 print PARAM_NOTFOUND;
#X obj 699 220 tof/param route;
#X obj 702 269 b;
#X obj 703 298 tof/param gui;
#X obj 179 176 tof/param /feedback-onoff 0 /g tgl;
#X obj 267 248 tof/param /feedback-amount 0.1 /g slider 0 1;
#X obj 179 125 loadbang;
#X obj 179 150 tof/argument 3;
#X obj 267 224 tof/argument 4;
#X connect 1 0 3 0;
#X connect 3 0 2 0;
#X connect 4 0 5 0;
#X connect 6 0 0 0;
#X connect 7 0 0 1;
#X connect 8 0 9 0;
#X connect 8 0 10 0;
#X connect 9 0 6 0;
#X connect 10 0 7 0;
