#N canvas 1 85 1009 658 10;
#X obj 686 152 inlet params;
#X obj 686 198 print PARAM_NOTFOUND;
#X obj 686 174 tof/param route;
#X obj 689 223 b;
#X obj 690 252 tof/param gui;
#X obj 215 452 pix_delay 100;
#X obj 176 479 pix_add;
#X obj 169 216 inlet;
#X obj 274 550 outlet;
#X obj 195 409 spigot;
#X obj 180 291 spigot;
#X obj 367 193 tof/param /delay-mode 0 /g radio;
#X obj 357 266 route 0 1 2;
#X msg 316 310 1;
#X obj 372 450 pix_delay 100;
#X obj 352 407 spigot;
#X msg 315 331 0;
#X obj 521 445 pix_delay 100;
#X obj 501 402 spigot;
#X msg 381 304 1;
#X msg 380 325 0;
#X msg 420 310 1;
#X msg 422 342 0;
#X obj 262 132 tof/param /delay-onoff 0 /g tgl;
#X obj 333 477 pix_diff;
#X obj 471 477 pix_subtract;
#X obj 291 156 tof/param /frames 10 /g slider 0 100;
#X obj 235 48 loadbang;
#X obj 234 74 \$3;
#X obj 322 64 loadbang;
#X obj 321 88 \$4;
#X obj 447 41 loadbang;
#X obj 446 65 \$5;
#X connect 0 0 2 0;
#X connect 2 0 1 0;
#X connect 3 0 4 0;
#X connect 5 0 6 1;
#X connect 6 0 8 0;
#X connect 7 0 10 0;
#X connect 9 0 5 0;
#X connect 9 0 6 0;
#X connect 10 0 9 0;
#X connect 10 0 15 0;
#X connect 10 0 18 0;
#X connect 11 0 12 0;
#X connect 12 0 13 0;
#X connect 12 0 16 0;
#X connect 12 1 19 0;
#X connect 12 2 21 0;
#X connect 13 0 9 1;
#X connect 13 0 16 0;
#X connect 14 0 24 1;
#X connect 15 0 14 0;
#X connect 15 0 24 0;
#X connect 16 0 15 1;
#X connect 16 0 18 1;
#X connect 17 0 25 1;
#X connect 18 0 17 0;
#X connect 18 0 25 0;
#X connect 19 0 15 1;
#X connect 20 0 9 1;
#X connect 20 0 18 1;
#X connect 21 0 18 1;
#X connect 22 0 15 1;
#X connect 22 0 9 1;
#X connect 23 0 10 1;
#X connect 24 0 8 0;
#X connect 25 0 8 0;
#X connect 26 0 5 1;
#X connect 26 0 14 1;
#X connect 26 0 17 1;
#X connect 27 0 28 0;
#X connect 28 0 10 1;
#X connect 29 0 30 0;
#X connect 30 0 5 1;
#X connect 30 0 14 1;
#X connect 30 0 17 1;
#X connect 31 0 32 0;
#X connect 32 0 12 0;
