#N canvas 1 82 1351 661 10;
#N canvas 635 281 487 526 gas 0;
#X obj 47 267 *~;
#X obj 63 127 line~;
#X obj 134 155 noise~;
#X msg 137 103 0;
#X obj 205 129 line~;
#X obj 78 290 +~;
#X obj 82 338 biquad~;
#X msg 95 317 1.84252 -0.866142 -0.0787402 -0.677165;
#X obj 63 155 *~;
#X obj 134 200 *~;
#X obj 64 177 *~ 10000;
#X obj 64 223 *~ 10000;
#X obj 136 448 bp~ 400 7;
#X obj 146 431 clip~ -0.1 0.2;
#X obj 79 448 hip~ 30;
#X obj 205 156 *~;
#X obj 135 223 *~ 0.02;
#X obj 80 484 *~ 0.3;
#X obj 148 280 loadbang;
#X obj 65 244 osc~;
#X obj 64 201 osc~;
#X obj 135 177 bp~ 900 1;
#X obj 205 178 *~;
#X obj 81 359 *~ 0.1;
#X obj 9 386 bp~ 400 1;
#X obj 81 386 bp~ 800 1;
#X obj 164 387 bp~ 1600 1;
#X obj 111 32 t b b b;
#X obj 32 449 *~ 0.9;
#X text 75 -12 AK47 gas venting 2 + reverb;
#X obj 99 520 outlet~;
#X obj 118 11 inlet;
#X obj 76 77 f 10;
#X obj 227 77 f 2000;
#X msg 205 107 1 0 \, 0 \$1;
#X msg 62 104 1 0 \, 0 \$1;
#X obj 329 32 inlet;
#X obj 435 37 inlet;
#X floatatom 297 184 5 0 0 0 - - -, f 5;
#X connect 0 0 5 0;
#X connect 1 0 8 0;
#X connect 1 0 8 1;
#X connect 1 0 0 0;
#X connect 2 0 21 0;
#X connect 3 0 19 1;
#X connect 3 0 20 1;
#X connect 4 0 15 0;
#X connect 4 0 15 1;
#X connect 5 0 6 0;
#X connect 6 0 23 0;
#X connect 7 0 6 0;
#X connect 8 0 10 0;
#X connect 9 0 16 0;
#X connect 10 0 20 0;
#X connect 11 0 19 0;
#X connect 12 0 17 0;
#X connect 13 0 14 0;
#X connect 13 0 12 0;
#X connect 14 0 17 0;
#X connect 15 0 22 0;
#X connect 15 0 22 1;
#X connect 16 0 5 1;
#X connect 17 0 30 0;
#X connect 18 0 7 0;
#X connect 19 0 0 1;
#X connect 20 0 11 0;
#X connect 21 0 9 0;
#X connect 22 0 9 1;
#X connect 23 0 24 0;
#X connect 23 0 25 0;
#X connect 23 0 26 0;
#X connect 24 0 13 0;
#X connect 24 0 28 0;
#X connect 25 0 13 0;
#X connect 25 0 28 0;
#X connect 26 0 13 0;
#X connect 26 0 28 0;
#X connect 27 0 32 0;
#X connect 27 1 3 0;
#X connect 27 2 33 0;
#X connect 28 0 17 0;
#X connect 31 0 27 0;
#X connect 32 0 35 0;
#X connect 33 0 34 0;
#X connect 34 0 4 0;
#X connect 35 0 1 0;
#X connect 36 0 32 1;
#X connect 36 0 38 0;
#X connect 37 0 33 1;
#X restore 155 369 pd gas;
#X obj 156 396 outlet~;
#X obj 155 332 t b f;
#X obj 117 291 route bang float;
#X obj 76 164 inlet trig;
#X msg 113 319 10;
#X obj 476 83 inlet params;
#X obj 476 129 print PARAM_NOTFOUND;
#X obj 476 105 tof/param route;
#X obj 477 160 b;
#X obj 478 189 tof/param gui;
#X obj 161 216 tof/param /trigger 0 /g slider 0 1;
#X obj 192 243 tof/param /reverb 0 /g slider 10 2000;
#X obj 193 195 tof/argument 4;
#X obj 161 176 tof/argument 3;
#X obj 161 153 loadbang;
#X connect 0 0 1 0;
#X connect 2 0 0 0;
#X connect 2 1 0 1;
#X connect 3 0 5 0;
#X connect 3 1 2 0;
#X connect 4 0 3 0;
#X connect 5 0 2 0;
#X connect 6 0 8 0;
#X connect 8 0 7 0;
#X connect 9 0 10 0;
#X connect 11 0 3 0;
#X connect 12 0 0 2;
#X connect 13 0 12 0;
#X connect 14 0 11 0;
#X connect 15 0 13 0;
#X connect 15 0 14 0;
