#N canvas 1 82 1016 661 10;
#X obj 317 159 cnv 15 200 20 empty empty /half_adder/ 2 12 0 8 -258401
-262144 0;
#X obj 317 187 tgl 15 0 /half_adder/porte1 /half_adder/porte1_ porte-1
17 7 0 10 -262144 -1 -1 0 1;
#X obj 317 206 tgl 15 0 /half_adder/porte2 /half_adder/porte2_ porte-2
17 7 0 10 -262144 -1 -1 0 1;
#X obj 72 290 tgl 15 0 empty empty empty 17 7 0 10 -262144 -1 -1 0
1;
#X obj 71 197 tgl 15 0 empty empty empty 17 7 0 10 -262144 -1 -1 0
1;
#X obj 165 192 tgl 15 0 empty empty empty 17 7 0 10 -262144 -1 -1 0
1;
#X obj 71 248 mtl/half_adder /id half_adder;
#X obj 240 284 tgl 15 0 empty empty empty 17 7 0 10 -262144 -1 -1 0
1;
#X text 549 359 Author: Emoc;
#X text 548 376 tags: logic;
#X connect 4 0 6 0;
#X connect 5 0 6 1;
#X connect 6 0 3 0;
#X connect 6 1 7 0;
