#N canvas 1 82 1351 661 10;
#X obj 26 143 mtl/out~;
#X obj 23 75 bng 15 250 50 0 empty empty empty 17 7 0 10 -262144 -1
-1;
#X text 16 24 tags: synthesize~;
#X obj 611 79 hsl 100 15 0 1 0 0 /hightom/pitch /hightom/pitch_ pitch
105 7 0 8 -262144 -1 -1 4950 1;
#X obj 608 50 cnv 15 200 20 empty empty /hightom/ 2 12 0 8 -258401
-262144 0;
#X text 17 10 Description : hightom by stefan "ichabod" ichabod@gmail.com
;
#X obj 25 110 mtl/hightom~ /id hightom 0.5;
#X connect 1 0 6 0;
#X connect 6 0 0 0;
#X connect 6 0 0 1;
