#N canvas 1 82 1364 661 10;
#X obj 33 324 del 2000;
#X msg 34 355 0;
#X obj 539 243 spigot;
#X obj 663 171 ==;
#X obj 680 141 r \$0-channel;
#X obj 574 327 mtl/sign;
#X obj 574 302 - 1;
#X obj 61 397 s \$0-learn-outlet;
#X obj 574 276 r \$0-learn-outlet;
#X obj 410 240 r \$0-learn-outlet;
#X obj 865 138 spigot;
#X obj 893 100 r \$0-learn-outlet;
#X obj 913 267 s \$0-channel;
#X obj 447 453 spigot;
#X obj 486 426 r \$0-on;
#X obj 425 487 outlet;
#X obj 121 101 cnv 15 129 72 empty \$0-canvas Channel-Learner 5 10
0 14 -166441 -1 0;
#N canvas 365 82 998 661 color 0;
#X obj 280 453 s \$0-canvascontrolleur;
#X obj 371 244 r \$0-on;
#X obj 363 352 t b f;
#X obj 334 375 f;
#X obj 371 267 select 0 1;
#X msg 365 295 1;
#X msg 415 293 13;
#X obj 96 37 r \$0-learn-outlet;
#X obj 247 299 r \$0-controller;
#X obj 341 400 pack f 1;
#X obj 599 77 r \$0-on;
#X obj 599 100 select 0 1;
#X msg 593 128 1;
#X msg 643 126 13;
#X obj 603 177 f;
#X msg 594 208 color \$1 12 22;
#X obj 693 259 s \$0-canvas;
#X obj 608 390 del 2000;
#X obj 638 549 s \$0-learn;
#X obj 601 429 t b b;
#X msg 625 461 0;
#X obj 645 309 r \$0-learn_;
#X obj 646 352 t b b;
#X obj 516 84 loadbang;
#X msg 156 387 color 16 12 22 \, label LEARN;
#X msg 585 485 color 0 12 22;
#X msg 695 487 color 16 12 22;
#X msg 278 432 color \$2 12 22 \, label Controlleur_\$1;
#X obj 754 179 s \$0-canvas;
#X obj 752 103 loadbang;
#X msg 751 156 label \$1;
#X obj 752 130 symbol \$2;
#X obj 150 65 select 0 1;
#X msg 253 216 bang;
#X obj 365 325 f 1;
#X connect 1 0 4 0;
#X connect 2 0 3 0;
#X connect 2 1 9 1;
#X connect 3 0 9 0;
#X connect 4 0 5 0;
#X connect 4 1 6 0;
#X connect 5 0 34 0;
#X connect 6 0 34 0;
#X connect 7 0 32 0;
#X connect 8 0 3 0;
#X connect 9 0 27 0;
#X connect 10 0 11 0;
#X connect 11 0 12 0;
#X connect 11 1 13 0;
#X connect 12 0 14 0;
#X connect 13 0 14 0;
#X connect 14 0 15 0;
#X connect 15 0 16 0;
#X connect 17 0 19 0;
#X connect 19 0 25 0;
#X connect 19 1 20 0;
#X connect 20 0 18 0;
#X connect 21 0 22 0;
#X connect 22 0 17 0;
#X connect 22 1 26 0;
#X connect 23 0 12 0;
#X connect 24 0 0 0;
#X connect 25 0 18 0;
#X connect 26 0 18 0;
#X connect 27 0 0 0;
#X connect 29 0 31 0;
#X connect 30 0 28 0;
#X connect 31 0 30 0;
#X connect 32 0 33 0;
#X connect 32 1 24 0;
#X connect 33 0 34 0;
#X connect 34 0 2 0;
#X restore 338 573 pd color;
#X obj 47 257 r \$0-learn_;
#X obj 125 123 tgl 15 0 \$0-learn_ \$0-learn Learn 17 7 0 14 -262144
-33289 -1 0 1;
#X obj 124 157 bng 15 250 50 0 empty \$0-activity Activity 17 7 0 14
-262144 -1 -1;
#X obj 123 140 cnv 15 120 15 empty \$0-canvaschannel Channel_1 0 8
0 14 -166441 -1 0;
#X obj 184 123 tgl 15 0 \$0-on \$0-on_ On/Off 17 7 0 14 -262144 -33289
-1 0 1;
#X obj 71 286 t b f;
#X obj 478 485 s \$0-activity;
#X obj 377 269 spigot 1;
#X obj 455 401 spigot 1;
#X obj 590 76 notein;
#X obj 837 90 notein;
#X obj 685 235 spigot;
#X obj 752 263 r \$0-learn-outlet;
#X obj 712 444 spigot;
#X obj 751 417 r \$0-on;
#X obj 690 478 outlet;
#X obj 693 292 spigot 1;
#X obj 720 392 spigot 1;
#X obj 927 193 int;
#X obj 930 167 tof/param /channel 1 /g slider 1 16;
#X connect 0 0 1 0;
#X connect 1 0 7 0;
#X connect 2 0 26 0;
#X connect 3 0 2 1;
#X connect 3 0 29 1;
#X connect 4 0 3 1;
#X connect 5 0 26 1;
#X connect 5 0 35 1;
#X connect 6 0 5 0;
#X connect 8 0 6 0;
#X connect 9 0 25 1;
#X connect 10 0 12 0;
#X connect 11 0 10 1;
#X connect 13 0 15 0;
#X connect 13 0 24 0;
#X connect 14 0 13 1;
#X connect 18 0 23 0;
#X connect 23 0 0 0;
#X connect 23 1 7 0;
#X connect 25 0 13 0;
#X connect 26 0 13 0;
#X connect 27 0 2 0;
#X connect 27 0 25 0;
#X connect 27 1 29 0;
#X connect 27 1 34 0;
#X connect 27 2 3 0;
#X connect 28 2 10 0;
#X connect 29 0 35 0;
#X connect 30 0 34 1;
#X connect 31 0 33 0;
#X connect 32 0 31 1;
#X connect 34 0 31 0;
#X connect 35 0 31 0;
#X connect 36 0 12 0;
#X connect 37 0 36 0;
#X coords 0 -1 1 1 130 73 2 120 100;
