#N canvas 1 82 1351 661 10;
#X obj 91 396 outlet~;
#X obj 86 224 inlet~;
#X obj 154 218 inlet~;
#X obj 225 400 outlet~;
#X obj 938 84 inlet params;
#X obj 938 130 print PARAM_NOTFOUND;
#X obj 938 106 tof/param route;
#X obj 938 153 b;
#X obj 938 182 tof/param gui;
#N canvas 550 186 730 557 noisegate 0;
#X obj 96 93 env~;
#X obj 60 263 *~;
#X obj 96 241 line~;
#X obj 60 55 inlet~;
#X obj 60 284 outlet~;
#X obj 115 54 inlet;
#X obj 218 102 inlet;
#X obj 260 101 inlet;
#X obj 96 132 change;
#X msg 96 206 1 \$1;
#X msg 139 205 0 \$1;
#X obj 96 153 sel 1 0;
#X text 195 236 1 - threshhold;
#X text 195 251 2 - attack time;
#X text 195 266 3 - release time;
#X text 195 216 arguments:;
#X obj 96 112 >;
#X obj 96 180 f;
#X obj 139 180 f;
#X connect 0 0 16 0;
#X connect 1 0 4 0;
#X connect 2 0 1 1;
#X connect 3 0 0 0;
#X connect 3 0 1 0;
#X connect 5 0 16 1;
#X connect 6 0 17 1;
#X connect 7 0 18 1;
#X connect 8 0 11 0;
#X connect 9 0 2 0;
#X connect 10 0 2 0;
#X connect 11 0 17 0;
#X connect 11 1 18 0;
#X connect 16 0 8 0;
#X connect 17 0 9 0;
#X connect 18 0 10 0;
#X restore 104 342 pd noisegate;
#X obj 234 217 tof/param /thresold 100 /g slider 0 100;
#X obj 242 240 tof/param /attack 100 /g slider 0 1000;
#X obj 258 267 tof/param /decay 100 /g slider 0 1000;
#N canvas 550 186 730 557 noisegate 0;
#X obj 96 93 env~;
#X obj 60 263 *~;
#X obj 96 241 line~;
#X obj 60 55 inlet~;
#X obj 60 284 outlet~;
#X obj 115 54 inlet;
#X obj 218 102 inlet;
#X obj 260 101 inlet;
#X obj 96 132 change;
#X msg 96 206 1 \$1;
#X msg 139 205 0 \$1;
#X obj 96 153 sel 1 0;
#X text 195 236 1 - threshhold;
#X text 195 251 2 - attack time;
#X text 195 266 3 - release time;
#X text 195 216 arguments:;
#X obj 96 112 >;
#X obj 96 180 f;
#X obj 139 180 f;
#X connect 0 0 16 0;
#X connect 1 0 4 0;
#X connect 2 0 1 1;
#X connect 3 0 0 0;
#X connect 3 0 1 0;
#X connect 5 0 16 1;
#X connect 6 0 17 1;
#X connect 7 0 18 1;
#X connect 8 0 11 0;
#X connect 9 0 2 0;
#X connect 10 0 2 0;
#X connect 11 0 17 0;
#X connect 11 1 18 0;
#X connect 16 0 8 0;
#X connect 17 0 9 0;
#X connect 18 0 10 0;
#X restore 212 338 pd noisegate;
#X obj 323 173 tof/argument 5;
#X obj 286 138 tof/argument 4;
#X obj 237 103 tof/argument 3;
#X obj 236 73 loadbang;
#X connect 1 0 9 0;
#X connect 2 0 13 0;
#X connect 4 0 6 0;
#X connect 6 0 5 0;
#X connect 7 0 8 0;
#X connect 9 0 0 0;
#X connect 10 0 9 1;
#X connect 10 0 13 1;
#X connect 11 0 9 2;
#X connect 11 0 13 2;
#X connect 12 0 9 3;
#X connect 12 0 13 3;
#X connect 13 0 3 0;
#X connect 14 0 12 0;
#X connect 15 0 11 0;
#X connect 16 0 10 0;
#X connect 17 0 14 0;
#X connect 17 0 15 0;
#X connect 17 0 16 0;
