#N canvas 0 25 1016 659 10;
#X obj 8 89 cnv 15 32 25 empty empty OR 4 12 0 14 -1 -262144 0;
#X obj 81 259 f;
#X obj 108 259 f;
#X obj 118 230 t b f;
#X obj 81 230 t f b;
#X obj 81 285 ||;
#X obj 77 349 outlet or;
#X obj 113 136 tof/param /porte1 0 /g tgl;
#X obj 124 163 tof/param /porte2 0 /g tgl;
#X obj 65 107 inlet porte1;
#X obj 151 101 inlet porte2;
#X obj 622 186 inlet params;
#X obj 622 232 print PARAM_NOTFOUND;
#X obj 622 208 tof/param route;
#X obj 615 263 b;
#X obj 616 292 tof/param gui;
#X connect 1 0 5 0;
#X connect 2 0 5 1;
#X connect 3 0 1 0;
#X connect 3 1 2 0;
#X connect 4 0 1 0;
#X connect 4 1 2 0;
#X connect 5 0 6 0;
#X connect 7 0 4 0;
#X connect 8 0 3 0;
#X connect 9 0 4 0;
#X connect 10 0 3 0;
#X connect 11 0 13 0;
#X connect 13 0 12 0;
#X connect 14 0 15 0;
