#N canvas 1 82 1351 661 10;
#X obj 51 373 outlet~;
#X obj 53 164 inlet~;
#X obj 113 164 inlet~;
#X obj 111 373 outlet~;
#X obj 910 88 inlet params;
#X obj 215 350 tof/param /wet 0 /g slider 0 1;
#X obj 910 134 print PARAM_NOTFOUND;
#X obj 51 348 tof/crossfade~ 2;
#X msg 215 377 \$1 5;
#X obj 215 401 line~;
#X obj 910 110 tof/param route;
#X obj 911 164 b;
#X obj 911 193 tof/param gui;
#N canvas 550 186 730 557 oversat 0;
#X obj 115 33 inlet~;
#X obj 131 130 -~;
#X obj 132 157 /~;
#X obj 132 184 outlet~;
#X obj 144 81 *~ -1;
#X obj 20 105 expr~ exp($v1*2.718);
#X obj 144 59 *~;
#X obj 159 33 inlet;
#X obj 19 140 expr~ (1/$v1)+$v1;
#X obj 145 105 expr~ exp($v1*2.718);
#X connect 0 0 6 0;
#X connect 1 0 2 0;
#X connect 2 0 3 0;
#X connect 4 0 9 0;
#X connect 5 0 1 0;
#X connect 5 0 8 0;
#X connect 6 0 5 0;
#X connect 6 0 4 0;
#X connect 7 0 6 1;
#X connect 8 0 2 1;
#X connect 9 0 1 1;
#X restore 67 225 pd oversat;
#N canvas 501 243 730 557 oversat 0;
#X obj 125 43 inlet~;
#X obj 141 140 -~;
#X obj 142 167 /~;
#X obj 142 194 outlet~;
#X obj 154 91 *~ -1;
#X obj 30 115 expr~ exp($v1*2.718);
#X obj 154 69 *~;
#X obj 169 43 inlet;
#X obj 29 150 expr~ (1/$v1)+$v1;
#X obj 155 115 expr~ exp($v1*2.718);
#X connect 0 0 6 0;
#X connect 1 0 2 0;
#X connect 2 0 3 0;
#X connect 4 0 9 0;
#X connect 5 0 1 0;
#X connect 5 0 8 0;
#X connect 6 0 5 0;
#X connect 6 0 4 0;
#X connect 7 0 6 1;
#X connect 8 0 2 1;
#X connect 9 0 1 1;
#X restore 150 220 pd oversat;
#X obj 197 100 tof/param /oversat 0 /g slider 0.5 11;
#X obj 215 323 tof/argument 3;
#X obj 217 298 loadbang;
#X obj 197 75 tof/argument 4;
#X obj 197 52 loadbang;
#X connect 1 0 7 0;
#X connect 1 0 13 0;
#X connect 2 0 7 1;
#X connect 2 0 14 0;
#X connect 4 0 10 0;
#X connect 5 0 8 0;
#X connect 7 0 0 0;
#X connect 7 1 3 0;
#X connect 8 0 9 0;
#X connect 9 0 7 4;
#X connect 10 0 6 0;
#X connect 11 0 12 0;
#X connect 13 0 7 2;
#X connect 14 0 7 3;
#X connect 15 0 14 1;
#X connect 15 0 13 1;
#X connect 16 0 5 0;
#X connect 17 0 16 0;
#X connect 18 0 15 0;
#X connect 19 0 18 0;
