#N canvas 1 84 1272 659 10;
#X obj 167 198 inlet frequency;
#X obj 166 543 outlet~;
#X obj 646 447 inlet params;
#X obj 646 493 print PARAM_NOTFOUND;
#X obj 646 469 tof/param route;
#X obj 642 592 b;
#X obj 643 621 tof/param gui;
#X obj 167 226 unpack f f;
#X obj 166 506 *~;
#X text 242 433 <- reverse toggle (fills in discontinuity);
#X obj 184 457 mtl/adsr~ /id \$0-adsr;
#X obj 167 334 expr~ if($v1<.5 \, $v1*$v2*2 \, $v2+($v1-.5)*(1-$v2)*2)
;
#X obj 166 409 cos~;
#X obj 520 309 line~;
#X msg 519 284 \$1 50;
#X obj 167 375 -~ 0.25;
#X obj 167 279 phasor~ 100;
#X text 711 236 scaled 0.25 - 10;
#X text 690 216 scaled 0.25 - 0.75;
#N canvas 0 50 466 316 rh_scalelog 0;
#X obj 20 155 exp;
#X obj 20 107 *;
#X obj 20 130 +;
#X obj 98 87 log;
#X obj 194 84 log;
#X obj 123 123 t b f;
#X obj 123 145 -;
#X obj 20 183 outlet;
#X obj 20 19 inlet;
#X obj 98 23 inlet;
#X obj 194 24 inlet;
#X connect 0 0 7 0;
#X connect 1 0 2 0;
#X connect 2 0 0 0;
#X connect 3 0 2 1;
#X connect 3 0 5 0;
#X connect 4 0 6 0;
#X connect 5 0 6 0;
#X connect 5 1 6 1;
#X connect 6 0 1 1;
#X connect 8 0 1 0;
#X connect 9 0 3 0;
#X connect 10 0 4 0;
#X restore 518 260 pd rh_scalelog;
#X msg 567 236 0.01;
#X msg 611 236 10;
#X obj 516 176 tof/param /phase 0.01 /g slider 0 1;
#X obj 167 253 mtof;
#X obj 516 143 tof/argument 3;
#X obj 516 118 loadbang;
#X obj 583 198 loadbang;
#X connect 0 0 7 0;
#X connect 2 0 4 0;
#X connect 4 0 3 0;
#X connect 5 0 6 0;
#X connect 7 0 23 0;
#X connect 7 1 10 0;
#X connect 8 0 1 0;
#X connect 10 0 8 1;
#X connect 11 0 15 0;
#X connect 12 0 8 0;
#X connect 13 0 11 1;
#X connect 14 0 13 0;
#X connect 15 0 12 0;
#X connect 16 0 11 0;
#X connect 19 0 14 0;
#X connect 20 0 19 1;
#X connect 21 0 19 2;
#X connect 22 0 19 0;
#X connect 23 0 16 0;
#X connect 24 0 22 0;
#X connect 25 0 24 0;
#X connect 26 0 20 0;
#X connect 26 0 21 0;
