#N canvas 1 82 1351 661 10;
#X obj 67 145 inlet~;
#X obj 117 145 inlet~;
#X obj 68 236 outlet~;
#X obj 127 236 outlet~;
#X obj 67 206 tof/crossfade~ 2;
#X obj 545 123 inlet params;
#X obj 545 169 print PARAM_NOTFOUND;
#X obj 205 125 tof/param /wet 0 /g slider 0 1;
#X obj 205 168 line~;
#X msg 205 147 \$1 5;
#X obj 545 145 tof/param route;
#X obj 538 200 b;
#X obj 539 229 tof/param gui;
#N canvas 1 82 1272 661 phaser 1;
#X obj 219 193 rpole~;
#X obj 219 168 rzero_rev~;
#X obj 219 242 rpole~;
#X obj 219 217 rzero_rev~;
#X obj 219 290 rpole~;
#X obj 219 265 rzero_rev~;
#X obj 219 339 rpole~;
#X obj 219 314 rzero_rev~;
#X obj 374 285 phasor~ 0.3;
#X obj 374 317 expr~ 1 - 0.03 - 0.6*abs($v1-0.5)*abs($v1-0.5);
#X obj 221 129 inlet~;
#X obj 221 394 outlet~;
#X obj 119 195 rpole~;
#X obj 120 170 rzero_rev~;
#X obj 119 244 rpole~;
#X obj 119 219 rzero_rev~;
#X obj 119 292 rpole~;
#X obj 119 267 rzero_rev~;
#X obj 119 341 rpole~;
#X obj 119 316 rzero_rev~;
#X obj 121 131 inlet~;
#X obj 121 396 outlet~;
#X obj 374 259 / 100;
#X obj 374 231 tof/param /rate 0 /g slider 0 100;
#X obj 374 207 tof/argument 4;
#X obj 374 186 loadbang;
#X connect 0 0 3 0;
#X connect 1 0 0 0;
#X connect 2 0 5 0;
#X connect 3 0 2 0;
#X connect 4 0 7 0;
#X connect 5 0 4 0;
#X connect 6 0 11 0;
#X connect 7 0 6 0;
#X connect 8 0 9 0;
#X connect 9 0 1 1;
#X connect 9 0 0 1;
#X connect 9 0 3 1;
#X connect 9 0 2 1;
#X connect 9 0 5 1;
#X connect 9 0 4 1;
#X connect 9 0 7 1;
#X connect 9 0 6 1;
#X connect 9 0 13 1;
#X connect 9 0 12 1;
#X connect 9 0 15 1;
#X connect 9 0 14 1;
#X connect 9 0 17 1;
#X connect 9 0 16 1;
#X connect 9 0 19 1;
#X connect 9 0 18 1;
#X connect 10 0 1 0;
#X connect 12 0 15 0;
#X connect 13 0 12 0;
#X connect 14 0 17 0;
#X connect 15 0 14 0;
#X connect 16 0 19 0;
#X connect 17 0 16 0;
#X connect 18 0 21 0;
#X connect 19 0 18 0;
#X connect 20 0 13 0;
#X connect 22 0 8 0;
#X connect 23 0 22 0;
#X connect 24 0 23 0;
#X connect 25 0 24 0;
#X restore 115 175 pd phaser;
#X obj 205 100 tof/argument 3;
#X obj 205 79 loadbang;
#X connect 0 0 4 0;
#X connect 0 0 13 0;
#X connect 1 0 4 1;
#X connect 1 0 13 1;
#X connect 4 0 2 0;
#X connect 4 1 3 0;
#X connect 5 0 10 0;
#X connect 7 0 9 0;
#X connect 8 0 4 4;
#X connect 9 0 8 0;
#X connect 10 0 6 0;
#X connect 11 0 12 0;
#X connect 13 0 4 2;
#X connect 13 1 4 3;
#X connect 14 0 7 0;
#X connect 15 0 14 0;
