#N canvas 0 0 1272 685 10;
#X obj 202 646 outlet~;
#X obj 251 646 outlet~;
#X obj 181 593 tof/crossfade~ 2;
#X obj 1027 33 inlet params;
#X obj 1027 79 print PARAM_NOTFOUND;
#X obj 305 497 tof/param /wet 0 /g slider 0 1;
#X obj 287 556 line~;
#X msg 287 535 \$1 5;
#X obj 1027 55 tof/param route;
#X obj 1020 110 b;
#X obj 1021 139 tof/param gui;
#X obj 119 71 inlet~;
#X obj 165 71 inlet~;
#N canvas 0 0 1272 714 pingpong 1;
#X obj 127 42 inlet~;
#X obj 205 43 inlet~;
#X obj 128 251 outlet~;
#X obj 223 152 line~;
#X msg 223 129 \$1 10;
#X obj 223 95 r \$0-delay1;
#X obj 371 152 line~;
#X msg 371 129 \$1 10;
#X obj 371 95 r \$0-delay2;
#X obj 356 43 inlet~;
#X obj 281 42 inlet~;
#N canvas 0 0 1057 597 two_delaylines_cross_connected 1;
#X obj 57 84 inlet~;
#X obj 860 45 block~ 16;
#X obj 503 83 inlet~;
#X obj 504 114 vd~ \$0-del1;
#X obj 94 338 outlet~;
#X obj 503 163 lop~ 10000;
#X obj 780 90 inlet~;
#X obj 781 121 vd~ \$0-del2;
#X obj 339 334 outlet~;
#X obj 307 86 inlet~;
#X obj 583 163 r \$0-lpfreq1;
#X obj 859 164 r \$0-lpfreq2;
#X obj 781 164 lop~ 10000;
#X obj 504 229 *~ 0;
#X obj 529 208 clip -1 1;
#X obj 628 227 *~ 0;
#X obj 653 206 clip -1 1;
#X obj 903 239 *~ 0;
#X obj 928 218 clip -1 1;
#X obj 782 238 *~ 0;
#X obj 807 217 clip -1 1;
#X obj 781 144 clip~ -1 1;
#X obj 504 138 clip~ -1 1;
#X obj 529 187 r \$0-feedback1;
#X obj 653 185 r \$0-x-feedback1;
#X obj 807 196 r \$0-x-feedback2;
#X obj 928 197 r \$0-feedback2;
#X obj 57 458 delwrite~ \$0-del1 5000;
#X obj 307 458 delwrite~ \$0-del2 5000;
#X connect 0 0 4 0;
#X connect 0 0 27 0;
#X connect 2 0 3 0;
#X connect 3 0 22 0;
#X connect 5 0 13 0;
#X connect 5 0 15 0;
#X connect 6 0 7 0;
#X connect 7 0 21 0;
#X connect 9 0 8 0;
#X connect 9 0 28 0;
#X connect 10 0 5 1;
#X connect 11 0 12 1;
#X connect 12 0 17 0;
#X connect 12 0 19 0;
#X connect 13 0 4 0;
#X connect 13 0 27 0;
#X connect 14 0 13 1;
#X connect 15 0 4 0;
#X connect 15 0 28 0;
#X connect 16 0 15 1;
#X connect 17 0 8 0;
#X connect 17 0 28 0;
#X connect 18 0 17 1;
#X connect 19 0 8 0;
#X connect 19 0 27 0;
#X connect 20 0 19 1;
#X connect 21 0 12 0;
#X connect 22 0 5 0;
#X connect 23 0 14 0;
#X connect 24 0 16 0;
#X connect 25 0 20 0;
#X connect 26 0 18 0;
#X restore 128 193 pd two_delaylines_cross_connected;
#X obj 356 257 outlet~;
#X connect 0 0 11 0;
#X connect 1 0 11 1;
#X connect 3 0 11 2;
#X connect 4 0 3 0;
#X connect 5 0 4 0;
#X connect 6 0 11 3;
#X connect 7 0 6 0;
#X connect 8 0 7 0;
#X connect 9 0 11 3;
#X connect 10 0 11 2;
#X connect 11 0 2 0;
#X connect 11 1 12 0;
#X restore 210 361 pd pingpong;
#X obj 741 375 tof/param /x-feedback2 0 /g slider 0 1;
#X obj 712 326 tof/param /x-feedback1 0 /g slider 0 1;
#X obj 690 277 tof/param /feedback2 0 /g slider 0 1;
#X obj 659 230 tof/param /feedback1 0 /g slider 0 1;
#X obj 619 136 tof/param /lpfreq1 0 /g slider 0 10000;
#X obj 635 184 tof/param /lpfreq2 0 /g slider 0 10000;
#X obj 581 86 tof/param /delayfreq2 0 /g slider 10 5000;
#X obj 556 36 tof/param /delayfreq1 0 /g slider 10 5000;
#N canvas 0 0 450 300 conversions 0;
#X obj 57 72 swap 1000;
#X obj 57 102 /;
#X text 140 71 delay time can be set as frequency as well.;
#X obj 57 131 s \$0-delay1;
#X obj 58 183 swap 1000;
#X obj 58 213 /;
#X obj 58 154 r \$0-delayfreq2;
#X obj 58 242 s \$0-delay2;
#X obj 57 43 r \$0-delayfreq1;
#X connect 0 0 1 0;
#X connect 0 1 1 1;
#X connect 1 0 3 0;
#X connect 4 0 5 0;
#X connect 4 1 5 1;
#X connect 5 0 7 0;
#X connect 6 0 4 0;
#X connect 8 0 0 0;
#X restore 781 454 pd conversions;
#X obj 563 58 s \$0-delayfreq1;
#X obj 584 112 s \$0-delayfreq2;
#X obj 622 160 s \$0-lpfreq1;
#X obj 635 208 s \$0-lpfreq2;
#X obj 659 253 s \$0-feedback1;
#X obj 690 301 s \$0-feedback2;
#X obj 714 352 s \$0-x-feedback1;
#X obj 742 401 s \$0-x-feedback2;
#X obj 229 70 inlet~;
#X obj 275 70 inlet~;
#X connect 2 0 0 0;
#X connect 2 1 1 0;
#X connect 3 0 8 0;
#X connect 5 0 7 0;
#X connect 6 0 2 4;
#X connect 7 0 6 0;
#X connect 8 0 4 0;
#X connect 9 0 10 0;
#X connect 11 0 2 0;
#X connect 11 0 13 0;
#X connect 12 0 2 1;
#X connect 12 0 13 1;
#X connect 13 0 2 2;
#X connect 13 1 2 3;
#X connect 14 0 30 0;
#X connect 15 0 29 0;
#X connect 16 0 28 0;
#X connect 17 0 27 0;
#X connect 18 0 25 0;
#X connect 19 0 26 0;
#X connect 20 0 24 0;
#X connect 21 0 23 0;
#X connect 31 0 13 2;
#X connect 32 0 13 3;
