#N canvas 75 152 489 385 10;
#X text 9 -8 Description: pitch follower / tracker without using fiddle
or sigmund;
#X text 8 22 tags: info~;
#X obj 20 125 pitchFollower;
#X floatatom 20 163 5 0 0 0 - - -;
#X floatatom 95 161 5 0 0 0 - - -;
#X text 104 143 midi;
#X text 29 143 frequency;
#X obj 20 71 tgl 15 0 empty empty empty 17 7 0 10 -262144 -1 -1 1 1
;
#N canvas 5 185 450 300 generate~ 0;
#X obj 32 213 osc~ 200;
#X obj 32 89 metro 400;
#X obj 32 175 mtof;
#X obj 104 195 mtof;
#X obj 32 132 + 20;
#X obj 32 111 random 70;
#X floatatom 83 69 5 0 0 0 - - -;
#X obj 32 261 outlet~;
#X obj 103 261 outlet~;
#X obj 30 14 inlet;
#X obj 104 175 mtl/closestNote 0 2 4 7 9;
#X obj 104 234 *~;
#X obj 31 234 *~;
#X obj 104 214 osc~ 100;
#X obj 32 155 mtl/closestNote 0 2 4 7 9;
#X connect 0 0 12 0;
#X connect 1 0 5 0;
#X connect 2 0 0 0;
#X connect 3 0 13 0;
#X connect 4 0 10 0;
#X connect 4 0 14 0;
#X connect 5 0 4 0;
#X connect 6 0 1 1;
#X connect 9 0 1 0;
#X connect 9 0 11 1;
#X connect 9 0 12 1;
#X connect 10 0 3 0;
#X connect 11 0 8 0;
#X connect 12 0 7 0;
#X connect 13 0 11 0;
#X connect 14 0 2 0;
#X restore 20 96 pd generate~;
#X text 113 71 higher number less glissando \, more vibrato :-);
#X obj 117 91 hsl 128 15 0.1 50 0 1 empty empty empty -2 -8 0 10 -262144
-1 -1 5065 1;
#X obj 20 190 osc~;
#X obj 100 227 mtl/out~;
#X connect 2 0 3 0;
#X connect 2 1 4 0;
#X connect 3 0 11 0;
#X connect 7 0 8 0;
#X connect 8 0 2 0;
#X connect 8 1 12 1;
#X connect 10 0 2 1;
#X connect 11 0 12 0;
