#N canvas 225 105 887 638 12;
#X obj 68 34 inlet;
#X obj 219 567 outlet;
#X obj 279 39 inlet;
#X obj 364 35 inlet;
#X text 278 17 min;
#X text 362 14 max;
#X obj 493 296 tof/argument 1 0;
#X obj 530 255 tof/argument 2 1;
#X obj 539 22 loadbang;
#X obj 539 50 t b b;
#X obj 305 341 -;
#X obj 233 233 f;
#X obj 219 264 t f f;
#X obj 305 373 * -100000;
#X obj 305 402 i;
#X obj 305 480 / 100000;
#X obj 305 432 t b f;
#X obj 219 530 +;
#X obj 305 456 random 100000;
#X obj 325 165 f;
#X obj 68 71 t b b;
#X connect 0 0 20 0;
#X connect 2 0 11 1;
#X connect 3 0 19 1;
#X connect 6 0 11 1;
#X connect 7 0 19 1;
#X connect 8 0 9 0;
#X connect 9 0 6 0;
#X connect 9 1 7 0;
#X connect 10 0 13 0;
#X connect 11 0 12 0;
#X connect 12 0 17 0;
#X connect 12 1 10 0;
#X connect 13 0 14 0;
#X connect 14 0 16 0;
#X connect 15 0 17 1;
#X connect 16 0 18 0;
#X connect 16 1 18 1;
#X connect 17 0 1 0;
#X connect 18 0 15 0;
#X connect 19 0 10 1;
#X connect 20 0 11 0;
#X connect 20 1 19 0;
