#N canvas 1 84 1358 659 10;
#X obj -37 349 makenote;
#X obj -44 98 inlet;
#X obj -43 160 t b b b;
#X obj 7 225 random 1000;
#X obj -27 250 random 128;
#X obj -86 287 random 128;
#X obj -42 447 outlet;
#X obj -17 404 pack;
#X connect 0 0 7 0;
#X connect 0 1 7 1;
#X connect 1 0 2 0;
#X connect 2 0 5 0;
#X connect 2 1 4 0;
#X connect 2 2 3 0;
#X connect 3 0 0 2;
#X connect 4 0 0 1;
#X connect 5 0 0 0;
#X connect 7 0 6 0;
