#N canvas 1 82 1351 661 10;
#X obj 72 218 inlet~;
#X obj 81 339 outlet~;
#X obj 141 341 outlet~;
#X obj 80 297 tof/crossfade~ 2;
#X obj 550 196 inlet params;
#X obj 550 242 print PARAM_NOTFOUND;
#X obj 210 198 tof/param /wet 0 /g slider 0 1;
#X obj 210 241 line~;
#X msg 210 220 \$1 5;
#X obj 550 218 tof/param route;
#X obj 543 273 b;
#X obj 544 302 tof/param gui;
#N canvas 0 50 1272 692 schroeder 0;
#X obj 348 37 inlet~;
#X obj 348 157 +~;
#X obj 407 155 +~;
#X obj 349 205 +~;
#X obj 406 206 -~;
#X obj 525 213 +~;
#X obj 582 214 -~;
#X obj 346 295 +~;
#X obj 406 295 +~;
#X obj 510 293 -~;
#X obj 567 294 -~;
#X obj 135 202 outlet~ l;
#X obj 240 203 outlet~ r;
#X obj 345 362 *~ 0.4;
#X obj 405 394 *~ 0.37;
#X obj 509 417 *~ 0.33;
#X obj 566 447 *~ 0.3;
#X text 112 366 Recirculating schroeder reverb extract from the book
Designing Sound Andy Farnell Page 85;
#X obj 480 64 delread~ \$0-A 101;
#X obj 497 92 delread~ \$0-B 143;
#X obj 540 127 delread~ \$0-C 165;
#X obj 604 157 delread~ \$0-D 177;
#X obj 578 507 delwrite~ \$0-D 1000;
#X obj 509 539 delwrite~ \$0-C 1000;
#X obj 405 586 delwrite~ \$0-B 1000;
#X obj 345 619 delwrite~ \$0-A 1000;
#X connect 0 0 1 0;
#X connect 0 0 2 0;
#X connect 1 0 3 0;
#X connect 1 0 11 0;
#X connect 1 0 4 0;
#X connect 2 0 3 1;
#X connect 2 0 12 0;
#X connect 2 0 4 1;
#X connect 3 0 7 0;
#X connect 3 0 9 0;
#X connect 4 0 8 0;
#X connect 4 0 10 0;
#X connect 5 0 7 1;
#X connect 5 0 9 1;
#X connect 6 0 10 1;
#X connect 6 0 8 1;
#X connect 7 0 13 0;
#X connect 8 0 14 0;
#X connect 9 0 15 0;
#X connect 10 0 16 0;
#X connect 13 0 25 0;
#X connect 14 0 24 0;
#X connect 15 0 23 0;
#X connect 16 0 22 0;
#X connect 18 0 1 1;
#X connect 19 0 2 1;
#X connect 20 0 5 0;
#X connect 20 0 6 0;
#X connect 21 0 5 1;
#X connect 21 0 6 1;
#X restore 120 260 pd schroeder;
#X obj 210 167 tof/argument 3;
#X obj 210 143 loadbang;
#X connect 0 0 3 0;
#X connect 0 0 12 0;
#X connect 0 0 3 1;
#X connect 3 0 1 0;
#X connect 3 1 2 0;
#X connect 4 0 9 0;
#X connect 6 0 8 0;
#X connect 7 0 3 4;
#X connect 8 0 7 0;
#X connect 9 0 5 0;
#X connect 10 0 11 0;
#X connect 12 0 3 2;
#X connect 12 1 3 3;
#X connect 13 0 6 0;
#X connect 14 0 13 0;
