#N canvas 1 82 1272 661 10;
#X obj 27 278 outlet~;
#X obj 27 47 inlet~;
#X obj 996 37 inlet params;
#X obj 996 83 print PARAM_NOTFOUND;
#X obj 996 59 tof/param route;
#X obj 974 183 b;
#X obj 975 212 tof/param gui;
#X obj 178 41 inlet~;
#X obj 177 263 outlet~;
#X obj 27 174 sigpack/saturate~;
#X obj 178 206 sigpack/saturate~;
#X obj 300 118 tof/param /thresold 0 /g slider -1 1;
#X obj 300 83 tof/argument 3;
#X obj 300 50 loadbang;
#X connect 1 0 9 0;
#X connect 2 0 4 0;
#X connect 4 0 3 0;
#X connect 5 0 6 0;
#X connect 7 0 10 0;
#X connect 9 0 0 0;
#X connect 10 0 8 0;
#X connect 11 0 9 1;
#X connect 11 0 10 1;
#X connect 12 0 11 0;
#X connect 13 0 12 0;
