#N canvas 1 82 1364 661 10;
#X obj 113 398 spigot;
#X obj 136 171 select 0 1 2 3 4 5 6 7;
#X obj 140 416 spigot;
#X obj 156 435 spigot;
#X obj 183 453 spigot;
#X obj 197 471 spigot;
#X obj 224 489 spigot;
#X obj 240 508 spigot;
#X obj 267 526 spigot;
#X obj 188 547 outlet;
#X obj 143 80 % 8;
#X obj 285 22 inlet;
#X obj 539 2 inlet;
#X obj 580 144 unpack f f f f f f f f;
#X obj 334 202 tgl 15 0 empty \$0-seq1 empty 20 7 0 8 -99865 -262144
-262144 0 1;
#X obj 350 217 tgl 15 0 empty \$0-seq2 empty 20 7 0 8 -99865 -262144
-262144 0 1;
#X obj 365 232 tgl 15 0 empty \$0-seq3 empty 20 7 0 8 -99865 -262144
-262144 0 1;
#X obj 350 248 tgl 15 0 empty \$0-seq4 empty 20 7 0 8 -99865 -262144
-262144 0 1;
#X obj 334 263 tgl 15 0 empty \$0-seq5 empty 20 7 0 8 -258699 -262144
-262144 0 1;
#X obj 317 248 tgl 15 0 empty \$0-seq6 empty 20 7 0 8 -99865 -262144
-262144 0 1;
#X obj 302 232 tgl 15 0 empty \$0-seq7 empty 20 7 0 8 -99865 -262144
-262144 0 1;
#X obj 318 217 tgl 15 0 empty \$0-seq8 empty 20 7 0 8 -99865 -262144
-262144 0 1;
#X obj 567 339 t b f;
#X obj 609 399 pack f f f f f f f f;
#X obj 610 340 t b f;
#X obj 651 340 t b f;
#X obj 694 341 t b f;
#X obj 736 341 t b f;
#X obj 779 342 t b f;
#X obj 820 342 t b f;
#X obj 624 432 outlet;
#X obj 266 45 route list;
#X obj 574 177 t f f;
#X msg 574 198 set \$1;
#X obj 624 177 t f f;
#X msg 623 198 set \$1;
#X obj 675 177 t f f;
#X msg 675 198 set \$1;
#X obj 725 177 t f f;
#X msg 725 198 set \$1;
#X obj 777 174 t f f;
#X msg 777 195 set \$1;
#X obj 827 174 t f f;
#X msg 827 195 set \$1;
#X obj 878 174 t f f;
#X msg 879 196 set \$1;
#X obj 928 174 t f f;
#X msg 928 195 set \$1;
#X obj 56 121 t f b f;
#N canvas 1 82 1364 661 color 1;
#X obj 71 24 inlet;
#X obj 861 38 inlet;
#X obj 220 151 route 0 1 2 3 4 5 6 7;
#X obj 34 245 s \$0-seq1;
#X obj 593 202 s \$0-seq1;
#X obj 812 126 t b b b b b b b b;
#X obj 669 233 s \$0-seq2;
#X obj 755 259 s \$0-seq3;
#X obj 831 290 s \$0-seq4;
#X obj 917 325 s \$0-seq5;
#X obj 992 356 s \$0-seq6;
#X obj 1079 382 s \$0-seq7;
#X obj 1155 413 s \$0-seq8;
#X obj 102 270 s \$0-seq2;
#X obj 170 297 s \$0-seq3;
#X obj 240 324 s \$0-seq4;
#X obj 304 348 s \$0-seq5;
#X obj 372 373 s \$0-seq6;
#X obj 440 400 s \$0-seq7;
#X obj 510 427 s \$0-seq8;
#X msg 33 220 color 13;
#X msg 101 245 color 13;
#X msg 169 272 color 13;
#X msg 240 299 color 13;
#X msg 303 323 color 13;
#X msg 371 348 color 13;
#X msg 439 375 color 13;
#X msg 509 402 color 13;
#X msg 593 178 color 21;
#X msg 668 208 color 21;
#X msg 754 234 color 21;
#X msg 830 265 color 21;
#X msg 916 300 color 21;
#X msg 992 331 color 21;
#X msg 1078 357 color 21;
#X msg 1154 388 color 21;
#X obj 790 40 initbang;
#X connect 0 0 2 0;
#X connect 1 0 5 0;
#X connect 2 0 20 0;
#X connect 2 1 21 0;
#X connect 2 2 22 0;
#X connect 2 3 23 0;
#X connect 2 4 24 0;
#X connect 2 5 25 0;
#X connect 2 6 26 0;
#X connect 2 7 27 0;
#X connect 5 0 28 0;
#X connect 5 1 29 0;
#X connect 5 2 30 0;
#X connect 5 3 31 0;
#X connect 5 4 32 0;
#X connect 5 5 33 0;
#X connect 5 6 34 0;
#X connect 5 7 35 0;
#X connect 20 0 3 0;
#X connect 21 0 13 0;
#X connect 22 0 14 0;
#X connect 23 0 15 0;
#X connect 24 0 16 0;
#X connect 25 0 17 0;
#X connect 26 0 18 0;
#X connect 27 0 19 0;
#X connect 28 0 4 0;
#X connect 29 0 6 0;
#X connect 30 0 7 0;
#X connect 31 0 8 0;
#X connect 32 0 9 0;
#X connect 33 0 10 0;
#X connect 34 0 11 0;
#X connect 35 0 12 0;
#X connect 36 0 5 0;
#X restore 11 220 pd color;
#X connect 0 0 9 0;
#X connect 1 0 0 0;
#X connect 1 1 2 0;
#X connect 1 2 3 0;
#X connect 1 3 4 0;
#X connect 1 4 5 0;
#X connect 1 5 6 0;
#X connect 1 6 7 0;
#X connect 1 7 8 0;
#X connect 2 0 9 0;
#X connect 3 0 9 0;
#X connect 4 0 9 0;
#X connect 5 0 9 0;
#X connect 6 0 9 0;
#X connect 7 0 9 0;
#X connect 8 0 9 0;
#X connect 10 0 48 0;
#X connect 11 0 31 0;
#X connect 12 0 13 0;
#X connect 13 0 32 0;
#X connect 13 1 34 0;
#X connect 13 2 36 0;
#X connect 13 3 38 0;
#X connect 13 4 40 0;
#X connect 13 5 42 0;
#X connect 13 6 44 0;
#X connect 13 7 46 0;
#X connect 14 0 0 1;
#X connect 14 0 23 0;
#X connect 15 0 2 1;
#X connect 15 0 22 0;
#X connect 16 0 3 1;
#X connect 16 0 24 0;
#X connect 17 0 4 1;
#X connect 17 0 25 0;
#X connect 18 0 5 1;
#X connect 18 0 26 0;
#X connect 19 0 6 1;
#X connect 19 0 27 0;
#X connect 20 0 7 1;
#X connect 20 0 28 0;
#X connect 21 0 8 1;
#X connect 21 0 29 0;
#X connect 22 0 23 0;
#X connect 22 1 23 1;
#X connect 23 0 30 0;
#X connect 24 0 23 0;
#X connect 24 1 23 2;
#X connect 25 0 23 0;
#X connect 25 1 23 3;
#X connect 26 0 23 0;
#X connect 26 1 23 4;
#X connect 27 0 23 0;
#X connect 27 1 23 5;
#X connect 28 0 23 0;
#X connect 28 1 23 6;
#X connect 29 0 23 0;
#X connect 29 1 23 7;
#X connect 31 0 13 0;
#X connect 31 1 10 0;
#X connect 32 0 33 0;
#X connect 32 1 23 0;
#X connect 32 1 0 1;
#X connect 33 0 14 0;
#X connect 34 0 35 0;
#X connect 34 1 23 1;
#X connect 34 1 2 1;
#X connect 35 0 15 0;
#X connect 36 0 37 0;
#X connect 36 1 23 2;
#X connect 36 1 3 1;
#X connect 37 0 16 0;
#X connect 38 0 39 0;
#X connect 38 1 23 3;
#X connect 38 1 4 1;
#X connect 39 0 17 0;
#X connect 40 0 41 0;
#X connect 40 1 23 4;
#X connect 40 1 5 1;
#X connect 41 0 18 0;
#X connect 42 0 43 0;
#X connect 42 1 23 5;
#X connect 42 1 6 1;
#X connect 43 0 19 0;
#X connect 44 0 45 0;
#X connect 44 1 23 6;
#X connect 44 1 7 1;
#X connect 45 0 20 0;
#X connect 46 0 47 0;
#X connect 46 1 23 7;
#X connect 46 1 8 1;
#X connect 47 0 21 0;
#X connect 48 0 49 0;
#X connect 48 1 49 1;
#X connect 48 2 1 0;
#X coords 0 -1 1 1 83 80 2 300 200;
