#N canvas 1 82 1364 661 10;
#X obj -213 -8 inlet;
#X obj 309 37 inlet;
#X obj 135 272 nbx 3 20 -1e+37 1e+37 0 0 empty \$0-seq1 empty 0 -8
0 10 -99865 -1 -262144 0 256;
#X obj 163 292 nbx 3 20 -1e+37 1e+37 0 0 empty \$0-seq2 empty 0 -8
0 10 -99865 -1 -262144 0 256;
#X obj 189 312 nbx 3 20 -1e+37 1e+37 0 0 empty \$0-seq3 empty 0 -8
0 10 -99865 -1 -262144 0 256;
#X obj 215 332 nbx 3 20 -1e+37 1e+37 0 0 empty \$0-seq4 empty 0 -8
0 10 -99865 -1 -262144 0 256;
#X obj 235 352 nbx 3 20 -1e+37 1e+37 0 0 empty \$0-seq5 empty 0 -8
0 10 -99865 -1 -262144 0 256;
#X obj 213 372 nbx 3 20 -1e+37 1e+37 0 0 empty \$0-seq6 empty 0 -8
0 10 -99865 -1 -262144 0 256;
#X obj 186 392 nbx 3 20 -1e+37 1e+37 0 0 empty \$0-seq7 empty 0 -8
0 10 -99865 -1 -262144 0 256;
#X obj 165 412 nbx 3 20 -1e+37 1e+37 0 0 empty \$0-seq8 empty 0 -8
0 10 -258699 -1 -262144 0 256;
#X obj 353 540 t b f;
#X obj 396 541 t b f;
#X obj 437 541 t b f;
#X obj 480 542 t b f;
#X obj 522 542 t b f;
#X obj 565 543 t b f;
#X obj 606 543 t b f;
#X obj 404 722 outlet;
#X obj -224 17 route list;
#X obj 59 147 t f f;
#X msg 59 168 set \$1;
#X obj 109 147 t f f;
#X msg 108 168 set \$1;
#X obj 160 147 t f f;
#X msg 160 168 set \$1;
#X obj 210 147 t f f;
#X msg 210 168 set \$1;
#X obj 262 144 t f f;
#X msg 262 165 set \$1;
#X obj 312 144 t f f;
#X msg 312 165 set \$1;
#X obj 363 144 t f f;
#X msg 364 166 set \$1;
#X obj 413 144 t f f;
#X msg 413 165 set \$1;
#X obj -492 166 select 0 1 2 3 4 5 6 7 8 9 10 11 12 13 14 15;
#X obj -207 48 % 16;
#X obj 139 432 nbx 3 20 -1e+37 1e+37 0 0 empty \$0-seq9 empty 0 -8
0 10 -99865 -1 -262144 0 256;
#X obj 111 411 nbx 3 20 -1e+37 1e+37 0 0 empty \$0-seq10 empty 0 -8
0 10 -99865 -1 -262144 0 256;
#X obj 88 391 nbx 3 20 -1e+37 1e+37 0 0 empty \$0-seq11 empty 0 -8
0 10 -99865 -1 -262144 0 256;
#X obj 68 370 nbx 3 20 -1e+37 1e+37 0 0 empty \$0-seq12 empty 0 -8
0 10 -99865 -1 -262144 0 256;
#X obj 50 351 nbx 3 20 -1e+37 1e+37 0 0 empty \$0-seq13 empty 0 -8
0 10 -99865 -1 -262144 0 256;
#X obj 68 331 nbx 3 20 -1e+37 1e+37 0 0 empty \$0-seq14 empty 0 -8
0 10 -99865 -1 -262144 0 256;
#X obj 85 311 nbx 3 20 -1e+37 1e+37 0 0 empty \$0-seq15 empty 0 -8
0 10 -99865 -1 -262144 0 256;
#X obj 108 291 nbx 3 20 0 127 0 0 empty \$0-seq16 empty 0 -8 0 10 -99865
-1 -262144 0 256;
#X obj 462 143 t f f;
#X msg 462 164 set \$1;
#X obj 512 143 t f f;
#X msg 511 164 set \$1;
#X obj 563 143 t f f;
#X msg 563 164 set \$1;
#X obj 613 143 t f f;
#X msg 613 164 set \$1;
#X obj 661 137 t f f;
#X msg 665 161 set \$1;
#X obj 714 137 t f f;
#X msg 715 161 set \$1;
#X obj 766 140 t f f;
#X msg 767 162 set \$1;
#X obj 816 140 t f f;
#X msg 816 161 set \$1;
#X obj 648 545 t b f;
#X obj 691 546 t b f;
#X obj 732 546 t b f;
#X obj 775 547 t b f;
#X obj 817 547 t b f;
#X obj 860 548 t b f;
#X obj 901 548 t b f;
#X obj 226 81 unpack f f f f f f f f f f f f f f f f;
#X obj 422 662 pack f f f f f f f f f f f f f f f f;
#X obj 941 550 t b f;
#X obj -381 345 f;
#X obj -358 354 f;
#X obj -335 363 f;
#X obj -313 374 f;
#X obj -293 385 f;
#X obj -270 393 f;
#X obj -248 400 f;
#X obj -225 411 f;
#X obj -202 422 f;
#X obj -181 430 f;
#X obj -159 443 f;
#X obj -138 456 f;
#X obj -117 467 f;
#X obj -94 478 f;
#X obj -72 488 f;
#X obj -50 496 f;
#X obj -13 711 outlet;
#X obj -239 533 pack f 127;
#X obj -8 505 f;
#X obj 15 514 f;
#X obj 38 523 f;
#X obj 60 534 f;
#X obj 80 545 f;
#X obj 103 553 f;
#X obj 125 560 f;
#X obj 148 571 f;
#X obj 172 579 f;
#X obj 193 587 f;
#X obj 215 600 f;
#X obj 236 613 f;
#X obj 257 624 f;
#X obj 280 635 f;
#X obj 302 645 f;
#X obj 324 653 f;
#X obj -41 671 route -1;
#X obj 97 639 pack f 0;
#X obj -261 125 select 0 1 2 3 4 5 6 7 8 9 10 11 12 13 14 15;
#X obj -221 77 t f f f b;
#N canvas 1 82 1364 661 color 1;
#X obj 81 34 inlet;
#X obj 981 38 inlet;
#X obj 44 255 s \$0-seq1;
#X obj 713 202 s \$0-seq1;
#X obj 773 225 s \$0-seq2;
#X obj 834 250 s \$0-seq3;
#X obj 896 276 s \$0-seq4;
#X obj 959 293 s \$0-seq5;
#X obj 1023 318 s \$0-seq6;
#X obj 1086 345 s \$0-seq7;
#X obj 1152 371 s \$0-seq8;
#X obj 112 280 s \$0-seq2;
#X obj 180 307 s \$0-seq3;
#X obj 250 334 s \$0-seq4;
#X obj 314 358 s \$0-seq5;
#X obj 382 383 s \$0-seq6;
#X obj 450 410 s \$0-seq7;
#X obj 520 437 s \$0-seq8;
#X msg 43 230 color 13;
#X msg 111 255 color 13;
#X msg 179 282 color 13;
#X msg 250 309 color 13;
#X msg 313 333 color 13;
#X msg 381 358 color 13;
#X msg 449 385 color 13;
#X msg 519 412 color 13;
#X msg 713 178 color 21;
#X msg 772 200 color 21;
#X msg 833 225 color 21;
#X msg 895 251 color 21;
#X msg 958 268 color 21;
#X msg 1023 293 color 21;
#X msg 1085 320 color 21;
#X msg 1151 346 color 21;
#X obj 932 126 t b b b b b b b b b b b b b b b b;
#X msg 820 295 color 21;
#X msg 881 319 color 21;
#X msg 951 346 color 21;
#X msg 1021 371 color 21;
#X msg 1090 397 color 21;
#X msg 1160 423 color 21;
#X msg 1228 449 color 21;
#X msg 1302 476 color 21;
#X obj 820 319 s \$0-seq9;
#X obj 882 344 s \$0-seq10;
#X obj 952 371 s \$0-seq11;
#X obj 1022 396 s \$0-seq12;
#X obj 1091 422 s \$0-seq13;
#X obj 1160 448 s \$0-seq14;
#X obj 1229 474 s \$0-seq15;
#X obj 1303 501 s \$0-seq16;
#X obj 336 438 s \$0-seq13;
#X obj 405 464 s \$0-seq14;
#X obj 474 490 s \$0-seq15;
#X obj 548 517 s \$0-seq16;
#X obj 57 374 s \$0-seq9;
#X obj 119 399 s \$0-seq10;
#X obj 189 426 s \$0-seq11;
#X obj 259 451 s \$0-seq12;
#X obj 230 161 route 0 1 2 3 4 5 6 7 8 9 10 11 12 13 14 15;
#X msg 57 350 color 13;
#X msg 118 374 color 13;
#X msg 187 401 color 13;
#X msg 258 426 color 13;
#X msg 335 413 color 13;
#X msg 405 439 color 13;
#X msg 473 465 color 13;
#X msg 547 492 color 13;
#X obj 889 46 initbang;
#X connect 0 0 59 0;
#X connect 1 0 34 0;
#X connect 18 0 2 0;
#X connect 19 0 11 0;
#X connect 20 0 12 0;
#X connect 21 0 13 0;
#X connect 22 0 14 0;
#X connect 23 0 15 0;
#X connect 24 0 16 0;
#X connect 25 0 17 0;
#X connect 26 0 3 0;
#X connect 27 0 4 0;
#X connect 28 0 5 0;
#X connect 29 0 6 0;
#X connect 30 0 7 0;
#X connect 31 0 8 0;
#X connect 32 0 9 0;
#X connect 33 0 10 0;
#X connect 34 0 26 0;
#X connect 34 1 27 0;
#X connect 34 2 28 0;
#X connect 34 3 29 0;
#X connect 34 4 30 0;
#X connect 34 5 31 0;
#X connect 34 6 32 0;
#X connect 34 7 33 0;
#X connect 34 8 35 0;
#X connect 34 9 36 0;
#X connect 34 10 37 0;
#X connect 34 11 38 0;
#X connect 34 12 39 0;
#X connect 34 13 40 0;
#X connect 34 14 41 0;
#X connect 34 15 42 0;
#X connect 35 0 43 0;
#X connect 36 0 44 0;
#X connect 37 0 45 0;
#X connect 38 0 46 0;
#X connect 39 0 47 0;
#X connect 40 0 48 0;
#X connect 41 0 49 0;
#X connect 42 0 50 0;
#X connect 59 0 18 0;
#X connect 59 1 19 0;
#X connect 59 2 20 0;
#X connect 59 3 21 0;
#X connect 59 4 22 0;
#X connect 59 5 23 0;
#X connect 59 6 24 0;
#X connect 59 7 25 0;
#X connect 59 8 60 0;
#X connect 59 9 61 0;
#X connect 59 10 62 0;
#X connect 59 11 63 0;
#X connect 59 12 64 0;
#X connect 59 13 65 0;
#X connect 59 14 66 0;
#X connect 59 15 67 0;
#X connect 60 0 55 0;
#X connect 61 0 56 0;
#X connect 62 0 57 0;
#X connect 63 0 58 0;
#X connect 64 0 51 0;
#X connect 65 0 52 0;
#X connect 66 0 53 0;
#X connect 67 0 54 0;
#X connect 68 0 34 0;
#X restore -144 102 pd color;
#X connect 0 0 18 0;
#X connect 1 0 68 0;
#X connect 2 0 69 0;
#X connect 2 0 71 1;
#X connect 2 0 89 1;
#X connect 3 0 10 0;
#X connect 3 0 72 1;
#X connect 3 0 90 1;
#X connect 4 0 11 0;
#X connect 4 0 73 1;
#X connect 4 0 91 1;
#X connect 5 0 12 0;
#X connect 5 0 74 1;
#X connect 5 0 92 1;
#X connect 6 0 13 0;
#X connect 6 0 75 1;
#X connect 6 0 93 1;
#X connect 7 0 14 0;
#X connect 7 0 76 1;
#X connect 7 0 94 1;
#X connect 8 0 15 0;
#X connect 8 0 77 1;
#X connect 8 0 95 1;
#X connect 9 0 16 0;
#X connect 9 0 78 1;
#X connect 9 0 96 1;
#X connect 10 0 69 0;
#X connect 10 1 69 1;
#X connect 11 0 69 0;
#X connect 11 1 69 2;
#X connect 12 0 69 0;
#X connect 12 1 69 3;
#X connect 13 0 69 0;
#X connect 13 1 69 4;
#X connect 14 0 69 0;
#X connect 14 1 69 5;
#X connect 15 0 69 0;
#X connect 15 1 69 6;
#X connect 16 0 69 0;
#X connect 16 1 69 7;
#X connect 18 0 68 0;
#X connect 18 1 36 0;
#X connect 19 0 20 0;
#X connect 19 1 69 0;
#X connect 19 1 71 1;
#X connect 19 1 89 1;
#X connect 20 0 2 0;
#X connect 21 0 22 0;
#X connect 21 1 69 1;
#X connect 21 1 72 1;
#X connect 21 1 90 1;
#X connect 22 0 3 0;
#X connect 23 0 24 0;
#X connect 23 1 69 2;
#X connect 23 1 73 1;
#X connect 23 1 91 1;
#X connect 24 0 4 0;
#X connect 25 0 26 0;
#X connect 25 1 69 3;
#X connect 25 1 74 1;
#X connect 25 1 92 1;
#X connect 26 0 5 0;
#X connect 27 0 28 0;
#X connect 27 1 69 4;
#X connect 27 1 75 1;
#X connect 27 1 93 1;
#X connect 28 0 6 0;
#X connect 29 0 30 0;
#X connect 29 1 69 5;
#X connect 29 1 76 1;
#X connect 29 1 94 1;
#X connect 30 0 7 0;
#X connect 31 0 32 0;
#X connect 31 1 69 6;
#X connect 31 1 77 1;
#X connect 31 1 95 1;
#X connect 32 0 8 0;
#X connect 33 0 34 0;
#X connect 33 1 69 7;
#X connect 33 1 78 1;
#X connect 33 1 96 1;
#X connect 34 0 9 0;
#X connect 35 0 71 0;
#X connect 35 1 72 0;
#X connect 35 2 73 0;
#X connect 35 3 74 0;
#X connect 35 4 75 0;
#X connect 35 5 76 0;
#X connect 35 6 77 0;
#X connect 35 7 78 0;
#X connect 35 8 79 0;
#X connect 35 9 80 0;
#X connect 35 10 81 0;
#X connect 35 11 82 0;
#X connect 35 12 83 0;
#X connect 35 13 84 0;
#X connect 35 14 85 0;
#X connect 35 15 86 0;
#X connect 36 0 108 0;
#X connect 37 0 61 0;
#X connect 37 0 79 1;
#X connect 37 0 97 1;
#X connect 38 0 62 0;
#X connect 38 0 80 1;
#X connect 38 0 98 1;
#X connect 39 0 63 0;
#X connect 39 0 81 1;
#X connect 39 0 99 1;
#X connect 40 0 64 0;
#X connect 40 0 82 1;
#X connect 40 0 100 1;
#X connect 41 0 65 0;
#X connect 41 0 83 1;
#X connect 41 0 101 1;
#X connect 42 0 66 0;
#X connect 42 0 84 1;
#X connect 42 0 102 1;
#X connect 43 0 67 0;
#X connect 43 0 85 1;
#X connect 43 0 103 1;
#X connect 44 0 70 0;
#X connect 44 0 86 1;
#X connect 44 0 104 1;
#X connect 45 0 46 0;
#X connect 45 1 69 8;
#X connect 45 1 79 1;
#X connect 45 1 97 1;
#X connect 46 0 37 0;
#X connect 47 0 48 0;
#X connect 47 1 69 9;
#X connect 47 1 80 1;
#X connect 47 1 98 1;
#X connect 48 0 38 0;
#X connect 49 0 50 0;
#X connect 49 1 69 10;
#X connect 49 1 81 1;
#X connect 49 1 99 1;
#X connect 50 0 39 0;
#X connect 51 0 52 0;
#X connect 51 1 69 11;
#X connect 51 1 82 1;
#X connect 51 1 100 1;
#X connect 52 0 40 0;
#X connect 53 0 54 0;
#X connect 53 1 69 12;
#X connect 53 1 83 1;
#X connect 53 1 101 1;
#X connect 54 0 41 0;
#X connect 55 0 56 0;
#X connect 55 1 69 13;
#X connect 55 1 84 1;
#X connect 55 1 102 1;
#X connect 56 0 42 0;
#X connect 57 0 58 0;
#X connect 57 1 69 14;
#X connect 57 1 85 1;
#X connect 57 1 103 1;
#X connect 58 0 43 0;
#X connect 59 0 60 0;
#X connect 59 1 69 15;
#X connect 59 1 86 1;
#X connect 59 1 104 1;
#X connect 60 0 44 0;
#X connect 61 0 69 0;
#X connect 61 1 69 8;
#X connect 62 0 69 0;
#X connect 62 1 69 9;
#X connect 63 0 69 0;
#X connect 63 1 69 10;
#X connect 64 0 69 0;
#X connect 64 1 69 11;
#X connect 65 0 69 0;
#X connect 65 1 69 12;
#X connect 66 0 69 0;
#X connect 66 1 69 13;
#X connect 67 0 69 0;
#X connect 67 1 69 14;
#X connect 68 0 19 0;
#X connect 68 1 21 0;
#X connect 68 2 23 0;
#X connect 68 3 25 0;
#X connect 68 4 27 0;
#X connect 68 5 29 0;
#X connect 68 6 31 0;
#X connect 68 7 33 0;
#X connect 68 8 45 0;
#X connect 68 9 47 0;
#X connect 68 10 49 0;
#X connect 68 11 51 0;
#X connect 68 12 53 0;
#X connect 68 13 55 0;
#X connect 68 14 57 0;
#X connect 68 15 59 0;
#X connect 69 0 17 0;
#X connect 70 0 69 0;
#X connect 70 1 69 15;
#X connect 71 0 88 0;
#X connect 72 0 88 0;
#X connect 73 0 88 0;
#X connect 74 0 88 0;
#X connect 75 0 88 0;
#X connect 76 0 88 0;
#X connect 77 0 88 0;
#X connect 78 0 88 0;
#X connect 79 0 88 0;
#X connect 80 0 88 0;
#X connect 81 0 88 0;
#X connect 82 0 88 0;
#X connect 83 0 88 0;
#X connect 84 0 88 0;
#X connect 85 0 88 0;
#X connect 86 0 88 0;
#X connect 88 0 105 0;
#X connect 89 0 106 0;
#X connect 90 0 106 0;
#X connect 91 0 106 0;
#X connect 92 0 106 0;
#X connect 93 0 106 0;
#X connect 94 0 106 0;
#X connect 95 0 106 0;
#X connect 96 0 106 0;
#X connect 97 0 106 0;
#X connect 98 0 106 0;
#X connect 99 0 106 0;
#X connect 100 0 106 0;
#X connect 101 0 106 0;
#X connect 102 0 106 0;
#X connect 103 0 106 0;
#X connect 104 0 106 0;
#X connect 105 1 87 0;
#X connect 106 0 105 0;
#X connect 107 0 104 0;
#X connect 107 1 89 0;
#X connect 107 2 90 0;
#X connect 107 3 91 0;
#X connect 107 4 92 0;
#X connect 107 5 93 0;
#X connect 107 6 94 0;
#X connect 107 7 95 0;
#X connect 107 8 96 0;
#X connect 107 9 97 0;
#X connect 107 10 98 0;
#X connect 107 11 99 0;
#X connect 107 12 100 0;
#X connect 107 13 101 0;
#X connect 107 14 102 0;
#X connect 107 15 103 0;
#X connect 108 0 35 0;
#X connect 108 1 107 0;
#X connect 108 2 109 0;
#X connect 108 3 109 1;
#X coords 0 -1 1 1 232 185 2 45 270;
