#N canvas 1 82 1364 661 10;
#X obj -226 25 inlet;
#X obj 309 37 inlet;
#X obj 45 278 nbx 3 20 -1e+37 1e+37 0 0 7 0 empty 0 -8 0 10 -262144
-1 -1 0 256;
#X obj 84 278 nbx 3 20 -1e+37 1e+37 0 0 7 0 empty 0 -8 0 10 -262144
-1 -1 0 256;
#X obj 123 278 nbx 3 20 -1e+37 1e+37 0 0 7 0 empty 0 -8 0 10 -262144
-1 -1 0 256;
#X obj 162 278 nbx 3 20 -1e+37 1e+37 0 0 7 0 empty 0 -8 0 10 -262144
-1 -1 0 256;
#X obj 202 278 nbx 3 20 -1e+37 1e+37 0 0 7 0 empty 0 -8 0 10 -262144
-1 -1 0 256;
#X obj 241 278 nbx 3 20 -1e+37 1e+37 0 0 7 0 empty 0 -8 0 10 -262144
-1 -1 0 256;
#X obj 280 278 nbx 3 20 -1e+37 1e+37 0 0 7 0 empty 0 -8 0 10 -262144
-1 -1 0 256;
#X obj 319 278 nbx 3 20 -1e+37 1e+37 0 0 7 0 empty 0 -8 0 10 -262144
-1 -1 0 256;
#X obj 356 439 t b f;
#X obj 399 440 t b f;
#X obj 440 440 t b f;
#X obj 483 441 t b f;
#X obj 525 441 t b f;
#X obj 568 442 t b f;
#X obj 609 442 t b f;
#X obj 407 621 outlet;
#X obj -245 62 route list;
#X obj 59 147 t f f;
#X msg 59 168 set \$1;
#X obj 109 147 t f f;
#X msg 108 168 set \$1;
#X obj 160 147 t f f;
#X msg 160 168 set \$1;
#X obj 210 147 t f f;
#X msg 210 168 set \$1;
#X obj 262 144 t f f;
#X msg 262 165 set \$1;
#X obj 312 144 t f f;
#X msg 312 165 set \$1;
#X obj 363 144 t f f;
#X msg 364 166 set \$1;
#X obj 413 144 t f f;
#X msg 413 165 set \$1;
#X obj -321 160 select 0 1 2 3 4 5 6 7 8 9 10 11 12 13 14 15;
#X obj -287 130 % 16;
#X obj 358 278 nbx 3 20 -1e+37 1e+37 0 0 7 0 empty 0 -8 0 10 -262144
-1 -1 0 256;
#X obj 397 278 nbx 3 20 -1e+37 1e+37 0 0 7 0 empty 0 -8 0 10 -262144
-1 -1 0 256;
#X obj 436 278 nbx 3 20 -1e+37 1e+37 0 0 7 0 empty 0 -8 0 10 -262144
-1 -1 0 256;
#X obj 475 278 nbx 3 20 -1e+37 1e+37 0 0 7 0 empty 0 -8 0 10 -262144
-1 -1 0 256;
#X obj 514 278 nbx 3 20 -1e+37 1e+37 0 0 7 0 empty 0 -8 0 10 -262144
-1 -1 0 256;
#X obj 553 278 nbx 3 20 -1e+37 1e+37 0 0 7 0 empty 0 -8 0 10 -262144
-1 -1 0 256;
#X obj 592 278 nbx 3 20 -1e+37 1e+37 0 0 7 0 empty 0 -8 0 10 -262144
-1 -1 0 256;
#X obj 631 278 nbx 3 20 0 127 0 0 7 0 empty 0 -8 0 10 -262144 -1 -1
0 256;
#X obj 462 143 t f f;
#X msg 462 164 set \$1;
#X obj 512 143 t f f;
#X msg 511 164 set \$1;
#X obj 563 143 t f f;
#X msg 563 164 set \$1;
#X obj 613 143 t f f;
#X msg 613 164 set \$1;
#X obj 663 200 t f f;
#X msg 665 161 set \$1;
#X obj 713 200 t f f;
#X msg 715 161 set \$1;
#X obj 766 140 t f f;
#X msg 767 162 set \$1;
#X obj 816 140 t f f;
#X msg 816 161 set \$1;
#X obj 651 444 t b f;
#X obj 694 445 t b f;
#X obj 735 445 t b f;
#X obj 778 446 t b f;
#X obj 820 446 t b f;
#X obj 863 447 t b f;
#X obj 904 447 t b f;
#X obj 226 81 unpack f f f f f f f f f f f f f f f f;
#X obj 425 561 pack f f f f f f f f f f f f f f f f;
#X obj 944 449 t b f;
#X obj -363 222 s \$0current;
#X obj -370 129 mod 16;
#X obj 320 270 cnv 8 30 8 empty \$0current empty 20 12 0 14 -258113
-66577 0;
#X obj -370 177 + 47;
#X msg -372 197 pos \$1 270;
#X obj -363 155 * 39;
#X obj -241 381 f;
#X obj -214 399 f;
#X obj -198 418 f;
#X obj -171 436 f;
#X obj -157 454 f;
#X obj -130 472 f;
#X obj -114 491 f;
#X obj -87 509 f;
#X obj -56 526 f;
#X obj -29 544 f;
#X obj -13 563 f;
#X obj 14 581 f;
#X obj 28 599 f;
#X obj 55 617 f;
#X obj 71 636 f;
#X obj 98 654 f;
#X obj -55 678 route -1;
#X obj -51 704 outlet;
#X connect 0 0 18 0;
#X connect 1 0 68 0;
#X connect 2 0 69 0;
#X connect 2 0 77 1;
#X connect 3 0 10 0;
#X connect 3 0 78 1;
#X connect 4 0 11 0;
#X connect 4 0 79 1;
#X connect 5 0 12 0;
#X connect 5 0 80 1;
#X connect 6 0 13 0;
#X connect 6 0 81 1;
#X connect 7 0 14 0;
#X connect 7 0 82 1;
#X connect 8 0 15 0;
#X connect 8 0 83 1;
#X connect 9 0 16 0;
#X connect 9 0 84 1;
#X connect 10 0 69 0;
#X connect 10 1 69 1;
#X connect 11 0 69 0;
#X connect 11 1 69 2;
#X connect 12 0 69 0;
#X connect 12 1 69 3;
#X connect 13 0 69 0;
#X connect 13 1 69 4;
#X connect 14 0 69 0;
#X connect 14 1 69 5;
#X connect 15 0 69 0;
#X connect 15 1 69 6;
#X connect 16 0 69 0;
#X connect 16 1 69 7;
#X connect 18 0 68 0;
#X connect 18 1 36 0;
#X connect 18 1 72 0;
#X connect 19 0 20 0;
#X connect 19 1 69 0;
#X connect 19 1 77 1;
#X connect 20 0 2 0;
#X connect 21 0 22 0;
#X connect 21 1 69 1;
#X connect 21 1 78 1;
#X connect 22 0 3 0;
#X connect 23 0 24 0;
#X connect 23 1 69 2;
#X connect 23 1 79 1;
#X connect 24 0 4 0;
#X connect 25 0 26 0;
#X connect 25 1 69 3;
#X connect 25 1 80 1;
#X connect 26 0 5 0;
#X connect 27 0 28 0;
#X connect 27 1 69 4;
#X connect 27 1 81 1;
#X connect 28 0 6 0;
#X connect 29 0 30 0;
#X connect 29 1 69 5;
#X connect 29 1 82 1;
#X connect 30 0 7 0;
#X connect 31 0 32 0;
#X connect 31 1 69 6;
#X connect 31 1 83 1;
#X connect 32 0 8 0;
#X connect 33 0 34 0;
#X connect 33 1 69 7;
#X connect 33 1 84 1;
#X connect 34 0 9 0;
#X connect 35 0 77 0;
#X connect 35 1 78 0;
#X connect 35 2 79 0;
#X connect 35 3 80 0;
#X connect 35 4 81 0;
#X connect 35 5 82 0;
#X connect 35 6 83 0;
#X connect 35 7 84 0;
#X connect 35 8 85 0;
#X connect 35 9 86 0;
#X connect 35 10 87 0;
#X connect 35 11 88 0;
#X connect 35 12 89 0;
#X connect 35 13 90 0;
#X connect 35 14 91 0;
#X connect 35 15 92 0;
#X connect 36 0 35 0;
#X connect 37 0 61 0;
#X connect 37 0 85 1;
#X connect 38 0 62 0;
#X connect 38 0 86 1;
#X connect 39 0 63 0;
#X connect 39 0 87 1;
#X connect 40 0 64 0;
#X connect 40 0 88 1;
#X connect 41 0 65 0;
#X connect 41 0 89 1;
#X connect 42 0 66 0;
#X connect 42 0 90 1;
#X connect 43 0 67 0;
#X connect 43 0 91 1;
#X connect 44 0 70 0;
#X connect 44 0 92 1;
#X connect 45 0 46 0;
#X connect 45 1 69 8;
#X connect 46 0 37 0;
#X connect 47 0 48 0;
#X connect 47 1 69 9;
#X connect 48 0 38 0;
#X connect 49 0 50 0;
#X connect 49 1 69 10;
#X connect 50 0 39 0;
#X connect 51 0 52 0;
#X connect 51 1 69 11;
#X connect 52 0 40 0;
#X connect 53 0 54 0;
#X connect 53 1 69 12;
#X connect 54 0 41 0;
#X connect 55 0 56 0;
#X connect 55 1 69 13;
#X connect 56 0 42 0;
#X connect 57 0 58 0;
#X connect 57 1 69 14;
#X connect 58 0 43 0;
#X connect 59 0 60 0;
#X connect 59 1 69 15;
#X connect 60 0 44 0;
#X connect 61 0 69 0;
#X connect 61 1 69 8;
#X connect 62 0 69 0;
#X connect 62 1 69 9;
#X connect 63 0 69 0;
#X connect 63 1 69 10;
#X connect 64 0 69 0;
#X connect 64 1 69 11;
#X connect 65 0 69 0;
#X connect 65 1 69 12;
#X connect 66 0 69 0;
#X connect 66 1 69 13;
#X connect 67 0 69 0;
#X connect 67 1 69 14;
#X connect 68 0 19 0;
#X connect 68 1 21 0;
#X connect 68 2 23 0;
#X connect 68 3 25 0;
#X connect 68 4 27 0;
#X connect 68 5 29 0;
#X connect 68 6 31 0;
#X connect 68 7 33 0;
#X connect 68 8 45 0;
#X connect 68 9 47 0;
#X connect 68 10 49 0;
#X connect 68 11 51 0;
#X connect 68 12 53 0;
#X connect 68 13 55 0;
#X connect 68 15 59 0;
#X connect 69 0 17 0;
#X connect 70 0 69 0;
#X connect 70 1 69 15;
#X connect 72 0 76 0;
#X connect 74 0 75 0;
#X connect 75 0 71 0;
#X connect 76 0 74 0;
#X connect 77 0 93 0;
#X connect 78 0 93 0;
#X connect 79 0 93 0;
#X connect 80 0 93 0;
#X connect 81 0 93 0;
#X connect 82 0 93 0;
#X connect 83 0 93 0;
#X connect 84 0 93 0;
#X connect 85 0 93 0;
#X connect 86 0 93 0;
#X connect 87 0 93 0;
#X connect 88 0 93 0;
#X connect 89 0 93 0;
#X connect 90 0 93 0;
#X connect 91 0 93 0;
#X connect 92 0 93 0;
#X connect 93 1 94 0;
#X coords 0 -1 1 1 625 28 2 45 270;
