#N canvas 1 82 1364 661 10;
#X obj -50 81 select 0 1 2 3 4 5 6 7;
#X obj 228 -6 % 8;
#X obj 223 -64 inlet;
#X obj 100 67 unit-seq1x16-midi;
#X obj 108 67 unit-seq1x16-midi;
#X obj 116 67 unit-seq1x16-midi;
#X obj 124 67 unit-seq1x16-midi;
#X obj 132 67 unit-seq1x16-midi;
#X obj 140 67 unit-seq1x16-midi;
#X obj 148 67 unit-seq1x16-midi;
#X obj 156 67 unit-seq1x16-midi;
#X obj 677 579 outlet;
#X obj 204 -41 route list;
#X obj -62 435 f;
#X obj -27 437 f;
#X obj 1 438 f;
#X obj 31 438 f;
#X obj 64 438 f;
#X obj 96 441 f;
#X obj 127 442 f;
#X obj 161 441 f;
#X obj 26 503 pack f 127;
#X obj 69 583 outlet;
#X obj 9 33 s \$0current;
#X obj 2 -60 mod 8;
#X obj 381 30 select 0 1 2 3 4 5 6 7;
#X obj 195 442 f;
#X obj 227 441 f;
#X obj 261 438 f;
#X obj 292 438 f;
#X obj 323 439 f;
#X obj 356 440 f;
#X obj 391 442 f;
#X obj 429 442 f;
#X obj 247 499 pack f 0;
#X obj 312 12 t f f;
#X obj 124 59 cnv 8 8 8 empty \$0current empty 20 12 0 14 -258113 -66577
0;
#N canvas 1 82 1364 661 math 0;
#X obj 69 447 outlet;
#X obj 175 245 + 48;
#X obj 202 204 * 12;
#X obj 128 315 +;
#X obj 159 286 t b f;
#X obj 143 95 unpack;
#X obj 162 67 inlet;
#X obj 98 367 *;
#X obj 47 162 route 0;
#X msg 78 194 1;
#X msg 43 193 0;
#X obj 62 236 t b f;
#X connect 1 0 4 0;
#X connect 2 0 1 0;
#X connect 3 0 7 0;
#X connect 4 0 3 0;
#X connect 4 1 3 1;
#X connect 5 0 3 0;
#X connect 5 0 8 0;
#X connect 5 1 2 0;
#X connect 6 0 5 0;
#X connect 7 0 0 0;
#X connect 8 0 10 0;
#X connect 8 1 9 0;
#X connect 9 0 11 0;
#X connect 10 0 11 0;
#X connect 11 0 7 0;
#X connect 11 1 7 1;
#X restore -70 293 pd math;
#N canvas 1 82 1364 661 math 0;
#X obj 79 457 outlet;
#X obj 185 255 + 48;
#X obj 212 214 * 12;
#X obj 138 325 +;
#X obj 169 296 t b f;
#X obj 153 105 unpack;
#X obj 172 77 inlet;
#X obj 108 377 *;
#X obj 57 172 route 0;
#X msg 88 204 1;
#X msg 53 203 0;
#X obj 72 246 t b f;
#X connect 1 0 4 0;
#X connect 2 0 1 0;
#X connect 3 0 7 0;
#X connect 4 0 3 0;
#X connect 4 1 3 1;
#X connect 5 0 3 0;
#X connect 5 0 8 0;
#X connect 5 1 2 0;
#X connect 6 0 5 0;
#X connect 7 0 0 0;
#X connect 8 0 10 0;
#X connect 8 1 9 0;
#X connect 9 0 11 0;
#X connect 10 0 11 0;
#X connect 11 0 7 0;
#X connect 11 1 7 1;
#X restore -20 294 pd math;
#N canvas 1 82 1364 661 math 0;
#X obj 89 467 outlet;
#X obj 195 265 + 48;
#X obj 222 224 * 12;
#X obj 148 335 +;
#X obj 179 306 t b f;
#X obj 163 115 unpack;
#X obj 182 87 inlet;
#X obj 118 387 *;
#X obj 67 182 route 0;
#X msg 98 214 1;
#X msg 63 213 0;
#X obj 82 256 t b f;
#X connect 1 0 4 0;
#X connect 2 0 1 0;
#X connect 3 0 7 0;
#X connect 4 0 3 0;
#X connect 4 1 3 1;
#X connect 5 0 3 0;
#X connect 5 0 8 0;
#X connect 5 1 2 0;
#X connect 6 0 5 0;
#X connect 7 0 0 0;
#X connect 8 0 10 0;
#X connect 8 1 9 0;
#X connect 9 0 11 0;
#X connect 10 0 11 0;
#X connect 11 0 7 0;
#X connect 11 1 7 1;
#X restore 29 292 pd math;
#N canvas 1 82 1364 661 math 0;
#X obj 116 517 outlet;
#X obj 143 138 unpack;
#X obj 162 67 inlet;
#X obj 211 313 + 48;
#X obj 238 272 * 12;
#X obj 164 383 +;
#X obj 195 354 t b f;
#X obj 134 435 *;
#X obj 70 226 route 0;
#X msg 114 262 1;
#X msg 79 261 0;
#X obj 98 304 t b f;
#X connect 1 0 5 0;
#X connect 1 0 8 0;
#X connect 1 1 4 0;
#X connect 2 0 1 0;
#X connect 3 0 6 0;
#X connect 4 0 3 0;
#X connect 5 0 7 0;
#X connect 6 0 5 0;
#X connect 6 1 5 1;
#X connect 7 0 0 0;
#X connect 8 0 10 0;
#X connect 8 1 9 0;
#X connect 9 0 11 0;
#X connect 10 0 11 0;
#X connect 11 0 7 0;
#X connect 11 1 7 1;
#X restore 78 292 pd math;
#N canvas 1 82 1364 661 math 0;
#X obj 115 395 outlet;
#X obj 162 67 inlet;
#X obj 196 242 + 48;
#X obj 223 201 * 12;
#X obj 149 312 +;
#X obj 180 283 t b f;
#X obj 164 92 unpack;
#X obj 119 364 *;
#X obj 68 159 route 0;
#X msg 99 191 1;
#X msg 64 190 0;
#X obj 83 233 t b f;
#X connect 1 0 6 0;
#X connect 2 0 5 0;
#X connect 3 0 2 0;
#X connect 4 0 7 0;
#X connect 5 0 4 0;
#X connect 5 1 4 1;
#X connect 6 0 4 0;
#X connect 6 0 8 0;
#X connect 6 1 3 0;
#X connect 7 0 0 0;
#X connect 8 0 10 0;
#X connect 8 1 9 0;
#X connect 9 0 11 0;
#X connect 10 0 11 0;
#X connect 11 0 7 0;
#X connect 11 1 7 1;
#X restore 127 294 pd math;
#N canvas 1 82 1364 661 math 0;
#X obj 110 501 outlet;
#X obj 162 67 inlet;
#X obj 209 283 + 48;
#X obj 236 242 * 12;
#X obj 162 353 +;
#X obj 193 324 t b f;
#X obj 177 133 unpack;
#X obj 132 405 *;
#X obj 81 200 route 0;
#X msg 112 232 1;
#X msg 77 231 0;
#X obj 96 274 t b f;
#X connect 1 0 6 0;
#X connect 2 0 5 0;
#X connect 3 0 2 0;
#X connect 4 0 7 0;
#X connect 5 0 4 0;
#X connect 5 1 4 1;
#X connect 6 0 4 0;
#X connect 6 0 8 0;
#X connect 6 1 3 0;
#X connect 7 0 0 0;
#X connect 8 0 10 0;
#X connect 8 1 9 0;
#X connect 9 0 11 0;
#X connect 10 0 11 0;
#X connect 11 0 7 0;
#X connect 11 1 7 1;
#X restore 177 294 pd math;
#N canvas 1 82 1364 661 math 0;
#X obj 122 497 outlet;
#X obj 162 67 inlet;
#X obj 207 285 + 48;
#X obj 234 244 * 12;
#X obj 160 355 +;
#X obj 191 326 t b f;
#X obj 175 135 unpack;
#X obj 130 407 *;
#X obj 79 202 route 0;
#X msg 110 234 1;
#X msg 75 233 0;
#X obj 94 276 t b f;
#X connect 1 0 6 0;
#X connect 2 0 5 0;
#X connect 3 0 2 0;
#X connect 4 0 7 0;
#X connect 5 0 4 0;
#X connect 5 1 4 1;
#X connect 6 0 4 0;
#X connect 6 0 8 0;
#X connect 6 1 3 0;
#X connect 7 0 0 0;
#X connect 8 0 10 0;
#X connect 8 1 9 0;
#X connect 9 0 11 0;
#X connect 10 0 11 0;
#X connect 11 0 7 0;
#X connect 11 1 7 1;
#X restore 227 295 pd math;
#N canvas 1 82 1364 661 math 0;
#X obj 124 563 outlet;
#X obj 162 67 inlet;
#X obj 206 282 + 48;
#X obj 233 241 * 12;
#X obj 159 352 +;
#X obj 190 323 t b f;
#X obj 174 132 unpack;
#X obj 129 404 *;
#X obj 78 199 route 0;
#X msg 109 231 1;
#X msg 74 230 0;
#X obj 93 273 t b f;
#X connect 1 0 6 0;
#X connect 2 0 5 0;
#X connect 3 0 2 0;
#X connect 4 0 7 0;
#X connect 5 0 4 0;
#X connect 5 1 4 1;
#X connect 6 0 4 0;
#X connect 6 0 8 0;
#X connect 6 1 3 0;
#X connect 7 0 0 0;
#X connect 8 0 10 0;
#X connect 8 1 9 0;
#X connect 9 0 11 0;
#X connect 10 0 11 0;
#X connect 11 0 7 0;
#X connect 11 1 7 1;
#X restore 278 295 pd math;
#X obj 33 542 route 0;
#X obj 10 -34 * 8;
#X obj 2 -12 + 100;
#X msg 0 8 pos \$1 59;
#X obj 691 346 unpack;
#X obj 768 345 unpack;
#X obj 834 337 unpack;
#X obj 913 336 unpack;
#X obj 994 333 unpack;
#X obj 1086 329 unpack;
#X obj 1159 326 unpack;
#X obj 673 370 t b f;
#X obj 712 370 t b f;
#X obj 754 370 t b f;
#X obj 793 371 t b f;
#X obj 833 367 t b f;
#X obj 866 366 t b f;
#X obj 910 364 t b f;
#X obj 950 369 t b f;
#X obj 990 360 t b f;
#X obj 1030 365 t b f;
#X obj 1075 364 t b f;
#X obj 1115 369 t b f;
#X obj 1159 363 t b f;
#X obj 1203 364 t b f;
#X obj 654 505 pack f f f f f f f f f f f f f f f f;
#X obj 597 337 unpack;
#X obj 579 361 t b f;
#X obj 618 361 t b f;
#X obj 721 -45 inlet;
#X obj 653 -10 unpack f f f f f f f f f f f f f f f f;
#X obj 644 21 pack;
#X obj 675 23 pack;
#X obj 714 109 pack;
#X obj 736 22 pack;
#X obj 767 23 pack;
#X obj 798 23 pack;
#X obj 829 22 pack;
#X obj 860 22 pack;
#X obj 152 548 route 0;
#X connect 0 0 13 0;
#X connect 0 1 14 0;
#X connect 0 2 15 0;
#X connect 0 3 16 0;
#X connect 0 4 17 0;
#X connect 0 5 18 0;
#X connect 0 6 19 0;
#X connect 0 7 20 0;
#X connect 1 0 35 0;
#X connect 2 0 12 0;
#X connect 3 0 37 0;
#X connect 3 0 71 0;
#X connect 4 0 49 0;
#X connect 4 0 38 0;
#X connect 5 0 50 0;
#X connect 5 0 39 0;
#X connect 6 0 40 0;
#X connect 6 0 51 0;
#X connect 7 0 41 0;
#X connect 7 0 52 0;
#X connect 8 0 42 0;
#X connect 8 0 53 0;
#X connect 9 0 43 0;
#X connect 9 0 54 0;
#X connect 10 0 44 0;
#X connect 10 0 55 0;
#X connect 12 1 1 0;
#X connect 12 1 24 0;
#X connect 13 0 21 0;
#X connect 14 0 21 0;
#X connect 15 0 21 0;
#X connect 16 0 21 0;
#X connect 17 0 21 0;
#X connect 18 0 21 0;
#X connect 19 0 21 0;
#X connect 20 0 21 0;
#X connect 21 0 45 0;
#X connect 24 0 46 0;
#X connect 25 0 33 0;
#X connect 25 1 26 0;
#X connect 25 2 27 0;
#X connect 25 3 28 0;
#X connect 25 4 29 0;
#X connect 25 5 30 0;
#X connect 25 6 31 0;
#X connect 25 7 32 0;
#X connect 26 0 34 0;
#X connect 27 0 34 0;
#X connect 28 0 34 0;
#X connect 29 0 34 0;
#X connect 30 0 34 0;
#X connect 31 0 34 0;
#X connect 32 0 34 0;
#X connect 33 0 34 0;
#X connect 34 0 84 0;
#X connect 35 0 0 0;
#X connect 35 1 25 0;
#X connect 37 0 13 1;
#X connect 37 0 26 1;
#X connect 38 0 14 1;
#X connect 38 0 27 1;
#X connect 39 0 15 1;
#X connect 39 0 28 1;
#X connect 40 0 16 1;
#X connect 40 0 29 1;
#X connect 41 0 17 1;
#X connect 41 0 30 1;
#X connect 42 0 18 1;
#X connect 42 0 31 1;
#X connect 43 0 19 1;
#X connect 43 0 32 1;
#X connect 44 0 20 1;
#X connect 44 0 33 1;
#X connect 45 1 22 0;
#X connect 46 0 47 0;
#X connect 47 0 48 0;
#X connect 48 0 23 0;
#X connect 49 0 56 0;
#X connect 49 1 57 0;
#X connect 50 0 58 0;
#X connect 50 1 59 0;
#X connect 51 0 60 0;
#X connect 51 1 61 0;
#X connect 52 0 62 0;
#X connect 52 1 63 0;
#X connect 53 0 64 0;
#X connect 53 1 65 0;
#X connect 54 0 66 0;
#X connect 54 1 67 0;
#X connect 55 0 68 0;
#X connect 55 1 69 0;
#X connect 56 0 70 0;
#X connect 56 1 70 2;
#X connect 57 0 70 0;
#X connect 57 1 70 3;
#X connect 58 0 70 0;
#X connect 58 1 70 4;
#X connect 59 0 70 0;
#X connect 59 1 70 5;
#X connect 60 0 70 0;
#X connect 60 1 70 6;
#X connect 61 0 70 0;
#X connect 61 1 70 7;
#X connect 62 0 70 0;
#X connect 62 1 70 8;
#X connect 63 0 70 0;
#X connect 63 1 70 9;
#X connect 64 0 70 0;
#X connect 64 1 70 10;
#X connect 65 0 70 0;
#X connect 65 1 70 11;
#X connect 66 0 70 0;
#X connect 66 1 70 12;
#X connect 67 0 70 0;
#X connect 67 1 70 13;
#X connect 68 0 70 0;
#X connect 68 1 70 14;
#X connect 69 0 70 0;
#X connect 69 1 70 15;
#X connect 70 0 11 0;
#X connect 71 0 72 0;
#X connect 71 1 73 0;
#X connect 72 0 70 0;
#X connect 72 1 70 0;
#X connect 73 0 70 0;
#X connect 73 1 70 1;
#X connect 74 0 75 0;
#X connect 75 0 76 0;
#X connect 75 1 76 1;
#X connect 75 2 77 0;
#X connect 75 3 77 1;
#X connect 75 4 78 0;
#X connect 75 5 78 1;
#X connect 75 6 79 0;
#X connect 75 7 79 1;
#X connect 75 8 80 0;
#X connect 75 9 80 1;
#X connect 75 10 81 0;
#X connect 75 11 81 1;
#X connect 75 12 82 0;
#X connect 75 13 82 1;
#X connect 75 14 83 0;
#X connect 75 15 83 1;
#X connect 76 0 37 0;
#X connect 76 0 3 0;
#X connect 77 0 4 0;
#X connect 77 0 38 0;
#X connect 78 0 5 0;
#X connect 78 0 39 0;
#X connect 79 0 40 0;
#X connect 79 0 6 0;
#X connect 80 0 41 0;
#X connect 80 0 7 0;
#X connect 81 0 42 0;
#X connect 81 0 8 0;
#X connect 82 0 43 0;
#X connect 82 0 9 0;
#X connect 83 0 44 0;
#X connect 83 0 10 0;
#X connect 84 1 22 0;
#X coords 0 -1 1 1 64 151 2 100 58;
