#N canvas 1 82 1272 661 10;
#X obj 68 475 outlet~;
#X obj 61 129 inlet~;
#X obj 121 138 inlet~;
#X obj 128 475 outlet~;
#X obj 1073 79 inlet params;
#X obj 231 454 tof/param /wet 0 /g slider 0 1;
#X obj 1073 125 print PARAM_NOTFOUND;
#X obj 68 450 tof/crossfade~ 2;
#X msg 232 479 \$1 5;
#X obj 232 503 line~;
#X obj 1073 101 tof/param route;
#X obj 1069 224 b;
#X obj 1070 253 tof/param gui;
#N canvas 0 50 1272 714 shaper 0;
#X obj 216 464 cos~;
#X obj 203 406 *~;
#X obj 214 439 +~ 0.25;
#X obj 99 206 *~;
#X obj 192 116 *~;
#X obj 327 285 * -1;
#X obj 197 301 *~ 2;
#X obj 297 208 t b f;
#X obj 303 248 * 2;
#X obj 357 123 abs;
#X obj 50 46 inlet~ signal;
#X obj 235 594 outlet~;
#X obj 357 98 - 1;
#X obj 260 60 * 4;
#X obj 357 200 * 8;
#X obj 256 109 line~;
#N canvas 0 50 462 312 rh_scalelog 0;
#X obj 20 155 exp;
#X obj 20 107 *;
#X obj 20 130 +;
#X obj 98 87 log;
#X obj 194 84 log;
#X obj 123 123 t b f;
#X obj 123 145 -;
#X obj 20 183 outlet;
#X obj 20 19 inlet;
#X obj 98 23 inlet;
#X obj 194 24 inlet;
#X connect 0 0 7 0;
#X connect 1 0 2 0;
#X connect 2 0 0 0;
#X connect 3 0 2 1;
#X connect 3 0 5 0;
#X connect 4 0 6 0;
#X connect 5 0 6 0;
#X connect 5 1 6 1;
#X connect 6 0 1 1;
#X connect 8 0 1 0;
#X connect 9 0 3 0;
#X connect 10 0 4 0;
#X restore 297 515 pd rh_scalelog;
#X msg 344 491 0.1;
#X msg 390 491 10;
#X obj 235 563 *~;
#X obj 343 463 r \$0-loadbang;
#X msg 254 85 \$1 5;
#X obj 182 87 line~;
#X msg 180 63 \$1 5;
#X obj 213 337 expr~ $v1>$f2;
#X obj 325 339 expr~ $v1<$f2;
#X obj 249 370 expr~ $v1==0;
#X obj 167 38 inlet amount;
#X obj 260 37 inlet depth;
#X obj 344 38 inlet limit;
#X obj 436 37 inlet gain;
#X connect 0 0 19 0;
#X connect 1 0 2 0;
#X connect 2 0 0 0;
#X connect 3 0 6 0;
#X connect 4 0 3 1;
#X connect 5 0 25 1;
#X connect 6 0 1 0;
#X connect 6 0 24 0;
#X connect 6 0 25 0;
#X connect 7 0 8 0;
#X connect 7 1 8 1;
#X connect 8 0 5 0;
#X connect 8 0 24 1;
#X connect 9 0 7 0;
#X connect 10 0 3 0;
#X connect 12 0 9 0;
#X connect 13 0 21 0;
#X connect 14 0 8 0;
#X connect 15 0 4 1;
#X connect 16 0 19 1;
#X connect 17 0 16 1;
#X connect 18 0 16 2;
#X connect 19 0 11 0;
#X connect 20 0 17 0;
#X connect 20 0 18 0;
#X connect 21 0 15 0;
#X connect 22 0 4 0;
#X connect 23 0 22 0;
#X connect 24 0 26 0;
#X connect 25 0 26 0;
#X connect 26 0 1 1;
#X connect 27 0 23 0;
#X connect 28 0 13 0;
#X connect 28 0 14 0;
#X connect 29 0 12 0;
#X connect 30 0 16 0;
#X restore 150 293 pd shaper;
#X obj 225 161 tof/param /amount 0 /g slider 0 1;
#X obj 249 188 tof/param /depth 0 /g slider 0 1;
#X obj 260 213 tof/param /limit 0 /g slider 0 1;
#X obj 277 242 tof/param /gain 0 /g slider 0 1;
#N canvas 0 50 1272 714 shaper 0;
#X obj 216 464 cos~;
#X obj 203 406 *~;
#X obj 214 439 +~ 0.25;
#X obj 99 206 *~;
#X obj 192 116 *~;
#X obj 327 285 * -1;
#X obj 197 301 *~ 2;
#X obj 297 208 t b f;
#X obj 303 248 * 2;
#X obj 357 123 abs;
#X obj 50 46 inlet~ signal;
#X obj 235 594 outlet~;
#X obj 357 98 - 1;
#X obj 260 60 * 4;
#X obj 357 200 * 8;
#X obj 256 109 line~;
#N canvas 0 50 462 312 rh_scalelog 0;
#X obj 20 155 exp;
#X obj 20 107 *;
#X obj 20 130 +;
#X obj 98 87 log;
#X obj 194 84 log;
#X obj 123 123 t b f;
#X obj 123 145 -;
#X obj 20 183 outlet;
#X obj 20 19 inlet;
#X obj 98 23 inlet;
#X obj 194 24 inlet;
#X connect 0 0 7 0;
#X connect 1 0 2 0;
#X connect 2 0 0 0;
#X connect 3 0 2 1;
#X connect 3 0 5 0;
#X connect 4 0 6 0;
#X connect 5 0 6 0;
#X connect 5 1 6 1;
#X connect 6 0 1 1;
#X connect 8 0 1 0;
#X connect 9 0 3 0;
#X connect 10 0 4 0;
#X restore 297 515 pd rh_scalelog;
#X msg 344 491 0.1;
#X msg 390 491 10;
#X obj 235 563 *~;
#X obj 343 463 r \$0-loadbang;
#X msg 254 85 \$1 5;
#X obj 182 87 line~;
#X msg 180 63 \$1 5;
#X obj 213 337 expr~ $v1>$f2;
#X obj 325 339 expr~ $v1<$f2;
#X obj 249 370 expr~ $v1==0;
#X obj 167 38 inlet amount;
#X obj 260 37 inlet depth;
#X obj 344 38 inlet limit;
#X obj 436 37 inlet gain;
#X connect 0 0 19 0;
#X connect 1 0 2 0;
#X connect 2 0 0 0;
#X connect 3 0 6 0;
#X connect 4 0 3 1;
#X connect 5 0 25 1;
#X connect 6 0 1 0;
#X connect 6 0 24 0;
#X connect 6 0 25 0;
#X connect 7 0 8 0;
#X connect 7 1 8 1;
#X connect 8 0 5 0;
#X connect 8 0 24 1;
#X connect 9 0 7 0;
#X connect 10 0 3 0;
#X connect 12 0 9 0;
#X connect 13 0 21 0;
#X connect 14 0 8 0;
#X connect 15 0 4 1;
#X connect 16 0 19 1;
#X connect 17 0 16 1;
#X connect 18 0 16 2;
#X connect 19 0 11 0;
#X connect 20 0 17 0;
#X connect 20 0 18 0;
#X connect 21 0 15 0;
#X connect 22 0 4 0;
#X connect 23 0 22 0;
#X connect 24 0 26 0;
#X connect 25 0 26 0;
#X connect 26 0 1 1;
#X connect 27 0 23 0;
#X connect 28 0 13 0;
#X connect 28 0 14 0;
#X connect 29 0 12 0;
#X connect 30 0 16 0;
#X restore 238 305 pd shaper;
#X obj 342 132 tof/argument 7;
#X obj 317 108 tof/argument 6;
#X obj 283 87 tof/argument 5;
#X obj 249 67 tof/argument 4;
#X obj 296 12 loadbang;
#X obj 231 429 tof/argument 3;
#X obj 231 405 loadbang;
#X connect 1 0 7 0;
#X connect 1 0 13 0;
#X connect 2 0 7 1;
#X connect 2 0 18 0;
#X connect 4 0 10 0;
#X connect 5 0 8 0;
#X connect 7 0 0 0;
#X connect 7 1 3 0;
#X connect 8 0 9 0;
#X connect 9 0 7 4;
#X connect 10 0 6 0;
#X connect 11 0 12 0;
#X connect 13 0 7 2;
#X connect 14 0 13 1;
#X connect 14 0 18 1;
#X connect 15 0 13 2;
#X connect 15 0 18 2;
#X connect 16 0 13 3;
#X connect 16 0 18 3;
#X connect 17 0 13 4;
#X connect 17 0 18 4;
#X connect 18 0 7 3;
#X connect 19 0 17 0;
#X connect 20 0 16 0;
#X connect 21 0 15 0;
#X connect 22 0 14 0;
#X connect 23 0 19 0;
#X connect 23 0 20 0;
#X connect 23 0 21 0;
#X connect 23 0 22 0;
#X connect 24 0 5 0;
#X connect 25 0 24 0;
