#N canvas 1 82 1272 661 10;
#X obj 114 81 inlet;
#X obj 131 641 outlet~;
#X obj 138 607 *~;
#X obj 114 146 unpack f f;
#X obj 114 210 mtof;
#X text 659 625 Todo: allow override adsr;
#X obj 117 562 cos~;
#X obj 116 525 +~;
#X obj 115 432 phasor~;
#X obj 114 267 sig~;
#X obj 213 457 cos~;
#X obj 213 436 phasor~;
#X obj 213 310 int;
#X obj 211 269 * 7.99;
#X obj 213 290 + 1;
#N canvas 0 50 466 316 rh_scalelog 0;
#X obj 20 155 exp;
#X obj 20 107 *;
#X obj 20 130 +;
#X obj 98 87 log;
#X obj 194 84 log;
#X obj 123 123 t b f;
#X obj 123 145 -;
#X obj 20 183 outlet;
#X obj 20 19 inlet;
#X obj 98 23 inlet;
#X obj 194 24 inlet;
#X connect 0 0 7 0;
#X connect 1 0 2 0;
#X connect 2 0 0 0;
#X connect 3 0 2 1;
#X connect 3 0 5 0;
#X connect 4 0 6 0;
#X connect 5 0 6 0;
#X connect 5 1 6 1;
#X connect 6 0 1 1;
#X connect 8 0 1 0;
#X connect 9 0 3 0;
#X connect 10 0 4 0;
#X restore 264 275 pd rh_scalelog;
#X msg 310 250 0.001;
#X obj 264 295 - 0.001;
#X msg 357 251 0.5;
#X obj 214 358 +~;
#X obj 213 331 sig~;
#X obj 258 331 sig~;
#X obj 183 384 *~;
#X obj 372 394 line~;
#X obj 213 509 *~;
#X msg 386 367 \$1 5;
#X obj 258 148 tof/param /ratio 0 /g slider 0 1;
#X obj 329 173 tof/param /fine 0 /g slider 0 1;
#X obj 394 202 tof/param /amount 0 /g slider 0 1;
#X obj 791 92 inlet params;
#X obj 791 138 print PARAM_NOTFOUND;
#X obj 791 114 tof/param route;
#X obj 787 237 b;
#X obj 787 267 tof/param gui;
#X obj 181 561 mtl/adsr~ /id \$0-adsr;
#X obj 310 224 initbang;
#X obj 393 124 tof/argument 5;
#X obj 328 104 tof/argument 4;
#X obj 278 85 tof/argument 3;
#X obj 303 29 loadbang;
#X connect 0 0 3 0;
#X connect 2 0 1 0;
#X connect 3 0 4 0;
#X connect 3 1 34 0;
#X connect 4 0 9 0;
#X connect 6 0 2 0;
#X connect 7 0 6 0;
#X connect 8 0 7 0;
#X connect 9 0 8 0;
#X connect 9 0 22 0;
#X connect 10 0 24 0;
#X connect 11 0 10 0;
#X connect 12 0 20 0;
#X connect 13 0 14 0;
#X connect 14 0 12 0;
#X connect 15 0 17 0;
#X connect 16 0 15 1;
#X connect 17 0 21 0;
#X connect 18 0 15 2;
#X connect 19 0 22 1;
#X connect 20 0 19 0;
#X connect 21 0 19 1;
#X connect 22 0 11 0;
#X connect 23 0 24 1;
#X connect 24 0 7 1;
#X connect 25 0 23 0;
#X connect 26 0 13 0;
#X connect 27 0 15 0;
#X connect 28 0 25 0;
#X connect 29 0 31 0;
#X connect 31 0 30 0;
#X connect 32 0 33 0;
#X connect 34 0 2 1;
#X connect 35 0 16 0;
#X connect 35 0 18 0;
#X connect 36 0 28 0;
#X connect 37 0 27 0;
#X connect 38 0 26 0;
#X connect 39 0 36 0;
#X connect 39 0 37 0;
#X connect 39 0 38 0;
