#N canvas 1 82 1272 661 10;
#X obj 8 200 mtl/out~;
#X obj 404 249 cnv 15 200 20 empty empty /spectral-xfade/ 2 12 0 8
-258401 -262144 0;
#X text 362 153 <-Click on the propeties menu to display params;
#X text 812 71 tags: fx~;
#X obj 406 279 hsl 100 15 0 1 0 0 /spectral-xfade/wet /spectral-xfade/wet_
wet 105 7 0 8 -262144 -1 -1 9900 1;
#X text 811 92 fft a and b. overwrite the amp/phase pairs of the source
(a) with the pairs of the destination (b) where the amplitude is lower
than the threshhold (...higher if method "mfirst" is used.). ifft;
#X obj 406 300 hsl 100 15 0 1 0 0 /spectral-xfade/morff /spectral-xfade/morff_
morff 105 7 0 8 -262144 -1 -1 9900 1;
#X obj 403 321 tgl 15 0 /spectral-xfade/mfirst /spectral-xfade/mfirst_
mfirst 17 7 0 10 -262144 -1 -1 1 1;
#X obj 8 77 tgl 15 0 empty empty empty 17 7 0 10 -262144 -1 -1 0 1
;
#N canvas 5 185 450 300 generate~ 0;
#X obj 32 89 metro 400;
#X obj 32 175 mtof;
#X obj 104 195 mtof;
#X floatatom 83 69 5 0 0 0 - - -, f 5;
#X obj 32 261 outlet~;
#X obj 103 261 outlet~;
#X obj 30 14 inlet;
#X obj 104 175 mtl/closestNote 0 2 4 7 9;
#X obj 104 234 *~;
#X obj 31 234 *~;
#X obj 32 155 mtl/closestNote 0 2 4 7 9;
#X obj 32 111 random 10;
#X obj 32 132 + 40;
#X obj 32 213 phasor~ 200;
#X obj 104 214 phasor~ 100;
#X connect 0 0 11 0;
#X connect 1 0 13 0;
#X connect 2 0 14 0;
#X connect 3 0 0 1;
#X connect 6 0 0 0;
#X connect 6 0 8 1;
#X connect 6 0 9 1;
#X connect 7 0 2 0;
#X connect 8 0 5 0;
#X connect 9 0 4 0;
#X connect 10 0 1 0;
#X connect 11 0 12 0;
#X connect 12 0 7 0;
#X connect 12 0 10 0;
#X connect 13 0 9 0;
#X connect 14 0 8 0;
#X restore 8 102 pd generate~;
#X text 814 53 Author: 4/2011 martin brinkmann;
#X text 813 18 Description: spectral-xfade effect (same as my vstplugin
with the same name);
#X obj 9 153 mtl/spectral-xfade~ /id spectral-xfade 1 1 1;
#X connect 8 0 9 0;
#X connect 9 0 12 0;
#X connect 9 1 12 1;
#X connect 12 0 0 0;
#X connect 12 1 0 1;
