#N canvas 1 82 1272 661 10;
#X obj 32 376 mtl/out~;
#X obj 543 208 cnv 15 200 20 empty empty /stereoexpand/ 2 12 0 8 -258401
-262144 0;
#X obj 545 232 hsl 100 15 0 1 0 0 /stereoexpand/rolloff /stereoexpand/rolloff_
rolloff 105 7 0 8 -262144 -1 -1 9900 1;
#X text 310 331 <-Click on the propeties menu to display params;
#X text 547 101 tags: fx~;
#X obj 545 251 hsl 100 15 0 1 0 0 /stereoexpand/width /stereoexpand/width_
width 105 7 0 8 -262144 -1 -1 49 1;
#X text 544 72 Description : Stereo Expander;
#X obj 103 214 tgl 15 0 empty empty empty 17 7 0 10 -262144 -1 -1 0
1;
#N canvas 5 185 450 300 generate~ 0;
#X obj 32 213 osc~ 200;
#X obj 32 89 metro 400;
#X obj 32 175 mtof;
#X obj 104 195 mtof;
#X obj 32 132 + 20;
#X obj 32 111 random 70;
#X floatatom 83 69 5 0 0 0 - - -, f 5;
#X obj 32 261 outlet~;
#X obj 103 261 outlet~;
#X obj 30 14 inlet;
#X obj 104 175 mtl/closestNote 0 2 4 7 9;
#X obj 104 234 *~;
#X obj 31 234 *~;
#X obj 104 214 osc~ 100;
#X obj 32 155 mtl/closestNote 0 2 4 7 9;
#X connect 0 0 12 0;
#X connect 1 0 5 0;
#X connect 2 0 0 0;
#X connect 3 0 13 0;
#X connect 4 0 10 0;
#X connect 4 0 14 0;
#X connect 5 0 4 0;
#X connect 6 0 1 1;
#X connect 9 0 1 0;
#X connect 9 0 11 1;
#X connect 9 0 12 1;
#X connect 10 0 3 0;
#X connect 11 0 8 0;
#X connect 12 0 7 0;
#X connect 13 0 11 0;
#X connect 14 0 2 0;
#X restore 103 239 pd generate~;
#X text 544 85 Author: Unknown;
#X obj 31 329 mtl/stereoexpand~ /id stereoexpand 1 1;
#X connect 7 0 8 0;
#X connect 8 0 10 0;
#X connect 8 1 10 1;
#X connect 10 0 0 0;
#X connect 10 1 0 1;
