#N canvas 1 82 1272 661 10;
#X obj 111 406 outlet~;
#X obj 111 241 inlet~;
#X obj 996 37 inlet params;
#X obj 996 83 print PARAM_NOTFOUND;
#X obj 996 59 tof/param route;
#X obj 974 183 b;
#X obj 975 212 tof/param gui;
#X obj 212 186 inlet~;
#X obj 210 440 outlet~;
#X obj 285 279 tof/param /attack 0 /g slider -1 1;
#X obj 318 304 tof/param /sustain 0 /g slider -1 1;
#X obj 110 333 sigpack/transient~;
#X obj 211 370 sigpack/transient~;
#X obj 354 210 tof/argument 4;
#X obj 320 182 tof/argument 3;
#X obj 320 153 loadbang;
#X connect 1 0 11 0;
#X connect 2 0 4 0;
#X connect 4 0 3 0;
#X connect 5 0 6 0;
#X connect 7 0 12 0;
#X connect 9 0 11 1;
#X connect 9 0 12 1;
#X connect 10 0 11 2;
#X connect 10 0 12 2;
#X connect 11 0 0 0;
#X connect 12 0 8 0;
#X connect 13 0 10 0;
#X connect 14 0 9 0;
#X connect 15 0 13 0;
#X connect 15 0 14 0;
