#N canvas 1 82 1272 661 10;
#X obj 179 332 wrap~;
#X obj 179 354 -~ 0.5;
#X obj 179 310 -~;
#X obj 201 269 / 100;
#X obj 275 400 / 100;
#X obj 178 441 *~;
#X obj 383 337 wrap~;
#X obj 383 359 -~ 0.5;
#X obj 383 315 -~;
#X obj 405 274 / 100;
#X obj 478 407 / 100;
#X obj 382 446 *~;
#X obj 570 332 wrap~;
#X obj 570 354 -~ 0.5;
#X obj 570 310 -~;
#X obj 576 283 / 100;
#X obj 690 399 / 100;
#X obj 569 441 *~;
#X text 454 377 AMPLITUDES (percent);
#X obj 153 467 +~;
#X obj 154 493 +~;
#X obj 70 273 phasor~ 88.2;
#X obj 71 172 inlet frequency;
#X obj 154 631 outlet~;
#X obj 1033 42 inlet params;
#X obj 1033 88 print PARAM_NOTFOUND;
#X obj 1033 64 tof/param route;
#X obj 1033 110 b;
#X obj 1033 139 tof/param gui;
#X obj 71 195 unpack f f;
#X obj 71 244 sig~;
#X obj 153 600 *~;
#X obj 183 154 tof/param /phase-1 50 /g slider 0 100;
#X obj 250 175 tof/param /amp-1 0 /g slider 50 100;
#X obj 323 198 tof/param /phase-2 0 /g slider 50 100;
#X obj 437 225 tof/param /amp-2 0 /g slider 50 100;
#X obj 558 249 tof/param /phase-3 0 /g slider 50 100;
#X obj 667 276 tof/param /amp-3 50 /g slider 0 100;
#X obj 71 219 mtof;
#X obj 257 525 mtl/adsr~ /id \$0-adsr;
#X obj 426 120 tof/argument 8;
#X obj 404 98 tof/argument 7;
#X obj 375 75 tof/argument 6;
#X obj 348 53 tof/argument 5;
#X obj 323 30 tof/argument 4;
#X obj 328 5 tof/argument 3;
#X obj 371 -17 loadbang;
#X connect 0 0 1 0;
#X connect 1 0 5 0;
#X connect 2 0 0 0;
#X connect 3 0 2 1;
#X connect 4 0 5 1;
#X connect 5 0 19 0;
#X connect 6 0 7 0;
#X connect 7 0 11 0;
#X connect 8 0 6 0;
#X connect 9 0 8 1;
#X connect 10 0 11 1;
#X connect 11 0 19 1;
#X connect 12 0 13 0;
#X connect 13 0 17 0;
#X connect 14 0 12 0;
#X connect 15 0 14 1;
#X connect 16 0 17 1;
#X connect 17 0 20 1;
#X connect 19 0 20 0;
#X connect 20 0 31 0;
#X connect 21 0 2 0;
#X connect 21 0 8 0;
#X connect 21 0 14 0;
#X connect 22 0 29 0;
#X connect 24 0 26 0;
#X connect 26 0 25 0;
#X connect 27 0 28 0;
#X connect 29 0 38 0;
#X connect 29 1 39 0;
#X connect 30 0 21 0;
#X connect 31 0 23 0;
#X connect 32 0 3 0;
#X connect 33 0 4 0;
#X connect 34 0 9 0;
#X connect 35 0 10 0;
#X connect 36 0 15 0;
#X connect 37 0 16 0;
#X connect 38 0 30 0;
#X connect 39 0 31 1;
#X connect 40 0 37 0;
#X connect 41 0 36 0;
#X connect 42 0 35 0;
#X connect 43 0 34 0;
#X connect 44 0 33 0;
#X connect 45 0 32 0;
#X connect 46 0 40 0;
#X connect 46 0 41 0;
#X connect 46 0 42 0;
#X connect 46 0 43 0;
#X connect 46 0 44 0;
#X connect 46 0 45 0;
