#N canvas 1 82 1364 661 10;
#X obj 100 216 vradio 8 1 0 3 empty empty empty 0 -8 0 10 -262144 -1
-1 0;
#X obj 118 30 inlet;
#N canvas 1 82 1364 661 vradio 0;
#X obj 146 337 float;
#X obj 200 338 + 1;
#X obj 155 257 != 0;
#X obj 100 101 vradio 8 1 1 12 empty \$0-vradio_rcv empty 0 -8 0 10
-262144 -33289 -262144 5;
#X obj 157 283 route 0 1;
#X obj 120 216 t b f f;
#X obj 201 367 mod 2;
#X obj 304 390 route 1;
#X msg 167 307 -1;
#X msg 255 426 color 0 12 0;
#X msg 260 461 color 0 0 0;
#X obj 137 418 *;
#X obj 124 483 outlet;
#X obj 312 493 s \$0-vradio_rcv;
#X obj 101 352 + 1;
#X obj 470 273 cnv 15 100 60 empty empty empty 20 12 0 14 -233017 -66577
0;
#X obj 100 35 inlet;
#X connect 0 0 1 0;
#X connect 1 0 0 1;
#X connect 1 0 6 0;
#X connect 2 0 4 0;
#X connect 3 0 5 0;
#X connect 3 0 14 0;
#X connect 4 1 8 0;
#X connect 5 0 0 0;
#X connect 5 1 2 1;
#X connect 5 2 2 0;
#X connect 6 0 7 0;
#X connect 6 0 11 1;
#X connect 7 0 9 0;
#X connect 7 1 10 0;
#X connect 8 0 0 0;
#X connect 9 0 13 0;
#X connect 10 0 13 0;
#X connect 11 0 12 0;
#X connect 14 0 11 0;
#X connect 16 0 3 0;
#X coords 0 -1 1 1 8 97 2 100 100;
#X restore 100 100 pd vradio;
#X obj 115 74 unpack;
#X obj 99 408 outlet;
#X obj 725 94 cnv 15 100 60 empty empty empty 20 12 0 14 -233017 -66577
0;
#X obj 97 373 pack;
#X obj 104 286 t b f;
#X connect 0 0 7 0;
#X connect 1 0 3 0;
#X connect 2 0 6 0;
#X connect 3 0 2 0;
#X connect 3 1 0 0;
#X connect 6 0 4 0;
#X connect 7 0 6 0;
#X connect 7 1 6 1;
#X coords 0 -1 1 1 8 142 2 100 100;
