#N canvas 1 82 1272 661 10;
#X obj 133 305 inlet~;
#X obj 199 298 inlet~;
#X obj 926 126 inlet params;
#X obj 926 172 print PARAM_NOTFOUND;
#X obj 926 148 tof/param route;
#X obj 922 271 b;
#X obj 923 300 tof/param gui;
#X obj 153 536 outlet~;
#X obj 254 535 outlet~;
#X obj 334 324 tof/param /phase 0 /g slider 0 1;
#N canvas 0 50 1272 692 vibrato 0;
#X obj 466 -5 inlet~ signal;
#X obj 769 448 outlet~;
#X obj 737 242 *~;
#X obj 852 227 line~;
#X obj 738 147 osc~;
#X obj 738 197 abs~;
#X obj 701 94 line~;
#X obj 702 21 expr pow($f1 \, 4);
#X obj 701 52 * 100;
#X obj 851 154 expr pow($f1 \, 4);
#X obj 852 177 * 500;
#X obj 583 180 *~;
#X obj 614 162 line~;
#X msg 853 204 \$1 5;
#X msg 698 73 \$1 5;
#X msg 611 141 \$1 5;
#X obj 609 119 * 0.975;
#X obj 575 -13 inlet feedback;
#X obj 700 -5 inlet speed;
#X obj 794 -4 inlet phase;
#X obj 877 -5 inlet depth;
#X obj 738 316 vd~ \$0-wobble-g;
#X obj 517 291 delwrite~ \$0-wobble-g 500;
#X connect 0 0 22 0;
#X connect 2 0 21 0;
#X connect 3 0 2 1;
#X connect 4 0 5 0;
#X connect 5 0 2 0;
#X connect 6 0 4 0;
#X connect 7 0 8 0;
#X connect 8 0 14 0;
#X connect 9 0 10 0;
#X connect 10 0 13 0;
#X connect 11 0 22 0;
#X connect 12 0 11 1;
#X connect 13 0 3 0;
#X connect 14 0 6 0;
#X connect 15 0 12 0;
#X connect 16 0 15 0;
#X connect 17 0 16 0;
#X connect 18 0 7 0;
#X connect 19 0 4 1;
#X connect 20 0 9 0;
#X connect 21 0 11 0;
#X connect 21 0 1 0;
#X restore 164 432 pd vibrato;
#N canvas 0 50 1272 692 vibrato 0;
#X obj 466 -5 inlet~ signal;
#X obj 769 448 outlet~;
#X obj 737 242 *~;
#X obj 852 227 line~;
#X obj 738 147 osc~;
#X obj 738 197 abs~;
#X obj 701 94 line~;
#X obj 702 21 expr pow($f1 \, 4);
#X obj 701 52 * 100;
#X obj 851 154 expr pow($f1 \, 4);
#X obj 852 177 * 500;
#X obj 583 180 *~;
#X obj 614 162 line~;
#X msg 853 204 \$1 5;
#X msg 698 73 \$1 5;
#X msg 611 141 \$1 5;
#X obj 609 119 * 0.975;
#X obj 575 -13 inlet feedback;
#X obj 700 -5 inlet speed;
#X obj 794 -4 inlet phase;
#X obj 877 -5 inlet depth;
#X obj 516 291 delwrite~ \$0-wobble-d 500;
#X obj 739 316 vd~ \$0-wobble-d;
#X connect 0 0 21 0;
#X connect 2 0 22 0;
#X connect 3 0 2 1;
#X connect 4 0 5 0;
#X connect 5 0 2 0;
#X connect 6 0 4 0;
#X connect 7 0 8 0;
#X connect 8 0 14 0;
#X connect 9 0 10 0;
#X connect 10 0 13 0;
#X connect 11 0 21 0;
#X connect 12 0 11 1;
#X connect 13 0 3 0;
#X connect 14 0 6 0;
#X connect 15 0 12 0;
#X connect 16 0 15 0;
#X connect 17 0 16 0;
#X connect 18 0 7 0;
#X connect 19 0 4 1;
#X connect 20 0 9 0;
#X connect 22 0 11 0;
#X connect 22 0 1 0;
#X restore 255 456 pd vibrato;
#X obj 284 269 tof/param /feedback 0 /g slider 0 1;
#X obj 303 296 tof/param /speed 0 /g slider 0 1;
#X obj 343 354 tof/param /depth 0 /g slider 0 1;
#X obj 364 224 tof/argument 6;
#X obj 336 203 tof/argument 5;
#X obj 305 178 tof/argument 4;
#X obj 280 159 tof/argument 3;
#X obj 316 124 loadbang;
#X connect 0 0 10 0;
#X connect 1 0 11 0;
#X connect 2 0 4 0;
#X connect 4 0 3 0;
#X connect 5 0 6 0;
#X connect 9 0 10 3;
#X connect 9 0 11 3;
#X connect 10 0 7 0;
#X connect 11 0 8 0;
#X connect 12 0 10 1;
#X connect 12 0 11 1;
#X connect 13 0 10 2;
#X connect 13 0 11 2;
#X connect 14 0 11 4;
#X connect 14 0 10 4;
#X connect 15 0 14 0;
#X connect 16 0 9 0;
#X connect 17 0 13 0;
#X connect 18 0 12 0;
#X connect 19 0 15 0;
#X connect 19 0 16 0;
#X connect 19 0 17 0;
#X connect 19 0 18 0;
