#N canvas 1 82 1364 661 10;
#X obj -97 267 pix_motionblur;
#X obj -85 482 outlet;
#X obj -97 -59 inlet;
#X obj -88 104 pix_threshold;
#X obj -101 182 pix_gain;
#X obj -99 36 pix_invert;
#X obj -85 399 alpha;
#X obj -74 370 colorRGB;
#X obj -85 424 depth;
#X msg 353 211 threshold \$1;
#X msg 449 211 gain \$1;
#X msg 518 211 R \$1;
#X text 568 211 etc...;
#X text 351 106 VIDEO multifx \; //////////////// \; 1st inlet : video
\; 2nd inlet : fx control \; \; to control each fx you can use the
second inlet \, putting a message like that :;
#X obj -97 -25 pix_contrast;
#X obj 47 -109 tof/param /contrast 0 /g slider 0 20;
#X obj 47 -86 tof/param /saturation 0 /g slider 0 100;
#X obj -66 13 tof/param /invert 0 /g tgl 0 1;
#X obj -21 73 tof/param /thresold 0 /g slider 0 1;
#X obj 8 130 tof/param /gain 1 /g slider 0 3;
#X obj -2 205 tof/param /blur 0 /g slider 0 1;
#X obj 57 272 tof/param /R 1 /g slider 0 1;
#X obj 73 294 tof/param /G 1 /g slider 0 1;
#X obj 80 318 tof/param /B 1 /g slider 0 1;
#X obj 87 342 tof/param /Alpha 1 /g slider 0 1;
#X obj 828 137 inlet params;
#X obj 828 183 print PARAM_NOTFOUND;
#X obj 828 159 tof/param route;
#X obj 824 282 b;
#X obj 825 311 tof/param gui;
#X obj 975 194 print;
#X connect 0 0 7 0;
#X connect 2 0 14 0;
#X connect 3 0 4 0;
#X connect 4 0 0 0;
#X connect 5 0 3 0;
#X connect 6 0 8 0;
#X connect 7 0 6 0;
#X connect 8 0 1 0;
#X connect 14 0 5 0;
#X connect 15 0 14 1;
#X connect 16 0 14 2;
#X connect 17 0 5 0;
#X connect 18 0 3 1;
#X connect 19 0 4 1;
#X connect 20 0 0 1;
#X connect 21 0 7 1;
#X connect 22 0 7 2;
#X connect 23 0 7 3;
#X connect 24 0 7 4;
#X connect 25 0 27 0;
#X connect 25 0 30 0;
#X connect 27 0 26 0;
#X connect 28 0 29 0;
#X coords 0 661 1 660 105 125 0;
