#N canvas 0 82 1366 662 10;
#X text 71 33 videofx-lumaoffset \; -------------------------- \; inlet
1 : gemlist (with picture or movie) \; inlet 2 : command \; outlet
: gemlist modified;
#X obj 458 27 tgl 15 0 empty empty empty 17 7 0 10 -262144 -1 -1 0
1;
#X obj 453 49 mtl/gemsWin /dimen 640 480;
#X obj 823 118 cnv 15 200 20 empty empty /videofx-lumaoffset/ 2 12
0 8 -258401 -262144 0;
#X obj 824 148 nbx 5 14 0 1000 0 0 /videofx-lumaoffset/offset /videofx-lumaoffset/offset_
offset 65 10 0 10 -262144 -1 -1 30 256;
#X obj 73 176 gemhead;
#X obj 211 177 bng 15 250 50 0 empty empty empty 0 -6 0 8 -262144 -1
-1;
#X floatatom 153 136 5 0 0 0 - - -, f 5;
#X obj 73 206 mtl/gemsImages;
#X text 188 133 Select a previously loaded image;
#X text 236 173 Open a panel to select an image;
#X obj 74 303 rectangle 4 3;
#X obj 74 271 pix_texture;
#X obj 823 195 tgl 15 0 /videofx-lumaoffset/fill /videofx-lumaoffset/fill_
fill 17 7 0 10 -262144 -1 -1 1 1;
#X obj 823 215 tgl 15 0 /videofx-lumaoffset/smooth /videofx-lumaoffset/smooth_
smooth 17 7 0 10 -262144 -1 -1 1 1;
#X obj 825 171 nbx 5 14 0 1000 0 0 /videofx-lumaoffset/gap /videofx-lumaoffset/gap_
gap 65 10 0 10 -262144 -1 -1 1 256;
#X text 817 280 Comment: Based on Jerome Abel's work.;
#X text 818 295 tags: gems \, video;
#X text 816 261 Description: VideoFx-LumaOffset;
#X obj 73 240 mtl/videofx-lumaoffset /id videofx-lumaoffset 30 1 1
1;
#X connect 1 0 2 0;
#X connect 5 0 8 0;
#X connect 6 0 8 1;
#X connect 7 0 8 1;
#X connect 8 0 19 0;
#X connect 12 0 11 0;
#X connect 19 0 12 0;
#X coords 0 0 1 1 150 50 0;
