#N canvas 1 82 1351 661 10;
#X obj 128 411 pix_lumaoffset;
#X msg 129 340 smooth \$1;
#X msg 138 368 fill \$1;
#X obj 86 246 inlet video;
#X obj 128 483 outlet video;
#X obj 818 127 inlet params;
#X obj 818 173 print PARAM_NOTFOUND;
#X obj 818 149 tof/param route;
#X obj 814 272 b;
#X obj 815 301 tof/param gui;
#X obj 264 286 tof/param /smooth 0 /g tgl 0 1;
#X obj 254 261 tof/param /fill 0 /g tgl 0 1;
#X obj 232 211 tof/param /offset 30 /g nbx 0 1000;
#X obj 247 235 tof/param /gap 1 /g nbx 0 1000;
#X obj 303 182 tof/argument 6;
#X obj 278 160 tof/argument 5;
#X obj 249 136 tof/argument 4;
#X obj 225 111 tof/argument 3;
#X obj 272 76 loadbang;
#X connect 0 0 4 0;
#X connect 1 0 0 0;
#X connect 2 0 0 0;
#X connect 3 0 0 0;
#X connect 5 0 7 0;
#X connect 7 0 6 0;
#X connect 8 0 9 0;
#X connect 10 0 1 0;
#X connect 11 0 2 0;
#X connect 12 0 0 1;
#X connect 13 0 0 2;
#X connect 14 0 10 0;
#X connect 15 0 11 0;
#X connect 16 0 13 0;
#X connect 17 0 12 0;
#X connect 18 0 14 0;
#X connect 18 0 15 0;
#X connect 18 0 16 0;
#X connect 18 0 17 0;
#X coords 0 661 1 660 150 50 0;
