#N canvas 1 82 1364 661 10;
#X obj 86 468 outlet;
#X obj 96 35 inlet;
#X obj 100 103 vsl 8 89 -1 127 0 0 empty \$0-vradio_rcv empty 0 -9
0 10 -128961 -262144 -262144 8800 1;
#X obj 139 236 route -1;
#X msg 128 354 color 0 0 0;
#X obj 144 419 s \$0-vradio_rcv;
#X msg 185 390 color \$1 0 0;
#X obj 126 207 int;
#X obj 209 299 t b f;
#X obj 208 323 +;
#X obj 155 268 * -65536;
#X obj 220 268 * -256;
#X obj 208 354 - 1;
#X connect 1 0 2 0;
#X connect 2 0 7 0;
#X connect 3 0 4 0;
#X connect 3 1 10 0;
#X connect 3 1 11 0;
#X connect 4 0 5 0;
#X connect 6 0 5 0;
#X connect 7 0 3 0;
#X connect 7 0 0 0;
#X connect 8 0 9 0;
#X connect 8 1 9 1;
#X connect 9 0 12 0;
#X connect 10 0 9 0;
#X connect 11 0 8 0;
#X connect 12 0 6 0;
#X coords 0 -1 1 1 8 95 2 100 100;
