#N canvas 1 82 1351 661 10;
#X obj 70 423 outlet~;
#X obj 69 308 inlet~;
#X obj 129 308 inlet~;
#X obj 130 423 outlet~;
#X obj 898 119 inlet params;
#X obj 428 351 tof/param /wet 0 /g slider 0 1;
#X obj 898 165 print PARAM_NOTFOUND;
#X obj 70 398 tof/crossfade~ 2;
#X msg 428 375 \$1 5;
#X obj 428 399 line~;
#X obj 898 141 tof/param route;
#X obj 904 188 b;
#X obj 904 215 tof/param gui;
#N canvas 529 160 730 557 wave-shaper 0;
#X obj 226 474 cos~;
#X obj 213 416 *~;
#X obj 224 449 +~ 0.25;
#X obj 109 216 *~;
#X obj 202 126 *~;
#X obj 337 295 * -1;
#X obj 207 311 *~ 2;
#X obj 307 218 t b f;
#X obj 313 258 * 2;
#X obj 367 133 abs;
#X obj 60 56 inlet~ signal;
#X obj 227 551 outlet~;
#X obj 367 108 - 1;
#X obj 270 70 * 4;
#X obj 367 210 * 8;
#X obj 266 119 line~;
#X msg 264 95 \$1 5;
#X obj 192 97 line~;
#X msg 190 73 \$1 5;
#X obj 223 347 expr~ $v1>$f2;
#X obj 335 349 expr~ $v1<$f2;
#X obj 259 380 expr~ $v1==0;
#X obj 177 48 inlet amount;
#X obj 270 47 inlet depth;
#X obj 366 86 inlet limit;
#X text 188 28 0-1;
#X text 283 27 0-1;
#X text 384 67 0-1;
#X connect 0 0 11 0;
#X connect 1 0 2 0;
#X connect 2 0 0 0;
#X connect 3 0 6 0;
#X connect 4 0 3 1;
#X connect 5 0 20 1;
#X connect 6 0 1 0;
#X connect 6 0 19 0;
#X connect 6 0 20 0;
#X connect 7 0 8 0;
#X connect 7 1 8 1;
#X connect 8 0 5 0;
#X connect 8 0 19 1;
#X connect 9 0 7 0;
#X connect 10 0 3 0;
#X connect 12 0 9 0;
#X connect 13 0 16 0;
#X connect 14 0 8 0;
#X connect 15 0 4 1;
#X connect 16 0 15 0;
#X connect 17 0 4 0;
#X connect 18 0 17 0;
#X connect 19 0 21 0;
#X connect 20 0 21 0;
#X connect 21 0 1 1;
#X connect 22 0 18 0;
#X connect 23 0 13 0;
#X connect 23 0 14 0;
#X connect 24 0 12 0;
#X restore 99 359 pd wave-shaper;
#N canvas 501 243 730 557 wave-shaper 0;
#X obj 226 474 cos~;
#X obj 213 416 *~;
#X obj 224 449 +~ 0.25;
#X obj 109 216 *~;
#X obj 202 126 *~;
#X obj 337 295 * -1;
#X obj 207 311 *~ 2;
#X obj 307 218 t b f;
#X obj 313 258 * 2;
#X obj 367 133 abs;
#X obj 60 56 inlet~ signal;
#X obj 227 551 outlet~;
#X obj 367 108 - 1;
#X obj 270 70 * 4;
#X obj 367 210 * 8;
#X obj 266 119 line~;
#X msg 264 95 \$1 5;
#X obj 192 97 line~;
#X msg 190 73 \$1 5;
#X obj 223 347 expr~ $v1>$f2;
#X obj 335 349 expr~ $v1<$f2;
#X obj 259 380 expr~ $v1==0;
#X obj 177 48 inlet amount;
#X obj 270 47 inlet depth;
#X obj 366 86 inlet limit;
#X text 188 28 0-1;
#X text 283 27 0-1;
#X text 384 67 0-1;
#X connect 0 0 11 0;
#X connect 1 0 2 0;
#X connect 2 0 0 0;
#X connect 3 0 6 0;
#X connect 4 0 3 1;
#X connect 5 0 20 1;
#X connect 6 0 1 0;
#X connect 6 0 19 0;
#X connect 6 0 20 0;
#X connect 7 0 8 0;
#X connect 7 1 8 1;
#X connect 8 0 5 0;
#X connect 8 0 19 1;
#X connect 9 0 7 0;
#X connect 10 0 3 0;
#X connect 12 0 9 0;
#X connect 13 0 16 0;
#X connect 14 0 8 0;
#X connect 15 0 4 1;
#X connect 16 0 15 0;
#X connect 17 0 4 0;
#X connect 18 0 17 0;
#X connect 19 0 21 0;
#X connect 20 0 21 0;
#X connect 21 0 1 1;
#X connect 22 0 18 0;
#X connect 23 0 13 0;
#X connect 23 0 14 0;
#X connect 24 0 12 0;
#X restore 241 359 pd wave-shaper;
#X obj 190 215 tof/param /amount 0 /g slider 0 1;
#X obj 212 244 tof/param /depth 0 /g slider 0 1;
#X obj 251 272 tof/param /limit 0 /g slider 0 1;
#X obj 152 65 tof/argument 3;
#X obj 237 89 tof/argument 4;
#X obj 269 112 tof/argument 5;
#X obj 299 141 tof/argument 6;
#X obj 231 40 loadbang;
#X connect 1 0 7 0;
#X connect 1 0 13 0;
#X connect 2 0 7 1;
#X connect 2 0 14 0;
#X connect 4 0 10 0;
#X connect 5 0 8 0;
#X connect 7 0 0 0;
#X connect 7 1 3 0;
#X connect 8 0 9 0;
#X connect 9 0 7 4;
#X connect 10 0 6 0;
#X connect 11 0 12 0;
#X connect 13 0 7 2;
#X connect 14 0 7 3;
#X connect 15 0 14 1;
#X connect 15 0 13 1;
#X connect 16 0 14 2;
#X connect 16 0 13 2;
#X connect 17 0 14 3;
#X connect 17 0 13 3;
#X connect 18 0 5 0;
#X connect 19 0 15 0;
#X connect 20 0 16 0;
#X connect 21 0 17 0;
#X connect 22 0 18 0;
#X connect 22 0 19 0;
#X connect 22 0 20 0;
#X connect 22 0 21 0;
