#N canvas 0 82 1366 662 10;
#X text 13 19 Comment: Taken from Andy Farnell's work.;
#X text 14 4 Description: Generates a wind sound.;
#X obj 39 182 mtl/out~;
#X text 14 37 tags: synthesize~;
#X obj 501 131 cnv 15 200 20 empty empty /wind/ 2 12 0 8 -258401 -262144
0;
#X obj 504 159 hsl 128 15 0 127 0 0 /wind/control /wind/control_ control
137 7 0 10 -262144 -1 -1 10000 1;
#X obj 40 144 mtl/wind~;
#X connect 6 0 2 0;
#X connect 6 0 2 1;
