#N canvas 1 82 1351 661 10;
#X obj 107 441 vcf~ 600 23;
#X obj 206 442 vcf~ 600 23;
#X obj 107 505 *~;
#X obj 71 317 lop~ 1;
#X obj 142 303 lop~ 0.1;
#X obj 243 302 lop~ 0.19;
#X obj 143 409 +~;
#X obj 242 140 osc~ 0.03;
#X obj 243 412 +~;
#X obj 289 165 +~;
#X obj 315 139 osc~ 0.3;
#X obj 128 533 bp~ 1000 7;
#X obj 108 601 outlet~;
#X msg 278 418 20;
#X obj 68 343 *~;
#X obj 142 226 *~;
#X obj 142 185 noise~;
#X obj 301 439 loadbang;
#X obj 106 474 *~ 0.15;
#X msg 179 419 14;
#X obj 289 211 *~ 300;
#X obj 242 355 *~ 180000;
#X obj 143 326 *~ 100000;
#X obj 290 187 *~ 0.25;
#X obj 68 369 *~ 1000;
#X obj 68 397 +~ 0.65;
#X obj 288 233 +~ 100;
#X obj 242 380 clip~ 300 1000;
#X obj 143 350 clip~ 250 1000;
#X obj 104 561 *~ 44;
#X obj 996 37 inlet params;
#X obj 996 83 print PARAM_NOTFOUND;
#X obj 996 59 tof/param route;
#X obj 974 183 b;
#X obj 975 212 tof/param gui;
#X obj 533 144 tof/param /control 0 /g slider 0 127;
#X obj 533 111 tof/argument \$3;
#X obj 533 85 loadbang;
#X connect 0 0 18 0;
#X connect 1 0 18 0;
#X connect 2 0 11 0;
#X connect 3 0 14 0;
#X connect 3 0 14 1;
#X connect 4 0 22 0;
#X connect 5 0 21 0;
#X connect 6 0 0 1;
#X connect 7 0 9 0;
#X connect 8 0 1 1;
#X connect 9 0 23 0;
#X connect 10 0 9 1;
#X connect 11 0 29 0;
#X connect 13 0 1 2;
#X connect 14 0 24 0;
#X connect 15 0 0 0;
#X connect 15 0 1 0;
#X connect 15 0 3 0;
#X connect 15 0 4 0;
#X connect 15 0 5 0;
#X connect 16 0 15 0;
#X connect 17 0 13 0;
#X connect 17 0 19 0;
#X connect 18 0 2 0;
#X connect 19 0 0 2;
#X connect 20 0 26 0;
#X connect 21 0 27 0;
#X connect 22 0 28 0;
#X connect 23 0 20 0;
#X connect 24 0 25 0;
#X connect 25 0 2 1;
#X connect 26 0 6 1;
#X connect 26 0 8 1;
#X connect 27 0 8 0;
#X connect 28 0 6 0;
#X connect 29 0 12 0;
#X connect 30 0 32 0;
#X connect 32 0 31 0;
#X connect 33 0 34 0;
#X connect 35 0 15 1;
#X connect 36 0 35 0;
#X connect 37 0 36 0;
